<?xml version="1.0" encoding="UTF-8"?>
<svg width="305px" height="148px" viewBox="0 0 305 148" version="1.1" xmlns="http://www.w3.org/2000/svg" xmlns:xlink="http://www.w3.org/1999/xlink">
    <!-- Generator: Sketch 52.6 (67491) - http://www.bohemiancoding.com/sketch -->
    <title>Group 70</title>
    <desc>Created with Sketch.</desc>
    <defs>
        <linearGradient x1="-0.0370233247%" y1="50.020615%" x2="100%" y2="50.020615%" id="linearGradient-1">
            <stop stop-color="#CCDDF0" offset="0%"></stop>
            <stop stop-color="#D1E1F0" offset="100%"></stop>
        </linearGradient>
        <linearGradient x1="-0.0025052217%" y1="49.8914765%" x2="99.9974903%" y2="49.8914765%" id="linearGradient-2">
            <stop stop-color="#E5EDF6" offset="0%"></stop>
            <stop stop-color="#E6F0FA" offset="100%"></stop>
        </linearGradient>
    </defs>
    <g id="Industries" stroke="none" stroke-width="1" fill="none" fill-rule="evenodd">
        <g id="Industry-Template-Copy-5" transform="translate(-1473.000000, -805.000000)" fill-rule="nonzero">
            <g id="Group-70" transform="translate(1473.000000, 805.000000)">
                <g id="calculator" transform="translate(0.000000, 81.000000)">
                    <path d="M81.77,29.86 C81.7190821,29.2378242 81.3369213,28.6913343 80.77,28.43 L52.24,12.13 L39.13,1.37 C37.2535562,0.523955515 35.0872762,0.616690104 33.29,1.62 L2.15,19.62 C1.36056363,19.9601215 0.819818603,20.7041253 0.74,21.56 L0.74,24.73 L0.74,27.73 C0.786745311,28.3536717 1.17024172,28.9020716 1.74,29.16 L43.38,53.16 C45.2573558,54.014106 47.4289158,53.9250164 49.23,52.92 L80.36,34.92 C81.133816,34.5816921 81.6703945,33.858643 81.77,33.02 L81.77,29.86 Z" id="Shape" fill="url(#linearGradient-1)"></path>
                    <path d="M80.34,32 L49.21,50 C47.4089158,51.0050164 45.2373558,51.094106 43.36,50.24 L15.9,34.39 L1.72,23.19 C0.23,22.32 0.41,20.81 2.14,19.81 L33.28,1.81 C35.0772762,0.806690104 37.2435562,0.713955515 39.12,1.56 L52.21,12.14 L80.76,28.62 C82.26,29.45 82.07,31 80.34,32 Z" id="Shape" fill="url(#linearGradient-2)"></path>
                    <path d="M45.45,12.47 L16.84,29 C16.2232821,29.33824 15.4846054,29.3714805 14.84,29.09 L6.96,22.87 C6.44,22.57 6.5,22.04 7.11,21.69 L35.71,5.18 C36.3270172,4.84039568 37.0678291,4.81076321 37.71,5.1 L45.59,11.31 C46.12,11.59 46.05,12.12 45.45,12.47 Z" id="Shape" fill="#2C3A7B"></path>
                    <path d="M31.19,33.82 L27.91,35.72 C27.2646787,36.0738532 26.4904827,36.1034875 25.82,35.8 L22.2,33.71 C21.67,33.4 21.73,32.86 22.35,32.51 L25.64,30.61 C26.2788303,30.2483451 27.0523187,30.2148768 27.72,30.52 L31.34,32.61 C31.88,32.92 31.81,33.46 31.19,33.82 Z" id="Shape" fill="#9DADBD"></path>
                    <path d="M39.55,29 L36.26,30.9 C35.6211697,31.2616549 34.8476813,31.2951232 34.18,30.99 L30.56,28.9 C30.02,28.59 30.09,28.05 30.71,27.69 L33.99,25.79 C34.6353213,25.4361468 35.4095173,25.4065125 36.08,25.71 L39.7,27.8 C40.24,28.1 40.17,28.64 39.55,29 Z" id="Shape" fill="#9DADBD"></path>
                    <path d="M47.91,24.17 L44.62,26.06 C43.9811697,26.4216549 43.2076813,26.4551232 42.54,26.15 L38.92,24.06 C38.38,23.75 38.45,23.21 39.07,22.86 L42.35,20.96 C42.9923858,20.5981931 43.7688895,20.5647551 44.44,20.87 L48.06,22.96 C48.59,23.27 48.53,23.81 47.91,24.17 Z" id="Shape" fill="#9DADBD"></path>
                    <path d="M56.27,19.34 L52.98,21.24 C52.3362712,21.5970717 51.5620415,21.6304117 50.89,21.33 L47.27,19.24 C46.74,18.93 46.81,18.39 47.42,18.03 L50.71,16.13 C51.3553213,15.7761468 52.1295173,15.7465125 52.8,16.05 L56.42,18.14 C57,18.45 56.88,19 56.27,19.34 Z" id="Shape" fill="#9DADBD"></path>
                    <path d="M40,38.89 L36.72,40.78 C36.0776142,41.1418069 35.3011105,41.1752449 34.63,40.87 L31.01,38.78 C30.47,38.47 30.54,37.93 31.16,37.58 L34.44,35.68 C35.0823858,35.3181931 35.8588895,35.2847551 36.53,35.59 L40.15,37.68 C40.66,38 40.59,38.53 40,38.89 Z" id="Shape" fill="#9DADBD"></path>
                    <path d="M48.33,34.06 L45,36 C44.3582089,36.353659 43.5870595,36.3833186 42.92,36.08 L39.3,33.99 C38.76,33.69 38.83,33.15 39.45,32.79 L42.73,30.89 C43.3753213,30.5361468 44.1495173,30.5065125 44.82,30.81 L48.44,32.9 C49,33.17 49,33.7 48.33,34.06 Z" id="Shape" fill="#9DADBD"></path>
                    <path d="M56.69,29.24 L53.4,31.13 C52.7576142,31.4918069 51.9811105,31.5252449 51.31,31.22 L47.69,29.13 C47.16,28.82 47.23,28.28 47.84,27.92 L51.13,26.03 C51.7723858,25.6681931 52.5488895,25.6347551 53.22,25.94 L56.84,28.03 C57.37,28.34 57.3,28.88 56.69,29.24 Z" id="Shape" fill="#9DADBD"></path>
                    <path d="M65,24.41 L61.72,26.31 C61.0746787,26.6638532 60.3004827,26.6934875 59.63,26.39 L56.01,24.3 C55.48,23.99 55.54,23.46 56.16,23.1 L59.45,21.2 C60.0917911,20.846341 60.8629405,20.8166814 61.53,21.12 L65.15,23.21 C65.73,23.51 65.66,24.05 65,24.41 Z" id="Shape" fill="#9DADBD"></path>
                    <path d="M49.05,44.13 L45.77,46.03 C45.1246787,46.3838532 44.3504827,46.4134875 43.68,46.11 L40.06,44.02 C39.52,43.71 39.59,43.17 40.21,42.82 L43.5,40.92 C44.1401917,40.5631233 44.9113752,40.5297548 45.58,40.83 L49.2,42.92 C49.74,43.23 49.67,43.77 49.05,44.13 Z" id="Shape" fill="#9DADBD"></path>
                    <path d="M57.41,39.3 L54.12,41.2 C53.4811697,41.5616549 52.7076813,41.5951232 52.04,41.29 L48.42,39.2 C47.88,38.89 47.95,38.35 48.57,37.99 L51.85,36.1 C52.4923858,35.7381931 53.2688895,35.7047551 53.94,36.01 L57.56,38.1 C58.09,38.41 58,39 57.41,39.3 Z" id="Shape" fill="#9DADBD"></path>
                    <path d="M65.77,34.48 L62.48,36.38 C61.8382089,36.733659 61.0670595,36.7633186 60.4,36.46 L56.78,34.37 C56.24,34.06 56.31,33.52 56.93,33.17 L60.21,31.27 C60.8523858,30.9081931 61.6288895,30.8747551 62.3,31.18 L65.92,33.27 C66.45,33.58 66.39,34.12 65.77,34.48 Z" id="Shape" fill="#9DADBD"></path>
                    <path d="M74.13,29.65 L70.84,31.55 C70.1976142,31.9118069 69.4211105,31.9452449 68.75,31.64 L65.13,29.55 C64.6,29.24 64.67,28.7 65.28,28.34 L68.57,26.44 C69.2153213,26.0861468 69.9895173,26.0565125 70.66,26.36 L74.28,28.45 C74.81,28.76 74.74,29.3 74.13,29.65 Z" id="Shape" fill="#FF6666"></path>
                </g>
                <g id="content" transform="translate(69.000000, 0.000000)">
                    <path d="M232.25,92.34 L139.85,145.69 C136.27,147.76 130.85,147.99 127.73,146.19 L2.73,74.03 C-0.38,72.24 0.01,69.11 3.6,67.03 L96,13.68 C99.58,11.61 105,11.38 108.12,13.18 L233.12,85.34 C236.23,87.14 235.84,90.27 232.25,92.34 Z" id="Shape" fill="#DBDBDB"></path>
                    <path d="M232.25,80.68 L139.85,134.02 C136.27,136.09 130.85,136.32 127.73,134.53 L2.73,62.36 C-0.38,60.57 0.01,57.44 3.6,55.36 L96,2 C99.58,-0.07 105,-0.3 108.12,1.5 L233.12,73.66 C236.23,75.47 235.84,78.6 232.25,80.68 Z" id="Shape" fill="#F2F3F7"></path>
                    <path d="M101.7,50.63 L86.7,59.27 C85.5522032,59.9111605 84.1684853,59.9705157 82.97,59.43 L82.85,59.36 C81.85,58.8 82.01,57.84 83.11,57.2 L98.11,48.56 C99.2577968,47.9188395 100.641515,47.8594843 101.84,48.4 L101.96,48.47 C102.92,49 102.8,50 101.7,50.63 Z" id="Shape" fill="#C2D6EC"></path>
                    <path d="M125,37.16 L110,45.8 C108.852652,46.4427428 107.468174,46.5021306 106.27,45.96 L106.15,45.89 C105.2,45.34 105.32,44.37 106.42,43.73 L121.42,35.09 C122.567601,34.4456704 123.954365,34.3899024 125.15,34.94 L125.27,35.01 C126.25,35.56 126.13,36.52 125,37.16 Z" id="Shape" fill="#C2D6EC"></path>
                    <path d="M62.83,73.14 L59.08,75.31 C57.9297203,75.9448031 56.5475393,76.0003868 55.35,75.46 L55.23,75.39 C54.28,74.84 54.4,73.88 55.5,73.24 L59.25,71.07 C60.4002797,70.4351969 61.7824607,70.3796132 62.98,70.92 L63.1,70.99 C64.06,71.54 63.94,72.5 62.83,73.14 Z" id="Shape" fill="#C2D6EC"></path>
                    <path d="M79,63.81 L70.76,68.57 C69.6123986,69.2143296 68.2256347,69.2700976 67.03,68.72 L66.91,68.65 C65.91,68.1 66.07,67.14 67.18,66.5 L75.42,61.74 C76.5702797,61.1051969 77.9524607,61.0496132 79.15,61.59 L79.27,61.66 C80.21,62.21 80.09,63.18 79,63.81 Z" id="Shape" fill="#C2D6EC"></path>
                    <path d="M60.88,46.21 L56.07,48.99 C54.9197203,49.6248031 53.5375393,49.6803868 52.34,49.14 L52.22,49.07 C51.27,48.52 51.39,47.55 52.49,46.92 L57.3,44.14 C58.4467458,43.5053893 59.8258819,43.449779 61.02,43.99 L61.15,44.06 C62.1,44.61 62,45.57 60.88,46.21 Z" id="Shape" fill="#C2D6EC"></path>
                    <path d="M109.1,18.37 L87.64,30.76 C86.4922032,31.4011605 85.1084853,31.4605157 83.91,30.92 L83.79,30.85 C82.79,30.3 82.95,29.33 84.05,28.69 L105.51,16.3 C106.660714,15.6667533 108.042153,15.6111994 109.24,16.15 L109.36,16.22 C110.32,16.77 110.2,17.74 109.1,18.37 Z" id="Shape" fill="#C2D6EC"></path>
                    <path d="M79.23,35.62 L69.33,41.33 C68.1822032,41.9711605 66.7984853,42.0305157 65.6,41.49 L65.48,41.42 C64.48,40.87 64.64,39.9 65.75,39.26 L75.65,33.55 C76.7973479,32.9072572 78.1818265,32.8478694 79.38,33.39 L79.5,33.46 C80.45,34 80.33,35 79.23,35.62 Z" id="Shape" fill="#C2D6EC"></path>
                    <path d="M114.43,23.61 L83.66,41.38 C82.5097203,42.0148031 81.1275393,42.0703868 79.93,41.53 L79.81,41.46 C78.81,40.91 78.98,39.95 80.08,39.31 L110.85,21.54 C112.00028,20.9051969 113.382461,20.8496132 114.58,21.39 L114.7,21.46 C115.66,22 115.54,23 114.43,23.61 Z" id="Shape" fill="#C2D6EC"></path>
                    <path d="M75.16,46.28 L63.26,53.15 C62.1162,53.7925737 60.734749,53.851991 59.54,53.31 L59.41,53.24 C58.46,52.69 58.58,51.72 59.68,51.09 L71.58,44.22 C72.7273479,43.5772572 74.1118265,43.5178694 75.31,44.06 L75.43,44.13 C76.39,44.68 76.27,45.65 75.16,46.28 Z" id="Shape" fill="#C2D6EC"></path>
                    <path d="M74.48,75.67 L66.84,80.08 C65.6923986,80.7243296 64.3056347,80.7800976 63.11,80.23 L62.99,80.16 C61.99,79.61 62.15,78.65 63.26,78.01 L70.89,73.6 C72.0407137,72.9667533 73.4221531,72.9111994 74.62,73.45 L74.74,73.52 C75.7,74.07 75.58,75 74.48,75.67 Z" id="Shape" fill="#C2D6EC"></path>
                    <path d="M138.2,38.88 L108.55,56 C107.39972,56.6348031 106.017539,56.6903868 104.82,56.15 L104.7,56.08 C103.75,55.53 103.87,54.57 104.97,53.93 L134.62,36.81 C135.767601,36.1656704 137.154365,36.1099024 138.35,36.66 L138.47,36.73 C139.42,37.28 139.3,38.24 138.2,38.88 Z" id="Shape" fill="#C2D6EC"></path>
                    <path d="M98.73,61.67 L84.36,69.97 C83.2097203,70.6048031 81.8275393,70.6603868 80.63,70.12 L80.51,70.05 C79.51,69.5 79.67,68.53 80.78,67.9 L95.15,59.6 C96.2973479,58.9572572 97.6818265,58.8978694 98.88,59.44 L99,59.51 C100,60.07 99.83,61 98.73,61.67 Z" id="Shape" fill="#C2D6EC"></path>
                    <path d="M143.81,45 L101.81,69.22 C100.662399,69.8643296 99.2756347,69.9200976 98.08,69.37 L97.96,69.3 C96.96,68.75 97.12,67.79 98.22,67.15 L140.17,42.93 C141.318957,42.2904744 142.7034,42.2347998 143.9,42.78 L144.02,42.85 C145,43.37 144.91,44.33 143.81,45 Z" id="Shape" fill="#C2D6EC"></path>
                    <path d="M91.91,74.93 L74.91,84.75 C73.7626521,85.3927428 72.3781735,85.4521306 71.18,84.91 L71.06,84.84 C70.06,84.29 70.22,83.32 71.33,82.69 L88.33,72.86 C89.4802797,72.2251969 90.8624607,72.1696132 92.06,72.71 L92.18,72.78 C93.13,73.33 93,74.3 91.91,74.93 Z" id="Shape" fill="#C2D6EC"></path>
                    <path d="M90.37,47.78 L72.09,58.33 C70.9410433,58.9695256 69.5565998,59.0252002 68.36,58.48 L68.24,58.41 C67.24,57.86 67.4,56.9 68.51,56.26 L86.78,45.71 C87.9277968,45.0688395 89.3115147,45.0094843 90.51,45.55 L90.63,45.62 C91.59,46.17 91.47,47.14 90.37,47.78 Z" id="Shape" fill="#C2D6EC"></path>
                    <path d="M124.8,27.89 L98.14,43.29 C96.9897203,43.9248031 95.6075393,43.9803868 94.41,43.44 L94.29,43.37 C93.34,42.82 93.46,41.85 94.56,41.22 L121.22,25.83 C122.367348,25.1872572 123.751826,25.1278694 124.95,25.67 L125.07,25.74 C126,26.29 125.9,27.26 124.8,27.89 Z" id="Shape" fill="#C2D6EC"></path>
                    <path d="M127.88,106.5 L120.24,110.91 C119.0962,111.552574 117.714749,111.611991 116.52,111.07 L116.39,111 C115.39,110.44 115.56,109.48 116.66,108.84 L124.3,104.44 C125.447348,103.797257 126.831826,103.737869 128.03,104.28 L128.15,104.35 C129.1,104.9 129,105.87 127.88,106.5 Z" id="Shape" fill="#C2D6EC"></path>
                    <path d="M163.18,86.12 L148.18,94.77 C147.029286,95.4032467 145.647847,95.4588006 144.45,94.92 L144.33,94.85 C143.33,94.3 143.49,93.34 144.59,92.7 L159.59,84.06 C160.7338,83.4174263 162.115251,83.358009 163.31,83.9 L163.44,83.97 C164.4,84.52 164.28,85.49 163.18,86.12 Z" id="Shape" fill="#C2D6EC"></path>
                    <path d="M186.51,72.66 L171.51,81.3 C170.362399,81.9443296 168.975635,82.0000976 167.78,81.45 L167.65,81.38 C166.65,80.83 166.82,79.87 167.92,79.23 L182.92,70.59 C184.067797,69.9488395 185.451515,69.8894843 186.65,70.43 L186.77,70.5 C187.73,71.05 187.61,72 186.51,72.66 Z" id="Shape" fill="#C2D6EC"></path>
                    <path d="M139.39,99.86 L136.77,101.37 C135.624587,102.009357 134.243172,102.065059 133.05,101.52 L132.92,101.45 C131.97,100.9 132.09,99.94 133.19,99.3 L135.8,97.79 C136.948957,97.1504744 138.3334,97.0947998 139.53,97.64 L139.65,97.71 C140.61,98.26 140.49,99.22 139.39,99.86 Z" id="Shape" fill="#C2D6EC"></path>
                    <path d="M103.65,92.51 L96.01,96.92 C94.8626521,97.5627428 93.4781735,97.6221306 92.28,97.08 L92.16,97 C91.16,96.45 91.32,95.49 92.43,94.85 L100.06,90.44 C101.210714,89.8067533 102.592153,89.7511994 103.79,90.29 L103.91,90.36 C104.87,90.91 104.75,91.88 103.65,92.51 Z" id="Shape" fill="#C2D6EC"></path>
                    <path d="M167.37,55.72 L137.72,72.84 C136.56972,73.4748031 135.187539,73.5303868 133.99,72.99 L133.87,72.92 C132.92,72.37 133.04,71.41 134.14,70.77 L163.79,53.65 C164.94028,53.0151969 166.322461,52.9596132 167.52,53.5 L167.64,53.57 C168.59,54.12 168.47,55.08 167.37,55.72 Z" id="Shape" fill="#C2D6EC"></path>
                    <path d="M127.9,78.51 L113.53,86.81 C112.379286,87.4432467 110.997847,87.4988006 109.8,86.96 L109.68,86.89 C108.68,86.34 108.84,85.38 109.95,84.74 L124.32,76.44 C125.467601,75.7956704 126.854365,75.7399024 128.05,76.29 L128.17,76.36 C129.12,76.91 129,77.87 127.9,78.51 Z" id="Shape" fill="#C2D6EC"></path>
                    <path d="M173,61.81 L131,86 C129.852203,86.6411605 128.468485,86.7005157 127.27,86.16 L127.15,86.09 C126.15,85.53 126.31,84.57 127.41,83.93 L169.41,59.71 C170.560714,59.0767533 171.942153,59.0211994 173.14,59.56 L173.26,59.63 C174.2,60.21 174.08,61.17 173,61.81 Z" id="Shape" fill="#C2D6EC"></path>
                    <path d="M121.08,91.77 L104.08,101.6 C102.92972,102.234803 101.547539,102.290387 100.35,101.75 L100.23,101.68 C99.23,101.13 99.39,100.16 100.5,99.53 L117.5,89.71 C118.647348,89.0672572 120.031826,89.0078694 121.23,89.55 L121.35,89.62 C122.3,90.17 122.18,91.14 121.08,91.77 Z" id="Shape" fill="#C2D6EC"></path>
                    <path d="M136,111.17 L128.36,115.58 C127.20972,116.214803 125.827539,116.270387 124.63,115.73 L124.51,115.66 C123.56,115.11 123.68,114.14 124.78,113.51 L132.41,109.1 C133.557797,108.45884 134.941515,108.399484 136.14,108.94 L136.26,109.01 C137.18,109.57 137.06,110.53 136,111.17 Z" id="Shape" fill="#C2D6EC"></path>
                    <path d="M199.68,74.38 L170,91.49 C168.8562,92.1325737 167.474749,92.191991 166.28,91.65 L166.15,91.58 C165.15,91.03 165.32,90.06 166.42,89.42 L196.07,72.31 C197.217348,71.6672572 198.601826,71.6078694 199.8,72.15 L199.92,72.22 C200.91,72.77 200.79,73.74 199.68,74.38 Z" id="Shape" fill="#C2D6EC"></path>
                    <path d="M160.21,97.16 L145.84,105.46 C144.692652,106.102743 143.308174,106.162131 142.11,105.62 L141.99,105.55 C140.99,104.99 141.15,104.03 142.26,103.39 L156.63,95.1 C157.777348,94.4572572 159.161826,94.3978694 160.36,94.94 L160.48,95.01 C161.44,95.56 161.32,96.53 160.21,97.16 Z" id="Shape" fill="#C2D6EC"></path>
                    <path d="M205.29,80.47 L163.34,104.69 C162.18972,105.324803 160.807539,105.380387 159.61,104.84 L159.49,104.77 C158.49,104.22 158.65,103.26 159.76,102.62 L201.71,78.4 C202.8538,77.7574263 204.235251,77.698009 205.43,78.24 L205.56,78.31 C206.51,78.87 206.39,79.83 205.29,80.47 Z" id="Shape" fill="#C2D6EC"></path>
                    <path d="M153.39,110.43 L136.39,120.25 C135.242399,120.89433 133.855635,120.950098 132.66,120.4 L132.54,120.33 C131.54,119.78 131.7,118.82 132.81,118.18 L149.81,108.36 C150.957601,107.71567 152.344365,107.659902 153.54,108.21 L153.66,108.28 C154.61,108.83 154.5,109.79 153.39,110.43 Z" id="Shape" fill="#C2D6EC"></path>
                    <path d="M164.47,76 L154.47,81.79 C153.31972,82.4248031 151.937539,82.4803868 150.74,81.94 L150.62,81.87 C149.62,81.32 149.78,80.35 150.89,79.72 L160.89,73.93 C162.037797,73.2888395 163.421515,73.2294843 164.62,73.77 L164.74,73.84 C165.69,74.39 165.57,75.35 164.47,76 Z" id="Shape" fill="#C2D6EC"></path>
                    <path d="M186.33,63.36 L174.33,70.28 C173.182399,70.9243296 171.795635,70.9800976 170.6,70.43 L170.48,70.36 C169.48,69.81 169.64,68.85 170.75,68.21 L182.75,61.3 C183.897348,60.6572572 185.281826,60.5978694 186.48,61.14 L186.6,61.21 C187.55,61.76 187.43,62.73 186.33,63.36 Z" id="Shape" fill="#C2D6EC"></path>
                    <path d="M146,86.76 L112.16,106.29 C111.0162,106.932574 109.634749,106.991991 108.44,106.45 L108.31,106.38 C107.31,105.82 107.48,104.86 108.58,104.22 L142.42,84.69 C143.567348,84.0472572 144.951826,83.9878694 146.15,84.53 L146.27,84.6 C147.27,85.15 147.15,86.12 146,86.76 Z" id="Shape" fill="#C2D6EC"></path>
                    <path d="M63.91,59.85 L42.8,55 C41.329101,54.6438118 39.7793494,54.8246752 38.43,55.51 C37.29,56.17 36.94,57.16 37.54,58.03 L46,70.22 C46.63,71.13 48.42,71.58 50,71.22 C51.58,70.86 52.34,69.83 51.71,68.92 L49.48,65.72 L56.12,61.89 L61.67,63.17 C62.7811886,63.4397383 63.9523018,63.3013341 64.97,62.78 C65.2385599,62.6375678 65.4711178,62.4357896 65.65,62.19 C66.26,61.25 65.49,60.22 63.91,59.85 Z M47.84,63.33 L45.04,59.33 L52.04,60.94 L47.84,63.33 Z" id="Shape" fill="#3D4754"></path>
                </g>
            </g>
        </g>
    </g>
</svg>