<?xml version="1.0" encoding="UTF-8"?>
<svg width="30px" height="22px" viewBox="0 0 30 22" version="1.1" xmlns="http://www.w3.org/2000/svg" xmlns:xlink="http://www.w3.org/1999/xlink">
    <!-- Generator: Sketch 52.6 (67491) - http://www.bohemiancoding.com/sketch -->
    <title>Group 82 Copy</title>
    <desc>Created with Sketch.</desc>
    <defs>
        <linearGradient x1="100%" y1="0%" x2="1.11022302e-14%" y2="100%" id="linearGradient-1">
            <stop stop-color="#FFA6D2" offset="0%"></stop>
            <stop stop-color="#E45555" offset="100%"></stop>
        </linearGradient>
    </defs>
    <g id="Page-1" stroke="none" stroke-width="1" fill="none" fill-rule="evenodd">
        <g id="Rapid-ID-Home-Bio-Verif-Copy-9" transform="translate(-1034.000000, -185.000000)">
            <g id="Group-82-Copy" transform="translate(1034.000000, 185.000000)">
                <path d="M9.63600922,1.49193132e-14 L20.3635965,1.99840144e-14 C21.1756759,1.98348379e-14 21.9071377,0.49104225 22.2146539,1.242645 L29.5793041,19.242645 C29.9975797,20.2649558 29.5079125,21.4327818 28.4856017,21.8510574 C28.2452161,21.9494105 27.9879747,22 27.7282467,22 L2.271359,22 C1.1667895,22 0.271359003,21.1045695 0.271359003,20 C0.271359003,19.740272 0.321948495,19.4830307 0.42030163,19.242645 L7.78495185,1.242645 C8.09246803,0.49104225 8.82392986,1.40828491e-14 9.63600922,1.46549439e-14 Z" id="Triangle" fill="url(#linearGradient-1)"></path>
                <g id="Group-81" transform="translate(6.000000, 5.000000)">
                    <polygon id="Path-14-Copy" fill-opacity="0.4" fill="#FFFFFF" points="14.0108678 12.2317447 4.60923707 12.2317447 9.03875301 7.85714286 18.4396528 7.85714286"></polygon>
                    <polygon id="Path-14-Copy-2" fill="#FFFFFF" opacity="0.7" points="14.0108678 12.2886094 4.60923707 12.2886094 4.60923707 0 14.0108678 0"></polygon>
                    <g id="Group-53" transform="translate(7.035151, 1.904762)" fill="url(#linearGradient-1)">
                        <ellipse id="Oval-24-Copy" cx="2.20119798" cy="0.961941892" rx="1" ry="1"></ellipse>
                        <path d="M2.11765898,2.17153996 L2.11765898,2.17153996 C3.28720974,2.17153996 4.23531796,3.11964818 4.23531796,4.28919894 L4.23531796,4.37026429 L0,4.37026429 L-4.4408921e-16,4.28919894 C-5.87317869e-16,3.11964818 0.94810822,2.17153996 2.11765898,2.17153996 Z" id="Rectangle-19-Copy"></path>
                    </g>
                    <rect id="Rectangle-100-Copy-4" fill="url(#linearGradient-1)" x="6.54996847" y="7.38095238" width="5.57960277" height="1"></rect>
                    <rect id="Rectangle-100-Copy-5" fill="url(#linearGradient-1)" x="6.54996847" y="8.80952381" width="5.57960277" height="1"></rect>
                    <polygon id="Path-14" fill="#FFFFFF" points="4.60852694 12.2317447 14.0101576 12.2317447 10.9418365 9.2202918 8.25716059 9.2202918 6.86826996 7.85714286 0.179741911 7.85714286"></polygon>
                </g>
            </g>
        </g>
    </g>
</svg>