<?xml version="1.0" encoding="UTF-8"?>
<svg width="20px" height="20px" viewBox="0 0 20 20" version="1.1" xmlns="http://www.w3.org/2000/svg" xmlns:xlink="http://www.w3.org/1999/xlink">
    <!-- Generator: Sketch 52.6 (67491) - http://www.bohemiancoding.com/sketch -->
    <title>Group 144</title>
    <desc>Created with Sketch.</desc>
    <g id="Page-1" stroke="none" stroke-width="1" fill="none" fill-rule="evenodd">
        <g id="Group-144">
            <circle id="Oval-Copy-4" fill="#D0EAFF" fill-rule="nonzero" cx="10" cy="10" r="10"></circle>
            <g id="Saas-Copy" transform="translate(4.000000, 5.000000)">
                <path d="M7.03918996,2.78889934 C7.02926779,2.70069918 6.92642732,2.63442066 6.83750126,2.63442066 C6.54999154,2.63442066 6.29486314,2.46560771 6.18786704,2.20453244 C6.07855965,1.93713048 6.14904214,1.62527826 6.3633145,1.42873058 C6.43076197,1.36707451 6.43895652,1.26386305 6.38238843,1.19216833 C6.23523669,1.00530912 6.06798378,0.836519517 5.885369,0.69023519 C5.81385927,0.632851392 5.70894099,0.640835631 5.64693321,0.709495415 C5.45992933,0.916595361 5.12402272,0.993566224 4.86445853,0.885265395 C4.59434181,0.771641741 4.42400719,0.497936434 4.44067645,0.204130457 C4.44616283,0.111844797 4.37871536,0.0316055323 4.28670758,0.0208898435 C4.0523574,-0.00621454581 3.81595274,-0.00705499199 3.58090216,0.0190221854 C3.48994497,0.0290608481 3.4224975,0.107409109 3.42555587,0.198527482 C3.43578155,0.48943859 3.26339245,0.758358022 2.99596055,0.867896174 C2.73950142,0.972648452 2.40595279,0.89633127 2.21932245,0.691075636 C2.15764152,0.62346641 2.05442752,0.615155331 1.9825676,0.671161731 C1.79453648,0.818683381 1.62352481,0.987613064 1.47501898,1.17293145 C1.4170968,1.24497636 1.4256182,1.3494018 1.49374271,1.4113847 C1.71210068,1.60912301 1.78260651,1.92368334 1.66916683,2.19416694 C1.56086333,2.45204384 1.29308124,2.61824208 0.986520943,2.61824208 C0.887042348,2.61504371 0.816186319,2.68181249 0.805306942,2.77225384 C0.777711613,3.0079523 0.777384764,3.2481098 0.803952857,3.48572261 C0.813804996,3.5742963 0.919773864,3.63999117 1.00968048,3.63999117 C1.28287891,3.6330108 1.54517462,3.8021506 1.65520574,4.06990274 C1.76488667,4.3373047 1.69438084,4.64897016 1.47978162,4.84568126 C1.412661,4.90733732 1.4041396,5.01038536 1.46070769,5.08208009 C1.60648201,5.26774866 1.77375827,5.43670169 1.95702674,5.58419999 C2.02891001,5.64212074 2.13350144,5.63394974 2.19581272,5.56528996 C2.383517,5.3576764 2.71940025,5.28084561 2.97793721,5.38935655 C3.24873097,5.50263002 3.41906559,5.77631198 3.40239633,6.07028138 C3.39695665,6.16261373 3.46473096,6.24299307 3.5563652,6.25354534 C3.67624846,6.26752943 3.79685546,6.2745098 3.91778931,6.2745098 C4.03258308,6.2745098 4.1474002,6.26820646 4.26219396,6.25543634 C4.35317451,6.24539768 4.42057528,6.16704942 4.41751692,6.07576763 C4.40698773,5.78501994 4.57968033,5.51610051 4.84676204,5.40674912 C5.1049488,5.30129647 5.43709664,5.37847745 5.62375033,5.58352297 C5.68578146,5.65099212 5.78827173,5.65913978 5.86052853,5.60332015 C6.04820946,5.45614868 6.21887093,5.28735907 6.36807715,5.10152708 C6.42597598,5.02964559 6.41780477,4.92505673 6.34933007,4.86309717 C6.1309721,4.66535886 6.06011607,4.35075184 6.17355576,4.08045501 C6.28020167,3.82600993 6.53803823,3.6551659 6.81536896,3.6551659 L6.85417052,3.65616976 C6.94412382,3.66347698 7.02688646,3.59418686 7.03778919,3.50236811 C7.06543121,3.26645954 7.06575806,3.02651215 7.03918996,2.78889934 Z M3.92654417,4.19034335 C3.34947027,4.19034335 2.88006951,3.72095416 2.88006951,3.14389447 C2.88006951,2.56685813 3.34947027,2.09744559 3.92654417,2.09744559 C4.50359473,2.09744559 4.97299549,2.56685813 4.97299549,3.14389447 C4.97299549,3.72095416 4.50359473,4.19034335 3.92654417,4.19034335 Z" id="Shape-Copy-4" fill="#182F79" fill-rule="nonzero"></path>
                <path d="M9.60784314,9.99194632 L9.60784314,10 L2.15686275,10 L2.15686275,9.99194632 C0.949111662,9.89230889 0,8.88052231 0,7.64705882 C0,6.55007046 0.750704049,5.62841842 1.76640623,5.36780862 C1.76527682,5.34338663 1.76470588,5.31881881 1.76470588,5.29411765 C1.76470588,4.42778863 2.46700431,3.7254902 3.33333333,3.7254902 C3.70031824,3.7254902 4.03786872,3.85151394 4.30506866,4.0626453 C4.72394837,2.94912187 5.79886493,2.15686275 7.05882353,2.15686275 C8.68319044,2.15686275 10,3.4736723 10,5.09803922 C10,5.18809492 9.99595259,5.2772053 9.98802975,5.36519838 C11.0089374,5.62221322 11.7647059,6.54637643 11.7647059,7.64705882 C11.7647059,8.88052231 10.8155942,9.89230889 9.60784314,9.99194632 Z" id="Combined-Shape" fill="#1F7BD7"></path>
                <path d="M8.22425024,6.6667951 C8.21866901,6.61718251 8.16082125,6.57990084 8.11080034,6.57990084 C7.94907612,6.57990084 7.8055664,6.48494355 7.74538109,6.33808871 C7.68389569,6.18767511 7.72354209,6.01225824 7.84407029,5.90170017 C7.88200949,5.86701863 7.88661893,5.80896218 7.85479938,5.7686339 C7.77202652,5.6635256 7.67794676,5.56858144 7.57522594,5.48629651 C7.53500172,5.45401812 7.47598519,5.45850926 7.44110581,5.49713039 C7.33591613,5.61362411 7.14696866,5.65692022 7.00096381,5.596001 C6.84902315,5.53208769 6.75320993,5.37812846 6.76258638,5.2128626 C6.76567247,5.16095191 6.72773327,5.11581733 6.6759789,5.10978975 C6.54415692,5.09454353 6.4111793,5.09407078 6.27896335,5.10873919 C6.22779993,5.11438594 6.18986073,5.15845684 6.19158106,5.20971092 C6.197333,5.37334842 6.10036413,5.5246156 5.94993369,5.58623081 C5.80567543,5.64515397 5.61805433,5.60222556 5.51307476,5.48676926 C5.47837924,5.44873907 5.42032136,5.44406409 5.37990016,5.47556769 C5.27413265,5.55854862 5.17793859,5.65357156 5.09440406,5.75781315 C5.06182283,5.79833842 5.06661612,5.85707773 5.10493616,5.89194311 C5.22776252,6.00317091 5.26742205,6.1801111 5.20361222,6.33225812 C5.14269151,6.47731388 4.99206408,6.57080038 4.81962391,6.57080038 C4.7636672,6.5690013 4.72381069,6.60655874 4.71769104,6.657432 C4.70216866,6.79001238 4.70198481,6.92510098 4.71692936,7.05875818 C4.72247119,7.10858088 4.78207868,7.14553425 4.83265115,7.14553425 C4.98632527,7.14160779 5.1338666,7.23674893 5.19575911,7.38735951 C5.25745463,7.53777311 5.2177951,7.71308493 5.09708305,7.82373492 C5.0593277,7.85841646 5.05453441,7.91638098 5.08635396,7.95670927 C5.16835201,8.06114784 5.26244491,8.15618392 5.36553342,8.23915171 C5.40596776,8.27173213 5.46480044,8.26713594 5.49985054,8.22851482 C5.60543419,8.11173219 5.79436852,8.06851487 5.93979556,8.12955228 C6.09211705,8.1932686 6.18793028,8.34721471 6.17855382,8.51257249 C6.175494,8.56450944 6.21361705,8.60972282 6.26516131,8.61565847 C6.33259564,8.62352452 6.40043708,8.62745098 6.46846237,8.62745098 C6.53303386,8.62745098 6.59761849,8.62390535 6.66218999,8.61672216 C6.71336654,8.61107541 6.75127948,8.56700452 6.74955915,8.51565851 C6.74363648,8.35211293 6.84077607,8.20084575 6.99100953,8.1393356 C7.13623958,8.08001848 7.32307274,8.12343278 7.42806544,8.23877089 C7.46295795,8.27672228 7.52060873,8.28130534 7.56125318,8.2499068 C7.6668237,8.16712285 7.76282078,8.07217869 7.84674928,7.9676482 C7.87931737,7.92721486 7.87472107,7.86838363 7.83620405,7.83353137 C7.71337769,7.72230358 7.67352117,7.54533713 7.737331,7.39329516 C7.79731932,7.2501698 7.94235239,7.15407003 8.09835092,7.15407003 L8.1201768,7.15463471 C8.17077553,7.15874501 8.21732952,7.11976932 8.2234623,7.06812128 C8.23901094,6.93542271 8.23919479,6.8004523 8.22425024,6.6667951 Z M6.47338698,7.45510735 C6.14878291,7.45510735 5.88474498,7.19107593 5.88474498,6.86647986 C5.88474498,6.54189691 6.14878291,6.27785236 6.47338698,6.27785236 C6.79797792,6.27785236 7.06201585,6.54189691 7.06201585,6.86647986 C7.06201585,7.19107593 6.79797792,7.45510735 6.47338698,7.45510735 Z" id="Shape" fill="#FFFFFF" fill-rule="nonzero"></path>
            </g>
        </g>
    </g>
</svg>