<?xml version="1.0" encoding="UTF-8"?>
<svg width="20px" height="20px" viewBox="0 0 20 20" version="1.1" xmlns="http://www.w3.org/2000/svg" xmlns:xlink="http://www.w3.org/1999/xlink">
    <!-- Generator: Sketch 52.6 (67491) - http://www.bohemiancoding.com/sketch -->
    <title>Group 140</title>
    <desc>Created with Sketch.</desc>
    <g id="Page-1" stroke="none" stroke-width="1" fill="none" fill-rule="evenodd">
        <g id="Group-140">
            <circle id="Oval-Copy-7" fill="#D0EAFF" fill-rule="nonzero" cx="10" cy="10" r="10"></circle>
            <g id="Security-Copy" transform="translate(6.000000, 5.000000)">
                <path d="M4.46428571,10 C3.28149641,9.79061147 2.32091545,9.1897308 1.58254283,8.197358 C0.474983891,6.70879879 0,4.95451792 0,2.7439527 C0,2.31054905 0,1.99589815 8.8817842e-16,1.8 C0.695267222,1.65300159 1.39053444,1.43933651 2.08580167,1.15900477 C2.78106889,0.878673024 3.5738969,0.492338101 4.46428571,0 C5.35467452,0.492338101 6.14750254,0.878673024 6.84276976,1.15900477 C7.53803698,1.43933651 8.23330421,1.65300159 8.92857143,1.8 C8.92857143,1.99589815 8.92857143,2.31054905 8.92857143,2.7439527 C8.92857143,4.95451792 8.45358754,6.70879879 7.3460286,8.197358 C6.60765598,9.1897308 5.64707502,9.79061147 4.46428571,10 Z" id="Combined-Shape" fill="#1F7BD7"></path>
                <path d="M4.46428571,8.75 C3.61267742,8.5929586 2.92105912,8.1422981 2.38943083,7.3980185 C1.5919884,6.28159909 1.25,4.96588844 1.25,3.30796452 C1.25,2.98291179 1.25,2.74692361 1.25,2.6 C1.7505924,2.48975119 2.2511848,2.32950238 2.7517772,2.11925358 C3.2523696,1.90900477 3.82320577,1.61925358 4.46428571,1.25 C5.10536566,1.61925358 5.67620183,1.90900477 6.17679423,2.11925358 C6.67738663,2.32950238 7.17797903,2.48975119 7.67857143,2.6 C7.67857143,2.74692361 7.67857143,2.98291179 7.67857143,3.30796452 C7.67857143,4.96588844 7.33658303,6.28159909 6.53914059,7.3980185 C6.00751231,8.1422981 5.31589401,8.5929586 4.46428571,8.75 Z" id="Combined-Shape-Copy-6" fill="#182F79"></path>
                <polygon id="Shape" fill="#FFFFFF" fill-rule="nonzero" points="5.37422754 6.42857143 4.45843235 5.77833005 3.4685972 6.42083867 3.72398884 5.26223204 2.85714286 4.41504132 3.96582531 4.40091906 4.46719528 3.21428571 4.9497044 4.40596532 6.07142857 4.40640096 5.19160934 5.26560831"></polygon>
            </g>
        </g>
    </g>
</svg>