<?xml version="1.0" encoding="UTF-8"?>
<svg width="128px" height="143px" viewBox="0 0 128 143" version="1.1" xmlns="http://www.w3.org/2000/svg" xmlns:xlink="http://www.w3.org/1999/xlink">
    <!-- Generator: Sketch 52.6 (67491) - http://www.bohemiancoding.com/sketch -->
    <title>Group 61</title>
    <desc>Created with Sketch.</desc>
    <defs>
        <filter x="-114.8%" y="-86.1%" width="329.6%" height="272.2%" filterUnits="objectBoundingBox" id="filter-1">
            <feOffset dx="0" dy="7" in="SourceAlpha" result="shadowOffsetOuter1"></feOffset>
            <feGaussianBlur stdDeviation="12.5" in="shadowOffsetOuter1" result="shadowBlurOuter1"></feGaussianBlur>
            <feColorMatrix values="0 0 0 0 1   0 0 0 0 1   0 0 0 0 1  0 0 0 0.2 0" type="matrix" in="shadowBlurOuter1" result="shadowMatrixOuter1"></feColorMatrix>
            <feMerge>
                <feMergeNode in="shadowMatrixOuter1"></feMergeNode>
                <feMergeNode in="SourceGraphic"></feMergeNode>
            </feMerge>
        </filter>
        <linearGradient x1="-133.206517%" y1="0%" x2="143.178214%" y2="76.8724474%" id="linearGradient-2">
            <stop stop-color="#5648D6" offset="0%"></stop>
            <stop stop-color="#9FDDFF" offset="100%"></stop>
        </linearGradient>
    </defs>
    <g id="Page-1" stroke="none" stroke-width="1" fill="none" fill-rule="evenodd">
        <g id="Rapid-ID-Home-Bio-Verif-Copy-9" transform="translate(-762.000000, -4058.000000)">
            <g id="Group-61" transform="translate(770.000000, 4075.000000)">
                <g id="Group-64-Copy-3" filter="url(#filter-1)" transform="translate(16.000000, 0.000000)">
                    <g id="Group-27">
                        <polygon id="Rectangle-61" fill="url(#linearGradient-2)" transform="translate(36.812950, 50.535849) rotate(-15.000000) translate(-36.812950, -50.535849) " points="28 31 45.6258993 31 45.6258993 70.0716981 36.8129496 63.7698113 28 70.0716981"></polygon>
                        <polygon id="Rectangle-61-Copy" fill="url(#linearGradient-2)" transform="translate(16.812950, 50.535849) scale(-1, 1) rotate(-15.000000) translate(-16.812950, -50.535849) " points="8 31 25.6258993 31 25.6258993 70.0716981 16.8129496 63.7698113 8 70.0716981"></polygon>
                        <path d="M25.3503061,51.8468025 L19.6216809,53.7032711 C17.1615534,54.5005216 14.4867171,53.3923755 13.3111687,51.0889168 L10.5686846,45.7150851 C10.065233,44.7285838 9.26340693,43.9260433 8.27735433,43.4217133 L2.90676886,40.6748541 C0.607080352,39.4986471 -0.499180301,36.8274309 0.295544713,34.3696998 L2.15496942,28.6193259 C2.4953729,27.5666093 2.4953729,26.4333907 2.15496942,25.3806741 L0.295544713,19.6303002 C-0.499180301,17.1725691 0.607080352,14.5013529 2.90676886,13.3251459 L8.27735433,10.5782867 C9.26340693,10.0739567 10.065233,9.27141623 10.5686846,8.28491485 L13.3111687,2.91108324 C14.4867171,0.607624541 17.1615534,-0.500521629 19.6216809,0.296728912 L25.3503061,2.15319751 C26.4050067,2.49499306 27.5407077,2.49499306 28.5954084,2.15319751 L34.3240336,0.296728912 C36.7841611,-0.500521629 39.4589974,0.607624541 40.6345458,2.91108324 L43.3770299,8.28491485 C43.8804815,9.27141623 44.6823076,10.0739567 45.6683602,10.5782867 L51.0389456,13.3251459 C53.3386341,14.5013529 54.4448948,17.1725691 53.6501698,19.6303002 L51.7907451,25.3806741 C51.4503416,26.4333907 51.4503416,27.5666093 51.7907451,28.6193259 L53.6501698,34.3696998 C54.4448948,36.8274309 53.3386341,39.4986471 51.0389456,40.6748541 L45.6683602,43.4217133 C44.6823076,43.9260433 43.8804815,44.7285838 43.3770299,45.7150851 L40.6345458,51.0889168 C39.4589974,53.3923755 36.7841611,54.5005216 34.3240336,53.7032711 L28.5954084,51.8468025 C27.5407077,51.5050069 26.4050067,51.5050069 25.3503061,51.8468025 Z" id="Star-2" fill="#1F7BD7"></path>
                        <circle id="Oval-4" fill="#3CD1B8" cx="27" cy="27" r="18"></circle>
                        <polygon id="Star-3" fill="#FFFFFF" points="27 32.5835921 20.8196601 36 22 28.763932 17 23.6393202 23.9098301 22.5835921 27 16 30.0901699 22.5835921 37 23.6393202 32 28.763932 33.1803399 36"></polygon>
                    </g>
                </g>
                <g id="Group-41">
                    <rect id="Rectangle-35" fill="#DEEBF9" x="0" y="80" width="120" height="46" rx="8"></rect>
                    <path d="M8,80 L112,80 C116.418278,80 120,83.581722 120,88 L120,90 L0,90 L0,88 C-5.41083001e-16,83.581722 3.581722,80 8,80 Z" id="Rectangle-35-Copy" fill="url(#linearGradient-2)"></path>
                    <rect id="Rectangle-49" fill="#1F7BD7" x="20" y="102" width="12" height="12" rx="1"></rect>
                    <rect id="Rectangle-49-Copy" fill="#1F7BD7" x="42" y="102" width="12" height="12" rx="1"></rect>
                    <rect id="Rectangle-49-Copy-2" fill="#3CD1B8" x="88" y="102" width="12" height="12" rx="6"></rect>
                    <path d="M94,70 L106,70 C108.209139,70 110,71.790861 110,74 L110,80 L90,80 L90,74 C90,71.790861 91.790861,70 94,70 Z" id="Rectangle-46" fill="#DEEBF9"></path>
                    <path d="M99,0 L101,0 C103.209139,-4.05812251e-16 105,1.790861 105,4 L105,70 L95,70 L95,4 C95,1.790861 96.790861,4.05812251e-16 99,0 Z" id="Rectangle-46-Copy" fill="#1F7BD7"></path>
                </g>
            </g>
        </g>
    </g>
</svg>