<?xml version="1.0" encoding="UTF-8"?>
<svg width="20px" height="20px" viewBox="0 0 20 20" version="1.1" xmlns="http://www.w3.org/2000/svg" xmlns:xlink="http://www.w3.org/1999/xlink">
    <!-- Generator: Sketch 52.6 (67491) - http://www.bohemiancoding.com/sketch -->
    <title>Group 142</title>
    <desc>Created with Sketch.</desc>
    <g id="Page-1" stroke="none" stroke-width="1" fill="none" fill-rule="evenodd">
        <g id="Group-142">
            <circle id="Oval-Copy-5" fill="#D0EAFF" fill-rule="nonzero" cx="10" cy="10" r="10"></circle>
            <g id="Group-45" transform="translate(5.000000, 5.000000)">
                <g id="Education">
                    <polygon id="Rectangle-37" fill="#1F7BD7" points="1.87296208 0.0998740602 9.81240664 8.03931862 7.95159932 9.90012594 0.012154762 1.96068138"></polygon>
                    <polygon id="Rectangle-37" fill="#FFFFFF" points="2.61728501 0.844196988 3.11350029 1.34041227 2.61728501 1.83662756 2.12106972 1.34041227"></polygon>
                    <polygon id="Rectangle-37" fill="#FFFFFF" points="7.33133022 5.5582422 7.8275455 6.05445748 7.33133022 6.55067277 6.83511493 6.05445748"></polygon>
                    <polygon id="Rectangle-37" fill="#FFFFFF" points="3.85782322 2.0847352 4.35403851 2.58095049 3.85782322 3.07716577 3.36160794 2.58095049"></polygon>
                    <polygon id="Rectangle-37" fill="#FFFFFF" points="8.57186843 6.79878041 9.06808371 7.29499569 8.57186843 7.79121098 8.07565314 7.29499569"></polygon>
                    <polygon id="Rectangle-37" fill="#182F79" points="8.81997607 2.58095049 2.86539265 8.53553391 1.3767468 7.04688805 7.33133022 1.09230463"></polygon>
                    <polygon id="Rectangle-37" fill="#1F7BD7" points="8.94402989 2.45689666 8.19970697 3.20121959 6.71106111 1.71257374 7.45538404 0.968250809"></polygon>
                    <path d="M8.94402989,2.45689666 L7.45538404,0.968250809 L8.04472083,0.378914019 C8.33585641,0.087778438 8.79879222,0.0786902071 9.0787169,0.358614887 L9.55366581,0.833563803 C9.83359049,1.11348848 9.82450226,1.57642429 9.53336668,1.86755987 L8.94402989,2.45689666 Z" id="Rectangle-37" fill="#182F79"></path>
                    <polygon id="Rectangle-37" fill="#1F7BD7" points="2.86539265 8.53553391 0.508370047 9.40391065 1.3767468 7.04688805"></polygon>
                    <polygon id="Combined-Shape" fill="#182F79" points="1.23360777 9.13671781 0.508370047 9.40391065 0.775562893 8.67867293"></polygon>
                </g>
            </g>
        </g>
    </g>
</svg>