<?xml version="1.0" encoding="UTF-8"?>
<svg width="128px" height="125px" viewBox="0 0 128 125" version="1.1" xmlns="http://www.w3.org/2000/svg" xmlns:xlink="http://www.w3.org/1999/xlink">
    <!-- Generator: Sketch 52.6 (67491) - http://www.bohemiancoding.com/sketch -->
    <title>Group 24</title>
    <desc>Created with Sketch.</desc>
    <defs>
        <linearGradient x1="-204.896951%" y1="0%" x2="480.807454%" y2="100%" id="linearGradient-1">
            <stop stop-color="#5648D6" offset="0%"></stop>
            <stop stop-color="#9FDDFF" offset="100%"></stop>
        </linearGradient>
        <linearGradient x1="-133.206517%" y1="0%" x2="143.178214%" y2="76.8724474%" id="linearGradient-2">
            <stop stop-color="#5648D6" offset="0%"></stop>
            <stop stop-color="#9FDDFF" offset="100%"></stop>
        </linearGradient>
        <linearGradient x1="50%" y1="0%" x2="50%" y2="100%" id="linearGradient-3">
            <stop stop-color="#355CB1" offset="0%"></stop>
            <stop stop-color="#182F79" offset="100%"></stop>
        </linearGradient>
    </defs>
    <g id="Page-1" stroke="none" stroke-width="1" fill="none" fill-rule="evenodd">
        <g id="Rapid-ID-Home-Bio-Verif-Copy-9" transform="translate(-1547.000000, -4075.000000)">
            <g id="Group-24" transform="translate(1547.000000, 4075.000000)">
                <polygon id="Rectangle-54" fill="url(#linearGradient-1)" points="27 0 127 0 127 100 27 100"></polygon>
                <rect id="Rectangle-59-Copy" fill="#3CD1B8" transform="translate(90.512500, 34.925000) rotate(-315.000000) translate(-90.512500, -34.925000) " x="85.75" y="-9.525" width="9.525" height="88.9"></rect>
                <rect id="Rectangle-58" fill="#3CD1B8" x="54" y="-1.81188398e-13" width="73.025" height="9.525"></rect>
                <rect id="Rectangle-58-Copy" fill="#3CD1B8" x="54" y="61.5" width="25.4" height="9.525"></rect>
                <rect id="Rectangle-59" fill="#3CD1B8" x="117.5" y="-1.56319402e-13" width="9.525" height="73.025"></rect>
                <rect id="Rectangle-59-Copy-2" fill="#3CD1B8" x="54" y="45.625" width="9.525" height="25.4"></rect>
                <polygon id="Rectangle-54" fill="#DEEBF9" points="1.70530257e-13 71.025 53.975 71.025 53.975 125 1.70530257e-13 125"></polygon>
                <g id="Group-25" transform="translate(0.000000, 26.575000)">
                    <path d="M11.4171178,46.7155628 L10.156751,26.5022285 C10.0256164,24.3991353 10.3390586,22.292009 11.0766577,20.3181435 C12.9907391,15.1959094 15.2789345,11.0121105 17.941244,7.76674664 C21.1374031,3.87061845 24.1553876,1.2817029 26.9951977,0 L26.9951977,68.7294118 L26.9875,68.7294118 L26.9875,73.025 L16.6076923,73.025 L16.6076923,68.7294118 L12.7897525,68.7294118 L12.5219087,64.4338235 L-1.54543045e-12,64.4338235 L11.4171178,46.7155628 Z" id="Combined-Shape" fill="url(#linearGradient-2)"></path>
                    <path d="M41.4530913,64.4338235 L41.1852475,68.7294118 L37.3673077,68.7294118 L37.3673077,73.025 L26.9875,73.025 L26.9875,68.7294118 L26.9798023,68.7294118 L26.9798023,0 C29.8196124,1.2817029 32.8375969,3.87061845 36.033756,7.76674664 C38.6960655,11.0121105 40.9842609,15.1959094 42.8983423,20.3181435 C43.6359414,22.292009 43.9493836,24.3991353 43.818249,26.5022285 L42.5578822,46.7155628 L53.975,64.4338235 L41.4530913,64.4338235 Z" id="Combined-Shape" fill="#FFFFFF"></path>
                    <circle id="Oval-5" fill="url(#linearGradient-3)" cx="27" cy="28.425" r="6"></circle>
                </g>
                <polygon id="Rectangle-60" fill="#182F79" points="34.925 102.775 38.1 102.775 38.1 118.65 34.925 118.65"></polygon>
                <polygon id="Rectangle-60-Copy-2" fill="#182F79" points="25.4 102.775 28.575 102.775 28.575 109.125 25.4 109.125"></polygon>
                <polygon id="Rectangle-60-Copy-3" fill="#182F79" points="25.4 115.475 28.575 115.475 28.575 125 25.4 125"></polygon>
                <polygon id="Rectangle-60-Copy" fill="#182F79" points="15.875 102.775 19.05 102.775 19.05 118.65 15.875 118.65"></polygon>
            </g>
        </g>
    </g>
</svg>