<?xml version="1.0" encoding="UTF-8"?>
<svg width="20px" height="20px" viewBox="0 0 20 20" version="1.1" xmlns="http://www.w3.org/2000/svg" xmlns:xlink="http://www.w3.org/1999/xlink">
    <!-- Generator: Sketch 52.6 (67491) - http://www.bohemiancoding.com/sketch -->
    <title>Group 143</title>
    <desc>Created with Sketch.</desc>
    <g id="Page-1" stroke="none" stroke-width="1" fill="none" fill-rule="evenodd">
        <g id="Group-143">
            <circle id="Oval-Copy-6" fill="#D0EAFF" fill-rule="nonzero" cx="10" cy="10" r="10"></circle>
            <g id="Gambling-Copy" transform="translate(5.000000, 5.000000)">
                <path d="M7.90322581,1.37123927 C7.90322581,1.05930705 7.61978595,0.806451613 7.27012361,0.806451613 L1.76213446,0.806451613 C1.41247211,0.806451613 1.12903226,1.05930705 1.12903226,1.37123927 L1.12903226,8.62876073 C1.12903226,8.94069295 1.41247211,9.19354839 1.76213446,9.19354839 L7.27012361,9.19354839 C7.61978595,9.19354839 7.90322581,8.94069295 7.90322581,8.62876073 L7.90322581,1.37123927 Z" id="Shape" fill="#182F79" fill-rule="nonzero" transform="translate(4.516129, 5.000000) rotate(-345.000000) translate(-4.516129, -5.000000) "></path>
                <g id="Group-100" transform="translate(1.129032, 0.806452)">
                    <g id="Group-63-Copy-2">
                        <path d="M6.77419355,0.564787662 C6.77419355,0.252855436 6.49075369,0 6.14109135,0 L0.633102201,0 C0.283439855,0 0,0.252855436 0,0.564787662 L0,7.82230911 C0,8.13424134 0.283439855,8.38709677 0.633102201,8.38709677 L6.14109135,8.38709677 C6.49075369,8.38709677 6.77419355,8.13424134 6.77419355,7.82230911 L6.77419355,0.564787662 Z" id="Shape" fill="#1F7BD7" fill-rule="nonzero"></path>
                        <path d="M4.22425802,5.13340837 C3.95055407,5.22200677 3.70275381,5.13650028 3.54552192,4.97082291 C3.55786602,5.20222399 3.59154892,5.4863518 3.67914607,5.64516129 L3.09503002,5.64516129 C3.18262716,5.4863518 3.21631006,5.20222399 3.22865416,4.97082291 C3.07142227,5.13652764 2.823595,5.22203413 2.54991806,5.13340837 C2.06574325,4.97665103 1.55874403,3.92381303 3.38707453,2.74193548 C5.21545906,3.92381303 4.70845984,4.97662367 4.22425802,5.13340837 Z" id="Path" fill="#FFFFFF"></path>
                        <path d="M5.7114403,7.58064516 L5.62537577,7.30694037 L5.18119168,7.30694037 L5.09512715,7.58064516 L4.83870968,7.58064516 L5.27416762,6.29032258 L5.53406011,6.29032258 L5.96774194,7.58064516 L5.7114403,7.58064516 Z M5.40112149,6.60312805 L5.24381916,7.11143695 L5.56282551,7.11143695 L5.40637263,6.60312805 L5.40112149,6.60312805 Z" id="Combined-Shape" fill="#FFFFFF"></path>
                        <path d="M1.67918224,2.09677419 L1.59311771,1.8230694 L1.14893361,1.8230694 L1.06286908,2.09677419 L0.806451613,2.09677419 L1.24190956,0.806451613 L1.50180204,0.806451613 L1.93548387,2.09677419 L1.67918224,2.09677419 Z M1.36886343,1.11925709 L1.2115611,1.62756598 L1.53056744,1.62756598 L1.37411456,1.11925709 L1.36886343,1.11925709 Z" id="Combined-Shape-Copy-5" fill="#FFFFFF"></path>
                    </g>
                </g>
            </g>
        </g>
    </g>
</svg>