<?xml version="1.0" encoding="UTF-8"?>
<svg width="30px" height="30px" viewBox="0 0 30 30" version="1.1" xmlns="http://www.w3.org/2000/svg" xmlns:xlink="http://www.w3.org/1999/xlink">
    <!-- Generator: Sketch 52.6 (67491) - http://www.bohemiancoding.com/sketch -->
    <title>Group 91 Copy</title>
    <desc>Created with Sketch.</desc>
    <defs>
        <linearGradient x1="0%" y1="30.4176372%" x2="100%" y2="126.728645%" id="linearGradient-1">
            <stop stop-color="#2590E0" offset="0%"></stop>
            <stop stop-color="#42FBFE" offset="100%"></stop>
        </linearGradient>
        <circle id="path-2" cx="6.42857143" cy="6.42857143" r="6.42857143"></circle>
    </defs>
    <g id="Page-1" stroke="none" stroke-width="1" fill="none" fill-rule="evenodd">
        <g id="Rapid-ID-Home-Bio-Verif-Copy-9" transform="translate(-1034.000000, -237.000000)">
            <g id="Group-91-Copy" transform="translate(1034.000000, 237.000000)">
                <circle id="Oval-14-Copy-7" fill="url(#linearGradient-1)" cx="15" cy="15" r="15"></circle>
                <g id="Group-90" transform="translate(7.000000, 6.000000)">
                    <circle id="Combined-Shape" fill="#FFFFFF" opacity="0.400000006" cx="9" cy="11.5714286" r="6.42857143"></circle>
                    <circle id="Combined-Shape-Copy-20" fill="#FFFFFF" opacity="0.7" cx="6.42857143" cy="9" r="6.42857143"></circle>
                    <g id="Group-86-Copy-2" transform="translate(2.571429, 0.000000)">
                        <g id="Group-89">
                            <mask id="mask-3" fill="white">
                                <use xlink:href="#path-2"></use>
                            </mask>
                            <use id="Combined-Shape" fill="#FFFFFF" xlink:href="#path-2"></use>
                            <path d="M8.67502319,9.42312094 C8.58335908,9.31464856 8.59698488,9.15240588 8.70545726,9.06074177 C8.81392964,8.96907766 8.97617232,8.98270345 9.06783643,9.09117583 C9.29877692,9.36446343 9.57212903,9.56800918 9.89022659,9.70405232 C10.0208022,9.75989656 10.0813839,9.91101969 10.0255397,10.0415953 C9.96969547,10.1721709 9.81857234,10.2327526 9.68799673,10.1769084 C9.2957094,10.009136 8.95727361,9.75712708 8.67502319,9.42312094 Z M7.92545241,10.9888313 C7.82116684,10.8924306 7.81477486,10.7297423 7.91117551,10.6254567 C8.00757617,10.5211711 8.1702645,10.5147791 8.27455007,10.6111798 C8.33109699,10.6634513 8.42226636,10.7252401 8.54656863,10.7933987 C8.67109312,10.8616791 8.71668793,11.0179784 8.64840749,11.1425029 C8.58012706,11.2670274 8.42382778,11.3126222 8.29930329,11.2443418 C8.1411934,11.1576455 8.01707296,11.0735245 7.92545241,10.9888313 Z M11.5750422,6.91632074 C11.6960011,6.99073522 11.7337327,7.14911663 11.6593183,7.27007551 C11.5849038,7.39103439 11.4265224,7.42876609 11.3055635,7.35435161 C10.9494078,7.13524294 10.7786603,6.73366512 10.7786603,6.18400134 C10.7786603,5.30609755 10.4027799,4.23751151 9.73911181,3.41891206 C8.93154026,2.42281533 7.77373396,1.84846316 6.29852251,1.84846316 C4.83285549,1.84846316 3.69422934,2.436528 2.90215687,3.45484455 C2.26354637,4.27586494 1.90037787,5.34400191 1.90037787,6.18400134 C1.90037787,6.32601742 1.7852511,6.4411442 1.64323502,6.4411442 C1.50121894,6.4411442 1.38609216,6.32601742 1.38609216,6.18400134 C1.38609216,5.23013382 1.78707092,4.05079078 2.49621367,3.13909162 C3.38329255,1.99863144 4.66982533,1.33417744 6.29852251,1.33417744 C7.93185949,1.33417744 9.23518614,1.98071779 10.1386008,3.09503192 C10.8768115,4.00557576 11.292946,5.18859972 11.292946,6.18400134 C11.292946,6.5709838 11.3918649,6.80362919 11.5750422,6.91632074 Z M1.85686887,8.33239058 C1.71515604,8.34166646 1.59275552,8.2343051 1.58347964,8.09259228 C1.57420376,7.95087945 1.68156512,7.82847892 1.82327795,7.81920305 C2.43679612,7.77904494 2.77747894,7.41943951 2.88513651,6.66755549 C3.23154602,4.24821989 4.17642112,2.92583969 6.36711689,2.92583969 C7.52634324,2.92583969 8.40673359,3.41887807 8.99543685,4.25378054 C9.42717182,4.86606964 9.67092907,5.64740896 9.67092907,6.19325002 C9.67092907,7.18332254 10.088518,8.09968468 10.8829816,8.3498181 C11.0184424,8.39246733 11.0936809,8.53685398 11.0510317,8.67231471 C11.0083825,8.80777544 10.8639958,8.88301404 10.7285351,8.84036481 C9.66921623,8.50684284 9.15664336,7.3820469 9.15664336,6.19325002 C9.15664336,5.75270081 8.94522246,5.07501241 8.57513029,4.5501455 C8.07945649,3.84717797 7.35260608,3.44012541 6.36711689,3.44012541 C4.49694835,3.44012541 3.70885742,4.5430816 3.39423008,6.74044941 C3.25391226,7.72043381 2.72818848,8.27535796 1.85686887,8.33239058 Z M2.79734598,9.80534596 C2.65990972,9.84112085 2.51949435,9.75870802 2.48371946,9.62127177 C2.44794458,9.48383551 2.53035741,9.34342014 2.66779366,9.30764526 C3.53777123,9.08118866 4.38987248,8.10430202 4.43022098,6.89080524 C4.48192236,5.33586636 5.15586597,4.47385659 6.39694586,4.47385659 C7.73637465,4.47385659 8.43720893,5.71139688 8.12037667,7.58804481 C7.86514925,9.09979753 7.31244048,10.2270147 6.09098057,11.4223103 C5.98947881,11.5216378 5.8266745,11.5198753 5.72734696,11.4183735 C5.62801943,11.3168718 5.62978198,11.1540674 5.73128374,11.0547399 C6.87146471,9.93898221 7.37543098,8.91117251 7.61326729,7.50243014 C7.88315021,5.90387061 7.36456201,4.98814231 6.39694586,4.98814231 C5.46928815,4.98814231 4.98756729,5.60428895 4.94422265,6.90789569 C4.89599127,8.35847284 3.87968508,9.52361131 2.79734598,9.80534596 Z M6.12113534,6.17575718 C6.12113559,6.03374111 6.23626256,5.91861452 6.37827864,5.91861477 C6.52029472,5.91861501 6.6354213,6.03374198 6.63542106,6.17575806 C6.63541809,7.91256299 5.94506984,9.56150209 4.17334216,10.8063907 C4.05714242,10.8880374 3.89675617,10.8600267 3.81510946,10.7438269 C3.73346275,10.6276272 3.76147351,10.4672409 3.87767326,10.3855942 C5.49753789,9.2474108 6.12113264,7.75791653 6.12113534,6.17575718 Z" id="Combined-Shape" fill="#36CCF1" fill-rule="nonzero" mask="url(#mask-3)"></path>
                            <g id="Group-88" mask="url(#mask-3)">
                                <g transform="translate(1.285714, 1.285714)"></g>
                            </g>
                        </g>
                    </g>
                </g>
            </g>
        </g>
    </g>
</svg>