<?xml version="1.0" encoding="UTF-8"?>
<svg width="28px" height="31px" viewBox="0 0 28 31" version="1.1" xmlns="http://www.w3.org/2000/svg" xmlns:xlink="http://www.w3.org/1999/xlink">
    <!-- Generator: Sketch 52.6 (67491) - http://www.bohemiancoding.com/sketch -->
    <title>Group 3</title>
    <desc>Created with Sketch.</desc>
    <defs>
        <linearGradient x1="100%" y1="126.728645%" x2="0%" y2="30.4176372%" id="linearGradient-1">
            <stop stop-color="#68F2A9" offset="0%"></stop>
            <stop stop-color="#2DBFE9" offset="100%"></stop>
        </linearGradient>
        <ellipse id="path-2" cx="4.07082494" cy="4.0685328" rx="4.07082494" ry="4.0685328"></ellipse>
    </defs>
    <g id="Page-1" stroke="none" stroke-width="1" fill="none" fill-rule="evenodd">
        <g id="Rapid-ID-Home-Bio-Verif-Copy-9" transform="translate(-1036.000000, -134.000000)">
            <g id="Group-3" transform="translate(1036.000000, 135.000000)">
                <path d="M14.5558673,0.0519628585 L26.1252838,6.61170588 C26.7517095,6.96688298 27.1388329,7.63139785 27.1388329,8.35150893 L27.1388329,21.4086931 C27.1388329,22.1288042 26.7517095,22.793319 26.1252838,23.1484961 L14.5558673,29.7082391 C13.9439883,30.0551684 13.1948446,30.0551684 12.5829656,29.7082391 L1.01354913,23.1484961 C0.387123397,22.793319 4.9200761e-15,22.1288042 3.55271368e-15,21.4086931 L4.4408921e-15,8.35150893 C4.35270393e-15,7.63139785 0.387123397,6.96688298 1.01354913,6.61170588 L12.5829656,0.0519628585 C13.1948446,-0.294966399 13.9439883,-0.294966399 14.5558673,0.0519628585 Z" id="Polygon" fill="url(#linearGradient-1)"></path>
                <g id="Group-8" transform="translate(6.784708, 8.056841)">
                    <g id="Group-85">
                        <path d="M0,2.7123552 L13.5694165,2.7123552 L13.5694165,13.561776 L0,13.561776 L0,2.7123552 Z M6.78470823,12.2055984 C9.03296276,12.2055984 10.8555332,10.3840542 10.8555332,8.13706561 C10.8555332,5.89007699 9.03296276,4.0685328 6.78470823,4.0685328 C4.53645369,4.0685328 2.71388329,5.89007699 2.71388329,8.13706561 C2.71388329,10.3840542 4.53645369,12.2055984 6.78470823,12.2055984 Z" id="Combined-Shape" fill="#FFFFFF" opacity="0.400000006"></path>
                        <rect id="Rectangle-108-Copy-2" fill="#FFFFFF" opacity="0.699999988" x="0" y="0" width="13.5694165" height="2.7123552"></rect>
                        <ellipse id="Oval-18" fill="url(#linearGradient-1)" cx="10.3127565" cy="1.3561776" rx="1" ry="1"></ellipse>
                        <rect id="Rectangle-110-Copy" fill="url(#linearGradient-1)" x="2.71388329" y="1.08494208" width="2.17110663" height="1"></rect>
                    </g>
                    <g id="Group-93" transform="translate(2.713883, 4.068533)">
                        <mask id="mask-3" fill="white">
                            <use xlink:href="#path-2"></use>
                        </mask>
                        <use id="Oval-14-Copy" fill="#FFFFFF" opacity="0.699999988" xlink:href="#path-2"></use>
                        <path d="M8.14164987,3.11920848 L8.14164987,7.71326011 C6.96563378,7.71326011 5.60869213,8.00992396 4.07082494,8.60325166 C2.53295774,9.19657936 1.17601609,9.49324321 0,9.49324321 L-3.01301571e-15,4.89919158 C1.17601609,4.89919158 2.53295774,4.60252773 4.07082494,4.00920003 C5.60869213,3.41587233 6.96563378,3.11920848 8.14164987,3.11920848 Z" id="Rectangle-101" fill="#FFFFFF" mask="url(#mask-3)"></path>
                    </g>
                    <path d="M6.69243619,10.4045946 L6.69243619,9.91637062 C6.13337624,9.87297294 5.71543821,9.65055981 5.42776658,9.35220074 L5.78599917,8.85855209 C5.98682654,9.08096522 6.301637,9.28710421 6.69243619,9.34677603 L6.69243619,8.29438221 C6.13337624,8.15333974 5.54717745,7.95262545 5.54717745,7.2474131 C5.54717745,6.69409264 5.9922543,6.2546911 6.69243619,6.19501928 L6.69243619,5.69594593 L7.12665752,5.69594593 L7.12665752,6.20044399 C7.56630661,6.24926639 7.93539474,6.42285712 8.2176386,6.69409264 L7.85940601,7.16604245 C7.65315088,6.95990345 7.39261808,6.83513511 7.12665752,6.78088801 L7.12665752,7.71936291 C7.69114524,7.86583009 8.30448287,8.07739379 8.30448287,8.80430499 C8.30448287,9.35762545 7.94082251,9.84584939 7.12665752,9.91637062 L7.12665752,10.4045946 L6.69243619,10.4045946 Z M7.65315088,8.8639768 C7.65315088,8.61986483 7.42518468,8.50052121 7.12665752,8.40830113 L7.12665752,9.35220074 C7.50117341,9.29795363 7.65315088,9.07554051 7.65315088,8.8639768 Z M6.19850943,7.19859071 C6.19850943,7.41015441 6.40476456,7.51864862 6.69243619,7.60544399 L6.69243619,6.75376445 C6.38848126,6.79173743 6.19850943,6.95990345 6.19850943,7.19859071 Z" id="$-copy-4" fill="url(#linearGradient-1)"></path>
                </g>
            </g>
        </g>
    </g>
</svg>