<?xml version="1.0" encoding="UTF-8"?>
<svg width="776px" height="162px" viewBox="0 0 776 162" version="1.1" xmlns="http://www.w3.org/2000/svg" xmlns:xlink="http://www.w3.org/1999/xlink">
    <!-- Generator: Sketch 53 (72520) - https://sketchapp.com -->
    <title>rapid-logo-colour (1)</title>
    <desc>Created with Sketch.</desc>
    <g id="Iphone-X" stroke="none" stroke-width="1" fill="none" fill-rule="evenodd">
        <g id="rapid-logo-colour-(1)" transform="translate(0.000000, -1.000000)" fill="#FFFFFF" fill-rule="nonzero">
            <path d="M341,123.82 C341.183167,126.821265 341.668965,129.79636 342.45,132.7 C342.574184,133.09488 342.502887,133.525296 342.258008,133.859042 C342.01313,134.192787 341.623947,134.389961 341.21,134.39 L325.4,134.39 C324.842262,134.388094 324.345911,134.035845 324.16,133.51 C323.301768,130.798411 322.761479,127.996292 322.55,125.16 L321.55,111.02 C320.95,102.83 317.23,99.26 309.49,99.26 L287.24,99.26 C286.520394,99.259979 285.935493,99.8404153 285.93,100.56 L285.93,133.08 C285.930021,133.799606 285.349585,134.384507 284.63,134.39 L268.63,134.39 C267.910415,134.384507 267.329979,133.799606 267.33,133.08 L267.33,34.47 C267.33,33.7520298 267.91203,33.17 268.63,33.17 L312.43,33.17 C332.37,33.17 347.7,47.76 347.7,66.51 C347.7,78.37 341.45,87.51 331.18,92.62 C330.751241,92.8334356 330.474567,93.2653366 330.459934,93.7440591 C330.4453,94.2227816 330.695077,94.670775 331.11,94.91 C336.46,97.85 339.16,102.44 339.82,109.08 L341,123.82 Z M310.33,83.82 C321.33,83.82 328.79,76.67 328.79,66.55 C328.79,56.28 321.35,49.14 310.33,49.14 L287.23,49.14 C286.510394,49.139979 285.925493,49.7204153 285.92,50.44 L285.92,82.47 C285.92,83.193493 286.506507,83.78 287.23,83.78 L310.33,83.82 Z" id="Shape"></path>
            <path d="M440.5,161.36 L440.5,61.86 C440.505493,61.1404153 441.090394,60.559979 441.81,60.56 L456,60.56 C456.71797,60.56 457.3,61.1420298 457.3,61.86 L457.3,67.26 C457.299353,67.8108738 457.645978,68.3023469 458.165114,68.4866291 C458.684251,68.6709112 459.263173,68.5079873 459.61,68.08 C464.28,62.39 472.17,58.92 481.42,58.92 C502.11,58.92 518.03,75.59 518.03,97.47 C518.03,119.35 502.13,136 481.44,136 C472.75,136 465.23,133 460.6,128.22 C460.229181,127.840299 459.664782,127.724141 459.17416,127.92655 C458.683537,128.128959 458.365222,128.609286 458.37,129.14 L458.37,161.34 C458.37,161.687434 458.231983,162.020637 457.98631,162.26631 C457.740637,162.511983 457.407434,162.65 457.06,162.65 L441.81,162.65 C441.094246,162.650083 440.510928,162.075671 440.5,161.36 L440.5,161.36 Z M500,97.47 C500,83.78 491.07,73.81 478.57,73.81 C466.07,73.81 457.14,83.81 457.14,97.47 C457.14,111.13 466.07,121.14 478.57,121.14 C491.07,121.14 500,111.17 500,97.47 Z" id="Shape"></path>
            <path d="M523.14,35.62 C523.503852,29.1578041 528.676341,24.0068668 535.14,23.67 C538.771981,23.4922045 542.309247,24.8615521 544.874797,27.438538 C547.440346,30.0155239 548.793948,33.5588452 548.6,37.19 C548.320723,43.6374437 543.157444,48.8007227 536.71,49.08 C533.070415,49.2886638 529.513495,47.94158 526.925225,45.3742905 C524.336954,42.8070009 522.960966,39.2611627 523.14,35.62 L523.14,35.62 Z M527.14,60.56 L544.7,60.56 C544.77909,60.5598241 544.844728,60.6210862 544.85,60.7 L544.85,134.24 C544.85,134.322843 544.782843,134.39 544.7,134.39 L527.13,134.39 C527.047157,134.39 526.98,134.322843 526.98,134.24 L526.98,60.7 C526.985272,60.6210862 527.05091,60.5598241 527.13,60.56 L527.14,60.56 Z" id="Shape"></path>
            <path d="M615.24,133.26 C614.94,131.11 614.73,129.12 614.58,127.26 C614.531242,126.735949 614.173587,126.291963 613.671934,126.132742 C613.170281,125.973522 612.622048,126.129988 612.28,126.53 C606.92,132.95 599.28,136.06 589.94,136.06 C569.7,136.06 553.78,119.24 553.78,97.51 C553.78,75.78 569.7,58.96 589.94,58.96 C598.62,58.96 605.94,61.77 611.22,67.4 C611.587196,67.784372 612.151413,67.9064613 612.644666,67.7082793 C613.137919,67.5100974 613.460819,67.0315767 613.46,66.5 L613.46,31.5 C613.46,30.776507 614.046507,30.19 614.77,30.19 L630,30.19 C630.719585,30.1954932 631.300021,30.7803943 631.3,31.5 L631.3,107 C631.3,117.29 631.44,124.11 632.59,132.91 C632.63874,133.282343 632.525348,133.657699 632.278608,133.94078 C632.031869,134.223861 631.675511,134.387443 631.3,134.39 L616.53,134.39 C615.877298,134.390584 615.325353,133.907097 615.24,133.26 Z M614.65,97.47 C614.65,83.78 605.72,73.81 593.22,73.81 C580.72,73.81 571.79,83.81 571.79,97.47 C571.79,111.13 580.72,121.14 593.22,121.14 C605.72,121.14 614.65,111.17 614.65,97.47 Z" id="Shape"></path>
            <path d="M652.7,33.17 L668.7,33.17 C669.41797,33.17 670,33.7520298 670,34.47 L670,133.08 C670.000021,133.799606 669.419585,134.384507 668.7,134.39 L652.7,134.39 C651.980415,134.384507 651.399979,133.799606 651.4,133.08 L651.4,34.47 C651.4,33.7520298 651.98203,33.17 652.7,33.17 Z" id="Path"></path>
            <path d="M684.46,34.47 C684.46,33.7520298 685.04203,33.17 685.76,33.17 L721.37,33.17 C754.27,33.17 776,53.56 776,83.63 C776,113.99 754.27,134.39 721.37,134.39 L685.76,134.39 C685.040415,134.384507 684.459979,133.799606 684.46,133.08 L684.46,34.47 Z M721.23,118.47 C743.7,118.47 756.95,104.92 756.95,83.64 C756.95,62.64 743.7,49.11 721.23,49.11 L704.37,49.11 C703.65203,49.11 703.07,49.6920298 703.07,50.41 L703.07,117.17 C703.07,117.88797 703.65203,118.47 704.37,118.47 L721.23,118.47 Z" id="Shape"></path>
            <circle id="Oval" cx="535.77" cy="36.26" r="12.75"></circle>
            <path d="M412.09,133.26 C411.79,131.11 411.58,129.12 411.43,127.26 C411.386538,126.735304 411.030894,126.28863 410.529271,126.128724 C410.027649,125.968818 409.479108,126.127258 409.14,126.53 C403.78,132.95 396.09,136.06 386.8,136.06 C366.56,136.06 350.63,119.24 350.63,97.51 C350.63,75.78 366.56,58.96 386.8,58.96 C395.47,58.96 402.8,61.77 408.08,67.4 C408.447196,67.784372 409.011413,67.9064613 409.504666,67.7082793 C409.997919,67.5100974 410.320819,67.0315767 410.32,66.5 L410.32,62.12 C410.319979,61.4003943 410.900415,60.8154932 411.62,60.81 L426.88,60.81 C427.599585,60.8154932 428.180021,61.4003943 428.18,62.12 L428.18,107 C428.18,117.29 428.31,124.11 429.47,132.91 C429.51874,133.282343 429.405348,133.657699 429.158608,133.94078 C428.911869,134.223861 428.555511,134.387443 428.18,134.39 L413.38,134.39 C412.72894,134.386234 412.179449,133.904897 412.09,133.26 Z M411.51,97.47 C411.51,83.78 402.58,73.81 390.07,73.81 C377.56,73.81 368.64,83.81 368.64,97.47 C368.64,111.13 377.57,121.14 390.07,121.14 C402.57,121.14 411.51,111.17 411.51,97.47 Z" id="Shape"></path>
            <path d="M168.79,156.57 L168.79,156.57 C166.422423,156.457545 164.560654,154.505247 164.560654,152.135 C164.560654,149.764753 166.422423,147.812455 168.79,147.7 L169,147.7 C182.745075,147.694105 195.931603,142.259918 205.69,132.58 C215.522235,123.079376 221.088531,110.00237 221.12,96.33 L221.12,96.07 C221.108916,93.621728 223.081759,91.6265175 225.53,91.61 L225.53,91.61 C227.948833,91.6315246 229.907481,93.5812897 229.94,96 L229.94,96.31 C229.933263,104.375851 228.268828,112.354248 225.05,119.75 C221.938069,126.926057 217.457957,133.427145 211.86,138.89 C206.277038,144.392652 199.691715,148.774947 192.46,151.8 C185.036268,154.938321 177.059823,156.56013 169,156.57 L168.79,156.57 Z M139.3,156.57 L117.19,156.57 C115.555284,156.647646 114.010394,155.819732 113.169795,154.415553 C112.329197,153.011374 112.329197,151.258626 113.169795,149.854447 C114.010394,148.450268 115.555284,147.622354 117.19,147.7 L139.3,147.7 C140.934716,147.622354 142.479606,148.450268 143.320205,149.854447 C144.160803,151.258626 144.160803,153.011374 143.320205,154.415553 C142.479606,155.819732 140.934716,156.647646 139.3,156.57 L139.3,156.57 Z M80.3,156.57 C77.8478557,156.57 75.86,154.582144 75.86,152.13 C75.86,149.677856 77.8478557,147.69 80.3,147.69 C82.7521443,147.69 84.74,149.677856 84.74,152.13 C84.7400557,154.570476 82.7704205,156.55351 80.33,156.57 L80.3,156.57 Z M58.19,156.57 L58.19,156.57 L58.04,156.57 C56.68,156.57 55.32,156.43 54.04,156.29 L53.4,156.23 C49.749227,155.818411 46.144044,155.071934 42.63,154 L42.45,154 L40.27,153.23 C39.47,152.95 38.76,152.68 38.09,152.41 L38.09,152.41 C15.0849336,143.313925 -0.0205489704,121.078052 -1.0658141e-14,96.34 C-1.0658141e-14,95.34 -1.0658141e-14,94.34 0.07,93.34 C0.157602689,91.5473447 1.31586313,89.9837376 3.00520334,89.3775884 C4.69454354,88.7714391 6.58267192,89.2419766 7.79,90.57 C8.58402009,91.4404685 8.99481322,92.5935721 8.93,93.77 C8.93,94.61 8.87,95.48 8.87,96.36 C8.86665518,117.448566 21.7547372,136.396029 41.37,144.14 L41.37,144.14 C41.9,144.35 42.5,144.57 43.21,144.82 L44.64,145.3 C47.8450927,146.324638 51.1449824,147.024817 54.49,147.39 L54.95,147.44 C56.07,147.56 57.22,147.64 58.36,147.68 L58.36,147.68 C60.7311367,147.825437 62.567711,149.811492 62.5275432,152.186745 C62.4873755,154.561998 60.5846984,156.48482 58.21,156.55 L58.19,156.57 Z M221.08,79 C218.974564,78.9946374 217.16239,77.5113004 216.741101,75.4484371 C216.319812,73.3855737 217.405262,71.3104686 219.34,70.48 C219.888965,70.2412839 220.481379,70.1187155 221.08,70.12 C222.847895,70.118156 224.447632,71.1676147 225.15,72.79 L225.15,72.79 C226.108313,75.0433488 225.061419,77.6471622 222.81,78.61 C222.26605,78.8568737 221.677261,78.9896064 221.08,79 L221.08,79 Z M13.51,70.26 C11.8806903,70.257797 10.3834686,69.3633755 9.60927085,67.9297533 C8.8350731,66.496131 8.90828091,64.7536319 9.8,63.39 C13.4418791,57.8199069 17.9758251,52.887298 23.22,48.79 L23.22,48.79 C24.22,47.99 25.31,47.21 26.41,46.47 C27.1398265,45.9685459 28.0045041,45.7000774 28.89,45.7 C30.8428913,45.697442 32.5681753,46.9712163 33.1407159,48.8382965 C33.7132564,50.7053767 32.9986157,52.7273544 31.38,53.82 C30.48,54.43 29.57,55.09 28.68,55.82 C24.2118958,59.3082479 20.3442062,63.5035933 17.23,68.24 L17.23,68.24 C16.4114355,69.4991442 15.0118293,70.2591454 13.51,70.26 L13.51,70.26 Z M196.89,52.08 C196.133188,52.077196 195.389653,51.8809855 194.73,51.51 C188.79327,48.1797577 182.252706,46.0652927 175.49,45.29 L175.49,45.29 C173.185471,44.9802363 171.510282,42.9449384 171.649443,40.6238523 C171.788603,38.3027662 173.694969,36.4821996 176.02,36.45 L176.53,36.45 C184.463462,37.3539847 192.136691,39.8324002 199.1,43.74 C200.858686,44.7290386 201.729352,46.7795586 201.219558,48.73181 C200.709764,50.6840614 198.947713,52.0470971 196.93,52.05 L196.89,52.08 Z M63.45,43.6 L63.45,43.6 C62.3304528,43.5935879 61.2562742,43.1567553 60.45,42.38 C58.6716431,40.6982929 58.5932929,37.8933569 60.275,36.115 C61.9567071,34.3366431 64.7616431,34.2582929 66.54,35.94 C67.8503317,37.1837038 68.2764453,39.0973353 67.6176282,40.779515 C66.9588111,42.4616946 65.3464434,43.5769653 63.54,43.6 L63.45,43.6 Z M155.59,27.42 C154.362449,27.4234995 153.188733,26.9163382 152.35,26.02 C142.6577,15.7206303 129.142761,9.88043963 115,9.88 L115,9.88 C103.287983,9.87797872 91.925646,13.8712 82.79,21.2 C81.56,22.2 80.35,23.26 79.21,24.37 C77.9240547,25.6222737 76.0095477,25.9748069 74.3618894,25.2627205 C72.7142311,24.5506342 71.6591085,22.9146839 71.69,21.12 C71.6876848,19.9458214 72.1601441,18.8205747 73,18 C74.35,16.69 75.76,15.44 77.2,14.28 C99.2406886,-3.42735683 130.629311,-3.42735683 152.67,14.28 C154.835995,16.0184715 156.877651,17.9064182 158.78,19.93 C159.990333,21.2183632 160.321111,23.1019548 159.622159,24.7256084 C158.923206,26.3492621 157.327695,27.403622 155.56,27.41 L155.59,27.42 Z" id="Shape"></path>
            <path d="M54.44,136.28 C54.9504973,136.968757 54.9784858,137.902442 54.5101609,138.62054 C54.041836,139.338638 53.1761183,139.689471 52.34,139.5 C50.771319,139.125465 49.2226598,138.671548 47.7,138.14 L47.7,138.14 C47.36,138.03 47.03,137.91 46.7,137.78 C46.2850565,137.62495 45.9333276,137.336533 45.7,136.96 C45.3386068,136.422939 45.0557522,135.837026 44.86,135.22 C44.5740013,134.163428 44.7537397,133.034976 45.3538373,132.119541 C45.9539349,131.204105 46.9170399,130.589175 48,130.43 C50.78,130.07 51.88,132.59 53.17,134.53 C53.61,135.12 54,135.7 54.44,136.28 Z" id="Path"></path>
            <path d="M35,108.36 C35.6694553,109.552101 35.650761,111.01109 34.9509813,112.185646 C34.2512015,113.360203 32.9770497,114.071212 31.61,114.05 C30.123384,113.960003 28.8061098,113.061338 28.18,111.71 C27.33,110.23 26.5,108.71 25.72,107.19 C22.7965193,101.436535 20.4516781,95.4069436 18.72,89.19 C18.4050404,88.5055474 18.3140551,87.7391719 18.46,87 C18.5120841,86.7188067 18.6029513,86.446205 18.73,86.19 C18.8387317,85.9633346 18.9658221,85.745943 19.11,85.54 C20.2140927,84.1058872 22.1564766,83.6140922 23.81,84.35 C24.6288044,84.7053032 25.2949887,85.3395957 25.69,86.14 C25.8570217,86.453516 25.975056,86.7907568 26.04,87.14 C26.078034,87.3110352 26.1014517,87.4849955 26.11,87.66 C28.2190726,94.8963666 31.2045324,101.847887 35,108.36 L35,108.36 Z" id="Path"></path>
            <path d="M43.47,99.6 C42.85,98.6 42.62,97.5 41.97,96.6 C41.376001,95.5947423 40.883572,94.5328375 40.5,93.43 C39.62,91.37 38.82,89.26 38.14,87.14 C35.8306644,80.1038802 34.4850973,72.787359 34.14,65.39 C33.9996092,64.8117323 33.9996092,64.2082677 34.14,63.63 C34.1920841,63.3488067 34.2829513,63.076205 34.41,62.82 C35.1482692,61.3319887 36.7480312,60.4748951 38.395839,60.6845341 C40.0436468,60.8941731 41.3778368,62.1245329 41.72,63.75 C41.7948389,64.1700257 41.7948389,64.5999743 41.72,65.02 C41.8492547,68.1948928 42.1832823,71.3581339 42.72,74.49 C43.2473041,77.0372605 43.9557713,79.5436302 44.84,81.99 C45.61,84.34 46.43,86.67 47.28,88.99 C48.13,91.31 49.13,93.78 50.12,96.14 C50.8539594,97.9520809 50.0931732,100.025359 48.3613532,100.932626 C46.6295333,101.839893 44.4919161,101.285032 43.42,99.65 L43.47,99.6 Z" id="Path"></path>
            <path d="M43.18,123.24 C42.6711152,124.761637 41.2781365,125.813096 39.6752928,125.88545 C38.0724491,125.957804 36.5904012,125.036127 35.946489,123.566528 C35.3025768,122.096929 35.6296371,120.382582 36.7693664,119.253264 C37.9090957,118.123945 39.6263719,117.81263 41.09,118.47 C42.9194821,119.27618 43.8274893,121.348522 43.18,123.24 Z" id="Path"></path>
            <path d="M95.92,134.38 C96.8952525,135.499095 97.1274089,137.084518 96.513964,138.43625 C95.9005191,139.787981 94.5544136,140.657154 93.07,140.66 C91.9736428,140.663406 90.9313077,140.184297 90.22,139.35 C77.5419206,124.733379 67.3649726,108.123195 60.1,90.19 C59.56,88.86 58.95,87.61 59.42,86.19 C59.8191045,84.9286221 60.8470869,83.966658 62.1321434,83.6520337 C63.4171998,83.3374093 64.7733131,83.715668 65.71,84.65 C66.8,85.74 67.19,87.53 67.76,88.92 C73.1648229,101.86609 80.1584781,114.08987 88.58,125.31 C90.92,128.403333 93.3666667,131.426667 95.92,134.38 Z" id="Path"></path>
            <path d="M185,129.59 C185.690054,131.192082 185.203965,133.058171 183.82,134.12 C182.42,135.21 180.87,134.93 179.34,134.32 C175.558854,132.80269 171.860382,131.086973 168.26,129.18 C162.573666,126.197719 157.136167,122.763334 152,118.91 C151.749235,118.766089 151.517438,118.591402 151.31,118.39 C150.544815,117.668568 150.113789,116.661634 150.12,115.61 C150.112733,114.245737 150.833596,112.981156 152.01121,112.292324 C153.188825,111.603491 154.644413,111.594982 155.83,112.27 C156.13815,112.447204 156.417937,112.669686 156.66,112.93 C164.102634,118.511441 172.207603,123.150049 180.79,126.74 C182.43,127.41 184.23,127.84 185,129.59 Z" id="Path"></path>
            <path d="M205.75,118.11 C205.362469,119.855853 203.818325,121.101131 202.03,121.11 C201.747223,121.106909 201.4656,121.073382 201.19,121.01 C189.19,118.32 184.05,115.71 182.43,114.76 L182.43,114.76 C181.03,114.12 179.64,113.45 178.28,112.76 C162.497824,104.696405 149.139448,92.5872487 139.57,77.67 C137.189006,73.9695321 135.057604,70.1143005 133.19,66.13 C132.27,64.19 131.42,62.2133333 130.64,60.2 C129.99,58.58 129.51,56.87 128.76,55.3 C126.466563,50.4888089 121.863417,47.1922162 116.57,46.57 C115.613987,46.4600023 114.649765,46.4399144 113.69,46.51 C112.52,46.59 111.39,47 110.22,47.07 C108.3542,47.182523 106.684972,45.9179471 106.288211,44.0913517 C105.891451,42.2647563 106.88565,40.4216488 108.63,39.75 C110.795145,39.054916 113.069544,38.7634134 115.34,38.89 C121.55369,39.0419122 127.443984,41.6914629 131.68,46.24 C132.976801,47.6377133 134.092259,49.1933064 135,50.87 C135.820894,52.500476 136.522727,54.1882166 137.1,55.92 C140.200261,64.2155187 144.477371,72.0220859 149.8,79.1 C159.284976,91.6980947 171.817657,101.67744 186.22,108.1 C188.49,109.1 190.81,110.04 193.16,110.87 C194.01,111.17 194.95,111.38 195.8,111.74 L195.8,111.74 C197.8,112.31 200.1,112.91 202.8,113.53 C203.804336,113.735723 204.683386,114.337511 205.238526,115.199389 C205.793665,116.061266 205.978043,117.110496 205.75,118.11 Z" id="Path"></path>
            <path d="M172.2,57 C173.113759,55.1156593 175.363392,54.3036617 177.27,55.17 C179.145335,55.9629156 180.065829,58.0901832 179.36,60 C178.824102,61.2790109 177.646567,62.1749674 176.270962,62.3503712 C174.895357,62.525775 173.530668,61.9539782 172.690962,60.8503711 C171.851255,59.746764 171.664101,58.2790108 172.2,57 L172.2,57 Z" id="Path"></path>
            <path d="M122.6,134.06 C123.60213,134.971027 124.042109,136.347481 123.754201,137.670865 C123.466294,138.994249 122.494239,140.063508 121.204201,140.475865 C119.914164,140.888221 118.50213,140.581027 117.5,139.67 C108.891428,131.840247 101.177625,123.08005 94.5,113.55 C87.3836058,103.400226 81.4863834,92.4482414 76.93,80.92 C75.7600119,78.1972925 74.7581307,75.4053836 73.93,72.56 C73.1981529,69.7597157 72.759131,66.890992 72.62,64 C71.6884669,45.7918373 82.5474513,29.0416624 99.55,22.46 C102.100078,21.4677804 104.743334,20.7341009 107.44,20.27 C109.301245,19.8456473 111.188416,20.8680392 111.849543,22.6589097 C112.510671,24.4497803 111.740513,26.4531665 110.05,27.34 C108.785525,27.7993484 107.474276,28.1179383 106.14,28.29 C92.0001424,31.9795813 81.6731468,44.112303 80.29,58.66 C80.0530745,61.2778752 80.1067347,63.9139353 80.45,66.52 C80.9097391,69.4243372 81.6912137,72.2685024 82.78,75 C84.9974968,80.9610507 87.5824558,86.7788785 90.52,92.42 C96.3840083,103.6394 103.634094,114.077776 112.1,123.49 C115.43,127.19 118.93,130.72 122.6,134.06 Z" id="Path"></path>
            <path d="M72.47,135.31 C73.227563,136.327946 73.3449683,137.686543 72.7732667,138.819359 C72.201565,139.952175 71.0388943,140.664752 69.77,140.66 L68.69,140.66 C67.62774,140.661667 66.6284236,140.156436 66,139.3 C64.77,137.62 63.56,135.92 62.39,134.21 C60.44,131.38 58.57,128.52 56.78,125.59 C56.61,125.32 56.44,125.05 56.26,124.78 L56.26,124.78 L52.56,118.87 L52.56,118.87 C52.014855,117.837673 51.9815841,116.610346 52.47,115.55 C53.1603678,114.156275 54.6111367,113.304255 56.1646204,113.380194 C57.7181042,113.456132 59.0788569,114.445586 59.63,115.9 L61.63,119.14 L61.63,119.19 C61.9399495,119.619216 62.2237956,120.066691 62.48,120.53 C62.95,121.33 63.48,122.11 63.92,122.89 C65.7266667,125.803333 67.6166667,128.656667 69.59,131.45 C70.53,132.743333 71.49,134.03 72.47,135.31 Z" id="Path"></path>
            <path d="M62.26,73.84 C62.6364904,74.8855849 62.7024759,76.0177575 62.45,77.1 C61.9114513,78.6931179 60.3898173,79.74279 58.7092892,79.6804628 C57.0287611,79.6181355 55.5890607,78.4586336 55.17,76.83 C54.85,75.5 54.33,74.06 54.78,72.7 C55.1556236,71.5262783 56.0798265,70.609351 57.2564803,70.2430155 C58.433134,69.87668 59.7144966,70.1069337 60.69,70.86 C61.5620158,71.626444 62.1209686,72.6873864 62.26,73.84 L62.26,73.84 Z" id="Path"></path>
            <path d="M154.2,138.19 C153.696169,139.576251 152.430191,140.541363 150.96,140.66 L149.43,140.66 C149.24,140.54 149.05,140.42 148.86,140.28 C148.84453,140.288932 148.82547,140.288932 148.81,140.28 C148.564486,140.164746 148.335735,140.016731 148.13,139.84 L148.13,139.84 C141.63078,135.64513 135.49283,130.915396 129.78,125.7 C117.540009,114.522273 107.382303,101.259695 99.78,86.53 C98.78,84.65 97.87,82.73 96.99,80.79 C96.3,79.3 95.71,77.74 94.99,76.28 C93.7060912,73.6952632 92.8226615,70.9303305 92.37,68.08 C92.07,66.36 92.09,64.71 93.56,63.51 C94.7922744,62.5126539 96.5142261,62.385102 97.88,63.19 C99.5,64.19 99.63,65.74 99.96,67.42 C100.243536,68.9106165 100.679147,70.368237 101.26,71.77 C101.47,72.28 101.74,72.77 102,73.24 C102.81,74.82 103.42,76.54 104.16,78.16 C105.92,81.93 107.85,85.63 109.95,89.22 C120.489033,107.209546 135.130257,122.453825 152.68,133.71 L152.85,133.82 C154.210252,134.822559 154.757776,136.594915 154.2,138.19 Z" id="Path"></path>
            <path d="M54.16,63.32 C53.4809883,62.3288282 53.1957591,61.1201695 53.36,59.93 C53.4,58.7566667 53.47,57.5866667 53.57,56.42 C53.7279263,54.6379934 55.113463,53.2107236 56.89,53 L57,53 C58.1310635,52.8927412 59.2507847,53.2972007 60.0522173,54.1025049 C60.8536498,54.9078091 61.2527084,56.0294666 61.14,57.16 C61.04,58.32 60.97,59.48 60.95,60.65 C61.0044926,61.7125649 60.6236192,62.7514519 59.8952422,63.5270036 C59.1668651,64.3025553 58.1538912,64.7477907 57.09,64.76 C55.946398,64.7453825 54.8702017,64.2164669 54.16,63.32 L54.16,63.32 Z" id="Path"></path>
            <path d="M212.17,99.21 C211.974884,101.151385 210.341165,102.629511 208.39,102.63 C208.253513,102.639913 208.116487,102.639913 207.98,102.63 C205.28874,102.319936 202.635425,101.74036 200.06,100.9 L199.84,100.83 C196.053985,99.6678763 192.360322,98.2238378 188.79,96.51 C173.388069,89.1019579 160.724038,77.0119737 152.61,61.97 C150.637563,58.2999303 148.946054,54.4856784 147.55,50.56 C146.522822,47.6155212 145.114159,44.8183672 143.36,42.24 C140.100305,37.4707339 135.686607,33.6040179 130.53,31 C129.62,30.53 128.68,30.11 127.72,29.73 C126.831189,29.4725712 125.985363,29.085041 125.21,28.58 C123.909309,27.5039761 123.471739,25.7003451 124.134756,24.1479165 C124.797772,22.595488 126.403285,21.6644231 128.08,21.86 C129.00235,22.0468007 129.896507,22.3526965 130.74,22.77 C131.69,23.15 132.63,23.58 133.55,24.04 C135.320501,24.915002 137.024999,25.9176483 138.65,27.04 C145.265053,31.5677615 150.465076,37.873655 153.65,45.23 C154.96,48.23 155.95,51.42 157.35,54.44 C159.043123,58.0703985 161.026215,61.5583671 163.28,64.87 C172.519523,78.3844261 186.005372,88.4284273 201.6,93.41 C201.841306,93.4499327 202.078815,93.5101461 202.31,93.59 C204.415866,94.2686004 206.582729,94.7408224 208.78,95 C209.788047,95.1082144 210.71173,95.6127154 211.347583,96.4023738 C211.983436,97.1920322 212.279299,98.2020697 212.17,99.21 L212.17,99.21 Z" id="Path"></path>
            <path d="M98.93,48.63 C100.820579,49.5302306 101.626613,51.790243 100.732394,53.6836726 C99.8381757,55.5771022 97.5807359,56.3903138 95.6844745,55.5021162 C93.788213,54.6139186 92.9678324,52.3590742 93.85,50.46 C94.7522328,48.5571046 97.021529,47.7396219 98.93,48.63 L98.93,48.63 Z" id="Path"></path>
            <path d="M119.26,81.12 C116.056069,75.7920202 113.376841,70.1656415 111.26,64.32 C110.594263,62.7511553 110.99567,60.9327813 112.26,59.79 C113.458669,58.7839333 115.147941,58.6059069 116.53,59.34 C117.98,60.12 118.32,61.57 118.85,63.01 C119.38,64.45 120.08,66.11 120.78,67.63 C123.06888,72.5499394 125.650161,77.3284822 128.51,81.94 C131.978906,87.5971706 135.948136,92.9318683 140.37,97.88 C140.486699,97.9687668 140.596974,98.0656752 140.7,98.17 C140.869572,98.3498797 141.023465,98.5439187 141.16,98.75 L141.16,98.75 C141.563273,99.3805392 141.781545,100.111577 141.79,100.86 C141.782964,102.230435 141.046101,103.493249 139.856468,104.173628 C138.666836,104.854007 137.204769,104.848814 136.02,104.16 C135.768435,104.013339 135.53657,103.83524 135.33,103.63 C135.162737,103.482653 135.014885,103.31464 134.89,103.13 C133.97,102.13 133.08,101.13 132.2,100.05 C127.334819,94.1354801 123.004478,87.8005995 119.26,81.12 Z" id="Path"></path>
            <path d="M184.14,70.6 C183.507904,69.6963103 183.294852,68.5644774 183.555113,67.4928131 C183.815374,66.4211489 184.523824,65.5131095 185.5,65 C188,63.73 189.88,65.73 191.76,67.11 C193.846951,68.6420172 196.039021,70.0254273 198.32,71.25 C200.380226,72.3578531 202.515439,73.3202028 204.71,74.13 C204.941483,74.1916117 205.168644,74.2684456 205.39,74.36 C205.48805,74.3965672 205.581916,74.4435 205.67,74.5 C207.385618,75.3915958 208.164545,77.4244644 207.483984,79.2341956 C206.803424,81.0439267 204.877996,82.0598056 203,81.6 C202.80755,81.5597565 202.619855,81.4994261 202.44,81.42 L202.07,81.26 C197.79978,79.6525348 193.724112,77.5694155 189.92,75.05 C188.92,74.41 188.01,73.75 187.08,73.05 C185.986022,72.3807198 184.995583,71.5553543 184.14,70.6 Z" id="Path"></path>
        </g>
    </g>
</svg>