<?xml version="1.0" encoding="UTF-8"?>
<svg width="20px" height="20px" viewBox="0 0 20 20" version="1.1" xmlns="http://www.w3.org/2000/svg" xmlns:xlink="http://www.w3.org/1999/xlink">
    <!-- Generator: Sketch 52.6 (67491) - http://www.bohemiancoding.com/sketch -->
    <title>Group 145</title>
    <desc>Created with Sketch.</desc>
    <g id="Page-1" stroke="none" stroke-width="1" fill="none" fill-rule="evenodd">
        <g id="Group-145">
            <circle id="Oval-Copy-3" fill="#D0EAFF" fill-rule="nonzero" cx="10" cy="10" r="10"></circle>
            <g id="Share-economy-Copy" transform="translate(5.000000, 5.000000)">
                <polyline id="Rectangle-75" stroke="#182F79" stroke-linejoin="round" transform="translate(4.250000, 5.000000) rotate(-90.000000) translate(-4.250000, -5.000000) " points="0.916666667 8.08333333 4.25 1.91666667 7.58333333 8.08333333"></polyline>
                <g id="Cyrpto" transform="translate(0.000000, 3.166667)">
                    <g id="Group-46">
                        <g id="Coin">
                            <circle id="Oval-6" fill="#1F7BD7" cx="1.83333333" cy="1.83333333" r="1.83333333"></circle>
                            <path d="M1.76699153,2.70050901 L1.76699153,2.52125209 C1.55318554,2.50531814 1.39335,2.42365666 1.28333333,2.31411076 L1.42033522,2.1328621 C1.49713932,2.21452358 1.61753492,2.29020984 1.76699153,2.31211902 L1.76699153,1.92572077 C1.55318554,1.87393544 1.32900063,1.80024093 1.32900063,1.54131427 C1.32900063,1.33815643 1.4992151,1.1768252 1.76699153,1.15491602 L1.76699153,0.971675618 L1.93305442,0.971675618 L1.93305442,1.15690777 C2.10119311,1.17483346 2.24234657,1.23856925 2.35028746,1.33815643 L2.21328556,1.51143812 C2.13440569,1.43575186 2.03476795,1.38994176 1.93305442,1.37002433 L1.93305442,1.71459596 C2.14893619,1.76837303 2.38350004,1.84605103 2.38350004,2.11294466 C2.38350004,2.31610251 2.24442236,2.49535942 1.93305442,2.52125209 L1.93305442,2.70050901 L1.76699153,2.70050901 Z M2.13440569,2.13485384 C2.13440569,2.04522538 2.04722267,2.00140703 1.93305442,1.96754739 L1.93305442,2.31411076 C2.07628367,2.29419333 2.13440569,2.21253184 2.13440569,2.13485384 Z M1.57809498,1.52338858 C1.57809498,1.60106658 1.65697485,1.64090145 1.76699153,1.67276934 L1.76699153,1.36006561 C1.6507475,1.37400781 1.57809498,1.43575186 1.57809498,1.52338858 Z" id="$" fill="#FFFFFF"></path>
                        </g>
                    </g>
                </g>
                <g id="Cyrpto-Copy" transform="translate(5.333333, 0.000000)">
                    <g id="Group-46">
                        <g id="Coin">
                            <circle id="Oval-6" fill="#1F7BD7" cx="1.83333333" cy="1.83333333" r="1.83333333"></circle>
                            <path d="M1.76699153,2.70050901 L1.76699153,2.52125209 C1.55318554,2.50531814 1.39335,2.42365666 1.28333333,2.31411076 L1.42033522,2.1328621 C1.49713932,2.21452358 1.61753492,2.29020984 1.76699153,2.31211902 L1.76699153,1.92572077 C1.55318554,1.87393544 1.32900063,1.80024093 1.32900063,1.54131427 C1.32900063,1.33815643 1.4992151,1.1768252 1.76699153,1.15491602 L1.76699153,0.971675618 L1.93305442,0.971675618 L1.93305442,1.15690777 C2.10119311,1.17483346 2.24234657,1.23856925 2.35028746,1.33815643 L2.21328556,1.51143812 C2.13440569,1.43575186 2.03476795,1.38994176 1.93305442,1.37002433 L1.93305442,1.71459596 C2.14893619,1.76837303 2.38350004,1.84605103 2.38350004,2.11294466 C2.38350004,2.31610251 2.24442236,2.49535942 1.93305442,2.52125209 L1.93305442,2.70050901 L1.76699153,2.70050901 Z M2.13440569,2.13485384 C2.13440569,2.04522538 2.04722267,2.00140703 1.93305442,1.96754739 L1.93305442,2.31411076 C2.07628367,2.29419333 2.13440569,2.21253184 2.13440569,2.13485384 Z M1.57809498,1.52338858 C1.57809498,1.60106658 1.65697485,1.64090145 1.76699153,1.67276934 L1.76699153,1.36006561 C1.6507475,1.37400781 1.57809498,1.43575186 1.57809498,1.52338858 Z" id="$" fill="#FFFFFF"></path>
                        </g>
                    </g>
                </g>
                <g id="Cyrpto-Copy-2" transform="translate(5.333333, 6.333333)">
                    <g id="Group-46">
                        <g id="Coin">
                            <circle id="Oval-6" fill="#1F7BD7" cx="1.83333333" cy="1.83333333" r="1.83333333"></circle>
                            <path d="M1.76699153,2.70050901 L1.76699153,2.52125209 C1.55318554,2.50531814 1.39335,2.42365666 1.28333333,2.31411076 L1.42033522,2.1328621 C1.49713932,2.21452358 1.61753492,2.29020984 1.76699153,2.31211902 L1.76699153,1.92572077 C1.55318554,1.87393544 1.32900063,1.80024093 1.32900063,1.54131427 C1.32900063,1.33815643 1.4992151,1.1768252 1.76699153,1.15491602 L1.76699153,0.971675618 L1.93305442,0.971675618 L1.93305442,1.15690777 C2.10119311,1.17483346 2.24234657,1.23856925 2.35028746,1.33815643 L2.21328556,1.51143812 C2.13440569,1.43575186 2.03476795,1.38994176 1.93305442,1.37002433 L1.93305442,1.71459596 C2.14893619,1.76837303 2.38350004,1.84605103 2.38350004,2.11294466 C2.38350004,2.31610251 2.24442236,2.49535942 1.93305442,2.52125209 L1.93305442,2.70050901 L1.76699153,2.70050901 Z M2.13440569,2.13485384 C2.13440569,2.04522538 2.04722267,2.00140703 1.93305442,1.96754739 L1.93305442,2.31411076 C2.07628367,2.29419333 2.13440569,2.21253184 2.13440569,2.13485384 Z M1.57809498,1.52338858 C1.57809498,1.60106658 1.65697485,1.64090145 1.76699153,1.67276934 L1.76699153,1.36006561 C1.6507475,1.37400781 1.57809498,1.43575186 1.57809498,1.52338858 Z" id="$" fill="#FFFFFF"></path>
                        </g>
                    </g>
                </g>
            </g>
        </g>
    </g>
</svg>