<?xml version="1.0" encoding="UTF-8"?>
<svg width="88px" height="60px" viewBox="0 0 88 60" version="1.1" xmlns="http://www.w3.org/2000/svg" xmlns:xlink="http://www.w3.org/1999/xlink">
    <!-- Generator: Sketch 52.6 (67491) - http://www.bohemiancoding.com/sketch -->
    <title>Group 143</title>
    <desc>Created with Sketch.</desc>
    <defs>
        <rect id="path-1" x="0" y="0" width="88" height="60"></rect>
        <linearGradient x1="94.9320642%" y1="100%" x2="0%" y2="6.58937917%" id="linearGradient-3">
            <stop stop-color="#EFBFD5" offset="0%"></stop>
            <stop stop-color="#9D61FD" offset="100%"></stop>
        </linearGradient>
        <rect id="path-4" x="3.96127575e-13" y="13" width="26.0869565" height="16.9565217" rx="2"></rect>
        <filter x="-264.5%" y="-336.2%" width="629.0%" height="913.8%" filterUnits="objectBoundingBox" id="filter-5">
            <feOffset dx="0" dy="12" in="SourceAlpha" result="shadowOffsetOuter1"></feOffset>
            <feGaussianBlur stdDeviation="21" in="shadowOffsetOuter1" result="shadowBlurOuter1"></feGaussianBlur>
            <feColorMatrix values="0 0 0 0 0.752941176   0 0 0 0 0.537254902   0 0 0 0 0.925490196  0 0 0 0.4 0" type="matrix" in="shadowBlurOuter1"></feColorMatrix>
        </filter>
        <linearGradient x1="113.969411%" y1="0%" x2="0%" y2="100%" id="linearGradient-6">
            <stop stop-color="#EFBFD5" offset="0%"></stop>
            <stop stop-color="#9D61FD" offset="100%"></stop>
        </linearGradient>
        <circle id="path-7" cx="5.43478261" cy="5.43478261" r="5.43478261"></circle>
    </defs>
    <g id="Page-1" stroke="none" stroke-width="1" fill="none" fill-rule="evenodd">
        <g id="Group-143">
            <g id="Group-141">
                <mask id="mask-2" fill="white">
                    <use xlink:href="#path-1"></use>
                </mask>
                <use id="Mask" fill-opacity="0" fill="#FFFFFF" fill-rule="nonzero" xlink:href="#path-1"></use>
                <g mask="url(#mask-2)">
                    <path d="M27.1249558,8.02379968e-14 L83.3037132,8.08242362e-14 C85.5128522,8.04184239e-14 87.3037132,1.790861 87.3037132,4 C87.3037132,4.552268 87.1893511,5.09855272 86.96783,5.60444633 L64.1980293,57.6044463 C63.5607723,59.0597671 62.1226399,60 60.5339125,60 L4.35515513,60 C2.14601613,60 0.355155131,58.209139 0.355155131,56 C0.355155131,55.447732 0.469517235,54.9014473 0.691038326,54.3955537 L23.460839,2.39555367 C24.098096,0.940232941 25.5362284,8.51916894e-14 27.1249558,8.34887715e-14 Z" id="Triangle" fill="url(#linearGradient-3)"></path>
                    <g id="Group-131" transform="translate(24.000000, 16.000000)">
                        <rect id="Rectangle-4-Copy-10" fill="#FFFFFF" opacity="0.4" x="13" y="2.66453526e-14" width="26.0869565" height="16.9565217" rx="2"></rect>
                        <rect id="Rectangle-4-Copy-9" fill="#FFFFFF" opacity="0.7" x="7" y="7" width="26.0869565" height="16.9565217" rx="2"></rect>
                        <g id="Rectangle-4">
                            <use fill="black" fill-opacity="1" filter="url(#filter-5)" xlink:href="#path-4"></use>
                            <use fill="#FFFFFF" fill-rule="evenodd" xlink:href="#path-4"></use>
                        </g>
                        <path d="M14.9130435,14.9933421 C13.8324864,14.9933421 12.9565217,14.1173775 12.9565217,13.0368204 C12.9565217,11.9562632 13.8324864,11.0802986 14.9130435,11.0802986 C15.9936006,11.0802986 16.8695652,11.9562632 16.8695652,13.0368204 C16.8695652,14.1173775 15.9936006,14.9933421 14.9130435,14.9933421 Z M14.9130435,15.645516 C17.0741577,15.645516 18.826087,17.3974453 18.826087,19.5585595 L18.826087,20.2391304 L11,20.2391304 L11,19.5585595 C11,17.3974453 12.7519292,15.645516 14.9130435,15.645516 Z" id="Combined-Shape" fill="#FFFFFF"></path>
                        <polygon id="Rectangle-100-Copy-4" fill="#FFFFFF" points="20.3478261 12.8194291 25.7826087 12.8194291 25.7826087 14.1237769 20.3478261 14.1237769"></polygon>
                        <polygon id="Rectangle-100-Copy-6" fill="#FFFFFF" points="20.3478261 15.2107334 29.1913043 15.2107334 29.1913043 16.0802986 20.3478261 16.0802986"></polygon>
                        <polygon id="Rectangle-100-Copy-7" fill="#FFFFFF" points="20.3478261 17.1672551 29.1913043 17.1672551 29.1913043 18.0368204 20.3478261 18.0368204"></polygon>
                        <g id="Group-8-Copy" opacity="0.3" transform="translate(17.000000, 4.000000)" fill="#FFFFFF">
                            <path d="M3.91304348,3.9933421 C2.83248636,3.9933421 1.95652174,3.11737748 1.95652174,2.03682036 C1.95652174,0.956263242 2.83248636,0.080298622 3.91304348,0.080298622 C4.9936006,0.080298622 5.86956522,0.956263242 5.86956522,2.03682036 C5.86956522,3.11737748 4.9936006,3.9933421 3.91304348,3.9933421 Z M3.91304348,4.64551601 C6.07415772,4.64551601 7.82608696,6.39744525 7.82608696,8.55855949 L7.82608696,9.23913043 L0,9.23913043 L0,8.55855949 C-2.64660163e-16,6.39744525 1.75192924,4.64551601 3.91304348,4.64551601 Z" id="Combined-Shape"></path>
                            <polygon id="Rectangle-100-Copy-4" points="9.34782609 1.81942906 14.7826087 1.81942906 14.7826087 3.12377688 9.34782609 3.12377688"></polygon>
                            <polygon id="Rectangle-100-Copy-6" points="9.34782609 4.2107334 18.1913043 4.2107334 18.1913043 5.08029862 9.34782609 5.08029862"></polygon>
                            <polygon id="Rectangle-100-Copy-7" points="9.34782609 6.16725514 18.1913043 6.16725514 18.1913043 7.03682036 9.34782609 7.03682036"></polygon>
                        </g>
                        <g id="Combined-Shape" transform="translate(2.000000, 16.000000)">
                            <mask id="mask-8" fill="white">
                                <use xlink:href="#path-7"></use>
                            </mask>
                            <use id="Mask" fill-opacity="0.2" fill="url(#linearGradient-6)" fill-rule="nonzero" xlink:href="#path-7"></use>
                            <path d="M5.38043478,6.63043478 C4.26986219,6.63043478 3.36956522,5.73013781 3.36956522,4.61956522 C3.36956522,3.50899262 4.26986219,2.60869565 5.38043478,2.60869565 C6.49100738,2.60869565 7.39130435,3.50899262 7.39130435,4.61956522 C7.39130435,5.73013781 6.49100738,6.63043478 5.38043478,6.63043478 Z M5.38043478,7.2826087 C7.5715645,7.2826087 9.34782609,9.05887029 9.34782609,11.25 L9.34782609,11.9565217 L1.41304348,11.9565217 L1.41304348,11.25 C1.41304348,9.05887029 3.18930507,7.2826087 5.38043478,7.2826087 Z" fill="url(#linearGradient-3)" mask="url(#mask-8)"></path>
                        </g>
                        <path d="M15.5173913,19 L19.9521739,19 C20.2283163,19 20.4521739,19.2238576 20.4521739,19.5 L20.4521739,19.5 C20.4521739,19.7761424 20.2283163,20 19.9521739,20 L15.5173913,20 C15.2412489,20 15.0173913,19.7761424 15.0173913,19.5 L15.0173913,19.5 C15.0173913,19.2238576 15.2412489,19 15.5173913,19 Z" id="Rectangle-100-Copy-4" fill="url(#linearGradient-3)"></path>
                        <path d="M15.4521739,21.173913 L23.426087,21.173913 C23.6662108,21.173913 23.8608696,21.3685718 23.8608696,21.6086957 L23.8608696,21.6086957 C23.8608696,21.8488195 23.6662108,22.0434783 23.426087,22.0434783 L15.4521739,22.0434783 C15.2120501,22.0434783 15.0173913,21.8488195 15.0173913,21.6086957 L15.0173913,21.6086957 C15.0173913,21.3685718 15.2120501,21.173913 15.4521739,21.173913 Z" id="Rectangle-100-Copy-6" fill="url(#linearGradient-3)"></path>
                        <path d="M15.4521739,23.1304348 L23.426087,23.1304348 C23.6662108,23.1304348 23.8608696,23.3250936 23.8608696,23.5652174 L23.8608696,23.5652174 C23.8608696,23.8053412 23.6662108,24 23.426087,24 L15.4521739,24 C15.2120501,24 15.0173913,23.8053412 15.0173913,23.5652174 L15.0173913,23.5652174 C15.0173913,23.3250936 15.2120501,23.1304348 15.4521739,23.1304348 Z" id="Rectangle-100-Copy-7" fill="url(#linearGradient-3)"></path>
                    </g>
                </g>
            </g>
        </g>
    </g>
</svg>