<svg width="217" height="217" viewBox="0 0 217 217" fill="none" xmlns="http://www.w3.org/2000/svg">
<path d="M106.199 3.21897C107.327 1.64086 109.673 1.64086 110.801 3.21897L128.293 27.6905C129.079 28.7902 130.533 29.18 131.764 28.6206L159.148 16.1735C160.914 15.3708 162.945 16.5437 163.133 18.4744L166.046 48.4132C166.177 49.7587 167.241 50.8234 168.587 50.9543L198.526 53.8669C200.456 54.0547 201.629 56.0861 200.826 57.8521L188.379 85.2362C187.82 86.4668 188.21 87.9213 189.31 88.7073L213.781 106.199C215.359 107.327 215.359 109.673 213.781 110.801L189.31 128.293C188.21 129.079 187.82 130.533 188.379 131.764L200.826 159.148C201.629 160.914 200.456 162.945 198.526 163.133L168.587 166.046C167.241 166.177 166.177 167.241 166.046 168.587L163.133 198.526C162.945 200.456 160.914 201.629 159.148 200.826L131.764 188.379C130.533 187.82 129.079 188.21 128.293 189.31L110.801 213.781C109.673 215.359 107.327 215.359 106.199 213.781L88.7073 189.31C87.9213 188.21 86.4668 187.82 85.2362 188.379L57.8521 200.826C56.0861 201.629 54.0547 200.456 53.8669 198.526L50.9543 168.587C50.8234 167.241 49.7587 166.177 48.4132 166.046L18.4744 163.133C16.5437 162.945 15.3708 160.914 16.1735 159.148L28.6206 131.764C29.18 130.533 28.7902 129.079 27.6905 128.293L3.21897 110.801C1.64086 109.673 1.64086 107.327 3.21897 106.199L27.6905 88.7073C28.7902 87.9213 29.18 86.4668 28.6206 85.2362L16.1735 57.8521C15.3708 56.0862 16.5437 54.0547 18.4744 53.8669L48.4132 50.9543C49.7587 50.8234 50.8234 49.7587 50.9543 48.4132L53.8669 18.4744C54.0547 16.5437 56.0861 15.3708 57.8521 16.1735L85.2362 28.6206C86.4668 29.18 87.9213 28.7902 88.7073 27.6905L106.199 3.21897Z" fill="url(#paint0_linear_66_339)"/>
<path d="M69.3175 159.422C69.3175 160.943 70.5556 162.17 72.0652 162.17H144.7C146.221 162.17 147.448 160.943 147.448 159.422L147.448 83.5581H69.3174L69.3175 159.422Z" fill="white" fill-opacity="0.6"/>
<path d="M129.93 53H72.0651C70.5555 53 69.3174 54.2272 69.3174 55.7477L69.3174 83.558H147.448V70.518L129.93 53Z" fill="white" fill-opacity="0.5"/>
<path d="M129.93 67.7703C129.93 69.2907 131.168 70.518 132.688 70.518H147.448L129.93 53V67.7703Z" fill="white"/>
<path d="M89.2572 98.1253H81.5137C81.1444 98.1253 80.8403 97.8212 80.8403 97.4519C80.8403 97.0718 81.1444 96.7786 81.5137 96.7786H89.2572C89.6373 96.7786 89.9306 97.0718 89.9306 97.4519C89.9306 97.8212 89.6373 98.1253 89.2572 98.1253Z" fill="white"/>
<path d="M104.256 98.1253H93.1563C92.787 98.1253 92.4829 97.8212 92.4829 97.4519C92.4829 97.0718 92.787 96.7786 93.1563 96.7786H104.256C104.625 96.7786 104.929 97.0718 104.929 97.4519C104.929 97.8212 104.625 98.1253 104.256 98.1253Z" fill="white"/>
<path d="M99.0538 101.699H86.3145C85.9452 101.699 85.6411 101.395 85.6411 101.025C85.6411 100.645 85.9452 100.341 86.3145 100.341H99.0538C99.4339 100.341 99.738 100.645 99.738 101.025C99.738 101.395 99.4339 101.699 99.0538 101.699Z" fill="white"/>
<path d="M112.477 101.699H103.05C102.681 101.699 102.377 101.395 102.377 101.025C102.377 100.645 102.681 100.341 103.05 100.341H112.477C112.857 100.341 113.151 100.645 113.151 101.025C113.151 101.395 112.857 101.699 112.477 101.699Z" fill="white"/>
<path d="M133.655 116.045H124.228C123.859 116.045 123.555 115.741 123.555 115.361C123.555 114.992 123.859 114.688 124.228 114.688H133.655C134.035 114.688 134.339 114.992 134.339 115.361C134.339 115.741 134.035 116.045 133.655 116.045Z" fill="white"/>
<path d="M130.517 130.381H121.09C120.721 130.381 120.417 130.088 120.417 129.708C120.417 129.338 120.721 129.034 121.09 129.034H130.517C130.897 129.034 131.201 129.338 131.201 129.708C131.201 130.088 130.897 130.381 130.517 130.381Z" fill="white"/>
<path d="M129.148 98.1253H124.434C124.054 98.1253 123.75 97.8212 123.75 97.4519C123.75 97.0718 124.054 96.7786 124.434 96.7786H129.148C129.528 96.7786 129.821 97.0718 129.821 97.4519C129.821 97.8212 129.528 98.1253 129.148 98.1253Z" fill="white"/>
<path d="M123.099 119.618H117.082C116.713 119.618 116.409 119.314 116.409 118.934C116.409 118.565 116.713 118.261 117.082 118.261H123.099C123.479 118.261 123.783 118.565 123.783 118.934C123.783 119.314 123.479 119.618 123.099 119.618Z" fill="white"/>
<path d="M101.997 133.954H95.9801C95.6 133.954 95.2959 133.65 95.2959 133.281C95.2959 132.912 95.6 132.607 95.9801 132.607H101.997C102.366 132.607 102.67 132.912 102.67 133.281C102.67 133.65 102.366 133.954 101.997 133.954Z" fill="white"/>
<path d="M120.329 98.1253H108.187C107.818 98.1253 107.514 97.8212 107.514 97.4519C107.514 97.0718 107.818 96.7786 108.187 96.7786H120.329C120.698 96.7786 121.002 97.0718 121.002 97.4519C121.002 97.8212 120.698 98.1253 120.329 98.1253Z" fill="white"/>
<path d="M104.375 112.472H94.188C93.8187 112.472 93.5146 112.168 93.5146 111.788C93.5146 111.419 93.8187 111.115 94.188 111.115H104.375C104.744 111.115 105.048 111.419 105.048 111.788C105.048 112.168 104.744 112.472 104.375 112.472Z" fill="white"/>
<path d="M106.373 119.618H94.2422C93.8729 119.618 93.5688 119.314 93.5688 118.934C93.5688 118.565 93.8729 118.261 94.2422 118.261H106.373C106.753 118.261 107.058 118.565 107.058 118.934C107.058 119.314 106.753 119.618 106.373 119.618Z" fill="white"/>
<path d="M102.485 126.753H94.2422C93.8729 126.753 93.5688 126.46 93.5688 126.08C93.5688 125.711 93.8729 125.407 94.2422 125.407H102.485C102.855 125.407 103.159 125.711 103.159 126.08C103.159 126.46 102.855 126.753 102.485 126.753Z" fill="white"/>
<path d="M101.16 108.845H89.5831C89.203 108.845 88.8989 108.541 88.8989 108.172C88.8989 107.791 89.203 107.487 89.5831 107.487H101.16C101.541 107.487 101.845 107.791 101.845 108.172C101.845 108.541 101.541 108.845 101.16 108.845Z" fill="white"/>
<path d="M113.954 119.618H110.044C109.664 119.618 109.36 119.314 109.36 118.934C109.36 118.565 109.664 118.261 110.044 118.261H113.954C114.334 118.261 114.627 118.565 114.627 118.934C114.627 119.314 114.334 119.618 113.954 119.618Z" fill="white"/>
<path d="M101.16 116.045H89.5831C89.203 116.045 88.8989 115.741 88.8989 115.361C88.8989 114.992 89.203 114.688 89.5831 114.688H101.16C101.541 114.688 101.845 114.992 101.845 115.361C101.845 115.741 101.541 116.045 101.16 116.045Z" fill="white"/>
<path d="M100.997 123.191H89.42C89.0399 123.191 88.7358 122.887 88.7358 122.507C88.7358 122.138 89.0399 121.834 89.42 121.834H100.997C101.377 121.834 101.682 122.138 101.682 122.507C101.682 122.887 101.377 123.191 100.997 123.191Z" fill="white"/>
<path d="M101.16 130.381H89.5831C89.203 130.381 88.8989 130.088 88.8989 129.708C88.8989 129.338 89.203 129.034 89.5831 129.034H101.16C101.541 129.034 101.845 129.338 101.845 129.708C101.845 130.088 101.541 130.381 101.16 130.381Z" fill="white"/>
<path d="M89.9415 105.271H81.3726C81.0033 105.271 80.6992 104.967 80.6992 104.598C80.6992 104.218 81.0033 103.914 81.3726 103.914H89.9415C90.3216 103.914 90.6148 104.218 90.6148 104.598C90.6148 104.967 90.3216 105.271 89.9415 105.271Z" fill="white"/>
<path d="M123.208 108.845H104.897C104.528 108.845 104.224 108.541 104.224 108.172C104.224 107.791 104.528 107.487 104.897 107.487H123.208C123.588 107.487 123.892 107.791 123.892 108.172C123.892 108.541 123.588 108.845 123.208 108.845Z" fill="white"/>
<path d="M120.503 116.045H104.951C104.581 116.045 104.277 115.741 104.277 115.361C104.277 114.992 104.581 114.688 104.951 114.688H120.503C120.883 114.688 121.187 114.992 121.187 115.361C121.187 115.741 120.883 116.045 120.503 116.045Z" fill="white"/>
<path d="M117.256 123.191H104.788C104.419 123.191 104.115 122.887 104.115 122.507C104.115 122.138 104.419 121.834 104.788 121.834H117.256C117.636 121.834 117.929 122.138 117.929 122.507C117.929 122.887 117.636 123.191 117.256 123.191Z" fill="white"/>
<path d="M117.256 130.381H104.788C104.419 130.381 104.115 130.088 104.115 129.708C104.115 129.338 104.419 129.034 104.788 129.034H117.256C117.636 129.034 117.929 129.338 117.929 129.708C117.929 130.088 117.636 130.381 117.256 130.381Z" fill="white"/>
<path d="M112.173 105.271H94.2315C93.8622 105.271 93.5581 104.967 93.5581 104.598C93.5581 104.218 93.8622 103.914 94.2315 103.914H112.173C112.542 103.914 112.846 104.218 112.846 104.598C112.846 104.967 112.542 105.271 112.173 105.271Z" fill="white"/>
<path d="M89.9415 112.472H81.3726C81.0033 112.472 80.6992 112.168 80.6992 111.788C80.6992 111.419 81.0033 111.115 81.3726 111.115H89.9415C90.3216 111.115 90.6148 111.419 90.6148 111.788C90.6148 112.168 90.3216 112.472 89.9415 112.472Z" fill="white"/>
<path d="M89.9415 119.618H81.3726C81.0033 119.618 80.6992 119.314 80.6992 118.934C80.6992 118.565 81.0033 118.261 81.3726 118.261H89.9415C90.3216 118.261 90.6148 118.565 90.6148 118.934C90.6148 119.314 90.3216 119.618 89.9415 119.618Z" fill="white"/>
<path d="M89.9415 126.808H81.3726C81.0033 126.808 80.6992 126.515 80.6992 126.135C80.6992 125.765 81.0033 125.461 81.3726 125.461H89.9415C90.3216 125.461 90.6148 125.765 90.6148 126.135C90.6148 126.515 90.3216 126.808 89.9415 126.808Z" fill="white"/>
<path d="M92.0593 133.954H81.3726C81.0033 133.954 80.6992 133.65 80.6992 133.281C80.6992 132.912 81.0033 132.607 81.3726 132.607H92.0593C92.4286 132.607 92.7326 132.912 92.7326 133.281C92.7326 133.65 92.4286 133.954 92.0593 133.954Z" fill="white"/>
<path d="M118.07 133.954H107.383C107.014 133.954 106.71 133.65 106.71 133.281C106.71 132.912 107.014 132.607 107.383 132.607H118.07C118.439 132.607 118.743 132.912 118.743 133.281C118.743 133.65 118.439 133.954 118.07 133.954Z" fill="white"/>
<path d="M107.449 145.944H95.9474C95.5238 145.944 95.1763 145.596 95.1763 145.184C95.1763 144.76 95.5238 144.413 95.9474 144.413H107.449C107.872 144.413 108.209 144.76 108.209 145.184C108.209 145.596 107.872 145.944 107.449 145.944Z" fill="white"/>
<path d="M96.8051 141.85H83.7291C83.3055 141.85 82.958 141.502 82.958 141.079C82.958 140.666 83.3055 140.318 83.7291 140.318H96.8051C97.2287 140.318 97.5654 140.666 97.5654 141.079C97.5654 141.502 97.2287 141.85 96.8051 141.85Z" fill="white"/>
<path d="M95.4043 149.973H82.3174C81.8938 149.973 81.5571 149.637 81.5571 149.213C81.5571 148.79 81.8938 148.453 82.3174 148.453H95.4043C95.8278 148.453 96.1645 148.79 96.1645 149.213C96.1645 149.637 95.8278 149.973 95.4043 149.973Z" fill="white"/>
<path d="M91.147 137.81H81.4703C81.0468 137.81 80.6992 137.473 80.6992 137.049C80.6992 136.626 81.0468 136.289 81.4703 136.289H91.147C91.5706 136.289 91.9072 136.626 91.9072 137.049C91.9072 137.473 91.5706 137.81 91.147 137.81Z" fill="white"/>
<path d="M121.708 141.85H101.03C100.606 141.85 100.259 141.502 100.259 141.079C100.259 140.666 100.606 140.318 101.03 140.318H121.708C122.132 140.318 122.469 140.666 122.469 141.079C122.469 141.502 122.132 141.85 121.708 141.85Z" fill="white"/>
<path d="M117.245 149.973H99.6836C99.26 149.973 98.9233 149.637 98.9233 149.213C98.9233 148.79 99.26 148.453 99.6836 148.453H117.245C117.669 148.453 118.016 148.79 118.016 149.213C118.016 149.637 117.669 149.973 117.245 149.973Z" fill="white"/>
<path d="M116.257 137.81H95.9912C95.5785 137.81 95.231 137.473 95.231 137.049C95.231 136.626 95.5785 136.289 95.9912 136.289H116.257C116.67 136.289 117.017 136.626 117.017 137.049C117.017 137.473 116.67 137.81 116.257 137.81Z" fill="white"/>
<path d="M91.147 145.944H81.4703C81.0468 145.944 80.6992 145.596 80.6992 145.184C80.6992 144.76 81.0468 144.413 81.4703 144.413H91.147C91.5706 144.413 91.9072 144.76 91.9072 145.184C91.9072 145.596 91.5706 145.944 91.147 145.944Z" fill="white"/>
<path d="M91.147 154.014H81.4703C81.0468 154.014 80.6992 153.666 80.6992 153.253C80.6992 152.83 81.0468 152.482 81.4703 152.482H91.147C91.5706 152.482 91.9072 152.83 91.9072 153.253C91.9072 153.666 91.5706 154.014 91.147 154.014Z" fill="white"/>
<g filter="url(#filter0_b_66_339)">
<path d="M149.642 157.565L141.116 152.83L132.58 157.565V137.288H149.642V157.565Z" fill="#E8EFFD"/>
</g>
<path d="M141.985 100.417L143.494 102.47C143.853 102.947 144.526 103.056 145.015 102.709L147.078 101.221C147.676 100.797 148.523 101.069 148.751 101.764L149.554 104.186C149.739 104.75 150.347 105.054 150.923 104.881L153.345 104.11C154.051 103.881 154.767 104.403 154.767 105.141L154.789 107.683C154.789 108.28 155.267 108.769 155.864 108.769L158.417 108.79C159.155 108.79 159.665 109.507 159.448 110.202L158.677 112.635C158.493 113.2 158.808 113.808 159.372 114.003L161.794 114.807C162.489 115.035 162.761 115.871 162.337 116.469L160.849 118.543C160.502 119.032 160.61 119.705 161.088 120.053L163.141 121.573C163.727 122.008 163.727 122.887 163.141 123.322L161.088 124.831C160.61 125.19 160.502 125.863 160.849 126.352L162.337 128.415C162.761 129.013 162.489 129.86 161.794 130.088L159.372 130.892C158.808 131.076 158.493 131.684 158.677 132.26L159.448 134.682C159.665 135.388 159.155 136.105 158.417 136.105L155.864 136.126C155.267 136.126 154.789 136.604 154.789 137.201L154.767 139.754C154.767 140.492 154.051 141.003 153.345 140.785L150.923 140.014C150.347 139.83 149.739 140.145 149.554 140.709L148.751 143.131C148.523 143.826 147.676 144.098 147.078 143.674L145.015 142.186C144.526 141.839 143.853 141.948 143.494 142.425L141.985 144.478C141.55 145.064 140.67 145.064 140.236 144.478L138.716 142.425C138.368 141.948 137.695 141.839 137.206 142.186L135.132 143.674C134.534 144.098 133.698 143.826 133.47 143.131L132.666 140.709C132.471 140.145 131.873 139.83 131.298 140.014L128.865 140.785C128.17 141.003 127.453 140.492 127.453 139.754L127.432 137.201C127.432 136.604 126.943 136.126 126.356 136.126L123.804 136.105C123.066 136.105 122.544 135.388 122.772 134.682L123.543 132.26C123.728 131.684 123.413 131.076 122.848 130.892L120.427 130.088C119.731 129.86 119.46 129.013 119.883 128.415L121.371 126.352C121.719 125.863 121.61 125.19 121.132 124.831L119.08 123.322C118.483 122.887 118.483 122.008 119.08 121.573L121.132 120.053C121.61 119.705 121.719 119.032 121.371 118.543L119.883 116.469C119.46 115.871 119.731 115.035 120.427 114.807L122.848 114.003C123.413 113.808 123.717 113.2 123.543 112.635L122.772 110.202C122.544 109.507 123.066 108.79 123.804 108.79L126.345 108.769C126.943 108.769 127.432 108.28 127.432 107.694L127.453 105.141C127.453 104.403 128.17 103.881 128.865 104.11L131.298 104.881C131.863 105.054 132.471 104.75 132.666 104.186L133.47 101.764C133.698 101.069 134.534 100.797 135.132 101.221L137.206 102.709C137.695 103.056 138.368 102.947 138.716 102.47L140.236 100.417C140.67 99.8197 141.55 99.8197 141.985 100.417Z" fill="white"/>
<path d="M138.673 131.087L130.777 123.202C130.354 122.779 130.354 122.094 130.777 121.671L131.983 120.476C132.406 120.053 133.09 120.053 133.514 120.476L139.313 126.276L150.435 115.155C150.858 114.731 151.542 114.731 151.966 115.155L153.161 116.349C153.584 116.773 153.584 117.457 153.161 117.881L139.954 131.087C139.596 131.445 139.02 131.445 138.673 131.087Z" fill="#86B0F4"/>
<defs>
<filter id="filter0_b_66_339" x="98.0512" y="102.759" width="86.1197" height="89.3343" filterUnits="userSpaceOnUse" color-interpolation-filters="sRGB">
<feFlood flood-opacity="0" result="BackgroundImageFix"/>
<feGaussianBlur in="BackgroundImageFix" stdDeviation="17.2644"/>
<feComposite in2="SourceAlpha" operator="in" result="effect1_backgroundBlur_66_339"/>
<feBlend mode="normal" in="SourceGraphic" in2="effect1_backgroundBlur_66_339" result="shape"/>
</filter>
<linearGradient id="paint0_linear_66_339" x1="108.5" y1="0" x2="108.5" y2="217" gradientUnits="userSpaceOnUse">
<stop stop-color="#6C7CEB"/>
<stop offset="1" stop-color="#95D0F9"/>
</linearGradient>
</defs>
</svg>
