<?xml version="1.0" encoding="UTF-8"?>
<svg width="114px" height="128px" viewBox="0 0 114 128" version="1.1" xmlns="http://www.w3.org/2000/svg" xmlns:xlink="http://www.w3.org/1999/xlink">
    <!-- Generator: Sketch 52.6 (67491) - http://www.bohemiancoding.com/sketch -->
    <title>Security Copy 2</title>
    <desc>Created with Sketch.</desc>
    <defs>
        <linearGradient x1="-133.206517%" y1="0%" x2="143.178214%" y2="76.8724474%" id="linearGradient-1">
            <stop stop-color="#5648D6" offset="0%"></stop>
            <stop stop-color="#9FDDFF" offset="100%"></stop>
        </linearGradient>
    </defs>
    <g id="Page-1" stroke="none" stroke-width="1" fill="none" fill-rule="evenodd">
        <g id="Rapid-ID-Home-Bio-Verif-Copy-9" transform="translate(-1163.000000, -4075.000000)">
            <g id="Security-Copy-2" transform="translate(1163.000000, 4075.000000)">
                <g id="Group-40">
                    <path d="M57,128 C41.8981462,125.319827 29.6334484,117.628554 20.2059068,104.926182 C6.06459431,85.8726245 0,63.4178293 0,35.1225945 C0,29.5750279 0,25.5474963 7.10542736e-15,23.04 C8.87717189,21.1584203 17.7543438,18.4235074 26.6315157,14.835261 C35.5086876,11.2470147 45.6315157,6.3019277 57,0 C68.3684843,6.3019277 78.4913124,11.2470147 87.3684843,14.835261 C96.2456562,18.4235074 105.122828,21.1584203 114,23.04 C114,25.5474963 114,29.5750279 114,35.1225945 C114,63.4178293 107.935406,85.8726245 93.7940932,104.926182 C84.3665516,117.628554 72.1018538,125.319827 57,128 Z" id="Combined-Shape" fill="url(#linearGradient-1)"></path>
                    <path d="M57,0 C68.3684843,6.3019277 78.4913124,11.2470147 87.3684843,14.835261 C96.2456562,18.4235074 105.122828,21.1584203 114,23.04 C114,25.5474963 114,29.5750279 114,35.1225945 C114,63.4178293 107.935406,85.8726245 93.7940932,104.926182 C84.3665516,117.628554 72.1018538,125.319827 57,128 L57,4.26325641e-14 Z" id="Combined-Shape" fill="url(#linearGradient-1)"></path>
                    <path d="M57,112 C46.1266652,109.98987 37.2960829,104.221416 30.5082529,94.6946368 C20.3265079,80.4044684 15.96,63.563372 15.96,42.3419459 C15.96,38.1812709 15.96,35.1606223 15.96,33.28 C22.3515638,31.8688153 28.7431275,29.8176305 35.1346913,27.1264458 C41.5262551,24.435261 48.8146913,20.7264458 57,16 C65.1853087,20.7264458 72.4737449,24.435261 78.8653087,27.1264458 C85.2568725,29.8176305 91.6484362,31.8688153 98.04,33.28 C98.04,35.1606223 98.04,38.1812709 98.04,42.3419459 C98.04,63.563372 93.6734921,80.4044684 83.4917471,94.6946368 C76.7039171,104.221416 67.8733348,109.98987 57,112 Z" id="Combined-Shape-Copy-6" fill="#DEEBF9"></path>
                    <path d="M57,16 C65.1853087,20.7264458 72.4737449,24.435261 78.8653087,27.1264458 C85.2568725,29.8176305 91.6484362,31.8688153 98.04,33.28 C98.04,35.1606223 98.04,38.1812709 98.04,42.3419459 C98.04,63.563372 93.6734921,80.4044684 83.4917471,94.6946368 C76.7039171,104.221416 67.8733348,109.98987 57,112 L57,16 Z" id="Combined-Shape" fill="#DEEBF9"></path>
                </g>
                <g id="lock" transform="translate(40.000000, 42.000000)">
                    <path d="M17,0 L17,0 C21.418278,-8.11624501e-16 25,3.581722 25,8 L25,23 L9,23 L9,8 C9,3.581722 12.581722,8.11624501e-16 17,0 Z" id="Rectangle-19" stroke="#182F79" stroke-width="4"></path>
                    <circle id="Oval-17" fill="#3CD1B8" cx="17" cy="28" r="17"></circle>
                    <path d="M13,27 L25,27 L25,31 L13,31 L9,31 L9,21 L13,21 L13,27 Z" id="Combined-Shape" fill="#FFFFFF" transform="translate(17.000000, 26.000000) rotate(-45.000000) translate(-17.000000, -26.000000) "></path>
                </g>
            </g>
        </g>
    </g>
</svg>