<?xml version="1.0" encoding="UTF-8"?>
<svg width="20px" height="20px" viewBox="0 0 20 20" version="1.1" xmlns="http://www.w3.org/2000/svg" xmlns:xlink="http://www.w3.org/1999/xlink">
    <!-- Generator: Sketch 52.6 (67491) - http://www.bohemiancoding.com/sketch -->
    <title>Group 148</title>
    <desc>Created with Sketch.</desc>
    <defs>
        <path d="M0.713574985,3.16890951e-16 L0.713574985,2.22044605e-16 C1.16911504,1.38363254e-16 1.60461211,0.187321148 1.91790735,0.518021676 L4.6382374,3.38948118 L1.60554372,3.38948118 L0.305471707,0.644884715 C0.198708394,0.419495498 0.294873689,0.150232671 0.520262906,0.0434693578 C0.580687581,0.0148471435 0.646714141,3.45349045e-16 0.713574985,3.33066907e-16 Z" id="path-1"></path>
        <path d="M0,0 L-6.63450389e-16,0 C0.668703228,-1.2283879e-16 1.29316294,0.334200697 1.66409275,0.890595415 L1.78393746,1.07036248 L8.74129357,1.07036248 C9.86430826,1.07036248 10.9217847,1.5991007 11.5955935,2.49751245 L11.5955935,2.49751245 C11.8911659,2.89160903 11.8112963,3.45069624 11.4171998,3.74626867 C11.2628034,3.86206595 11.075014,3.92466242 10.8820185,3.92466242 L4.49616521,3.92466242 C2.22695649,3.92466242 0.306600063,2.24840046 8.8817842e-16,-2.22044605e-16 Z" id="path-3"></path>
        <path d="M0.713574985,3.16890951e-16 L0.713574985,2.22044605e-16 C1.16911504,1.38363254e-16 1.60461211,0.187321148 1.91790735,0.518021676 L4.6382374,3.38948118 L1.60554372,3.38948118 L0.305471707,0.644884715 C0.198708394,0.419495498 0.294873689,0.150232671 0.520262906,0.0434693578 C0.580687581,0.0148471435 0.646714141,3.45349045e-16 0.713574985,3.33066907e-16 Z" id="path-5"></path>
    </defs>
    <g id="Page-1" stroke="none" stroke-width="1" fill="none" fill-rule="evenodd">
        <g id="Group-148">
            <circle id="Oval-Copy" fill="#D0EAFF" fill-rule="nonzero" cx="10" cy="10" r="10"></circle>
            <g id="Travel-Copy" transform="translate(9.976190, 10.746269) rotate(-15.000000) translate(-9.976190, -10.746269) translate(4.000000, 7.000000)">
                <g id="Group-134-Copy" transform="translate(4.638237, 1.694741) scale(1, -1) translate(-4.638237, -1.694741) translate(2.319119, 0.000000)">
                    <mask id="mask-2" fill="white">
                        <use xlink:href="#path-1"></use>
                    </mask>
                    <use id="Rectangle-155-Copy" fill="#182F79" transform="translate(2.370850, 1.694741) scale(1, -1) translate(-2.370850, -1.694741) " xlink:href="#path-1"></use>
                    <polygon id="Path-6" fill="#1F7BD7" mask="url(#mask-2)" points="1.13868661 2.49032503 1.99429866 0.70638757 0.881555081 0.70638757 0.0994036747 2.49032503"></polygon>
                </g>
                <g id="Group-132" transform="translate(0.000000, 1.248756)">
                    <mask id="mask-4" fill="white">
                        <use xlink:href="#path-3"></use>
                    </mask>
                    <use id="Rectangle-154" fill="#1F7BD7" xlink:href="#path-3"></use>
                    <polygon id="Path-5" fill="#182F79" mask="url(#mask-4)" points="0.718329796 -0.178657589 0.965507339 1.63508354 -0.149101483 1.63508354 -0.149101483 -0.178657589"></polygon>
                    <path d="M8.93171171,1.26784343 C9.91454155,1.36990204 10.8177172,1.87659611 11.4171998,2.67590619 L10.525231,2.67590619 C9.70537397,2.67590619 9.02904373,2.06139481 8.93171171,1.26784343 Z" id="Combined-Shape" fill="#FFFFFF" mask="url(#mask-4)"></path>
                    <rect id="Rectangle-155" fill="#FFFFFF" mask="url(#mask-4)" x="7.67093109" y="1.78393746" width="1" height="1" rx="0.5"></rect>
                    <rect id="Rectangle-155-Copy-3" fill="#FFFFFF" mask="url(#mask-4)" x="6.42217487" y="1.78393746" width="1" height="1" rx="0.5"></rect>
                    <rect id="Rectangle-155-Copy-4" fill="#FFFFFF" mask="url(#mask-4)" x="5.17341864" y="1.78393746" width="1" height="1" rx="0.5"></rect>
                    <rect id="Rectangle-155-Copy-5" fill="#FFFFFF" mask="url(#mask-4)" x="3.92466242" y="1.78393746" width="1" height="1" rx="0.5"></rect>
                    <rect id="Rectangle-155-Copy-6" fill="#FFFFFF" mask="url(#mask-4)" x="2.67590619" y="1.78393746" width="1" height="1" rx="0.5"></rect>
                </g>
                <g id="Group-134" transform="translate(2.319119, 4.103056)">
                    <mask id="mask-6" fill="white">
                        <use xlink:href="#path-5"></use>
                    </mask>
                    <use id="Rectangle-155-Copy" fill="#182F79" transform="translate(2.370850, 1.694741) scale(1, -1) translate(-2.370850, -1.694741) " xlink:href="#path-5"></use>
                    <polygon id="Path-6" fill="#1F7BD7" mask="url(#mask-6)" points="1.13868661 2.49032503 1.99429866 0.70638757 0.881555081 0.70638757 0.0994036747 2.49032503"></polygon>
                </g>
            </g>
        </g>
    </g>
</svg>