<?xml version="1.0" encoding="UTF-8"?>
<svg width="20px" height="20px" viewBox="0 0 20 20" version="1.1" xmlns="http://www.w3.org/2000/svg" xmlns:xlink="http://www.w3.org/1999/xlink">
    <!-- Generator: Sketch 52.6 (67491) - http://www.bohemiancoding.com/sketch -->
    <title>Group 141</title>
    <desc>Created with Sketch.</desc>
    <g id="Page-1" stroke="none" stroke-width="1" fill="none" fill-rule="evenodd">
        <g id="Group-141">
            <circle id="Oval-Copy-8" fill="#D0EAFF" fill-rule="nonzero" cx="10" cy="10" r="10"></circle>
            <g id="Medical-Copy" transform="translate(5.000000, 5.000000)">
                <path d="M1.15384615,9.03846154 L2.30769231,9.03846154 L2.30769231,9.42307692 C2.30769231,9.74170274 2.04939505,10 1.73076923,10 L1.73076923,10 C1.41214341,10 1.15384615,9.74170274 1.15384615,9.42307692 L1.15384615,9.03846154 Z" id="Rectangle-153" fill="#182F79"></path>
                <path d="M8.07692308,9.03846154 L9.23076923,9.03846154 L9.23076923,9.42307692 C9.23076923,9.74170274 8.97247197,10 8.65384615,10 L8.65384615,10 C8.33522034,10 8.07692308,9.74170274 8.07692308,9.42307692 L8.07692308,9.03846154 Z" id="Rectangle-153-Copy" fill="#182F79"></path>
                <path d="M4.80769231,0 L5.57692308,-6.66133815e-16 C6.63900913,-8.61235858e-16 7.5,0.860990866 7.5,1.92307692 L2.88461538,1.92307692 L2.88461538,1.92307692 C2.88461538,0.860990866 3.74560625,1.95102044e-16 4.80769231,0 Z" id="Rectangle-152" stroke="#182F79"></path>
                <path d="M3.84615385,1.53846154 L6.53846154,1.53846154 C8.66263365,1.53846154 10.3846154,3.26044327 10.3846154,5.38461538 L10.3846154,7.23076923 C10.3846154,8.33533873 9.48918488,9.23076923 8.38461538,9.23076923 L2,9.23076923 C0.8954305,9.23076923 1.3527075e-16,8.33533873 0,7.23076923 L0,5.38461538 C-2.60136058e-16,3.26044327 1.72198173,1.53846154 3.84615385,1.53846154 Z" id="Rectangle-151" fill="#182F79"></path>
                <path d="M2.11538462,1.53846154 L8.26923077,1.53846154 C9.43752543,1.53846154 10.3846154,2.48555149 10.3846154,3.65384615 L10.3846154,3.76923077 C10.3846154,4.87380027 9.48918488,5.76923077 8.38461538,5.76923077 L2,5.76923077 C0.8954305,5.76923077 1.3527075e-16,4.87380027 0,3.76923077 L0,3.65384615 C-1.43074832e-16,2.48555149 0.947089952,1.53846154 2.11538462,1.53846154 Z" id="Rectangle-151-Copy" fill="#1F7BD7"></path>
                <circle id="Oval-14" fill="#FFFFFF" cx="5.19230769" cy="5.76923077" r="1.92307692"></circle>
                <path d="M5.47560354,5.48593493 L6.15384615,5.48593493 L6.15384615,6.05252661 L5.47560354,6.05252661 L5.47560354,6.73076923 L4.90901185,6.73076923 L4.90901185,6.05252661 L4.23076923,6.05252661 L4.23076923,5.48593493 L4.90901185,5.48593493 L4.90901185,4.80769231 L5.47560354,4.80769231 L5.47560354,5.48593493 Z" id="Combined-Shape" fill="#1F7BD7"></path>
            </g>
        </g>
    </g>
</svg>