<?xml version="1.0" encoding="UTF-8"?>
<svg width="416px" height="176px" viewBox="0 0 416 176" version="1.1" xmlns="http://www.w3.org/2000/svg" xmlns:xlink="http://www.w3.org/1999/xlink">
    <!-- Generator: Sketch 52.4 (67378) - http://www.bohemiancoding.com/sketch -->
    <title>Group 42</title>
    <desc>Created with Sketch.</desc>
    <defs>
        <linearGradient x1="50%" y1="0%" x2="50%" y2="100%" id="linearGradient-1">
            <stop stop-color="#FFFFFF" offset="0%"></stop>
            <stop stop-color="#EAF0FD" offset="100%"></stop>
        </linearGradient>
        <path d="M46.4510446,45.8614693 C52.6378961,45.8614693 56.6116718,45.8614693 58.3723718,45.8614693 C62.5773621,39.4107964 68.6506828,30.3153633 76.0400734,21.8246938 C84.0455184,12.6261563 90.3608785,5.80739558 94.9861539,1.36841167 C76.1011674,-0.794989249 55.9715156,2.83264122 34.5971987,12.2513031 C25.6593705,7.76469064 14.304407,5.17758136 0.532308247,4.48997524 C4.53458242,10.2561238 7.9650781,16.0343634 10.8237953,21.8246938 C13.6825125,27.6150243 16.1234792,32.8269175 18.1466954,37.4603734 L46.4510446,45.8614693 Z" id="path-2"></path>
        <linearGradient x1="50%" y1="166.803254%" x2="50%" y2="20.389144%" id="linearGradient-4">
            <stop stop-color="#70B8F9" offset="0%"></stop>
            <stop stop-color="#3D82F0" offset="100%"></stop>
        </linearGradient>
        <path d="M40.6735161,29.4509233 C38.3871862,22.9654795 36.3617471,17.2322727 34.5971987,12.2513031 C30.3692255,17.7192556 26.4365176,23.435795 22.7990752,29.4009211 C25.0650403,29.4009211 35.9873911,29.4509233 40.6735161,29.4509233 Z" id="path-5"></path>
        <path d="M0.411083061,1.87549381 C14.5885653,-0.698052395 29.8843795,0.110075386 46.2985258,4.29987715 C49.7292716,9.72971692 51.8621448,26.1744357 52.6971452,53.6340335 L15.9995759,43.55853 L0.411083061,1.87549381 Z" id="path-7"></path>
        <path d="M0.145860858,0.252248977 C14.5877123,1.2834019 29.245135,5.08333094 44.1181291,11.6520361 C58.9911231,18.2207413 62.6050531,39.4899019 54.9599189,75.4595179 L10.3953904,70.7771128 L0.145860858,0.252248977 Z" id="path-9"></path>
        <path d="M129.547988,102.577489 L155.351114,45.0628825 C130.003444,39.8856784 105.796278,44.6297801 82.7296145,59.2951875 C65.531722,25.6994779 38.1896857,6.08482727 0.703505327,0.451235659 C6.4456054,14.9783297 11.3715635,33.2275434 15.4813797,55.1988767 C19.5911958,77.17021 22.2761981,92.9630808 23.5363865,102.577489 L129.547988,102.577489 Z" id="path-11"></path>
    </defs>
    <g id="About-Us" stroke="none" stroke-width="1" fill="none" fill-rule="evenodd">
        <g transform="translate(-789.000000, -762.000000)" id="Group-42">
            <g transform="translate(789.000000, 762.000000)">
                <path d="M0,71 L416,71 L416,158.072696 C325.471466,170.024232 256.138133,176 208,176 C159.861867,176 90.5285337,170.024232 0,158.072696 L0,71 Z" id="Rectangle" fill="url(#linearGradient-1)"></path>
                <g id="Group-103">
                    <polygon id="Path-67" fill="#1D2F76" points="76.7698114 80.7110311 50.8864525 88.0903761 57.5435578 95.7671139 78.0211786 97.4886216 80.1745555 81.976794"></polygon>
                    <polygon id="Path-40" fill="#223762" points="342.386841 74.6082013 342.386841 88.71671 361.691874 98.7962814 356.048951 110.260548 310.817881 110.260548 325.937377 83.287247"></polygon>
                    <polygon id="Path-69" fill="#223762" points="286.357257 96.1572819 261.551926 93.9030103 259.09446 106.912312 285.714301 106.106409"></polygon>
                    <g id="Group-97" transform="translate(265.416667, 63.194444)">
                        <mask id="mask-3" fill="white">
                            <use xlink:href="#path-2"></use>
                        </mask>
                        <use id="Path-39" fill="#223762" xlink:href="#path-2"></use>
                        <path d="M46.4510446,45.8614693 C53.7634308,36.0608041 62.4100253,26.891671 72.3908279,18.3540702 C82.3716305,9.81646946 89.9034058,4.15458326 94.9861539,1.36841167 C76.1011674,-0.794989249 55.9715156,2.83264122 34.5971987,12.2513031 C25.6593705,7.76469064 14.304407,5.17758136 0.532308247,4.48997524 C4.53458242,10.2561238 7.9650781,16.0343634 10.8237953,21.8246938 C13.6825125,27.6150243 16.1234792,32.8269175 18.1466954,37.4603734 L46.4510446,45.8614693 Z" id="Path-39-Copy" fill="url(#linearGradient-4)" mask="url(#mask-3)"></path>
                        <path d="M46.4510446,45.8614693 C41.6787436,32.2908026 37.7274617,21.0874139 34.5971987,12.2513031 C34.8987443,11.3154113 35.6445888,10.2125914 36.8347325,8.94284352 L46.4510446,45.8614693 Z" id="Path-39-Copy-3" fill="#182F79" mask="url(#mask-3)"></path>
                        <path d="M46.4510446,45.8614693 C41.6787436,32.2908026 37.7274617,21.0874139 34.5971987,12.2513031 C28.4995498,20.1372695 23.0160487,28.540293 18.1466954,37.4603734 L46.4510446,45.8614693 Z" id="Path-39-Copy-2" fill="#223762" mask="url(#mask-3)"></path>
                        <mask id="mask-6" fill="white">
                            <use xlink:href="#path-5"></use>
                        </mask>
                        <use id="Path-39-Copy-4" fill="#126CC6" xlink:href="#path-5"></use>
                    </g>
                    <g id="Group-99" transform="translate(62.291667, 45.138889)">
                        <mask id="mask-8" fill="white">
                            <use xlink:href="#path-7"></use>
                        </mask>
                        <use id="Path-51" fill="url(#linearGradient-4)" xlink:href="#path-7"></use>
                        <path d="M17.0368226,45.2655905 C29.6695892,24.9619114 39.6011476,11.4555496 46.8314976,4.74650504 C57.6770227,-5.3170618 53.4846308,55.340692 52.1494864,55.340692 C51.2593901,55.340692 39.5551689,51.9823248 17.0368226,45.2655905 Z" id="Path-52" fill="#182F79" mask="url(#mask-8)"></path>
                        <path d="M46.2711022,55.2186162 C41.0131901,36.7899707 41.7161675,21.0396243 48.3800344,7.96757696 C38.1339946,17.2107365 27.7453728,29.2824669 17.214169,44.1827682 L46.2711022,55.2186162 Z" id="Path-66" fill="url(#linearGradient-4)" mask="url(#mask-8)"></path>
                        <polygon id="Path-53" fill="#1D2F76" mask="url(#mask-8)" points="17.4813902 44.7018308 23.7274437 34.8910667 43.5202559 38.8849651 47.5668363 53.4033388"></polygon>
                    </g>
                    <g id="Group-101" transform="translate(103.819444, 27.083333)">
                        <mask id="mask-10" fill="white">
                            <use xlink:href="#path-9"></use>
                        </mask>
                        <use id="Path-48" fill="url(#linearGradient-4)" xlink:href="#path-9"></use>
                        <path d="M43.1765669,9.1381347 C32.785013,25.1551126 22.232827,45.5975328 11.520009,70.4653954 C22.6022613,49.6356712 34.603632,29.8524834 47.5241211,11.1158319 L43.1765669,9.1381347 Z" id="Path-49" fill="#182F79" mask="url(#mask-10)"></path>
                        <polygon id="Path-50" fill="#1D2F76" mask="url(#mask-10)" points="17.5424193 59.4639949 46.5787314 62.8850004 51.43882 75.4026011 10.8092287 71.1550338"></polygon>
                        <path d="M46.5787314,62.8850004 C43.5121656,52.622812 41.9788827,43.017952 41.9788827,34.0704202 C41.9788827,25.1228884 43.5121656,17.6140256 46.5787314,11.5438319 L51.43882,13.4276209 C47.1209496,23.2388924 45.5009201,33.153059 46.5787314,43.1701209 C47.6565427,53.1871827 49.2765723,63.9313428 51.43882,75.4026011 L46.5787314,62.8850004 Z" id="Path-50-Copy" fill="#182F79" mask="url(#mask-10)"></path>
                    </g>
                    <g id="Group-98" transform="translate(134.513889, 0.000000)">
                        <mask id="mask-12" fill="white">
                            <use xlink:href="#path-11"></use>
                        </mask>
                        <use id="Path-41" fill="url(#linearGradient-4)" xlink:href="#path-11"></use>
                        <path d="M124.777166,104.710173 C128.11855,95.3475321 133.177414,84.1317262 139.953757,71.0627552 C146.730101,57.9937842 152.318929,48.6655146 156.720241,43.0779464 L139.953757,104.710173 L124.777166,104.710173 Z" id="Path-42" fill="#000000" mask="url(#mask-12)"></path>
                        <path d="M25.1375625,104.247828 C38.9973962,92.2958881 48.8781475,83.7338716 54.7798164,78.5617781 C60.6814853,73.3896846 70.1370007,64.7997529 83.1463628,52.7919829 L82.5300537,59.7195545 L25.1375625,104.247828 Z" id="Path-43" fill="#182F79" mask="url(#mask-12)"></path>
                        <polygon id="Path-68" fill="url(#linearGradient-4)" mask="url(#mask-12)" points="125.235101 101.628031 102.867603 77.8395276 57.9386125 76.6779891 27.6585877 101.628031"></polygon>
                        <polygon id="Path-44" fill="url(#linearGradient-4)" mask="url(#mask-12)" points="48.2350592 86.1028667 75.5142531 93.2873723 82.8128695 58.7936907"></polygon>
                        <polygon id="Path-45" fill="url(#linearGradient-4)" mask="url(#mask-12)" points="78.9751666 93.2287506 112.087884 88.6611861 82.5416885 59.2250743"></polygon>
                        <polygon id="Path-46" fill="#182F79" mask="url(#mask-12)" points="86.438013 55.9990948 126.847109 103.461581 82.6029951 59.3633498"></polygon>
                        <polygon id="Path-47" fill="#182F79" mask="url(#mask-12)" points="78.340621 101.387449 82.8741761 58.4934227 73.3900022 102.408182"></polygon>
                    </g>
                    <g id="Group-102" transform="translate(0.000000, 87.569444)">
                        <rect id="Rectangle-94" fill="#223762" x="0" y="33.4027778" width="415.277778" height="9.02777778"></rect>
                        <polygon id="Rectangle-95" fill="url(#linearGradient-4)" points="55.0694444 5.41666667 69.3813636 5.41666667 78.5439692 0 88.6146874 0 114.368669 8.125 130.765222 8.125 145.89497 12.6388889 287.18855 12.6388889 315.069444 21.6666667 315.069444 33.4027778 55.0694444 33.4027778"></polygon>
                        <polygon id="Rectangle-98" fill="url(#linearGradient-4)" points="314.166667 21.6666667 369.357989 21.6666667 399.930556 29.7916667 399.930556 33.4027778 314.166667 33.4027778"></polygon>
                        <polygon id="Rectangle-96" fill="#004A95" points="43.3333333 20.7638889 65.4227644 20.7638889 92.0833333 33.4027778 43.3333333 33.4027778"></polygon>
                        <polygon id="Rectangle-96-Copy" fill="url(#linearGradient-4)" points="49.6527778 11.7361111 65.4227644 20.7638889 92.0833333 33.4027778 49.6527778 33.4027778"></polygon>
                        <rect id="Rectangle-97" fill="#4979DF" x="100.208333" y="18.0555556" width="13.5416667" height="1.80555556"></rect>
                        <polygon id="Rectangle-97-Copy" fill="#4979DF" points="117.361111 18.0555556 145.347222 18.0555556 145.347222 19.8611111 117.361111 19.8611111"></polygon>
                        <rect id="Rectangle-97-Copy-2" fill="#4979DF" x="148.958333" y="18.0555556" width="56.875" height="1.80555556"></rect>
                        <polygon id="Rectangle-97-Copy-3" fill="#4979DF" points="246.458333 18.0555556 293.402778 18.0555556 293.402778 19.8611111 246.458333 19.8611111"></polygon>
                    </g>
                </g>
            </g>
        </g>
    </g>
</svg>