<?xml version="1.0" encoding="UTF-8"?>
<svg width="425px" height="278px" viewBox="0 0 425 278" version="1.1" xmlns="http://www.w3.org/2000/svg" xmlns:xlink="http://www.w3.org/1999/xlink">
    <!-- Generator: Sketch 52.6 (67491) - http://www.bohemiancoding.com/sketch -->
    <title>Group 79 Copy</title>
    <desc>Created with Sketch.</desc>
    <defs>
        <linearGradient x1="-133.206517%" y1="0%" x2="143.178214%" y2="76.8724474%" id="linearGradient-1">
            <stop stop-color="#5648D6" offset="0%"></stop>
            <stop stop-color="#9FDDFF" offset="100%"></stop>
        </linearGradient>
        <linearGradient x1="80.2864528%" y1="50%" x2="18.7159957%" y2="50%" id="linearGradient-2">
            <stop stop-color="#98D5FD" stop-opacity="0" offset="0%"></stop>
            <stop stop-color="#5FABFA" offset="100%"></stop>
        </linearGradient>
        <linearGradient x1="80.2864528%" y1="50%" x2="-21.9511105%" y2="90.1778784%" id="linearGradient-3">
            <stop stop-color="#98D5FD" stop-opacity="0" offset="0%"></stop>
            <stop stop-color="#5FABFA" offset="100%"></stop>
        </linearGradient>
        <linearGradient x1="-44.2186053%" y1="-17.7305065%" x2="170.439767%" y2="25.7798647%" id="linearGradient-4">
            <stop stop-color="#5648D6" offset="0%"></stop>
            <stop stop-color="#6C9CEB" offset="83.7153864%"></stop>
            <stop stop-color="#78CAF7" offset="100%"></stop>
        </linearGradient>
        <linearGradient x1="85.3553391%" y1="14.6446609%" x2="14.6446609%" y2="85.3553391%" id="linearGradient-5">
            <stop stop-color="#F4FAFF" offset="0%"></stop>
            <stop stop-color="#CBE7FF" offset="100%"></stop>
        </linearGradient>
        <linearGradient x1="123.807548%" y1="-7.4114234%" x2="-39.9791496%" y2="129.199504%" id="linearGradient-6">
            <stop stop-color="#5648D6" offset="0%"></stop>
            <stop stop-color="#9FDDFF" offset="100%"></stop>
        </linearGradient>
        <linearGradient x1="156.086512%" y1="-67.5801671%" x2="20.6716646%" y2="79.7525458%" id="linearGradient-7">
            <stop stop-color="#5648D6" offset="0%"></stop>
            <stop stop-color="#9FDDFF" offset="100%"></stop>
        </linearGradient>
        <path d="M7.6156962,23.5151886 C3.21700859,24.7165391 0,22.5193228 0,17.7916608 C0,12.0644833 4.7210723,4.79255403 10.5448101,1.54935209 C16.3685479,-1.69384986 21.0896203,0.319810148 21.0896203,6.04698759 C21.0896203,10.5621385 18.1553243,16.0374016 14.0597468,19.7417796 L14.0597468,35.5217045 C14.0597468,35.6840204 13.9901202,35.8775801 13.8679911,36.0547785 L8.59558604,39.2387119 C8.35618509,39.5860614 7.98568245,39.7750415 7.76804523,39.6608107 C7.67001473,39.6093576 7.6156962,39.5014361 7.6156962,39.3581196 L7.6156962,23.5151886 Z" id="path-8"></path>
        <linearGradient x1="100%" y1="50%" x2="-212.357272%" y2="-35.0332755%" id="linearGradient-10">
            <stop stop-color="#5648D6" offset="0%"></stop>
            <stop stop-color="#6C9CEB" offset="83.7153864%"></stop>
            <stop stop-color="#78CAF7" offset="100%"></stop>
        </linearGradient>
        <linearGradient x1="100%" y1="52.6192803%" x2="100%" y2="116.030366%" id="linearGradient-11">
            <stop stop-color="#82A3EF" offset="0%"></stop>
            <stop stop-color="#97CBFA" offset="100%"></stop>
        </linearGradient>
        <linearGradient x1="156.075287%" y1="59.9438287%" x2="-12.9844501%" y2="72.8852548%" id="linearGradient-12">
            <stop stop-color="#5648D6" offset="0%"></stop>
            <stop stop-color="#615FDC" stop-opacity="0.791987086" offset="0%"></stop>
            <stop stop-color="#7383E6" stop-opacity="0.460443539" offset="69.414676%"></stop>
            <stop stop-color="#8CB6F4" stop-opacity="0" offset="100%"></stop>
        </linearGradient>
        <linearGradient x1="100%" y1="154.499426%" x2="-44.2186053%" y2="-17.7305065%" id="linearGradient-13">
            <stop stop-color="#5648D6" offset="0%"></stop>
            <stop stop-color="#5D63DD" offset="100%"></stop>
        </linearGradient>
        <linearGradient x1="-312.208767%" y1="100%" x2="181.936463%" y2="32.8100028%" id="linearGradient-14">
            <stop stop-color="#5648D6" offset="0%"></stop>
            <stop stop-color="#9FDDFF" offset="100%"></stop>
        </linearGradient>
        <linearGradient x1="-26.8546989%" y1="-56.8853965%" x2="85.3553414%" y2="75.4205502%" id="linearGradient-15">
            <stop stop-color="#F4FAFF" offset="0%"></stop>
            <stop stop-color="#CBE7FF" offset="100%"></stop>
        </linearGradient>
    </defs>
    <g id="Industries" stroke="none" stroke-width="1" fill="none" fill-rule="evenodd">
        <g transform="translate(-695.000000, -6267.000000)" id="Group-79-Copy">
            <g transform="translate(695.000000, 6266.000000)">
                <g id="Group-64" opacity="0.800000012" transform="translate(21.000000, 49.000000)" fill="url(#linearGradient-1)">
                    <path d="M337.901552,33.616285 C415.351856,78.5251825 415.369051,151.474947 337.935714,196.384974 C260.657954,241.20477 135.392665,241.20524 58.0952555,196.384997 C-19.3521149,151.4778 -19.3666641,78.5230989 58.061093,33.6163077 C135.342712,-11.2057261 260.602107,-11.2051381 337.901552,33.616285 Z M58.5233563,195.650919 C135.556099,240.317698 260.494454,240.317228 337.507535,195.650942 C414.376185,151.068424 414.359181,78.9318965 337.473451,34.3503623 C260.438672,-10.3175969 135.50621,-10.3181834 58.489272,34.3503396 C-18.3738124,78.9296303 -18.3594255,151.071095 58.5233563,195.650919 Z" id="Shape" opacity="0.400000006"></path>
                    <path d="M108.241038,63.6315296 C157.810645,34.7893034 238.153961,34.7896818 287.735002,63.631515 C337.412498,92.5294568 337.423527,139.470626 287.756915,168.369295 C238.189782,197.210081 157.842686,197.210384 108.26295,168.36931 C58.5873359,139.472462 58.578004,92.5281159 108.241038,63.6315296 Z M108.515963,64.1028756 C59.2146401,92.7889992 59.2238683,139.211467 108.537825,167.897935 C157.947659,196.640175 238.084766,196.639873 287.48199,167.897949 C336.786882,139.209749 336.775975,92.7904573 287.460127,64.1028902 C238.048986,35.3598896 157.91566,35.3595123 108.515963,64.1028756 Z" id="Shape" opacity="0.400000006"></path>
                    <path d="M132.834933,78.4898606 C168.546944,57.8365796 226.42756,57.8368505 262.147806,78.4898493 C297.944125,99.1868327 297.952074,132.813223 262.163592,153.51073 C226.453364,174.16298 168.570025,174.163197 132.850719,153.510741 C97.055755,132.814541 97.0490293,99.1858765 132.834933,78.4898606 Z M133.048818,78.8581849 C97.5465464,99.390168 97.5531903,132.610162 133.064565,153.142394 C168.651598,173.718371 226.371759,173.718155 261.949707,153.142406 C297.454549,132.608936 297.446697,99.3912159 261.93396,78.8581962 C226.345986,58.2816753 168.628548,58.2814052 133.048818,78.8581849 Z" id="Shape" opacity="0.400000006"></path>
                </g>
                <g id="Group-51" transform="translate(81.547620, 1.000000)">
                    <path d="M150.72742,129.23633 C136.644764,117.59073 131.440808,104.529068 135.11555,90.0513433 C140.627664,68.3347559 159.135866,49.6869053 191.117173,31.1954769 L214.246543,17.8221929 C226.432004,22.408474 239.581963,26.4370869 253.696421,29.9080316 C267.810878,33.3789763 284.870394,36.7793003 304.874967,40.1090036 C310.633757,51.6755457 316.514687,61.5392705 322.517758,69.7001781 C328.520828,77.8610857 335.488397,85.4643251 343.420465,92.5098963 L320.291095,105.88318 C288.309788,124.374609 256.057946,135.075957 218.498661,138.263033 C193.459138,140.38775 170.868724,137.378849 150.72742,129.23633 Z" id="Combined-Shape" fill="#5FABFA" fill-rule="nonzero" opacity="0.319999993"></path>
                    <path d="M0.952380444,249 L109.930295,233.573902 C110.275705,233.525009 110.609939,233.416245 110.917975,233.2525 L197.424542,187.26743 C199.862866,185.971268 200.788771,182.943869 199.49261,180.505545 C199.047506,179.668222 198.37347,178.974737 197.549144,178.506003 L129.641988,139.89213 C129.190017,139.635127 128.679012,139.5 128.159081,139.5 L60.922975,139.5 L0.952380444,249 Z" id="Path-17" fill="url(#linearGradient-2)" opacity="0.319999993"></path>
                    <polygon id="Path-19" fill="url(#linearGradient-3)" opacity="0.319999993" points="232.95238 276 324.45238 261.5 238.95238 180.5"></polygon>
                    <g id="Group-39" transform="translate(133.000000, 0.000000)">
                        <g id="Group-40">
                            <path d="M17.0956757,123.769781 C3.01302017,112.124182 -2.19093639,99.0625201 1.48380598,84.5847951 C6.99591953,62.8682077 25.5041221,44.2203572 57.4854285,25.7289288 L80.6147988,12.3556447 C92.8002594,16.9419258 105.950219,20.9705387 120.064676,24.4414835 C134.179134,27.9124282 151.23865,31.3127522 171.243222,34.6424554 C175.082416,42.3534835 187.930915,55.8728792 209.788721,75.2006426 C209.788721,80.0877314 209.788721,84.0352999 209.788721,87.0433481 L186.65935,100.416632 C154.678044,118.908061 122.426202,129.609409 84.8669169,132.796485 C59.8273933,134.921202 37.2369796,131.912301 17.0956757,123.769781 Z" id="Combined-Shape" fill="url(#linearGradient-4)"></path>
                            <path d="M17.0956757,111.52815 C3.01302017,99.8825507 -2.19093639,86.8208886 1.48380598,72.3431637 C6.99591953,50.6265763 25.5041221,31.9787257 57.4854285,13.4872973 L80.6147988,0.114013273 C92.8002594,4.70029437 105.950219,8.72890728 120.064676,12.199852 C134.179134,15.6707967 151.23865,19.0711207 171.243222,22.400824 C177.002013,33.9673661 182.882943,43.8310909 188.886014,51.9919985 C194.889084,60.1529061 201.856653,67.7561455 209.788721,74.8017167 L186.65935,88.1750007 C154.678044,106.666429 122.426202,117.367778 84.8669169,120.554854 C59.8273933,122.679571 37.2369796,119.67067 17.0956757,111.52815 Z" id="Combined-Shape" fill="url(#linearGradient-1)"></path>
                            <path d="M22.6888432,107.433212 C10.6577176,97.3322087 6.48390301,85.8929929 10.1673994,73.1155644 C15.6926441,53.9494217 32.5592335,37.3485908 61.2774043,20.7455081 L83.8511756,7.69473977 C94.4320244,11.6037894 105.878961,15.01212 118.191987,17.9197316 C130.505012,20.8273431 145.411905,23.6422353 162.912667,26.3644083 C167.62118,36.4822737 172.490068,45.1005239 177.519332,52.219159 C182.548596,59.3377941 188.443948,65.9557102 195.205388,72.0729071 L172.631617,85.1236754 C143.913446,101.726758 115.19917,111.477984 82.0477026,114.672341 C59.9467241,116.801913 40.1604377,114.38887 22.6888432,107.433212 Z" id="Combined-Shape-Copy-6" fill="url(#linearGradient-5)" fill-rule="nonzero"></path>
                            <polygon id="Path-8" fill="url(#linearGradient-4)" points="120.630372 63.4436896 120.630372 73.9365165 60.3455356 73.9365165 66.7418435 48.2699372 76.8766733 50.8175986 73.7301549 63.4436896"></polygon>
                        </g>
                    </g>
                </g>
                <g id="Group-43" transform="translate(233.300136, 111.000000)">
                    <g id="Group-42" transform="translate(0.000000, 33.786408)">
                        <path d="M7.32957924,40.4454687 L77.5017521,0.967793284 C78.9199259,0.169952775 80.6513252,0.168619568 82.070726,0.964275096 L101.195957,11.6850641 L94.1511539,78.6903402 C94.1511539,81.7730368 91.6418899,85.6872078 88.5465559,87.4328858 L23.0365363,133.192956 L4.25945078,123.551455 C2.7033965,122.752465 1.72498124,121.150217 1.72498124,119.40102 L1.72498124,49.1880143 C1.72498124,46.1053177 4.23424524,42.1911467 7.32957924,40.4454687 Z" id="Rectangle-12" fill="url(#linearGradient-6)" transform="translate(51.460469, 66.781931) scale(-1, 1) translate(-51.460469, -66.781931) "></path>
                        <path d="M5.604598,51.8232864 L75.662073,12.312916 C78.7574071,10.567238 81.2666711,11.6511058 81.2666711,14.7338024 L81.2666711,84.5052522 C81.2666711,87.5879489 78.7574071,91.5021199 75.662073,93.2477979 L5.604598,132.758168 C2.509264,134.503846 0,133.419978 0,130.337282 L5.30974186e-14,60.565832 C0,57.4831354 2.509264,53.5689644 5.604598,51.8232864 Z" id="Rectangle-12" fill="url(#linearGradient-7)" transform="translate(40.633336, 72.535542) scale(-1, 1) translate(-40.633336, -72.535542) "></path>
                        <g id="Combined-Shape" transform="translate(27.578734, 52.594782)">
                            <mask id="mask-9" fill="white">
                                <use xlink:href="#path-8"></use>
                            </mask>
                            <use id="Mask" fill="url(#linearGradient-4)" transform="translate(10.544810, 19.847063) scale(-1, 1) translate(-10.544810, -19.847063) " xlink:href="#path-8"></use>
                            <path d="M7.6156962,23.5151886 C3.21700859,24.7165391 0,22.5193228 0,17.7916608 C0,12.0644833 4.7210723,4.79255403 10.5448101,1.54935209 C16.3685479,-1.69384986 21.0896203,0.319810148 21.0896203,6.04698759 C21.0896203,10.5621385 18.1553243,16.0374016 14.0597468,19.7417796 L14.0597468,35.5217045 C14.0597468,35.6840204 13.9901202,35.8775801 13.8679911,36.0547785 L8.59558604,39.2387119 C8.35618509,39.5860614 7.98568245,39.7750415 7.76804523,39.6608107 C7.67001473,39.6093576 7.6156962,39.5014361 7.6156962,39.3581196 L7.6156962,23.5151886 Z" fill="url(#linearGradient-10)" mask="url(#mask-9)" transform="translate(10.544810, 19.847063) scale(-1, 1) translate(-10.544810, -19.847063) "></path>
                        </g>
                    </g>
                    <path d="M35.354862,78.8470495 L27.7890295,75.0809061 L27.7890295,46.7241962 C27.7890295,31.6835676 40.0624725,12.5861345 55.2025316,4.06888552 C70.3425908,-4.44836342 82.6160338,0.839880678 82.6160338,15.8805093 L78.0799998,54.7733174 L70.5661427,51.0160515 L70.5661427,22.6593416 C70.5661427,14.2299783 63.6876197,11.2662371 55.2025316,16.0396404 C46.7174435,20.8130436 39.8389206,31.5160006 39.8389206,39.9453639 L35.354862,78.8470495 Z" id="Rectangle-10" fill="url(#linearGradient-11)" transform="translate(55.202532, 39.423525) scale(-1, 1) translate(-55.202532, -39.423525) "></path>
                    <path d="M32.328372,72.0561192 L20.278481,78.8349515 L20.278481,50.4782415 C20.278481,35.4376129 32.551924,16.3401798 47.6919831,7.82293083 C62.8320423,-0.694318117 75.1054852,4.59392599 75.1054852,19.6345546 L75.1054852,47.9912646 L63.0555942,54.7700969 L63.0555942,26.4133869 C63.0555942,17.9840236 56.1770712,15.0202824 47.6919831,19.7936857 C39.206895,24.5670889 32.328372,35.2700459 32.328372,43.6994092 L32.328372,72.0561192 Z" id="Rectangle-10" fill="url(#linearGradient-5)" fill-rule="nonzero" transform="translate(47.691983, 41.294498) scale(-1, 1) translate(-47.691983, -41.294498) "></path>
                </g>
                <g id="Group-44" transform="translate(95.533874, 125.500000) scale(-1, 1) translate(-95.533874, -125.500000) translate(0.033874, 0.000000)">
                    <g id="Group-74" transform="translate(0.499967, 0.134106)">
                        <path d="M2.41408534e-13,184.481221 L4.36337126e-13,47.5446399 C4.36181867e-13,46.2768486 0.683376612,45.1074952 1.78794287,44.4852185 L77.2106063,1.99454416 C79.8913152,0.484319963 83.1670207,0.487759669 85.8445521,2.00361037 L187.850458,59.7529704 C188.951419,60.3762657 189.631979,61.543612 189.631979,62.8087653 L189.631979,199.605675 C189.631979,202.761301 187.93831,205.674137 185.195824,207.235144 L112.444488,248.644773 C109.75218,250.177219 106.4515,250.177219 103.759191,248.644773 L4.43615496,192.110689 C1.69366874,190.549682 2.19351852e-13,187.636846 2.41408534e-13,184.481221 Z" id="Rectangle-5" fill="url(#linearGradient-1)"></path>
                        <path d="M103.759191,11.8513845 L187.850458,59.7529704 C188.951419,60.3762657 189.631979,61.543612 189.631979,62.8087653 L189.631979,199.605675 C189.631979,202.761301 187.93831,205.674137 185.195824,207.235144 L112.444488,248.644773 C109.75218,250.177219 106.4515,250.177219 103.759191,248.644773 L103.759191,11.8513845 Z" id="Rectangle-5" fill="url(#linearGradient-12)"></path>
                        <g id="Group-75" transform="translate(8.236042, 70.749748)">
                            <path d="M89.6720569,51.012862 L89.6720569,155.765562 C89.6720569,156.393785 89.3433642,156.945238 88.8485727,157.257327 C88.6775557,157.365195 86.6642479,158.352776 85.1084261,159.070493 C84.4969554,159.352571 58.2853862,143.366816 6.47371826,111.11323 C4.829884,110.170888 3.81597413,108.420962 3.81597413,106.52618 L0.470488278,2.96608749 C0.470488278,2.08486924 4.14111077,0.59978813 4.63142165,0.286814484 C4.90493997,0.112223158 5.22985935,0.0110429199 5.57841064,0.0110429199 C5.88594568,0.0110429199 6.18812782,0.0915147409 6.45493243,0.244462756 L87.0143128,46.425812 C88.658147,47.3681539 89.6720569,49.1180798 89.6720569,51.012862 Z" id="Rectangle-23" fill="url(#linearGradient-13)" fill-rule="nonzero"></path>
                            <path d="M86.1471839,52.7752985 L86.1471839,157.527999 C86.1471839,158.501365 85.3581142,159.290435 84.3847474,159.290435 C84.0772123,159.290435 83.7750302,159.209963 83.5082256,159.057015 L2.94884525,112.875666 C1.30501099,111.933324 0.29110112,110.183398 0.29110112,108.288616 L0.29110112,3.53591593 C0.29110112,2.56254913 1.08017082,1.77347943 2.05353763,1.77347943 C2.36107267,1.77347943 2.6632548,1.85395125 2.93005942,2.00689926 L83.4894397,48.1882485 C85.133274,49.1305904 86.1471839,50.8805163 86.1471839,52.7752985 Z" id="Rectangle-23" fill="url(#linearGradient-14)" fill-rule="nonzero"></path>
                            <path d="M28.6331725,65.1182078 L28.6331725,72.1617485 C28.6331725,72.4150434 28.4278364,72.6203795 28.1745415,72.6203795 C28.094513,72.6203795 28.0158775,72.5994387 27.9464481,72.5596377 L6.98283854,60.5420704 C6.55507085,60.296849 6.29122559,59.8414735 6.29122559,59.3484028 L6.29122559,52.304862 C6.29122559,52.0515671 6.49656169,51.846231 6.74985661,51.846231 C6.82988509,51.846231 6.9085206,51.8671718 6.97794999,51.9069728 L27.9415596,63.9245401 C28.3693273,64.1697616 28.6331725,64.625137 28.6331725,65.1182078 Z" id="Rectangle-23" fill="#5D63DD" fill-rule="nonzero"></path>
                            <path d="M86.5969523,63.4477142 L90.5279166,63.4477142 C91.6324861,63.4477142 92.5279166,64.3431447 92.5279166,65.4477142 L92.5279166,86.1218253 C92.5279166,87.2263948 91.6324861,88.1218253 90.5279166,88.1218253 L86.5969523,88.1218253 C85.4923828,88.1218253 84.5969523,87.2263948 84.5969523,86.1218253 L84.5969523,65.4477142 C84.5969523,64.3431447 85.4923828,63.4477142 86.5969523,63.4477142 Z" id="Rectangle-7" fill="#5D63DD"></path>
                            <path d="M86.5969523,123.208642 L90.5279166,123.208642 C91.6324861,123.208642 92.5279166,124.104073 92.5279166,125.208642 L92.5279166,145.882753 C92.5279166,146.987323 91.6324861,147.882753 90.5279166,147.882753 L86.5969523,147.882753 C85.4923828,147.882753 84.5969523,146.987323 84.5969523,145.882753 L84.5969523,125.208642 C84.5969523,124.104073 85.4923828,123.208642 86.5969523,123.208642 Z" id="Rectangle-7" fill="#5D63DD"></path>
                        </g>
                        <path d="M9.37792535,44.5419022 L77.8623544,5.56097111 C80.4294121,4.09981707 83.576538,4.09981707 86.1435957,5.56097111 L179.963563,58.9627403 C181.570608,59.8774609 182.131848,61.9217562 181.217127,63.5288015 C180.919497,64.0517001 180.486461,64.4847354 179.963563,64.7823661 L111.479134,103.763297 C108.912076,105.224451 105.76495,105.224451 103.197892,103.763297 L9.37792535,50.3615281 C7.77088003,49.4468074 7.20964002,47.4025122 8.12436069,45.7954669 C8.42199147,45.2725683 8.85502674,44.839533 9.37792535,44.5419022 Z" id="Rectangle-5" fill="#7486E6"></path>
                    </g>
                </g>
                <g id="Group-78" transform="translate(152.000000, 133.000000)" fill-rule="nonzero">
                    <g id="Group-77" transform="translate(21.492892, 31.753565) scale(-1, 1) translate(-21.492892, -31.753565) translate(16.492892, 24.753565)">
                        <path d="M9.22001968,4.17128189 L9.22001968,12.5909484 C9.22001968,12.6414429 9.19360048,12.6857668 9.15383082,12.7108514 C9.14008505,12.7195215 6.9782622,13.9229458 6.85321052,13.9806334 C6.80406259,14.0033059 5.36393228,12.3850919 2.53281958,9.12599138 C2.40069376,9.05024913 2.31919913,8.90959603 2.31919913,8.75729987 L0.0503003262,1.43349112 C0.0503003262,1.36266179 2.34533251,0.119250104 2.38474203,0.0940943446 C2.4067265,0.0800612863 2.43284242,0.0719287622 2.46085779,0.0719287622 C2.48557641,0.0719287622 2.50986479,0.0783968141 2.53130964,0.0906902564 L9.00639923,3.80259038 C9.13852505,3.87833263 9.22001968,4.01898573 9.22001968,4.17128189 Z" id="Rectangle-23" fill="url(#linearGradient-6)"></path>
                        <path d="M6.96553941,5.31294056 L6.96553941,13.856653 C6.96553941,13.9348889 6.90211667,13.9983117 6.82388075,13.9983117 C6.79916213,13.9983117 6.77487375,13.9918436 6.7534289,13.9795502 L0.27833931,10.26765 C0.146213491,10.1919078 0.0647188572,10.0512547 0.0647188572,9.89895853 L0.0647188572,1.479292 C0.0647188572,1.40105608 0.128141602,1.33763333 0.206377522,1.33763333 C0.231096145,1.33763333 0.25538452,1.34410138 0.27682937,1.35639483 L6.75191896,4.94424904 C6.88404478,5.01999129 6.96553941,5.1606444 6.96553941,5.31294056 Z" id="Rectangle-23" fill="url(#linearGradient-15)"></path>
                    </g>
                    <g id="Group-77" transform="translate(13.606019, 36.283522) scale(-1, 1) translate(-13.606019, -36.283522) translate(8.606019, 29.283522)">
                        <path d="M9.22001968,4.17128189 L9.22001968,12.5909484 C9.22001968,12.6414429 9.19360048,12.6857668 9.15383082,12.7108514 C9.14008505,12.7195215 6.9782622,13.9229458 6.85321052,13.9806334 C6.80406259,14.0033059 5.36393228,12.3437433 2.53281958,9.00194547 C2.40069376,8.92620323 2.31919913,8.78555012 2.31919913,8.63325396 L0.0503003262,1.43349112 C0.0503003262,1.36266179 2.34533251,0.119250104 2.38474203,0.0940943446 C2.4067265,0.0800612863 2.43284242,0.0719287622 2.46085779,0.0719287622 C2.48557641,0.0719287622 2.50986479,0.0783968141 2.53130964,0.0906902564 L9.00639923,3.80259038 C9.13852505,3.87833263 9.22001968,4.01898573 9.22001968,4.17128189 Z" id="Rectangle-23" fill="url(#linearGradient-6)"></path>
                        <path d="M6.96553941,5.43698646 L6.96553941,13.856653 C6.96553941,13.9348889 6.90211667,13.9983117 6.82388075,13.9983117 C6.79916213,13.9983117 6.77487375,13.9918436 6.7534289,13.9795502 L0.27833931,10.26765 C0.146213491,10.1919078 0.0647188572,10.0512547 0.0647188572,9.89895853 L0.0647188572,1.479292 C0.0647188572,1.40105608 0.128141602,1.33763333 0.206377522,1.33763333 C0.231096145,1.33763333 0.25538452,1.34410138 0.27682937,1.35639483 L6.75191896,5.06829495 C6.88404478,5.1440372 6.96553941,5.2846903 6.96553941,5.43698646 Z" id="Rectangle-23" fill="url(#linearGradient-15)"></path>
                    </g>
                    <g id="Group-77" transform="translate(5.721733, 40.783409) scale(-1, 1) translate(-5.721733, -40.783409) translate(0.721733, 33.783409)">
                        <path d="M9.22001968,4.17128189 L9.22001968,12.5909484 C9.22001968,12.6414429 9.19360048,12.6857668 9.15383082,12.7108514 C9.14008505,12.7195215 6.9782622,13.9229458 6.85321052,13.9806334 C6.80406259,14.0033059 5.36393228,12.3437433 2.53281958,9.00194547 C2.40069376,8.92620323 2.31919913,8.78555012 2.31919913,8.63325396 L0.0503003262,1.43349112 C0.0503003262,1.36266179 2.34533251,0.119250104 2.38474203,0.0940943446 C2.4067265,0.0800612863 2.43284242,0.0719287622 2.46085779,0.0719287622 C2.48557641,0.0719287622 2.50986479,0.0783968141 2.53130964,0.0906902564 L9.00639923,3.80259038 C9.13852505,3.87833263 9.22001968,4.01898573 9.22001968,4.17128189 Z" id="Rectangle-23" fill="url(#linearGradient-6)"></path>
                        <path d="M6.96553941,5.43698646 L6.96553941,13.856653 C6.96553941,13.9348889 6.90211667,13.9983117 6.82388075,13.9983117 C6.79916213,13.9983117 6.77487375,13.9918436 6.7534289,13.9795502 L0.27833931,10.26765 C0.146213491,10.1919078 0.0647188572,10.0512547 0.0647188572,9.89895853 L0.0647188572,1.479292 C0.0647188572,1.40105608 0.128141602,1.33763333 0.206377522,1.33763333 C0.231096145,1.33763333 0.25538452,1.34410138 0.27682937,1.35639483 L6.75191896,5.06829495 C6.88404478,5.1440372 6.96553941,5.2846903 6.96553941,5.43698646 Z" id="Rectangle-23" fill="url(#linearGradient-15)"></path>
                    </g>
                    <g id="Group-77" transform="translate(21.492892, 19.500316) scale(-1, 1) translate(-21.492892, -19.500316) translate(16.492892, 12.500316)">
                        <path d="M9.22001968,4.17128189 L9.22001968,12.5909484 C9.22001968,12.6414429 9.19360048,12.6857668 9.15383082,12.7108514 C9.14008505,12.7195215 6.9782622,13.9229458 6.85321052,13.9806334 C6.80406259,14.0033059 5.36393228,12.3850919 2.53281958,9.12599138 C2.40069376,9.05024913 2.31919913,8.90959603 2.31919913,8.75729987 L0.0503003262,1.43349112 C0.0503003262,1.36266179 2.34533251,0.119250104 2.38474203,0.0940943446 C2.4067265,0.0800612863 2.43284242,0.0719287622 2.46085779,0.0719287622 C2.48557641,0.0719287622 2.50986479,0.0783968141 2.53130964,0.0906902564 L9.00639923,3.80259038 C9.13852505,3.87833263 9.22001968,4.01898573 9.22001968,4.17128189 Z" id="Rectangle-23" fill="url(#linearGradient-6)"></path>
                        <path d="M6.96553941,5.31294056 L6.96553941,13.856653 C6.96553941,13.9348889 6.90211667,13.9983117 6.82388075,13.9983117 C6.79916213,13.9983117 6.77487375,13.9918436 6.7534289,13.9795502 L0.27833931,10.26765 C0.146213491,10.1919078 0.0647188572,10.0512547 0.0647188572,9.89895853 L0.0647188572,1.479292 C0.0647188572,1.40105608 0.128141602,1.33763333 0.206377522,1.33763333 C0.231096145,1.33763333 0.25538452,1.34410138 0.27682937,1.35639483 L6.75191896,4.94424904 C6.88404478,5.01999129 6.96553941,5.1606444 6.96553941,5.31294056 Z" id="Rectangle-23" fill="url(#linearGradient-15)"></path>
                    </g>
                    <g id="Group-77" transform="translate(13.606019, 24.030273) scale(-1, 1) translate(-13.606019, -24.030273) translate(8.606019, 17.030273)">
                        <path d="M9.22001968,4.17128189 L9.22001968,12.5909484 C9.22001968,12.6414429 9.19360048,12.6857668 9.15383082,12.7108514 C9.14008505,12.7195215 6.9782622,13.9229458 6.85321052,13.9806334 C6.80406259,14.0033059 5.36393228,12.3437433 2.53281958,9.00194547 C2.40069376,8.92620323 2.31919913,8.78555012 2.31919913,8.63325396 L0.0503003262,1.43349112 C0.0503003262,1.36266179 2.34533251,0.119250104 2.38474203,0.0940943446 C2.4067265,0.0800612863 2.43284242,0.0719287622 2.46085779,0.0719287622 C2.48557641,0.0719287622 2.50986479,0.0783968141 2.53130964,0.0906902564 L9.00639923,3.80259038 C9.13852505,3.87833263 9.22001968,4.01898573 9.22001968,4.17128189 Z" id="Rectangle-23" fill="url(#linearGradient-6)"></path>
                        <path d="M6.96553941,5.43698646 L6.96553941,13.856653 C6.96553941,13.9348889 6.90211667,13.9983117 6.82388075,13.9983117 C6.79916213,13.9983117 6.77487375,13.9918436 6.7534289,13.9795502 L0.27833931,10.26765 C0.146213491,10.1919078 0.0647188572,10.0512547 0.0647188572,9.89895853 L0.0647188572,1.479292 C0.0647188572,1.40105608 0.128141602,1.33763333 0.206377522,1.33763333 C0.231096145,1.33763333 0.25538452,1.34410138 0.27682937,1.35639483 L6.75191896,5.06829495 C6.88404478,5.1440372 6.96553941,5.2846903 6.96553941,5.43698646 Z" id="Rectangle-23" fill="url(#linearGradient-15)"></path>
                    </g>
                    <g id="Group-77" transform="translate(5.721733, 28.530160) scale(-1, 1) translate(-5.721733, -28.530160) translate(0.721733, 21.530160)">
                        <path d="M9.22001968,4.17128189 L9.22001968,12.5909484 C9.22001968,12.6414429 9.19360048,12.6857668 9.15383082,12.7108514 C9.14008505,12.7195215 6.9782622,13.9229458 6.85321052,13.9806334 C6.80406259,14.0033059 5.36393228,12.3437433 2.53281958,9.00194547 C2.40069376,8.92620323 2.31919913,8.78555012 2.31919913,8.63325396 L0.0503003262,1.43349112 C0.0503003262,1.36266179 2.34533251,0.119250104 2.38474203,0.0940943446 C2.4067265,0.0800612863 2.43284242,0.0719287622 2.46085779,0.0719287622 C2.48557641,0.0719287622 2.50986479,0.0783968141 2.53130964,0.0906902564 L9.00639923,3.80259038 C9.13852505,3.87833263 9.22001968,4.01898573 9.22001968,4.17128189 Z" id="Rectangle-23" fill="url(#linearGradient-6)"></path>
                        <path d="M6.96553941,5.43698646 L6.96553941,13.856653 C6.96553941,13.9348889 6.90211667,13.9983117 6.82388075,13.9983117 C6.79916213,13.9983117 6.77487375,13.9918436 6.7534289,13.9795502 L0.27833931,10.26765 C0.146213491,10.1919078 0.0647188572,10.0512547 0.0647188572,9.89895853 L0.0647188572,1.479292 C0.0647188572,1.40105608 0.128141602,1.33763333 0.206377522,1.33763333 C0.231096145,1.33763333 0.25538452,1.34410138 0.27682937,1.35639483 L6.75191896,5.06829495 C6.88404478,5.1440372 6.96553941,5.2846903 6.96553941,5.43698646 Z" id="Rectangle-23" fill="url(#linearGradient-15)"></path>
                    </g>
                    <g id="Group-77" transform="translate(21.492892, 7.500316) scale(-1, 1) translate(-21.492892, -7.500316) translate(16.492892, 0.500316)">
                        <path d="M9.22001968,4.17128189 L9.22001968,12.5909484 C9.22001968,12.6414429 9.19360048,12.6857668 9.15383082,12.7108514 C9.14008505,12.7195215 6.9782622,13.9229458 6.85321052,13.9806334 C6.80406259,14.0033059 5.36393228,12.3850919 2.53281958,9.12599138 C2.40069376,9.05024913 2.31919913,8.90959603 2.31919913,8.75729987 L0.0503003262,1.43349112 C0.0503003262,1.36266179 2.34533251,0.119250104 2.38474203,0.0940943446 C2.4067265,0.0800612863 2.43284242,0.0719287622 2.46085779,0.0719287622 C2.48557641,0.0719287622 2.50986479,0.0783968141 2.53130964,0.0906902564 L9.00639923,3.80259038 C9.13852505,3.87833263 9.22001968,4.01898573 9.22001968,4.17128189 Z" id="Rectangle-23" fill="url(#linearGradient-6)"></path>
                        <path d="M6.96553941,5.31294056 L6.96553941,13.856653 C6.96553941,13.9348889 6.90211667,13.9983117 6.82388075,13.9983117 C6.79916213,13.9983117 6.77487375,13.9918436 6.7534289,13.9795502 L0.27833931,10.26765 C0.146213491,10.1919078 0.0647188572,10.0512547 0.0647188572,9.89895853 L0.0647188572,1.479292 C0.0647188572,1.40105608 0.128141602,1.33763333 0.206377522,1.33763333 C0.231096145,1.33763333 0.25538452,1.34410138 0.27682937,1.35639483 L6.75191896,4.94424904 C6.88404478,5.01999129 6.96553941,5.1606444 6.96553941,5.31294056 Z" id="Rectangle-23" fill="url(#linearGradient-15)"></path>
                    </g>
                    <g id="Group-77" transform="translate(13.606019, 12.030273) scale(-1, 1) translate(-13.606019, -12.030273) translate(8.606019, 5.030273)">
                        <path d="M9.22001968,4.17128189 L9.22001968,12.5909484 C9.22001968,12.6414429 9.19360048,12.6857668 9.15383082,12.7108514 C9.14008505,12.7195215 6.9782622,13.9229458 6.85321052,13.9806334 C6.80406259,14.0033059 5.36393228,12.3437433 2.53281958,9.00194547 C2.40069376,8.92620323 2.31919913,8.78555012 2.31919913,8.63325396 L0.0503003262,1.43349112 C0.0503003262,1.36266179 2.34533251,0.119250104 2.38474203,0.0940943446 C2.4067265,0.0800612863 2.43284242,0.0719287622 2.46085779,0.0719287622 C2.48557641,0.0719287622 2.50986479,0.0783968141 2.53130964,0.0906902564 L9.00639923,3.80259038 C9.13852505,3.87833263 9.22001968,4.01898573 9.22001968,4.17128189 Z" id="Rectangle-23" fill="url(#linearGradient-6)"></path>
                        <path d="M6.96553941,5.43698646 L6.96553941,13.856653 C6.96553941,13.9348889 6.90211667,13.9983117 6.82388075,13.9983117 C6.79916213,13.9983117 6.77487375,13.9918436 6.7534289,13.9795502 L0.27833931,10.26765 C0.146213491,10.1919078 0.0647188572,10.0512547 0.0647188572,9.89895853 L0.0647188572,1.479292 C0.0647188572,1.40105608 0.128141602,1.33763333 0.206377522,1.33763333 C0.231096145,1.33763333 0.25538452,1.34410138 0.27682937,1.35639483 L6.75191896,5.06829495 C6.88404478,5.1440372 6.96553941,5.2846903 6.96553941,5.43698646 Z" id="Rectangle-23" fill="url(#linearGradient-15)"></path>
                    </g>
                    <g id="Group-77" transform="translate(5.721733, 16.530160) scale(-1, 1) translate(-5.721733, -16.530160) translate(0.721733, 9.530160)">
                        <path d="M9.22001968,4.17128189 L9.22001968,12.5909484 C9.22001968,12.6414429 9.19360048,12.6857668 9.15383082,12.7108514 C9.14008505,12.7195215 6.9782622,13.9229458 6.85321052,13.9806334 C6.80406259,14.0033059 5.36393228,12.3437433 2.53281958,9.00194547 C2.40069376,8.92620323 2.31919913,8.78555012 2.31919913,8.63325396 L0.0503003262,1.43349112 C0.0503003262,1.36266179 2.34533251,0.119250104 2.38474203,0.0940943446 C2.4067265,0.0800612863 2.43284242,0.0719287622 2.46085779,0.0719287622 C2.48557641,0.0719287622 2.50986479,0.0783968141 2.53130964,0.0906902564 L9.00639923,3.80259038 C9.13852505,3.87833263 9.22001968,4.01898573 9.22001968,4.17128189 Z" id="Rectangle-23" fill="url(#linearGradient-6)"></path>
                        <path d="M6.96553941,5.43698646 L6.96553941,13.856653 C6.96553941,13.9348889 6.90211667,13.9983117 6.82388075,13.9983117 C6.79916213,13.9983117 6.77487375,13.9918436 6.7534289,13.9795502 L0.27833931,10.26765 C0.146213491,10.1919078 0.0647188572,10.0512547 0.0647188572,9.89895853 L0.0647188572,1.479292 C0.0647188572,1.40105608 0.128141602,1.33763333 0.206377522,1.33763333 C0.231096145,1.33763333 0.25538452,1.34410138 0.27682937,1.35639483 L6.75191896,5.06829495 C6.88404478,5.1440372 6.96553941,5.2846903 6.96553941,5.43698646 Z" id="Rectangle-23" fill="url(#linearGradient-15)"></path>
                    </g>
                </g>
                <g id="Group-76" transform="translate(108.230301, 152.385177)">
                    <path d="M19.3188858,36.5 C11.1338057,31.7244653 0.318885846,17.1751666 0.318885846,9 C0.318885846,5.28368205 5.19038262,2.8530388 7.46025374,1.57280822 C10.1834494,0.03689794 14.1932764,0.398282814 18.6573814,3.00283748 C26.8421304,7.77817895 33.5,18.3128086 33.5,26.4876444 C33.5,29.8700913 32.3602646,32.3264459 30.44421,33.7057885 C27.7292783,35.6602322 24.1172232,39.2995604 19.3188858,36.5 Z" id="Shape-Copy-4" fill="url(#linearGradient-13)" transform="translate(16.909443, 19.091338) scale(-1, 1) translate(-16.909443, -19.091338) "></path>
                    <path d="M19.1618355,35.4018532 C10.9767554,30.6263185 4.31888585,20.0920196 4.31888585,11.916853 C4.31888585,3.74201718 10.9767554,0.976373731 19.1618355,5.7519084 C27.3465845,10.5272499 34.0044541,21.0618795 34.0044541,29.2367153 C34.0044541,37.4118819 27.3465845,40.1771946 19.1618355,35.4018532 Z" id="Shape-Copy-4" fill="#5D63DD" transform="translate(19.161670, 20.576850) scale(-1, 1) translate(-19.161670, -20.576850) "></path>
                    <path d="M21.0515648,27.3125901 C24.2643559,29.1870733 25.3983889,28.7160409 25.3983889,26.4034953 C25.3983889,22.3014535 21.6749842,16.4100463 17.2719979,13.841151 C14.0590955,11.9666028 12.9249511,12.4376815 12.9249511,14.7501158 C12.9249511,18.8523236 16.6483043,24.7435348 21.0515648,27.3125901 Z M19.1617814,30.5516051 C13.6545872,27.3384666 9.17495105,20.2506398 9.17495105,14.7501158 C9.17495105,9.24981429 13.6545872,7.38899738 19.1617814,10.602136 C24.6687528,13.8151446 29.1483889,20.9031938 29.1483889,26.4034953 C29.1483889,31.9040194 24.6687528,33.7646137 19.1617814,30.5516051 Z" id="Shape-Copy-4" fill="url(#linearGradient-1)" fill-rule="nonzero" transform="translate(19.161670, 20.576850) scale(-1, 1) translate(-19.161670, -20.576850) "></path>
                </g>
            </g>
        </g>
    </g>
</svg>