<?xml version="1.0" encoding="UTF-8"?>
<svg width="499px" height="328px" viewBox="0 0 499 328" version="1.1" xmlns="http://www.w3.org/2000/svg" xmlns:xlink="http://www.w3.org/1999/xlink">
    <!-- Generator: Sketch 52.6 (67491) - http://www.bohemiancoding.com/sketch -->
    <title>Group 83 Copy</title>
    <desc>Created with Sketch.</desc>
    <defs>
        <linearGradient x1="-133.206517%" y1="0%" x2="143.178214%" y2="76.8724474%" id="linearGradient-1">
            <stop stop-color="#5648D6" offset="0%"></stop>
            <stop stop-color="#9FDDFF" offset="100%"></stop>
        </linearGradient>
        <linearGradient x1="85.3553391%" y1="14.6446609%" x2="14.6446609%" y2="85.3553391%" id="linearGradient-2">
            <stop stop-color="#F4FAFF" offset="0%"></stop>
            <stop stop-color="#CBE7FF" offset="100%"></stop>
        </linearGradient>
        <linearGradient x1="123.807548%" y1="-7.4114234%" x2="-39.9791496%" y2="129.199504%" id="linearGradient-3">
            <stop stop-color="#5648D6" offset="0%"></stop>
            <stop stop-color="#9FDDFF" offset="100%"></stop>
        </linearGradient>
        <linearGradient x1="-63.6052258%" y1="-45.2091739%" x2="143.178214%" y2="76.8724474%" id="linearGradient-4">
            <stop stop-color="#5648D6" offset="0%"></stop>
            <stop stop-color="#78CAF7" offset="100%"></stop>
        </linearGradient>
        <linearGradient x1="-1531.57828%" y1="26.8007189%" x2="1097.29849%" y2="95.0317965%" id="linearGradient-5">
            <stop stop-color="#5648D6" offset="0%"></stop>
            <stop stop-color="#9FDDFF" offset="100%"></stop>
        </linearGradient>
        <linearGradient x1="-167.486218%" y1="25.7261469%" x2="165.122253%" y2="65.6068367%" id="linearGradient-6">
            <stop stop-color="#5648D6" offset="0%"></stop>
            <stop stop-color="#9FDDFF" offset="100%"></stop>
        </linearGradient>
        <linearGradient x1="100%" y1="154.499426%" x2="-44.2186053%" y2="-17.7305065%" id="linearGradient-7">
            <stop stop-color="#5648D6" offset="0%"></stop>
            <stop stop-color="#5D63DD" offset="100%"></stop>
        </linearGradient>
        <linearGradient x1="-277.184104%" y1="-74.6362396%" x2="100%" y2="74.61524%" id="linearGradient-8">
            <stop stop-color="#5648D6" offset="0%"></stop>
            <stop stop-color="#9FDDFF" offset="100%"></stop>
        </linearGradient>
        <linearGradient x1="315.284265%" y1="290.657574%" x2="-111.179602%" y2="-152.924877%" id="linearGradient-9">
            <stop stop-color="#5648D6" offset="0%"></stop>
            <stop stop-color="#9FDDFF" offset="100%"></stop>
        </linearGradient>
    </defs>
    <g id="Industries" stroke="none" stroke-width="1" fill="none" fill-rule="evenodd">
        <g id="Industry-Template-Copy" transform="translate(-1267.000000, -176.000000)">
            <g id="Group-83-Copy" transform="translate(1267.000000, 176.000000)">
                <g id="Group-80" opacity="0.800000012" transform="translate(41.494670, 61.766234)" fill="url(#linearGradient-1)">
                    <path d="M67.1220951,38.9121312 C156.427418,-12.9703744 301.141663,-12.9710551 390.426392,38.9121574 C479.879957,90.8934798 479.863148,175.341327 390.386924,227.323119 C301.083951,279.204259 156.362897,279.203714 67.0826266,227.323092 C-22.3773844,175.338024 -22.357518,90.8958917 67.1220951,38.9121312 Z M389.892332,226.473396 C478.716277,174.87055 478.732899,91.3640554 389.93171,39.7618274 C300.952772,-11.9436905 156.616238,-11.9430117 67.6166871,39.7618536 C-21.2106645,91.3666786 -21.2303094,174.867458 67.5773089,226.473423 C156.551792,278.176351 300.895134,278.176894 389.892332,226.473396 Z" id="Shape" opacity="0.400000006"></path>
                    <path d="M358.956275,58.6162377 C430.39026,100.329686 430.376838,168.09614 358.924757,209.809965 C287.610808,251.443148 172.042091,251.442711 100.746271,209.809944 C29.3071379,168.093489 29.3230023,100.331621 100.777789,58.6162166 C172.093615,16.9819376 287.656895,16.9813914 358.956275,58.6162377 Z M358.560708,59.297514 C287.505814,17.8054339 172.244639,17.8059786 101.173284,59.297535 C30.239221,100.70894 30.2235332,167.716348 101.141838,209.128667 C172.193174,250.61867 287.459787,250.619105 358.529262,209.128646 C429.460605,167.718829 429.473879,100.706835 358.560708,59.297514 Z" id="Shape" opacity="0.400000006"></path>
                    <path d="M333.367705,74.2833857 C390.643469,107.65416 390.632707,161.867111 333.342433,195.238186 C276.162735,228.544854 183.49942,228.544504 126.334258,195.23817 C69.0543658,161.86499 69.0670858,107.655709 126.359529,74.2833688 C183.540732,40.9758251 276.199687,40.9753882 333.367705,74.2833857 Z M333.050637,74.8277123 C276.078575,41.633885 183.661798,41.6343208 126.676539,74.8277292 C69.8011798,107.957121 69.7886012,161.56372 126.651325,194.693843 C183.620534,227.886008 276.041671,227.886357 333.025424,194.693826 C389.898602,161.565704 389.909244,107.955437 333.050637,74.8277123 Z" id="Shape" opacity="0.400000006"></path>
                    <path d="M303.736709,90.2419019 C344.929597,114.200189 344.921855,153.129673 303.718538,177.088173 C262.602311,200.996034 195.973231,200.995783 154.867454,177.08816 C113.671599,153.128147 113.680749,114.201296 154.885625,90.2418888 C196.002934,66.3333992 262.62888,66.3330856 303.736709,90.2419019 Z M303.490508,90.6682844 C262.534946,66.8480282 196.096833,66.8483409 155.131781,90.6682974 C114.253335,114.437896 114.244296,152.891658 155.113655,176.661778 C196.067167,200.480841 262.508414,200.481091 303.472382,176.661765 C344.349261,152.893078 344.356908,114.436683 303.490508,90.6682844 Z" id="Shape"></path>
                </g>
                <g id="Group-73">
                    <path d="M103.328955,161.047455 L109.031116,164.317869 L268.154131,73.1317006 C270.466845,71.8063892 274.216496,71.8063892 276.52921,73.1317006 L461.332641,179.12374 C463.645355,180.449051 463.645355,182.597806 461.332641,183.923117 L248.815006,305.707315 C246.502292,307.032627 242.752641,307.032627 240.439927,305.707315 L196.102174,280.277869 L190.702788,283.372012 C189.636126,283.983268 187.906724,283.983268 186.840062,283.372012 L125.581964,248.238083 L90.5467024,268.315199 C89.4800401,268.926454 87.7506388,268.926454 86.6839765,268.315199 L1.44955885,219.429906 C0.382896547,218.818651 0.382896547,217.827609 1.44955885,217.216354 L99.4662287,161.047455 C100.532891,160.436199 102.262292,160.436199 103.328955,161.047455 Z" id="Combined-Shape" fill="#5FABFA" fill-rule="nonzero" opacity="0.400000006"></path>
                    <path d="M54.403195,177.442894 L268.569572,68.0970593 C270.882286,66.7717478 274.631937,66.7717478 276.944651,68.0970593 L463.503454,161.81092 L463.503454,171.635896 C463.503454,172.694982 462.93646,173.673223 462.016932,174.200611 L249.230447,296.242563 C246.917733,297.567874 243.168082,297.567874 240.855368,296.242563 L55.8895359,190.139606 C54.9701094,189.612191 54.403195,188.634007 54.403195,187.574995 L54.403195,177.442894 Z" id="Rectangle-8" fill="#5D63DD"></path>
                    <path d="M56.0519371,175.11422 L268.569572,53.3300218 C270.882286,52.0047104 274.631937,52.0047104 276.944651,53.3300218 L461.748082,159.322061 C464.060797,160.647373 464.060797,162.796127 461.748082,164.121438 L249.230447,285.905636 C246.917733,287.230948 243.168082,287.230948 240.855368,285.905636 L56.0519371,179.913597 C53.7392228,178.588286 53.7392228,176.439531 56.0519371,175.11422 Z" id="Rectangle-8" fill="url(#linearGradient-2)" fill-rule="nonzero"></path>
                    <polygon id="Rectangle-9" fill="url(#linearGradient-1)" opacity="0.5" points="252.6396 195.121069 375.657836 125.042257 421.822032 151.691685 298.803796 221.770497"></polygon>
                    <polygon id="Rectangle-9" fill="url(#linearGradient-3)" points="252.6396 195.121069 375.657836 125.042257 375.657836 153.449416 277.349293 209.452056"></polygon>
                    <polygon id="Rectangle-9" fill="url(#linearGradient-3)" points="421.775878 151.714971 375.657836 125.042257 375.657836 153.449416 397.053784 165.823923"></polygon>
                    <polygon id="Combined-Shape" fill="url(#linearGradient-1)" opacity="0.5" points="415.134215 155.501479 298.803796 221.770497 259.327416 198.981777 375.657836 132.71276"></polygon>
                    <polygon id="Rectangle-9" fill="url(#linearGradient-4)" points="222.181732 217.043331 271.104355 189.085039 271.104355 237.614172 222.181732 265.572463"></polygon>
                    <polygon id="Rectangle-9" fill="url(#linearGradient-2)" fill-rule="nonzero" points="231.277553 220.194237 262.330611 202.396504 262.330611 239.41406 231.277553 257.211793"></polygon>
                    <polygon id="Rectangle-9" fill="#5D63DD" points="260.379834 203.514257 262.330611 202.396504 262.330611 239.41406 260.379834 240.532127"></polygon>
                    <polygon id="Rectangle-9" fill="url(#linearGradient-4)" points="208.262981 153.338605 349.964905 71.8999819 349.964905 118.420849 208.262981 199.859472"></polygon>
                    <polygon id="Rectangle-9" fill="url(#linearGradient-2)" fill-rule="nonzero" points="257.579922 132.091246 280.93393 118.614371 280.93393 158.098693 257.579922 171.575568"></polygon>
                    <polygon id="Rectangle-9" fill="#5D63DD" points="280.93393 118.614371 280.93393 158.098693 279.715475 158.801825 279.715475 119.324659"></polygon>
                    <polygon id="Rectangle-9" fill="url(#linearGradient-2)" fill-rule="nonzero" points="228.247118 148.926205 251.601126 135.449329 251.601126 174.933652 228.247118 188.410527"></polygon>
                    <polygon id="Rectangle-9" fill="#5D63DD" points="250.674176 135.968446 251.601126 135.449329 251.601126 174.933652 250.674176 175.46598"></polygon>
                    <polygon id="Rectangle-9" fill="url(#linearGradient-2)" fill-rule="nonzero" points="199.478902 165.371314 222.83291 151.894439 222.83291 191.378761 199.478902 204.855637"></polygon>
                    <polygon id="Rectangle-9" fill="url(#linearGradient-5)" points="221.376198 152.756642 222.83291 151.894439 222.83291 191.378761 221.376198 192.219385"></polygon>
                    <polygon id="Rectangle-9" fill="url(#linearGradient-2)" fill-rule="nonzero" points="315.938302 98.5796471 339.29231 85.1027719 339.29231 124.587094 315.938302 138.063969"></polygon>
                    <polygon id="Rectangle-9" fill="#5D63DD" points="338.258974 85.7038747 339.29231 85.1027719 339.29231 124.587094 338.258974 125.1834"></polygon>
                    <polygon id="Rectangle-9" fill="url(#linearGradient-2)" fill-rule="nonzero" points="287.170087 115.024757 310.524095 101.547882 310.524095 141.032204 287.170087 154.509079"></polygon>
                    <polygon id="Rectangle-9" fill="#5D63DD" points="309.497856 102.171468 310.524095 101.547882 310.524095 141.032204 309.497856 141.624414"></polygon>
                    <polygon id="Rectangle-9" fill="url(#linearGradient-1)" fill-rule="nonzero" points="208.262981 153.338605 349.964905 71.8999819 238.366864 7.10881628 96.6649399 88.547439"></polygon>
                    <polygon id="Rectangle-9" fill="url(#linearGradient-1)" fill-rule="nonzero" points="222.181732 217.043331 271.104355 189.085039 208.70787 153.118588 159.785247 181.07688"></polygon>
                    <polygon id="Rectangle-9" fill="url(#linearGradient-6)" points="159.785247 107.092354 257.270086 51.3855481 257.270086 125.370074 159.785247 181.07688"></polygon>
                    <polygon id="Rectangle-9" fill="url(#linearGradient-2)" fill-rule="nonzero" points="163.055785 109.361585 205.695193 84.8641555 205.695193 151.482909 163.055785 175.980339"></polygon>
                    <path d="M208.961718,83.6998253 L251.601126,59.2023955 L251.601126,61.6852204 L208.961718,86.1826502 L208.961718,83.6998253 Z M208.961718,91.9223802 L251.601126,67.4249504 L251.601126,69.9077754 L208.961718,94.4052052 L208.961718,91.9223802 Z M208.961718,100.144935 L251.601126,75.6475053 L251.601126,78.1303303 L208.961718,102.62776 L208.961718,100.144935 Z M208.961718,108.36749 L251.601126,83.8700602 L251.601126,86.3528852 L208.961718,110.850315 L208.961718,108.36749 Z M208.961718,116.590045 L251.601126,92.0926152 L251.601126,94.5754401 L208.961718,119.07287 L208.961718,116.590045 Z M208.961718,124.8126 L251.601126,100.31517 L251.601126,102.797995 L208.961718,127.295425 L208.961718,124.8126 Z M208.961718,133.035155 L251.601126,108.537725 L251.601126,111.02055 L208.961718,135.51798 L208.961718,133.035155 Z M208.961718,141.25771 L251.601126,116.76028 L251.601126,119.243105 L208.961718,143.740535 L208.961718,141.25771 Z" id="Combined-Shape" fill="url(#linearGradient-7)"></path>
                    <polygon id="Rectangle-9" fill="#5D63DD" points="203.213818 86.2870668 205.695193 84.8641555 205.695193 151.482909 203.213818 152.908522"></polygon>
                    <polygon id="Rectangle-9" fill="url(#linearGradient-1)" fill-rule="nonzero" points="159.785247 107.092354 257.260554 51.3923735 168.680146 0.310102337 71.2048383 56.0100829"></polygon>
                    <polygon id="Rectangle-9" fill="#6276E2" points="222.181732 217.043331 159.768783 181.066682 159.768783 107.063687 71.1789015 55.9978887 71.1789015 178.530016 222.181732 265.572463"></polygon>
                    <polygon id="Rectangle-9" fill="url(#linearGradient-8)" opacity="0.300000012" points="260.628117 161.712522 204.109088 128.775329 204.109088 155.103563 260.628117 188.040756"></polygon>
                    <polygon id="Rectangle-9" fill="url(#linearGradient-8)" opacity="0.300000012" points="222.236114 184.715598 260.775811 162.678111 260.775811 189.006346 222.236114 211.043832"></polygon>
                    <polygon id="Rectangle-9" fill="url(#linearGradient-8)" opacity="0.300000012" points="222.236114 184.715598 162.979129 150.146343 162.979129 176.474578 222.236114 211.043832"></polygon>
                    <polygon id="Rectangle-11" fill="#5D63DD" points="221.414165 137.862797 221.414165 165.001452 220.39402 165.551806 219.373875 165.001452 219.373875 137.862797"></polygon>
                    <polygon id="Rectangle-11" fill="url(#linearGradient-9)" points="220.39402 137.316667 221.414165 137.867021 220.39402 138.417374 219.373875 137.867021"></polygon>
                    <polygon id="Rectangle-11" fill="#5D63DD" points="223.058063 183.909104 223.058063 211.04776 222.037918 211.598113 221.017773 211.04776 221.017773 183.909104"></polygon>
                    <polygon id="Rectangle-11" fill="url(#linearGradient-9)" points="222.037918 183.362975 223.058063 183.913328 222.037918 184.463682 221.017773 183.913328"></polygon>
                    <polygon id="Rectangle-11" fill="#5D63DD" points="186.892306 163.352717 186.892306 190.491372 185.872161 191.041726 184.852016 190.491372 184.852016 163.352717"></polygon>
                    <polygon id="Rectangle-11" fill="url(#linearGradient-9)" points="185.872161 162.806588 186.892306 163.356941 185.872161 163.907295 184.852016 163.356941"></polygon>
                    <polygon id="Rectangle-11" fill="#5D63DD" points="261.689667 161.708206 261.689667 188.846861 260.669522 189.397215 259.649377 188.846861 259.649377 161.708206"></polygon>
                    <polygon id="Rectangle-11" fill="url(#linearGradient-9)" points="260.669522 161.162077 261.689667 161.71243 260.669522 162.262784 259.649377 161.71243"></polygon>
                    <path d="M452.38184,134.849901 L452.38184,159.933184 C452.38184,161.520121 451.093843,162.806588 449.505018,162.806588 C447.916193,162.806588 446.628196,161.520121 446.628196,159.933184 L446.628196,134.849901 L452.38184,134.849901 Z" id="Rectangle-13" fill="url(#linearGradient-1)"></path>
                    <path d="M446.611632,103.753721 C446.940032,102.676517 447.797779,101.842273 448.884616,101.543023 C450.63629,101.060716 452.447756,102.088054 452.930637,103.837648 L461.727098,135.709329 C463.06988,140.57455 461.143692,145.752011 456.945904,148.560851 C452.658169,151.429875 447.093824,151.555155 442.681011,148.882022 L442.150822,148.560851 C437.582589,145.793568 435.474789,140.284416 437.031103,135.179449 L446.611632,103.753721 Z" id="Rectangle-14" fill="#5D63DD"></path>
                    <path d="M376.76253,89.6258487 L376.76253,114.709131 C376.76253,116.296069 375.474533,117.582535 373.885708,117.582535 C372.296884,117.582535 371.008887,116.296069 371.008887,114.709131 L371.008887,89.6258487 L376.76253,89.6258487 Z" id="Rectangle-13" fill="url(#linearGradient-1)"></path>
                    <path d="M370.992322,58.5296693 C371.320722,57.4524647 372.17847,56.6182214 373.265306,56.3189709 C375.016981,55.8366635 376.828446,56.8640019 377.311327,58.6135954 L386.107788,90.4852771 C387.450571,95.3504982 385.524383,100.527959 381.326594,103.336798 C377.038859,106.205823 371.474514,106.331103 367.061702,103.657969 L366.531512,103.336798 C361.963279,100.569516 359.85548,95.0603643 361.411793,89.9553973 L370.992322,58.5296693 Z" id="Rectangle-14" fill="#5D63DD"></path>
                    <path d="M311.828557,217.07545 L311.828557,242.158733 C311.828557,243.74567 310.54056,245.032137 308.951736,245.032137 C307.362911,245.032137 306.074914,243.74567 306.074914,242.158733 L306.074914,217.07545 L311.828557,217.07545 Z" id="Rectangle-13" fill="url(#linearGradient-1)"></path>
                    <path d="M306.05835,185.979271 C306.386749,184.902066 307.244497,184.067823 308.331334,183.768572 C310.083008,183.286265 311.894473,184.313603 312.377355,186.063197 L321.173816,217.934878 C322.516598,222.8001 320.59041,227.977561 316.392622,230.7864 C312.104887,233.655424 306.540542,233.780704 302.127729,231.107571 L301.59754,230.7864 C297.029307,228.019118 294.921507,222.509966 296.477821,217.404999 L306.05835,185.979271 Z" id="Rectangle-14" fill="#5D63DD"></path>
                </g>
            </g>
        </g>
    </g>
</svg>