<?xml version="1.0" encoding="UTF-8"?>
<svg width="760px" height="140px" viewBox="0 0 760 140" version="1.1" xmlns="http://www.w3.org/2000/svg" xmlns:xlink="http://www.w3.org/1999/xlink">
    <!-- Generator: Sketch 52.6 (67491) - http://www.bohemiancoding.com/sketch -->
    <title>Illustration</title>
    <desc>Created with Sketch.</desc>
    <defs>
        <path d="M10.0537634,8.66666667 C11.9244053,8.66666667 13.4408602,10.1831215 13.4408602,12.0537634 L13.4408602,19.5555556 L6.66666667,19.5555556 L6.66666667,12.0537634 C6.66666667,10.1831215 8.18312155,8.66666667 10.0537634,8.66666667 Z M23.2795699,8.66666667 C25.1502118,8.66666667 26.6666667,10.1831215 26.6666667,12.0537634 L26.6666667,19.5555556 L19.8924731,19.5555556 L19.8924731,12.0537634 C19.8924731,10.1831215 21.408928,8.66666667 23.2795699,8.66666667 Z M10.0537634,25.7777778 C11.9244053,25.7777778 13.4408602,27.2942327 13.4408602,29.1648746 L13.4408602,36.6666667 L6.66666667,36.6666667 L6.66666667,29.1648746 C6.66666667,27.2942327 8.18312155,25.7777778 10.0537634,25.7777778 Z M23.2795699,25.7777778 C25.1502118,25.7777778 26.6666667,27.2942327 26.6666667,29.1648746 L26.6666667,36.6666667 L19.8924731,36.6666667 L19.8924731,29.1648746 C19.8924731,27.2942327 21.408928,25.7777778 23.2795699,25.7777778 Z" id="path-1"></path>
        <path d="M0,0 L111.5,0 C134.419817,-4.2103021e-15 153,18.5801829 153,41.5 L0,41.5 L0,0 Z" id="path-3"></path>
        <path d="M13.2736468,36.1651376 C15.1284358,36.1651376 16.6320394,37.6687412 16.6320394,39.5235302 L16.6320394,47.1039755 L9.91525424,47.1039755 L9.91525424,39.5235302 C9.91525424,37.6687412 11.4188578,36.1651376 13.2736468,36.1651376 Z M26.3873701,36.1651376 C28.2421591,36.1651376 29.7457627,37.6687412 29.7457627,39.5235302 L29.7457627,47.1039755 L23.0289776,47.1039755 L23.0289776,39.5235302 C23.0289776,37.6687412 24.5325812,36.1651376 26.3873701,36.1651376 Z M13.2736468,53.3547401 C15.1284358,53.3547401 16.6320394,54.8583436 16.6320394,56.7131326 L16.6320394,64.293578 L9.91525424,64.293578 L9.91525424,56.7131326 C9.91525424,54.8583436 11.4188578,53.3547401 13.2736468,53.3547401 Z M26.3873701,53.3547401 C28.2421591,53.3547401 29.7457627,54.8583436 29.7457627,56.7131326 L29.7457627,64.293578 L23.0289776,64.293578 L23.0289776,56.7131326 C23.0289776,54.8583436 24.5325812,53.3547401 26.3873701,53.3547401 Z" id="path-5"></path>
    </defs>
    <g id="Biometric-Verification" stroke="none" stroke-width="1" fill="none" fill-rule="evenodd" opacity="0.7">
        <g transform="translate(-840.000000, -5675.000000)" id="Illustration">
            <g transform="translate(840.000000, 5675.000000)">
                <g id="img_city">
                    <g id="Group-21" transform="translate(0.000000, 25.333333)">
                        <g id="Group-19" transform="translate(0.000000, 38.000000)">
                            <rect id="Rectangle-32-Copy" fill="#1D2F76" x="33.3333333" y="10" width="46.6666667" height="66.6666667"></rect>
                            <polygon id="Rectangle-32-Copy-2" fill="#1D2F76" points="20 0 60 0 60 10.6666667 20 10.6666667"></polygon>
                            <rect id="Rectangle-32" fill="#2F5DBD" x="0" y="10" width="46.6666667" height="66.6666667"></rect>
                            <path d="M33.3333333,20.6666667 L66.6666667,20.6666667 L66.6666667,22 L33.3333333,22 L33.3333333,20.6666667 Z M33.3333333,26 L66.6666667,26 L66.6666667,27.3333333 L33.3333333,27.3333333 L33.3333333,26 Z M33.3333333,31.3333333 L66.6666667,31.3333333 L66.6666667,32.6666667 L33.3333333,32.6666667 L33.3333333,31.3333333 Z M33.3333333,36.6666667 L66.6666667,36.6666667 L66.6666667,38 L33.3333333,38 L33.3333333,36.6666667 Z M33.3333333,42 L66.6666667,42 L66.6666667,43.3333333 L33.3333333,43.3333333 L33.3333333,42 Z" id="Combined-Shape-Copy" fill="#2F5DBD"></path>
                            <path d="M13.3333333,20.6666667 L46.6666667,20.6666667 L46.6666667,22 L13.3333333,22 L13.3333333,20.6666667 Z M13.3333333,26 L46.6666667,26 L46.6666667,27.3333333 L13.3333333,27.3333333 L13.3333333,26 Z M13.3333333,31.3333333 L46.6666667,31.3333333 L46.6666667,32.6666667 L13.3333333,32.6666667 L13.3333333,31.3333333 Z M13.3333333,36.6666667 L46.6666667,36.6666667 L46.6666667,38 L13.3333333,38 L13.3333333,36.6666667 Z M13.3333333,42 L46.6666667,42 L46.6666667,43.3333333 L13.3333333,43.3333333 L13.3333333,42 Z" id="Combined-Shape" fill="#FFFFFF"></path>
                            <path d="M30,56.6666667 L46.6666667,56.6666667 L46.6666667,58 L30,58 L30,56.6666667 Z M30,62 L46.6666667,62 L46.6666667,63.3333333 L30,63.3333333 L30,62 Z" id="Combined-Shape-Copy-2" fill="#FFFFFF"></path>
                        </g>
                        <rect id="Rectangle-34-Copy" fill="#1D2F76" x="93.3333333" y="21.3333333" width="80" height="93.3333333"></rect>
                        <rect id="Rectangle-34-Copy-4" fill="#FFFFFF" x="73.3333333" y="17.3333333" width="40" height="4"></rect>
                        <rect id="Rectangle-34-Copy-5" fill="#2F5DBD" x="113.333333" y="17.3333333" width="46.6666667" height="4"></rect>
                        <polygon id="Rectangle-34-Copy-7" fill="#2F5DBD" points="86.6666667 0 100 0 113.333333 17.3333333 73.3333333 17.3333333"></polygon>
                        <polygon id="Rectangle-34-Copy-6" fill="#1D2F76" points="100 0 146.666667 0 160 17.3333333 113.333333 17.3333333"></polygon>
                        <rect id="Rectangle-34" fill="#2F5DBD" x="60" y="21.3333333" width="40" height="93.3333333"></rect>
                        <path d="M73.3333333,37.3333333 L100,37.3333333 L100,38.6666667 L73.3333333,38.6666667 L73.3333333,37.3333333 Z M73.3333333,42.6666667 L100,42.6666667 L100,44 L73.3333333,44 L73.3333333,42.6666667 Z M73.3333333,48 L100,48 L100,49.3333333 L73.3333333,49.3333333 L73.3333333,48 Z M73.3333333,53.3333333 L100,53.3333333 L100,54.6666667 L73.3333333,54.6666667 L73.3333333,53.3333333 Z M73.3333333,58.6666667 L100,58.6666667 L100,60 L73.3333333,60 L73.3333333,58.6666667 Z M73.3333333,64 L100,64 L100,65.3333333 L73.3333333,65.3333333 L73.3333333,64 Z M73.3333333,69.3333333 L100,69.3333333 L100,70.6666667 L73.3333333,70.6666667 L73.3333333,69.3333333 Z M73.3333333,74.6666667 L100,74.6666667 L100,76 L73.3333333,76 L73.3333333,74.6666667 Z M73.3333333,80 L100,80 L100,81.3333333 L73.3333333,81.3333333 L73.3333333,80 Z M73.3333333,85.3333333 L100,85.3333333 L100,86.6666667 L73.3333333,86.6666667 L73.3333333,85.3333333 Z" id="Combined-Shape" fill="#FFFFFF"></path>
                        <path d="M100,37.3333333 L153.333333,37.3333333 L153.333333,38.6666667 L100,38.6666667 L100,37.3333333 Z M100,42.6666667 L153.333333,42.6666667 L153.333333,44 L100,44 L100,42.6666667 Z M100,48 L153.333333,48 L153.333333,49.3333333 L100,49.3333333 L100,48 Z M100,53.3333333 L153.333333,53.3333333 L153.333333,54.6666667 L100,54.6666667 L100,53.3333333 Z M100,58.6666667 L153.333333,58.6666667 L153.333333,60 L100,60 L100,58.6666667 Z M100,64 L153.333333,64 L153.333333,65.3333333 L100,65.3333333 L100,64 Z M100,69.3333333 L153.333333,69.3333333 L153.333333,70.6666667 L100,70.6666667 L100,69.3333333 Z M100,74.6666667 L153.333333,74.6666667 L153.333333,76 L100,76 L100,74.6666667 Z M100,80 L153.333333,80 L153.333333,81.3333333 L100,81.3333333 L100,80 Z M100,85.3333333 L153.333333,85.3333333 L153.333333,86.6666667 L100,86.6666667 L100,85.3333333 Z" id="Combined-Shape-Copy-3" fill="#2F5DBD"></path>
                    </g>
                    <g id="Group-21-Copy" transform="translate(444.666667, 25.333333)">
                        <g id="Group-19" transform="translate(0.000000, 38.000000)">
                            <rect id="Rectangle-32-Copy" fill="#1D2F76" x="33.3333333" y="10" width="46.6666667" height="66.6666667"></rect>
                            <polygon id="Rectangle-32-Copy-2" fill="#1D2F76" points="20 0 60 0 60 10.6666667 20 10.6666667"></polygon>
                            <rect id="Rectangle-32" fill="#2F5DBD" x="0" y="10" width="46.6666667" height="66.6666667"></rect>
                            <path d="M33.3333333,20.6666667 L66.6666667,20.6666667 L66.6666667,22 L33.3333333,22 L33.3333333,20.6666667 Z M33.3333333,26 L66.6666667,26 L66.6666667,27.3333333 L33.3333333,27.3333333 L33.3333333,26 Z M33.3333333,31.3333333 L66.6666667,31.3333333 L66.6666667,32.6666667 L33.3333333,32.6666667 L33.3333333,31.3333333 Z M33.3333333,36.6666667 L66.6666667,36.6666667 L66.6666667,38 L33.3333333,38 L33.3333333,36.6666667 Z M33.3333333,42 L66.6666667,42 L66.6666667,43.3333333 L33.3333333,43.3333333 L33.3333333,42 Z" id="Combined-Shape-Copy" fill="#2F5DBD"></path>
                            <path d="M13.3333333,20.6666667 L46.6666667,20.6666667 L46.6666667,22 L13.3333333,22 L13.3333333,20.6666667 Z M13.3333333,26 L46.6666667,26 L46.6666667,27.3333333 L13.3333333,27.3333333 L13.3333333,26 Z M13.3333333,31.3333333 L46.6666667,31.3333333 L46.6666667,32.6666667 L13.3333333,32.6666667 L13.3333333,31.3333333 Z M13.3333333,36.6666667 L46.6666667,36.6666667 L46.6666667,38 L13.3333333,38 L13.3333333,36.6666667 Z M13.3333333,42 L46.6666667,42 L46.6666667,43.3333333 L13.3333333,43.3333333 L13.3333333,42 Z" id="Combined-Shape" fill="#FFFFFF"></path>
                            <path d="M30,56.6666667 L46.6666667,56.6666667 L46.6666667,58 L30,58 L30,56.6666667 Z M30,62 L46.6666667,62 L46.6666667,63.3333333 L30,63.3333333 L30,62 Z" id="Combined-Shape-Copy-2" fill="#FFFFFF"></path>
                        </g>
                        <rect id="Rectangle-34-Copy" fill="#1D2F76" x="93.3333333" y="21.3333333" width="80" height="93.3333333"></rect>
                        <rect id="Rectangle-34-Copy-4" fill="#FFFFFF" x="73.3333333" y="17.3333333" width="40" height="4"></rect>
                        <rect id="Rectangle-34-Copy-5" fill="#2F5DBD" x="113.333333" y="17.3333333" width="46.6666667" height="4"></rect>
                        <polygon id="Rectangle-34-Copy-7" fill="#2F5DBD" points="86.6666667 0 100 0 113.333333 17.3333333 73.3333333 17.3333333"></polygon>
                        <polygon id="Rectangle-34-Copy-6" fill="#1D2F76" points="100 0 146.666667 0 160 17.3333333 113.333333 17.3333333"></polygon>
                        <rect id="Rectangle-34" fill="#2F5DBD" x="60" y="21.3333333" width="40" height="93.3333333"></rect>
                        <path d="M73.3333333,37.3333333 L100,37.3333333 L100,38.6666667 L73.3333333,38.6666667 L73.3333333,37.3333333 Z M73.3333333,42.6666667 L100,42.6666667 L100,44 L73.3333333,44 L73.3333333,42.6666667 Z M73.3333333,48 L100,48 L100,49.3333333 L73.3333333,49.3333333 L73.3333333,48 Z M73.3333333,53.3333333 L100,53.3333333 L100,54.6666667 L73.3333333,54.6666667 L73.3333333,53.3333333 Z M73.3333333,58.6666667 L100,58.6666667 L100,60 L73.3333333,60 L73.3333333,58.6666667 Z M73.3333333,64 L100,64 L100,65.3333333 L73.3333333,65.3333333 L73.3333333,64 Z M73.3333333,69.3333333 L100,69.3333333 L100,70.6666667 L73.3333333,70.6666667 L73.3333333,69.3333333 Z M73.3333333,74.6666667 L100,74.6666667 L100,76 L73.3333333,76 L73.3333333,74.6666667 Z M73.3333333,80 L100,80 L100,81.3333333 L73.3333333,81.3333333 L73.3333333,80 Z M73.3333333,85.3333333 L100,85.3333333 L100,86.6666667 L73.3333333,86.6666667 L73.3333333,85.3333333 Z" id="Combined-Shape" fill="#FFFFFF"></path>
                        <path d="M100,37.3333333 L153.333333,37.3333333 L153.333333,38.6666667 L100,38.6666667 L100,37.3333333 Z M100,42.6666667 L153.333333,42.6666667 L153.333333,44 L100,44 L100,42.6666667 Z M100,48 L153.333333,48 L153.333333,49.3333333 L100,49.3333333 L100,48 Z M100,53.3333333 L153.333333,53.3333333 L153.333333,54.6666667 L100,54.6666667 L100,53.3333333 Z M100,58.6666667 L153.333333,58.6666667 L153.333333,60 L100,60 L100,58.6666667 Z M100,64 L153.333333,64 L153.333333,65.3333333 L100,65.3333333 L100,64 Z M100,69.3333333 L153.333333,69.3333333 L153.333333,70.6666667 L100,70.6666667 L100,69.3333333 Z M100,74.6666667 L153.333333,74.6666667 L153.333333,76 L100,76 L100,74.6666667 Z M100,80 L153.333333,80 L153.333333,81.3333333 L100,81.3333333 L100,80 Z M100,85.3333333 L153.333333,85.3333333 L153.333333,86.6666667 L100,86.6666667 L100,85.3333333 Z" id="Combined-Shape-Copy-3" fill="#2F5DBD"></path>
                    </g>
                    <g id="Group-11" transform="translate(245.333333, 33.333333)">
                        <rect id="Rectangle-22-Copy" fill="#1D2F76" x="46.6666667" y="13.3333333" width="26.6666667" height="93.3333333"></rect>
                        <rect id="Rectangle-22-Copy-4" fill="#1D2F76" x="33.3333333" y="0" width="26.6666667" height="46"></rect>
                        <path d="M50.6666667,18 L69.3333333,18 L69.3333333,18.6666667 L50.6666667,18.6666667 L50.6666667,18 Z M50.6666667,22.6666667 L69.3333333,22.6666667 L69.3333333,23.3333333 L50.6666667,23.3333333 L50.6666667,22.6666667 Z M50.6666667,27.3333333 L69.3333333,27.3333333 L69.3333333,28 L50.6666667,28 L50.6666667,27.3333333 Z M50.6666667,32 L69.3333333,32 L69.3333333,32.6666667 L50.6666667,32.6666667 L50.6666667,32 Z M50.6666667,36.6666667 L69.3333333,36.6666667 L69.3333333,37.3333333 L50.6666667,37.3333333 L50.6666667,36.6666667 Z M50.6666667,41.3333333 L69.3333333,41.3333333 L69.3333333,42 L50.6666667,42 L50.6666667,41.3333333 Z M50.6666667,46 L69.3333333,46 L69.3333333,46.6666667 L50.6666667,46.6666667 L50.6666667,46 Z M50.6666667,50.6666667 L69.3333333,50.6666667 L69.3333333,51.3333333 L50.6666667,51.3333333 L50.6666667,50.6666667 Z M50.6666667,55.3333333 L69.3333333,55.3333333 L69.3333333,56 L50.6666667,56 L50.6666667,55.3333333 Z M50.6666667,60 L69.3333333,60 L69.3333333,60.6666667 L50.6666667,60.6666667 L50.6666667,60 Z M50.6666667,64.6666667 L69.3333333,64.6666667 L69.3333333,65.3333333 L50.6666667,65.3333333 L50.6666667,64.6666667 Z M50.6666667,69.3333333 L69.3333333,69.3333333 L69.3333333,70 L50.6666667,70 L50.6666667,69.3333333 Z M50.6666667,74 L69.3333333,74 L69.3333333,74.6666667 L50.6666667,74.6666667 L50.6666667,74 Z M50.6666667,78.6666667 L69.3333333,78.6666667 L69.3333333,79.3333333 L50.6666667,79.3333333 L50.6666667,78.6666667 Z M50.6666667,83.3333333 L69.3333333,83.3333333 L69.3333333,84 L50.6666667,84 L50.6666667,83.3333333 Z M50.6666667,88 L69.3333333,88 L69.3333333,88.6666667 L50.6666667,88.6666667 L50.6666667,88 Z M50.6666667,92.6666667 L69.3333333,92.6666667 L69.3333333,93.3333333 L50.6666667,93.3333333 L50.6666667,92.6666667 Z M50.6666667,97.3333333 L69.3333333,97.3333333 L69.3333333,98 L50.6666667,98 L50.6666667,97.3333333 Z M50.6666667,102 L69.3333333,102 L69.3333333,102.666667 L50.6666667,102.666667 L50.6666667,102 Z" id="Combined-Shape" fill="#2F5DBD"></path>
                        <rect id="Rectangle-22" fill="#2C5BBF" x="0" y="13.3333333" width="46.6666667" height="93.3333333"></rect>
                        <rect id="Rectangle-22-Copy-3" fill="#2F5DBD" x="6.66666667" y="0" width="33.3333333" height="106.666667"></rect>
                        <polygon id="Rectangle-23" fill="#1D2F76" points="10.6666667 93.3333333 20 93.3333333 20 106.666667 10.6666667 106.666667"></polygon>
                        <polygon id="Rectangle-23-Copy" fill="#1D2F76" points="26.6666667 93.3333333 36 93.3333333 36 106.666667 26.6666667 106.666667"></polygon>
                        <g id="Group-14" transform="translate(6.666667, 29.333333)" fill="#1D2F76">
                            <path d="M0,0 L6.66666667,0 L6.66666667,5.33333333 L0,5.33333333 L0,0 Z M0,12 L6.66666667,12 L6.66666667,17.3333333 L0,17.3333333 L0,12 Z M0,24 L6.66666667,24 L6.66666667,29.3333333 L0,29.3333333 L0,24 Z M0,36 L6.66666667,36 L6.66666667,41.3333333 L0,41.3333333 L0,36 Z M0,48 L6.66666667,48 L6.66666667,53.3333333 L0,53.3333333 L0,48 Z M13.3333333,0 L20,0 L20,5.33333333 L13.3333333,5.33333333 L13.3333333,0 Z M13.3333333,12 L20,12 L20,17.3333333 L13.3333333,17.3333333 L13.3333333,12 Z M13.3333333,24 L20,24 L20,29.3333333 L13.3333333,29.3333333 L13.3333333,24 Z M13.3333333,36 L20,36 L20,41.3333333 L13.3333333,41.3333333 L13.3333333,36 Z M13.3333333,48 L20,48 L20,53.3333333 L13.3333333,53.3333333 L13.3333333,48 Z M26.6666667,0 L33.3333333,0 L33.3333333,5.33333333 L26.6666667,5.33333333 L26.6666667,0 Z M26.6666667,12 L33.3333333,12 L33.3333333,17.3333333 L26.6666667,17.3333333 L26.6666667,12 Z M26.6666667,24 L33.3333333,24 L33.3333333,29.3333333 L26.6666667,29.3333333 L26.6666667,24 Z M26.6666667,36 L33.3333333,36 L33.3333333,41.3333333 L26.6666667,41.3333333 L26.6666667,36 Z M26.6666667,48 L33.3333333,48 L33.3333333,53.3333333 L26.6666667,53.3333333 L26.6666667,48 Z" id="Combined-Shape"></path>
                        </g>
                    </g>
                    <g id="Group-17" transform="translate(312.000000, 0.000000)">
                        <g id="Group-16">
                            <rect id="Rectangle-28-Copy" fill="#1D2F76" x="20" y="0" width="53.3333333" height="140"></rect>
                            <rect id="Rectangle-28" fill="#2F5DBD" x="0" y="0" width="53.3333333" height="140"></rect>
                            <path d="M9.33333333,18 L10.6666667,18 L10.6666667,127.333333 L9.33333333,127.333333 L9.33333333,18 Z M16,18 L17.3333333,18 L17.3333333,127.333333 L16,127.333333 L16,18 Z M22.6666667,18 L24,18 L24,127.333333 L22.6666667,127.333333 L22.6666667,18 Z M29.3333333,18 L30.6666667,18 L30.6666667,127.333333 L29.3333333,127.333333 L29.3333333,18 Z M36,18 L37.3333333,18 L37.3333333,127.333333 L36,127.333333 L36,18 Z M42.6666667,18 L44,18 L44,127.333333 L42.6666667,127.333333 L42.6666667,18 Z" id="Combined-Shape" fill="#1D2F76"></path>
                        </g>
                        <g id="Group-11" transform="translate(92.000000, 33.333333)">
                            <rect id="Rectangle-22-Copy" fill="#1D2F76" x="46.6666667" y="13.3333333" width="26.6666667" height="93.3333333"></rect>
                            <rect id="Rectangle-22-Copy-4" fill="#1D2F76" x="33.3333333" y="0" width="26.6666667" height="46"></rect>
                            <path d="M50.6666667,18 L69.3333333,18 L69.3333333,18.6666667 L50.6666667,18.6666667 L50.6666667,18 Z M50.6666667,22.6666667 L69.3333333,22.6666667 L69.3333333,23.3333333 L50.6666667,23.3333333 L50.6666667,22.6666667 Z M50.6666667,27.3333333 L69.3333333,27.3333333 L69.3333333,28 L50.6666667,28 L50.6666667,27.3333333 Z M50.6666667,32 L69.3333333,32 L69.3333333,32.6666667 L50.6666667,32.6666667 L50.6666667,32 Z M50.6666667,36.6666667 L69.3333333,36.6666667 L69.3333333,37.3333333 L50.6666667,37.3333333 L50.6666667,36.6666667 Z M50.6666667,41.3333333 L69.3333333,41.3333333 L69.3333333,42 L50.6666667,42 L50.6666667,41.3333333 Z M50.6666667,46 L69.3333333,46 L69.3333333,46.6666667 L50.6666667,46.6666667 L50.6666667,46 Z M50.6666667,50.6666667 L69.3333333,50.6666667 L69.3333333,51.3333333 L50.6666667,51.3333333 L50.6666667,50.6666667 Z M50.6666667,55.3333333 L69.3333333,55.3333333 L69.3333333,56 L50.6666667,56 L50.6666667,55.3333333 Z M50.6666667,60 L69.3333333,60 L69.3333333,60.6666667 L50.6666667,60.6666667 L50.6666667,60 Z M50.6666667,64.6666667 L69.3333333,64.6666667 L69.3333333,65.3333333 L50.6666667,65.3333333 L50.6666667,64.6666667 Z M50.6666667,69.3333333 L69.3333333,69.3333333 L69.3333333,70 L50.6666667,70 L50.6666667,69.3333333 Z M50.6666667,74 L69.3333333,74 L69.3333333,74.6666667 L50.6666667,74.6666667 L50.6666667,74 Z M50.6666667,78.6666667 L69.3333333,78.6666667 L69.3333333,79.3333333 L50.6666667,79.3333333 L50.6666667,78.6666667 Z M50.6666667,83.3333333 L69.3333333,83.3333333 L69.3333333,84 L50.6666667,84 L50.6666667,83.3333333 Z M50.6666667,88 L69.3333333,88 L69.3333333,88.6666667 L50.6666667,88.6666667 L50.6666667,88 Z M50.6666667,92.6666667 L69.3333333,92.6666667 L69.3333333,93.3333333 L50.6666667,93.3333333 L50.6666667,92.6666667 Z M50.6666667,97.3333333 L69.3333333,97.3333333 L69.3333333,98 L50.6666667,98 L50.6666667,97.3333333 Z M50.6666667,102 L69.3333333,102 L69.3333333,102.666667 L50.6666667,102.666667 L50.6666667,102 Z" id="Combined-Shape" fill="#2F5DBD"></path>
                            <rect id="Rectangle-22" fill="#2C5BBF" x="0" y="13.3333333" width="46.6666667" height="93.3333333"></rect>
                            <rect id="Rectangle-22-Copy-3" fill="#2F5DBD" x="6.66666667" y="0" width="33.3333333" height="106.666667"></rect>
                            <path d="M15.3333333,86.6666667 L15.3333333,86.6666667 C17.9106622,86.6666667 20,88.7560045 20,91.3333333 L20,106.666667 L10.6666667,106.666667 L10.6666667,91.3333333 C10.6666667,88.7560045 12.7560045,86.6666667 15.3333333,86.6666667 Z" id="Rectangle-23" fill="#1D2F76"></path>
                            <path d="M31.3333333,86.6666667 L31.3333333,86.6666667 C33.9106622,86.6666667 36,88.7560045 36,91.3333333 L36,106.666667 L26.6666667,106.666667 L26.6666667,91.3333333 C26.6666667,88.7560045 28.7560045,86.6666667 31.3333333,86.6666667 Z" id="Rectangle-23-Copy" fill="#1D2F76"></path>
                            <g id="Group-14" transform="translate(6.666667, 22.666667)" fill="#1D2F76">
                                <path d="M0,0 L6.66666667,0 L6.66666667,5.33333333 L0,5.33333333 L0,0 Z M0,12 L6.66666667,12 L6.66666667,17.3333333 L0,17.3333333 L0,12 Z M0,24 L6.66666667,24 L6.66666667,29.3333333 L0,29.3333333 L0,24 Z M0,36 L6.66666667,36 L6.66666667,41.3333333 L0,41.3333333 L0,36 Z M0,48 L6.66666667,48 L6.66666667,53.3333333 L0,53.3333333 L0,48 Z M13.3333333,0 L20,0 L20,5.33333333 L13.3333333,5.33333333 L13.3333333,0 Z M13.3333333,12 L20,12 L20,17.3333333 L13.3333333,17.3333333 L13.3333333,12 Z M13.3333333,24 L20,24 L20,29.3333333 L13.3333333,29.3333333 L13.3333333,24 Z M13.3333333,36 L20,36 L20,41.3333333 L13.3333333,41.3333333 L13.3333333,36 Z M13.3333333,48 L20,48 L20,53.3333333 L13.3333333,53.3333333 L13.3333333,48 Z M26.6666667,0 L33.3333333,0 L33.3333333,5.33333333 L26.6666667,5.33333333 L26.6666667,0 Z M26.6666667,12 L33.3333333,12 L33.3333333,17.3333333 L26.6666667,17.3333333 L26.6666667,12 Z M26.6666667,24 L33.3333333,24 L33.3333333,29.3333333 L26.6666667,29.3333333 L26.6666667,24 Z M26.6666667,36 L33.3333333,36 L33.3333333,41.3333333 L26.6666667,41.3333333 L26.6666667,36 Z M26.6666667,48 L33.3333333,48 L33.3333333,53.3333333 L26.6666667,53.3333333 L26.6666667,48 Z" id="Combined-Shape"></path>
                            </g>
                        </g>
                        <g id="Group-5" transform="translate(72.000000, 120.666667) scale(-1, 1) translate(-72.000000, -120.666667) translate(52.000000, 100.666667)">
                            <g id="Group-3-Copy-6">
                                <rect id="Rectangle-4-Copy" fill="#4979DF" x="0" y="0" width="7.78816029" height="7.80567165"></rect>
                                <polygon id="Rectangle-4-Copy-2" fill="#1D2F76" points="7.78816029 0 7.78816029 7.80567165 0 7.80567165"></polygon>
                            </g>
                            <g id="Group-3-Copy-7" transform="translate(7.788160, 0.000000)">
                                <rect id="Rectangle-4-Copy" fill="#4979DF" x="0" y="0" width="7.78816029" height="7.80567165"></rect>
                                <polygon id="Rectangle-4-Copy-2" fill="#1D2F76" points="7.78816029 0 7.78816029 7.80567165 0 7.80567165"></polygon>
                            </g>
                            <g id="Group-3-Copy-8" transform="translate(15.576321, 0.000000)">
                                <rect id="Rectangle-4-Copy" fill="#4979DF" x="0" y="0" width="7.78816029" height="7.80567165"></rect>
                                <polygon id="Rectangle-4-Copy-2" fill="#1D2F76" points="7.78816029 0 7.78816029 7.80567165 0 7.80567165"></polygon>
                            </g>
                            <g id="Group-3-Copy-9" transform="translate(23.364481, 0.000000)">
                                <rect id="Rectangle-4-Copy" fill="#4979DF" x="0" y="0" width="7.78816029" height="7.80567165"></rect>
                                <polygon id="Rectangle-4-Copy-2" fill="#1D2F76" points="7.78816029 0 7.78816029 7.80567165 0 7.80567165"></polygon>
                            </g>
                            <g id="Group-3-Copy-10" transform="translate(31.152641, 0.000000)">
                                <rect id="Rectangle-4-Copy" fill="#4979DF" x="0" y="0" width="7.78816029" height="7.80567165"></rect>
                                <polygon id="Rectangle-4-Copy-2" fill="#1D2F76" points="7.78816029 0 7.78816029 7.80567165 0 7.80567165"></polygon>
                            </g>
                            <g id="Group-3-Copy-15" transform="translate(0.000000, 7.805672)">
                                <rect id="Rectangle-4-Copy" fill="#4979DF" x="0" y="0" width="7.78816029" height="7.80567165"></rect>
                                <polygon id="Rectangle-4-Copy-2" fill="#1D2F76" points="7.78816029 0 7.78816029 7.80567165 0 7.80567165"></polygon>
                            </g>
                            <g id="Group-3-Copy-14" transform="translate(7.788160, 7.805672)">
                                <rect id="Rectangle-4-Copy" fill="#4979DF" x="0" y="0" width="7.78816029" height="7.80567165"></rect>
                                <polygon id="Rectangle-4-Copy-2" fill="#1D2F76" points="7.78816029 0 7.78816029 7.80567165 0 7.80567165"></polygon>
                            </g>
                            <g id="Group-3-Copy-13" transform="translate(15.576321, 7.805672)">
                                <rect id="Rectangle-4-Copy" fill="#4979DF" x="0" y="0" width="7.78816029" height="7.80567165"></rect>
                                <polygon id="Rectangle-4-Copy-2" fill="#1D2F76" points="7.78816029 0 7.78816029 7.80567165 0 7.80567165"></polygon>
                            </g>
                            <g id="Group-3-Copy-12" transform="translate(23.364481, 7.805672)">
                                <rect id="Rectangle-4-Copy" fill="#4979DF" x="0" y="0" width="7.78816029" height="7.80567165"></rect>
                                <polygon id="Rectangle-4-Copy-2" fill="#1D2F76" points="7.78816029 0 7.78816029 7.80567165 0 7.80567165"></polygon>
                            </g>
                            <g id="Group-3-Copy-11" transform="translate(31.152641, 7.805672)">
                                <rect id="Rectangle-4-Copy" fill="#4979DF" x="0" y="0" width="7.78816029" height="7.80567165"></rect>
                                <polygon id="Rectangle-4-Copy-2" fill="#1D2F76" points="7.78816029 0 7.78816029 7.80567165 0 7.80567165"></polygon>
                            </g>
                            <g id="Group-3-Copy-20" transform="translate(0.000000, 15.611343)">
                                <rect id="Rectangle-4-Copy" fill="#4979DF" x="0" y="0" width="7.78816029" height="7.80567165"></rect>
                                <polygon id="Rectangle-4-Copy-2" fill="#1D2F76" points="7.78816029 0 7.78816029 7.80567165 0 7.80567165"></polygon>
                            </g>
                            <g id="Group-3-Copy-19" transform="translate(7.788160, 15.611343)">
                                <rect id="Rectangle-4-Copy" fill="#4979DF" x="0" y="0" width="7.78816029" height="7.80567165"></rect>
                                <polygon id="Rectangle-4-Copy-2" fill="#1D2F76" points="7.78816029 0 7.78816029 7.80567165 0 7.80567165"></polygon>
                            </g>
                            <g id="Group-3-Copy-18" transform="translate(15.576321, 15.611343)">
                                <rect id="Rectangle-4-Copy" fill="#4979DF" x="0" y="0" width="7.78816029" height="7.80567165"></rect>
                                <polygon id="Rectangle-4-Copy-2" fill="#1D2F76" points="7.78816029 0 7.78816029 7.80567165 0 7.80567165"></polygon>
                            </g>
                            <g id="Group-3-Copy-17" transform="translate(23.364481, 15.611343)">
                                <rect id="Rectangle-4-Copy" fill="#4979DF" x="0" y="0" width="7.78816029" height="7.80567165"></rect>
                                <polygon id="Rectangle-4-Copy-2" fill="#1D2F76" points="7.78816029 0 7.78816029 7.80567165 0 7.80567165"></polygon>
                            </g>
                            <g id="Group-3-Copy-16" transform="translate(31.152641, 15.611343)">
                                <rect id="Rectangle-4-Copy" fill="#4979DF" x="0" y="0" width="7.78816029" height="7.80567165"></rect>
                                <polygon id="Rectangle-4-Copy-2" fill="#1D2F76" points="7.78816029 0 7.78816029 7.80567165 0 7.80567165"></polygon>
                            </g>
                            <g id="Group-3-Copy-30" transform="translate(0.000000, 23.417015)">
                                <rect id="Rectangle-4-Copy" fill="#4979DF" x="0" y="0" width="7.78816029" height="7.80567165"></rect>
                                <polygon id="Rectangle-4-Copy-2" fill="#1D2F76" points="7.78816029 0 7.78816029 7.80567165 0 7.80567165"></polygon>
                            </g>
                            <g id="Group-3-Copy-29" transform="translate(7.788160, 23.417015)">
                                <rect id="Rectangle-4-Copy" fill="#4979DF" x="0" y="0" width="7.78816029" height="7.80567165"></rect>
                                <polygon id="Rectangle-4-Copy-2" fill="#1D2F76" points="7.78816029 0 7.78816029 7.80567165 0 7.80567165"></polygon>
                            </g>
                            <g id="Group-3-Copy-28" transform="translate(15.576321, 23.417015)">
                                <rect id="Rectangle-4-Copy" fill="#4979DF" x="0" y="0" width="7.78816029" height="7.80567165"></rect>
                                <polygon id="Rectangle-4-Copy-2" fill="#1D2F76" points="7.78816029 0 7.78816029 7.80567165 0 7.80567165"></polygon>
                            </g>
                            <g id="Group-3-Copy-27" transform="translate(23.364481, 23.417015)">
                                <rect id="Rectangle-4-Copy" fill="#4979DF" x="0" y="0" width="7.78816029" height="7.80567165"></rect>
                                <polygon id="Rectangle-4-Copy-2" fill="#1D2F76" points="7.78816029 0 7.78816029 7.80567165 0 7.80567165"></polygon>
                            </g>
                            <g id="Group-3-Copy-26" transform="translate(31.152641, 23.417015)">
                                <rect id="Rectangle-4-Copy" fill="#4979DF" x="0" y="0" width="7.78816029" height="7.80567165"></rect>
                                <polygon id="Rectangle-4-Copy-2" fill="#1D2F76" points="7.78816029 0 7.78816029 7.80567165 0 7.80567165"></polygon>
                            </g>
                            <g id="Group-3-Copy-25" transform="translate(0.000000, 31.222687)">
                                <rect id="Rectangle-4-Copy" fill="#4979DF" x="0" y="0" width="7.78816029" height="7.80567165"></rect>
                                <polygon id="Rectangle-4-Copy-2" fill="#1D2F76" points="7.78816029 0 7.78816029 7.80567165 0 7.80567165"></polygon>
                            </g>
                            <g id="Group-3-Copy-24" transform="translate(7.788160, 31.222687)">
                                <rect id="Rectangle-4-Copy" fill="#4979DF" x="0" y="0" width="7.78816029" height="7.80567165"></rect>
                                <polygon id="Rectangle-4-Copy-2" fill="#1D2F76" points="7.78816029 0 7.78816029 7.80567165 0 7.80567165"></polygon>
                            </g>
                            <g id="Group-3-Copy-23" transform="translate(15.576321, 31.222687)">
                                <rect id="Rectangle-4-Copy" fill="#4979DF" x="0" y="0" width="7.78816029" height="7.80567165"></rect>
                                <polygon id="Rectangle-4-Copy-2" fill="#1D2F76" points="7.78816029 0 7.78816029 7.80567165 0 7.80567165"></polygon>
                            </g>
                            <g id="Group-3-Copy-22" transform="translate(23.364481, 31.222687)">
                                <rect id="Rectangle-4-Copy" fill="#4979DF" x="0" y="0" width="7.78816029" height="7.80567165"></rect>
                                <polygon id="Rectangle-4-Copy-2" fill="#1D2F76" points="7.78816029 0 7.78816029 7.80567165 0 7.80567165"></polygon>
                            </g>
                            <g id="Group-3-Copy-21" transform="translate(31.152641, 31.222687)">
                                <rect id="Rectangle-4-Copy" fill="#4979DF" x="0" y="0" width="7.78816029" height="7.80567165"></rect>
                                <polygon id="Rectangle-4-Copy-2" fill="#1D2F76" points="7.78816029 0 7.78816029 7.80567165 0 7.80567165"></polygon>
                            </g>
                        </g>
                        <g id="Group-15" transform="translate(58.666667, 55.333333)">
                            <rect id="Rectangle-26" fill="#4979DF" x="0" y="0" width="33.3333333" height="45.3333333"></rect>
                            <polygon id="Rectangle-26-Copy" fill="#1D2F76" opacity="0.5" points="0 0 33.3333333 45.3333333 0 45.3333333"></polygon>
                            <mask id="mask-2" fill="white">
                                <use xlink:href="#path-1"></use>
                            </mask>
                            <use id="Mask" fill="#1D2F76" xlink:href="#path-1"></use>
                        </g>
                    </g>
                </g>
                <g id="Group-16" transform="translate(133.000000, 33.000000)">
                    <rect id="Rectangle-28-Copy" fill="#1D2F76" x="19.9090909" y="0" width="53.0909091" height="107"></rect>
                    <rect id="Rectangle-28" fill="#2F5DBD" x="0" y="0" width="53.0909091" height="107"></rect>
                    <path d="M9.29090909,12.0375 L10.6181818,12.0375 L10.6181818,94.9625 L9.29090909,94.9625 L9.29090909,12.0375 Z M15.9272727,12.0375 L17.2545455,12.0375 L17.2545455,94.9625 L15.9272727,94.9625 L15.9272727,12.0375 Z M22.5636364,12.0375 L23.8909091,12.0375 L23.8909091,94.9625 L22.5636364,94.9625 L22.5636364,12.0375 Z M29.2,12.0375 L30.5272727,12.0375 L30.5272727,94.9625 L29.2,94.9625 L29.2,12.0375 Z M35.8363636,12.0375 L37.1636364,12.0375 L37.1636364,94.9625 L35.8363636,94.9625 L35.8363636,12.0375 Z M42.4727273,12.0375 L43.8,12.0375 L43.8,94.9625 L42.4727273,94.9625 L42.4727273,12.0375 Z" id="Combined-Shape" fill="#1D2F76"></path>
                </g>
                <g id="Group-67" transform="translate(607.000000, 57.000000)">
                    <path d="M0,0 L91,0 C125.241654,-6.29008989e-15 153,27.7583455 153,62 L153,83 L0,83 L0,0 Z" id="Rectangle-31" fill="#2F5DBD"></path>
                    <path d="M16.6304348,52.8790323 L22.6173913,52.8790323 L22.6173913,58.9032258 L16.6304348,58.9032258 L16.6304348,52.8790323 Z M29.2695652,52.8790323 L35.2565217,52.8790323 L35.2565217,58.9032258 L29.2695652,58.9032258 L29.2695652,52.8790323 Z M16.6304348,65.5967742 L22.6173913,65.5967742 L22.6173913,71.6209677 L16.6304348,71.6209677 L16.6304348,65.5967742 Z M29.2695652,65.5967742 L35.2565217,65.5967742 L35.2565217,71.6209677 L29.2695652,71.6209677 L29.2695652,65.5967742 Z M41.9086957,52.8790323 L47.8956522,52.8790323 L47.8956522,58.9032258 L41.9086957,58.9032258 L41.9086957,52.8790323 Z M41.9086957,65.5967742 L47.8956522,65.5967742 L47.8956522,71.6209677 L41.9086957,71.6209677 L41.9086957,65.5967742 Z M54.5478261,52.8790323 L60.5347826,52.8790323 L60.5347826,58.9032258 L54.5478261,58.9032258 L54.5478261,52.8790323 Z M54.5478261,65.5967742 L60.5347826,65.5967742 L60.5347826,71.6209677 L54.5478261,71.6209677 L54.5478261,65.5967742 Z M67.1869565,52.8790323 L73.173913,52.8790323 L73.173913,58.9032258 L67.1869565,58.9032258 L67.1869565,52.8790323 Z M67.1869565,65.5967742 L73.173913,65.5967742 L73.173913,71.6209677 L67.1869565,71.6209677 L67.1869565,65.5967742 Z M79.826087,52.8790323 L85.8130435,52.8790323 L85.8130435,58.9032258 L79.826087,58.9032258 L79.826087,52.8790323 Z M79.826087,65.5967742 L85.8130435,65.5967742 L85.8130435,71.6209677 L79.826087,71.6209677 L79.826087,65.5967742 Z M92.4652174,52.8790323 L98.4521739,52.8790323 L98.4521739,58.9032258 L92.4652174,58.9032258 L92.4652174,52.8790323 Z M92.4652174,65.5967742 L98.4521739,65.5967742 L98.4521739,71.6209677 L92.4652174,71.6209677 L92.4652174,65.5967742 Z M105.104348,52.8790323 L111.091304,52.8790323 L111.091304,58.9032258 L105.104348,58.9032258 L105.104348,52.8790323 Z M105.104348,65.5967742 L111.091304,65.5967742 L111.091304,71.6209677 L105.104348,71.6209677 L105.104348,65.5967742 Z M117.743478,52.8790323 L123.730435,52.8790323 L123.730435,58.9032258 L117.743478,58.9032258 L117.743478,52.8790323 Z M117.743478,65.5967742 L123.730435,65.5967742 L123.730435,71.6209677 L117.743478,71.6209677 L117.743478,65.5967742 Z M130.382609,52.8790323 L136.369565,52.8790323 L136.369565,58.9032258 L130.382609,58.9032258 L130.382609,52.8790323 Z M130.382609,65.5967742 L136.369565,65.5967742 L136.369565,71.6209677 L130.382609,71.6209677 L130.382609,65.5967742 Z" id="Combined-Shape" fill="#FFFFFF"></path>
                    <g id="Group-18">
                        <mask id="mask-4" fill="white">
                            <use xlink:href="#path-3"></use>
                        </mask>
                        <use id="Rectangle-31-Copy" fill="#1D2F76" xlink:href="#path-3"></use>
                    </g>
                </g>
                <g id="Group-15-Copy" transform="translate(206.000000, 67.000000)">
                    <polygon id="Rectangle-26" fill="#4979DF" points="0 27.4587156 39 27.4587156 39 73 0 73"></polygon>
                    <rect id="Rectangle-91" fill="#1D2F76" x="14.5423729" y="0" width="24.4576271" height="27.4587156"></rect>
                    <path d="M26.4939858,9.37614679 L26.4939858,9.37614679 C28.3487748,9.37614679 29.8523783,10.8797504 29.8523783,12.7345394 L29.8523783,20.3149847 L23.1355932,20.3149847 L23.1355932,12.7345394 C23.1355932,10.8797504 24.6391968,9.37614679 26.4939858,9.37614679 Z" id="Rectangle-4-Copy-5" fill="#3354AA"></path>
                    <polygon id="Rectangle-26-Copy" fill="#1D2F76" opacity="0.5" points="0 27.4587156 33.0508475 73 0 73"></polygon>
                    <mask id="mask-6" fill="white">
                        <use xlink:href="#path-5"></use>
                    </mask>
                    <use id="Mask" fill="#1D2F76" xlink:href="#path-5"></use>
                </g>
            </g>
        </g>
    </g>
</svg>