<?xml version="1.0" encoding="UTF-8"?>
<svg width="570px" height="400px" viewBox="0 0 570 400" version="1.1" xmlns="http://www.w3.org/2000/svg" xmlns:xlink="http://www.w3.org/1999/xlink">
    <!-- Generator: Sketch 52.6 (67491) - http://www.bohemiancoding.com/sketch -->
    <title>Group 51</title>
    <desc>Created with Sketch.</desc>
    <defs>
        <linearGradient x1="-133.206517%" y1="0%" x2="143.178214%" y2="76.8724474%" id="linearGradient-1">
            <stop stop-color="#5648D6" offset="0%"></stop>
            <stop stop-color="#9FDDFF" offset="100%"></stop>
        </linearGradient>
        <linearGradient x1="85.3553391%" y1="14.6446609%" x2="14.6446609%" y2="85.3553391%" id="linearGradient-2">
            <stop stop-color="#F4FAFF" offset="0%"></stop>
            <stop stop-color="#CBE7FF" offset="100%"></stop>
        </linearGradient>
        <linearGradient x1="-63.6052258%" y1="-45.2091739%" x2="143.178214%" y2="76.8724474%" id="linearGradient-3">
            <stop stop-color="#5648D6" offset="0%"></stop>
            <stop stop-color="#78CAF7" offset="100%"></stop>
        </linearGradient>
    </defs>
    <g id="Industries" stroke="none" stroke-width="1" fill="none" fill-rule="evenodd">
        <g transform="translate(-1251.000000, -2217.000000)" id="Group-51">
            <g transform="translate(1251.000000, 2217.000000)">
                <g id="Group-64" opacity="0.5" transform="translate(0.000000, 68.000000)" fill="url(#linearGradient-1)">
                    <path d="M486.373446,48.5243766 C597.854944,113.349394 597.879695,218.650793 486.422619,283.477441 C375.18948,348.173841 194.883382,348.17452 83.6219587,283.477474 C-27.8553169,218.654911 -27.8762589,113.346386 83.5727853,48.5244093 C194.81148,-16.175222 375.109094,-16.1743733 486.373446,48.5243766 Z M84.2381644,282.417849 C195.118627,346.893372 374.954139,346.892695 485.806301,282.417882 C596.450569,218.063986 596.426094,113.936477 485.75724,49.5840012 C374.873846,-14.8932269 195.046817,-14.8940734 84.1891036,49.5839685 C-26.4471542,113.933205 -26.4264457,218.067841 84.2381644,282.417849 Z" id="Shape" opacity="0.400000006"></path>
                    <path d="M122.740664,72.670666 C211.630112,20.91075 355.70368,20.911429 444.61363,72.6706398 C533.696824,124.530705 533.716603,208.771405 444.652924,260.632775 C355.767915,312.390106 211.687568,312.390649 122.779958,260.632801 C33.7001378,208.7747 33.6834035,124.528299 122.740664,72.670666 Z M123.23382,73.5176201 C34.8258631,124.997166 34.842411,208.305631 123.273024,259.785795 C211.875848,311.36621 355.579559,311.365669 444.159768,259.785821 C532.574126,208.302547 532.554568,124.999783 444.120564,73.5176463 C355.515398,21.9358665 211.818466,21.9351892 123.23382,73.5176201 Z" id="Shape" opacity="0.400000006"></path>
                    <path d="M154.932133,92.4002523 C226.043748,50.7891889 341.302738,50.7897348 412.430755,92.4002313 C483.697144,134.091676 483.712966,201.814326 412.46219,243.50682 C341.354126,285.115805 226.089713,285.116242 154.963568,243.506841 C83.6998778,201.816975 83.6864905,134.089742 154.932133,92.4002523 Z M155.326535,93.0802695 C84.5997965,134.466122 84.613035,201.440434 155.357898,242.826782 C226.240305,284.293594 341.203472,284.293159 412.067788,242.826803 C482.799647,201.437954 482.784,134.468225 412.036425,93.0802905 C341.152143,51.6123813 226.1944,51.6118369 155.326535,93.0802695 Z" id="Shape" opacity="0.400000006"></path>
                    <path d="M192.109617,112.095307 C243.409375,82.4150979 326.553999,82.4154872 377.865588,112.095291 C429.286455,141.838303 429.297874,190.161777 377.888264,219.905542 C326.591067,249.584269 243.442532,249.58458 192.132293,219.905558 C140.713372,190.163671 140.703711,141.836929 192.109617,112.095307 Z M192.416859,112.624615 C141.418386,142.13051 141.42793,189.869965 192.439479,219.376218 C243.559709,248.945335 326.473841,248.945024 377.581022,219.376234 C428.583188,189.868202 428.571908,142.132016 377.558402,112.624631 C326.43682,83.0547316 243.526599,83.0543434 192.416859,112.624615 Z" id="Shape" opacity="0.400000006"></path>
                </g>
                <g id="Group-31" transform="translate(81.000000, 107.000000)">
                    <g id="Group-26" transform="translate(0.355180, 0.409092)">
                        <path d="M434.314654,168.654106 L278.580582,258.920497 C269.667531,264.086669 258.686198,264.086669 249.773146,258.920497 L4.96516035,117.025194 C1.88805625,115.241646 0.166204964,112.006516 0.162324122,108.678801 C0.16104973,107.586045 0.16104973,105.421848 0.162324122,102.18621 C2.39104077,101.511382 3.99198618,100.891933 4.96516035,100.327863 L160.699232,10.061472 C169.612283,4.8952998 180.593616,4.8952998 189.506668,10.061472 L434.314654,151.956775 C435.394451,152.582646 436.995257,153.184163 439.117072,153.761326 C439.107392,157.037033 439.107392,159.191193 439.117072,160.223805 C439.132677,161.88862 438.718616,163.579335 437.829405,165.125545 C436.986611,166.591042 435.774415,167.808001 434.314654,168.654106 Z" id="Polygon" fill="#5D63DD"></path>
                        <path d="M434.314654,162.869981 L278.580582,253.136372 C269.667531,258.302544 258.686198,258.302544 249.773146,253.136372 L4.96516035,111.241069 C0.372365548,108.578998 -1.20124216,102.683139 1.45040915,98.0722988 C2.2932027,96.6068019 3.5053991,95.3898426 4.96516035,94.5437376 L160.699232,4.27734686 C169.612283,-0.888825302 180.593616,-0.888825302 189.506668,4.27734686 L434.314654,146.17265 C438.907448,148.83472 440.481056,154.730579 437.829405,159.34142 C436.986611,160.806917 435.774415,162.023876 434.314654,162.869981 Z" id="Polygon" fill="url(#linearGradient-1)"></path>
                        <path d="M100.499782,54.6346314 C101.006859,54.3406376 101.006859,53.8639793 100.499782,53.5699855 C99.9927047,53.2759916 99.1705698,53.2759916 98.6634924,53.5699855 C98.156415,53.8639793 98.156415,54.3406376 98.6634924,54.6346314 C99.1705698,54.9286253 99.9927047,54.9286253 100.499782,54.6346314 Z" id="Path" fill="#5D63DD"></path>
                        <path d="M349.144212,204.075492 C352.182616,202.313884 352.182616,199.457752 349.144212,197.696143 C346.105809,195.934535 341.179584,195.934535 338.141181,197.696143 C335.102778,199.457752 335.102778,202.313884 338.141181,204.075492 C341.179584,205.837101 346.105809,205.837101 349.144212,204.075492 Z" id="Path" fill="#5D63DD"></path>
                        <path d="M335.918162,201.426633 C335.643281,200.099323 336.384288,198.714757 338.141181,197.696143 C341.179584,195.934535 346.105809,195.934535 349.144212,197.696143 C350.901106,198.714757 351.642112,200.099323 351.367232,201.426633 C351.166729,200.458469 350.425722,199.520768 349.144212,198.777773 C346.105809,197.016165 341.179584,197.016165 338.141181,198.777773 C336.859671,199.520768 336.118665,200.458469 335.918162,201.426633 Z" id="Combined-Shape" fill="#3D44CE"></path>
                        <path d="M416.278611,148.43763 L253.322378,242.890121 C252.159323,243.56425 250.724399,243.56425 249.561344,242.890121 L22.2008711,111.107724 C21.4841372,110.692292 21.2398841,109.774489 21.6553165,109.057756 C21.7864894,108.831447 21.9745622,108.643374 22.2008711,108.512201 L185.157104,14.0597099 C186.320159,13.3855814 187.755083,13.3855814 188.918138,14.0597099 L416.278611,145.842107 C416.995345,146.25754 417.239598,147.175342 416.824165,147.892076 C416.692993,148.118385 416.50492,148.306457 416.278611,148.43763 Z" id="Polygon" fill="url(#linearGradient-2)" fill-rule="nonzero"></path>
                        <path d="M304.710872,188.05982 L302.486749,186.782207 L298.528487,189.07045 L294.33799,186.663285 L298.296253,184.375042 L296.034481,183.075803 L327.230632,165.041535 L329.492404,166.340774 L334.498629,163.446712 L338.689126,165.853877 L333.6829,168.747939 L335.907023,170.025552 L340.913249,167.131489 L345.103745,169.538655 L340.004342,172.486583 C344.455944,175.724198 343.934257,179.270377 339.550691,181.804485 C336.338676,183.661327 331.806654,184.049953 328.330637,183.067438 C330.618648,185.243845 330.310647,188.261739 326.438628,190.500125 C321.616298,193.287878 314.635941,193.362099 308.925312,190.453144 L304.943106,192.755228 L300.75261,190.348063 L304.710872,188.05982 Z M320.322598,175.931774 L324.634619,178.408747 C327.406632,180.001087 330.618648,180.071278 332.99466,178.697723 C335.370671,177.324168 335.326671,175.574704 332.378657,173.881264 L328.110636,171.429566 L320.322598,175.931774 Z M307.078534,183.588071 L312.006558,186.418897 C314.954572,188.112338 318.254588,188.23308 320.7626,186.783217 C323.226612,185.358789 323.358613,183.456869 320.322598,181.712878 L315.306574,178.831501 L307.078534,183.588071 Z" id="Combined-Shape" fill="url(#linearGradient-1)" fill-rule="nonzero"></path>
                        <path d="M307.182123,146.442514 L301.8291,143.28195 L306.882199,140.298468 C303.077412,136.814837 302.907564,132.477006 306.427252,129.271473 L307.076124,128.680518 L314.502483,131.356904 L312.826228,132.993013 C311.123269,134.655185 311.516311,136.285958 314.528761,138.064587 C317.559123,139.853792 321.102369,140.123937 323.316129,138.816874 C324.53442,138.097564 324.532294,137.436864 323.096378,136.110807 L319.812515,133.094743 C315.609736,129.195331 315.806526,124.873427 320.449306,122.132208 C324.964184,119.466506 331.832816,119.378197 337.525409,121.817673 L337.906425,121.980952 L342.721626,119.137931 L348.074649,122.298496 L342.835045,125.392095 C345.610169,128.235324 345.809355,131.523972 343.392759,134.315866 L342.75749,135.049792 L335.300084,132.597461 L336.658793,130.941667 C337.657995,129.723986 337.340317,128.622506 335.056452,127.274052 C332.226392,125.603111 328.517058,125.40944 326.314588,126.709836 C325.17148,127.384757 325.158502,127.978599 326.464132,129.166521 L329.625738,132.153566 C334.111059,136.315167 333.920831,140.64996 329.135906,143.475105 C324.732546,146.074964 318.141982,146.189071 312.423962,143.735956 L312.043008,143.572521 L307.182123,146.442514 Z" id="$" fill="url(#linearGradient-1)" fill-rule="nonzero"></path>
                        <path d="M323.253161,105.317439 L231.581221,158.452216 C228.571385,160.196773 224.863115,160.196773 221.853279,158.452216 L90.7187924,82.4442057 C88.8576714,81.3654651 88.2200043,78.9763082 89.294523,77.1078746 C89.636045,76.5140168 90.1272588,76.0208729 90.7187924,75.678009 L182.390732,22.543232 C185.400568,20.7986748 189.108838,20.7986748 192.118673,22.543232 L323.253161,98.551242 C325.114282,99.6299827 325.751949,102.01914 324.67743,103.887573 C324.335908,104.481431 323.844694,104.974575 323.253161,105.317439 Z" id="Polygon" fill="#C0DFFF" fill-rule="nonzero"></path>
                        <path d="M139.412717,121.060323 L99.6619149,144.100634 C98.3567896,144.857109 96.7488088,144.857109 95.4436834,144.100634 L38.5811246,111.142028 C37.774105,110.674264 37.4975997,109.638278 37.9635327,108.828087 C38.1116235,108.570578 38.3246238,108.356741 38.5811246,108.208069 L78.3319269,85.1677574 C79.6370523,84.4112823 81.2450331,84.4112823 82.5501585,85.1677574 L139.412717,118.126364 C140.219737,118.594127 140.496242,119.630114 140.030309,120.440305 C139.882218,120.697813 139.669218,120.91165 139.412717,121.060323 Z" id="Polygon" fill="#C0DFFF" fill-rule="nonzero"></path>
                        <path d="M207.145337,31.2529684 L103.963817,90.1212708 L90.7187924,82.4442057 C88.8576714,81.3654651 88.2200043,78.9763082 89.294523,77.1078746 C89.636045,76.5140168 90.1272588,76.0208729 90.7187924,75.678009 L182.390732,22.543232 C185.400568,20.7986748 189.108838,20.7986748 192.118673,22.543232 L207.145337,31.2529684 Z M124.404385,101.969008 L227.585905,43.1007051 L248.026473,54.9484418 L144.844953,113.816744 L124.404385,101.969008 Z M165.285521,125.664481 L268.467041,66.7961785 L288.907608,78.6439152 L185.726088,137.512218 L165.285521,125.664481 Z M206.166656,149.359954 L309.348176,90.491652 L323.253161,98.551242 C325.114282,99.6299827 325.751949,102.01914 324.67743,103.887573 C324.335908,104.481431 323.844694,104.974575 323.253161,105.317439 L240.642901,153.199896 L230.463361,159.007644 C227.686438,160.171361 224.49985,159.986218 221.853279,158.452216 L206.166656,149.359954 Z" id="Combined-Shape" fill="#C0DFFF" fill-rule="nonzero" style="mix-blend-mode: multiply;" opacity="0.300000012"></path>
                        <g id="Group-38" transform="translate(109.676281, 26.659352)" fill-rule="nonzero">
                            <path d="M105.392762,21.8525151 C104.69874,22.2547833 103.84367,22.2547833 103.149648,21.8525151 L72.9120412,4.32623086 C72.4828951,4.07748977 72.3358588,3.52658675 72.5836264,3.09575454 C72.6623762,2.95882001 72.7756426,2.84510859 72.9120412,2.7660494 L76.8768968,0.467944661 C77.5709188,0.0656764754 78.4259892,0.0656764754 79.1200112,0.467944661 L109.357618,17.994229 C109.786764,18.24297 109.9338,18.7938731 109.686032,19.2247053 C109.607283,19.3616398 109.494016,19.4753512 109.357618,19.5544104 L105.392762,21.8525151 Z M79.4895849,19.1202372 C78.7955628,19.5225053 77.9404925,19.5225053 77.2464704,19.1202372 L62.5300703,10.5903354 C62.1009242,10.3415943 61.953888,9.79069128 62.2016555,9.35985907 C62.2804053,9.22292455 62.3936717,9.10921312 62.5300703,9.03015394 L66.4949259,6.73204919 C67.1889479,6.32978101 68.0440183,6.32978101 68.7380403,6.73204919 L83.4544405,15.261951 C83.8835865,15.510692 84.0306228,16.0615951 83.7828552,16.4924273 C83.7041055,16.6293618 83.5908391,16.7430732 83.4544405,16.8221324 L79.4895849,19.1202372 Z" id="Combined-Shape" fill="#FFFFFF"></path>
                            <path d="M37.0001306,125.948188 C36.3061086,126.350456 35.4510382,126.350456 34.7570162,125.948188 L11.5967907,112.524087 C11.1676446,112.275346 11.0206084,111.724443 11.2683759,111.29361 C11.3471257,111.156676 11.4603921,111.042964 11.5967907,110.963905 L15.5616463,108.665801 C16.2556683,108.263532 17.1107387,108.263532 17.8047607,108.665801 L40.9649862,122.089902 C41.3941323,122.338643 41.5411686,122.889546 41.293401,123.320378 C41.2146512,123.457313 41.1013848,123.571024 40.9649862,123.650083 L37.0001306,125.948188 Z M17.9324499,127.167571 C17.2384279,127.569839 16.3833575,127.569839 15.6893355,127.167571 L0.972935318,118.637669 C0.543789287,118.388928 0.396752999,117.838025 0.644520575,117.407193 C0.723270339,117.270258 0.836536726,117.156547 0.972935318,117.077487 L4.93779095,114.779383 C5.63181296,114.377115 6.48688334,114.377115 7.18090536,114.779383 L21.8973055,123.309284 C22.3264516,123.558026 22.4734878,124.108929 22.2257203,124.539761 C22.1469705,124.676695 22.0337041,124.790407 21.8973055,124.869466 L17.9324499,127.167571 Z M39.2827844,114.742524 C38.5887624,115.144793 37.733692,115.144793 37.03967,114.742524 L22.3232698,106.212623 C21.8941238,105.963882 21.7470875,105.412979 21.9948551,104.982146 C22.0736048,104.845212 22.1868712,104.7315 22.3232698,104.652441 L26.2881254,102.354336 C26.9821474,101.952068 27.8372178,101.952068 28.5312398,102.354336 L43.24764,110.884238 C43.676786,111.132979 43.8238223,111.683882 43.5760547,112.114715 C43.497305,112.251649 43.3840386,112.365361 43.24764,112.44442 L39.2827844,114.742524 Z" id="Combined-Shape" fill="#C0DFFF"></path>
                        </g>
                        <polygon id="Path-7" fill="url(#linearGradient-1)" fill-rule="nonzero" points="247.044894 165.816351 240.030693 162.409028 391.786575 146.294858 398.800776 149.702181"></polygon>
                    </g>
                </g>
                <g id="Group-31" transform="translate(81.000000, 107.000000)">
                    <g id="Group-26" transform="translate(0.355180, 0.409092)">
                        <path d="M434.314654,168.654106 L278.580582,258.920497 C269.667531,264.086669 258.686198,264.086669 249.773146,258.920497 L4.96516035,117.025194 C1.88805625,115.241646 0.166204964,112.006516 0.162324122,108.678801 C0.16104973,107.586045 0.16104973,105.421848 0.162324122,102.18621 C2.39104077,101.511382 3.99198618,100.891933 4.96516035,100.327863 L160.699232,10.061472 C169.612283,4.8952998 180.593616,4.8952998 189.506668,10.061472 L434.314654,151.956775 C435.394451,152.582646 436.995257,153.184163 439.117072,153.761326 C439.107392,157.037033 439.107392,159.191193 439.117072,160.223805 C439.132677,161.88862 438.718616,163.579335 437.829405,165.125545 C436.986611,166.591042 435.774415,167.808001 434.314654,168.654106 Z" id="Polygon" fill="#5D63DD"></path>
                        <path d="M434.314654,162.869981 L278.580582,253.136372 C269.667531,258.302544 258.686198,258.302544 249.773146,253.136372 L4.96516035,111.241069 C0.372365548,108.578998 -1.20124216,102.683139 1.45040915,98.0722988 C2.2932027,96.6068019 3.5053991,95.3898426 4.96516035,94.5437376 L160.699232,4.27734686 C169.612283,-0.888825302 180.593616,-0.888825302 189.506668,4.27734686 L434.314654,146.17265 C438.907448,148.83472 440.481056,154.730579 437.829405,159.34142 C436.986611,160.806917 435.774415,162.023876 434.314654,162.869981 Z" id="Polygon" fill="url(#linearGradient-1)"></path>
                        <path d="M100.499782,54.6346314 C101.006859,54.3406376 101.006859,53.8639793 100.499782,53.5699855 C99.9927047,53.2759916 99.1705698,53.2759916 98.6634924,53.5699855 C98.156415,53.8639793 98.156415,54.3406376 98.6634924,54.6346314 C99.1705698,54.9286253 99.9927047,54.9286253 100.499782,54.6346314 Z" id="Path" fill="#5D63DD"></path>
                        <path d="M349.144212,204.075492 C352.182616,202.313884 352.182616,199.457752 349.144212,197.696143 C346.105809,195.934535 341.179584,195.934535 338.141181,197.696143 C335.102778,199.457752 335.102778,202.313884 338.141181,204.075492 C341.179584,205.837101 346.105809,205.837101 349.144212,204.075492 Z" id="Path" fill="#5D63DD"></path>
                        <path d="M335.918162,201.426633 C335.643281,200.099323 336.384288,198.714757 338.141181,197.696143 C341.179584,195.934535 346.105809,195.934535 349.144212,197.696143 C350.901106,198.714757 351.642112,200.099323 351.367232,201.426633 C351.166729,200.458469 350.425722,199.520768 349.144212,198.777773 C346.105809,197.016165 341.179584,197.016165 338.141181,198.777773 C336.859671,199.520768 336.118665,200.458469 335.918162,201.426633 Z" id="Combined-Shape" fill="#3D44CE"></path>
                        <path d="M416.278611,148.43763 L253.322378,242.890121 C252.159323,243.56425 250.724399,243.56425 249.561344,242.890121 L22.2008711,111.107724 C21.4841372,110.692292 21.2398841,109.774489 21.6553165,109.057756 C21.7864894,108.831447 21.9745622,108.643374 22.2008711,108.512201 L185.157104,14.0597099 C186.320159,13.3855814 187.755083,13.3855814 188.918138,14.0597099 L416.278611,145.842107 C416.995345,146.25754 417.239598,147.175342 416.824165,147.892076 C416.692993,148.118385 416.50492,148.306457 416.278611,148.43763 Z" id="Polygon" fill="url(#linearGradient-2)" fill-rule="nonzero"></path>
                        <path d="M304.710872,188.05982 L302.486749,186.782207 L298.528487,189.07045 L294.33799,186.663285 L298.296253,184.375042 L296.034481,183.075803 L327.230632,165.041535 L329.492404,166.340774 L334.498629,163.446712 L338.689126,165.853877 L333.6829,168.747939 L335.907023,170.025552 L340.913249,167.131489 L345.103745,169.538655 L340.004342,172.486583 C344.455944,175.724198 343.934257,179.270377 339.550691,181.804485 C336.338676,183.661327 331.806654,184.049953 328.330637,183.067438 C330.618648,185.243845 330.310647,188.261739 326.438628,190.500125 C321.616298,193.287878 314.635941,193.362099 308.925312,190.453144 L304.943106,192.755228 L300.75261,190.348063 L304.710872,188.05982 Z M320.322598,175.931774 L324.634619,178.408747 C327.406632,180.001087 330.618648,180.071278 332.99466,178.697723 C335.370671,177.324168 335.326671,175.574704 332.378657,173.881264 L328.110636,171.429566 L320.322598,175.931774 Z M307.078534,183.588071 L312.006558,186.418897 C314.954572,188.112338 318.254588,188.23308 320.7626,186.783217 C323.226612,185.358789 323.358613,183.456869 320.322598,181.712878 L315.306574,178.831501 L307.078534,183.588071 Z" id="Combined-Shape" fill="url(#linearGradient-1)" fill-rule="nonzero"></path>
                        <path d="M307.182123,146.442514 L301.8291,143.28195 L306.882199,140.298468 C303.077412,136.814837 302.907564,132.477006 306.427252,129.271473 L307.076124,128.680518 L314.502483,131.356904 L312.826228,132.993013 C311.123269,134.655185 311.516311,136.285958 314.528761,138.064587 C317.559123,139.853792 321.102369,140.123937 323.316129,138.816874 C324.53442,138.097564 324.532294,137.436864 323.096378,136.110807 L319.812515,133.094743 C315.609736,129.195331 315.806526,124.873427 320.449306,122.132208 C324.964184,119.466506 331.832816,119.378197 337.525409,121.817673 L337.906425,121.980952 L342.721626,119.137931 L348.074649,122.298496 L342.835045,125.392095 C345.610169,128.235324 345.809355,131.523972 343.392759,134.315866 L342.75749,135.049792 L335.300084,132.597461 L336.658793,130.941667 C337.657995,129.723986 337.340317,128.622506 335.056452,127.274052 C332.226392,125.603111 328.517058,125.40944 326.314588,126.709836 C325.17148,127.384757 325.158502,127.978599 326.464132,129.166521 L329.625738,132.153566 C334.111059,136.315167 333.920831,140.64996 329.135906,143.475105 C324.732546,146.074964 318.141982,146.189071 312.423962,143.735956 L312.043008,143.572521 L307.182123,146.442514 Z" id="$" fill="url(#linearGradient-1)" fill-rule="nonzero"></path>
                        <path d="M323.253161,105.317439 L231.581221,158.452216 C228.571385,160.196773 224.863115,160.196773 221.853279,158.452216 L90.7187924,82.4442057 C88.8576714,81.3654651 88.2200043,78.9763082 89.294523,77.1078746 C89.636045,76.5140168 90.1272588,76.0208729 90.7187924,75.678009 L182.390732,22.543232 C185.400568,20.7986748 189.108838,20.7986748 192.118673,22.543232 L323.253161,98.551242 C325.114282,99.6299827 325.751949,102.01914 324.67743,103.887573 C324.335908,104.481431 323.844694,104.974575 323.253161,105.317439 Z" id="Polygon" fill="#C0DFFF" fill-rule="nonzero"></path>
                        <path d="M139.412717,121.060323 L99.6619149,144.100634 C98.3567896,144.857109 96.7488088,144.857109 95.4436834,144.100634 L38.5811246,111.142028 C37.774105,110.674264 37.4975997,109.638278 37.9635327,108.828087 C38.1116235,108.570578 38.3246238,108.356741 38.5811246,108.208069 L78.3319269,85.1677574 C79.6370523,84.4112823 81.2450331,84.4112823 82.5501585,85.1677574 L139.412717,118.126364 C140.219737,118.594127 140.496242,119.630114 140.030309,120.440305 C139.882218,120.697813 139.669218,120.91165 139.412717,121.060323 Z" id="Polygon" fill="#C0DFFF" fill-rule="nonzero"></path>
                        <path d="M207.145337,31.2529684 L103.963817,90.1212708 L90.7187924,82.4442057 C88.8576714,81.3654651 88.2200043,78.9763082 89.294523,77.1078746 C89.636045,76.5140168 90.1272588,76.0208729 90.7187924,75.678009 L182.390732,22.543232 C185.400568,20.7986748 189.108838,20.7986748 192.118673,22.543232 L207.145337,31.2529684 Z M124.404385,101.969008 L227.585905,43.1007051 L248.026473,54.9484418 L144.844953,113.816744 L124.404385,101.969008 Z M165.285521,125.664481 L268.467041,66.7961785 L288.907608,78.6439152 L185.726088,137.512218 L165.285521,125.664481 Z M206.166656,149.359954 L309.348176,90.491652 L323.253161,98.551242 C325.114282,99.6299827 325.751949,102.01914 324.67743,103.887573 C324.335908,104.481431 323.844694,104.974575 323.253161,105.317439 L240.642901,153.199896 L230.463361,159.007644 C227.686438,160.171361 224.49985,159.986218 221.853279,158.452216 L206.166656,149.359954 Z" id="Combined-Shape" fill="#C0DFFF" fill-rule="nonzero" style="mix-blend-mode: multiply;" opacity="0.300000012"></path>
                        <g id="Group-38" transform="translate(109.676281, 26.659352)" fill-rule="nonzero">
                            <path d="M105.392762,21.8525151 C104.69874,22.2547833 103.84367,22.2547833 103.149648,21.8525151 L72.9120412,4.32623086 C72.4828951,4.07748977 72.3358588,3.52658675 72.5836264,3.09575454 C72.6623762,2.95882001 72.7756426,2.84510859 72.9120412,2.7660494 L76.8768968,0.467944661 C77.5709188,0.0656764754 78.4259892,0.0656764754 79.1200112,0.467944661 L109.357618,17.994229 C109.786764,18.24297 109.9338,18.7938731 109.686032,19.2247053 C109.607283,19.3616398 109.494016,19.4753512 109.357618,19.5544104 L105.392762,21.8525151 Z M79.4895849,19.1202372 C78.7955628,19.5225053 77.9404925,19.5225053 77.2464704,19.1202372 L62.5300703,10.5903354 C62.1009242,10.3415943 61.953888,9.79069128 62.2016555,9.35985907 C62.2804053,9.22292455 62.3936717,9.10921312 62.5300703,9.03015394 L66.4949259,6.73204919 C67.1889479,6.32978101 68.0440183,6.32978101 68.7380403,6.73204919 L83.4544405,15.261951 C83.8835865,15.510692 84.0306228,16.0615951 83.7828552,16.4924273 C83.7041055,16.6293618 83.5908391,16.7430732 83.4544405,16.8221324 L79.4895849,19.1202372 Z" id="Combined-Shape" fill="#FFFFFF"></path>
                            <path d="M37.0001306,125.948188 C36.3061086,126.350456 35.4510382,126.350456 34.7570162,125.948188 L11.5967907,112.524087 C11.1676446,112.275346 11.0206084,111.724443 11.2683759,111.29361 C11.3471257,111.156676 11.4603921,111.042964 11.5967907,110.963905 L15.5616463,108.665801 C16.2556683,108.263532 17.1107387,108.263532 17.8047607,108.665801 L40.9649862,122.089902 C41.3941323,122.338643 41.5411686,122.889546 41.293401,123.320378 C41.2146512,123.457313 41.1013848,123.571024 40.9649862,123.650083 L37.0001306,125.948188 Z M17.9324499,127.167571 C17.2384279,127.569839 16.3833575,127.569839 15.6893355,127.167571 L0.972935318,118.637669 C0.543789287,118.388928 0.396752999,117.838025 0.644520575,117.407193 C0.723270339,117.270258 0.836536726,117.156547 0.972935318,117.077487 L4.93779095,114.779383 C5.63181296,114.377115 6.48688334,114.377115 7.18090536,114.779383 L21.8973055,123.309284 C22.3264516,123.558026 22.4734878,124.108929 22.2257203,124.539761 C22.1469705,124.676695 22.0337041,124.790407 21.8973055,124.869466 L17.9324499,127.167571 Z M39.2827844,114.742524 C38.5887624,115.144793 37.733692,115.144793 37.03967,114.742524 L22.3232698,106.212623 C21.8941238,105.963882 21.7470875,105.412979 21.9948551,104.982146 C22.0736048,104.845212 22.1868712,104.7315 22.3232698,104.652441 L26.2881254,102.354336 C26.9821474,101.952068 27.8372178,101.952068 28.5312398,102.354336 L43.24764,110.884238 C43.676786,111.132979 43.8238223,111.683882 43.5760547,112.114715 C43.497305,112.251649 43.3840386,112.365361 43.24764,112.44442 L39.2827844,114.742524 Z" id="Combined-Shape" fill="#C0DFFF"></path>
                        </g>
                        <polygon id="Path-7" fill="url(#linearGradient-1)" fill-rule="nonzero" points="247.044894 165.816351 240.030693 162.409028 391.786575 146.294858 398.800776 149.702181"></polygon>
                    </g>
                </g>
                <g id="Group-36" transform="translate(356.000000, 0.000000)">
                    <g id="Group-20" transform="translate(0.165043, 0.119794)">
                        <g id="Group-13" transform="translate(13.326656, 79.362118)">
                            <g id="Group-49">
                                <g id="Group-48" transform="translate(0.883297, 0.558615)">
                                    <g id="Group-47">
                                        <path d="M156.856727,45.6008986 L156.856727,55.034306 C156.911722,66.8294511 149.257327,78.6343589 133.891773,87.6344307 C103.268755,105.571263 53.6087713,105.571872 22.9772323,87.6344307 C7.60897593,78.6349744 -0.0500837464,66.8297942 0.000246432634,55.034306 L0,45.1110733 L156.856727,45.6008986 Z" id="Combined-Shape" fill="url(#linearGradient-3)"></path>
                                        <path d="M22.9636868,14.0155404 C-7.65933162,31.9523728 -7.65430668,61.0361819 22.9772323,78.9736233 C53.6087713,96.9110647 103.268755,96.9104557 133.891773,78.9736233 C164.518171,61.0348117 164.509767,31.9529818 133.878228,14.0155404 C103.246689,-3.92190097 53.5890445,-3.9226622 22.9636868,14.0155404 Z" id="Shape" fill="url(#linearGradient-1)"></path>
                                        <path d="M56.078835,62.2176174 L57.8971596,62.9986109 C67.1947225,66.992032 77.6430422,66.6559954 84.3437649,62.695121 C90.904031,58.8172723 91.4065058,53.4285051 84.7545295,47.2494584 L79.3081125,42.0979226 C75.9222315,39.0146336 75.9786067,35.9488218 79.4983089,33.8682853 C84.0708546,31.1654009 91.3982204,31.4959009 97.0528528,34.8384192 C102.514866,38.067078 103.063878,41.751004 100.468604,44.9174131 L108.207903,47.4653967 C111.605189,43.5359562 111.379123,38.886702 106.156931,34.4205517 L104.909176,33.3534407 L113.19693,28.4544542 L108.946922,25.9422254 L100.8569,30.72433 L99.0388527,29.9443283 C90.0081348,26.0698564 79.0296663,26.1642491 71.9658949,30.3397257 C65.5168602,34.1518244 65.2598954,39.5549411 71.3027261,45.1680939 L76.9332433,50.3454016 C80.5163957,53.6582375 80.5982542,56.8356856 76.8895034,59.0279709 C72.1939587,61.8035614 65.1412506,61.2128214 59.256807,57.734459 C52.5684924,53.7809193 51.7688311,49.0312197 55.8563007,45.0370158 L48.2971851,42.3096239 C43.2739995,46.8897677 43.3685608,53.1807118 50.3962059,58.6503056 L51.7850697,59.7312539 L43.6597976,64.5341957 L47.9098059,67.0464245 L56.078835,62.2176174 Z" id="$" fill="#FFFFFF" fill-rule="nonzero"></path>
                                        <path d="M45.0642778,65.3644001 L43.6597976,64.5341957 L51.7850697,59.7232875 L51.7850697,61.3916627 L45.0642778,65.3644001 Z M48.2971851,42.3096239 L55.8563007,45.0370158 C55.4340811,45.4496014 55.0640076,45.8702482 54.747184,46.2972461 L48.2971851,43.9700328 C46.2641969,45.8237127 45.0694906,47.9576199 44.83341,50.203891 C44.5368118,47.3542852 45.7685891,44.6151993 48.2971851,42.3096239 Z M59.256807,57.734459 C65.1412506,61.2128214 72.1939587,61.8035614 76.8895034,59.0279709 C78.3928637,58.1393173 79.2733792,57.0887891 79.5503196,55.9329854 C79.5989381,55.6972018 79.6302085,55.4373791 79.6441307,55.1535174 C79.6479024,56.1899325 79.6479024,56.768854 79.6441307,56.8902818 C79.5995964,58.3240514 78.692467,59.6226273 76.8895034,60.6883798 C72.1939587,63.4639703 65.1412506,62.8732302 59.256807,59.3948679 C55.305469,57.0591865 53.4094108,54.4456264 53.3621216,51.8741343 C53.3593091,51.721198 53.3593091,51.0478421 53.3621216,49.8540666 C53.3831829,50.2043538 53.4043002,50.5680511 53.4254735,50.9451585 C53.7869627,53.2777418 55.6796668,55.6199703 59.256807,57.734459 Z M71.9658949,30.3397257 C79.0296663,26.1642491 90.0081348,26.0698564 99.0388527,29.9443283 L100.8569,30.72433 L108.946922,25.9422254 L113.19693,28.4544542 L111.79245,29.2846586 L108.946922,27.6026342 L100.8569,32.3847388 L99.0388527,31.6047371 C90.0081348,27.7302653 79.0296663,27.824658 71.9658949,32.0001346 C68.9733736,33.7690483 67.314131,35.8805406 66.9989303,38.1966316 C66.6096125,35.2286921 68.2720152,32.5232205 71.9658949,30.3397257 Z M106.156931,34.4205517 C109.447524,37.2347499 110.754417,40.121649 110.421059,42.8553512 C110.150839,40.6277242 108.787984,38.3311032 106.156931,36.0809606 L104.909176,35.0138495 L104.909176,33.3529559 L106.057186,34.3352476 L106.156931,34.4205517 Z M100.468604,44.9174131 C101.226225,43.9930642 101.715893,43.0246129 101.893605,42.0362597 C102.089272,43.1131876 101.897134,44.1826607 101.371658,45.2147226 L100.468604,44.9174131 Z M79.3081125,42.0979226 L84.7545295,47.2494584 C88.3170633,50.5587099 89.8275236,53.6412898 89.4543703,56.3864991 C89.1529599,54.0786863 87.6154271,51.5673661 84.7545295,48.9098672 L79.3081125,43.7583315 C77.6070819,42.2093199 76.7748598,40.6647194 76.814118,39.2472475 C76.8160561,39.1772678 76.8160561,38.5631578 76.814118,37.4049175 C76.8421526,37.6361887 76.8747327,38.0102962 76.9118581,38.5272399 C77.1773832,39.6755225 77.9765619,40.8853711 79.3081125,42.0979226 Z" id="Combined-Shape" fill="url(#linearGradient-3)"></path>
                                        <path d="M28.4481034,17.2270833 C0.853127389,33.3902992 0.857655455,59.5982649 28.4603096,75.7620297 C56.0629637,91.9257944 100.812506,91.9252456 128.407482,75.7620297 C156.005503,59.5970302 155.99793,33.390848 128.395276,17.2270833 C100.792622,1.06331852 56.0451875,1.06263256 28.4481034,17.2270833 Z" id="Shape" stroke="#FFFFFF" stroke-width="1.5"></path>
                                    </g>
                                </g>
                            </g>
                        </g>
                        <g id="Group-13" transform="translate(0.047583, 68.553616)">
                            <g id="Group-49">
                                <g id="Group-48" transform="translate(0.883297, 0.558615)">
                                    <g id="Group-47">
                                        <path d="M156.856727,45.6008986 L156.856727,55.034306 C156.911722,66.8294511 149.257327,78.6343589 133.891773,87.6344307 C103.268755,105.571263 53.6087713,105.571872 22.9772323,87.6344307 C7.60897593,78.6349744 -0.0500837464,66.8297942 0.000246432634,55.034306 L0,45.1110733 L156.856727,45.6008986 Z" id="Combined-Shape" fill="url(#linearGradient-3)"></path>
                                        <path d="M22.9636868,14.0155404 C-7.65933162,31.9523728 -7.65430668,61.0361819 22.9772323,78.9736233 C53.6087713,96.9110647 103.268755,96.9104557 133.891773,78.9736233 C164.518171,61.0348117 164.509767,31.9529818 133.878228,14.0155404 C103.246689,-3.92190097 53.5890445,-3.9226622 22.9636868,14.0155404 Z" id="Shape" fill="url(#linearGradient-1)"></path>
                                        <path d="M56.078835,62.2176174 L57.8971596,62.9986109 C67.1947225,66.992032 77.6430422,66.6559954 84.3437649,62.695121 C90.904031,58.8172723 91.4065058,53.4285051 84.7545295,47.2494584 L79.3081125,42.0979226 C75.9222315,39.0146336 75.9786067,35.9488218 79.4983089,33.8682853 C84.0708546,31.1654009 91.3982204,31.4959009 97.0528528,34.8384192 C102.514866,38.067078 103.063878,41.751004 100.468604,44.9174131 L108.207903,47.4653967 C111.605189,43.5359562 111.379123,38.886702 106.156931,34.4205517 L104.909176,33.3534407 L113.19693,28.4544542 L108.946922,25.9422254 L100.8569,30.72433 L99.0388527,29.9443283 C90.0081348,26.0698564 79.0296663,26.1642491 71.9658949,30.3397257 C65.5168602,34.1518244 65.2598954,39.5549411 71.3027261,45.1680939 L76.9332433,50.3454016 C80.5163957,53.6582375 80.5982542,56.8356856 76.8895034,59.0279709 C72.1939587,61.8035614 65.1412506,61.2128214 59.256807,57.734459 C52.5684924,53.7809193 51.7688311,49.0312197 55.8563007,45.0370158 L48.2971851,42.3096239 C43.2739995,46.8897677 43.3685608,53.1807118 50.3962059,58.6503056 L51.7850697,59.7312539 L43.6597976,64.5341957 L47.9098059,67.0464245 L56.078835,62.2176174 Z" id="$" fill="#FFFFFF" fill-rule="nonzero"></path>
                                        <path d="M45.0642778,65.3644001 L43.6597976,64.5341957 L51.7850697,59.7232875 L51.7850697,61.3916627 L45.0642778,65.3644001 Z M48.2971851,42.3096239 L55.8563007,45.0370158 C55.4340811,45.4496014 55.0640076,45.8702482 54.747184,46.2972461 L48.2971851,43.9700328 C46.2641969,45.8237127 45.0694906,47.9576199 44.83341,50.203891 C44.5368118,47.3542852 45.7685891,44.6151993 48.2971851,42.3096239 Z M59.256807,57.734459 C65.1412506,61.2128214 72.1939587,61.8035614 76.8895034,59.0279709 C78.3928637,58.1393173 79.2733792,57.0887891 79.5503196,55.9329854 C79.5989381,55.6972018 79.6302085,55.4373791 79.6441307,55.1535174 C79.6479024,56.1899325 79.6479024,56.768854 79.6441307,56.8902818 C79.5995964,58.3240514 78.692467,59.6226273 76.8895034,60.6883798 C72.1939587,63.4639703 65.1412506,62.8732302 59.256807,59.3948679 C55.305469,57.0591865 53.4094108,54.4456264 53.3621216,51.8741343 C53.3593091,51.721198 53.3593091,51.0478421 53.3621216,49.8540666 C53.3831829,50.2043538 53.4043002,50.5680511 53.4254735,50.9451585 C53.7869627,53.2777418 55.6796668,55.6199703 59.256807,57.734459 Z M71.9658949,30.3397257 C79.0296663,26.1642491 90.0081348,26.0698564 99.0388527,29.9443283 L100.8569,30.72433 L108.946922,25.9422254 L113.19693,28.4544542 L111.79245,29.2846586 L108.946922,27.6026342 L100.8569,32.3847388 L99.0388527,31.6047371 C90.0081348,27.7302653 79.0296663,27.824658 71.9658949,32.0001346 C68.9733736,33.7690483 67.314131,35.8805406 66.9989303,38.1966316 C66.6096125,35.2286921 68.2720152,32.5232205 71.9658949,30.3397257 Z M106.156931,34.4205517 C109.447524,37.2347499 110.754417,40.121649 110.421059,42.8553512 C110.150839,40.6277242 108.787984,38.3311032 106.156931,36.0809606 L104.909176,35.0138495 L104.909176,33.3529559 L106.057186,34.3352476 L106.156931,34.4205517 Z M100.468604,44.9174131 C101.226225,43.9930642 101.715893,43.0246129 101.893605,42.0362597 C102.089272,43.1131876 101.897134,44.1826607 101.371658,45.2147226 L100.468604,44.9174131 Z M79.3081125,42.0979226 L84.7545295,47.2494584 C88.3170633,50.5587099 89.8275236,53.6412898 89.4543703,56.3864991 C89.1529599,54.0786863 87.6154271,51.5673661 84.7545295,48.9098672 L79.3081125,43.7583315 C77.6070819,42.2093199 76.7748598,40.6647194 76.814118,39.2472475 C76.8160561,39.1772678 76.8160561,38.5631578 76.814118,37.4049175 C76.8421526,37.6361887 76.8747327,38.0102962 76.9118581,38.5272399 C77.1773832,39.6755225 77.9765619,40.8853711 79.3081125,42.0979226 Z" id="Combined-Shape" fill="url(#linearGradient-3)"></path>
                                        <path d="M28.4481034,17.2270833 C0.853127389,33.3902992 0.857655455,59.5982649 28.4603096,75.7620297 C56.0629637,91.9257944 100.812506,91.9252456 128.407482,75.7620297 C156.005503,59.5970302 155.99793,33.390848 128.395276,17.2270833 C100.792622,1.06331852 56.0451875,1.06263256 28.4481034,17.2270833 Z" id="Shape" stroke="#FFFFFF" stroke-width="1.5"></path>
                                    </g>
                                </g>
                            </g>
                        </g>
                        <g id="Group-13" transform="translate(0.047583, 58.846910)">
                            <g id="Group-49">
                                <g id="Group-48" transform="translate(0.883297, 0.558615)">
                                    <g id="Group-47">
                                        <path d="M156.856727,45.6008986 L156.856727,55.034306 C156.911722,66.8294511 149.257327,78.6343589 133.891773,87.6344307 C103.268755,105.571263 53.6087713,105.571872 22.9772323,87.6344307 C7.60897593,78.6349744 -0.0500837464,66.8297942 0.000246432634,55.034306 L0,45.1110733 L156.856727,45.6008986 Z" id="Combined-Shape" fill="url(#linearGradient-3)"></path>
                                        <path d="M22.9636868,14.0155404 C-7.65933162,31.9523728 -7.65430668,61.0361819 22.9772323,78.9736233 C53.6087713,96.9110647 103.268755,96.9104557 133.891773,78.9736233 C164.518171,61.0348117 164.509767,31.9529818 133.878228,14.0155404 C103.246689,-3.92190097 53.5890445,-3.9226622 22.9636868,14.0155404 Z" id="Shape" fill="url(#linearGradient-1)"></path>
                                        <path d="M56.078835,62.2176174 L57.8971596,62.9986109 C67.1947225,66.992032 77.6430422,66.6559954 84.3437649,62.695121 C90.904031,58.8172723 91.4065058,53.4285051 84.7545295,47.2494584 L79.3081125,42.0979226 C75.9222315,39.0146336 75.9786067,35.9488218 79.4983089,33.8682853 C84.0708546,31.1654009 91.3982204,31.4959009 97.0528528,34.8384192 C102.514866,38.067078 103.063878,41.751004 100.468604,44.9174131 L108.207903,47.4653967 C111.605189,43.5359562 111.379123,38.886702 106.156931,34.4205517 L104.909176,33.3534407 L113.19693,28.4544542 L108.946922,25.9422254 L100.8569,30.72433 L99.0388527,29.9443283 C90.0081348,26.0698564 79.0296663,26.1642491 71.9658949,30.3397257 C65.5168602,34.1518244 65.2598954,39.5549411 71.3027261,45.1680939 L76.9332433,50.3454016 C80.5163957,53.6582375 80.5982542,56.8356856 76.8895034,59.0279709 C72.1939587,61.8035614 65.1412506,61.2128214 59.256807,57.734459 C52.5684924,53.7809193 51.7688311,49.0312197 55.8563007,45.0370158 L48.2971851,42.3096239 C43.2739995,46.8897677 43.3685608,53.1807118 50.3962059,58.6503056 L51.7850697,59.7312539 L43.6597976,64.5341957 L47.9098059,67.0464245 L56.078835,62.2176174 Z" id="$" fill="#FFFFFF" fill-rule="nonzero"></path>
                                        <path d="M45.0642778,65.3644001 L43.6597976,64.5341957 L51.7850697,59.7232875 L51.7850697,61.3916627 L45.0642778,65.3644001 Z M48.2971851,42.3096239 L55.8563007,45.0370158 C55.4340811,45.4496014 55.0640076,45.8702482 54.747184,46.2972461 L48.2971851,43.9700328 C46.2641969,45.8237127 45.0694906,47.9576199 44.83341,50.203891 C44.5368118,47.3542852 45.7685891,44.6151993 48.2971851,42.3096239 Z M59.256807,57.734459 C65.1412506,61.2128214 72.1939587,61.8035614 76.8895034,59.0279709 C78.3928637,58.1393173 79.2733792,57.0887891 79.5503196,55.9329854 C79.5989381,55.6972018 79.6302085,55.4373791 79.6441307,55.1535174 C79.6479024,56.1899325 79.6479024,56.768854 79.6441307,56.8902818 C79.5995964,58.3240514 78.692467,59.6226273 76.8895034,60.6883798 C72.1939587,63.4639703 65.1412506,62.8732302 59.256807,59.3948679 C55.305469,57.0591865 53.4094108,54.4456264 53.3621216,51.8741343 C53.3593091,51.721198 53.3593091,51.0478421 53.3621216,49.8540666 C53.3831829,50.2043538 53.4043002,50.5680511 53.4254735,50.9451585 C53.7869627,53.2777418 55.6796668,55.6199703 59.256807,57.734459 Z M71.9658949,30.3397257 C79.0296663,26.1642491 90.0081348,26.0698564 99.0388527,29.9443283 L100.8569,30.72433 L108.946922,25.9422254 L113.19693,28.4544542 L111.79245,29.2846586 L108.946922,27.6026342 L100.8569,32.3847388 L99.0388527,31.6047371 C90.0081348,27.7302653 79.0296663,27.824658 71.9658949,32.0001346 C68.9733736,33.7690483 67.314131,35.8805406 66.9989303,38.1966316 C66.6096125,35.2286921 68.2720152,32.5232205 71.9658949,30.3397257 Z M106.156931,34.4205517 C109.447524,37.2347499 110.754417,40.121649 110.421059,42.8553512 C110.150839,40.6277242 108.787984,38.3311032 106.156931,36.0809606 L104.909176,35.0138495 L104.909176,33.3529559 L106.057186,34.3352476 L106.156931,34.4205517 Z M100.468604,44.9174131 C101.226225,43.9930642 101.715893,43.0246129 101.893605,42.0362597 C102.089272,43.1131876 101.897134,44.1826607 101.371658,45.2147226 L100.468604,44.9174131 Z M79.3081125,42.0979226 L84.7545295,47.2494584 C88.3170633,50.5587099 89.8275236,53.6412898 89.4543703,56.3864991 C89.1529599,54.0786863 87.6154271,51.5673661 84.7545295,48.9098672 L79.3081125,43.7583315 C77.6070819,42.2093199 76.7748598,40.6647194 76.814118,39.2472475 C76.8160561,39.1772678 76.8160561,38.5631578 76.814118,37.4049175 C76.8421526,37.6361887 76.8747327,38.0102962 76.9118581,38.5272399 C77.1773832,39.6755225 77.9765619,40.8853711 79.3081125,42.0979226 Z" id="Combined-Shape" fill="url(#linearGradient-3)"></path>
                                        <path d="M28.4481034,17.2270833 C0.853127389,33.3902992 0.857655455,59.5982649 28.4603096,75.7620297 C56.0629637,91.9257944 100.812506,91.9252456 128.407482,75.7620297 C156.005503,59.5970302 155.99793,33.390848 128.395276,17.2270833 C100.792622,1.06331852 56.0451875,1.06263256 28.4481034,17.2270833 Z" id="Shape" stroke="#FFFFFF" stroke-width="1.5"></path>
                                    </g>
                                </g>
                            </g>
                        </g>
                        <g id="Group-13" transform="translate(13.326656, 49.140203)">
                            <g id="Group-49">
                                <g id="Group-48" transform="translate(0.883297, 0.558615)">
                                    <g id="Group-47">
                                        <path d="M156.856727,45.6008986 L156.856727,55.034306 C156.911722,66.8294511 149.257327,78.6343589 133.891773,87.6344307 C103.268755,105.571263 53.6087713,105.571872 22.9772323,87.6344307 C7.60897593,78.6349744 -0.0500837464,66.8297942 0.000246432634,55.034306 L0,45.1110733 L156.856727,45.6008986 Z" id="Combined-Shape" fill="url(#linearGradient-3)"></path>
                                        <path d="M22.9636868,14.0155404 C-7.65933162,31.9523728 -7.65430668,61.0361819 22.9772323,78.9736233 C53.6087713,96.9110647 103.268755,96.9104557 133.891773,78.9736233 C164.518171,61.0348117 164.509767,31.9529818 133.878228,14.0155404 C103.246689,-3.92190097 53.5890445,-3.9226622 22.9636868,14.0155404 Z" id="Shape" fill="url(#linearGradient-1)"></path>
                                        <path d="M56.078835,62.2176174 L57.8971596,62.9986109 C67.1947225,66.992032 77.6430422,66.6559954 84.3437649,62.695121 C90.904031,58.8172723 91.4065058,53.4285051 84.7545295,47.2494584 L79.3081125,42.0979226 C75.9222315,39.0146336 75.9786067,35.9488218 79.4983089,33.8682853 C84.0708546,31.1654009 91.3982204,31.4959009 97.0528528,34.8384192 C102.514866,38.067078 103.063878,41.751004 100.468604,44.9174131 L108.207903,47.4653967 C111.605189,43.5359562 111.379123,38.886702 106.156931,34.4205517 L104.909176,33.3534407 L113.19693,28.4544542 L108.946922,25.9422254 L100.8569,30.72433 L99.0388527,29.9443283 C90.0081348,26.0698564 79.0296663,26.1642491 71.9658949,30.3397257 C65.5168602,34.1518244 65.2598954,39.5549411 71.3027261,45.1680939 L76.9332433,50.3454016 C80.5163957,53.6582375 80.5982542,56.8356856 76.8895034,59.0279709 C72.1939587,61.8035614 65.1412506,61.2128214 59.256807,57.734459 C52.5684924,53.7809193 51.7688311,49.0312197 55.8563007,45.0370158 L48.2971851,42.3096239 C43.2739995,46.8897677 43.3685608,53.1807118 50.3962059,58.6503056 L51.7850697,59.7312539 L43.6597976,64.5341957 L47.9098059,67.0464245 L56.078835,62.2176174 Z" id="$" fill="#FFFFFF" fill-rule="nonzero"></path>
                                        <path d="M45.0642778,65.3644001 L43.6597976,64.5341957 L51.7850697,59.7232875 L51.7850697,61.3916627 L45.0642778,65.3644001 Z M48.2971851,42.3096239 L55.8563007,45.0370158 C55.4340811,45.4496014 55.0640076,45.8702482 54.747184,46.2972461 L48.2971851,43.9700328 C46.2641969,45.8237127 45.0694906,47.9576199 44.83341,50.203891 C44.5368118,47.3542852 45.7685891,44.6151993 48.2971851,42.3096239 Z M59.256807,57.734459 C65.1412506,61.2128214 72.1939587,61.8035614 76.8895034,59.0279709 C78.3928637,58.1393173 79.2733792,57.0887891 79.5503196,55.9329854 C79.5989381,55.6972018 79.6302085,55.4373791 79.6441307,55.1535174 C79.6479024,56.1899325 79.6479024,56.768854 79.6441307,56.8902818 C79.5995964,58.3240514 78.692467,59.6226273 76.8895034,60.6883798 C72.1939587,63.4639703 65.1412506,62.8732302 59.256807,59.3948679 C55.305469,57.0591865 53.4094108,54.4456264 53.3621216,51.8741343 C53.3593091,51.721198 53.3593091,51.0478421 53.3621216,49.8540666 C53.3831829,50.2043538 53.4043002,50.5680511 53.4254735,50.9451585 C53.7869627,53.2777418 55.6796668,55.6199703 59.256807,57.734459 Z M71.9658949,30.3397257 C79.0296663,26.1642491 90.0081348,26.0698564 99.0388527,29.9443283 L100.8569,30.72433 L108.946922,25.9422254 L113.19693,28.4544542 L111.79245,29.2846586 L108.946922,27.6026342 L100.8569,32.3847388 L99.0388527,31.6047371 C90.0081348,27.7302653 79.0296663,27.824658 71.9658949,32.0001346 C68.9733736,33.7690483 67.314131,35.8805406 66.9989303,38.1966316 C66.6096125,35.2286921 68.2720152,32.5232205 71.9658949,30.3397257 Z M106.156931,34.4205517 C109.447524,37.2347499 110.754417,40.121649 110.421059,42.8553512 C110.150839,40.6277242 108.787984,38.3311032 106.156931,36.0809606 L104.909176,35.0138495 L104.909176,33.3529559 L106.057186,34.3352476 L106.156931,34.4205517 Z M100.468604,44.9174131 C101.226225,43.9930642 101.715893,43.0246129 101.893605,42.0362597 C102.089272,43.1131876 101.897134,44.1826607 101.371658,45.2147226 L100.468604,44.9174131 Z M79.3081125,42.0979226 L84.7545295,47.2494584 C88.3170633,50.5587099 89.8275236,53.6412898 89.4543703,56.3864991 C89.1529599,54.0786863 87.6154271,51.5673661 84.7545295,48.9098672 L79.3081125,43.7583315 C77.6070819,42.2093199 76.7748598,40.6647194 76.814118,39.2472475 C76.8160561,39.1772678 76.8160561,38.5631578 76.814118,37.4049175 C76.8421526,37.6361887 76.8747327,38.0102962 76.9118581,38.5272399 C77.1773832,39.6755225 77.9765619,40.8853711 79.3081125,42.0979226 Z" id="Combined-Shape" fill="url(#linearGradient-3)"></path>
                                        <path d="M28.4481034,17.2270833 C0.853127389,33.3902992 0.857655455,59.5982649 28.4603096,75.7620297 C56.0629637,91.9257944 100.812506,91.9252456 128.407482,75.7620297 C156.005503,59.5970302 155.99793,33.390848 128.395276,17.2270833 C100.792622,1.06331852 56.0451875,1.06263256 28.4481034,17.2270833 Z" id="Shape" stroke="#FFFFFF" stroke-width="1.5"></path>
                                    </g>
                                </g>
                            </g>
                        </g>
                        <g id="Group-13" transform="translate(13.326656, 39.433496)">
                            <g id="Group-49">
                                <g id="Group-48" transform="translate(0.883297, 0.558615)">
                                    <g id="Group-47">
                                        <path d="M156.856727,45.6008986 L156.856727,55.034306 C156.911722,66.8294511 149.257327,78.6343589 133.891773,87.6344307 C103.268755,105.571263 53.6087713,105.571872 22.9772323,87.6344307 C7.60897593,78.6349744 -0.0500837464,66.8297942 0.000246432634,55.034306 L0,45.1110733 L156.856727,45.6008986 Z" id="Combined-Shape" fill="url(#linearGradient-3)"></path>
                                        <path d="M22.9636868,14.0155404 C-7.65933162,31.9523728 -7.65430668,61.0361819 22.9772323,78.9736233 C53.6087713,96.9110647 103.268755,96.9104557 133.891773,78.9736233 C164.518171,61.0348117 164.509767,31.9529818 133.878228,14.0155404 C103.246689,-3.92190097 53.5890445,-3.9226622 22.9636868,14.0155404 Z" id="Shape" fill="url(#linearGradient-1)"></path>
                                        <path d="M56.078835,62.2176174 L57.8971596,62.9986109 C67.1947225,66.992032 77.6430422,66.6559954 84.3437649,62.695121 C90.904031,58.8172723 91.4065058,53.4285051 84.7545295,47.2494584 L79.3081125,42.0979226 C75.9222315,39.0146336 75.9786067,35.9488218 79.4983089,33.8682853 C84.0708546,31.1654009 91.3982204,31.4959009 97.0528528,34.8384192 C102.514866,38.067078 103.063878,41.751004 100.468604,44.9174131 L108.207903,47.4653967 C111.605189,43.5359562 111.379123,38.886702 106.156931,34.4205517 L104.909176,33.3534407 L113.19693,28.4544542 L108.946922,25.9422254 L100.8569,30.72433 L99.0388527,29.9443283 C90.0081348,26.0698564 79.0296663,26.1642491 71.9658949,30.3397257 C65.5168602,34.1518244 65.2598954,39.5549411 71.3027261,45.1680939 L76.9332433,50.3454016 C80.5163957,53.6582375 80.5982542,56.8356856 76.8895034,59.0279709 C72.1939587,61.8035614 65.1412506,61.2128214 59.256807,57.734459 C52.5684924,53.7809193 51.7688311,49.0312197 55.8563007,45.0370158 L48.2971851,42.3096239 C43.2739995,46.8897677 43.3685608,53.1807118 50.3962059,58.6503056 L51.7850697,59.7312539 L43.6597976,64.5341957 L47.9098059,67.0464245 L56.078835,62.2176174 Z" id="$" fill="#FFFFFF" fill-rule="nonzero"></path>
                                        <path d="M45.0642778,65.3644001 L43.6597976,64.5341957 L51.7850697,59.7232875 L51.7850697,61.3916627 L45.0642778,65.3644001 Z M48.2971851,42.3096239 L55.8563007,45.0370158 C55.4340811,45.4496014 55.0640076,45.8702482 54.747184,46.2972461 L48.2971851,43.9700328 C46.2641969,45.8237127 45.0694906,47.9576199 44.83341,50.203891 C44.5368118,47.3542852 45.7685891,44.6151993 48.2971851,42.3096239 Z M59.256807,57.734459 C65.1412506,61.2128214 72.1939587,61.8035614 76.8895034,59.0279709 C78.3928637,58.1393173 79.2733792,57.0887891 79.5503196,55.9329854 C79.5989381,55.6972018 79.6302085,55.4373791 79.6441307,55.1535174 C79.6479024,56.1899325 79.6479024,56.768854 79.6441307,56.8902818 C79.5995964,58.3240514 78.692467,59.6226273 76.8895034,60.6883798 C72.1939587,63.4639703 65.1412506,62.8732302 59.256807,59.3948679 C55.305469,57.0591865 53.4094108,54.4456264 53.3621216,51.8741343 C53.3593091,51.721198 53.3593091,51.0478421 53.3621216,49.8540666 C53.3831829,50.2043538 53.4043002,50.5680511 53.4254735,50.9451585 C53.7869627,53.2777418 55.6796668,55.6199703 59.256807,57.734459 Z M71.9658949,30.3397257 C79.0296663,26.1642491 90.0081348,26.0698564 99.0388527,29.9443283 L100.8569,30.72433 L108.946922,25.9422254 L113.19693,28.4544542 L111.79245,29.2846586 L108.946922,27.6026342 L100.8569,32.3847388 L99.0388527,31.6047371 C90.0081348,27.7302653 79.0296663,27.824658 71.9658949,32.0001346 C68.9733736,33.7690483 67.314131,35.8805406 66.9989303,38.1966316 C66.6096125,35.2286921 68.2720152,32.5232205 71.9658949,30.3397257 Z M106.156931,34.4205517 C109.447524,37.2347499 110.754417,40.121649 110.421059,42.8553512 C110.150839,40.6277242 108.787984,38.3311032 106.156931,36.0809606 L104.909176,35.0138495 L104.909176,33.3529559 L106.057186,34.3352476 L106.156931,34.4205517 Z M100.468604,44.9174131 C101.226225,43.9930642 101.715893,43.0246129 101.893605,42.0362597 C102.089272,43.1131876 101.897134,44.1826607 101.371658,45.2147226 L100.468604,44.9174131 Z M79.3081125,42.0979226 L84.7545295,47.2494584 C88.3170633,50.5587099 89.8275236,53.6412898 89.4543703,56.3864991 C89.1529599,54.0786863 87.6154271,51.5673661 84.7545295,48.9098672 L79.3081125,43.7583315 C77.6070819,42.2093199 76.7748598,40.6647194 76.814118,39.2472475 C76.8160561,39.1772678 76.8160561,38.5631578 76.814118,37.4049175 C76.8421526,37.6361887 76.8747327,38.0102962 76.9118581,38.5272399 C77.1773832,39.6755225 77.9765619,40.8853711 79.3081125,42.0979226 Z" id="Combined-Shape" fill="url(#linearGradient-3)"></path>
                                        <path d="M28.4481034,17.2270833 C0.853127389,33.3902992 0.857655455,59.5982649 28.4603096,75.7620297 C56.0629637,91.9257944 100.812506,91.9252456 128.407482,75.7620297 C156.005503,59.5970302 155.99793,33.390848 128.395276,17.2270833 C100.792622,1.06331852 56.0451875,1.06263256 28.4481034,17.2270833 Z" id="Shape" stroke="#FFFFFF" stroke-width="1.5"></path>
                                    </g>
                                </g>
                            </g>
                        </g>
                        <g id="Group-13" transform="translate(13.326656, 29.726789)">
                            <g id="Group-49">
                                <g id="Group-48" transform="translate(0.883297, 0.558615)">
                                    <g id="Group-47">
                                        <path d="M156.856727,45.6008986 L156.856727,55.034306 C156.911722,66.8294511 149.257327,78.6343589 133.891773,87.6344307 C103.268755,105.571263 53.6087713,105.571872 22.9772323,87.6344307 C7.60897593,78.6349744 -0.0500837464,66.8297942 0.000246432634,55.034306 L0,45.1110733 L156.856727,45.6008986 Z" id="Combined-Shape" fill="url(#linearGradient-3)"></path>
                                        <path d="M22.9636868,14.0155404 C-7.65933162,31.9523728 -7.65430668,61.0361819 22.9772323,78.9736233 C53.6087713,96.9110647 103.268755,96.9104557 133.891773,78.9736233 C164.518171,61.0348117 164.509767,31.9529818 133.878228,14.0155404 C103.246689,-3.92190097 53.5890445,-3.9226622 22.9636868,14.0155404 Z" id="Shape" fill="url(#linearGradient-1)"></path>
                                        <path d="M56.078835,62.2176174 L57.8971596,62.9986109 C67.1947225,66.992032 77.6430422,66.6559954 84.3437649,62.695121 C90.904031,58.8172723 91.4065058,53.4285051 84.7545295,47.2494584 L79.3081125,42.0979226 C75.9222315,39.0146336 75.9786067,35.9488218 79.4983089,33.8682853 C84.0708546,31.1654009 91.3982204,31.4959009 97.0528528,34.8384192 C102.514866,38.067078 103.063878,41.751004 100.468604,44.9174131 L108.207903,47.4653967 C111.605189,43.5359562 111.379123,38.886702 106.156931,34.4205517 L104.909176,33.3534407 L113.19693,28.4544542 L108.946922,25.9422254 L100.8569,30.72433 L99.0388527,29.9443283 C90.0081348,26.0698564 79.0296663,26.1642491 71.9658949,30.3397257 C65.5168602,34.1518244 65.2598954,39.5549411 71.3027261,45.1680939 L76.9332433,50.3454016 C80.5163957,53.6582375 80.5982542,56.8356856 76.8895034,59.0279709 C72.1939587,61.8035614 65.1412506,61.2128214 59.256807,57.734459 C52.5684924,53.7809193 51.7688311,49.0312197 55.8563007,45.0370158 L48.2971851,42.3096239 C43.2739995,46.8897677 43.3685608,53.1807118 50.3962059,58.6503056 L51.7850697,59.7312539 L43.6597976,64.5341957 L47.9098059,67.0464245 L56.078835,62.2176174 Z" id="$" fill="#FFFFFF" fill-rule="nonzero"></path>
                                        <path d="M45.0642778,65.3644001 L43.6597976,64.5341957 L51.7850697,59.7232875 L51.7850697,61.3916627 L45.0642778,65.3644001 Z M48.2971851,42.3096239 L55.8563007,45.0370158 C55.4340811,45.4496014 55.0640076,45.8702482 54.747184,46.2972461 L48.2971851,43.9700328 C46.2641969,45.8237127 45.0694906,47.9576199 44.83341,50.203891 C44.5368118,47.3542852 45.7685891,44.6151993 48.2971851,42.3096239 Z M59.256807,57.734459 C65.1412506,61.2128214 72.1939587,61.8035614 76.8895034,59.0279709 C78.3928637,58.1393173 79.2733792,57.0887891 79.5503196,55.9329854 C79.5989381,55.6972018 79.6302085,55.4373791 79.6441307,55.1535174 C79.6479024,56.1899325 79.6479024,56.768854 79.6441307,56.8902818 C79.5995964,58.3240514 78.692467,59.6226273 76.8895034,60.6883798 C72.1939587,63.4639703 65.1412506,62.8732302 59.256807,59.3948679 C55.305469,57.0591865 53.4094108,54.4456264 53.3621216,51.8741343 C53.3593091,51.721198 53.3593091,51.0478421 53.3621216,49.8540666 C53.3831829,50.2043538 53.4043002,50.5680511 53.4254735,50.9451585 C53.7869627,53.2777418 55.6796668,55.6199703 59.256807,57.734459 Z M71.9658949,30.3397257 C79.0296663,26.1642491 90.0081348,26.0698564 99.0388527,29.9443283 L100.8569,30.72433 L108.946922,25.9422254 L113.19693,28.4544542 L111.79245,29.2846586 L108.946922,27.6026342 L100.8569,32.3847388 L99.0388527,31.6047371 C90.0081348,27.7302653 79.0296663,27.824658 71.9658949,32.0001346 C68.9733736,33.7690483 67.314131,35.8805406 66.9989303,38.1966316 C66.6096125,35.2286921 68.2720152,32.5232205 71.9658949,30.3397257 Z M106.156931,34.4205517 C109.447524,37.2347499 110.754417,40.121649 110.421059,42.8553512 C110.150839,40.6277242 108.787984,38.3311032 106.156931,36.0809606 L104.909176,35.0138495 L104.909176,33.3529559 L106.057186,34.3352476 L106.156931,34.4205517 Z M100.468604,44.9174131 C101.226225,43.9930642 101.715893,43.0246129 101.893605,42.0362597 C102.089272,43.1131876 101.897134,44.1826607 101.371658,45.2147226 L100.468604,44.9174131 Z M79.3081125,42.0979226 L84.7545295,47.2494584 C88.3170633,50.5587099 89.8275236,53.6412898 89.4543703,56.3864991 C89.1529599,54.0786863 87.6154271,51.5673661 84.7545295,48.9098672 L79.3081125,43.7583315 C77.6070819,42.2093199 76.7748598,40.6647194 76.814118,39.2472475 C76.8160561,39.1772678 76.8160561,38.5631578 76.814118,37.4049175 C76.8421526,37.6361887 76.8747327,38.0102962 76.9118581,38.5272399 C77.1773832,39.6755225 77.9765619,40.8853711 79.3081125,42.0979226 Z" id="Combined-Shape" fill="url(#linearGradient-3)"></path>
                                        <path d="M28.4481034,17.2270833 C0.853127389,33.3902992 0.857655455,59.5982649 28.4603096,75.7620297 C56.0629637,91.9257944 100.812506,91.9252456 128.407482,75.7620297 C156.005503,59.5970302 155.99793,33.390848 128.395276,17.2270833 C100.792622,1.06331852 56.0451875,1.06263256 28.4481034,17.2270833 Z" id="Shape" stroke="#FFFFFF" stroke-width="1.5"></path>
                                    </g>
                                </g>
                            </g>
                        </g>
                        <g id="Group-13" transform="translate(25.398540, 20.020083)">
                            <g id="Group-49">
                                <g id="Group-48" transform="translate(0.883297, 0.558615)">
                                    <g id="Group-47">
                                        <path d="M156.856727,45.6008986 L156.856727,55.034306 C156.911722,66.8294511 149.257327,78.6343589 133.891773,87.6344307 C103.268755,105.571263 53.6087713,105.571872 22.9772323,87.6344307 C7.60897593,78.6349744 -0.0500837464,66.8297942 0.000246432634,55.034306 L0,45.1110733 L156.856727,45.6008986 Z" id="Combined-Shape" fill="url(#linearGradient-3)"></path>
                                        <path d="M22.9636868,14.0155404 C-7.65933162,31.9523728 -7.65430668,61.0361819 22.9772323,78.9736233 C53.6087713,96.9110647 103.268755,96.9104557 133.891773,78.9736233 C164.518171,61.0348117 164.509767,31.9529818 133.878228,14.0155404 C103.246689,-3.92190097 53.5890445,-3.9226622 22.9636868,14.0155404 Z" id="Shape" fill="url(#linearGradient-1)"></path>
                                        <path d="M56.078835,62.2176174 L57.8971596,62.9986109 C67.1947225,66.992032 77.6430422,66.6559954 84.3437649,62.695121 C90.904031,58.8172723 91.4065058,53.4285051 84.7545295,47.2494584 L79.3081125,42.0979226 C75.9222315,39.0146336 75.9786067,35.9488218 79.4983089,33.8682853 C84.0708546,31.1654009 91.3982204,31.4959009 97.0528528,34.8384192 C102.514866,38.067078 103.063878,41.751004 100.468604,44.9174131 L108.207903,47.4653967 C111.605189,43.5359562 111.379123,38.886702 106.156931,34.4205517 L104.909176,33.3534407 L113.19693,28.4544542 L108.946922,25.9422254 L100.8569,30.72433 L99.0388527,29.9443283 C90.0081348,26.0698564 79.0296663,26.1642491 71.9658949,30.3397257 C65.5168602,34.1518244 65.2598954,39.5549411 71.3027261,45.1680939 L76.9332433,50.3454016 C80.5163957,53.6582375 80.5982542,56.8356856 76.8895034,59.0279709 C72.1939587,61.8035614 65.1412506,61.2128214 59.256807,57.734459 C52.5684924,53.7809193 51.7688311,49.0312197 55.8563007,45.0370158 L48.2971851,42.3096239 C43.2739995,46.8897677 43.3685608,53.1807118 50.3962059,58.6503056 L51.7850697,59.7312539 L43.6597976,64.5341957 L47.9098059,67.0464245 L56.078835,62.2176174 Z" id="$" fill="#FFFFFF" fill-rule="nonzero"></path>
                                        <path d="M45.0642778,65.3644001 L43.6597976,64.5341957 L51.7850697,59.7232875 L51.7850697,61.3916627 L45.0642778,65.3644001 Z M48.2971851,42.3096239 L55.8563007,45.0370158 C55.4340811,45.4496014 55.0640076,45.8702482 54.747184,46.2972461 L48.2971851,43.9700328 C46.2641969,45.8237127 45.0694906,47.9576199 44.83341,50.203891 C44.5368118,47.3542852 45.7685891,44.6151993 48.2971851,42.3096239 Z M59.256807,57.734459 C65.1412506,61.2128214 72.1939587,61.8035614 76.8895034,59.0279709 C78.3928637,58.1393173 79.2733792,57.0887891 79.5503196,55.9329854 C79.5989381,55.6972018 79.6302085,55.4373791 79.6441307,55.1535174 C79.6479024,56.1899325 79.6479024,56.768854 79.6441307,56.8902818 C79.5995964,58.3240514 78.692467,59.6226273 76.8895034,60.6883798 C72.1939587,63.4639703 65.1412506,62.8732302 59.256807,59.3948679 C55.305469,57.0591865 53.4094108,54.4456264 53.3621216,51.8741343 C53.3593091,51.721198 53.3593091,51.0478421 53.3621216,49.8540666 C53.3831829,50.2043538 53.4043002,50.5680511 53.4254735,50.9451585 C53.7869627,53.2777418 55.6796668,55.6199703 59.256807,57.734459 Z M71.9658949,30.3397257 C79.0296663,26.1642491 90.0081348,26.0698564 99.0388527,29.9443283 L100.8569,30.72433 L108.946922,25.9422254 L113.19693,28.4544542 L111.79245,29.2846586 L108.946922,27.6026342 L100.8569,32.3847388 L99.0388527,31.6047371 C90.0081348,27.7302653 79.0296663,27.824658 71.9658949,32.0001346 C68.9733736,33.7690483 67.314131,35.8805406 66.9989303,38.1966316 C66.6096125,35.2286921 68.2720152,32.5232205 71.9658949,30.3397257 Z M106.156931,34.4205517 C109.447524,37.2347499 110.754417,40.121649 110.421059,42.8553512 C110.150839,40.6277242 108.787984,38.3311032 106.156931,36.0809606 L104.909176,35.0138495 L104.909176,33.3529559 L106.057186,34.3352476 L106.156931,34.4205517 Z M100.468604,44.9174131 C101.226225,43.9930642 101.715893,43.0246129 101.893605,42.0362597 C102.089272,43.1131876 101.897134,44.1826607 101.371658,45.2147226 L100.468604,44.9174131 Z M79.3081125,42.0979226 L84.7545295,47.2494584 C88.3170633,50.5587099 89.8275236,53.6412898 89.4543703,56.3864991 C89.1529599,54.0786863 87.6154271,51.5673661 84.7545295,48.9098672 L79.3081125,43.7583315 C77.6070819,42.2093199 76.7748598,40.6647194 76.814118,39.2472475 C76.8160561,39.1772678 76.8160561,38.5631578 76.814118,37.4049175 C76.8421526,37.6361887 76.8747327,38.0102962 76.9118581,38.5272399 C77.1773832,39.6755225 77.9765619,40.8853711 79.3081125,42.0979226 Z" id="Combined-Shape" fill="url(#linearGradient-3)"></path>
                                        <path d="M28.4481034,17.2270833 C0.853127389,33.3902992 0.857655455,59.5982649 28.4603096,75.7620297 C56.0629637,91.9257944 100.812506,91.9252456 128.407482,75.7620297 C156.005503,59.5970302 155.99793,33.390848 128.395276,17.2270833 C100.792622,1.06331852 56.0451875,1.06263256 28.4481034,17.2270833 Z" id="Shape" stroke="#FFFFFF" stroke-width="1.5"></path>
                                    </g>
                                </g>
                            </g>
                        </g>
                        <g id="Group-13" transform="translate(25.398540, 10.313376)">
                            <g id="Group-49">
                                <g id="Group-48" transform="translate(0.883297, 0.558615)">
                                    <g id="Group-47">
                                        <path d="M156.856727,45.6008986 L156.856727,55.034306 C156.911722,66.8294511 149.257327,78.6343589 133.891773,87.6344307 C103.268755,105.571263 53.6087713,105.571872 22.9772323,87.6344307 C7.60897593,78.6349744 -0.0500837464,66.8297942 0.000246432634,55.034306 L0,45.1110733 L156.856727,45.6008986 Z" id="Combined-Shape" fill="url(#linearGradient-3)"></path>
                                        <path d="M22.9636868,14.0155404 C-7.65933162,31.9523728 -7.65430668,61.0361819 22.9772323,78.9736233 C53.6087713,96.9110647 103.268755,96.9104557 133.891773,78.9736233 C164.518171,61.0348117 164.509767,31.9529818 133.878228,14.0155404 C103.246689,-3.92190097 53.5890445,-3.9226622 22.9636868,14.0155404 Z" id="Shape" fill="url(#linearGradient-1)"></path>
                                        <path d="M56.078835,62.2176174 L57.8971596,62.9986109 C67.1947225,66.992032 77.6430422,66.6559954 84.3437649,62.695121 C90.904031,58.8172723 91.4065058,53.4285051 84.7545295,47.2494584 L79.3081125,42.0979226 C75.9222315,39.0146336 75.9786067,35.9488218 79.4983089,33.8682853 C84.0708546,31.1654009 91.3982204,31.4959009 97.0528528,34.8384192 C102.514866,38.067078 103.063878,41.751004 100.468604,44.9174131 L108.207903,47.4653967 C111.605189,43.5359562 111.379123,38.886702 106.156931,34.4205517 L104.909176,33.3534407 L113.19693,28.4544542 L108.946922,25.9422254 L100.8569,30.72433 L99.0388527,29.9443283 C90.0081348,26.0698564 79.0296663,26.1642491 71.9658949,30.3397257 C65.5168602,34.1518244 65.2598954,39.5549411 71.3027261,45.1680939 L76.9332433,50.3454016 C80.5163957,53.6582375 80.5982542,56.8356856 76.8895034,59.0279709 C72.1939587,61.8035614 65.1412506,61.2128214 59.256807,57.734459 C52.5684924,53.7809193 51.7688311,49.0312197 55.8563007,45.0370158 L48.2971851,42.3096239 C43.2739995,46.8897677 43.3685608,53.1807118 50.3962059,58.6503056 L51.7850697,59.7312539 L43.6597976,64.5341957 L47.9098059,67.0464245 L56.078835,62.2176174 Z" id="$" fill="#FFFFFF" fill-rule="nonzero"></path>
                                        <path d="M45.0642778,65.3644001 L43.6597976,64.5341957 L51.7850697,59.7232875 L51.7850697,61.3916627 L45.0642778,65.3644001 Z M48.2971851,42.3096239 L55.8563007,45.0370158 C55.4340811,45.4496014 55.0640076,45.8702482 54.747184,46.2972461 L48.2971851,43.9700328 C46.2641969,45.8237127 45.0694906,47.9576199 44.83341,50.203891 C44.5368118,47.3542852 45.7685891,44.6151993 48.2971851,42.3096239 Z M59.256807,57.734459 C65.1412506,61.2128214 72.1939587,61.8035614 76.8895034,59.0279709 C78.3928637,58.1393173 79.2733792,57.0887891 79.5503196,55.9329854 C79.5989381,55.6972018 79.6302085,55.4373791 79.6441307,55.1535174 C79.6479024,56.1899325 79.6479024,56.768854 79.6441307,56.8902818 C79.5995964,58.3240514 78.692467,59.6226273 76.8895034,60.6883798 C72.1939587,63.4639703 65.1412506,62.8732302 59.256807,59.3948679 C55.305469,57.0591865 53.4094108,54.4456264 53.3621216,51.8741343 C53.3593091,51.721198 53.3593091,51.0478421 53.3621216,49.8540666 C53.3831829,50.2043538 53.4043002,50.5680511 53.4254735,50.9451585 C53.7869627,53.2777418 55.6796668,55.6199703 59.256807,57.734459 Z M71.9658949,30.3397257 C79.0296663,26.1642491 90.0081348,26.0698564 99.0388527,29.9443283 L100.8569,30.72433 L108.946922,25.9422254 L113.19693,28.4544542 L111.79245,29.2846586 L108.946922,27.6026342 L100.8569,32.3847388 L99.0388527,31.6047371 C90.0081348,27.7302653 79.0296663,27.824658 71.9658949,32.0001346 C68.9733736,33.7690483 67.314131,35.8805406 66.9989303,38.1966316 C66.6096125,35.2286921 68.2720152,32.5232205 71.9658949,30.3397257 Z M106.156931,34.4205517 C109.447524,37.2347499 110.754417,40.121649 110.421059,42.8553512 C110.150839,40.6277242 108.787984,38.3311032 106.156931,36.0809606 L104.909176,35.0138495 L104.909176,33.3529559 L106.057186,34.3352476 L106.156931,34.4205517 Z M100.468604,44.9174131 C101.226225,43.9930642 101.715893,43.0246129 101.893605,42.0362597 C102.089272,43.1131876 101.897134,44.1826607 101.371658,45.2147226 L100.468604,44.9174131 Z M79.3081125,42.0979226 L84.7545295,47.2494584 C88.3170633,50.5587099 89.8275236,53.6412898 89.4543703,56.3864991 C89.1529599,54.0786863 87.6154271,51.5673661 84.7545295,48.9098672 L79.3081125,43.7583315 C77.6070819,42.2093199 76.7748598,40.6647194 76.814118,39.2472475 C76.8160561,39.1772678 76.8160561,38.5631578 76.814118,37.4049175 C76.8421526,37.6361887 76.8747327,38.0102962 76.9118581,38.5272399 C77.1773832,39.6755225 77.9765619,40.8853711 79.3081125,42.0979226 Z" id="Combined-Shape" fill="url(#linearGradient-3)"></path>
                                        <path d="M28.4481034,17.2270833 C0.853127389,33.3902992 0.857655455,59.5982649 28.4603096,75.7620297 C56.0629637,91.9257944 100.812506,91.9252456 128.407482,75.7620297 C156.005503,59.5970302 155.99793,33.390848 128.395276,17.2270833 C100.792622,1.06331852 56.0451875,1.06263256 28.4481034,17.2270833 Z" id="Shape" stroke="#FFFFFF" stroke-width="1.5"></path>
                                    </g>
                                </g>
                            </g>
                        </g>
                        <g id="Group-13" transform="translate(25.398540, 0.606669)">
                            <g id="Group-49">
                                <g id="Group-48" transform="translate(0.883297, 0.558615)">
                                    <g id="Group-47">
                                        <path d="M156.856727,45.6008986 L156.856727,55.034306 C156.911722,66.8294511 149.257327,78.6343589 133.891773,87.6344307 C103.268755,105.571263 53.6087713,105.571872 22.9772323,87.6344307 C7.60897593,78.6349744 -0.0500837464,66.8297942 0.000246432634,55.034306 L0,45.1110733 L156.856727,45.6008986 Z" id="Combined-Shape" fill="url(#linearGradient-3)"></path>
                                        <path d="M22.9636868,14.0155404 C-7.65933162,31.9523728 -7.65430668,61.0361819 22.9772323,78.9736233 C53.6087713,96.9110647 103.268755,96.9104557 133.891773,78.9736233 C164.518171,61.0348117 164.509767,31.9529818 133.878228,14.0155404 C103.246689,-3.92190097 53.5890445,-3.9226622 22.9636868,14.0155404 Z" id="Shape" fill="url(#linearGradient-1)"></path>
                                        <path d="M28.4481034,17.2270833 C0.853127389,33.3902992 0.857655455,59.5982649 28.4603096,75.7620297 C56.0629637,91.9257944 100.812506,91.9252456 128.407482,75.7620297 C156.005503,59.5970302 155.99793,33.390848 128.395276,17.2270833 C100.792622,1.06331852 56.0451875,1.06263256 28.4481034,17.2270833 Z" id="Shape" stroke="#FFFFFF" stroke-width="1.5"></path>
                                    </g>
                                </g>
                            </g>
                        </g>
                    </g>
                    <path d="M134.766048,62.7641593 L130.931382,64.9845425 L137.799385,68.9361493 L130.574444,73.1195995 L123.706441,69.1679927 L119.806862,71.4259618 L65.6782467,40.2822669 L69.5778253,38.0242978 L60.8914955,33.0264902 L68.1164361,28.84304 L76.802766,33.8408476 L80.6374326,31.6204644 L71.9511027,26.6226568 L79.1760434,22.4392066 L88.0240466,27.5300354 C97.7415255,23.0859191 108.385139,23.6067285 115.991089,27.9829233 C121.564275,31.1895379 122.730708,35.7139393 119.781758,39.1841112 C126.314092,36.8999474 135.372093,37.207431 142.090455,41.072939 C150.457706,45.8871599 150.680473,52.8557801 141.949444,58.5568058 L148.858992,62.532316 L141.634052,66.7157662 L134.766048,62.7641593 Z M98.3645513,47.1786845 L105.799015,42.8739143 C110.578314,40.106562 110.788989,36.8999474 106.666358,34.5279312 C102.543728,32.1559149 97.2928315,32.1998411 92.2100857,35.1428983 L84.8514837,39.4037423 L98.3645513,47.1786845 Z M121.344401,60.4004788 L129.840931,55.4807414 C134.923677,52.5376842 135.286076,49.2432172 130.93441,46.7394222 C126.65909,44.2795535 120.950606,44.1477748 115.716137,47.1786845 L107.067883,52.1862744 L121.344401,60.4004788 Z" id="Combined-Shape" fill="url(#linearGradient-2)" fill-rule="nonzero"></path>
                    <path d="M107.067883,52.1717546 L121.344401,60.4004788 L129.840931,55.4807414 C131.889349,54.2946481 133.171087,53.0514787 133.686555,51.8259912 C134.548718,53.7795603 133.267485,55.9233442 129.840931,57.9074181 L121.344401,62.8271555 L107.067883,54.6129511 L107.067883,52.1717546 Z M84.8514837,39.3989566 L98.3645513,47.1786845 L105.799015,42.8739143 C107.659974,41.7963652 108.828256,40.6522169 109.317754,39.5166732 C110.157807,41.3855356 109.008651,43.4421185 105.799015,45.3005909 L98.3645513,49.6053612 L84.8514837,41.830419 L84.8514837,39.3989566 Z M133.033504,66.1940294 L137.799385,68.9361493 L135.697263,70.1533391 L130.931382,67.4112192 L130.931382,64.966092 L133.033504,66.1940294 Z M67.7803689,41.4917538 L65.6782467,40.2822669 L69.5778253,37.9933273 L69.5778253,40.4509745 L67.7803689,41.4917538 Z M62.9936177,34.2359771 L60.8914955,33.0264902 L68.1164361,28.84304 L76.802766,33.8408476 L80.6374326,31.5843689 L80.6374326,34.0471411 L76.802766,36.2675243 L68.1164361,31.2697167 L62.9936177,34.2359771 Z M74.053225,27.8321438 L71.9511027,26.6226568 L79.1760434,22.4392066 L88.0240466,27.5300354 C97.7415255,23.0859191 108.385139,23.6067285 115.991089,27.9829233 C120.169257,30.3868938 121.870668,33.5315088 121.218091,36.41731 C120.743304,34.2793746 119.016507,32.1503188 115.991089,30.4096 C108.385139,26.0334052 97.7415255,25.5125958 88.0240466,29.9567121 L79.1760434,24.8658833 L74.053225,27.8321438 Z M121.243057,38.7278365 C127.617398,36.963374 135.860003,37.4881573 142.090455,41.072939 C146.837446,43.8041903 148.963028,47.2288635 148.319418,50.7220936 C147.828075,48.0947624 145.72956,45.5934286 142.090455,43.4996156 C135.372093,39.6341077 126.314092,39.3266241 119.781758,41.6107879 C119.781758,41.6107879 119.781758,40.7937293 119.781758,39.1596121 C119.781758,39.1596121 120.268857,39.0156869 121.243057,38.7278365 Z M142.090455,58.5710572 L148.858992,62.532316 L146.75687,63.7495057 L141.949444,60.9834824 L142.090455,58.5710572 Z" id="Combined-Shape" fill="url(#linearGradient-3)"></path>
                </g>
                <g id="Group-33" transform="translate(56.000000, 0.000000)">
                    <g id="Group-4" transform="translate(0.251922, 0.007326)">
                        <g id="Group-37" transform="translate(122.180891, 83.376792) scale(-1, 1) translate(-122.180891, -83.376792) translate(0.180891, 0.876792)">
                            <polygon id="Rectangle-5" fill="#6276E2" opacity="0.900000036" points="0.970934189 49.6022792 45.0376539 24.5899153 103.503944 57.7493943 59.421028 82.7472462"></polygon>
                            <polygon id="Rectangle-5" fill="#6276E2" opacity="0.900000036" points="0.970934189 49.6022792 0.970934189 24.9784035 45.0376539 0.0439393136 103.503944 33.2034184 103.503944 57.7493943 59.421028 82.7472462"></polygon>
                            <polygon id="Rectangle-5" fill="#6276E2" opacity="0.400000006" points="0.970934189 24.9784035 45.0376539 0.0439393136 45.0376539 24.5899153 0.954738231 49.5877671"></polygon>
                            <polygon id="Rectangle-5" fill="#5D63DD" opacity="0.900000036" points="59.421028 28.5793298 103.503944 33.2034184 103.503944 57.7493943 59.421028 82.7472462"></polygon>
                            <polygon id="Rectangle-5" fill="url(#linearGradient-1)" opacity="0.900000036" points="0.970934189 24.9978519 45.0538499 0 103.503944 33.144967 59.421028 58.1428189"></polygon>
                            <g id="Group-4" transform="translate(70.794629, 5.015956)">
                                <polygon id="Rectangle-5" fill="#6276E2" opacity="0.400000006" points="8.55001913e-16 25.9457048 44.1502863 0.831791482 44.1502863 60.5680744 0.067370621 85.5659263"></polygon>
                                <polygon id="Rectangle-5" fill="#6276E2" opacity="0.900000036" points="-9.9475983e-14 85.7598875 44.1502863 60.6459742 102.533009 93.9849024 58.4500938 118.904855"></polygon>
                                <polygon id="Rectangle-5" fill="#6276E2" opacity="0.900000036" points="2.27373675e-13 85.7598875 3.27766169e-13 25.9457048 44.1502863 0.831791482 102.533009 34.1707198 102.533009 93.9070027 58.4500938 118.904855"></polygon>
                                <polygon id="Rectangle-5" fill="#5D63DD" opacity="0.900000036" points="58.4500938 25.9816271 102.533009 34.1707198 102.533009 93.9070027 58.4500938 118.904855"></polygon>
                                <polygon id="Rectangle-5" fill="url(#linearGradient-1)" opacity="0.900000036" points="0 25.9651532 44.0829157 0.967301371 102.533009 34.1122684 58.4500938 59.1101203"></polygon>
                            </g>
                            <g id="Group-4" transform="translate(140.727857, 9.725610)">
                                <polygon id="Rectangle-5" fill="#6276E2" opacity="0.900000036" points="4.54747351e-13 120.950194 44.1243199 95.963134 102.533009 129.175209 58.4500938 154.095161"></polygon>
                                <polygon id="Rectangle-5" fill="#6276E2" opacity="0.400000006" points="4.41453007e-13 25.9457048 44.1243199 0.958644334 44.1243199 95.8852342 0.0414042305 120.883086"></polygon>
                                <polygon id="Rectangle-5" fill="#6276E2" opacity="0.900000036" points="2.27373675e-13 120.950194 3.27766169e-13 25.9457048 44.1243199 0.958644334 102.533009 34.1707198 102.533009 129.09731 58.4500938 154.095161"></polygon>
                                <polygon id="Rectangle-5" fill="#5D63DD" opacity="0.900000036" points="58.4500938 44.0035554 102.533009 34.1707198 102.533009 129.09731 58.4500938 154.095161"></polygon>
                                <polygon id="Rectangle-5" fill="url(#linearGradient-1)" opacity="0.900000036" points="0 25.9651532 44.0829157 0.967301371 102.533009 34.1122684 58.4500938 59.1101203"></polygon>
                            </g>
                        </g>
                    </g>
                </g>
                <path d="M368.21667,221.674545 L350.94545,219.3619 C350.803472,219.4771 350.642742,219.587001 350.463258,219.690203 C348.745431,220.677935 345.960282,220.677935 344.242455,219.690203 C342.908685,218.923299 342.610492,217.786434 343.347875,216.854104 L333.543319,211.216588 C331.921847,211.640575 329.944653,211.469117 328.610883,210.702214 C327.648866,210.149064 327.225597,209.403445 327.341078,208.68093 L312.6584,204.723562 C310.772035,205.813659 307.986887,205.813659 306.269059,204.825927 C305.661634,204.476664 305.268995,204.050668 305.091142,203.602205 L283.23711,202.745443 C283.027974,202.995168 282.743328,203.229229 282.383174,203.436314 C280.665347,204.424046 277.880199,204.424046 276.162371,203.436314 C274.905199,202.713453 274.568074,201.661902 275.150996,200.762758 L264.908222,195.123887 C263.258337,195.603059 261.193025,195.446404 259.814772,194.653923 C258.278726,193.770713 258.116181,192.396816 259.327135,191.409756 L251.137939,184.66486 C249.601495,184.965096 247.833695,184.763027 246.608673,184.058652 C245.81047,183.599694 245.383159,183.008233 245.32674,182.407407 L228.071319,179.725871 C227.93392,179.83566 227.77935,179.940542 227.607612,180.03929 C225.889784,181.027022 223.104636,181.027022 221.386809,180.03929 C220.344534,179.439993 219.934649,178.614774 220.157154,177.837784 L204,172.459251 L205.469296,171 L221.573653,176.360957 C223.300991,175.475905 225.950753,175.509718 227.607612,176.462394 C228.402543,176.919471 228.829617,177.507966 228.888833,178.106251 L246.15261,180.789086 C246.288091,180.681507 246.440112,180.578677 246.608673,180.481756 C248.326501,179.494024 251.111649,179.494024 252.829476,180.481756 C254.310093,181.333095 254.514548,182.640345 253.442842,183.617596 L261.71756,190.43293 C263.20262,190.190027 264.866334,190.404726 266.035575,191.077027 C267.365843,191.841917 267.665965,192.974829 266.935941,193.905778 L277.039635,199.468082 C278.726248,198.895903 280.934331,199.026348 282.383174,199.859417 C282.983681,200.204702 283.374266,200.624982 283.554931,201.067824 L305.427444,201.92531 C305.63539,201.681058 305.915928,201.452077 306.269059,201.249031 C307.986887,200.261298 310.772035,200.261298 312.489863,201.249031 C313.403757,201.77451 313.831454,202.473686 313.772954,203.161742 L328.569066,207.149684 C330.328711,206.137586 333.113859,206.137586 334.831686,207.125318 C336.206319,207.915717 336.480949,209.099095 335.655576,210.046516 L345.38282,215.639579 C347.030539,215.164998 349.088625,215.322907 350.463258,216.113306 C351.249402,216.565331 351.675776,217.145885 351.742381,217.737327 L368.968292,220.043905 C369.119947,219.916554 369.294125,219.795406 369.490826,219.682305 C371.208654,218.694572 373.993802,218.694572 375.711629,219.682305 C377.429457,220.670037 377.429457,222.271468 375.711629,223.259201 C373.993802,224.246933 371.208654,224.246933 369.490826,223.259201 C368.722131,222.817209 368.297412,222.252331 368.21667,221.674545 Z" id="Combined-Shape" fill="#5D63DD" fill-rule="nonzero"></path>
                <path d="M244.803589,273.212377 L253.0078,277.857538 L246.204211,281.709677 L238,277.064516 L244.803589,273.212377 Z M271.842371,273 L280.046582,277.645161 L259.536054,289.258065 L251.331843,284.612903 L271.842371,273 Z M325.169743,303.193548 L333.373954,307.83871 L312.863427,319.451613 L304.659215,314.806452 L325.169743,303.193548 Z M306.385926,283.635253 L314.590137,288.280414 L286.19974,304.354839 L277.995529,299.709677 L306.385926,283.635253 Z M279.468417,283.778966 L287.672628,288.424127 L272.867897,296.806452 L264.663686,292.16129 L279.468417,283.778966 Z M332.795789,313.972514 L341,318.617675 L326.19527,327 L317.991059,322.354839 L332.795789,313.972514 Z M306.132103,298.87574 L314.336314,303.520901 L299.531583,311.903226 L291.327372,307.258065 L306.132103,298.87574 Z" id="Combined-Shape" fill="url(#linearGradient-1)"></path>
            </g>
        </g>
    </g>
</svg>