<?xml version="1.0" encoding="UTF-8"?>
<svg width="504px" height="399px" viewBox="0 0 504 399" version="1.1" xmlns="http://www.w3.org/2000/svg" xmlns:xlink="http://www.w3.org/1999/xlink">
    <!-- Generator: Sketch 52.6 (67491) - http://www.bohemiancoding.com/sketch -->
    <title>Group 93 Copy</title>
    <desc>Created with Sketch.</desc>
    <defs>
        <linearGradient x1="-133.206517%" y1="0%" x2="143.178214%" y2="76.8724474%" id="linearGradient-1">
            <stop stop-color="#5648D6" offset="0%"></stop>
            <stop stop-color="#9FDDFF" offset="100%"></stop>
        </linearGradient>
        <linearGradient x1="85.3553391%" y1="14.6446609%" x2="14.6446609%" y2="85.3553391%" id="linearGradient-2">
            <stop stop-color="#F4FAFF" offset="0%"></stop>
            <stop stop-color="#CBE7FF" offset="100%"></stop>
        </linearGradient>
        <linearGradient x1="143.851588%" y1="-82.0051979%" x2="14.6446609%" y2="85.3553391%" id="linearGradient-3">
            <stop stop-color="#F4FAFF" offset="0%"></stop>
            <stop stop-color="#CBE7FF" offset="100%"></stop>
        </linearGradient>
        <linearGradient x1="125.071373%" y1="-16.4424279%" x2="-29.9623894%" y2="129.566162%" id="linearGradient-4">
            <stop stop-color="#5648D6" offset="0%"></stop>
            <stop stop-color="#9FDDFF" offset="100%"></stop>
        </linearGradient>
        <linearGradient x1="116.526126%" y1="-7.4715199%" x2="-18.9132012%" y2="114.49051%" id="linearGradient-5">
            <stop stop-color="#5648D6" offset="0%"></stop>
            <stop stop-color="#9FDDFF" offset="100%"></stop>
        </linearGradient>
    </defs>
    <g id="Industries" stroke="none" stroke-width="1" fill="none" fill-rule="evenodd">
        <g transform="translate(-589.000000, -3004.000000)" id="Group-93-Copy">
            <g transform="translate(589.000000, 3004.000000)">
                <g id="Group-64" opacity="0.5" transform="translate(8.261470, 109.464475)" fill="url(#linearGradient-1)">
                    <path d="M422.964161,42.2617274 C519.911637,98.7203034 519.933161,190.431301 423.006923,246.891298 C326.275426,303.237857 169.476123,303.238448 72.7200299,246.891326 C-24.2237747,190.434889 -24.2419863,98.7176839 72.6772674,42.2617559 C169.413595,-14.0876168 326.20552,-14.0868776 422.964161,42.2617274 Z M73.2559,245.968459 C169.680699,302.122647 326.070767,302.122057 422.470955,245.968487 C518.690353,189.920229 518.669068,99.2316161 422.428291,43.1845948 C326.000942,-12.9710784 169.618251,-12.9718157 73.2132353,43.1845663 C-22.9991964,99.2287671 -22.9811877,189.923587 73.2559,245.968459 Z" id="Shape"></path>
                    <path d="M107.030512,63.7504137 C184.466151,18.577592 309.975187,18.5781846 387.428688,63.7503908 C465.033109,109.010616 465.050338,182.530637 387.462918,227.792002 C310.031145,272.962568 184.516204,272.963042 107.064742,227.792025 C29.4632603,182.533513 29.4486823,109.008516 107.030512,63.7504137 Z M107.460122,64.4895822 C30.4439308,109.417715 30.4583465,182.12414 107.494275,227.05281 C184.680223,272.068975 309.867059,272.068503 387.033307,227.052833 C464.055075,182.121448 464.038037,109.419999 386.999155,64.4896051 C309.811166,19.4722496 184.630235,19.4716585 107.460122,64.4895822 Z" id="Shape"></path>
                    <path d="M134.646614,79.6416777 C196.50216,43.5498598 296.758745,43.5503332 358.628558,79.6416595 C420.618731,115.803197 420.632494,174.54319 358.655901,210.705637 C296.803444,246.795653 196.542142,246.796032 134.673958,210.705656 C72.6861319,174.545487 72.6744871,115.801519 134.646614,79.6416777 Z M134.98968,80.2314982 C73.4689149,116.127977 73.4804303,174.21889 135.016961,210.115799 C196.673133,246.082499 296.6724,246.082121 358.312835,210.115817 C419.838055,174.21674 419.824445,116.129801 358.285555,80.2315164 C296.627752,44.2638648 196.633202,44.2633926 134.98968,80.2314982 Z" id="Shape"></path>
                    <path d="M167.002455,98.2404146 C211.648159,72.399007 284.008153,72.399346 328.664153,98.2404004 C373.415257,124.136488 373.425194,166.209864 328.683888,192.106607 C284.040413,217.946725 211.677014,217.946996 167.02219,192.106621 C122.27278,166.211514 122.264372,124.135292 167.002455,98.2404146 Z M167.269845,98.7012623 C122.886348,124.390902 122.894654,165.955795 167.289531,191.645745 C211.778993,217.39043 283.938393,217.390159 328.416498,191.64576 C372.803209,165.95426 372.793392,124.392213 328.396812,98.7012765 C283.906173,72.9559113 211.750178,72.9555733 167.269845,98.7012623 Z" id="Shape"></path>
                </g>
                <g id="Group-85" transform="translate(0.000000, 113.595209)">
                    <path d="M153.373825,258.379579 L0.387506078,170.144112 L0.387506078,167.043536 L232.448408,37.6062831 C240.360891,33.0231547 250.109473,33.0231547 258.021956,37.6062831 L396.273507,117.685391 C397.137434,118.185801 398.558659,118.73534 400.537183,119.334009 C400.538314,122.204479 400.538314,124.124429 400.537183,125.093859 C400.533737,128.046014 399.005179,130.916035 396.273507,132.498294 L178.947373,258.379579 C171.03489,262.962707 161.286308,262.962707 153.373825,258.379579 Z" id="Polygon" fill="#5D63DD"></path>
                    <path d="M0.397043279,166.967979 L0.397043279,144.951931 L7.70473055,146.502219 L7.70473055,162.735165 L243.296725,26.2737906 L396.273507,112.55405 C397.569397,113.304665 398.645514,114.384281 399.393696,115.684385 C401.747677,119.774855 400.35072,125.00532 396.273507,127.366954 L178.947373,253.248239 C171.03489,257.831367 161.286308,257.831367 153.373825,253.248239 L0.397043279,166.967979 Z" id="Polygon" fill="#6276E2"></path>
                    <g id="Group-84" transform="translate(7.750122, 38.757201)" fill="url(#linearGradient-2)">
                        <path d="M144.003811,210.709388 L0,127.787181 L0,101.618991 L218.435574,3.23036018 C225.88348,-1.07678673 235.059679,-1.07678673 242.507586,3.23036018 L372.641773,55.2330372 C373.454974,55.7033143 374.792753,56.2197622 376.655109,56.7823807 C376.656174,59.4800006 376.656174,84.5386579 376.655109,85.4497117 C376.651866,88.2240976 375.213056,90.9212943 372.641773,92.4082754 L168.075823,210.709388 C160.627917,215.016535 151.451718,215.016535 144.003811,210.709388 Z" id="Polygon"></path>
                    </g>
                    <path d="M3.10004862,145.52536 L3.10004862,168.492498 L0.397043279,166.967979 L0.397043279,144.951931 L3.10004862,145.52536 Z" id="Combined-Shape" fill="#5D63DD"></path>
                    <g id="Group-84">
                        <path d="M153.373825,232.799827 L0.387506078,144.564359 L0.387506078,141.463783 L232.448408,12.0265305 C240.360891,7.44340218 250.109473,7.44340218 258.021956,12.0265305 L396.273507,92.105638 C397.137434,92.6060482 398.558659,93.1555876 400.537183,93.754256 C400.538314,96.6247265 400.538314,98.5446766 400.537183,99.5141064 C400.533737,102.466262 399.005179,105.336282 396.273507,106.918542 L178.947373,232.799827 C171.03489,237.382955 161.286308,237.382955 153.373825,232.799827 Z" id="Polygon" fill="#5D63DD"></path>
                        <path d="M0.397043279,141.388227 L243.296725,0.694038033 L396.273507,86.9742976 C397.569397,87.7249129 398.645514,88.8045287 399.393696,90.1046325 C401.747677,94.1951029 400.35072,99.4255672 396.273507,101.787201 L178.947373,227.668486 C171.03489,232.251615 161.286308,232.251615 153.373825,227.668486 L0.397043279,141.388227 Z" id="Polygon" fill="#6276E2"></path>
                        <polygon id="Polygon" fill="url(#linearGradient-2)" points="103.851629 199.605134 346.751311 58.9109453 354.192532 63.1078598 111.29285 203.802048"></polygon>
                        <polygon id="Polygon" fill="url(#linearGradient-2)" points="103.851629 199.605134 103.851629 229.896579 111.29285 234.093493 111.29285 203.802048"></polygon>
                    </g>
                </g>
                <g id="Group-85" transform="translate(20.653674, 101.203005)">
                    <path d="M137.48512,232.553871 L0,153.236977 L0,150.449798 L208.547544,34.0956704 C215.658302,29.9757908 224.419118,29.9757908 231.529876,34.0956704 L355.773215,106.080625 C356.549605,106.530455 357.826826,107.024448 359.604878,107.562605 C359.605894,110.142937 359.605894,111.868825 359.604878,112.740267 C359.601782,115.394028 358.228103,117.973955 355.773215,119.396285 L160.467452,232.553871 C153.356694,236.673751 144.595879,236.673751 137.48512,232.553871 Z" id="Polygon" fill="#5D63DD"></path>
                    <path d="M0,149.630468 L0,129.85493 L6.56741292,131.24745 L6.56741292,145.828416 L218.293757,23.2543205 L355.773873,100.754088 C356.938488,101.428315 357.905594,102.398061 358.577985,103.565857 C360.693505,107.240052 359.438061,111.938227 355.773873,114.059525 L160.463044,227.130235 C153.352101,231.246952 144.591058,231.246952 137.480116,227.130235 L0,149.630468 Z" id="Polygon" fill="url(#linearGradient-1)"></path>
                    <g id="Group-84" transform="translate(6.975109, 34.881481)" fill="url(#linearGradient-2)">
                        <path d="M129.484909,189.333074 L0,114.823264 L0,91.3098183 L196.412234,2.90264248 C203.10922,-0.967547494 211.360247,-0.967547494 218.057232,2.90264248 L335.070894,49.6296856 C335.802107,50.0522535 337.005007,50.516308 338.679594,51.0218494 C338.680551,53.4457976 338.680551,75.9622723 338.679594,76.7809003 C338.676678,79.2738268 337.382933,81.6973949 335.070894,83.0335228 L151.129907,189.333074 C144.432921,193.203264 136.181894,193.203264 129.484909,189.333074 Z" id="Polygon"></path>
                    </g>
                    <path d="M2.32503647,130.734005 L2.32503647,151.153083 L0,149.7977 L0,130.224195 L2.32503647,130.734005 Z" id="Combined-Shape" fill="#5D63DD"></path>
                    <g id="Group-84">
                        <path d="M137.947444,209.138205 L0.348530612,129.870932 L0.348530612,127.085497 L209.068684,10.8041619 C216.185328,6.68685966 224.953394,6.68685966 232.070038,10.8041619 L356.41621,82.7440814 C357.193243,83.1936302 358.471521,83.6873147 360.251044,84.2251349 C360.252062,86.8038527 360.252062,88.5286603 360.251044,89.3995579 C360.247946,92.0516581 358.87313,94.6299714 356.41621,96.0514113 L160.948798,209.138205 C153.832154,213.255507 145.064088,213.255507 137.947444,209.138205 Z" id="Polygon" fill="#5D63DD"></path>
                        <path d="M0.357108559,127.01762 L218.825875,0.623496462 L356.41621,78.134287 C357.58176,78.8086103 358.54964,79.7784946 359.22257,80.9464567 C361.339786,84.6211744 360.083336,89.3200177 356.41621,91.441617 L160.948798,204.528411 C153.832154,208.645713 145.064088,208.645713 137.947444,204.528411 L0.357108559,127.01762 Z" id="Polygon" fill="url(#linearGradient-1)"></path>
                    </g>
                </g>
                <g id="Group-91" transform="translate(248.876777, 218.928949)">
                    <path d="M149.027475,108.752037 C111.209119,130.503119 74.2381184,153.803868 38.1144738,178.654284 L5.16341861,121.799267 C51.0980582,99.4639984 89.8420652,79.2224632 121.39544,61.0746616 C152.948814,42.92686 183.576247,23.2696793 213.277737,2.10311957 C224.049136,-4.09200879 239.679816,3.89126875 248.780767,19.594399 C257.881718,35.2975293 257.006594,52.7740563 246.826123,58.6293146 C246.628404,58.7430322 205.755009,76.1254146 149.027475,108.752037 Z" id="Combined-Shape" fill="url(#linearGradient-3)"></path>
                    <path d="M39.666512,136.314251 C40.2086094,137.13606 40.7326554,137.982707 41.2365997,138.853145 C50.3010126,154.509654 49.4294024,171.934294 39.2898038,177.772169 C29.1502051,183.610043 13.5822778,175.650467 4.51786495,159.993959 C4.01392064,159.123521 3.54068765,158.247618 3.09805117,157.368545 L39.666512,136.314251 Z" id="Combined-Shape" fill="url(#linearGradient-4)"></path>
                    <path d="M43.3727164,142.284446 L12.4669091,160.065977 C-2.16335717,149.375665 -3.61990033,126.520038 6.53825402,120.675585 C16.6964084,114.831132 32.2928254,122.799677 41.3738264,138.473829 C42.104441,139.734897 42.7706214,141.007424 43.3727164,142.284446 Z" id="Combined-Shape" fill="url(#linearGradient-5)"></path>
                    <path d="M146.105076,111.529842 C151.544989,104.673549 151.030859,91.8046842 144.204693,80.0551541 C137.378528,68.3056239 126.420888,61.4287192 117.725944,62.6822944 C118.734732,61.4108506 119.948271,60.3461713 121.364279,59.5337372 C130.416147,54.3402318 144.314015,61.4212507 152.406038,75.3496356 C160.498061,89.2780205 159.719953,104.779375 150.668086,109.972881 C149.252078,110.785315 147.717482,111.297377 146.105076,111.529842 Z" id="Combined-Shape" fill="#5D63DD"></path>
                </g>
                <g id="Group-92" transform="translate(48.536135, 0.000000)">
                    <g id="Group-86">
                        <path d="M75.8401715,92.9336819 L251.520569,92.9336819 L251.520569,204.038207 C232.366713,235.676595 203.086647,251.495789 163.68037,251.495789 C124.274093,251.495789 94.9940272,235.676595 75.8401715,204.038207 L75.8401715,92.9336819 Z" id="Rectangle-30" fill="#5D63DD"></path>
                        <g id="Group-87">
                            <polygon id="Polygon-3" fill="#5D63DD" points="163.68037 8.62271276 327.36074 94.8324207 327.36074 102.514474 163.68037 196.406235 0 102.514474 3.12538447e-12 94.8324207"></polygon>
                            <polygon id="Polygon-3" fill="#6276E2" points="163.68037 0 327.36074 93.8917611 163.68037 187.783522 1.42108547e-14 93.8917611"></polygon>
                        </g>
                    </g>
                    <path d="M165.588075,88.2131359 C164.386746,87.6585283 163.863108,86.2364293 164.418496,85.0367888 C164.973884,83.8371484 166.397985,83.314246 167.599314,83.8688537 L260.194675,126.616591 C262.738485,127.790971 264.367033,130.33445 264.367033,133.133014 L264.367033,206.209075 C264.367033,207.530713 263.294126,208.602112 261.970628,208.602112 C260.64713,208.602112 259.574222,207.530713 259.574222,206.209075 L259.574222,133.133014 C259.574222,132.20016 259.031373,131.352333 258.183436,130.960873 L165.588075,88.2131359 Z" id="Path-20" fill="url(#linearGradient-2)" fill-rule="nonzero"></path>
                    <path d="M261.785324,195.177224 C266.06284,195.177224 269.530452,198.69107 269.530452,203.02562 L269.530452,214.798214 L254.040196,214.798214 L254.040196,203.02562 C254.040196,198.69107 257.507808,195.177224 261.785324,195.177224 Z" id="Rectangle-35" fill="url(#linearGradient-2)"></path>
                    <path d="M248.993089,246.065893 C246.525418,245.204477 245.198959,242.463394 246.023337,239.929 L254.197797,214.798214 L269.372925,214.798214 L277.547311,239.928788 C278.371692,242.46319 277.045215,245.204282 274.577529,246.065685 C271.181068,247.251291 266.916798,247.844093 261.784718,247.844093 C256.652937,247.844093 252.389061,247.25136 248.993089,246.065893 Z" id="Rectangle-35" fill="url(#linearGradient-2)"></path>
                </g>
            </g>
        </g>
    </g>
</svg>