<?xml version="1.0" encoding="UTF-8"?>
<svg width="93px" height="102px" viewBox="0 0 93 102" version="1.1" xmlns="http://www.w3.org/2000/svg" xmlns:xlink="http://www.w3.org/1999/xlink">
    <!-- Generator: Sketch 52.4 (67378) - http://www.bohemiancoding.com/sketch -->
    <title>Efficiency</title>
    <desc>Created with Sketch.</desc>
    <defs>
        <linearGradient x1="83.3409274%" y1="-64.999992%" x2="50%" y2="100%" id="linearGradient-1">
            <stop stop-color="#80B1F1" offset="0%"></stop>
            <stop stop-color="#4979DF" offset="100%"></stop>
        </linearGradient>
        <linearGradient x1="15.2523332%" y1="6.14617099%" x2="97.7101877%" y2="97.0554051%" id="linearGradient-2">
            <stop stop-color="#2D5CDD" offset="0%"></stop>
            <stop stop-color="#1D2F76" offset="100%"></stop>
        </linearGradient>
        <linearGradient x1="50%" y1="0%" x2="50%" y2="129.15684%" id="linearGradient-3">
            <stop stop-color="#F4FAFF" offset="0%"></stop>
            <stop stop-color="#9DCEF8" offset="100%"></stop>
        </linearGradient>
    </defs>
    <g id="About-Us" stroke="none" stroke-width="1" fill="none" fill-rule="evenodd">
        <g transform="translate(-1174.000000, -1576.000000)" id="Efficiency">
            <g transform="translate(1174.000000, 1576.000000)">
                <g id="Group" fill="url(#linearGradient-1)">
                    <path d="M5.31400138,13.9152095 C4.86573491,13.2278676 4.96021319,12.3204867 5.54046388,11.740236 L11.740236,5.54046388 C12.3204867,4.96021319 13.2278676,4.86573491 13.9152095,5.31400138 L18.7127626,8.44284033 C19.8451407,7.86165516 21.023765,7.3725654 22.2383719,6.9811689 L23.4180274,1.37780534 C23.5870793,0.574808955 24.2955007,0 25.1160991,0 L33.8839009,0 C34.7044993,0 35.4129207,0.574808955 35.5819726,1.37780534 L36.7616281,6.9811689 C37.976235,7.3725654 39.1548593,7.86165516 40.2872374,8.44284033 L45.0847905,5.31400138 C45.7721324,4.86573491 46.6795133,4.96021319 47.259764,5.54046388 L53.4595361,11.740236 C54.0397868,12.3204867 54.1342651,13.2278676 53.6859986,13.9152095 L50.5571597,18.7127626 C51.1383448,19.8451407 51.6274346,21.023765 52.0188311,22.2383719 L57.6221947,23.4180274 C58.425191,23.5870793 59,24.2955007 59,25.1160991 L59,33.8839009 C59,34.7044993 58.425191,35.4129207 57.6221947,35.5819726 L52.0188311,36.7616281 C51.6274346,37.976235 51.1383448,39.1548593 50.5571597,40.2872374 L53.6859986,45.0847905 C54.1342651,45.7721324 54.0397868,46.6795133 53.4595361,47.259764 L47.259764,53.4595361 C46.6795133,54.0397868 45.7721324,54.1342651 45.0847905,53.6859986 L40.2872374,50.5571597 C39.1548593,51.1383448 37.976235,51.6274346 36.7616281,52.0188311 L35.5819726,57.6221947 C35.4129207,58.425191 34.7044993,59 33.8839009,59 L25.1160991,59 C24.2955007,59 23.5870793,58.425191 23.4180274,57.6221947 L22.2383719,52.0188311 C21.023765,51.6274346 19.8451407,51.1383448 18.7127626,50.5571597 L13.9152095,53.6859986 C13.2278676,54.1342651 12.3204867,54.0397868 11.740236,53.4595361 L5.54046388,47.259764 C4.96021319,46.6795133 4.86573491,45.7721324 5.31400138,45.0847905 L8.44284033,40.2872374 C7.86165516,39.1548593 7.3725654,37.976235 6.9811689,36.7616281 L1.37780534,35.5819726 C0.574808955,35.4129207 -1.15593809e-15,34.7044993 0,33.8839009 L1.23300063e-14,25.1160991 C1.34859444e-14,24.2955007 0.574808955,23.5870793 1.37780534,23.4180274 L6.9811689,22.2383719 C7.3725654,21.023765 7.86165516,19.8451407 8.44284033,18.7127626 L5.31400138,13.9152095 Z M29.5,41.6470588 C36.2086353,41.6470588 41.6470588,36.2086353 41.6470588,29.5 C41.6470588,22.7913647 36.2086353,17.3529412 29.5,17.3529412 C22.7913647,17.3529412 17.3529412,22.7913647 17.3529412,29.5 C17.3529412,36.2086353 22.7913647,41.6470588 29.5,41.6470588 Z" id="Path"></path>
                </g>
                <g id="Group-22" transform="translate(25.000000, 27.000000)">
                    <polygon id="Rectangle-5" fill="url(#linearGradient-2)" points="51.2880615 5.51811966 56.4842139 8.51811966 51.4842139 17.1783737 46.2880615 14.1783737"></polygon>
                    <polygon id="Rectangle-5" fill="url(#linearGradient-2)" points="48.6899853 4.01811966 50.6899853 0.554018048 61.0822901 6.55401805 59.0822901 10.0181197"></polygon>
                    <path d="M16.953125,69.9879741 C0.930322114,60.7372046 -4.55949559,40.248926 4.69127397,24.2261231 C13.9420435,8.20332023 34.4303221,2.71350253 50.453125,11.9642721 C66.4759279,21.2150416 71.9657456,41.7033202 62.714976,57.7261231 C53.4642065,73.748926 32.9759279,79.2387437 16.953125,69.9879741 Z" id="Oval-3" fill="url(#linearGradient-2)"></path>
                    <path d="M20.453125,63.9257963 C7.77837048,56.6080234 3.43567886,40.4008776 10.7534518,27.7261231 C18.0712247,15.0513686 34.2783705,10.708677 46.953125,18.0264499 C59.6278795,25.3442228 63.9705711,41.5513686 56.6527982,54.2261231 C49.3350253,66.9008776 33.1278795,71.2435692 20.453125,63.9257963 Z" id="Oval-3" fill="url(#linearGradient-3)" fill-rule="nonzero"></path>
                    <path d="M26.8080234,39.4964305 L35.4537675,26.9233719 L28.8880514,40.6973353 C29.8047997,41.792434 29.990405,43.3861933 29.2348564,44.6948419 C28.2683581,46.3688661 26.1277917,46.9424291 24.4537675,45.9759308 C22.7797433,45.0094325 22.2061803,42.8688661 23.1726786,41.1948419 C23.9282272,39.8861933 25.4012659,39.2500526 26.8080234,39.4964305 Z" id="Combined-Shape" fill="url(#linearGradient-2)" transform="translate(29.078475, 36.684399) rotate(-75.000000) translate(-29.078475, -36.684399) "></path>
                </g>
            </g>
        </g>
    </g>
</svg>