<?xml version="1.0" encoding="UTF-8"?>
<svg width="2440px" height="634px" viewBox="0 0 2440 634" version="1.1" xmlns="http://www.w3.org/2000/svg" xmlns:xlink="http://www.w3.org/1999/xlink">
    <!-- Generator: Sketch 52.4 (67378) - http://www.bohemiancoding.com/sketch -->
    <title>Group 41</title>
    <desc>Created with Sketch.</desc>
    <defs>
        <linearGradient x1="50%" y1="0%" x2="50%" y2="100%" id="linearGradient-1">
            <stop stop-color="#FFFFFF" offset="0%"></stop>
            <stop stop-color="#EAF0FD" offset="100%"></stop>
        </linearGradient>
        <linearGradient x1="-133.206517%" y1="0%" x2="143.178214%" y2="76.8724474%" id="linearGradient-2">
            <stop stop-color="#5648D6" offset="0%"></stop>
            <stop stop-color="#9FDDFF" offset="100%"></stop>
        </linearGradient>
        <linearGradient x1="15.0010851%" y1="-6.5780568%" x2="128.868273%" y2="191.280224%" id="linearGradient-3">
            <stop stop-color="#CFDDF3" offset="0%"></stop>
            <stop stop-color="#A1B8E3" offset="100%"></stop>
        </linearGradient>
        <linearGradient x1="83.3409274%" y1="-64.999992%" x2="50%" y2="100%" id="linearGradient-4">
            <stop stop-color="#80B1F1" offset="0%"></stop>
            <stop stop-color="#4979DF" offset="100%"></stop>
        </linearGradient>
        <linearGradient x1="50%" y1="0%" x2="50%" y2="129.15684%" id="linearGradient-5">
            <stop stop-color="#F4FAFF" offset="0%"></stop>
            <stop stop-color="#9DCEF8" offset="100%"></stop>
        </linearGradient>
        <linearGradient x1="15.2523332%" y1="6.14617099%" x2="97.7101877%" y2="97.0554051%" id="linearGradient-6">
            <stop stop-color="#2D5CDD" offset="0%"></stop>
            <stop stop-color="#1D2F76" offset="100%"></stop>
        </linearGradient>
        <linearGradient x1="17.333653%" y1="-32.562449%" x2="73.3862163%" y2="63.1949665%" id="linearGradient-7">
            <stop stop-color="#F4FAFF" offset="0%"></stop>
            <stop stop-color="#9DCEF8" offset="100%"></stop>
        </linearGradient>
        <linearGradient x1="22.3401988%" y1="4.8113282%" x2="86.9247707%" y2="83.8066484%" id="linearGradient-8">
            <stop stop-color="#F4FAFF" offset="0%"></stop>
            <stop stop-color="#CBE7FF" offset="100%"></stop>
        </linearGradient>
        <linearGradient x1="50%" y1="23.7180568%" x2="111.906317%" y2="114.009358%" id="linearGradient-9">
            <stop stop-color="#CFDDF3" offset="0%"></stop>
            <stop stop-color="#A1B8E3" offset="100%"></stop>
        </linearGradient>
        <linearGradient x1="50%" y1="166.803254%" x2="50%" y2="20.389144%" id="linearGradient-10">
            <stop stop-color="#70B8F9" offset="0%"></stop>
            <stop stop-color="#3D82F0" offset="100%"></stop>
        </linearGradient>
        <linearGradient x1="83.207842%" y1="54.7183355%" x2="-8.47263049%" y2="149.238051%" id="linearGradient-11">
            <stop stop-color="#D6E3FA" offset="0%"></stop>
            <stop stop-color="#A1B8E3" offset="100%"></stop>
        </linearGradient>
        <linearGradient x1="-25.8029357%" y1="100%" x2="42.445841%" y2="30.4265738%" id="linearGradient-12">
            <stop stop-color="#47689B" offset="0%"></stop>
            <stop stop-color="#223762" offset="100%"></stop>
        </linearGradient>
        <linearGradient x1="0%" y1="106.763463%" x2="28.5542338%" y2="0%" id="linearGradient-13">
            <stop stop-color="#CFDDF3" offset="0%"></stop>
            <stop stop-color="#A1B8E3" offset="100%"></stop>
        </linearGradient>
        <linearGradient x1="50%" y1="0%" x2="81.4402452%" y2="56.408967%" id="linearGradient-14">
            <stop stop-color="#164898" offset="0%"></stop>
            <stop stop-color="#223762" offset="100%"></stop>
        </linearGradient>
        <linearGradient x1="40.4000365%" y1="165.610716%" x2="61.3367582%" y2="-33.0210044%" id="linearGradient-15">
            <stop stop-color="#CFDDF3" stop-opacity="0.477723053" offset="0%"></stop>
            <stop stop-color="#A1B8E3" offset="100%"></stop>
        </linearGradient>
        <linearGradient x1="118.801752%" y1="0%" x2="68.4540694%" y2="50%" id="linearGradient-16">
            <stop stop-color="#70B8F9" offset="0%"></stop>
            <stop stop-color="#3D82F0" offset="100%"></stop>
        </linearGradient>
        <linearGradient x1="83.2073777%" y1="-23.309664%" x2="0%" y2="100%" id="linearGradient-17">
            <stop stop-color="#CFDDF3" offset="0%"></stop>
            <stop stop-color="#A1B8E3" offset="100%"></stop>
        </linearGradient>
        <linearGradient x1="15.2523332%" y1="6.14617099%" x2="88.0829661%" y2="100%" id="linearGradient-18">
            <stop stop-color="#2D5CDD" offset="0%"></stop>
            <stop stop-color="#1D2F76" offset="100%"></stop>
        </linearGradient>
        <linearGradient x1="107.075495%" y1="171.47777%" x2="50%" y2="20.389144%" id="linearGradient-19">
            <stop stop-color="#ACD7FE" offset="0%"></stop>
            <stop stop-color="#3D82F0" offset="100%"></stop>
        </linearGradient>
        <linearGradient x1="-111.026631%" y1="176.922061%" x2="235.947963%" y2="-130.980549%" id="linearGradient-20">
            <stop stop-color="#F4FAFF" offset="0%"></stop>
            <stop stop-color="#CBE7FF" offset="100%"></stop>
        </linearGradient>
        <linearGradient x1="85.3553391%" y1="14.6446609%" x2="14.6446609%" y2="85.3553391%" id="linearGradient-21">
            <stop stop-color="#F4FAFF" offset="0%"></stop>
            <stop stop-color="#CBE7FF" offset="100%"></stop>
        </linearGradient>
        <linearGradient x1="20.9065792%" y1="7.41397029%" x2="79.7520176%" y2="74.8810012%" id="linearGradient-22">
            <stop stop-color="#91C6F6" offset="0%"></stop>
            <stop stop-color="#B7D9F6" offset="100%"></stop>
        </linearGradient>
        <linearGradient x1="-20.3159253%" y1="-36.7419152%" x2="82.057237%" y2="89.96575%" id="linearGradient-23">
            <stop stop-color="#F4FAFF" offset="0%"></stop>
            <stop stop-color="#BFDFFA" offset="100%"></stop>
        </linearGradient>
    </defs>
    <g id="About-Us" stroke="none" stroke-width="1" fill="none" fill-rule="evenodd">
        <g id="Group-41">
            <g>
                <polygon id="Rectangle" fill="url(#linearGradient-1)" points="0 1.70530257e-13 2440 1.70530257e-13 2440 573.588737 0 573.588737"></polygon>
                <g id="Group-39" transform="translate(1292.000000, 134.000000)">
                    <g id="Group-35" transform="translate(0.500000, 219.000000)" fill="url(#linearGradient-2)" opacity="0.800000012">
                        <g id="Group-64">
                            <g id="Group-40" opacity="0.400000006">
                                <path d="M220.647981,21.9236641 C271.108027,51.2120756 271.11923,98.7880087 220.670238,128.077157 C170.322607,157.307458 88.7103729,157.307765 38.3499392,128.077172 C-12.1081961,98.7898696 -12.1176751,51.2107167 38.3276818,21.9236789 C88.6778277,-7.30808225 170.286221,-7.30769877 220.647981,21.9236641 Z M38.6288534,127.598426 C88.8168521,156.728933 170.216084,156.728627 220.391273,127.59844 C270.472363,98.5228851 270.461285,51.4773238 220.369067,22.4024102 C170.179741,-6.72886756 88.7843488,-6.72925003 38.6066469,22.4023954 C-11.4708172,51.4758458 -11.4614439,98.5246269 38.6288534,127.598426 Z" id="Shape"></path>
                                <path d="M56.7034319,33.5390146 C96.9055226,10.1535104 162.065773,10.1538172 202.277136,33.5390028 C242.566852,56.9697551 242.575798,95.0303123 202.294907,118.461654 C162.094824,141.845991 96.9315083,141.846236 56.7212033,118.461666 C16.4330127,95.031801 16.4254443,56.968668 56.7034319,33.5390146 Z M56.9264719,33.9216746 C16.9421452,57.1805058 16.9496294,94.8198725 56.9442027,118.078982 C97.0166615,141.383387 162.009636,141.383142 202.071867,118.078994 C242.059089,94.818479 242.050243,57.1816881 202.054137,33.9216864 C161.980618,10.6166654 96.9907093,10.6163594 56.9264719,33.9216746 Z" id="Shape"></path>
                                <path d="M71.6920127,42.0312624 C103.892742,23.3227914 156.084266,23.3230368 188.292423,42.031253 C220.563237,60.7758639 220.570402,91.2241901 188.306657,109.969273 C156.107536,128.676809 103.913556,128.677006 71.7062471,109.969282 C39.4366552,91.225381 39.4305931,60.7749941 71.6920127,42.0312624 Z M71.8706056,42.3370004 C39.844156,60.9442157 39.8501506,91.056087 71.8848075,109.663525 C103.981747,128.307141 156.039316,128.306945 188.128064,109.663535 C220.156833,91.0549721 220.149747,60.9451615 188.113862,42.3370098 C156.016074,23.6929014 103.96096,23.6926566 71.8706056,42.3370004 Z" id="Shape"></path>
                                <path d="M87.9500386,50.0830225 C111.172603,36.6389056 148.810818,36.6390819 172.038737,50.0830151 C195.316125,63.5555798 195.321294,85.4444564 172.049002,98.9173619 C148.827598,112.360808 111.187612,112.360949 87.9603037,98.9173693 C64.6837969,85.4453146 64.6794234,63.5549574 87.9500386,50.0830225 Z M88.0891221,50.3227807 C65.0029455,63.6879396 65.0072658,85.3122755 88.0993618,98.6775963 C111.240656,112.071392 148.774532,112.071252 171.909919,98.6776037 C194.997767,85.311477 194.992661,63.6886216 171.899679,50.3227881 C148.757772,36.9286377 111.225668,36.9284618 88.0891221,50.3227807 Z" id="Shape"></path>
                            </g>
                        </g>
                    </g>
                    <path d="M175.803371,67.5176612 L211.196629,87.9387145 C213.021031,88.9913499 214.5,91.3017072 214.5,93.0990419 L214.5,119.133941 C214.5,120.931276 213.021031,121.534974 211.196629,120.482339 L199.162921,113.539181 L194.665943,118.328302 C194.263666,118.756713 193.394039,118.469141 192.723577,117.685991 C192.539068,117.470471 192.382221,117.230912 192.264955,116.985519 L187.365169,106.732163 L175.803371,100.061285 C173.978969,99.0086501 172.5,96.6982928 172.5,94.9009581 L172.5,68.8660586 C172.5,67.0687239 173.978969,66.4650258 175.803371,67.5176612 Z" id="Rectangle-15" fill="url(#linearGradient-3)" fill-rule="nonzero" opacity="0.200000003" transform="translate(193.500000, 94.000000) scale(-1, 1) translate(-193.500000, -94.000000) "></path>
                    <g id="Group-36" transform="translate(186.500000, 85.000000)">
                        <path d="M6.98454167,1.42066503 C3.12726794,3.68374604 0,8.72012177 0,12.6693694 C0,16.6186171 3.12726794,17.9854266 6.98454167,15.7223456 C10.842241,13.4590149 13.9690833,8.42288886 13.9690833,4.47364119 C13.9690833,0.524393531 10.8421101,-0.842588861 6.98454167,1.42066503 Z" id="Shape" fill="url(#linearGradient-4)" opacity="0.100000001"></path>
                        <polygon id="Path" fill="#FFFFFF" points="5.70329098 12.9964684 2.6278506 11.6523129 3.65291009 10.00144 5.70329098 10.8975371 10.3161733 3.46829 11.3412327 3.91634835"></polygon>
                    </g>
                    <g id="Group-12" transform="translate(372.500000, 199.000000) scale(-1, 1) translate(-372.500000, -199.000000) translate(245.500000, 10.000000)">
                        <g id="Group-9">
                            <path d="M13.1977604,131.242849 L240.34356,1.72469147 C244.707899,-0.7744304 246.424997,0.401499583 248.889899,1.72469147 C250.533167,2.6068194 250.985293,3.08162361 250.246277,3.1491041 L242.870238,218.700034 C242.870238,225.775585 237.128677,234.799203 230.046103,238.85485 L9.96797195,376.554531 C5.61568626,379.046751 4.99957959,376.272346 2.68121555,374.288091 C1.22685266,373.043323 0.373625241,371.003404 0.373625241,368.275823 L0.373625241,151.397664 C0.373625241,144.322114 6.11518611,135.298496 13.1977604,131.242849 Z" id="Rectangle-52" fill="#223762"></path>
                            <path d="M15.5951403,133.019417 L240.541152,4.21733712 C247.623727,0.161690548 253.365288,2.60980641 253.365288,9.68535694 L253.365288,226.563516 C253.365288,233.639066 247.623727,242.662684 240.541152,246.718331 L15.5951403,375.520411 C8.51256604,379.576058 2.77100517,377.127942 2.77100517,370.052391 L2.77100517,153.174233 C2.77100517,146.098682 8.51256604,137.075064 15.5951403,133.019417 Z" id="Rectangle-52" fill="url(#linearGradient-5)" fill-rule="nonzero"></path>
                            <g id="Group-10" opacity="0.699999988" transform="translate(177.910891, 59.529010)">
                                <g id="Group-23" transform="translate(29.534653, 53.000000) scale(-1, 1) translate(-29.534653, -53.000000) translate(0.034653, 0.000000)">
                                    <path d="M2.02563052,1.30984287 L57.5046291,33.2157407 C58.1250814,33.572562 58.5075583,34.2337403 58.5075583,34.9494794 L58.5075583,104.034283 C58.5075583,104.586567 58.0598431,105.034283 57.5075583,105.034283 C57.3325949,105.034283 57.1606934,104.988378 57.0090229,104.901152 L1.53002432,72.9952542 C0.909572018,72.6384329 0.52709512,71.9772546 0.52709512,71.2615155 L0.52709512,2.17671222 C0.52709512,1.62442747 0.97481037,1.17671222 1.52709512,1.17671222 C1.7020586,1.17671222 1.87396004,1.22261739 2.02563052,1.30984287 Z" id="Rectangle" fill="#8DB2FF"></path>
                                    <path d="M51.9861289,77.4200733 C54.2476434,79.9425098 56.1344643,82.8357377 57.4463668,85.7927344 L58.5287056,88.2323003 L58.5287056,94.9931386 L58.4982556,104.039238 C58.4963966,104.59152 58.0471768,105.037726 57.4948952,105.035867 C57.3210739,105.035282 57.150407,104.989398 56.9997259,104.902742 L50.9162819,101.404161 L1.48501901,72.976308 C0.863285433,72.6187499 0.480611024,71.9556494 0.482094086,71.2384338 L0.515942391,54.8692378 L2.55656581,53.1383164 C3.66122579,51.893529 5.39822575,51.4701848 7.45472542,51.9445297 L21.1582037,55.4581215 L38.0815157,65.1906956 L46.6277561,72.0406664 C47.8902919,73.0526123 49.1074782,74.2092984 50.2453247,75.4784239 L51.9861289,77.4200733 Z" id="Combined-Shape" fill="url(#linearGradient-6)"></path>
                                    <path d="M22.4053744,46.6653819 L36.4237559,54.7273343 L36.4237559,61.7668394 C36.4237559,62.8560242 37.415581,64.4124931 39.399231,66.4362463 C36.071009,70.101769 32.7427871,70.9775024 29.4145652,69.0634464 C26.0863432,67.1493904 22.7581213,62.4455451 19.4298993,54.9519104 C21.4135494,55.2097462 22.4053744,54.7940717 22.4053744,53.704887 L22.4053744,46.6653819 Z" id="Combined-Shape" fill="url(#linearGradient-7)" fill-rule="nonzero"></path>
                                    <path d="M36.8625592,56.6499376 L22.3477926,48.3025148 C21.6290666,47.8891764 21.0261237,46.998063 20.9500925,46.236798 L18.799726,37.9713146 L17.9212341,26.8822078 L18.3700475,24.2114142 C18.7282801,22.0796473 19.5340202,20.727791 21.8717352,21.7788296 L25.6519625,23.2138258 C27.4089463,24.2242648 29.5758929,24.5296829 32.1528023,24.1300801 L32.5515319,24.9598653 C33.6367461,27.2182749 35.3851916,29.3052497 37.3386167,30.6738124 C39.6763316,32.3116073 40.4820717,34.5902238 40.8403044,37.1340289 L41.2891178,40.3210464 L40.4106259,50.3997142 L38.2602593,56.1918518 C38.1842281,56.8656659 37.5812852,57.0632759 36.8625592,56.6499376 Z" id="Combined-Shape" fill="url(#linearGradient-6)"></path>
                                    <path d="M29.5173267,59.6580272 C28.1051895,58.845909 26.7506611,57.5099316 25.7506617,55.9429488 L22.7443367,51.2320866 C22.0068723,50.0764919 21.4607477,48.862365 21.1537047,47.6958434 L19.9252102,43.0285321 C18.3170383,41.3588826 17.5129524,39.661667 17.5129524,37.9368854 C17.5129524,35.3497129 18.3170383,35.400546 19.9252102,35.9726073 L19.9252102,36.4273254 C19.9252102,37.1350767 19.8583483,37.7575488 20.3320567,38.4225676 L20.8508911,39.1509369 L20.8508911,34.3881877 L21.776572,34.0385549 L21.3508795,32.0297585 L22.137995,30.5420482 C26.9966826,34.4292381 32.0389165,37.3331965 36.8994269,39.0435548 L37.683774,41.4227843 L37.2580815,42.9419503 L38.1837624,44.3562987 L38.1837624,49.119048 L38.7025968,48.9874406 C39.1763052,48.8672799 39.1094433,48.1679035 39.1094433,47.4601522 L39.1094433,47.005434 C40.7176151,48.2830878 41.5217011,49.1571121 41.5217011,51.7442846 C41.5217011,53.4690662 40.7176151,54.2414243 39.1094433,54.0613589 L37.8809487,57.3156591 C37.5739057,58.1290206 37.0277812,58.7149966 36.2903168,59.0223617 L33.2839918,60.2753569 C32.2839924,60.692143 30.9294639,60.4701454 29.5173267,59.6580272 Z" id="Combined-Shape" fill="url(#linearGradient-8)" fill-rule="nonzero"></path>
                                </g>
                            </g>
                            <g id="Group-10" transform="translate(177.910891, 148.648464)">
                                <g id="Group-23" transform="translate(29.534653, 53.000000) scale(-1, 1) translate(-29.534653, -53.000000) translate(0.034653, 0.000000)">
                                    <path d="M2.02563052,1.30984287 L57.5046291,33.2157407 C58.1250814,33.572562 58.5075583,34.2337403 58.5075583,34.9494794 L58.5075583,104.034283 C58.5075583,104.586567 58.0598431,105.034283 57.5075583,105.034283 C57.3325949,105.034283 57.1606934,104.988378 57.0090229,104.901152 L1.53002432,72.9952542 C0.909572018,72.6384329 0.52709512,71.9772546 0.52709512,71.2615155 L0.52709512,2.17671222 C0.52709512,1.62442747 0.97481037,1.17671222 1.52709512,1.17671222 C1.7020586,1.17671222 1.87396004,1.22261739 2.02563052,1.30984287 Z" id="Rectangle" fill="#8DB2FF"></path>
                                    <path d="M7.39470529,55.959471 C12.9966771,53.3391638 15.797663,48.8331911 15.797663,42.4415529 C15.797663,32.8540956 13.8637913,19.5537543 28.802454,23.8086604 C43.7411167,28.0635666 47.0944848,42.4658703 43.5310107,53.1213737 C41.1553613,60.2250427 42.5464592,67.9914676 47.7043046,76.4206485 C32.6099841,77.0076792 23.1244682,74.6399317 19.2477568,69.3174061 C15.3710454,63.9948805 11.4200282,59.5422355 7.39470529,55.959471 Z" id="Path-3" fill="url(#linearGradient-6)"></path>
                                    <path d="M51.9861289,77.4200733 C54.2476434,79.9425098 56.1344643,82.8357377 57.4463668,85.7927344 L58.5287056,88.2323003 L58.5287056,94.9931386 L58.4982556,104.039238 C58.4963966,104.59152 58.0471768,105.037726 57.4948952,105.035867 C57.3210739,105.035282 57.150407,104.989398 56.9997259,104.902742 L50.9162819,101.404161 L1.48501901,72.976308 C0.863285433,72.6187499 0.480611024,71.9556494 0.482094086,71.2384338 L0.515942391,54.8692378 L2.55656581,53.1383164 C3.66122579,51.893529 5.39822575,51.4701848 7.45472542,51.9445297 L21.1582037,55.4581215 L38.0815157,65.1906956 L46.6277561,72.0406664 C47.8902919,73.0526123 49.1074782,74.2092984 50.2453247,75.4784239 L51.9861289,77.4200733 Z" id="Combined-Shape" fill="url(#linearGradient-6)"></path>
                                    <path d="M22.4053744,46.6653819 L36.4237559,54.7273343 L36.4237559,61.7668394 C36.4237559,62.8560242 37.415581,64.4124931 39.399231,66.4362463 C36.071009,70.101769 32.7427871,70.9775024 29.4145652,69.0634464 C26.0863432,67.1493904 22.7581213,62.4455451 19.4298993,54.9519104 C21.4135494,55.2097462 22.4053744,54.7940717 22.4053744,53.704887 L22.4053744,46.6653819 Z" id="Combined-Shape" fill="url(#linearGradient-7)" fill-rule="nonzero"></path>
                                    <path d="M29.5173267,59.6580272 C28.1051895,58.845909 26.7506611,57.5099316 25.7506617,55.9429488 L22.7443367,51.2320866 C22.0068723,50.0764919 21.4607477,48.862365 21.1537047,47.6958434 L19.9252102,43.0285321 C18.3170383,41.3588826 17.5129524,39.661667 17.5129524,37.9368854 C17.5129524,35.3497129 18.3170383,35.400546 19.9252102,35.9726073 L19.9252102,31.7687713 C28.5907466,42.1753413 34.470511,43.8162881 39.1094433,44.353029 C39.1094433,44.9924224 39.1094433,45.8765574 39.1094433,47.005434 C40.7176151,48.2830878 41.5217011,49.1571121 41.5217011,51.7442846 C41.5217011,53.4690662 40.7176151,54.2414243 39.1094433,54.0613589 L37.8809487,57.3156591 C37.5739057,58.1290206 37.0277812,58.7149966 36.2903168,59.0223617 L33.2839918,60.2753569 C32.2839924,60.692143 30.9294639,60.4701454 29.5173267,59.6580272 Z" id="Combined-Shape" fill="url(#linearGradient-8)" fill-rule="nonzero"></path>
                                </g>
                            </g>
                            <g id="Group-10" opacity="0.560000002" transform="translate(103.133663, 190.587031)">
                                <g id="Group-23" transform="translate(29.534653, 53.000000) scale(-1, 1) translate(-29.534653, -53.000000) translate(0.034653, 0.000000)">
                                    <path d="M2.02563052,1.30984287 L57.5046291,33.2157407 C58.1250814,33.572562 58.5075583,34.2337403 58.5075583,34.9494794 L58.5075583,104.034283 C58.5075583,104.586567 58.0598431,105.034283 57.5075583,105.034283 C57.3325949,105.034283 57.1606934,104.988378 57.0090229,104.901152 L1.53002432,72.9952542 C0.909572018,72.6384329 0.52709512,71.9772546 0.52709512,71.2615155 L0.52709512,2.17671222 C0.52709512,1.62442747 0.97481037,1.17671222 1.52709512,1.17671222 C1.7020586,1.17671222 1.87396004,1.22261739 2.02563052,1.30984287 Z" id="Rectangle" fill="#8DB2FF"></path>
                                    <path d="M51.9861289,77.4200733 C54.2476434,79.9425098 56.1344643,82.8357377 57.4463668,85.7927344 L58.5287056,88.2323003 L58.5287056,94.9931386 L58.4982556,104.039238 C58.4963966,104.59152 58.0471768,105.037726 57.4948952,105.035867 C57.3210739,105.035282 57.150407,104.989398 56.9997259,104.902742 L50.9162819,101.404161 L1.48501901,72.976308 C0.863285433,72.6187499 0.480611024,71.9556494 0.482094086,71.2384338 L0.515942391,54.8692378 L2.55656581,53.1383164 C3.66122579,51.893529 5.39822575,51.4701848 7.45472542,51.9445297 L21.1582037,55.4581215 L38.0815157,65.1906956 L46.6277561,72.0406664 C47.8902919,73.0526123 49.1074782,74.2092984 50.2453247,75.4784239 L51.9861289,77.4200733 Z" id="Combined-Shape" fill="url(#linearGradient-6)"></path>
                                    <path d="M22.4053744,46.6653819 L36.4237559,54.7273343 L36.4237559,61.7668394 C36.4237559,62.8560242 37.415581,64.4124931 39.399231,66.4362463 C36.071009,70.101769 32.7427871,70.9775024 29.4145652,69.0634464 C26.0863432,67.1493904 22.7581213,62.4455451 19.4298993,54.9519104 C21.4135494,55.2097462 22.4053744,54.7940717 22.4053744,53.704887 L22.4053744,46.6653819 Z" id="Combined-Shape" fill="url(#linearGradient-7)" fill-rule="nonzero"></path>
                                    <path d="M36.8625592,56.6499376 L22.3477926,48.3025148 C21.6290666,47.8891764 21.0261237,46.998063 20.9500925,46.236798 L18.799726,37.9713146 L17.9212341,26.8822078 L18.3700475,24.2114142 C18.7282801,22.0796473 19.5340202,20.727791 21.8717352,21.7788296 L25.6519625,23.2138258 C27.4089463,24.2242648 29.5758929,24.5296829 32.1528023,24.1300801 L32.5515319,24.9598653 C33.6367461,27.2182749 35.3851916,29.3052497 37.3386167,30.6738124 C39.6763316,32.3116073 40.4820717,34.5902238 40.8403044,37.1340289 L41.2891178,40.3210464 L40.4106259,50.3997142 L38.2602593,56.1918518 C38.1842281,56.8656659 37.5812852,57.0632759 36.8625592,56.6499376 Z" id="Combined-Shape" fill="url(#linearGradient-6)"></path>
                                    <path d="M29.5173267,59.6580272 C28.1051895,58.845909 26.7506611,57.5099316 25.7506617,55.9429488 L22.7443367,51.2320866 C22.0068723,50.0764919 21.4607477,48.862365 21.1537047,47.6958434 L19.9252102,43.0285321 C18.3170383,41.3588826 17.5129524,39.661667 17.5129524,37.9368854 C17.5129524,35.3497129 18.3170383,35.400546 19.9252102,35.9726073 L19.9252102,36.4273254 C19.9252102,37.1350767 19.8583483,37.7575488 20.3320567,38.4225676 L20.8508911,39.1509369 L20.8508911,34.3881877 L21.776572,34.0385549 L21.3508795,32.0297585 L22.137995,30.5420482 C26.9966826,34.4292381 32.0389165,37.3331965 36.8994269,39.0435548 L37.683774,41.4227843 L37.2580815,42.9419503 L38.1837624,44.3562987 L38.1837624,49.119048 L38.7025968,48.9874406 C39.1763052,48.8672799 39.1094433,48.1679035 39.1094433,47.4601522 L39.1094433,47.005434 C40.7176151,48.2830878 41.5217011,49.1571121 41.5217011,51.7442846 C41.5217011,53.4690662 40.7176151,54.2414243 39.1094433,54.0613589 L37.8809487,57.3156591 C37.5739057,58.1290206 37.0277812,58.7149966 36.2903168,59.0223617 L33.2839918,60.2753569 C32.2839924,60.692143 30.9294639,60.4701454 29.5173267,59.6580272 Z" id="Combined-Shape" fill="url(#linearGradient-8)" fill-rule="nonzero"></path>
                                </g>
                            </g>
                            <g id="Group-10" opacity="0.400000006" transform="translate(103.133663, 102.778157)">
                                <g id="Group-23" transform="translate(29.534653, 53.000000) scale(-1, 1) translate(-29.534653, -53.000000) translate(0.034653, 0.000000)">
                                    <path d="M2.02563052,1.30984287 L57.5046291,33.2157407 C58.1250814,33.572562 58.5075583,34.2337403 58.5075583,34.9494794 L58.5075583,104.034283 C58.5075583,104.586567 58.0598431,105.034283 57.5075583,105.034283 C57.3325949,105.034283 57.1606934,104.988378 57.0090229,104.901152 L1.53002432,72.9952542 C0.909572018,72.6384329 0.52709512,71.9772546 0.52709512,71.2615155 L0.52709512,2.17671222 C0.52709512,1.62442747 0.97481037,1.17671222 1.52709512,1.17671222 C1.7020586,1.17671222 1.87396004,1.22261739 2.02563052,1.30984287 Z" id="Rectangle" fill="#8DB2FF"></path>
                                    <path d="M7.39470529,55.959471 C12.9966771,53.3391638 15.797663,48.8331911 15.797663,42.4415529 C15.797663,32.8540956 13.8637913,19.5537543 28.802454,23.8086604 C43.7411167,28.0635666 47.0944848,42.4658703 43.5310107,53.1213737 C41.1553613,60.2250427 42.5464592,67.9914676 47.7043046,76.4206485 C32.6099841,77.0076792 23.1244682,74.6399317 19.2477568,69.3174061 C15.3710454,63.9948805 11.4200282,59.5422355 7.39470529,55.959471 Z" id="Path-3" fill="url(#linearGradient-6)"></path>
                                    <path d="M51.9861289,77.4200733 C54.2476434,79.9425098 56.1344643,82.8357377 57.4463668,85.7927344 L58.5287056,88.2323003 L58.5287056,94.9931386 L58.4982556,104.039238 C58.4963966,104.59152 58.0471768,105.037726 57.4948952,105.035867 C57.3210739,105.035282 57.150407,104.989398 56.9997259,104.902742 L50.9162819,101.404161 L1.48501901,72.976308 C0.863285433,72.6187499 0.480611024,71.9556494 0.482094086,71.2384338 L0.515942391,54.8692378 L2.55656581,53.1383164 C3.66122579,51.893529 5.39822575,51.4701848 7.45472542,51.9445297 L21.1582037,55.4581215 L38.0815157,65.1906956 L46.6277561,72.0406664 C47.8902919,73.0526123 49.1074782,74.2092984 50.2453247,75.4784239 L51.9861289,77.4200733 Z" id="Combined-Shape" fill="url(#linearGradient-6)"></path>
                                    <path d="M22.4053744,46.6653819 L36.4237559,54.7273343 L36.4237559,61.7668394 C36.4237559,62.8560242 37.415581,64.4124931 39.399231,66.4362463 C36.071009,70.101769 32.7427871,70.9775024 29.4145652,69.0634464 C26.0863432,67.1493904 22.7581213,62.4455451 19.4298993,54.9519104 C21.4135494,55.2097462 22.4053744,54.7940717 22.4053744,53.704887 L22.4053744,46.6653819 Z" id="Combined-Shape" fill="url(#linearGradient-7)" fill-rule="nonzero"></path>
                                    <path d="M29.5173267,59.6580272 C28.1051895,58.845909 26.7506611,57.5099316 25.7506617,55.9429488 L22.7443367,51.2320866 C22.0068723,50.0764919 21.4607477,48.862365 21.1537047,47.6958434 L19.9252102,43.0285321 C18.3170383,41.3588826 17.5129524,39.661667 17.5129524,37.9368854 C17.5129524,35.3497129 18.3170383,35.400546 19.9252102,35.9726073 L19.9252102,31.7687713 C28.5907466,42.1753413 34.470511,43.8162881 39.1094433,44.353029 C39.1094433,44.9924224 39.1094433,45.8765574 39.1094433,47.005434 C40.7176151,48.2830878 41.5217011,49.1571121 41.5217011,51.7442846 C41.5217011,53.4690662 40.7176151,54.2414243 39.1094433,54.0613589 L37.8809487,57.3156591 C37.5739057,58.1290206 37.0277812,58.7149966 36.2903168,59.0223617 L33.2839918,60.2753569 C32.2839924,60.692143 30.9294639,60.4701454 29.5173267,59.6580272 Z" id="Combined-Shape" fill="url(#linearGradient-8)" fill-rule="nonzero"></path>
                                </g>
                            </g>
                            <g id="Group-10" transform="translate(27.044554, 144.716724)">
                                <g id="Group-23" transform="translate(29.534653, 53.000000) scale(-1, 1) translate(-29.534653, -53.000000) translate(0.034653, 0.000000)">
                                    <path d="M2.02563052,1.30984287 L57.5046291,33.2157407 C58.1250814,33.572562 58.5075583,34.2337403 58.5075583,34.9494794 L58.5075583,104.034283 C58.5075583,104.586567 58.0598431,105.034283 57.5075583,105.034283 C57.3325949,105.034283 57.1606934,104.988378 57.0090229,104.901152 L1.53002432,72.9952542 C0.909572018,72.6384329 0.52709512,71.9772546 0.52709512,71.2615155 L0.52709512,2.17671222 C0.52709512,1.62442747 0.97481037,1.17671222 1.52709512,1.17671222 C1.7020586,1.17671222 1.87396004,1.22261739 2.02563052,1.30984287 Z" id="Rectangle" fill="#8DB2FF"></path>
                                    <path d="M51.9861289,77.4200733 C54.2476434,79.9425098 56.1344643,82.8357377 57.4463668,85.7927344 L58.5287056,88.2323003 L58.5287056,94.9931386 L58.4982556,104.039238 C58.4963966,104.59152 58.0471768,105.037726 57.4948952,105.035867 C57.3210739,105.035282 57.150407,104.989398 56.9997259,104.902742 L50.9162819,101.404161 L1.48501901,72.976308 C0.863285433,72.6187499 0.480611024,71.9556494 0.482094086,71.2384338 L0.515942391,54.8692378 L2.55656581,53.1383164 C3.66122579,51.893529 5.39822575,51.4701848 7.45472542,51.9445297 L21.1582037,55.4581215 L38.0815157,65.1906956 L46.6277561,72.0406664 C47.8902919,73.0526123 49.1074782,74.2092984 50.2453247,75.4784239 L51.9861289,77.4200733 Z" id="Combined-Shape" fill="url(#linearGradient-6)"></path>
                                    <path d="M22.4053744,46.6653819 L36.4237559,54.7273343 L36.4237559,61.7668394 C36.4237559,62.8560242 37.415581,64.4124931 39.399231,66.4362463 C36.071009,70.101769 32.7427871,70.9775024 29.4145652,69.0634464 C26.0863432,67.1493904 22.7581213,62.4455451 19.4298993,54.9519104 C21.4135494,55.2097462 22.4053744,54.7940717 22.4053744,53.704887 L22.4053744,46.6653819 Z" id="Combined-Shape" fill="url(#linearGradient-7)" fill-rule="nonzero"></path>
                                    <path d="M36.8625592,56.6499376 L22.3477926,48.3025148 C21.6290666,47.8891764 21.0261237,46.998063 20.9500925,46.236798 L18.799726,37.9713146 L17.9212341,26.8822078 L18.3700475,24.2114142 C18.7282801,22.0796473 19.5340202,20.727791 21.8717352,21.7788296 L25.6519625,23.2138258 C27.4089463,24.2242648 29.5758929,24.5296829 32.1528023,24.1300801 L32.5515319,24.9598653 C33.6367461,27.2182749 35.3851916,29.3052497 37.3386167,30.6738124 C39.6763316,32.3116073 40.4820717,34.5902238 40.8403044,37.1340289 L41.2891178,40.3210464 L40.4106259,50.3997142 L38.2602593,56.1918518 C38.1842281,56.8656659 37.5812852,57.0632759 36.8625592,56.6499376 Z" id="Combined-Shape" fill="url(#linearGradient-6)"></path>
                                    <path d="M29.5173267,59.6580272 C28.1051895,58.845909 26.7506611,57.5099316 25.7506617,55.9429488 L22.7443367,51.2320866 C22.0068723,50.0764919 21.4607477,48.862365 21.1537047,47.6958434 L19.9252102,43.0285321 C18.3170383,41.3588826 17.5129524,39.661667 17.5129524,37.9368854 C17.5129524,35.3497129 18.3170383,35.400546 19.9252102,35.9726073 L19.9252102,36.4273254 C19.9252102,37.1350767 19.8583483,37.7575488 20.3320567,38.4225676 L20.8508911,39.1509369 L20.8508911,34.3881877 L21.776572,34.0385549 L21.3508795,32.0297585 L22.137995,30.5420482 C26.9966826,34.4292381 32.0389165,37.3331965 36.8994269,39.0435548 L37.683774,41.4227843 L37.2580815,42.9419503 L38.1837624,44.3562987 L38.1837624,49.119048 L38.7025968,48.9874406 C39.1763052,48.8672799 39.1094433,48.1679035 39.1094433,47.4601522 L39.1094433,47.005434 C40.7176151,48.2830878 41.5217011,49.1571121 41.5217011,51.7442846 C41.5217011,53.4690662 40.7176151,54.2414243 39.1094433,54.0613589 L37.8809487,57.3156591 C37.5739057,58.1290206 37.0277812,58.7149966 36.2903168,59.0223617 L33.2839918,60.2753569 C32.2839924,60.692143 30.9294639,60.4701454 29.5173267,59.6580272 Z" id="Combined-Shape" fill="url(#linearGradient-8)" fill-rule="nonzero"></path>
                                </g>
                            </g>
                            <g id="Group-10" opacity="0.699999988" transform="translate(27.044554, 232.525597)">
                                <g id="Group-23" transform="translate(29.534653, 53.000000) scale(-1, 1) translate(-29.534653, -53.000000) translate(0.034653, 0.000000)">
                                    <path d="M2.02563052,1.30984287 L57.5046291,33.2157407 C58.1250814,33.572562 58.5075583,34.2337403 58.5075583,34.9494794 L58.5075583,104.034283 C58.5075583,104.586567 58.0598431,105.034283 57.5075583,105.034283 C57.3325949,105.034283 57.1606934,104.988378 57.0090229,104.901152 L1.53002432,72.9952542 C0.909572018,72.6384329 0.52709512,71.9772546 0.52709512,71.2615155 L0.52709512,2.17671222 C0.52709512,1.62442747 0.97481037,1.17671222 1.52709512,1.17671222 C1.7020586,1.17671222 1.87396004,1.22261739 2.02563052,1.30984287 Z" id="Rectangle" fill="#8DB2FF"></path>
                                    <path d="M7.39470529,55.959471 C12.9966771,53.3391638 15.797663,48.8331911 15.797663,42.4415529 C15.797663,32.8540956 13.8637913,19.5537543 28.802454,23.8086604 C43.7411167,28.0635666 47.0944848,42.4658703 43.5310107,53.1213737 C41.1553613,60.2250427 42.5464592,67.9914676 47.7043046,76.4206485 C32.6099841,77.0076792 23.1244682,74.6399317 19.2477568,69.3174061 C15.3710454,63.9948805 11.4200282,59.5422355 7.39470529,55.959471 Z" id="Path-3" fill="url(#linearGradient-6)"></path>
                                    <path d="M51.9861289,77.4200733 C54.2476434,79.9425098 56.1344643,82.8357377 57.4463668,85.7927344 L58.5287056,88.2323003 L58.5287056,94.9931386 L58.4982556,104.039238 C58.4963966,104.59152 58.0471768,105.037726 57.4948952,105.035867 C57.3210739,105.035282 57.150407,104.989398 56.9997259,104.902742 L50.9162819,101.404161 L1.48501901,72.976308 C0.863285433,72.6187499 0.480611024,71.9556494 0.482094086,71.2384338 L0.515942391,54.8692378 L2.55656581,53.1383164 C3.66122579,51.893529 5.39822575,51.4701848 7.45472542,51.9445297 L21.1582037,55.4581215 L38.0815157,65.1906956 L46.6277561,72.0406664 C47.8902919,73.0526123 49.1074782,74.2092984 50.2453247,75.4784239 L51.9861289,77.4200733 Z" id="Combined-Shape" fill="url(#linearGradient-6)"></path>
                                    <path d="M22.4053744,46.6653819 L36.4237559,54.7273343 L36.4237559,61.7668394 C36.4237559,62.8560242 37.415581,64.4124931 39.399231,66.4362463 C36.071009,70.101769 32.7427871,70.9775024 29.4145652,69.0634464 C26.0863432,67.1493904 22.7581213,62.4455451 19.4298993,54.9519104 C21.4135494,55.2097462 22.4053744,54.7940717 22.4053744,53.704887 L22.4053744,46.6653819 Z" id="Combined-Shape" fill="url(#linearGradient-7)" fill-rule="nonzero"></path>
                                    <path d="M29.5173267,59.6580272 C28.1051895,58.845909 26.7506611,57.5099316 25.7506617,55.9429488 L22.7443367,51.2320866 C22.0068723,50.0764919 21.4607477,48.862365 21.1537047,47.6958434 L19.9252102,43.0285321 C18.3170383,41.3588826 17.5129524,39.661667 17.5129524,37.9368854 C17.5129524,35.3497129 18.3170383,35.400546 19.9252102,35.9726073 L19.9252102,31.7687713 C28.5907466,42.1753413 34.470511,43.8162881 39.1094433,44.353029 C39.1094433,44.9924224 39.1094433,45.8765574 39.1094433,47.005434 C40.7176151,48.2830878 41.5217011,49.1571121 41.5217011,51.7442846 C41.5217011,53.4690662 40.7176151,54.2414243 39.1094433,54.0613589 L37.8809487,57.3156591 C37.5739057,58.1290206 37.0277812,58.7149966 36.2903168,59.0223617 L33.2839918,60.2753569 C32.2839924,60.692143 30.9294639,60.4701454 29.5173267,59.6580272 Z" id="Combined-Shape" fill="url(#linearGradient-8)" fill-rule="nonzero"></path>
                                </g>
                            </g>
                            <path d="M15.5951403,133.019417 L240.541152,4.21733712 C247.623727,0.161690548 253.365288,2.60980641 253.365288,9.68535694 L253.365288,29.9906064 L2.77100517,173.479482 L2.77100517,153.174233 C2.77100517,146.098682 8.51256604,137.075064 15.5951403,133.019417 Z" id="Rectangle-52" fill="url(#linearGradient-4)"></path>
                            <polygon id="Rectangle-52" fill="#FFFFFF" points="17.7206281 142.683199 178.608249 50.5624422 178.608249 63.1789404 17.7206281 155.299698"></polygon>
                            <path d="M194.545907,52.7463364 C191.712877,54.3685951 189.416253,53.3893487 189.416253,50.5591285 C189.416253,47.7289083 191.712877,44.119461 194.545907,42.4972024 C197.378937,40.8749438 199.675561,41.8541901 199.675561,44.6844103 C199.675561,47.5146305 197.378937,51.1240778 194.545907,52.7463364 Z M213.124948,42.1075459 C210.291918,43.7298045 207.995294,42.7505582 207.995294,39.9203379 C207.995294,37.0901177 210.291918,33.4806705 213.124948,31.8584118 C215.957978,30.2361532 218.254602,31.2153996 218.254602,34.0456198 C218.254602,36.87584 215.957978,40.4852872 213.124948,42.1075459 Z M231.078737,31.8267891 C228.245708,33.4490477 225.949083,32.4698014 225.949083,29.6395811 C225.949083,26.8093609 228.245708,23.1999137 231.078737,21.577655 C233.911767,19.9553964 236.208391,20.9346428 236.208391,23.764863 C236.208391,26.5950832 233.911767,30.2045304 231.078737,31.8267891 Z" id="Combined-Shape" fill="#FFFFFF"></path>
                        </g>
                    </g>
                    <g id="Group-34" transform="translate(93.500000, 93.000000)">
                        <path d="M70.6208886,57.4733923 L71.833213,58.7311401 C70.5315487,59.7410605 68.626522,60.2460207 66.1181329,60.2460207 C63.6097438,60.2460207 63.0730682,59.1353217 64.508106,56.9139237 L70.6208886,57.4733923 Z" id="Path-26" fill="url(#linearGradient-9)"></path>
                        <path d="M69.504656,73.3100494 C67.0193445,72.9213528 64.0239174,73.1967097 62.2566007,72.5232483 C60.4892839,71.8497869 58.2337396,69.9536027 57.8015873,67.4240033 C57.3694351,64.894404 57.5652793,63.8869656 58.5057344,64.088252 C59.4461895,64.2895384 59.9510449,66.2071608 62.0560427,67.2950994 C64.1610405,68.3830379 66.9629408,67.6992286 66.4764079,66.2243193 C66.1520526,65.2410465 64.7345402,64.6118225 65.6900058,63.5532434 C66.33305,62.7679431 68.7261564,63.7224066 71.0286998,66.0651201 C73.3312431,68.4078337 81.9909359,68.3186795 83.5459633,68.1544829 C82.9984113,58.8262137 83.1194791,53.0563471 83.9091665,50.8448831 C84.6988539,48.6334191 88.9337326,52.4480192 96.6138026,62.2886832 C96.6051576,72.8312635 94.1349666,78.0313483 89.2032294,77.8889376 C81.8056238,77.6753214 74.2477944,74.0518646 69.504656,73.3100494 Z" id="Hand" fill="url(#linearGradient-10)" transform="translate(77.098444, 64.063995) scale(-1, 1) rotate(2.000000) translate(-77.098444, -64.063995) "></path>
                        <path d="M71.9119048,58.7112283 C71.1221677,40.3043918 65.3689995,31.1009736 54.6524001,31.1009736 C54.3801608,51.8396686 55.9386833,61.4682353 59.3279675,59.9866737 C62.7172517,58.5051121 66.9118975,58.0799636 71.9119048,58.7112283 Z" id="Path-23" fill="url(#linearGradient-11)"></path>
                        <path d="M37.0382819,191.88848 C37.0415283,195.258994 36.0871884,199.469711 37.0471972,201.144512 C38.0072059,202.819313 42.7583408,203.70398 44.3254888,203.705496 C45.8926368,203.707012 46.4144937,201.306343 48.8494984,202.544033 C51.2845031,203.781723 65.1558703,203.725647 66.0522569,198.714183 C66.9486434,193.702719 59.9164315,193.695916 56.7886875,193.69289 C53.6609436,193.689864 50.347216,192.302749 45.699493,188.704879 C41.0517699,185.107009 37.0350355,188.517967 37.0382819,191.88848 Z" id="Path-90-Copy" fill="url(#linearGradient-12)" transform="translate(51.374740, 195.437117) rotate(12.000000) translate(-51.374740, -195.437117) "></path>
                        <path d="M55.6948299,85.4205644 L61.9617803,92.967371 C61.9617803,114.069384 60.9415872,131.94948 58.901201,146.607661 C56.8608147,161.265842 53.8244826,175.901545 49.7922044,190.514771 C47.0481574,191.010769 44.8625963,191.258769 43.2355211,191.258769 C41.5283881,191.258769 39.6619257,191.258769 37.6226285,190.514771 C39.6583316,176.956462 40.9775657,167.53649 41.5803307,162.254854 C43.1227318,148.7398 40.6761832,136.967277 41.5803307,127.9574 C42.9875691,113.934196 47.6924022,99.7552503 55.6948299,85.4205644 Z" id="Path-22" fill="url(#linearGradient-13)"></path>
                        <path d="M13.199497,198.0699 C13.2034336,201.610593 12.2014198,206.033763 13.2103077,207.793276 C14.2191957,209.552789 18.7457522,210.18327 20.3922659,210.185109 C22.0387796,210.186947 22.2783608,207.910347 25.6105337,209.265311 C28.9427066,210.620275 42.742897,210.509142 43.6838977,205.244787 C44.6248983,199.980431 37.2365515,199.972182 33.9504081,199.968513 C30.6642647,199.964844 26.8874775,198.443005 23.0806965,194.271851 C19.2739155,190.100697 13.1955603,194.529207 13.199497,198.0699 Z" id="Path-90-Copy" fill="url(#linearGradient-12)" transform="translate(28.263000, 201.383158) rotate(14.000000) translate(-28.263000, -201.383158) "></path>
                        <path d="M59.2956803,92.5649195 C49.7057009,118.850275 42.8224274,138.804905 38.6458597,152.428809 C34.469292,166.052713 30.8172604,180.838252 27.6897648,196.785424 C21.8959448,196.453007 17.4997947,195.465453 14.5013142,193.822763 C15.9424607,180.451861 17.9236342,166.262778 20.4448346,151.255515 C20.4448346,135.964142 21.6356937,119.014382 24.0174119,100.406236 L40.6418935,92.5649195 L59.2956803,92.5649195 Z" id="Path-21" fill="url(#linearGradient-13)"></path>
                        <path d="M21.037125,69.5894919 L20.6039156,73.0308192 C18.2425598,72.6492178 15.5243535,70.9898067 12.4492967,68.052586 C9.37423987,65.1153652 7.83671148,62.5495015 7.83671148,60.3549948 L14.7823149,59.0698434 L21.037125,69.5894919 Z" id="Path-24" fill="url(#linearGradient-9)"></path>
                        <path d="M43.8771298,30.0855311 C39.1325217,30.222017 36.6720426,30.222017 36.4956926,30.0855311 C32.8495914,27.2636366 26.2913742,13.2828395 34.65064,6.04518038 C42.3913938,-0.656955792 52.2223446,-0.656955792 57.1632729,3.78323185 C62.1042013,8.22341949 58.6868198,19.2133141 49.5934468,18.3558346 C43.5311982,17.7841816 41.6257592,21.6940804 43.8771298,30.0855311 Z" id="Path-16" fill="url(#linearGradient-14)"></path>
                        <path d="M23.4691552,103.545099 L22.8170504,110.319676 C34.4229208,116.539351 47.4366793,114.93304 61.8583257,105.500742 L56.8807451,101.467036 L23.4691552,103.545099 Z" id="Path-25" fill="url(#linearGradient-15)" style="mix-blend-mode: multiply;" opacity="0.5"></path>
                        <path d="M38.0335678,32.6841607 C25.2475242,37.3174093 15.1648449,46.5296512 7.78553001,60.3208863 C10.3661347,62.0806187 12.5408425,63.7276665 14.3096534,65.2620299 C16.0784644,66.7963933 18.1694742,69.4036241 20.582683,73.0837224 L24.8811867,67.563575 C24.5765301,85.3185685 23.7669892,97.9146058 22.452564,105.351687 C31.4247451,112.502316 44.9198036,112.502316 62.9377394,105.351687 C64.0014364,84.9026469 65.1451344,70.9928714 66.3688334,63.6223603 C68.204382,52.5665938 68.204382,43.7359064 62.9377394,35.5468834 C59.4266444,30.0875348 51.1252538,29.1332939 38.0335678,32.6841607 Z" id="Path-18" fill="#D6E3FA"></path>
                        <path d="M78.0634733,112.572565 L67.2315245,78.8738915 C66.9447954,77.9818646 66.2815158,77.2603207 65.4167261,76.8996763 L42.3364138,67.2744631 C41.9286256,67.1044027 41.4601867,67.2971191 41.2901262,67.7049073 C41.2175641,67.878904 41.2087805,68.0729365 41.2653246,68.2527778 L51.7465727,101.588845 C52.0272696,102.481614 52.6847157,103.206763 53.5457885,103.573342 L76.9884884,113.55345 C77.3950103,113.726516 77.864859,113.537263 78.0379249,113.130741 C78.1132525,112.953801 78.1223222,112.755647 78.0634733,112.572565 Z" id="Papper" stroke="#EBEBEB" stroke-width="0.8" fill="#FFFFFF" transform="translate(59.662320, 90.411790) scale(-1, 1) translate(-59.662320, -90.411790) "></path>
                        <path d="M22.106679,96.613714 C19.1666489,96.5242136 17.1491372,96.1318069 15.2410185,96.5259065 C12.3788405,97.1170559 10.2740102,96.669014 8.20369771,95.8824143 C6.13338519,95.0958147 3.4925117,92.8774675 2.98939577,89.9146653 C2.48627984,86.9518631 2.71713076,85.7714086 3.81902889,86.0059627 C4.92092701,86.2405167 5.51005617,88.4863034 7.97556536,89.7580065 C10.4410746,91.0297096 13.7256592,90.2249191 13.1574177,88.4977379 C12.7785901,87.3462837 11.1181715,86.6110428 12.2393265,85.3696691 C12.9939789,84.4488512 17.1606438,85.6876036 18.2511006,87.071907 C19.3415574,88.4562104 21.7740107,90.3318974 22.8483498,90.1175888 L46.1612277,84.6331554 L43.3015116,74.0333971 C44.710898,72.484965 46.4351166,71.0341028 48.4741672,69.6808105 C50.5204023,68.3227501 52.5700098,67.2289026 54.6229899,66.399268 C58.6194313,78.0428352 59.2464983,86.2505997 56.5041906,91.0225615 C53.7618829,95.7945233 42.2960457,97.6582408 22.106679,96.613714 Z" id="Hand" fill="url(#linearGradient-10)" transform="translate(30.457079, 81.647173) scale(-1, 1) rotate(-12.000000) translate(-30.457079, -81.647173) "></path>
                        <path d="M49.6357887,33.031777 C50.2454479,36.5073951 48.9266873,38.756132 45.6795069,39.7779877 C40.8087364,41.3107713 34.977143,38.2852823 34.977143,34.9792464 L41.1509584,31.6732106 L49.6357887,33.031777 Z" id="Path-17" fill="url(#linearGradient-16)"></path>
                        <path d="M35.0390928,34.8978152 C43.3146282,37.9037062 49.4068278,36.8640086 53.3156916,31.7787224 C54.2993741,29.848457 54.9419122,28.4161012 55.2433059,27.4816552 C55.4896196,26.7179802 57.2793368,26.8886082 57.4125847,26.1431514 C57.533364,25.4674497 56.007759,23.8740382 56.0356425,23.2133047 C56.1400975,20.7381135 55.9759166,17.8104588 55.5430996,14.4303407 C49.4376063,17.0818437 44.8585546,17.5295361 41.8059447,15.773418 C41.4977088,22.335579 40.7517035,24.9362885 39.5679288,23.5755464 C37.7922667,21.5344333 37.0848548,19.1977236 35.0390928,21.386635 C32.9933309,23.5755464 35.7451422,26.4859501 36.8415283,26.4859501 C37.5724524,26.4859501 36.9716405,29.2899051 35.0390928,34.8978152 Z" id="Path-15" fill="url(#linearGradient-16)"></path>
                    </g>
                    <path d="M45.8932584,1.15994446 L125.106742,46.9182306 C129.189925,49.2769137 132.5,54.4538253 132.5,58.4811865 L132.5,116.818646 C132.5,120.846008 129.189925,122.198739 125.106742,119.840056 L98.1741573,104.282238 L88.1094925,115.013418 C87.2091579,115.973376 85.2628501,115.329001 83.7622924,113.574166 C83.3493435,113.091241 82.9983047,112.554452 82.7358509,112.004588 L71.7696629,89.0294762 L45.8932584,74.0817694 C41.8100745,71.7230863 38.5,66.5461747 38.5,62.5188135 L38.5,4.18135357 C38.5,0.153992386 41.8100745,-1.19873855 45.8932584,1.15994446 Z" id="Rectangle-15" fill="url(#linearGradient-3)" fill-rule="nonzero" opacity="0.5" transform="translate(85.500000, 60.500000) scale(-1, 1) translate(-85.500000, -60.500000) "></path>
                    <g id="Group-36" transform="translate(68.500000, 39.000000)">
                        <path d="M17.4613542,3.59344684 C7.81816985,9.31771057 0,22.0567786 0,32.0460521 C0,42.0353256 7.81816985,45.4925497 17.4613542,39.7682859 C27.1056026,34.0433906 34.9227084,21.3049542 34.9227084,11.3156807 C34.9227084,1.32640717 27.1052752,-2.13125418 17.4613542,3.59344684 Z" id="Shape" fill="url(#linearGradient-4)" opacity="0.300000012"></path>
                        <polygon id="Path" fill="#FFFFFF" points="14.2582275 32.87342 6.56962651 29.4734974 9.13227522 25.2977599 14.2582275 27.5643584 25.7904331 8.77273354 28.3530819 9.90605759"></polygon>
                    </g>
                    <path d="M226.392113,413.680193 L335.42764,349.957393 C338.552613,348.131089 342.420542,348.135976 345.540889,349.970172 L479.382408,428.644575 C482.216927,430.296571 482.204201,432.98612 479.353984,434.65185 L369.687524,498.743382 C366.837307,500.409112 362.228917,500.420246 359.394398,498.76825 L226.383392,420.582037 C224.478912,419.46255 223.842549,417.01114 224.962036,415.10666 C225.308848,414.516661 225.801239,414.025513 226.392113,413.680193 Z" id="Rectangle-38" fill="url(#linearGradient-17)" fill-rule="nonzero" transform="translate(351.000000, 423.500000) scale(-1, 1) translate(-351.000000, -423.500000) "></path>
                    <g id="Group-29" transform="translate(345.000000, 418.000000) scale(-1, 1) translate(-345.000000, -418.000000) translate(215.500000, 340.000000)">
                        <path d="M69.4802296,115.090628 L189.250947,43.7104547 L258.59378,82.5536699 C259.069758,86.5769789 258.359395,89.1434459 256.462691,90.2530711 L146.994832,154.294858 C144.149776,155.959296 139.549732,155.970421 136.720346,154.319707 L69.4802296,115.090628 Z" id="Rectangle-38" fill="#223762"></path>
                        <path d="M0.156164921,68.3162503 L111.736345,4.50622499 C114.5814,2.84178723 119.181444,2.83066198 122.01083,4.48137603 L189.250947,43.7104547 L69.4802296,115.090628 L2.24011292,75.8615495 C0.353855593,74.7610735 -0.340793738,72.2459738 0.156164921,68.3162503 Z" id="Rectangle-38" fill="#223762"></path>
                        <path d="M69.4802296,110.573323 L189.250947,40.5040743 L256.491064,79.733153 C259.320449,81.383867 259.307747,84.0713285 256.462691,85.7357663 L146.994832,149.777553 C144.149776,151.441991 139.549732,151.453116 136.720346,149.802402 L69.4802296,110.573323 Z" id="Rectangle-38" fill="url(#linearGradient-10)"></path>
                        <g id="Group-38" transform="translate(171.358586, 55.058824)">
                            <polygon id="Rectangle-45" fill="#FFFFFF" points="0.503935829 20.1071629 34.6321509 0.141194021 71.1339286 21.4369796 37.0057135 41.4029484"></polygon>
                            <path d="M36.1475898,12.2786966 L36.1506155,12.278427 L50.587956,20.7014279 C47.8641855,21.8213877 45.6873578,22.2370225 44.0574728,21.9483323 L42.8783118,21.2603888 L36.7028195,24.8732261 L37.8819805,25.5611695 C38.3783708,26.5129861 37.6699393,27.7853094 35.7566861,29.3781393 L22.2911428,21.5221021 C21.8645263,21.3382204 21.4558223,21.1334829 21.0691617,20.9078982 C16.9093024,18.4809624 15.0937569,15.2436184 20.6875176,11.9711106 C26.2812782,8.69860274 31.8250619,9.75482218 35.9849213,12.181758 C36.039864,12.2138126 36.0940868,12.2461278 36.1475898,12.2786966 Z" id="Combined-Shape" fill="url(#linearGradient-6)"></path>
                            <path d="M38.056231,26.685773 L45.9956239,22.0410041 C49.7336069,20.4514741 53.3550448,20.4532297 56.8599378,22.0462708 C60.3648308,23.6393119 62.3534104,25.0253724 62.8256766,26.2044523 L45.2058986,36.5125196 C43.1870458,36.2382365 40.8118195,35.0783752 38.0802199,33.0329357 C35.3486202,30.9874962 35.3406239,28.8717753 38.056231,26.685773 Z" id="Combined-Shape" fill="url(#linearGradient-2)"></path>
                            <path d="M40.0870157,19.61766 L43.7092715,21.7309484 C44.2697236,22.0579262 45.2923427,22.0525279 46.7771286,21.7147535 L50.2497418,29.161308 L37.498873,27.1427948 C38.0749865,26.2748849 38.0828172,25.677441 37.5223651,25.3504633 L33.9001093,23.2371749 L40.0870157,19.61766 Z" id="Combined-Shape" fill="#DCEFFF"></path>
                            <path d="M35.4578822,14.0015284 C35.4644025,14.0061537 35.4709242,14.0107856 35.4774472,14.015424 C35.4897185,14.008245 35.5020034,14.0012416 35.5143019,13.9944137 C35.5391157,13.9911822 35.5638661,13.9878232 35.5885528,13.9843369 L35.5719847,13.9637279 C36.2989554,13.5938075 37.0731467,13.833223 37.8945585,14.6819745 C38.7516775,15.5676216 39.0174718,16.1358214 38.6919415,16.3865739 C41.3352861,18.3268314 41.8003514,20.9097554 39.8611395,22.8801766 C39.770683,22.9720889 39.6413659,23.047743 39.4841666,23.1007164 C36.1141183,24.2363622 31.6923503,23.9682209 28.3676165,22.4265953 C27.9388583,22.6171229 26.9659185,22.4626232 25.448797,21.9630962 C23.9885832,21.4823066 23.5804711,21.0284966 24.2244607,20.6016661 C24.383405,20.6790053 24.5427148,20.7557855 24.70239,20.8320067 C24.3009673,19.9839362 25.2877556,18.86518 27.6627551,17.4757383 C28.6976395,16.8703018 29.737841,16.3188033 30.7833596,15.8212429 C31.0322828,15.7027868 31.2516001,15.5649323 31.4359619,15.4110486 C32.0353521,14.9107478 32.2082698,14.2988282 32.0029321,13.7152135 C33.2655404,14.0330436 34.4171904,14.1284819 35.4578822,14.0015284 Z" id="Combined-Shape" fill="#F0F8FF"></path>
                            <path d="M37.6017376,25.3969396 C38.5847241,25.9680724 38.583323,26.8134624 37.5974637,27.933156 C36.1186747,29.6126963 39.9827668,34.6817568 47.5061583,35.1668028 L39.240539,40.0024233 C37.2529112,38.2809277 35.7474669,36.961149 34.7242059,36.0430871 C33.1893145,34.6659943 30.44477,33.384539 34.2560732,29.8879637 C36.7969419,27.5569135 37.9121399,26.0599209 37.6017376,25.3969396 Z" id="Combined-Shape" fill="url(#linearGradient-18)"></path>
                            <path d="M43.7204795,21.8173081 C44.8556411,21.9977768 47.4164691,21.3441904 51.4029678,19.8565465 C57.3827159,17.6250805 59.5799339,19.2267372 61.9391851,20.1215564 C63.5120192,20.7181025 65.7731267,21.595797 68.7225075,22.7546399 L60.4568881,27.5902604 C59.6162776,23.195599 50.9343667,20.9450984 48.0615773,21.8113542 C46.1463844,22.3888581 44.6993533,22.3908418 43.7204795,21.8173081 Z" id="Combined-Shape" fill="url(#linearGradient-18)"></path>
                        </g>
                        <polygon id="Rectangle-39" fill="#4979DF" points="90.9596277 117.461818 201.071416 53.0433143 201.711798 53.4169246 91.6000098 117.835428"></polygon>
                        <polygon id="Rectangle-39" fill="#4979DF" points="136.334493 143.93432 246.446281 79.5158168 247.086663 79.8894271 136.974875 144.30793"></polygon>
                        <polygon id="Rectangle-39" fill="#4979DF" points="138.896021 145.428761 249.00781 81.0102579 249.648192 81.3838682 139.536403 145.802371"></polygon>
                        <path d="M148.373285,93.197239 L168.187005,81.605654 C168.93097,81.1704136 170.133854,81.1675044 170.873721,81.5991562 C171.613588,82.030808 171.610267,82.733563 170.866302,83.1688034 L151.052582,94.7603885 C150.308617,95.1956289 149.105734,95.1985381 148.365866,94.7668863 C147.625999,94.3352345 147.62932,93.6324795 148.373285,93.197239 Z" id="Rectangle-42" fill="#FFFFFF"></path>
                        <path d="M128.752073,128.592197 L148.565793,117.000612 C149.309758,116.565372 150.512641,116.562462 151.252509,116.994114 C151.992376,117.425766 151.989055,118.128521 151.24509,118.563761 L131.43137,130.155346 C130.687405,130.590587 129.484521,130.593496 128.744654,130.161844 C128.004787,129.730193 128.008108,129.027437 128.752073,128.592197 Z" id="Rectangle-42" fill="#FFFFFF"></path>
                        <path d="M149.681366,101.269876 L176.571434,85.5384271 C177.315399,85.1031867 178.518283,85.1002775 179.25815,85.5319293 C179.998017,85.9635811 179.994696,86.6663361 179.250731,87.1015765 L152.360663,102.833025 C151.616698,103.268265 150.413814,103.271175 149.673947,102.839523 C148.93408,102.407871 148.937401,101.705116 149.681366,101.269876 Z" id="Rectangle-42" fill="#FFFFFF"></path>
                        <path d="M165.378336,65.8749176 L192.268404,50.1434691 C193.012369,49.7082287 194.215252,49.7053195 194.95512,50.1369713 C195.694987,50.5686231 195.691666,51.2713781 194.947701,51.7066186 L168.057633,67.438067 C167.313668,67.8733075 166.110784,67.8762167 165.370917,67.4445649 C164.631049,67.0129131 164.634371,66.3101581 165.378336,65.8749176 Z" id="Rectangle-42" fill="#4979DF"></path>
                        <path d="M154.913689,112.272276 L189.40643,92.093049 C190.150395,91.6578085 191.353279,91.6548993 192.093146,92.0865511 C192.833013,92.5182029 192.829692,93.2209579 192.085727,93.6561984 L157.592986,113.835425 C156.849021,114.270665 155.646138,114.273575 154.90627,113.841923 C154.166403,113.410271 154.169724,112.707516 154.913689,112.272276 Z" id="Rectangle-42" fill="#FFFFFF"></path>
                        <path d="M107.82278,125.297476 L137.690288,107.824141 C138.434253,107.388901 139.637137,107.385992 140.377004,107.817644 C141.116872,108.249295 141.11355,108.95205 140.369585,109.387291 L110.502077,126.860626 C109.758112,127.295866 108.555229,127.298775 107.815361,126.867124 C107.075494,126.435472 107.078815,125.732717 107.82278,125.297476 Z" id="Rectangle-42" fill="#FFFFFF"></path>
                        <path d="M2.2684851,65.3416314 L111.736345,1.29984455 C114.5814,-0.3645932 119.181444,-0.375718458 122.01083,1.27499559 L189.250947,40.5040743 L69.4802296,110.573323 L2.24011292,71.3442447 C-0.589273068,69.6935307 -0.576570409,67.0060691 2.2684851,65.3416314 Z" id="Rectangle-38" fill="url(#linearGradient-19)"></path>
                        <path d="M21.207634,66.2337245 L113.289422,12.3632802 C114.356318,11.7391161 116.081334,11.7349441 117.142354,12.3539619 L125.467321,17.2108954 C126.52834,17.8299132 126.523577,18.8377113 125.456681,19.4618754 L33.3748933,73.3323196 C32.3079974,73.9564838 30.5829811,73.9606558 29.5219613,73.341638 L21.1969945,68.4847045 C20.1359747,67.8656867 20.1407382,66.8578886 21.207634,66.2337245 Z" id="Rectangle-50" fill="#FFFFFF"></path>
                        <path d="M36.8357232,75.3514293 L79.0179447,50.6736394 C80.0848406,50.0494753 81.8098569,50.0453033 82.8708767,50.6643211 L105.351209,63.7797462 C106.412229,64.398764 106.407465,65.4065621 105.340569,66.0307262 L63.1583477,90.7085161 C62.0914519,91.3326803 60.3664355,91.3368522 59.3054158,90.7178345 L36.8250836,77.6024093 C35.7640639,76.9833915 35.7688274,75.9755935 36.8357232,75.3514293 Z" id="Rectangle-50" fill="#FFFFFF" opacity="0.400000006"></path>
                        <path d="M86.7352895,46.158775 L128.917511,21.4809851 C129.984407,20.8568209 131.709423,20.8526489 132.770443,21.4716667 L151.364963,32.3200398 C152.425982,32.9390576 152.421219,33.9468557 151.354323,34.5710198 L109.172102,59.2488097 C108.105206,59.8729739 106.380189,59.8771458 105.31917,59.2581281 L86.72465,48.409755 C85.6636302,47.7907372 85.6683937,46.7829391 86.7352895,46.158775 Z" id="Rectangle-50" fill="#FFFFFF" opacity="0.400000006"></path>
                    </g>
                    <path d="M165.013356,352.494375 L262.129296,295.987462 C263.178568,295.376944 264.474691,295.376168 265.524693,295.985429 L320.711755,328.00763 C323.105424,329.396552 323.094678,331.657802 320.687752,333.058272 L228.077597,386.943493 C225.670672,388.343963 221.77902,388.353324 219.385351,386.964401 L165.015105,355.416157 C164.207997,354.947834 163.933357,353.913892 164.401681,353.106783 C164.548939,352.852999 164.759748,352.641937 165.013356,352.494375 Z" id="Rectangle-38" fill="url(#linearGradient-17)" fill-rule="nonzero"></path>
                    <g id="Group-4" transform="translate(147.500000, 292.000000)">
                        <g id="Group-29">
                            <path d="M2.35036856,59.5028386 L101.506306,2.7984528 L160.173435,36.0127447 L160.173433,40.7306929 C160.173433,41.1734257 159.944644,41.5847227 159.568487,41.8182134 C159.150555,42.0776345 158.759871,42.3140348 158.396436,42.5274141 L65.7394042,96.9280411 C63.33126,98.3419063 59.4376386,98.3513567 57.0427575,96.9491491 L2.76831259,65.1706875 C2.50944466,65.0191167 2.35036856,64.7416373 2.35036856,64.4416601 L2.35036856,59.5028386 Z" id="Rectangle-38" fill="#223762"></path>
                            <path d="M2.61370647,58.1364185 L99.7977587,1.0778957 C100.852805,0.458458603 102.160268,0.457672329 103.216059,1.07584002 L158.420451,33.3981201 C160.815332,34.8003277 160.80458,37.0832057 158.396436,38.497071 L65.7394042,92.8976979 C63.33126,94.3115632 59.4376386,94.3210136 57.0427575,92.918806 L2.61545954,61.0515161 C1.81019373,60.5800314 1.53961069,59.5450206 2.0110954,58.7397548 C2.15707694,58.4904277 2.36455507,58.2826998 2.61370647,58.1364185 Z" id="Rectangle-38" fill="url(#linearGradient-10)"></path>
                            <polygon id="Rectangle-39" fill="#4979DF" points="18.3094492 65.4469293 111.511522 10.7262987 112.053562 11.0436638 18.8514886 65.7642945"></polygon>
                            <polygon id="Rectangle-39" fill="#4979DF" points="56.7161591 87.9341334 149.918232 33.2135028 150.460272 33.530868 57.2581986 88.2514986"></polygon>
                            <polygon id="Rectangle-39" fill="#4979DF" points="58.884317 89.2035941 152.08639 34.4829635 152.62843 34.8003287 59.4263565 89.5209593"></polygon>
                            <path d="M69.7289247,57.7329103 L86.4998787,47.8863785 C87.129594,47.5166612 88.1477525,47.51419 88.7739995,47.8808589 C89.4002465,48.2475277 89.397435,48.8444866 88.7677197,49.2142039 L71.9967657,59.0607357 C71.3670504,59.430453 70.3488919,59.4329242 69.7226449,59.0662553 C69.0963979,58.6995865 69.0992094,58.1026276 69.7289247,57.7329103 Z" id="Rectangle-42" fill="url(#linearGradient-20)" fill-rule="nonzero"></path>
                            <path d="M56.6270504,49.2025326 L73.3980044,39.3560007 C74.0277196,38.9862835 75.0458782,38.9838122 75.6721252,39.3504811 C76.2983722,39.7171499 76.2955606,40.3141088 75.6658454,40.6838261 L58.8948913,50.5303579 C58.2651761,50.9000752 57.2470175,50.9025464 56.6207705,50.5358775 C55.9945236,50.1692087 55.9973351,49.5722498 56.6270504,49.2025326 Z" id="Rectangle-42" fill="url(#linearGradient-20)" fill-rule="nonzero"></path>
                            <path d="M63.0857208,53.6436354 L85.8463182,40.2804752 C86.4760334,39.9107579 87.494192,39.9082867 88.120439,40.2749555 C88.7466859,40.6416244 88.7438744,41.2385833 88.1141591,41.6083005 L65.3535618,54.9714608 C64.7238466,55.341178 63.705688,55.3436493 63.079441,54.9769804 C62.453194,54.6103116 62.4560056,54.0133527 63.0857208,53.6436354 Z" id="Rectangle-42" fill="url(#linearGradient-20)" fill-rule="nonzero"></path>
                            <path d="M13.7605397,60.6011724 L36.521137,47.2380121 C37.1508523,46.8682948 38.1690108,46.8658236 38.7952578,47.2324925 C39.4215048,47.5991613 39.4186933,48.1961202 38.788978,48.5658375 L16.0283807,61.9289977 C15.3986654,62.298715 14.3805069,62.3011862 13.7542599,61.9345173 C13.1280129,61.5678485 13.1308244,60.9708896 13.7605397,60.6011724 Z" id="Rectangle-42" fill="#4979DF"></path>
                            <path d="M76.1328428,62.2699239 L101.413639,47.4271091 C102.043354,47.0573919 103.061513,47.0549207 103.68776,47.4215895 C104.314007,47.7882584 104.311195,48.3852172 103.68148,48.7549345 L78.4006838,63.5977492 C77.7709686,63.9674665 76.75281,63.9699377 76.126563,63.6032689 C75.500316,63.2366 75.5031276,62.6396411 76.1328428,62.2699239 Z" id="Rectangle-42" fill="url(#linearGradient-20)" fill-rule="nonzero"></path>
                            <polygon id="Rectangle" fill="#FFFFFF" fill-rule="nonzero" points="24.337024 66.5200481 49.397466 51.9063312 80.9166102 70.2757584 55.8561682 84.8894752"></polygon>
                        </g>
                        <g id="Group-3" transform="translate(36.906688, 16.640540)">
                            <path d="M57.3495832,10.8610679 L75.6043025,0.400787409 C76.0375959,0.152502539 76.569986,0.152307579 77.0034612,0.400275041 L93.9673911,10.1044133 C94.3048817,10.2974733 94.4219658,10.7275694 94.2289059,11.06506 C94.1666854,11.1738284 94.0765614,11.2640185 93.9678386,11.3263186 L75.7131193,21.7865991 C75.2798259,22.034884 74.7474358,22.035079 74.3139606,21.7871115 L57.3500307,12.0829732 C57.0125401,11.8899133 56.895456,11.4598171 57.0885159,11.1223266 C57.1507363,11.0135582 57.2408604,10.923368 57.3495832,10.8610679 Z" id="Rectangle" fill="url(#linearGradient-21)" fill-rule="nonzero" opacity="0.300000012"></path>
                            <path d="M30.0493222,49.0362945 C31.4794698,48.7963758 32.4525356,48.657796 32.9685199,48.6205552 C33.6184329,48.5736482 34.4780273,48.6200433 35.5473028,48.7597406 L39.2898218,50.9421487 L43.9630442,53.6371058 L19.045122,68.1419321 L11.4920842,63.7374624 L10.9719044,62.5738632 C10.6351912,61.8206634 10.7700344,61.0236895 11.3521483,60.3264796 L15.3838419,55.7697157 L22.6984726,51.5042705 L27.8287823,49.6168402 C28.5182657,49.3631807 29.2658652,49.1677257 30.0493222,49.0362945 Z" id="Combined-Shape" fill="url(#linearGradient-18)"></path>
                            <path d="M11.8045721,53.0538169 L17.8636274,49.5205464 L20.9121038,51.2982313 C21.3837782,51.573283 22.2394879,51.5723104 23.479233,51.2953137 C24.2508301,53.0957747 23.7770816,54.4972405 22.0579874,55.4997111 C20.3388933,56.5021816 17.9355792,56.7784428 14.8480451,56.3284946 C15.323055,55.605551 15.3247228,55.1065534 14.8530484,54.8315018 L11.8045721,53.0538169 Z" id="Combined-Shape" fill="url(#linearGradient-22)" fill-rule="nonzero"></path>
                            <path d="M18.7765933,49.8317354 L12.5029893,53.4901175 C12.19234,53.6712692 11.6959974,53.6857707 11.3524026,53.5237339 L7.37912147,52.2907399 L2.41603728,49.8394127 L1.34165405,48.9866553 C0.484105702,48.3060037 0.0462715128,47.6445192 0.929635557,46.9812219 L2.24350447,45.841811 C3.0029118,45.3989711 3.53210258,44.6152243 3.8310768,43.4905708 L4.25930703,43.5412204 C5.43888992,43.6807375 6.66416163,43.5133649 7.61476473,43.0828634 C8.75222516,42.5677396 9.88657683,42.8230577 11.0537974,43.3231274 L12.5161548,43.949642 L16.7198317,46.8438091 L18.8342406,49.1607836 C19.1121106,49.3611471 19.0872426,49.6505837 18.7765933,49.8317354 Z" id="Combined-Shape" fill="url(#linearGradient-6)"></path>
                            <path d="M18.7337976,53.5094457 C18.123333,53.8654313 17.2961374,54.066116 16.4328142,54.0676838 L13.8446715,54.072384 C13.2089285,54.0735385 12.5824066,53.9837301 12.0200334,53.8108323 L9.7753226,53.1207113 C8.75770087,53.3379616 7.87542937,53.2288074 7.1285081,52.7932486 C6.0081262,52.1399104 6.17742739,51.833304 6.71973558,51.3388799 L6.9166525,51.4537098 C7.22314607,51.6324381 7.48046187,51.8161934 7.8552212,51.795938 L8.26568053,51.7737529 L6.20315929,50.5710167 L6.22131073,50.114974 L5.27342022,49.7768101 L4.7733426,49.0884175 C7.34689265,48.1397373 9.52772792,46.8701173 11.1588499,45.3709575 L12.3328594,45.6601769 L12.9127624,46.2129287 L13.6948106,46.2023439 L15.7573319,47.4050801 L15.795376,47.1657253 C15.8301112,46.9471886 15.514997,46.7971378 15.2085035,46.6184095 L15.0115865,46.5035796 C15.8594534,46.1873386 16.3852398,46.0886125 17.5056217,46.7419507 C18.252543,47.1775095 18.4397269,47.6919963 18.0671736,48.285411 L19.2506327,49.5943891 C19.5471278,49.9223307 19.7011365,50.28768 19.6991566,50.6584064 L19.6910965,52.1676529 C19.6884079,52.6710902 19.3442622,53.1534601 18.7337976,53.5094457 Z" id="Combined-Shape" fill="url(#linearGradient-23)" fill-rule="nonzero"></path>
                            <polygon id="Rectangle-15" fill="#4457C1" fill-rule="nonzero" points="31.3138512 56.0626925 35.4146508 53.671357 36.1785475 54.1168148 32.0777479 56.5081503"></polygon>
                        </g>
                    </g>
                </g>
            </g>
        </g>
    </g>
</svg>