<?xml version="1.0" encoding="UTF-8"?>
<svg width="192px" height="143px" viewBox="0 0 192 143" version="1.1" xmlns="http://www.w3.org/2000/svg" xmlns:xlink="http://www.w3.org/1999/xlink">
    <!-- Generator: Sketch 52.4 (67378) - http://www.bohemiancoding.com/sketch -->
    <title>Group 44</title>
    <desc>Created with Sketch.</desc>
    <defs>
        <path d="M0.159166227,48.5042897 C0.162536669,43.081197 1.96572324,40.1377475 5.56872595,39.6739411 C10.97323,38.9782314 11.4559587,37.8812851 13.7580288,37.3685743 C16.0600989,36.8558635 18.012108,34.8296179 18.6355236,33.883048 C19.0511339,33.2520015 18.9416527,32.6085108 18.3070798,31.9525759 C18.2485038,34.0357506 17.534958,35.077338 16.1664422,35.077338 C14.1136686,35.077338 14.3767374,32.8082569 14.7665465,30.8880774 C15.1563555,28.9678978 14.9304197,24.4667193 13.7580288,22.2845147 C12.5856379,20.1023101 11.8044508,13.7631184 13.7580288,9.8632716 C15.7116068,5.96342483 20.3031951,0.217191198 26.3150761,0.217191198 C32.3269571,0.217191198 36.8020908,4.23252437 39.2385718,10.4436693 C41.6750528,16.6548142 40.4735483,20.208289 39.2385718,22.2845147 C38.0035953,24.3607405 37.5724693,26.88042 38.0384619,29.9626161 C38.5044546,33.0448121 38.9941566,34.8364215 37.2867371,34.8364215 C35.5793176,34.8364215 34.527914,33.4870448 34.527914,32.1875611 C34.2586272,34.3412139 35.2065351,35.8483522 37.3716374,36.7089759 C40.6192909,37.9999116 51.9361317,38.5119246 54.2905018,46.6385388 C56.6448719,54.7651531 63.2582024,77.4987041 62.7798321,80.0059104 C62.3014617,82.5131168 62.0702959,85.0590512 63.3146864,87.4364662 C64.5590769,89.8138811 37.8636057,90.2894339 26.3150761,89.2434271 C18.6160564,88.5460893 10.1603723,87.0444171 0.948024034,84.7384107 L0.159166227,48.5042897 Z" id="path-1"></path>
        <path d="M7.90078139,61.9652594 C3.17356188,60.0823542 0.657120006,57.5401414 0.351455765,54.338621 C-0.107040595,49.5363404 0.942445371,45.8645008 5.88479207,44.6824224 C4.54196141,41.012211 4.46606835,38.3675375 5.65711289,36.7484018 C7.4436797,34.3196983 7.44437703,32.9561912 7.44402836,29.8164263 C7.4436797,26.6766615 8.05942462,23.585743 9.15528322,19.0845644 C10.2511418,14.5833859 10.1360819,13.2404639 10.1360819,11.557014 C10.1360819,9.8735642 9.98737567,6.71722657 10.7068489,4.66167325 C11.426322,2.60611993 12.3230921,2.66089746 12.3230921,4.37993527 C12.3230921,6.09897307 11.8447218,9.09778166 12.3230921,10.6592904 C12.4574449,9.1871586 12.6511872,7.72502862 12.9043191,6.27290048 C13.2840168,4.09470827 12.9452874,1.55278623 13.6229206,0.706874485 C14.3005538,-0.139037257 15.0731986,0.227483793 15.0731986,2.44457852 C15.0731986,3.92264167 15.0731986,5.79897591 15.0731986,8.07358124 C15.5608667,7.08618993 15.8047008,5.94888727 15.8047008,4.66167325 C15.8047008,2.73085222 15.8843711,0.988786916 16.6397569,0.706874485 C17.3951427,0.424962055 18.4617133,1.63111462 18.1843492,4.37993527 C17.9994398,6.21248237 17.9994398,7.6626334 18.1843492,8.73038836 C18.458401,7.54737959 18.5954269,6.45241031 18.5954269,5.44548052 C18.5954269,3.93508583 18.8004428,2.44457852 19.5234026,2.44457852 C20.2463625,2.44457852 20.7072995,3.8154126 20.6733045,6.27290048 C20.6506412,7.91122573 20.7687229,9.37335571 21.0275496,10.6592904 C21.4942978,10.8092018 21.7276718,10.5251959 21.7276718,9.80727291 C21.7276718,8.73038836 22.0934229,7.35135509 23.0736986,7.35135509 C24.0539743,7.35135509 23.0240136,9.45104445 23.538994,10.6592904 C24.0539743,11.8675364 24.8700281,14.7231209 23.538994,16.5100201 C22.2079598,18.2969192 22.0651809,20.6035072 21.0275496,22.1915325 C19.9899183,23.7795577 19.8722434,41.9634329 22.3083758,43.0000193 C24.7445081,44.0366057 27.0725539,45.3282392 31.1798445,44.6824224 C35.2871351,44.0366057 37.9352567,45.2881155 40.0910612,43.7348059 C42.2468658,42.1814963 45.7774621,42.2652327 48.8823367,43.0000193 C51.9872113,43.7348059 53.877332,42.8405713 55.8183581,42.2830267 C57.1123754,41.9113302 58.283546,41.9113302 59.3318697,42.2830267 C64.4342543,43.2508795 68.3259528,43.7348059 71.0069653,43.7348059 C75.0284839,43.7348059 84.1332105,44.7295241 80.3494824,59.624828 C80.3106642,62.2943898 78.0951214,63.6291707 73.7028541,63.6291707 C67.1144532,63.6291707 10.1360819,61.9652594 10.1360819,61.9652594 C10.1360819,61.9652594 9.39098173,61.9652594 7.90078139,61.9652594 Z" id="path-3"></path>
        <path d="M2.95372769,11.1714779 C3.1022596,12.0231465 2.86441098,12.4489808 2.24018184,12.4489808 C1.30383813,12.4489808 0.400269066,10.6899938 0.400269066,9.10737645 C0.400269066,7.52475915 -0.458496361,2.71846622 1.97205735,1.47690015 C4.40261106,0.235334077 6.95188569,0.0744904751 9.29980546,0.154912276 C11.6477252,0.235334077 13.4726453,1.9589076 12.950343,4.66027764 C12.4280407,7.36164768 11.6407519,7.0905512 11.0509826,7.0905512 C10.3193581,9.51575957 9.65326453,11.0151333 9.05270189,11.5886723 C8.15185793,12.4489808 7.28844973,11.9006637 7.57288814,10.8658952 C7.76251374,10.1760496 7.88301776,9.48228644 7.93440018,8.78460582 C7.59393046,9.66726546 7.0516624,10.1085953 6.307596,10.1085953 C5.5635296,10.1085953 5.11411691,9.77485567 4.95935795,9.10737645 C4.9419858,10.2797223 4.63155033,10.8658952 4.02805156,10.8658952 C3.42455278,10.8658952 2.98700699,10.6134619 2.71541419,10.1085953 L2.95372769,11.1714779 Z" id="path-5"></path>
    </defs>
    <g id="About-Us" stroke="none" stroke-width="1" fill="none" fill-rule="evenodd">
        <g transform="translate(-1124.000000, -1038.000000)" id="Group-44">
            <g transform="translate(1124.000000, 1038.000000)">
                <path d="M1.32312036,81.635407 C-14.3294006,130.467119 114.890856,79.7238453 73.3247168,114.653291 C31.7585778,149.582736 110.890767,149.408958 147.413316,129.424449 C183.935865,109.439941 218.545328,61.8246767 162.544086,65.8215785 C106.542845,69.8184802 145.848064,24.636113 111.412518,19.7703196 C76.9769717,14.9045262 16.9756413,32.8036947 1.32312036,81.635407 Z" id="Path-5-Copy" fill="#F3F5FF"></path>
                <g id="Group-158" transform="translate(28.000000, 0.000000)">
                    <g id="Path-185" transform="translate(40.701925, 0.000000)">
                        <mask id="mask-2" fill="white">
                            <use xlink:href="#path-1"></use>
                        </mask>
                        <use id="Mask" fill="#2E5AB8" xlink:href="#path-1"></use>
                        <path d="M36.5746731,26.533263 C34.3095616,31.8462191 34.6536082,34.5655576 37.6068129,34.6912784 C37.4865811,35.2461481 37.0755324,35.3848656 36.3736669,35.1074307 C35.6718014,34.8299959 35.0227878,33.9941732 34.4266264,32.5999627 C33.594069,33.7428478 32.7158945,34.3142903 31.7921028,34.3142903 C33.3039204,33.5532198 34.166434,32.6247638 34.3796435,31.5289222 C34.5928531,30.4330807 35.3245296,28.767861 36.5746731,26.533263 Z" fill="#1D2F76" mask="url(#mask-2)"></path>
                        <path d="M14.2698711,35.7317028 L17.613749,35.7317028 C14.6391645,39.4980856 13.292501,44.7099138 13.5737586,51.3671875 C13.995645,61.353098 13.9252144,69.6772042 13.5737586,75.5467745 C13.2223028,81.4163448 14.0012237,83.2649995 16.8710971,83.2649995 C14.3775975,83.9139817 12.8725439,83.3125463 12.3559365,81.4606934 C11.5810254,78.6829139 12.3559365,74.501187 12.3559365,71.2956543 C12.3559365,68.0901216 12.7255229,62.7856448 12.3559365,59.6246623 C11.9863501,56.4636799 11.3309618,46.7290788 12.8004165,42.5206286 C13.7800529,39.7149952 14.6127846,37.5695997 15.2986115,36.0844422 L14.2698711,35.7317028 Z" id="Path-168" fill="#1D2F76" mask="url(#mask-2)"></path>
                        <path d="M37.2319965,35.8049721 C38.93314,40.0754104 38.7204535,44.3967884 36.5939369,48.769106 C33.404162,55.3275824 26.7336502,62.2267611 15.5663873,63.8268235 C23.3167772,61.6012969 29.108301,57.264044 32.9409587,50.8150645 C36.7736163,44.3660851 37.5516074,39.005911 35.2749318,34.7345422 L37.2319965,35.8049721 Z" id="Path-186" fill="#1D2F76" mask="url(#mask-2)"></path>
                        <path d="M8.79807446,59.0948465 C9.35965986,64.1910185 9.35965986,68.9267752 8.79807446,73.3021166 C8.66906788,69.6900554 8.60456459,66.8010926 8.60456459,64.6352283 C8.60456459,62.4693639 8.66906788,60.62257 8.79807446,59.0948465 Z" id="Path-187" fill="#1D2F76" mask="url(#mask-2)"></path>
                        <path d="M20.6509899,74.1117425 C24.9593448,74.2023406 29.7661765,71.4793969 35.0714849,65.9429112 C31.8496908,70.2394008 28.7363901,72.8608724 25.7315828,73.807326 C22.7267755,74.7537795 21.0332445,74.8552517 20.6509899,74.1117425 Z" id="Path-188" fill="#1D2F76" mask="url(#mask-2)"></path>
                        <path d="M46.4908336,49.8737282 C44.5450425,60.502199 42.8570321,67.4922084 41.4268023,70.8437564 C39.2814578,75.8710785 37.9021334,79.9134515 31.0114386,80.5327517 C36.642634,81.4084945 40.5063811,78.7380023 42.6026799,72.521275 C44.6989787,66.3045476 45.99503,58.7553654 46.4908336,49.8737282 Z" id="Path-189" fill="#1D2F76" mask="url(#mask-2)"></path>
                        <path d="M13.2690241,75.8424686 C15.8209138,79.112141 20.2230599,80.8284458 26.4754627,80.9913828 C21.3146183,81.6460383 16.8325694,80.3963894 13.029316,77.2424359 L13.1577995,76.6648294 L13.2690241,75.8424686 Z" id="Path-190" fill="#1D2F76" mask="url(#mask-2)"></path>
                        <path d="M39.1819135,35.8953376 C40.7435905,40.3098723 40.7435905,44.3193904 39.1819135,47.923892 C40.0503254,43.1313807 39.332305,39.1218626 37.0278523,35.8953376 L37.5102323,35.546785 L39.1819135,35.8953376 Z" id="Path-198" fill="#1D2F76" mask="url(#mask-2)"></path>
                        <path d="M45.1125737,37.9845567 C48.2197604,39.3331795 48.9610191,42.3832196 47.3363497,47.1346768 C48.8404386,43.6927633 49.3105572,40.9642952 48.7467055,38.9492726 C48.1828537,36.93425 46.9714765,36.612678 45.1125737,37.9845567 Z" id="Path-199" fill="#1D2F76" mask="url(#mask-2)"></path>
                        <path d="M15.3795021,73.7879619 C24.9591123,78.2744866 32.3223663,77.9790833 37.469264,72.9017521 C34.6638934,76.2893195 31.233829,77.9831032 27.1790708,77.9831032 C23.1243126,77.9831032 19.191123,76.5847228 15.3795021,73.7879619 Z" id="Path-200" fill="#1D2F76" mask="url(#mask-2)"></path>
                        <path d="M14.045853,36.7935846 C11.2797659,38.1947731 9.63115479,40.7987414 9.10001959,44.6054897 C9.30352457,41.3022063 10.1278301,39.0052132 11.5729363,37.7145101 C13.0180424,36.4238071 13.842348,36.1168319 14.045853,36.7935846 Z" id="Path-201" fill="#1D2F76" mask="url(#mask-2)"></path>
                        <path d="M18.9756477,33.0186445 C18.1489596,35.7760133 16.536726,37.4812695 14.1389469,38.1344131 C10.5422783,39.1141286 4.32851944,40.141818 2.20095686,42.9516964 C0.782581811,44.8249487 -0.180202435,47.2255656 -0.687395874,50.1535472 C-6.54627041,40.731229 -5.35144865,35.3109857 2.8970694,33.8928173 C15.2698465,31.7655647 12.020624,27.4144138 10.6868005,21.3691716 C9.7975849,17.3390101 10.5912078,14.1571445 13.0676693,11.8235748 C12.7242328,15.5128595 13.0813254,18.6947251 14.1389469,21.3691716 C15.7253792,25.3808413 15.6814472,28.0843047 15.3843834,30.988561 C15.0873196,33.8928173 15.2001132,34.2670142 16.416436,34.2670142 C17.6327589,34.2670142 17.9523117,32.2217534 16.6683475,28.1000053 C17.2584074,29.6478488 17.7904723,30.7039155 18.2645425,31.2682056 C18.7386126,31.8324956 18.9756477,32.4159753 18.9756477,33.0186445 Z" id="Path-204" fill="#1D2F76" mask="url(#mask-2)"></path>
                        <path d="M37.4241117,35.433392 C36.8285894,35.5039864 36.2919337,35.3534935 35.8141444,34.9819134 C35.0974606,34.4245432 34.2273635,33.8375164 34.5312263,32.3548594 C34.7338015,31.3664214 35.0581775,30.3226243 35.5043543,29.2234682 C35.0230784,32.1103957 35.412132,33.7918685 36.6715152,34.2678864 C38.5605899,34.9819134 38.1767082,31.7570166 37.4241117,29.796539 C36.6715152,27.8360613 37.5614863,24.0892078 38.6787878,22.1629225 C39.7960894,20.2366372 41.3694467,19.2023187 40.0241173,12.4442706 C38.6787878,5.68622257 52.7065101,11.8762589 51.2680868,16.164782 C49.8296634,20.4533051 43.8563101,34.5419486 40.6402109,35.433392 C38.4961447,36.0276876 37.4241117,36.0276876 37.4241117,35.433392 Z" id="Path-205" fill="#1D2F76" mask="url(#mask-2)"></path>
                        <path d="M39.0475026,65.7243244 C41.9514357,50.7245927 42.4822255,42.2084931 40.639872,40.1760254 C37.8763419,37.1273239 37.9136394,38.0641094 37.9136394,36.1189835 C37.9136394,34.1738575 45.5849982,34.6658086 49.400455,37.6000704 C51.9440929,39.556245 53.5417987,42.5066725 54.1935725,46.4513532 C53.5610916,45.1024999 52.3132144,43.7022418 50.449941,42.2505788 C47.6550309,40.0730844 44.961234,41.9976252 43.8371334,40.5343322 C42.7130328,39.0710392 43.9403387,42.2624415 43.3266857,47.4513049 C42.9175838,50.9105472 41.4911894,57.0015537 39.0475026,65.7243244 Z" id="Path-206" fill="#1D2F76" mask="url(#mask-2)"></path>
                        <path d="M20.8289841,32.9036815 C25.3116722,34.8938158 29.3949048,34.6838933 33.0786819,32.2739142 C30.2949291,33.0246565 28.0678223,33.3773378 26.3973614,33.3319581 C24.7269005,33.2865784 22.8707747,33.1438196 20.8289841,32.9036815 Z" id="Path-181" fill="#1D2F76" mask="url(#mask-2)"></path>
                        <path d="M19.9294247,29.748565 C21.742955,32.2318134 25.035819,33.1634968 29.8080164,32.5436151 C26.829824,33.5721592 24.481788,33.6660137 22.7639085,32.8251786 C21.046029,31.9843435 20.101201,30.9588056 19.9294247,29.748565 Z" id="Path-207" fill="#1D2F76" mask="url(#mask-2)"></path>
                        <path d="M15.020027,21.6969646 C15.1974982,20.5033724 15.2862338,19.0461852 15.2862338,17.3254029 C15.2862338,14.7442295 15.416112,11.3300536 20.4027394,11.3300536 C25.3893667,11.3300536 27.2083595,11.3300536 29.0793036,11.3300536 C30.9502477,11.3300536 35.0442889,10.6589415 36.1457262,13.1666712 C37.2471635,15.6744009 37.6401105,15.3328263 37.2126455,17.8222387 C36.9276688,19.4818469 36.9276688,21.360449 37.2126455,23.458045 C37.833388,21.4707019 38.3907313,20.2931011 38.8846754,19.9252426 C39.6255915,19.3734549 39.3158014,24.7775906 40.1794482,24.7775906 C41.0430949,24.7775906 51.7923068,11.3886691 45.0614756,6.3224445 C38.3306444,1.25621993 30.0560926,-3.15406977 21.524225,-0.690127212 C12.9923573,1.77381534 3.5520393,7.12212679 6.62187291,15.0146281 C8.66842866,20.2762957 10.6779676,22.0947704 12.6504899,20.4700524 C13.2137024,19.9253008 13.6398309,19.652925 13.9288754,19.652925 C14.2179198,19.652925 14.581637,20.3342715 15.020027,21.6969646 Z" id="Path-208" fill="#1D2F76" mask="url(#mask-2)"></path>
                    </g>
                    <g id="Path-202" transform="translate(26.777582, 38.585717)">
                        <mask id="mask-4" fill="white">
                            <use xlink:href="#path-3"></use>
                        </mask>
                        <use id="Mask" fill="#2E5AB8" xlink:href="#path-3"></use>
                        <path d="M23.5321078,7.82280827 C22.8244312,7.27183462 22.3879879,7.5723842 22.2227782,8.72445703 C21.9749635,10.4525663 22.5773838,12.018164 21.0651303,12.53794 C21.2598731,12.0986903 21.226141,11.7648484 20.963934,11.5364141 C20.5706234,11.1937628 20.3380185,10.3307124 20.3380185,8.34267154 C20.3380185,6.35463066 20.7056433,2.11861727 19.5304631,2.11861727 C18.3552829,2.11861727 19.0777646,3.83751972 19.0777646,5.71652887 C19.0777646,7.59553802 18.2722131,9.98948673 18.2722131,11.0613122 C17.7234806,10.0886355 17.4908381,9.08432378 17.5742856,8.04837701 C17.6994568,6.49445685 18.2492733,2.7388067 17.5742856,1.84622858 C16.8992978,0.95365045 16.4612397,1.62951095 16.4612397,4.26898458 C16.4612397,6.90845822 15.9281287,7.64879364 15.4596953,9.09533935 C15.1474064,10.0597032 15.0405983,10.7981823 15.1392709,11.3107768 C14.6178984,10.455154 14.4203498,9.46578554 14.5466251,8.34267154 C14.7360382,6.65800054 15.1392709,1.69443414 14.363226,1.30106256 C13.5871811,0.907690977 13.4195614,6.08579156 13.2979184,7.39597223 C13.1762753,8.70615289 13.2376442,8.90667085 12.8314478,10.6042512 C12.5606502,11.7359715 12.619168,12.618198 13.0070013,13.2509309 C12.1870707,12.234648 11.7771054,11.0176549 11.7771054,9.59995172 C11.7771054,7.47339694 13.0477081,2.65636174 11.6688195,3.13566521 C10.289931,3.61496868 9.14586923,-1.26703588 14.5466251,-1.26703588 C19.947381,-1.26703588 21.4314797,-2.66028689 23.0954031,1.44933693 C24.2046853,4.18908614 24.3502536,6.31357658 23.5321078,7.82280827 Z" fill="#1D2F76" mask="url(#mask-4)"></path>
                        <path d="M8.46875901,62.7021394 C2.7280824,58.1312968 0.448501256,54.2176685 1.63001558,50.9612542 C2.8115299,47.70484 4.54045052,45.6465536 6.81677745,44.7863951 C5.71545641,42.0251884 5.71545641,39.5747367 6.81677745,37.43504 C8.46875901,34.2254949 8.46875901,32.1181297 8.46875901,28.0736632 C8.46875901,24.0291968 9.72291218,18.540278 10.3431898,16.0002749 C10.9634673,13.4602719 10.7598462,11.9132425 10.8616567,9.15412926 C10.9634673,6.39501601 11.9875007,5.92609237 11.9875007,7.54011081 C11.9875007,9.15412926 14.2841665,3.3218914 11.9875007,-0.515327549 C9.69083486,-4.3525465 2.95843469,22.5435741 2.95843469,31.0934059 C2.95843469,39.6432377 -11.483329,41.6410479 -4.92665671,51.6747579 C-0.555541851,58.3638979 3.90959672,62.0396917 8.46875901,62.7021394 Z" id="Path-203" fill="#1D2F76" mask="url(#mask-4)"></path>
                        <path d="M2.61116292,47.2053294 C4.64226112,45.5794483 5.99834111,44.7665077 6.67940287,44.7665077 C7.70099553,44.7665077 11.7312308,39.6858037 11.7312308,31.8424975 C11.7312308,23.9991913 12.9107694,24.1851558 11.7312308,19.4983616 C10.5516923,14.8115675 10.6691929,9.31950858 11.2002119,6.4138567 C11.7312308,3.50820481 -0.322516451,-1.53865572 -2.7391235,16.552935 C-4.35019487,28.6139954 -2.56676606,38.8314602 2.61116292,47.2053294 Z" id="Path-177" fill="#1D2F76" mask="url(#mask-4)"></path>
                        <path d="M24.1629325,12.7858452 C23.0804395,14.4175413 22.3302255,16.0843602 21.9122907,17.7863018 C21.2853885,20.3392143 21.2344832,24.1118864 17.7631601,24.1118864 C14.2918371,24.1118864 12.8047748,23.0550637 14.3981804,27.7498826 C15.991586,32.4447015 16.1300066,35.5977246 16.9465834,31.1024774 C17.7631601,26.6072301 18.9612749,24.9583215 18.9612749,30.0205337 C18.9612749,35.0827459 16.6369676,44.0725426 24.1629325,44.917931 C31.6888975,45.7633194 31.967482,44.0725426 34.4147717,44.917931 C36.8620614,45.7633194 38.392707,46.3090013 41.3459117,44.917931 C44.2991164,43.5268606 46.8715774,43.5230227 49.9175273,44.2204768 C52.9634773,44.917931 54.416719,44.1465097 56.8267014,43.3757862 C59.2366838,42.6050628 66.5632116,44.917931 70.1513378,44.917931 C73.7394641,44.917931 76.4273336,44.1789575 78.9007733,46.4454218 C81.374213,48.7118861 87.6115068,40.0483124 81.0659919,34.2886461 C76.7023152,30.4488685 75.0159319,31.228896 76.0068419,36.6287286 C75.8703971,39.8362966 75.0299948,41.6714023 73.4856349,42.1340457 C71.1690952,42.8280108 69.1391592,40.4683898 57.2942631,40.4683898 C45.449367,40.4683898 44.3399104,39.6017185 38.2982184,39.6017185 C34.2704238,39.6017185 29.5586618,30.663094 24.1629325,12.7858452 Z" id="Path-166" fill="#1D2F76" mask="url(#mask-4)"></path>
                        <path d="M81.44691,49.8962323 C81.3384747,54.3467039 80.8616152,56.0273044 80.0163316,54.9380338 C78.7484061,53.304128 77.9074227,51.39773 75.9742416,52.8601508 C74.0410606,54.3225715 67.6559322,56.1818677 64.1359702,55.2522196 C65.5986453,55.6395003 67.3690572,55.7363205 69.447206,55.5426801 C72.5644291,55.2522196 73.7598611,55.7741763 74.369853,56.4845398 C74.9798449,57.1949033 74.6754591,60.3664181 76.4372706,58.7806607 C78.1990821,57.1949033 80.7621291,58.30127 81.7082355,56.4845398 C82.6543418,54.6678096 83.5931262,52.5569554 82.85221,51.141113 C82.3582659,50.1972181 81.8898326,49.7822578 81.44691,49.8962323 Z" id="Path-191" fill="#1D2F76" mask="url(#mask-4)"></path>
                        <path d="M21.8178021,55.0632894 C15.2552025,55.4961599 10.9036129,55.0742217 8.76303348,53.7974747 C5.55216429,51.8823543 4.72756818,48.5615096 7.993178,43.9741523 C10.1702512,40.9159142 11.1489579,34.8971303 10.929298,25.9178007 C-1.18011966,32.3317737 -7.2348285,40.3092907 -7.2348285,49.8503518 C-7.2348285,64.1619434 -5.1417839,78.8859365 9.8867854,71.1870755 C19.9058316,66.0545015 23.8828372,60.6799062 21.8178021,55.0632894 Z" id="Path-209" fill="#1D2F76" mask="url(#mask-4)"></path>
                        <path d="M18.9881997,4.03068484 C18.9103308,3.57519391 19.0838214,3.30127713 19.5086715,3.20893453 C20.1459466,3.07042063 20.3888799,3.68710407 20.3888799,4.75605111 C20.3888799,5.46868247 20.4451314,5.910857 20.5576344,6.0825747 C21.5420941,5.40558945 21.812543,4.50338826 21.3689812,3.37597114 C20.7036385,1.68484545 20.4150299,0.681230224 18.9881997,1.52173399 C18.0369795,2.08206984 18.0369795,2.44225251 18.9881997,2.60228201 C18.6286083,3.23280521 18.4488127,3.79421684 18.4488127,4.28651689 C18.4488127,4.77881693 18.6286083,4.69353959 18.9881997,4.03068484 Z" id="Path-210" fill="#1D2F76" mask="url(#mask-4)"></path>
                        <path d="M78.3483114,52.9622045 C79.8078291,54.0261215 80.4045135,53.5872616 80.1383648,51.6456246 C79.7391418,48.7331691 78.2013485,53.2988944 76.4923599,49.6172856 C74.7833714,45.9356767 71.0916912,45.2924768 68.920371,46.060409 C66.7490508,46.8283413 66.9592966,46.8668949 65.943457,46.060409 C64.9276173,45.2539231 63.5556149,45.0250437 62.8952407,46.060409 C62.2348665,47.0957743 61.6022112,47.9504086 60.1271779,46.8175253 C58.6521445,45.6846421 50.9870616,47.3823969 45.973587,49.8559342 C49.504532,47.5785377 52.7462,46.0420335 55.6985912,45.2464217 C60.1271779,44.0530041 58.4903218,43.1650663 59.1747042,42.771306 C59.6309591,42.5087992 59.6309591,42.0619283 59.1747042,41.4306935 C61.5937851,38.3005484 64.0169615,37.2180676 66.4442333,38.183251 C70.085141,39.6310262 70.7295098,41.4356778 71.292191,39.8094644 C71.8548722,38.183251 72.462548,38.478322 72.462548,34.3116071 C72.462548,30.1448922 72.8764649,24.7973949 72.0843279,21.5099118 C71.292191,18.2224287 87.6006484,29.6732106 84.9748581,36.2222583 C82.3490678,42.771306 87.9230818,54.308981 84.575552,55.5763242 C82.3438654,56.4212197 80.445183,56.7110295 78.8795047,56.4457536 L78.3483114,52.9622045 Z" id="Path-165" fill="#1D2F76" mask="url(#mask-4)"></path>
                    </g>
                    <path d="M60.7910388,20.0431713 C60.3489297,19.9575742 59.8411552,19.7074699 59.2677151,19.2928586 L65.1040425,19.2928586 C63.4846032,19.5523737 62.5118819,19.6821312 62.1858788,19.6821312 C61.9406792,19.822913 61.4542023,20.1715671 60.7910388,20.0431713 Z" id="Path-169" fill="#1D2F76" transform="translate(62.185879, 19.681960) scale(-1, 1) translate(-62.185879, -19.681960) "></path>
                    <path d="M71.1450372,20.0431713 C70.7029281,19.9575742 70.1951536,19.7074699 69.6217135,19.2928586 L75.458041,19.2928586 C73.8386016,19.5523737 72.8658804,19.6821312 72.5398772,19.6821312 C72.2946776,19.822913 71.8082007,20.1715671 71.1450372,20.0431713 Z" id="Path-169" fill="#1D2F76"></path>
                    <path d="M69.3803492,17.4391448 C72.5187539,15.8278013 74.7205824,15.9061878 75.9858348,17.6743044 C76.2503149,16.5293869 75.6481416,15.7776038 74.1793151,15.4189552 C72.7104886,15.0603065 71.1108333,15.7337031 69.3803492,17.4391448 Z" id="Path-170" fill="#1D2F76"></path>
                    <path d="M58.4864311,17.4536345 C61.6248358,15.842291 63.8266643,15.9206775 65.0919167,17.6887941 C65.3590505,16.6908348 64.8299298,15.9272991 63.5045546,15.3981872 C62.1791794,14.8690753 60.5064716,15.5542244 58.4864311,17.4536345 Z" id="Path-170" fill="#1D2F76" transform="translate(61.822781, 16.457031) scale(-1, 1) translate(-61.822781, -16.457031) "></path>
                    <path d="M64.8946683,23.1085329 C65.1638969,23.9801916 65.5486794,24.350253 66.0490157,24.2187171 C66.7995202,24.0214133 66.9854466,23.8821348 67.4689598,24.0828404 C67.952473,24.283546 68.9488745,24.4686383 68.7320039,23.770748 C69.1341907,23.7827133 69.335284,23.9320363 69.335284,24.2187171 C69.335284,24.6487382 67.8607048,24.965474 67.4689598,25.1190779 C67.0772148,25.2726818 66.5550179,25.2082223 66.0490157,24.9598044 C65.5430136,24.7113865 65.0439847,24.6036704 64.8946683,24.1551575 C64.7951241,23.8561489 64.7951241,23.507274 64.8946683,23.1085329 Z" id="Path-171" fill="#1D2F76"></path>
                    <path d="M55.9536406,19.8938415 C56.0634706,14.3153713 57.5975448,11.5261363 60.5558632,11.5261363 C64.9933409,11.5261363 70.6828798,11.5261363 73.0681069,11.5261363 C75.453334,11.5261363 78.1286515,13.9749016 77.901844,17.9424353 C78.535952,16.791758 78.4994002,15.4347056 77.7921884,13.8712778 C76.7313708,11.5261363 75.4116683,10.9937125 72.399539,10.9937125 C69.3874097,10.9937125 61.6091845,10.9937125 60.5558632,10.9937125 C59.5025419,10.9937125 55.7223005,11.6683136 55.7223005,15.443777 C55.7223005,17.9607526 55.7994139,19.4441074 55.9536406,19.8938415 Z" id="Path-172" fill="#1D2F76"></path>
                    <path d="M86.6181562,81.350228 C85.2188416,80.0816221 84.8205483,77.9786763 85.4232763,75.0413907 C86.0260043,72.104105 86.6568582,68.60974 87.3158377,64.5582955 C87.725637,67.2273921 87.9305366,69.3428984 87.9305366,70.9048142 C87.9305366,73.2476879 88.6400728,71.4557297 93.393791,71.4557297 C98.1475091,71.4557297 99.6997721,75.3062069 98.9236406,77.2806406 C98.1475091,79.2550743 97.4498276,74.6865578 92.6901821,75.5507869 C89.5170851,76.1269396 87.4930765,78.0600866 86.6181562,81.350228 Z" id="Path-178" fill="#1D2F76"></path>
                    <path d="M72.5740466,88.5946448 C77.7251282,85.4520887 83.3438297,83.8808107 89.430151,83.8808107 C95.5164722,83.8808107 98.742276,83.4965539 99.1075622,82.7280401 C96.8800485,83.1958007 94.8318076,83.1958007 92.9628393,82.7280401 C90.1593868,82.0263991 82.9266503,82.6996046 78.869742,84.797375 C76.1651365,86.1958886 74.0665713,87.4616452 72.5740466,88.5946448 Z" id="Path-196" fill="#1D2F76"></path>
                    <path d="M64.3450829,27.4655279 C64.6535365,27.089412 65.0815245,26.9640401 65.629047,27.089412 C66.1765695,27.214784 66.678457,27.214784 67.1347093,27.089412 C67.6892991,27.2297286 68.1685299,27.2297286 68.5724019,27.089412 C69.1782098,26.8789372 69.9221768,27.194257 69.9221768,27.4655279 C69.950535,26.8082556 69.6995242,26.4796194 69.1691445,26.4796194 C68.3735749,26.4796194 68.0295283,26.7207976 67.366016,26.6082768 C66.7025038,26.4957561 66.4681128,26.8439162 65.7689494,26.4796194 C65.3028405,26.2367549 64.8282183,26.565391 64.3450829,27.4655279 Z" id="Path-173" fill="#1D2F76"></path>
                    <path d="M65.5100646,28.2066555 C66.2447048,28.0525808 66.8695731,28.0012226 67.3846697,28.0525808 C67.8997662,28.1039391 68.4123931,28.1039391 68.9225502,28.0525808 C68.4867752,28.3730746 67.9180276,28.5333215 67.2163074,28.5333215 C66.5145871,28.5333215 65.9458395,28.4244328 65.5100646,28.2066555 Z" id="Path-174" fill="#1D2F76"></path>
                    <g id="Path-175-+-Path-176-Mask" transform="translate(86.045297, 72.884133)">
                        <mask id="mask-6" fill="white">
                            <use xlink:href="#path-5"></use>
                        </mask>
                        <use id="Mask" fill="#2F5DBD" xlink:href="#path-5"></use>
                        <path d="M7.43940853,2.56660683 C8.68815737,3.35332161 9.7868053,3.35332161 10.7353523,2.56660683 C10.4308503,3.21317746 10.2785993,4.01928434 10.2785993,4.98492745 C10.2785993,6.43339212 10.9808135,7.25610497 13.0053452,6.55097499 C12.5381612,7.28209814 11.9478689,7.54857167 11.2344683,7.35039561 C10.1643675,7.05313151 9.23630458,5.42812267 9.71550301,3.88100609 C8.89886811,3.6895173 8.35491942,3.47718165 8.08365694,3.24399913 C7.81239445,3.01081662 7.59764498,2.78501918 7.43940853,2.56660683 Z" id="Path-175" fill="#1D2F76" mask="url(#mask-6)"></path>
                        <path d="M5.45253286,10.6295466 L5.23727492,9.97156191 C6.72012421,10.1989585 7.46154885,9.70280598 7.46154885,8.4831044 C7.46154885,6.65355204 6.89426856,6.17302742 6.05607446,6.17302742 C5.21788035,6.17302742 4.82724319,7.90231421 5.0235424,9.34650483 C4.74289497,8.667746 4.60257126,8.1043718 4.60257126,7.65638224 C4.60257126,6.98439791 4.46345335,6.43644807 3.38127991,6.71042299 C2.29910647,6.98439791 2.33240411,9.14998605 2.73973367,10.2236433 C3.01128671,10.9394147 3.41672766,11.4767958 3.95605653,11.8357864 C3.06352857,11.6706396 2.50188505,11.0101981 2.27112598,9.85446184 C1.92498738,8.1208574 2.29134864,7.1238713 1.44888337,7.1238713 C0.887239852,7.1238713 0.610921703,7.21976106 0.619928919,7.4115406 C0.614350257,6.9634929 0.972169184,6.64506211 1.6933857,6.45624823 C2.77521048,6.17302742 4.30341546,6.33561553 5.33825744,5.93054086 C6.37309941,5.52546619 7.23844592,5.93054086 7.72832226,6.17302742 C8.05490648,6.33468513 8.5539789,6.16680534 9.22553951,5.66938807 C8.33882266,6.76703226 7.89546423,7.70493771 7.89546423,8.4831044 C7.89546423,9.65035445 7.43156354,10.8328689 6.52128265,11.0709942 C5.91442872,11.2297444 5.55817879,11.0825952 5.45253286,10.6295466 Z" id="Path-176" fill="#1D2F76" mask="url(#mask-6)"></path>
                        <path d="M8.07284828,7.20442393 L8.37784424,6.91592599 C8.27937503,7.90919047 8.17770971,8.72112793 8.07284828,9.35173836 C7.91555613,10.297654 7.35899734,11.7212158 8.07284828,11.8268458 C8.78669922,11.9324757 9.35563567,11.3848748 9.78776413,10.4664351 C10.0758498,9.85414201 10.476453,8.71448426 10.9895737,7.04746186 C11.4294165,7.08532495 11.5393771,7.86212694 11.3194558,9.37786782 C10.9895737,11.6514791 8.90633539,13.9410582 7.73830283,13.265672 C6.57027028,12.5902859 6.87060283,12.0267663 7.23291084,10.6892523 C7.47444951,9.79757635 7.61979983,9.06515937 7.6689618,8.49200139 L8.07284828,7.20442393 Z" id="Path-167" fill="#1D2F76" mask="url(#mask-6)"></path>
                    </g>
                    <path d="M35.7154718,82.8067174 C39.089052,80.6109638 40.5754751,77.8317887 40.1747412,74.4691922 C39.7740072,71.1065956 39.6534268,67.6941061 39.8129998,64.2317237 C40.1595742,67.0730614 40.5477562,69.755707 40.9775456,72.2796606 C41.6222299,76.0655911 41.6978905,78.2240703 39.454745,80.285555 C37.9593147,81.6598781 36.7128903,82.5002656 35.7154718,82.8067174 Z" id="Path-179" fill="#1D2F76"></path>
                    <path d="M44.5965289,74.2275779 C44.9384544,79.5171575 42.9620969,82.4426387 38.6674562,83.0040212 C40.4075341,82.501603 41.7471106,81.3196991 42.6861855,79.4583095 C43.6252604,77.5969199 44.2620416,75.8533426 44.5965289,74.2275779 Z" id="Path-180" fill="#1D2F76"></path>
                    <path d="M78.3143317,22.3395189 C78.9584358,20.7538747 79.4028447,20.154207 79.6475586,20.5405159 C80.0146294,21.1199793 80.5532941,20.2823222 79.9066485,19.6615221 C79.4755515,19.2476554 78.9447792,20.140321 78.3143317,22.3395189 Z" id="Path-182" fill="#1D2F76"></path>
                    <path d="M55.841465,21.8718574 C55.5707815,20.2740049 55.1650059,19.424211 54.6241383,19.3224756 C53.8128369,19.1698725 54.508522,20.1610965 54.7692543,20.1610965 C54.9430759,20.1610965 55.3004795,20.7313501 55.841465,21.8718574 Z" id="Path-183" fill="#1D2F76"></path>
                    <path d="M57.2969061,27.8414759 C57.8718767,29.4834494 58.5283591,30.496377 59.2663533,30.8802585 C60.0043476,31.26414 60.0921021,32.2177755 59.5296169,33.7411648 C59.819635,33.2447675 59.6414861,32.6438504 58.9951704,31.9384137 C58.908272,33.8009209 58.3416131,34.8312797 57.2951938,35.02949 C58.3284856,34.0888612 58.6935231,33.1621655 58.3903062,32.2494027 C58.0870893,31.3366399 57.7226226,29.867331 57.2969061,27.8414759 Z" id="Path-184" fill="#1D2F76"></path>
                    <path d="M59.5313069,84.3130997 C51.5754362,88.0504165 43.596263,88.3732667 35.5937872,85.2816504 C41.8173952,86.1500358 46.9275716,86.3385223 50.9243164,85.8471099 C54.9210612,85.3556974 57.790058,84.8443607 59.5313069,84.3130997 Z" id="Path-192" fill="#1D2F76"></path>
                    <path d="M35.1283175,88.5107339 C35.1283175,88.5107339 48.2291101,95.9852513 61.5347443,85.346546 C57.068211,88.1310128 52.4900464,89.7146187 47.8002504,90.0973636 C40.7655565,90.6714811 35.1283175,88.5107339 35.1283175,88.5107339 Z" id="Path-193" fill="#1D2F76"></path>
                    <path d="M64.0322266,83.3867188 C60.9819866,90.5273689 57.4361703,94.5877844 53.3947777,95.5679651 C56.8603782,95.248509 59.6119236,93.4396398 61.6494141,90.1413574 C63.6869045,86.843075 64.4811753,84.5915288 64.0322266,83.3867188 Z" id="Path-194" fill="#1D2F76"></path>
                    <path d="M31.2666625,91.3708542 C31.2666625,91.3708542 38.6031272,96.6549677 45.1500369,95.7514873 C40.3029923,96.5136045 36.9828743,97.117553 35.1896828,97.5633329 C33.3964914,98.0091127 31.3441245,97.2420527 29.0325823,95.2621529 C30.7234983,96.5803028 31.8460299,96.8436072 32.400177,96.0520659 C33.2313978,94.864754 34.1271219,93.9959892 32.6968922,93.0009221 C31.2666625,92.005855 31.2666625,91.3708542 31.2666625,91.3708542 Z" id="Path-195" fill="#1D2F76"></path>
                    <path d="M110.950269,105.379329 L100.326674,104.294426 C100.354028,104.03946 100.38381,103.789496 100.416021,103.544532 L88.765303,102.413454 L74.3841483,101.877849 C74.3830196,101.839726 74.3819568,101.801696 74.38096,101.763758 L61.0188844,101.763758 C61.0182332,101.787404 61.0175565,101.811085 61.0168543,101.834802 L46.2808161,102.383624 C46.2729743,102.347743 46.2652119,102.31194 46.257529,102.276215 L35.3219939,103.337861 C35.3444067,103.464203 35.3661428,103.591948 35.3872024,103.721096 L26.3449437,105.551716 C26.371323,105.718603 26.3965243,105.888351 26.4205477,106.060961 L18.02989,108.515875 C15.5027136,102.56827 17.0095905,99.368945 20.1855202,99.0389246 C21.5893214,98.8930514 22.2355295,98.8630672 23.1688845,99.8598027 C22.7400831,96.955656 25.506693,95.0949533 27.4724743,94.8345741 C29.4382557,94.5741948 30.6445954,94.6425959 32.02292,96.6373482 C31.9315642,92.9213015 35.7295536,91.814024 38.1993519,91.4949211 C40.6691502,91.1758182 43.8586159,90.9208447 45.2882831,94.8345741 C45.5145321,90.5340579 49.6595142,90.5340579 52.5446086,90.0569336 C55.429703,89.5798093 59.0731762,90.8132958 60.2338698,94.5741948 C60.8794508,90.7345316 64.2949621,89.7222945 67.4988579,89.7222945 C70.7027538,89.7222945 74.4211494,90.3009108 74.9226637,94.8345741 C75.9184708,90.3871123 80.3641264,90.3871123 82.8190867,90.4112005 C85.2740471,90.4352888 89.4303018,90.986207 89.9698866,94.5741948 C91.4522164,91.4775155 93.9405,91.3350918 96.5990815,91.6103751 C99.2576631,91.8856584 103.219877,92.6432025 102.634149,97.286654 C103.707344,94.8345741 106.408812,94.5741948 108.070556,94.8345741 C109.7323,95.0949533 111.847722,96.4841844 112.267279,98.6864469 C112.878219,98.1867318 113.882057,98.1499044 114.716661,98.2456098 C117.291799,98.5409052 118.259687,102.669995 117.022567,108.028111 L110.950269,105.379329 Z" id="Mask" fill="#1D2F76"></path>
                    <path d="M110.950269,107.52298 L100.326674,106.438077 C100.354028,106.183111 100.38381,105.933146 100.416021,105.688183 L88.765303,104.557105 L74.3841483,104.0215 C74.3830196,103.983377 74.3819568,103.945347 74.38096,103.907409 L61.0188844,103.907409 C61.0182332,103.931055 61.0175565,103.954736 61.0168543,103.978453 L46.2808161,104.527275 C46.2729743,104.491394 46.2652119,104.455591 46.257529,104.419866 L35.3219939,105.481512 C35.3444067,105.607854 35.3661428,105.735599 35.3872024,105.864747 L26.3449437,107.695367 C26.371323,107.862254 26.3965243,108.032002 26.4205477,108.204612 L19.5314956,109.838693 C17.0043193,103.891088 17.328696,100.752275 20.5046257,100.422255 C21.9084269,100.276381 23.077005,100.701812 24.01036,101.698548 C23.5815585,98.7944013 24.7355966,97.22096 27.4724743,96.978225 C29.9176789,96.7613586 31.8294435,97.6503016 33.207768,99.6450539 C33.1164123,95.9290071 34.7802736,93.9268465 38.1993519,93.6385721 C41.7828797,93.3364323 44.2894772,95.1422271 45.7191444,99.0559565 C45.9453934,94.7554403 48.2205481,92.4703164 52.5446086,92.2005846 C56.5717385,91.9493751 59.1656503,93.7042199 60.3263439,97.4651189 C60.9719249,93.6254557 63.3337025,91.7056252 67.411676,91.7056252 C71.8428886,91.7056252 74.309252,93.9724568 74.8107662,98.50612 C75.8065734,94.0586583 78.4884493,91.9711621 82.856394,92.2436313 C86.7939258,92.4892518 89.0324841,94.4060559 89.5720689,97.9940437 C91.0543987,94.8973643 93.3967362,93.4840251 96.5990815,93.754026 C100.43736,94.0776447 102.063636,96.5611798 101.477908,101.204631 C102.73248,97.9506901 104.841045,96.4550949 107.803605,96.7178458 C110.163462,96.9271426 111.553169,98.1329223 111.972727,100.335185 C112.583667,99.8354697 113.306439,99.6334649 114.141042,99.7291703 C116.71618,100.024466 117.385189,102.851171 116.148069,108.209287 L110.950269,107.52298 Z" id="Mask" fill="#2E5AB8"></path>
                    <rect id="Rectangle-63" fill="#1F7BD7" x="7.49772299" y="102.180696" width="121.74874" height="12.8619057"></rect>
                    <polygon id="Rectangle-63" fill="#1F7BD7" points="0.178517214 111.045071 136.565669 111.045071 136.565669 120 0.178517214 120"></polygon>
                    <polygon id="Rectangle-63" fill="#1D2F76" points="0.178517214 111.045071 136.565669 111.045071 136.565669 114.113091 0.178517214 114.113091"></polygon>
                    <polygon id="Rectangle-63" fill="#1D2F76" points="7.43433117 102.114838 129.309855 102.114838 129.309855 105.182859 7.43433117 105.182859"></polygon>
                </g>
            </g>
        </g>
    </g>
</svg>