<?xml version="1.0" encoding="UTF-8"?>
<svg width="115px" height="115px" viewBox="0 0 115 115" version="1.1" xmlns="http://www.w3.org/2000/svg" xmlns:xlink="http://www.w3.org/1999/xlink">
    <!-- Generator: Sketch 52.4 (67378) - http://www.bohemiancoding.com/sketch -->
    <title>Leading</title>
    <desc>Created with Sketch.</desc>
    <defs>
        <linearGradient x1="50%" y1="0%" x2="50%" y2="129.15684%" id="linearGradient-1">
            <stop stop-color="#F4FAFF" offset="0%"></stop>
            <stop stop-color="#9DCEF8" offset="100%"></stop>
        </linearGradient>
        <linearGradient x1="83.3409274%" y1="-64.999992%" x2="50%" y2="100%" id="linearGradient-2">
            <stop stop-color="#80B1F1" offset="0%"></stop>
            <stop stop-color="#4979DF" offset="100%"></stop>
        </linearGradient>
        <linearGradient x1="15.2523332%" y1="6.14617099%" x2="97.7101877%" y2="97.0554051%" id="linearGradient-3">
            <stop stop-color="#2D5CDD" offset="0%"></stop>
            <stop stop-color="#1D2F76" offset="100%"></stop>
        </linearGradient>
    </defs>
    <g id="About-Us" stroke="none" stroke-width="1" fill="none" fill-rule="evenodd">
        <g transform="translate(-1523.000000, -1568.000000)" id="Leading">
            <g transform="translate(1523.000000, 1568.000000)">
                <path d="M63,66.5492958 L63,84.443662 L2.95774648,84.443662 L2.95774648,66.5492958 L23.9577465,66.5492958 L23.9577465,21.7394366 C23.0704181,22.9225411 21.6655026,24.1302755 19.7429577,25.3626761 C17.8204129,26.5950766 15.7253635,27.7535157 13.4577465,28.8380282 C11.1901295,29.9225406 8.84860363,30.8098557 6.43309859,31.5 C4.01759356,32.1901443 1.8732488,32.5352113 0,32.5352113 L0,14.0492958 C1.77465676,14.0492958 3.94364915,13.4824 6.50704225,12.3485915 C9.07043535,11.2147831 11.5844947,9.85916282 14.0492958,8.28169014 C16.5140968,6.70421746 18.6584416,5.15141609 20.4823944,3.62323944 C22.3063471,2.09506278 23.4647863,0.88732838 23.9577465,0 L44.2183099,0 L44.2183099,66.5492958 L63,66.5492958 Z" id="1" fill="url(#linearGradient-1)" fill-rule="nonzero"></path>
                <polygon id="Rectangle-10" fill="url(#linearGradient-1)" fill-rule="nonzero" points="85.5 25 115 57.8160208 99.4736842 57.8160208 99.4736842 102.631579 71.5263158 102.631579 71.5263158 57.8160208 56 57.8160208"></polygon>
                <path d="M19.8743557,73.3874954 L47.8743557,73.3874954 L47.8743557,108.949854 C47.8743557,110.054424 46.9789252,110.949854 45.8743557,110.949854 C45.5277937,110.949854 45.1871791,110.8598 44.8859014,110.68852 L34.8628099,104.990261 C34.2499027,104.641815 33.4988087,104.641815 32.8859014,104.990261 L22.8628099,110.68852 C21.9025714,111.234428 20.6815982,110.898547 20.13569,109.938309 C19.9644097,109.637031 19.8743557,109.296416 19.8743557,108.949854 L19.8743557,73.3874954 Z" id="Rectangle-6" fill="url(#linearGradient-2)" transform="translate(33.874356, 92.887495) rotate(-330.000000) translate(-33.874356, -92.887495) "></path>
                <path d="M55.8743557,73.3874954 L83.8743557,73.3874954 L83.8743557,108.949854 C83.8743557,110.054424 82.9789252,110.949854 81.8743557,110.949854 C81.5277937,110.949854 81.1871791,110.8598 80.8859014,110.68852 L70.8628099,104.990261 C70.2499027,104.641815 69.4988087,104.641815 68.8859014,104.990261 L58.8628099,110.68852 C57.9025714,111.234428 56.6815982,110.898547 56.13569,109.938309 C55.9644097,109.637031 55.8743557,109.296416 55.8743557,108.949854 L55.8743557,73.3874954 Z" id="Rectangle-6" fill="url(#linearGradient-2)" transform="translate(69.874356, 92.887495) scale(-1, 1) rotate(-330.000000) translate(-69.874356, -92.887495) "></path>
                <path d="M47.111043,91.7010072 L45.7317275,92.5550944 C42.6272164,94.4774416 38.5521426,93.5191083 36.6297955,90.4145973 C36.4366513,90.1026774 36.2698047,89.7752225 36.1309835,89.4356236 L35.5171137,87.9339112 C34.0815717,84.4221387 30.7823941,82.0251459 26.9988932,81.7450617 L25.3809835,81.6252915 C21.739454,81.3557171 19.0059442,78.185141 19.2755186,74.5436115 C19.3026035,74.1777357 19.360095,73.8147491 19.4473975,73.4584109 L19.8334508,71.8826763 C20.736241,68.1978023 19.4760673,64.3193865 16.5797801,61.8689075 L15.3412628,60.821028 C12.5536554,58.4625004 12.2058174,54.2907337 14.564345,51.5031263 C14.8013136,51.2230467 15.0611833,50.963177 15.3412628,50.7262084 L16.5797801,49.6783288 C19.4760673,47.2278499 20.736241,43.349434 19.8334508,39.66456 L19.4473975,38.0888255 C18.5784834,34.542222 20.7491795,30.9627379 24.2957829,30.0938238 C24.6521212,30.0065213 25.0151077,29.9490299 25.3809835,29.9219449 L26.9988932,29.8021746 C30.7823941,29.5220905 34.0815717,27.1250977 35.5171137,23.6133252 L36.1309835,22.1116127 C37.5126585,18.7316154 41.3727565,17.111655 44.7527538,18.4933299 C45.0923526,18.6321511 45.4198076,18.7989977 45.7317275,18.9921419 L47.111043,19.8462292 C50.336589,21.8435224 54.4145967,21.8435224 57.6401426,19.8462292 L59.0194582,18.9921419 C62.1239693,17.0697948 66.199043,18.028128 68.1213902,21.1326391 C68.3145343,21.4445589 68.481381,21.7720139 68.6202021,22.1116127 L69.234072,23.6133252 C70.6696139,27.1250977 73.9687915,29.5220905 77.7522925,29.8021746 L79.3702021,29.9219449 C83.0117316,30.1915192 85.7452414,33.3620953 85.4756671,37.0036248 C85.4485821,37.3695006 85.3910907,37.7324872 85.3037882,38.0888255 L84.9177349,39.66456 C84.0149447,43.349434 85.2751184,47.2278499 88.1714056,49.6783288 L89.4099228,50.7262084 C92.1975303,53.0847359 92.5453682,57.2565026 90.1868407,60.0441101 C89.9498721,60.3241897 89.6900024,60.5840594 89.4099228,60.821028 L88.1714056,61.8689075 C85.2751184,64.3193865 84.0149447,68.1978023 84.9177349,71.8826763 L85.3037882,73.4584109 C86.1727023,77.0050143 84.0020062,80.5844985 80.4554028,81.4534126 C80.0990645,81.5407151 79.7360779,81.5982065 79.3702021,81.6252915 L77.7522925,81.7450617 C73.9687915,82.0251459 70.6696139,84.4221387 69.234072,87.9339112 L68.6202021,89.4356236 C67.2385272,92.815621 63.3784292,94.4355813 59.9984318,93.0539064 C59.658833,92.9150852 59.3313781,92.7482386 59.0194582,92.5550944 L57.6401426,91.7010072 C54.4145967,89.7037139 50.336589,89.7037139 47.111043,91.7010072 Z" id="Star" fill="url(#linearGradient-3)"></path>
                <circle id="Oval-2" fill="url(#linearGradient-1)" fill-rule="nonzero" cx="52.5" cy="55.5" r="24.5"></circle>
            </g>
        </g>
    </g>
</svg>