<svg id="Layer_1" data-name="Layer 1" xmlns="http://www.w3.org/2000/svg" viewBox="0 0 438 98.97"><defs><style>.cls-1,.cls-3{fill:#064469;}.cls-2{fill:#212121;}.cls-3{stroke:#064469;stroke-miterlimit:10;stroke-width:0.25px;}</style></defs><title>Rapid-Sml</title><path class="cls-1" d="M103.9,92.67h0a2.49,2.49,0,1,1,0-5H104a29.19,29.19,0,0,0,20.55-8.46,28.31,28.31,0,0,0,8.64-20.3V58.8a2.41,2.41,0,0,1,.71-1.76,2.47,2.47,0,0,1,1.76-.73h0a2.48,2.48,0,0,1,2.48,2.47v.16a33.11,33.11,0,0,1-2.74,13.13A33.74,33.74,0,0,1,128,82.77,34.69,34.69,0,0,1,117.15,90,33.81,33.81,0,0,1,104,92.64Zm-16.52,0H75a2.49,2.49,0,0,1,0-5H87.38a2.49,2.49,0,0,1,0,5Zm-33,0a2.49,2.49,0,1,1,2.48-2.48h0a2.48,2.48,0,0,1-2.48,2.48ZM42,92.67h-.09a18.79,18.79,0,0,1-2.27-.17h-.36a35.17,35.17,0,0,1-6-1.25h-.1l-1.22-.43-1.22-.46h0A33.74,33.74,0,0,1,9.39,59V57.26a2.48,2.48,0,0,1,4.32-1.55,2.42,2.42,0,0,1,.64,1.79V59A28.73,28.73,0,0,0,32.55,85.7h0l1,.39.8.26a28.23,28.23,0,0,0,5.53,1.18h.26c.63,0,1.27.11,1.91.12h0a2.43,2.43,0,0,1,1.73.8A2.46,2.46,0,0,1,42,92.62Zm91.17-43.43a2.49,2.49,0,1,1,2.28-3.48h0A2.49,2.49,0,0,1,134.18,49a2.21,2.21,0,0,1-1,.21ZM17,44.35A2.41,2.41,0,0,1,15.6,44a2.47,2.47,0,0,1-1.1-1.57,2.38,2.38,0,0,1,.35-1.87,34.19,34.19,0,0,1,7.51-8.18h0c.58-.44,1.16-.88,1.78-1.29a2.48,2.48,0,1,1,3.2,3.79,1.9,1.9,0,0,1-.37.26c-.5.35-1,.72-1.52,1.11a29.14,29.14,0,0,0-6.46,7h0A2.49,2.49,0,0,1,17,44.35ZM119.62,34.17a2.4,2.4,0,0,1-1.2-.32,28.58,28.58,0,0,0-10.83-3.48h0a2.48,2.48,0,0,1,.29-4.95h.29a33.54,33.54,0,0,1,12.72,4.1,2.48,2.48,0,0,1-1.22,4.65Zm-74.7-4.74h0a2.5,2.5,0,0,1-1.81-4.2,2.53,2.53,0,0,1,1.81-.78,2.49,2.49,0,0,1,2.48,2.42,2.45,2.45,0,0,1-.67,1.77A2.54,2.54,0,0,1,44.92,29.43Zm51.6-9.06a2.5,2.5,0,0,1-1.83-.73,29.94,29.94,0,0,0-2.92-2.71,28.84,28.84,0,0,0-18-6.39h0a28.83,28.83,0,0,0-18,6.34,20.76,20.76,0,0,0-2,1.77,2.47,2.47,0,1,1-3.47-3.51c.76-.73,1.55-1.43,2.36-2.08A33.72,33.72,0,0,1,94.88,13a32.2,32.2,0,0,1,3.43,3.17A2.48,2.48,0,0,1,99,17.93a2.41,2.41,0,0,1-.78,1.74A2.46,2.46,0,0,1,96.52,20.37Z"/><path class="cls-1" d="M39.88,81.31a1.11,1.11,0,0,1-1.18,1.8,23.4,23.4,0,0,1-2.6-.75h0l-.55-.2a1.17,1.17,0,0,1-.56-.47,4,4,0,0,1-.47-1,2.15,2.15,0,0,1,1.53-2.63l.25,0c1.57-.2,2.22,1.2,2.89,2.3C39.4,80.66,39.64,81,39.88,81.31Z"/><path class="cls-1" d="M29,65.68a2.15,2.15,0,0,1-.84,2.92,2.17,2.17,0,0,1-1.06.27,2.3,2.3,0,0,1-1.92-1.31c-.48-.83-.94-1.68-1.37-2.54a54.22,54.22,0,0,1-3.95-10,2.77,2.77,0,0,1-.1-.26,2.36,2.36,0,0,1,0-1,2.18,2.18,0,0,1,.16-.45,3.23,3.23,0,0,1,.22-.41,2.21,2.21,0,0,1,2.64-.66,2.09,2.09,0,0,1,1.1,1,2.35,2.35,0,0,1,.2.56A1.4,1.4,0,0,1,24,54,52,52,0,0,0,29,65.68Z"/><path class="cls-1" d="M33.73,60.77c-.35-.54-.47-1.17-.84-1.71a10.21,10.21,0,0,1-.83-1.77c-.49-1.11-.93-2.33-1.32-3.52a45.9,45.9,0,0,1-2.21-12.18,2.07,2.07,0,0,1,0-1,1.7,1.7,0,0,1,.15-.45,2.22,2.22,0,0,1,3-.87,2.19,2.19,0,0,1,1.08,1.39,2.12,2.12,0,0,1,0,.71,41.12,41.12,0,0,0,.62,5.31,30.18,30.18,0,0,0,1.11,4.2c.43,1.32.88,2.61,1.36,3.92s1,2.68,1.58,4a2.11,2.11,0,0,1-3.74,2Z"/><path class="cls-1" d="M33.57,74a2.22,2.22,0,1,1-1.45-2.77,1.36,1.36,0,0,1,.28.11A2.14,2.14,0,0,1,33.57,74Z"/><path class="cls-1" d="M63.09,80.25A2.12,2.12,0,1,1,59.9,83,98.56,98.56,0,0,1,43,55.51a3.25,3.25,0,0,1-.38-2.22,2.12,2.12,0,0,1,1.4-1.38,2.2,2.2,0,0,1,2.12.52,7.05,7.05,0,0,1,1.11,2.39A94.63,94.63,0,0,0,58.94,75.2C60.3,76.9,61.67,78.6,63.09,80.25Z"/><path class="cls-1" d="M113,77.57a2.14,2.14,0,0,1-.67,2.54,2.37,2.37,0,0,1-2.5.11,63.41,63.41,0,0,1-6.2-2.88,67.49,67.49,0,0,1-9.08-5.75,1.57,1.57,0,0,1-.38-.3,2.14,2.14,0,1,1,3-3.06A62.73,62.73,0,0,0,110.64,76C111.53,76.34,112.53,76.59,113,77.57Z"/><path class="cls-1" d="M124.58,71.14a2.13,2.13,0,0,1-2.08,1.66,3.53,3.53,0,0,1-.46,0c-6.69-1.55-9.59-3-10.5-3.55h0c-.79-.35-1.56-.74-2.33-1.1A56.08,56.08,0,0,1,87.53,48.43,53.35,53.35,0,0,1,84,42c-.52-1.09-1-2.2-1.43-3.33a24.41,24.41,0,0,0-1.11-2.73A8.73,8.73,0,0,0,74.59,31,10.82,10.82,0,0,0,73,31c-.65.06-1.28.28-1.93.32a2.12,2.12,0,0,1-.9-4.09,10.15,10.15,0,0,1,3.75-.49,13.39,13.39,0,0,1,3.39.53,12.92,12.92,0,0,1,7.64,6.19,22.67,22.67,0,0,1,1.18,2.84,51.25,51.25,0,0,0,7.1,13,52,52,0,0,0,20.44,16.26c1.28.57,2.57,1.11,3.89,1.55.48.17,1,.29,1.47.49h0c1.11.32,2.42.67,3.95,1a2.13,2.13,0,0,1,1.63,2.52Z"/><path class="cls-1" d="M105.8,36.94a2.21,2.21,0,0,1,2.9-1,2.13,2.13,0,1,1-2.84,1Z"/><path class="cls-1" d="M78,80.06a2.12,2.12,0,0,1-1.45,3.7,2.19,2.19,0,0,1-1.42-.55A88.47,88.47,0,0,1,62.31,68.59a88.8,88.8,0,0,1-9.85-18.28,40.69,40.69,0,0,1-1.67-4.68A23.38,23.38,0,0,1,69.55,16.37a2.12,2.12,0,0,1,1.5,4,10.58,10.58,0,0,1-2.22.54,19.44,19.44,0,0,0-14.48,17,21.17,21.17,0,0,0,.08,4.43,22.55,22.55,0,0,0,1.31,4.76,90.26,90.26,0,0,0,4.33,9.76A85.31,85.31,0,0,0,72.15,74.16C74,76.22,76,78.2,78,80.06Z"/><path class="cls-1" d="M50,80.77a1.87,1.87,0,0,1-1.5,3h-.61A1.89,1.89,0,0,1,46.37,83c-.69-.93-1.36-1.88-2-2.85-1.1-1.58-2.13-3.19-3.13-4.83l-.29-.45h0l-2.07-3.32h0a2.07,2.07,0,0,1-.05-1.86,2.21,2.21,0,0,1,4,.19l1.11,1.82h0a6,6,0,0,1,.48.75l.81,1.32c1,1.63,2.07,3.23,3.18,4.8C48.9,79.33,49.44,80.05,50,80.77Z"/><path class="cls-1" d="M44.26,46.35a3.45,3.45,0,0,1,.11,1.83,2.22,2.22,0,0,1-1.18,1.28,2.15,2.15,0,0,1-2.81-1.14c0-.1-.07-.2-.1-.3a4.3,4.3,0,0,1-.22-2.3,2.14,2.14,0,0,1,1.45-1.4,2.11,2.11,0,0,1,1.86.37A2.63,2.63,0,0,1,44.26,46.35Z"/><path class="cls-1" d="M95.72,82.39a2.09,2.09,0,0,1-1.81,1.37h-.86l-.32-.21h0a1.31,1.31,0,0,1-.37-.24h0a76,76,0,0,1-10.28-7.92A78.87,78.87,0,0,1,65.24,53.45c-.54-1.06-1.06-2.14-1.56-3.22-.38-.83-.71-1.71-1.11-2.53a16.07,16.07,0,0,1-1.49-4.58,2.45,2.45,0,0,1,.66-2.56,2.22,2.22,0,0,1,2.43-.19c.91.54,1,1.44,1.11,2.37A12.44,12.44,0,0,0,66,45.18a9.12,9.12,0,0,0,.41.83c.45.88.79,1.84,1.2,2.74,1,2.12,2.08,4.19,3.25,6.19A73.75,73.75,0,0,0,94.79,79.85l.1.07A2.15,2.15,0,0,1,95.72,82.39Z"/><path class="cls-1" d="M39.71,40.46a2.66,2.66,0,0,1-.44-1.9c0-.65.06-1.3.11-2a2.13,2.13,0,0,1,1.86-1.91h.06a2.12,2.12,0,0,1,2.31,1.92,1.34,1.34,0,0,1,0,.4c0,.66-.09,1.3-.11,2a2.2,2.2,0,0,1-2.12,2.3h-.09A2.09,2.09,0,0,1,39.71,40.46Z"/><path class="cls-1" d="M128.18,60.61a2.13,2.13,0,0,1-2.11,1.92h-.23a22.29,22.29,0,0,1-4.43-1h-.14a45,45,0,0,1-17.86-10.51,45.33,45.33,0,0,1-8.57-11.24A46.06,46.06,0,0,1,92,33.43a19.42,19.42,0,0,0-2.35-4.66,19.17,19.17,0,0,0-4.28-4.48,19.7,19.7,0,0,0-2.89-1.81c-.52-.26-1-.5-1.58-.71a5.22,5.22,0,0,1-1.4-.64,2.13,2.13,0,0,1,1.6-3.76,5.78,5.78,0,0,1,1.5.51c.52.21,1.05.45,1.56.7A22.78,22.78,0,0,1,87,20.26a23.81,23.81,0,0,1,8.39,10.06c.73,1.71,1.29,3.47,2.07,5.17a41.22,41.22,0,0,0,24.78,21.8,2.92,2.92,0,0,1,.4.1,19.61,19.61,0,0,0,3.63.8,2.13,2.13,0,0,1,1.9,2.35A.17.17,0,0,1,128.18,60.61Z"/><path class="cls-1" d="M64.78,32.24a2.13,2.13,0,1,1-2.84,1A2.15,2.15,0,0,1,64.78,32.24Z"/><path class="cls-1" d="M76.16,50.43A54.58,54.58,0,0,1,71.73,41a2.24,2.24,0,0,1,.51-2.56,2.16,2.16,0,0,1,2.39-.25,3.22,3.22,0,0,1,1.3,2.06A27.83,27.83,0,0,0,77,42.85a76.41,76.41,0,0,0,4.32,8A64.21,64.21,0,0,0,88,59.8l.19.15a4,4,0,0,1,.26.32h0a2.52,2.52,0,0,1,.22.47,2,2,0,0,1,.13.72,2.13,2.13,0,0,1-2.13,2.14,2.21,2.21,0,0,1-1.1-.3,1.65,1.65,0,0,1-.39-.29,3.33,3.33,0,0,1-.25-.28c-.52-.56-1-1.11-1.5-1.73A72.85,72.85,0,0,1,76.16,50.43Z"/><path class="cls-1" d="M112.49,44.53a2.13,2.13,0,0,1,.52-3l.24-.15c1.4-.71,2.45.41,3.5,1.19a34.35,34.35,0,0,0,3.68,2.31A28.83,28.83,0,0,0,124,46.53l.37.12a.48.48,0,0,1,.16.08,2.14,2.14,0,0,1-1.52,4,1.24,1.24,0,0,1-.31-.1l-.21-.1A33.53,33.53,0,0,1,115.7,47c-.53-.36-1.11-.72-1.59-1.11A7.18,7.18,0,0,1,112.49,44.53Z"/><path class="cls-2" d="M197,61.65a24,24,0,0,0,.79,4.77.7.7,0,0,1-.47.87.64.64,0,0,1-.2,0h-8.49a.71.71,0,0,1-.66-.46,19.62,19.62,0,0,1-.87-4.48l-.55-7.59c-.33-4.4-2.33-6.37-6.48-6.37H168.11a.71.71,0,0,0-.7.7v17.5a.69.69,0,0,1-.68.7h-8.6a.69.69,0,0,1-.7-.68V13.71a.7.7,0,0,1,.7-.7h23.51c10.7,0,18.92,7.83,18.92,17.89a15.11,15.11,0,0,1-8.86,14,.69.69,0,0,0-.29.94.81.81,0,0,0,.29.29c2.86,1.58,4.32,4,4.67,7.61ZM180.51,40.17c5.91,0,9.9-3.83,9.9-9.27s-4-9.34-9.9-9.34h-12.4a.71.71,0,0,0-.7.69V39.47a.72.72,0,0,0,.7.7Z"/><path class="cls-2" d="M250.36,81.8V28.41a.69.69,0,0,1,.68-.7h7.64a.69.69,0,0,1,.7.68v2.92a.7.7,0,0,0,1.24.43c2.51-3.06,6.74-4.91,11.68-4.91,11.1,0,19.65,8.94,19.65,20.68S283.45,68.2,272.3,68.2A15.48,15.48,0,0,1,261.12,64a.71.71,0,0,0-1,0,.73.73,0,0,0-.21.5V81.8a.7.7,0,0,1-.7.7H251A.7.7,0,0,1,250.36,81.8Zm31.95-34.29c0-7.34-4.8-12.73-11.51-12.73s-11.49,5.3-11.49,12.73,4.77,12.67,11.49,12.67S282.31,54.87,282.31,47.51Z"/><path class="cls-2" d="M294.7,14.32A6.81,6.81,0,0,1,301.06,8a6.93,6.93,0,0,1,7.24,6.58,5.12,5.12,0,0,1,0,.68,6.66,6.66,0,0,1-6.37,6.37A6.92,6.92,0,0,1,294.69,15,5.3,5.3,0,0,1,294.7,14.32Zm2.12,13.39h9.43a.08.08,0,0,1,.08.07V67.25a.08.08,0,0,1-.08.07h-9.43a.08.08,0,0,1-.08-.07h0V27.78s0-.07.08-.08h0Z"/><path class="cls-2" d="M344.12,66.72c-.16-1.16-.28-2.22-.36-3.19a.7.7,0,0,0-.74-.64.65.65,0,0,0-.48.25c-2.88,3.45-7,5.12-12,5.12-10.86,0-19.4-9-19.4-20.69s8.54-20.69,19.4-20.69A15.08,15.08,0,0,1,342,31.41a.7.7,0,0,0,1.2-.49V12.11a.71.71,0,0,1,.7-.7h8.19a.7.7,0,0,1,.7.68V52.63a98.13,98.13,0,0,0,.69,13.92.71.71,0,0,1-.6.79h-8A.68.68,0,0,1,344.12,66.72Zm-.32-19.21c0-7.34-4.79-12.73-11.5-12.73s-11.5,5.3-11.5,12.73,4.85,12.67,11.5,12.67S343.8,54.87,343.8,47.51Z"/><path class="cls-1" d="M362.08,13h8.58a.7.7,0,0,1,.7.7h0V66.62a.69.69,0,0,1-.68.7h-8.6a.69.69,0,0,1-.7-.68V13.71a.7.7,0,0,1,.7-.7Z"/><path class="cls-1" d="M381.26,13.71a.71.71,0,0,1,.7-.7h19.11c17.65,0,29.32,10.94,29.32,27.07,0,16.3-11.68,27.24-29.32,27.24H382a.7.7,0,0,1-.7-.7h0ZM401,58.78c12.05,0,19.17-7.27,19.17-18.7S413.05,21.56,401,21.56h-9a.7.7,0,0,0-.7.68h0V58.06a.7.7,0,0,0,.7.7h0Z"/><circle class="cls-2" cx="301.48" cy="14.67" r="6.84"/><path class="cls-2" d="M235.11,66.72c-.16-1.16-.27-2.22-.36-3.19a.69.69,0,0,0-.76-.63.68.68,0,0,0-.47.24c-2.87,3.45-7,5.12-12,5.12-10.86,0-19.41-9-19.41-20.69s8.55-20.69,19.41-20.69A15.08,15.08,0,0,1,233,31.41a.7.7,0,0,0,1,0,.71.71,0,0,0,.21-.5V28.55a.68.68,0,0,1,.68-.7H243a.7.7,0,0,1,.7.7h0V52.63a101.18,101.18,0,0,0,.69,13.92.7.7,0,0,1-.59.79h-8A.69.69,0,0,1,235.11,66.72Zm-.31-19.21c0-7.34-4.79-12.73-11.5-12.73s-11.51,5.3-11.51,12.73,4.8,12.74,11.51,12.74S234.8,54.87,234.8,47.51Z"/><path d="M273.82,83.25h-5.77l-1.38,3.64h-1.93l5.19-13H272l5.19,13h-1.95Zm-5.12-1.68h4.48l-2.26-5.84Z"/><path d="M280.49,86.89h-1.73V78h1.69v1.27a3,3,0,0,1,2.72-1.52c2.11,0,3.16,1.52,3.16,3.49v5.61H284.6V81.57c0-1.23-.51-2.22-2.06-2.22-1.35,0-2.05,1.08-2.05,2.43Z"/><path d="M348.94,80.36a6.7,6.7,0,0,1,6.78-6.78,5.53,5.53,0,0,1,5.74,4.13l-1.67.59a3.87,3.87,0,0,0-4.07-3.07c-2.37,0-4.63,1.73-4.63,5.13s2.26,5.15,4.63,5.15a4.16,4.16,0,0,0,4.16-3.13l1.6.59a5.69,5.69,0,0,1-5.76,4.19A6.64,6.64,0,0,1,348.94,80.36Z"/><path d="M371.63,82.46a4.52,4.52,0,1,1-4.52-4.69A4.46,4.46,0,0,1,371.63,82.46Zm-1.76,0a2.78,2.78,0,1,0-5.52,0c0,2.05,1.29,3.16,2.76,3.16S369.87,84.51,369.87,82.46Z"/><path d="M373.84,86.89V78h1.66v1.18a3,3,0,0,1,2.68-1.43,2.77,2.77,0,0,1,2.65,1.67,3.17,3.17,0,0,1,3-1.67,3,3,0,0,1,3,3.36v5.74h-1.71V81.33a1.78,1.78,0,0,0-1.88-2,2.07,2.07,0,0,0-2,2.23v5.35h-1.72V81.33a1.79,1.79,0,0,0-1.88-2,2.05,2.05,0,0,0-2.06,2.24v5.34Z"/><path d="M389.61,90.38V78h1.67v1.38a3.26,3.26,0,0,1,3-1.58c2.64,0,4.06,2,4.06,4.62s-1.53,4.67-4.12,4.67a3.27,3.27,0,0,1-2.86-1.44v4.69Zm4.32-11c-1.59,0-2.63,1.32-2.63,3.09s1,3.12,2.63,3.12,2.61-1.3,2.61-3.12S395.54,79.37,393.93,79.37Z"/><path d="M402.64,81.83l2.39-.35c.54-.07.68-.35.68-.66,0-.86-.57-1.58-1.91-1.58a1.87,1.87,0,0,0-2,1.78l-1.66-.38a3.41,3.41,0,0,1,3.63-2.87c2.64,0,3.67,1.51,3.67,3.23v4.43a9.14,9.14,0,0,0,.11,1.46h-1.69a6.33,6.33,0,0,1-.09-1.2,3.22,3.22,0,0,1-2.85,1.47,2.76,2.76,0,0,1-3-2.65C400,82.93,401.12,82.05,402.64,81.83Zm3.07,1.27v-.41l-2.7.41a1.33,1.33,0,0,0-1.29,1.32,1.35,1.35,0,0,0,1.44,1.29A2.32,2.32,0,0,0,405.71,83.1Z"/><path d="M411.86,86.89h-1.73V78h1.69v1.27a3,3,0,0,1,2.72-1.52c2.12,0,3.16,1.52,3.16,3.49v5.61H416V81.57c0-1.23-.52-2.22-2.06-2.22-1.36,0-2.06,1.08-2.06,2.43Z"/><path d="M420.78,90.58,423,85.91,419.18,78h2l2.75,6.11L426.57,78h1.86l-5.76,12.54Z"/><path class="cls-3" d="M344.7,75.77v-1.4h-8.55V86.88h1.39V81.32h6.57V79.93h-6.57V75.77Zm-12.68,0v-1.4h-8.55V86.88H332V85.49h-7.15V81.32h6.56V79.93h-6.56V75.77ZM318.48,86.88h1.81l-4.6-5.56h.19a3.48,3.48,0,1,0,0-6.95H310.1V86.88h1.39V81.32h2.4Zm-7-11.11h4.39a2.08,2.08,0,0,1,0,4.16h-4.39Z"/><path class="cls-3" d="M293.86,75.34l1.15-1,5.17,6.26L295,86.88l-1.15-1,4.37-5.29Zm12.77,0-1.15-1-5.17,6.26,5.17,6.25,1.15-1-4.37-5.29,4.37-5.29Z"/></svg>