<?xml version="1.0" encoding="UTF-8"?>
<svg width="422px" height="88px" viewBox="0 0 422 88" version="1.1" xmlns="http://www.w3.org/2000/svg" xmlns:xlink="http://www.w3.org/1999/xlink">
    <!-- Generator: Sketch 55.2 (78181) - https://sketchapp.com -->
    <title>Rapid-Sml Copy</title>
    <desc>Created with Sketch.</desc>
    <g id="Page-1" stroke="none" stroke-width="1" fill="none" fill-rule="evenodd">
        <g id="Rapid-Sml-Copy" fill="#FFFFFF" fill-rule="nonzero">
            <path d="M94.9,87.67 L94.9,87.67 C93.5192881,87.67 92.4,86.5507119 92.4,85.17 C92.4,83.7892881 93.5192881,82.67 94.9,82.67 L95,82.67 C102.697523,82.6698672 110.083414,79.629252 115.55,74.21 C121.056642,68.8901245 124.173639,61.5666256 124.19,53.91 L124.19,53.8 C124.175991,53.1409187 124.43258,52.5048683 124.9,52.04 C125.365423,51.5710722 125.999312,51.3081524 126.66,51.3099903 L126.66,51.3099903 C128.02577,51.3099903 129.134493,52.4142407 129.14,53.78 L129.14,53.94 C129.132008,58.4577646 128.199545,62.9261011 126.4,67.07 C124.650827,71.0829508 122.137446,74.717163 119,77.77 C115.872811,80.8441087 112.191129,83.2974327 108.15,85 C103.986948,86.7493255 99.5156499,87.6469853 95,87.64 L94.9,87.67 Z M78.38,87.67 L66,87.67 C64.6192881,87.67 63.5,86.5507119 63.5,85.17 C63.5,83.7892881 64.6192881,82.67 66,82.67 L78.38,82.67 C79.7607119,82.67 80.88,83.7892881 80.88,85.17 C80.88,86.5507119 79.7607119,87.67 78.38,87.67 L78.38,87.67 Z M45.38,87.6700201 C44.3710804,87.6740438 43.4594413,87.068862 43.0714742,86.13751 C42.683507,85.206158 42.8959045,84.1327437 43.6093241,83.4193241 C44.3227437,82.7059045 45.396158,82.493507 46.32751,82.8814742 C47.258862,83.2694413 47.8640438,84.1810804 47.8600201,85.19 L47.8600201,85.19 C47.8600201,86.5596662 46.7496662,87.6700201 45.38,87.6700201 L45.38,87.6700201 Z M33,87.67 L32.91,87.67 C32.150593,87.6592616 31.3925356,87.6024908 30.64,87.5 L30.28,87.5 C28.2474365,87.2587221 26.2398156,86.8404677 24.28,86.25 L24.18,86.25 L22.96,85.82 L21.74,85.36 L21.74,85.36 C8.86378779,80.2764341 0.399325687,67.8433882 0.39,54 L0.39,52.26 C0.434668389,51.2544799 1.08264305,50.3756814 2.0300202,50.035766 C2.97739736,49.6958506 4.03626175,49.9622415 4.71,50.71 C5.15856173,51.1943918 5.38975627,51.841014 5.35,52.5 L5.35,54 C5.36261567,65.7915855 12.5789606,76.3782014 23.55,80.7 L23.55,80.7 L24.55,81.09 L25.35,81.35 C27.149196,81.927418 29.0018204,82.3227338 30.88,82.53 L31.14,82.53 C31.77,82.53 32.41,82.64 33.05,82.65 L33.05,82.65 C33.71155,82.6699422 34.3363432,82.9588639 34.78,83.45 C35.4678781,84.1613785 35.6625405,85.2156778 35.2740499,86.1257935 C34.8855593,87.0359092 33.9895524,87.624647 33,87.62 L33,87.67 Z M124.17,44.2400046 C122.924955,44.2423651 121.869526,43.3247434 121.698793,42.0914582 C121.52806,40.8581729 122.294505,39.688335 123.493367,39.3523709 C124.692229,39.0164069 125.954979,39.6175918 126.45,40.76 L126.45,40.76 C126.97688,42.0056797 126.41303,43.4441617 125.18,44 C124.867648,44.1471567 124.525161,44.2190789 124.18,44.21 L124.17,44.2400046 Z M8,39.35 C7.50853838,39.3790696 7.01996278,39.2569257 6.6,39 C6.036921,38.6460985 5.64034883,38.0800819 5.5,37.43 C5.35162678,36.7851152 5.47843984,36.1075711 5.85,35.56 C7.89084992,32.4423048 10.4276352,29.6792017 13.36,27.38 L13.36,27.38 C13.94,26.94 14.52,26.5 15.14,26.09 C16.1865796,25.2063444 17.7513444,25.3384204 18.635,26.385 C19.5186556,27.4315796 19.3865796,28.9963444 18.34,29.88 C18.2274569,29.9810872 18.103244,30.0683719 17.97,30.14 C17.47,30.49 16.97,30.86 16.45,31.25 C13.9272998,33.213215 11.744815,35.5781366 9.99,38.25 L9.99,38.25 C9.54257954,38.915809 8.80179552,39.3252876 8,39.35 Z M110.62,29.1700776 C110.198852,29.170468 109.784995,29.0601062 109.42,28.85 C106.079652,26.9760367 102.396714,25.7925995 98.59,25.37 L98.59,25.37 C97.2488471,25.2581391 96.2416671,24.0970434 96.3203776,22.7535373 C96.399088,21.4100311 97.53496,20.374488 98.88,20.42 L99.17,20.42 C103.642109,20.9195343 107.967971,22.3138766 111.89,24.52 C112.882757,25.069193 113.376245,26.2220448 113.088326,27.3194425 C112.800406,28.4168402 111.804504,29.1789271 110.67,29.1700776 L110.62,29.1700776 Z M35.92,24.43 L35.92,24.43 C34.9301209,24.4209194 34.0388307,23.8286148 33.647054,22.9195196 C33.2552772,22.0104244 33.4368122,20.9557833 34.11,20.23 C34.5830933,19.7360241 35.2360352,19.4546459 35.92,19.45 C37.2644256,19.4548682 38.3622135,20.5260967 38.4,21.87 C38.4227608,22.5259255 38.1813971,23.163558 37.73,23.64 C37.2579315,24.1367058 36.6051969,24.4216011 35.92,24.43 L35.92,24.43 Z M87.52,15.37 C86.8357907,15.3874274 86.1743554,15.1235762 85.69,14.64 C84.7779109,13.6728414 83.8024188,12.7675045 82.77,11.93 C77.669996,7.81727054 71.3216431,5.56360528 64.77,5.54 L64.77,5.54 C58.2242436,5.54863082 51.8762791,7.78452498 46.77,11.88 C46.0660336,12.4264611 45.3979849,13.0176842 44.77,13.65 C44.1521407,14.3141103 43.2199804,14.5861287 42.3419135,14.3585521 C41.4638467,14.1309756 40.7811644,13.4404238 40.5636662,12.5598063 C40.3461681,11.6791888 40.6288521,10.7502073 41.3,10.14 C42.06,9.41 42.85,8.71 43.66,8.06 C55.9780153,-1.85806374 73.5338448,-1.88301281 85.88,8 C87.0985604,8.97224551 88.2449084,10.0316984 89.31,11.17 C89.7633474,11.6425586 90.0113887,12.2752437 90.0003755,12.93 C89.9902664,13.5925677 89.7081535,14.2218965 89.22,14.67 C88.7650968,15.1142709 88.1558381,15.3651422 87.52,15.37 L87.52,15.37 Z" id="Shape"></path>
            <path d="M30.88,76.31 C31.2238134,76.6843285 31.2694612,77.2443516 30.9908067,77.6694177 C30.7121523,78.0944838 30.180394,78.2759853 29.7,78.11 C28.8195916,77.9103626 27.9514738,77.659944 27.1,77.36 L27.1,77.36 L26.55,77.16 C26.317921,77.0671736 26.1216698,76.9024628 25.99,76.69 C25.7878267,76.3800144 25.6296513,76.0434709 25.52,75.69 C25.373718,75.1383337 25.4527842,74.5511418 25.7397758,74.0578164 C26.0267674,73.5644909 26.4981317,73.205518 27.05,73.06 L27.3,73.06 C28.87,72.86 29.52,74.26 30.19,75.36 C30.4,75.66 30.64,76 30.88,76.31 Z" id="Path"></path>
            <path d="M20,60.68 C20.573479,61.7183966 20.1975892,63.0250614 19.16,63.6 C18.8355191,63.779038 18.4705921,63.8719911 18.1,63.8700313 C17.2702077,63.8126319 16.5360433,63.3117177 16.18,62.56 C15.7,61.73 15.24,60.88 14.81,60.02 C13.165268,56.8257699 11.8420974,53.4759708 10.86,50.02 C10.8223271,49.9350653 10.7889516,49.848289 10.76,49.76 C10.6885677,49.4304936 10.6885677,49.0895064 10.76,48.76 C10.7966917,48.6045929 10.8503469,48.4536875 10.92,48.31 C10.9833815,48.1682222 11.0569055,48.0312001 11.14,47.9 C11.7641574,47.1000602 12.8528307,46.8278919 13.78,47.24 C14.2568308,47.4272574 14.6482802,47.7831205 14.88,48.24 C14.97011,48.4174449 15.0373146,48.6056177 15.08,48.8 C15.0585092,48.8686223 15.0317634,48.9354868 15,49 C16.1829823,53.0830721 17.8621797,57.0056771 20,60.68 Z" id="Path"></path>
            <path d="M24.73,55.77 C24.38,55.23 24.26,54.6 23.89,54.06 C23.5573556,53.4979063 23.2794151,52.90519 23.06,52.29 C22.57,51.18 22.13,49.96 21.74,48.77 C20.4567261,44.8284183 19.7133002,40.7311664 19.53,36.59 C19.4482747,36.2616759 19.4482747,35.9183241 19.53,35.59 C19.5587246,35.4337272 19.609216,35.282253 19.68,35.14 C20.2723511,34.07655 21.6106011,33.6884575 22.68,34.27 C23.218558,34.5618961 23.6102453,35.0660122 23.76,35.66 C23.7999123,35.8949839 23.7999123,36.1350161 23.76,36.37 C23.8512659,38.1515749 24.0583701,39.9253226 24.38,41.68 C24.6486286,43.1048464 25.0195894,44.5084817 25.49,45.88 C25.92,47.2 26.37,48.49 26.85,49.8 C27.33,51.11 27.85,52.48 28.43,53.8 C28.9822847,54.8327725 28.5927724,56.1177152 27.56,56.6699999 C26.5272275,57.2222846 25.2422848,56.8327724 24.69,55.8 L24.73,55.77 Z" id="Path"></path>
            <path d="M24.57,69 C24.304995,69.8596553 23.547405,70.4744094 22.6516023,70.5567033 C21.7557995,70.6389972 20.8988848,70.1725614 20.4816908,69.375577 C20.0644968,68.5785927 20.1695031,67.6086241 20.7475916,66.9193865 C21.3256802,66.2301489 22.2625625,65.9579048 23.12,66.23 C23.217114,66.2561994 23.3110217,66.2930917 23.4,66.34 C24.4245078,66.7853712 24.9340701,67.9438633 24.57,69 L24.57,69 Z" id="Path"></path>
            <path d="M54.09,75.25 C54.6905526,75.8025345 54.9206451,76.6507263 54.6816511,77.4310081 C54.4426572,78.2112899 53.7770098,78.7851238 52.9700307,78.9065429 C52.1630517,79.0279619 51.3580189,78.6754084 50.9,78 C43.7946613,69.8273574 38.0848154,60.5395666 34,50.51 C33.6127715,49.8389488 33.4780067,49.0516387 33.62,48.29 C33.8323062,47.6283606 34.3553745,47.1127647 35.02,46.91 C35.7688924,46.6958137 36.5752159,46.8935911 37.14,47.43 C37.6569258,48.1498209 38.033503,48.9606493 38.25,49.82 C41.2849402,57.0725667 45.2118656,63.9186522 49.94,70.2 C51.3,71.9 52.67,73.6 54.09,75.25 Z" id="Path"></path>
            <path d="M104,72.57 C104.383714,73.4702668 104.107838,74.5161267 103.33,75.11 C102.585518,75.619481 101.616352,75.6621243 100.83,75.22 C98.7130502,74.3721835 96.6433765,73.4107867 94.63,72.34 C91.4552924,70.6677562 88.419001,68.7449945 85.55,66.59 C85.4085838,66.5102494 85.2803933,66.4090464 85.17,66.29 C84.3250043,65.4615729 84.3115729,64.1049957 85.14,63.26 C85.9684271,62.4150043 87.3250043,62.4015729 88.17,63.23 C92.3203568,66.3686505 96.8451138,68.9786996 101.64,71 C102.53,71.34 103.53,71.59 104,72.57 Z" id="Path"></path>
            <path d="M115.58,66.14 C115.360178,67.1116638 114.496218,67.8011698 113.5,67.8 C113.34683,67.8100012 113.19317,67.8100012 113.04,67.8 C106.35,66.25 103.45,64.8 102.54,64.25 L102.54,64.25 C101.75,63.9 100.98,63.51 100.21,63.15 C91.3631329,58.6145519 83.8809635,51.8088147 78.53,43.43 C77.2072059,41.3701925 76.0277521,39.2217824 75,37 C74.48,35.91 74,34.8 73.57,33.67 C73.2553202,32.738475 72.8846448,31.826814 72.46,30.94 C71.1743963,28.2193985 68.5783257,26.3526461 65.59,26 C65.0607172,25.9610055 64.5292828,25.9610055 64,26 C63.35,26.06 62.72,26.28 62.07,26.32 C61.0289751,26.3821156 60.0973857,25.6778764 59.8732639,24.6593674 C59.6491421,23.6408583 60.1990605,22.6106149 61.17,22.23 C62.3782639,21.8331783 63.6503409,21.6669603 64.92,21.74 C66.0680531,21.7705556 67.207405,21.9486843 68.31,22.27 C71.5729763,23.2457262 74.3187205,25.470354 75.95,28.46 C76.4071658,29.378865 76.801406,30.3277144 77.13,31.3 C78.8546564,35.9542865 81.246297,40.3333467 84.23,44.3 C89.5490254,51.3707013 96.5842776,56.9672376 104.67,60.56 C105.95,61.13 107.24,61.67 108.56,62.11 C109.04,62.28 109.56,62.4 110.03,62.6 L110.03,62.6 C111.14,62.92 112.45,63.27 113.98,63.6 C115.12335,63.8495863 115.8512,64.9748512 115.61,66.12 L115.58,66.14 Z" id="Path"></path>
            <path d="M96.8,31.94 C97.3402654,30.8808189 98.6217198,30.4389381 99.7,30.94 C100.477245,31.311998 100.953794,32.1156448 100.907357,32.9760724 C100.86092,33.8365 100.300645,34.5841896 99.4878786,34.8703751 C98.6751118,35.1565606 97.7699812,34.9248586 97.1946928,34.2833484 C96.6194044,33.6418383 96.4872997,32.7169083 96.86,31.94 L96.8,31.94 Z" id="Path"></path>
            <path d="M69,75.06 C69.6602849,75.6504375 69.8838878,76.589148 69.5606927,77.4138526 C69.2374977,78.2385571 68.4356385,78.7753973 67.55,78.7603227 C67.0261144,78.7524311 66.5223024,78.5572927 66.13,78.21 C61.3324685,73.8225115 57.0331741,68.9195721 53.31,63.59 C49.3230842,57.902841 46.0171543,51.7675721 43.46,45.31 C42.8085112,43.7854784 42.2508048,42.2225649 41.79,40.63 C40.0355436,34.2382177 41.0765451,27.4021355 44.6540437,21.8223056 C48.2315424,16.2424756 54.0092874,12.4433486 60.55,11.37 C61.6545695,10.9557864 62.8857864,11.5154305 63.3,12.62 C63.7142136,13.7245695 63.1545695,14.9557864 62.05,15.37 C61.3316618,15.6296074 60.5873228,15.8106628 59.83,15.91 C51.9054492,17.9627232 46.1159272,24.7598139 45.35,32.91 C45.2216402,34.3853999 45.2484537,35.8701966 45.43,37.34 C45.6911391,38.9698294 46.1304379,40.5660601 46.74,42.1 C47.9894723,45.4359279 49.4353347,48.694962 51.07,51.86 C54.3652551,58.1043346 58.4229507,63.9154384 63.15,69.16 C65,71.22 67,73.2 69,75.06 Z" id="Path"></path>
            <path d="M41,75.77 C41.4302121,76.3372367 41.5010163,77.0995496 41.1826329,77.7363165 C40.8642495,78.3730833 40.2119167,78.7738277 39.5,78.7700272 L38.89,78.7700272 C38.2898135,78.7692377 37.7256659,78.4834524 37.37,78 C36.68,77.07 36.01,76.12 35.37,75.15 C34.27,73.57 33.24,71.96 32.24,70.32 L31.95,69.87 L31.95,69.87 L29.88,66.55 L29.88,66.55 C29.5699191,65.9728498 29.5513741,65.2829757 29.83,64.69 C30.2297844,63.930505 31.0331502,63.471167 31.8904727,63.5118899 C32.7477952,63.5526127 33.5040051,64.0860305 33.83,64.88 L34.94,66.7 L34.94,66.7 C35.1183558,66.9377659 35.2787975,67.188456 35.42,67.45 L36.23,68.77 C37.23,70.4 38.3,72 39.41,73.57 C39.9,74.33 40.44,75.05 41,75.77 Z" id="Path"></path>
            <path d="M35.26,41.35 C35.4610363,41.9389162 35.499045,42.5712428 35.37,43.18 C35.1673452,43.7495292 34.7412012,44.211787 34.19,44.46 C33.099215,44.9177429 31.8435532,44.4083285 31.38,43.32 C31.38,43.22 31.31,43.12 31.28,43.02 C30.9982081,42.2877616 30.9221281,41.4923801 31.06,40.72 C31.2795525,40.0406841 31.8234009,39.515589 32.51,39.32 C33.1536183,39.1420634 33.8434774,39.2792934 34.37,39.69 C34.861429,40.1144827 35.1784427,40.7057667 35.26,41.35 Z" id="Path"></path>
            <path d="M86.72,77.39 C86.4388529,78.1630749 85.7303704,78.6993296 84.91,78.76 L84.05,78.76 L83.73,78.55 L83.73,78.55 C83.5939898,78.4914846 83.468884,78.4103349 83.36,78.31 L83.36,78.31 C79.7137967,75.967917 76.2745958,73.3182604 73.08,70.39 C66.2181753,64.1256666 60.5172037,56.6981537 56.24,48.45 C55.7,47.39 55.18,46.31 54.68,45.23 C54.3,44.4 53.97,43.52 53.57,42.7 C52.8460789,41.2568512 52.3437721,39.712848 52.08,38.12 C51.7812224,37.2109992 52.0389732,36.2112388 52.74,35.56 C53.439695,35.0179052 54.3945513,34.9432457 55.17,35.37 C56.08,35.91 56.17,36.81 56.28,37.74 C56.4359865,38.575801 56.6772477,39.3934086 57,40.18 C57.1225277,40.463429 57.2593706,40.7404525 57.41,41.01 C57.86,41.89 58.2,42.85 58.61,43.75 C59.61,45.87 60.69,47.94 61.86,49.94 C67.7522774,60.020599 75.9538832,68.5580833 85.79,74.85 L85.89,74.92 C86.6909096,75.4627952 87.0306062,76.4736995 86.72,77.39 L86.72,77.39 Z" id="Path"></path>
            <path d="M30.71,35.46 C30.328073,34.9052141 30.1708273,34.2261985 30.27,33.56 C30.27,32.91 30.33,32.26 30.38,31.56 C30.4756562,30.5660585 31.248945,29.7719824 32.24,29.65 L32.3,29.65 C32.8611577,29.597201 33.4202412,29.7700375 33.8536996,30.1303145 C34.287158,30.4905916 34.5593052,31.0086482 34.61,31.57 C34.6300126,31.7025824 34.6300126,31.8374176 34.61,31.97 C34.61,32.63 34.52,33.27 34.5,33.97 C34.5270748,34.5569644 34.3182198,35.1303686 33.9199825,35.5624186 C33.5217451,35.9944686 32.9672222,36.2492573 32.38,36.27 L32.29,36.27 C31.6691224,36.2482493 31.0901028,35.9514102 30.71,35.46 L30.71,35.46 Z" id="Path"></path>
            <path d="M119.18,55.61 C119.072412,56.6960468 118.161352,57.5250685 117.07,57.53 L116.84,57.53 C115.333139,57.3483597 113.848769,57.0132877 112.41,56.53 L112.27,56.53 C105.580094,54.4638244 99.4646183,50.865076 94.41,46.02 C90.9831852,42.744493 88.091372,38.9517298 85.84,34.78 C84.7346247,32.7379461 83.7852513,30.6152275 83,28.43 C82.4299104,26.7780048 81.6394406,25.21052 80.65,23.77 C79.4756956,22.0544667 78.0301525,20.5413748 76.37,19.29 C75.4607933,18.6042689 74.4938384,17.9986674 73.48,17.48 C72.96,17.22 72.48,16.98 71.9,16.77 C71.4042694,16.6270258 70.932474,16.4113479 70.5,16.13 C69.7709129,15.5296125 69.524263,14.520798 69.8940771,13.6517349 C70.2638912,12.7826719 71.1618448,12.2609226 72.1,12.37 C72.6210392,12.4703429 73.1257797,12.6419547 73.6,12.88 C74.12,13.09 74.65,13.33 75.16,13.58 C76.1460335,14.0706109 77.0951895,14.6320835 78,15.26 C81.6822474,17.7629287 84.5889303,21.2481766 86.39,25.32 C87.12,27.03 87.68,28.79 88.46,30.49 C93.3233813,40.8906921 102.304357,48.7916311 113.24,52.29 C113.375523,52.3138664 113.50919,52.3472831 113.64,52.39 C114.82194,52.7710026 116.037399,53.0388723 117.27,53.19 C117.834336,53.2479079 118.352255,53.5285472 118.708929,53.9696959 C119.065602,54.4108446 119.231558,54.9760507 119.17,55.54 C119.178203,55.5623745 119.18161,55.5862237 119.18,55.61 L119.18,55.61 Z" id="Path"></path>
            <path d="M55.78,27.24 C56.5572448,27.611998 57.0337938,28.4156448 56.9873568,29.2760724 C56.9409197,30.1365 56.3806454,30.8841896 55.5678786,31.1703751 C54.7551118,31.4565606 53.8499812,31.2248586 53.2746928,30.5833484 C52.6994044,29.9418383 52.5672997,29.0169083 52.94,28.24 C53.456302,27.1887977 54.7189768,26.7441939 55.78,27.24 Z" id="Path"></path>
            <path d="M67.16,45.43 C65.3860114,42.4351203 63.902588,39.2774041 62.73,36 C62.3338663,35.125544 62.5389937,34.0958851 63.24,33.44 C63.9125059,32.8803043 64.8562277,32.7815886 65.63,33.19 C66.3163639,33.679945 66.7831335,34.4195955 66.93,35.25 C67.2426328,36.134141 67.5997551,37.0019148 68,37.85 C69.279932,40.6000502 70.722485,43.2714446 72.32,45.85 C74.282503,49.0216806 76.5176217,52.0163381 79,54.8 L79.19,54.95 C79.2821102,55.0521261 79.3688921,55.1589346 79.45,55.27 L79.45,55.27 C79.539312,55.4186784 79.6130362,55.5761799 79.67,55.74 C79.7572367,55.9699648 79.8013073,56.2140481 79.8000283,56.46 C79.8026603,57.0266418 79.5794252,57.5709882 79.179684,57.9726061 C78.7799428,58.374224 78.236648,58.6 77.67,58.6 C77.283405,58.5979341 76.9041153,58.4944915 76.57,58.3 C76.4263981,58.2231138 76.2949728,58.1253873 76.18,58.01 C76.0914684,57.9214414 76.0080025,57.8279596 75.93,57.73 C75.41,57.17 74.93,56.62 74.43,56 C71.700551,52.6973101 69.2677874,49.160266 67.16,45.43 L67.16,45.43 Z" id="Path"></path>
            <path d="M103.49,39.53 C103.154975,39.0652568 103.021293,38.4851455 103.119138,37.9206506 C103.216984,37.3561557 103.538107,36.8548773 104.01,36.53 L104.25,36.38 C105.65,35.67 106.7,36.79 107.75,37.57 C108.92669,38.4168869 110.155815,39.1884299 111.43,39.88 C112.581055,40.5106207 113.773829,41.0619031 115,41.53 L115.37,41.65 C115.427875,41.6664052 115.482151,41.693543 115.53,41.73 C116.609637,42.1662945 117.142269,43.3857613 116.728632,44.4742802 C116.314995,45.5627991 115.106925,46.1207992 114.01,45.73 C113.902719,45.7104428 113.798487,45.6768194 113.7,45.63 L113.49,45.53 C111.099365,44.6163237 108.821197,43.4319449 106.7,42 C106.17,41.64 105.59,41.28 105.11,40.89 C104.50582,40.5191291 103.959898,40.0608239 103.49,39.53 Z" id="Path"></path>
            <path d="M188,56.65 C188.102095,58.2625391 188.366771,59.8606466 188.79,61.42 C188.89999,61.7899826 188.689735,62.1791793 188.32,62.29 C188.253745,62.300481 188.186255,62.300481 188.12,62.29 L179.63,62.29 C179.335974,62.2881218 179.073527,62.1052041 178.97,61.83 C178.506718,60.3755933 178.214744,58.8720916 178.1,57.35 L177.55,49.76 C177.22,45.36 175.22,43.39 171.07,43.39 L159.11,43.39 C158.72565,43.3953763 158.415376,43.7056496 158.41,44.09 L158.41,61.59 C158.412671,61.773005 158.342525,61.9495738 158.214996,62.0808535 C158.087467,62.2121332 157.913006,62.287367 157.73,62.29 L149.13,62.29 C148.946995,62.2926715 148.770426,62.2225251 148.639146,62.0949963 C148.507867,61.9674674 148.432633,61.7930055 148.43,61.61 L148.43,8.71 C148.43,8.32340068 148.743401,8.01 149.13,8.01 L172.64,8.01 C183.34,8.01 191.56,15.84 191.56,25.9 C191.65646,31.9141775 188.176625,37.4127891 182.7,39.9 C182.535784,39.9850781 182.412597,40.1325194 182.358075,40.3092465 C182.303553,40.4859736 182.32226,40.6771908 182.41,40.84 C182.480189,40.9599436 182.580056,41.0598114 182.7,41.13 C185.56,42.71 187.02,45.13 187.37,48.74 L188,56.65 Z M171.51,35.17 C177.42,35.17 181.41,31.34 181.41,25.9 C181.41,20.46 177.41,16.56 171.51,16.56 L159.11,16.56 C158.729446,16.5652104 158.420685,16.86956 158.41,17.25 L158.41,34.47 C158.420476,34.8521758 158.727824,35.1595236 159.11,35.17 L171.51,35.17 Z" id="Shape"></path>
            <path d="M241.359926,76.8 L241.359926,23.41 C241.357329,23.226995 241.427475,23.0504262 241.555004,22.9191465 C241.682533,22.7878668 241.856994,22.712633 242.04,22.71 L249.68,22.71 C249.863005,22.7073285 250.039574,22.7774749 250.170854,22.9050037 C250.302133,23.0325326 250.377367,23.2069945 250.38,23.39 L250.38,26.31 C250.386363,26.6025489 250.574024,26.8602713 250.850491,26.9561429 C251.126958,27.0520145 251.433886,26.9658031 251.62,26.74 C254.13,23.68 258.36,21.83 263.3,21.83 C274.4,21.83 282.95,30.77 282.95,42.51 C282.95,54.25 274.45,63.2 263.3,63.2 C259.161563,63.3517999 255.13485,61.8390814 252.12,59 C251.843202,58.7254444 251.396798,58.7254444 251.12,59 C250.988393,59.1335176 250.913199,59.3125508 250.91,59.5 L250.91,76.8 C250.91,77.1865993 250.596599,77.5 250.21,77.5 L242,77.5 C241.637008,77.4687739 241.358659,77.1643306 241.359926,76.8 L241.359926,76.8 Z M273.31,42.51 C273.31,35.17 268.51,29.78 261.8,29.78 C255.09,29.78 250.31,35.08 250.31,42.51 C250.31,49.94 255.08,55.18 261.8,55.18 C268.52,55.18 273.31,49.87 273.31,42.51 Z" id="Shape"></path>
            <path d="M285.7,9.32 C285.938472,5.91802456 288.656588,3.2170038 292.06,3 C295.873841,2.82454432 299.111212,5.7667954 299.3,9.58 C299.315069,9.80641623 299.315069,10.0335838 299.3,10.26 C299.152559,13.7151396 296.38514,16.4825585 292.93,16.63 C291.089211,16.716752 289.289852,16.0656855 287.930778,14.8211187 C286.571704,13.576552 285.765185,11.8412976 285.69,10 C285.678772,9.77335299 285.682113,9.54621885 285.7,9.32 Z M287.82,22.71 L297.25,22.71 C297.290555,22.7096821 297.324932,22.7397617 297.33,22.78 L297.33,62.25 C297.324932,62.2902383 297.290555,62.3200025 297.25,62.3200025 L287.82,62.3200025 C287.779445,62.3200025 287.745068,62.2902383 287.74,62.25 L287.74,62.25 L287.74,22.78 C287.74,22.78 287.74,22.71 287.82,22.7 L287.82,22.7 L287.82,22.71 Z" id="Shape"></path>
            <path d="M335.12,61.72 C334.96,60.56 334.84,59.5 334.76,58.53 C334.728107,58.1510858 334.399554,57.8669314 334.02,57.89 C333.831265,57.8995945 333.656051,57.9908523 333.54,58.14 C330.66,61.59 326.54,63.26 321.54,63.26 C310.68,63.26 302.14,54.26 302.14,42.57 C302.14,30.88 310.68,21.88 321.54,21.88 C325.830803,21.6890937 329.99942,23.336898 333,26.4099999 C333.199068,26.6131734 333.501287,26.6756853 333.764622,26.5681568 C334.027957,26.4606284 334.200041,26.2044428 334.2,25.92 L334.2,7.11 C334.205376,6.72564964 334.51565,6.41537631 334.9,6.40999994 L343.09,6.40999994 C343.468922,6.40999994 343.779174,6.71123303 343.79,7.09 L343.79,47.63 C343.689791,52.2804892 343.920372,56.9322183 344.48,61.55 C344.527641,61.9325549 344.261307,62.2832281 343.88,62.34 L335.88,62.34 C335.696266,62.3623822 335.511347,62.3089002 335.367925,62.1918983 C335.224503,62.0748964 335.134973,61.9044858 335.12,61.72 Z M334.8,42.51 C334.8,35.17 330.01,29.78 323.3,29.78 C316.59,29.78 311.8,35.08 311.8,42.51 C311.8,49.94 316.65,55.18 323.3,55.18 C329.95,55.18 334.8,49.87 334.8,42.51 Z" id="Shape"></path>
            <path d="M353.08,8 L361.66,8 C362.046599,8 362.360074,8.31340068 362.360074,8.7 L362.360074,8.7 L362.360074,61.62 C362.362671,61.803005 362.292525,61.9795738 362.164996,62.1108535 C362.037467,62.2421332 361.863006,62.317367 361.68,62.3200736 L353.08,62.3200736 C352.896995,62.3226715 352.720426,62.2525251 352.589146,62.1249963 C352.457867,61.9974674 352.382633,61.8230055 352.38,61.64 L352.38,8.71 C352.38,8.32340068 352.693401,8.01 353.08,8.01 L353.08,8 Z" id="Path"></path>
            <path d="M372.26,8.71 C372.265376,8.32564964 372.57565,8.01537631 372.96,8.01 L392.07,8.01 C409.72,8.01 421.39,18.95 421.39,35.08 C421.39,51.38 409.71,62.32 392.07,62.32 L373,62.32 C372.613401,62.32 372.3,62.0065993 372.3,61.62 L372.3,61.62 L372.26,8.71 Z M392,53.78 C404.05,53.78 411.17,46.51 411.17,35.08 C411.17,23.65 404.05,16.5599999 392,16.5599999 L383,16.5599999 C382.621078,16.5599999 382.310826,16.861233 382.3,17.24 L382.3,17.24 L382.3,53.0599999 C382.3,53.4465993 382.613401,53.76 383,53.76 L383,53.76 L392,53.78 Z" id="Shape"></path>
            <circle id="Oval" cx="292.48" cy="9.67" r="6.84"></circle>
            <path d="M226.11,61.72 C225.95,60.56 225.84,59.5 225.75,58.53 C225.734866,58.3448163 225.645688,58.173562 225.502643,58.0549857 C225.359599,57.9364094 225.174778,57.8805332 224.99,57.9 C224.807413,57.9134665 224.63797,57.9999907 224.52,58.14 C221.65,61.59 217.52,63.26 212.52,63.26 C201.66,63.26 193.11,54.26 193.11,42.57 C193.11,30.88 201.66,21.88 212.52,21.88 C216.817654,21.6833129 220.994703,23.3315735 224,26.41 C224.131662,26.5443772 224.311872,26.6201021 224.5,26.6201021 C224.688128,26.6201021 224.868338,26.5443772 225,26.41 C225.133401,26.2776855 225.208916,26.0978879 225.21,25.91 L225.21,23.55 C225.204592,23.366213 225.27384,23.1880694 225.401956,23.0561857 C225.530071,22.924302 225.706133,22.8499205 225.89,22.85 L234,22.85 C234.386599,22.85 234.7,23.1634007 234.7,23.55 L234.7,23.55 L234.7,47.63 C234.609777,52.2803441 234.840324,56.9313751 235.39,61.55 C235.443623,61.930667 235.180228,62.2833486 234.8,62.34 L226.8,62.34 C226.444667,62.3418328 226.146044,62.0735054 226.11,61.72 L226.11,61.72 Z M225.8,42.51 C225.8,35.17 221.01,29.78 214.3,29.78 C207.59,29.78 202.79,35.08 202.79,42.51 C202.79,49.94 207.59,55.25 214.3,55.25 C221.01,55.25 225.8,49.87 225.8,42.51 Z" id="Shape"></path>
            <path d="M264.82,78.25 L259.05,78.25 L257.67,81.89 L255.74,81.89 L260.93,68.89 L263,68.89 L268.19,81.89 L266.24,81.89 L264.82,78.25 Z M259.7,76.57 L264.18,76.57 L261.92,70.73 L259.7,76.57 Z" id="Shape"></path>
            <path d="M271.49,81.89 L269.76,81.89 L269.76,73 L271.45,73 L271.45,74.27 C272.001824,73.2952957 273.050674,72.7091737 274.17,72.75 C276.28,72.75 277.33,74.27 277.33,76.24 L277.33,81.85 L275.6,81.85 L275.6,76.57 C275.6,75.34 275.09,74.35 273.54,74.35 C272.19,74.35 271.49,75.43 271.49,76.78 L271.49,81.89 Z" id="Path"></path>
            <path d="M339.94,75.36 C339.918319,73.555273 340.625674,71.8181279 341.901901,70.5419011 C343.178128,69.2656744 344.915273,68.5583192 346.72,68.58 C349.378553,68.3936729 351.791819,70.1300473 352.46,72.71 L350.79,73.3 C350.394226,71.4014157 348.654261,70.0889605 346.72,70.23 C344.35,70.23 342.09,71.96 342.09,75.36 C342.09,78.76 344.35,80.51 346.72,80.51 C348.668826,80.5704697 350.398184,79.2692947 350.88,77.38 L352.48,77.97 C351.779696,80.5442924 349.384852,82.2863751 346.72,82.16 C344.90673,82.198777 343.156515,81.4941427 341.875936,80.2097869 C340.595358,78.9254311 339.895882,77.1731476 339.94,75.36 L339.94,75.36 Z" id="Path"></path>
            <path d="M362.63,77.46 C362.536958,79.9320551 360.473957,81.8700569 358.000915,81.808604 C355.527873,81.7471512 353.563674,79.7090771 353.593527,77.2354518 C353.623381,74.7618266 355.636195,72.7717503 358.11,72.77 C359.344198,72.7517453 360.530772,73.2457906 361.38732,74.1345547 C362.243869,75.0233188 362.693789,76.2273166 362.63,77.46 L362.63,77.46 Z M360.87,77.46 C360.99849,76.3946111 360.502319,75.3504022 359.595183,74.7771059 C358.688048,74.2038096 357.531952,74.2038096 356.624817,74.7771059 C355.717681,75.3504022 355.22151,76.3946111 355.35,77.46 C355.35,79.51 356.64,80.62 358.11,80.62 C359.58,80.62 360.87,79.51 360.87,77.46 Z" id="Shape"></path>
            <path d="M364.84,81.89 L364.84,73 L366.5,73 L366.5,74.18 C367.068159,73.2528642 368.093525,72.705747 369.18,72.75 C370.323487,72.7058438 371.376421,73.3693909 371.83,74.42 C372.415868,73.32308 373.589,72.6700366 374.83,72.75 C375.69214,72.7437672 376.515287,73.1087552 377.089501,73.7518743 C377.663714,74.3949934 377.933482,75.2540708 377.83,76.11 L377.83,81.85 L376.12,81.85 L376.12,76.33 C376.186723,75.8031951 376.014761,75.2741101 375.651065,74.887199 C375.287368,74.5002878 374.769921,74.2959591 374.24,74.33 C373.674374,74.3474227 373.140541,74.5956535 372.762709,75.0169363 C372.384877,75.4382191 372.195991,75.9958196 372.24,76.56 L372.24,81.91 L370.52,81.91 L370.52,76.33 C370.583026,75.8039849 370.409805,75.2770723 370.046956,74.8910618 C369.684106,74.5050513 369.168905,74.2996008 368.64,74.33 C368.059992,74.3246716 367.504873,74.5652994 367.112241,74.9922395 C366.719609,75.4191796 366.526216,75.9924661 366.58,76.57 L366.58,81.91 L364.84,81.89 Z" id="Path"></path>
            <path d="M380.61,85.38 L380.61,73 L382.28,73 L382.28,74.38 C382.905905,73.333819 384.063234,72.7242923 385.28,72.8 C387.92,72.8 389.34,74.8 389.34,77.42 C389.34,80.04 387.81,82.09 385.22,82.09 C384.080793,82.1415315 382.997025,81.5958578 382.36,80.65 L382.36,85.34 L380.61,85.38 Z M384.93,74.38 C383.34,74.38 382.3,75.7 382.3,77.47 C382.3,79.24 383.3,80.59 384.93,80.59 C386.56,80.59 387.54,79.29 387.54,77.47 C387.54,75.65 386.54,74.37 384.93,74.37 L384.93,74.38 Z" id="Shape"></path>
            <path d="M393.64,76.83 L396.03,76.48 C396.57,76.41 396.71,76.13 396.71,75.82 C396.71,74.96 396.14,74.24 394.8,74.24 C394.297207,74.204434 393.801348,74.3733488 393.424825,74.7084546 C393.048301,75.0435603 392.823003,75.5164758 392.8,76.02 L391.14,75.64 C391.416409,73.8830822 392.996706,72.633646 394.77,72.77 C397.41,72.77 398.44,74.28 398.44,76 L398.44,80.43 C398.437565,80.9188252 398.47435,81.4070579 398.55,81.89 L396.86,81.89 C396.791961,81.4937657 396.761824,81.0919504 396.77,80.69 C396.148908,81.6518434 395.063784,82.2115391 393.92,82.16 C393.166157,82.2262954 392.41816,81.9801538 391.850994,81.4791575 C391.283829,80.9781612 390.947251,80.2662615 390.92,79.51 C391,77.93 392.12,77.05 393.64,76.83 Z M396.71,78.1 L396.71,77.69 L394.01,78.1 C393.294992,78.1214958 392.725055,78.7046869 392.72,79.42 C392.735346,79.7836717 392.896898,80.1257365 393.168014,80.3686118 C393.439131,80.611487 393.796836,80.73459 394.16,80.71 C394.867887,80.7867084 395.571795,80.5341072 396.069389,80.0248051 C396.566983,79.515503 396.803148,78.8059121 396.71,78.1 Z" id="Shape"></path>
            <path d="M402.86,81.89 L401.13,81.89 L401.13,73 L402.82,73 L402.82,74.27 C403.371824,73.2952957 404.420674,72.7091737 405.54,72.75 C407.66,72.75 408.7,74.27 408.7,76.24 L408.7,81.85 L407,81.85 L407,76.57 C407,75.34 406.48,74.35 404.94,74.35 C403.58,74.35 402.88,75.43 402.88,76.78 L402.86,81.89 Z" id="Path"></path>
            <polygon id="Path" points="411.78 85.58 414 80.91 410.18 73 412.18 73 414.93 79.11 417.57 73 419.43 73 413.67 85.54"></polygon>
            <path d="M335.7,70.77 L335.7,69.37 L327.15,69.37 L327.15,81.88 L328.54,81.88 L328.54,76.32 L335.11,76.32 L335.11,74.93 L328.54,74.93 L328.54,70.77 L335.7,70.77 Z M323.02,70.77 L323.02,69.37 L314.47,69.37 L314.47,81.88 L323,81.88 L323,80.49 L315.85,80.49 L315.85,76.32 L322.41,76.32 L322.41,74.93 L315.85,74.93 L315.85,70.77 L323.02,70.77 Z M309.48,81.88 L311.29,81.88 L306.69,76.32 L306.88,76.32 C308.165978,76.3890101 309.384933,75.7421852 310.048674,74.6385774 C310.712416,73.5349696 310.712416,72.1550304 310.048674,71.0514226 C309.384933,69.9478148 308.165978,69.3009899 306.88,69.37 L301.1,69.37 L301.1,81.88 L302.49,81.88 L302.49,76.32 L304.89,76.32 L309.48,81.88 Z M302.48,70.77 L306.87,70.77 C308.018752,70.77 308.95,71.7012478 308.95,72.85 C308.95,73.9987522 308.018752,74.93 306.87,74.93 L302.48,74.93 L302.48,70.77 Z" id="Shape" stroke="#FFFFFF" stroke-width="0.25"></path>
            <path d="M284.86,70.34 L286.01,69.34 L291.18,75.6 L286,81.88 L284.85,80.88 L289.22,75.59 L284.86,70.34 Z M297.63,70.34 L296.48,69.34 L291.31,75.6 L296.48,81.85 L297.63,80.85 L293.26,75.56 L297.63,70.27 L297.63,70.34 Z" id="Shape" stroke="#FFFFFF" stroke-width="0.25"></path>
        </g>
    </g>
</svg>