<?xml version="1.0" encoding="UTF-8"?>
<svg width="192px" height="183px" viewBox="0 0 192 183" version="1.1" xmlns="http://www.w3.org/2000/svg" xmlns:xlink="http://www.w3.org/1999/xlink">
    <!-- Generator: Sketch 52.4 (67378) - http://www.bohemiancoding.com/sketch -->
    <title>Group 45</title>
    <desc>Created with Sketch.</desc>
    <g id="About-Us" stroke="none" stroke-width="1" fill="none" fill-rule="evenodd">
        <g transform="translate(-1474.000000, -998.000000)" id="Group-45">
            <g transform="translate(1474.000000, 998.000000)">
                <path d="M1.32312036,121.635407 C-14.3294006,170.467119 114.890856,119.723845 73.3247168,154.653291 C31.7585778,189.582736 110.890767,189.408958 147.413316,169.424449 C183.935865,149.439941 218.545328,101.824677 162.544086,105.821578 C106.542845,109.81848 145.848064,64.636113 111.412518,59.7703196 C76.9769717,54.9045262 16.9756413,72.8036947 1.32312036,121.635407 Z" id="Path-5-Copy-2" fill="#F3F5FF"></path>
                <g id="Group-159" transform="translate(72.000000, 0.000000)">
                    <rect id="Rectangle-62" fill="#0053A6" x="0.737327189" y="61.9354839" width="36.4976959" height="98.0645161"></rect>
                    <rect id="Rectangle-62" fill="#0053A6" x="6.26728111" y="61.9354839" width="25.437788" height="98.0645161"></rect>
                    <rect id="Rectangle-62" fill="#182F79" transform="translate(4.792627, 110.967742) scale(-1, 1) translate(-4.792627, -110.967742) " x="3.31797235" y="61.9354839" width="2.94930876" height="98.0645161"></rect>
                    <rect id="Rectangle-62" fill="#182F79" transform="translate(33.179724, 110.967742) scale(-1, 1) translate(-33.179724, -110.967742) " x="31.7050691" y="61.9354839" width="2.94930876" height="98.0645161"></rect>
                    <rect id="Rectangle-62" fill="#0053A6" transform="translate(18.986175, 55.483871) scale(1, -1) translate(-18.986175, -55.483871) " x="3.68663594" y="49.0322581" width="30.5990783" height="12.9032258"></rect>
                    <rect id="Rectangle-62" fill="#182F79" transform="translate(5.898618, 55.483871) scale(1, -1) translate(-5.898618, -55.483871) " x="5.52995392" y="49.0322581" width="1" height="12.9032258"></rect>
                    <polygon id="Rectangle-62" fill="#182F79" transform="translate(32.073733, 55.483871) scale(1, -1) translate(-32.073733, -55.483871) " points="31.7050691 49.0322581 32.4423963 49.0322581 32.4423963 61.9354839 31.7050691 61.9354839"></polygon>
                    <polygon id="Rectangle-62" fill="#182F79" points="9.58525346 36.1290323 28.3870968 36.1290323 34.2857143 49.0322581 3.68663594 49.0322581"></polygon>
                    <rect id="Rectangle-62" fill="#0053A6" x="9.58525346" y="24.7753456" width="18.8018433" height="11.3536866"></rect>
                    <polygon id="Rectangle-62" fill="#182F79" transform="translate(18.986175, 23.778802) scale(1, -1) translate(-18.986175, -23.778802) " points="9.58525346 24.7753456 28.3870968 24.7753456 28.3870968 22.7822581 9.58525346 22.7822581"></polygon>
                    <polygon id="Rectangle-62" fill="#0053A6" points="9.58525346 22.7822581 28.3870968 22.7822581 18.9861751 0.218894009"></polygon>
                    <path d="M13.8248848,26.5437788 L13.8248848,26.5437788 C14.333903,26.5437788 14.7465438,26.9564196 14.7465438,27.4654378 L14.7465438,35.0230415 L12.9032258,35.0230415 L12.9032258,27.4654378 C12.9032258,26.9564196 13.3158666,26.5437788 13.8248848,26.5437788 Z" id="Rectangle-64" fill="#182F79"></path>
                    <path d="M17.1428571,26.5437788 L17.1428571,26.5437788 C17.6518753,26.5437788 18.0645161,26.9564196 18.0645161,27.4654378 L18.0645161,35.0230415 L16.2211982,35.0230415 L16.2211982,27.4654378 C16.2211982,26.9564196 16.6338389,26.5437788 17.1428571,26.5437788 Z" id="Rectangle-64" fill="#182F79"></path>
                    <path d="M20.4608295,26.5437788 L20.4608295,26.5437788 C20.9698477,26.5437788 21.3824885,26.9564196 21.3824885,27.4654378 L21.3824885,35.0230415 L19.5391705,35.0230415 L19.5391705,27.4654378 C19.5391705,26.9564196 19.9518113,26.5437788 20.4608295,26.5437788 Z" id="Rectangle-64" fill="#182F79"></path>
                    <path d="M23.7788018,26.5437788 L23.7788018,26.5437788 C24.28782,26.5437788 24.7004608,26.9564196 24.7004608,27.4654378 L24.7004608,35.0230415 L22.8571429,35.0230415 L22.8571429,27.4654378 C22.8571429,26.9564196 23.2697836,26.5437788 23.7788018,26.5437788 Z" id="Rectangle-64" fill="#182F79"></path>
                    <path d="M12.5345622,42.0276498 L12.5345622,42.0276498 C13.3489913,42.0276498 14.0092166,42.687875 14.0092166,43.5023041 L14.0092166,46.0829493 L11.0599078,46.0829493 L11.0599078,43.5023041 C11.0599078,42.687875 11.7201331,42.0276498 12.5345622,42.0276498 Z" id="Rectangle-64" fill="#0053A6"></path>
                    <path d="M12.5345622,52.3502304 L12.5345622,52.3502304 C13.3489913,52.3502304 14.0092166,53.0104557 14.0092166,53.8248848 L14.0092166,60.0921659 L11.0599078,60.0921659 L11.0599078,53.8248848 C11.0599078,53.0104557 11.7201331,52.3502304 12.5345622,52.3502304 Z" id="Rectangle-64" fill="#182F79"></path>
                    <path d="M16.9585253,52.3502304 L16.9585253,52.3502304 C17.7729545,52.3502304 18.4331797,53.0104557 18.4331797,53.8248848 L18.4331797,60.0921659 L15.483871,60.0921659 L15.483871,53.8248848 C15.483871,53.0104557 16.1440962,52.3502304 16.9585253,52.3502304 Z" id="Rectangle-64" fill="#182F79"></path>
                    <path d="M21.3824885,52.3502304 L21.3824885,52.3502304 C22.1969176,52.3502304 22.8571429,53.0104557 22.8571429,53.8248848 L22.8571429,60.0921659 L19.9078341,60.0921659 L19.9078341,53.8248848 C19.9078341,53.0104557 20.5680594,52.3502304 21.3824885,52.3502304 Z" id="Rectangle-64" fill="#182F79"></path>
                    <path d="M25.8064516,52.3502304 L25.8064516,52.3502304 C26.6208807,52.3502304 27.281106,53.0104557 27.281106,53.8248848 L27.281106,60.0921659 L24.3317972,60.0921659 L24.3317972,53.8248848 C24.3317972,53.0104557 24.9920225,52.3502304 25.8064516,52.3502304 Z" id="Rectangle-64" fill="#182F79"></path>
                    <path d="M10.6912442,103.225806 L10.6912442,103.225806 C11.7092806,103.225806 12.5345622,104.051088 12.5345622,105.069124 L12.5345622,129.400922 L8.84792627,129.400922 L8.84792627,105.069124 C8.84792627,104.051088 9.67320783,103.225806 10.6912442,103.225806 Z" id="Rectangle-64" fill="#182F79"></path>
                    <path d="M16.2211982,103.225806 L16.2211982,103.225806 C17.2392346,103.225806 18.0645161,104.051088 18.0645161,105.069124 L18.0645161,129.400922 L14.3778802,129.400922 L14.3778802,105.069124 C14.3778802,104.051088 15.2031618,103.225806 16.2211982,103.225806 Z" id="Rectangle-64" fill="#182F79"></path>
                    <path d="M21.7511521,103.225806 L21.7511521,103.225806 C22.7691885,103.225806 23.59447,104.051088 23.59447,105.069124 L23.59447,129.400922 L19.9078341,129.400922 L19.9078341,105.069124 C19.9078341,104.051088 20.7331157,103.225806 21.7511521,103.225806 Z" id="Rectangle-64" fill="#182F79"></path>
                    <path d="M27.281106,103.225806 L27.281106,103.225806 C28.2991424,103.225806 29.124424,104.051088 29.124424,105.069124 L29.124424,129.400922 L25.437788,129.400922 L25.437788,105.069124 C25.437788,104.051088 26.2630696,103.225806 27.281106,103.225806 Z" id="Rectangle-64" fill="#182F79"></path>
                    <path d="M10.6912442,138.248848 L10.6912442,138.248848 C11.7092806,138.248848 12.5345622,139.074129 12.5345622,140.092166 L12.5345622,160 L8.84792627,160 L8.84792627,140.092166 C8.84792627,139.074129 9.67320783,138.248848 10.6912442,138.248848 Z" id="Rectangle-64" fill="#182F79"></path>
                    <path d="M16.2211982,138.248848 L16.2211982,138.248848 C17.2392346,138.248848 18.0645161,139.074129 18.0645161,140.092166 L18.0645161,160 L14.3778802,160 L14.3778802,140.092166 C14.3778802,139.074129 15.2031618,138.248848 16.2211982,138.248848 Z" id="Rectangle-64" fill="#182F79"></path>
                    <path d="M21.7511521,138.248848 L21.7511521,138.248848 C22.7691885,138.248848 23.59447,139.074129 23.59447,140.092166 L23.59447,160 L19.9078341,160 L19.9078341,140.092166 C19.9078341,139.074129 20.7331157,138.248848 21.7511521,138.248848 Z" id="Rectangle-64" fill="#182F79"></path>
                    <path d="M27.281106,138.248848 L27.281106,138.248848 C28.2991424,138.248848 29.124424,139.074129 29.124424,140.092166 L29.124424,160 L25.437788,160 L25.437788,140.092166 C25.437788,139.074129 26.2630696,138.248848 27.281106,138.248848 Z" id="Rectangle-64" fill="#182F79"></path>
                    <circle id="Oval-27" fill="#182F79" cx="18.6175115" cy="80.921659" r="10.5069124"></circle>
                    <circle id="Oval-27" fill="#1F7BD7" cx="18.6175115" cy="80.921659" r="9.03225806"></circle>
                    <circle id="Oval-27" fill="#182F79" cx="18.6175115" cy="80.921659" r="1"></circle>
                    <rect id="Rectangle-65" fill="#182F79" x="0" y="65.9907834" width="37.9723502" height="1.10599078"></rect>
                    <rect id="Rectangle-65" fill="#1F7BD7" transform="translate(18.986175, 67.649770) scale(1, -1) translate(-18.986175, -67.649770) " x="0" y="67.0967742" width="37.9723502" height="1.10599078"></rect>
                    <rect id="Rectangle-65" fill="#182F79" x="0" y="93.640553" width="37.9723502" height="1.10599078"></rect>
                    <rect id="Rectangle-65" fill="#1F7BD7" transform="translate(18.986175, 95.299539) scale(1, -1) translate(-18.986175, -95.299539) " x="0" y="94.7465438" width="37.9723502" height="1.10599078"></rect>
                    <rect id="Rectangle-65" fill="#182F79" x="0" y="97.6958525" width="37.9723502" height="1.10599078"></rect>
                    <rect id="Rectangle-65" fill="#1F7BD7" transform="translate(18.986175, 99.354839) scale(1, -1) translate(-18.986175, -99.354839) " x="0" y="98.8018433" width="37.9723502" height="1.10599078"></rect>
                    <rect id="Rectangle-65" fill="#182F79" x="0" y="129.032258" width="37.9723502" height="1.10599078"></rect>
                    <rect id="Rectangle-65" fill="#1F7BD7" transform="translate(18.986175, 130.691244) scale(1, -1) translate(-18.986175, -130.691244) " x="0" y="130.138249" width="37.9723502" height="1.10599078"></rect>
                    <rect id="Rectangle-65" fill="#182F79" x="0" y="133.456221" width="37.9723502" height="1.10599078"></rect>
                    <rect id="Rectangle-65" fill="#1F7BD7" transform="translate(18.986175, 135.115207) scale(1, -1) translate(-18.986175, -135.115207) " x="0" y="134.562212" width="37.9723502" height="1.10599078"></rect>
                    <path d="M23.9631336,42.0276498 L23.9631336,42.0276498 C24.7775628,42.0276498 25.437788,42.687875 25.437788,43.5023041 L25.437788,46.0829493 L22.4884793,46.0829493 L22.4884793,43.5023041 C22.4884793,42.687875 23.1487045,42.0276498 23.9631336,42.0276498 Z" id="Rectangle-64" fill="#0053A6"></path>
                    <path d="M18.0645161,40.5529954 L18.0645161,40.5529954 C18.8789453,40.5529954 19.5391705,41.2132206 19.5391705,42.0276498 L19.5391705,44.6082949 L16.5898618,44.6082949 L16.5898618,42.0276498 C16.5898618,41.2132206 17.250087,40.5529954 18.0645161,40.5529954 Z" id="Rectangle-64" fill="#0053A6"></path>
                    <polygon id="Path-197" fill="#182F79" points="15.483871 78.9768145 18.6621544 80.6069088 25.5195132 78.6006804 18.6621544 81.2789819"></polygon>
                    <path d="M18.6288522,72.8163702 L18.6288522,75.0990063" id="Path-211" stroke="#182F79"></path>
                    <path d="M18.6831797,86.6359447 L18.6831797,88.9185808" id="Path-211" stroke="#182F79"></path>
                    <path d="M11.6535408,79.7690002 L11.6535408,82.0516363" id="Path-211" stroke="#182F79" transform="translate(11.653541, 80.910318) rotate(-90.000000) translate(-11.653541, -80.910318) "></path>
                    <path d="M25.7046821,79.9462396 L25.7046821,82.2288756" id="Path-211" stroke="#182F79" transform="translate(25.504682, 81.087558) rotate(-90.000000) translate(-25.504682, -81.087558) "></path>
                    <path d="M15.1257048,85.8056461 L15.1257048,88.0882822" id="Path-211" stroke="#182F79" transform="translate(15.125705, 86.946964) rotate(-150.000000) translate(-15.125705, -86.946964) "></path>
                    <path d="M22.4205526,73.9261632 L22.4205526,76.2087993" id="Path-211" stroke="#182F79" transform="translate(22.220553, 75.067481) rotate(-150.000000) translate(-22.220553, -75.067481) "></path>
                    <path d="M22.1093182,85.8056461 L22.1093182,88.0882822" id="Path-211" stroke="#182F79" transform="translate(22.109318, 86.946964) scale(-1, 1) rotate(-150.000000) translate(-22.109318, -86.946964) "></path>
                    <path d="M15.277604,73.9261632 L15.277604,76.2087993" id="Path-211" stroke="#182F79" transform="translate(15.077604, 75.067481) scale(-1, 1) rotate(-150.000000) translate(-15.077604, -75.067481) "></path>
                    <path d="M24.6541574,83.2525049 L24.6541574,85.535141" id="Path-211" stroke="#182F79" transform="translate(24.654157, 84.393823) scale(-1, 1) rotate(-120.000000) translate(-24.654157, -84.393823) "></path>
                    <path d="M12.829002,76.4962115 L12.829002,78.7788476" id="Path-211" stroke="#182F79" transform="translate(12.629002, 77.637530) scale(-1, 1) rotate(-120.000000) translate(-12.629002, -77.637530) "></path>
                    <path d="M12.5808656,83.2525049 L12.5808656,85.535141" id="Path-211" stroke="#182F79" transform="translate(12.580866, 84.393823) rotate(-120.000000) translate(-12.580866, -84.393823) "></path>
                    <path d="M24.8691547,76.4962115 L24.8691547,78.7788476" id="Path-211" stroke="#182F79" transform="translate(24.669155, 77.637530) rotate(-120.000000) translate(-24.669155, -77.637530) "></path>
                </g>
            </g>
        </g>
    </g>
</svg>