<?xml version="1.0" encoding="UTF-8"?>
<svg width="414px" height="443px" viewBox="0 0 414 443" version="1.1" xmlns="http://www.w3.org/2000/svg" xmlns:xlink="http://www.w3.org/1999/xlink">
    <!-- Generator: Sketch 52.6 (67491) - http://www.bohemiancoding.com/sketch -->
    <title>Group 55</title>
    <desc>Created with Sketch.</desc>
    <defs>
        <linearGradient x1="0%" y1="30.4176372%" x2="100%" y2="126.728645%" id="linearGradient-1">
            <stop stop-color="#2590E0" offset="0%"></stop>
            <stop stop-color="#42FBFE" offset="100%"></stop>
        </linearGradient>
        <linearGradient x1="49.6401001%" y1="1.36896404%" x2="50%" y2="100%" id="linearGradient-2">
            <stop stop-color="#F2FDFF" offset="0%"></stop>
            <stop stop-color="#C9F8FF" offset="100%"></stop>
        </linearGradient>
        <linearGradient x1="188.07423%" y1="-81.9991646%" x2="-11.9566015%" y2="175.479929%" id="linearGradient-3">
            <stop stop-color="#38D3CA" offset="0%"></stop>
            <stop stop-color="#3855C0" offset="100%"></stop>
        </linearGradient>
        <linearGradient x1="58.25467%" y1="80.3805168%" x2="13.334881%" y2="0%" id="linearGradient-4">
            <stop stop-color="#FFBA80" offset="0%"></stop>
            <stop stop-color="#DA9361" offset="100%"></stop>
        </linearGradient>
        <linearGradient x1="64.7852242%" y1="-50.4413316%" x2="64.7852242%" y2="50%" id="linearGradient-5">
            <stop stop-color="#1183A8" offset="0%"></stop>
            <stop stop-color="#064261" offset="100%"></stop>
        </linearGradient>
        <linearGradient x1="8.65425985%" y1="66.9609554%" x2="100%" y2="22.1572887%" id="linearGradient-6">
            <stop stop-color="#FFBA80" offset="0%"></stop>
            <stop stop-color="#E3A880" offset="100%"></stop>
        </linearGradient>
        <linearGradient x1="100%" y1="36.2070126%" x2="-51.6731553%" y2="109.846215%" id="linearGradient-7">
            <stop stop-color="#2590E0" offset="0%"></stop>
            <stop stop-color="#35CAF1" offset="100%"></stop>
        </linearGradient>
        <linearGradient x1="58.25467%" y1="80.3805168%" x2="11.653331%" y2="50%" id="linearGradient-8">
            <stop stop-color="#FFBA80" offset="0%"></stop>
            <stop stop-color="#DA9361" offset="100%"></stop>
        </linearGradient>
        <linearGradient x1="31.0689987%" y1="100%" x2="42.8917196%" y2="-7.10630533%" id="linearGradient-9">
            <stop stop-color="#F8B681" offset="0%"></stop>
            <stop stop-color="#E3A880" offset="100%"></stop>
        </linearGradient>
        <linearGradient x1="-50.2245618%" y1="27.6417417%" x2="94.6652407%" y2="45.801162%" id="linearGradient-10">
            <stop stop-color="#2590E0" offset="0%"></stop>
            <stop stop-color="#42FBFE" stop-opacity="0" offset="100%"></stop>
        </linearGradient>
        <linearGradient x1="145.392093%" y1="-47.1373036%" x2="57.0089936%" y2="61.2048856%" id="linearGradient-11">
            <stop stop-color="#1183A8" offset="0%"></stop>
            <stop stop-color="#064261" offset="100%"></stop>
        </linearGradient>
        <linearGradient x1="72.9566546%" y1="85.0301713%" x2="37.2963481%" y2="-3.08763078%" id="linearGradient-12">
            <stop stop-color="#36CEF2" offset="0%"></stop>
            <stop stop-color="#29A1E5" offset="100%"></stop>
        </linearGradient>
    </defs>
    <g id="Industries" stroke="none" stroke-width="1" fill="none" fill-rule="evenodd">
        <g id="Industry-Template-Copy" transform="translate(-664.000000, -1356.000000)">
            <g id="Group-55" transform="translate(0.000000, 1199.000000)">
                <g transform="translate(663.500000, 156.089580)" id="Group-54">
                    <g transform="translate(0.500000, 0.910420)">
                        <g id="Group-52" transform="translate(0.169292, 0.000000)">
                            <g id="Group-51" transform="translate(0.000000, 22.335042)">
                                <path d="M0.564864064,0.130187126 L34.4567079,0.130187126 L34.4567079,33.9516954 L0.564864064,33.9516954 L0.564864064,0.130187126 Z M162.115986,0.130187126 L196.00783,0.130187126 L196.00783,33.9516954 L162.115986,33.9516954 L162.115986,0.130187126 Z M0.564864064,161.346043 L34.4567079,161.346043 L34.4567079,195.167552 L0.564864064,195.167552 L0.564864064,161.346043 Z M162.115986,161.346043 L196.00783,161.346043 L196.00783,195.167552 L162.115986,195.167552 L162.115986,161.346043 Z" id="Combined-Shape" fill="url(#linearGradient-1)"></path>
                                <polygon id="Rectangle" fill="url(#linearGradient-2)" points="5.08377658 4.63972157 191.488918 4.63972157 191.488918 190.658017 5.08377658 190.658017"></polygon>
                            </g>
                            <g id="Group-2" transform="translate(5.999031, 90.108246)">
                                <path d="M147.354927,38.5007576 L185.111023,43.9459207 L185.111023,88.4302841 L173.97953,88.4302841 C168.889434,88.4302841 164.611516,92.2537647 164.042263,97.3119294 L161.200732,122.560672 L0.122888642,122.560672 L0.122888642,66.8255806 L5.60942224,57.5441195 C9.16086505,51.5362135 14.7452585,46.9911906 21.3568323,44.7276266 L65.4130309,30.7717592 L119.820881,30.7717592 L141.689008,37.2587041 C143.545101,37.809294 145.438718,38.224403 147.354927,38.5007576 Z" id="Combined-Shape" fill="url(#linearGradient-1)"></path>
                                <path d="M0.122888642,122.560672 L0.122888642,66.8255806 L5.60942224,57.5441195 C9.16086505,51.5362135 14.7452585,46.9911906 21.3568323,44.7276266 L65.4130309,30.7717592 L92.616956,55.671153 L92.616956,122.560672 L0.122888642,122.560672 Z" id="Combined-Shape" fill="url(#linearGradient-3)" style="mix-blend-mode: multiply;" opacity="0.100000001"></path>
                                <path d="M69.4226406,0.381973651 L114.491242,0.381973651 L114.491242,22.8771753 C114.491242,26.3577368 117.679925,29.5087939 124.057289,32.3303465 L91.9569414,62.0885418 L59.8565935,32.3303465 C66.2339582,29.5087939 69.4226406,26.3577368 69.4226406,22.8771753 L69.4226406,0.381973651 Z" id="Combined-Shape" fill="url(#linearGradient-4)"></path>
                            </g>
                            <path d="M121.90101,95.8276069 L75.2365483,95.8276069 C72.9258696,95.8276069 70.9874294,94.0880632 70.7429918,91.7951183 L63.8296392,69.3340921 L61.0053189,35.5125837 L62.448238,26.1530734 C63.5999434,18.6825243 66.1903694,12.8818171 73.7060403,11.9443079 L85.8593377,9.58276069 C91.5079784,9.58276069 98.4746351,6.5764044 106.759308,0.563691805 L107.999073,2.41947977 C111.516349,7.68444413 117.148461,11.1605556 123.431518,11.9443079 C130.947189,12.8818171 133.537615,18.6825243 134.68932,26.1530734 L136.132239,35.5125837 L133.307919,69.3340921 L126.394567,91.7951183 C126.150129,94.0880632 124.211689,95.8276069 121.90101,95.8276069 Z" id="Combined-Shape" fill="url(#linearGradient-5)"></path>
                            <path d="M98.2863471,118.938971 L98.2863471,118.938971 C93.7436419,118.938971 89.383458,117.151031 86.1485553,113.96174 L76.1058237,104.060611 C74.0015688,101.986026 72.440421,99.4252955 71.5601978,96.6044802 L67.4480313,83.4263872 C62.2778156,81.0463551 59.6927077,77.1005125 59.6927077,71.5888593 C59.6927077,63.3213795 62.2778156,62.0060986 67.4480313,60.878715 L67.4480313,62.3317968 C67.4480313,64.5934627 67.2330726,66.7054895 68.7560284,67.960036 L70.4240627,69.3340921 L70.4240627,54.1144133 L73.4000941,51.2959543 L72.0315076,45.6590362 L74.5620564,39.4584264 L76.5502451,39.9029722 C90.8655904,43.1037883 105.709829,43.1160227 120.030431,39.9388078 L122.195645,39.4584264 L124.541187,45.6590362 L123.1726,51.2959543 L126.148632,54.1144133 L126.148632,69.3340921 L127.816666,67.960036 C129.339622,66.7054895 129.124663,64.5934627 129.124663,62.3317968 L129.124663,60.878715 C134.294879,62.0060986 136.879987,63.3213795 136.879987,71.5888593 C136.879987,77.1005125 134.294879,81.0463551 129.124663,83.4263872 L125.012496,96.6044802 C124.132273,99.4252955 122.571125,101.986026 120.466871,104.060611 L110.424139,113.96174 C107.189236,117.151031 102.829052,118.938971 98.2863471,118.938971 Z" id="Combined-Shape" fill="url(#linearGradient-6)"></path>
                            <polygon id="Path-58" fill="#06486B" points="104.110685 64.3073415 103.087692 60.1937639 112.077975 58.1374313 120.93077 60.8506719 120.5439 62.7758136 112.571895 62.0967245"></polygon>
                            <polygon id="Path-58" fill="#06486B" transform="translate(85.128327, 61.222386) scale(-1, 1) translate(-85.128327, -61.222386) " points="77.2297817 64.3073415 76.2067882 60.1937639 85.1970713 58.1374313 94.0498666 60.8506719 93.6629966 62.7758136 85.6909918 62.0967245"></polygon>
                            <path d="M113.598932,65.2178956 C114.039964,65.6920927 114.309628,66.3272329 114.309628,67.0252257 C114.309628,68.4928696 113.117393,69.6826301 111.646697,69.6826301 C110.176001,69.6826301 108.983766,68.4928696 108.983766,67.0252257 C108.983766,66.5392102 109.11451,66.0836682 109.342813,65.6917145 C107.883387,65.8451292 106.664039,65.7589637 105.68477,65.4332181 C108.347701,63.2187143 112.564008,62.997264 118.333692,64.7688669 C117.967368,65.4999931 117.132594,65.8687728 116.343945,65.6478811 C115.42894,65.3916055 114.513935,65.2482765 113.598932,65.2178956 Z" id="Combined-Shape" fill="#06486B"></path>
                            <path d="M86.7180281,65.2178956 C87.1590606,65.6920927 87.4287241,66.3272329 87.4287241,67.0252257 C87.4287241,68.4928696 86.2364894,69.6826301 84.7657933,69.6826301 C83.2950972,69.6826301 82.1028625,68.4928696 82.1028625,67.0252257 C82.1028625,66.5392102 82.2336061,66.0836682 82.4619095,65.6917145 C81.0024835,65.8451292 79.7831359,65.7589637 78.8038667,65.4332181 C81.4667975,63.2187143 85.6831047,62.997264 91.4527881,64.7688669 C91.0864648,65.4999931 90.2516907,65.8687728 89.4630415,65.6478811 C88.5480362,65.3916055 87.6330319,65.2482765 86.7180281,65.2178956 Z" id="Combined-Shape" fill="#06486B" transform="translate(85.128327, 66.635214) scale(-1, 1) translate(-85.128327, -66.635214) "></path>
                            <path d="M98.8512112,65.9519412 C99.6043633,75.3468046 99.9809393,82.1111063 99.9809393,86.2448462" id="Path-57" stroke="#DA9B6F" stroke-linecap="round" stroke-linejoin="round"></path>
                            <polyline id="Path-61" stroke="#DA9B6F" stroke-linecap="round" stroke-linejoin="round" points="93.7674346 86.2448462 97.7214831 89.626997 102.240396 89.626997 106.194444 86.2448462"></polyline>
                            <path d="M96.3093229,98.0353998 C102.33454,98.4111943 106.853452,96.5322217 109.86606,92.3984818" id="Path-63" stroke="#D96E4F" stroke-width="2" stroke-linejoin="round"></path>
                            <rect id="Rectangle-15" fill="url(#linearGradient-3)" style="mix-blend-mode: multiply;" opacity="0.100000001" x="128.789007" y="181.508761" width="30.5026595" height="5.63691805"></rect>
                        </g>
                        <g id="Group-56" transform="translate(42.014415, 92.796518)">
                            <path d="M201.601991,117.543621 L98.7555438,158.977012 C92.0097254,174.334825 94.6042709,186.674222 106.53918,195.995202 C118.47409,205.316182 150.161693,198.843279 201.601991,176.576494 L201.601991,117.543621 Z" id="Path-2" fill="url(#linearGradient-7)"></path>
                            <path d="M201.601991,161.941551 L201.601991,176.576494 C173.196843,188.872133 150.814704,196.351887 134.455574,199.015757 C154.013379,189.27922 172.836297,175.145235 190.924328,156.6138 L201.601991,161.941551 Z" id="Combined-Shape" fill="url(#linearGradient-3)" style="mix-blend-mode: multiply;" opacity="0.200000003"></path>
                            <path d="M105.586626,123.249225 C75.3454289,129.085168 42.1203283,138.278975 5.91132369,150.830646 C4.28018506,169.828579 3.88900946,176.590994 4.73779689,171.117891 C53.9322706,165.390944 83.2021792,161.890021 92.5475226,160.615122 C106.565538,158.702773 132.704478,155.409593 132.570489,139.170816 C132.481163,128.344964 123.486542,123.037767 105.586626,123.249225 Z" id="Path-65" fill="url(#linearGradient-6)" transform="translate(68.436518, 148.098590) scale(1, -1) rotate(-30.000000) translate(-68.436518, -148.098590) "></path>
                            <path d="M206.940822,115.726108 C238.410897,109.066418 262.487859,109.066418 279.171707,115.726108 C304.197478,125.715642 353.915345,157.016183 355.917407,174.997345 C357.252114,186.984786 347.686708,193.757183 327.221188,238.155114 C326.776286,247.478679 324.88545,250.703912 321.54868,261.359415 C316.543526,277.34267 323.217065,309.30918 329.22325,331.286156 C333.227374,345.937473 330.891635,355.927007 322.216034,361.254759 C256.147997,386.228594 198.162011,356.92596 191.154795,349.933286 C184.147579,342.940612 190.153764,320.297668 191.154795,261.359415 C191.822149,222.067247 189.708861,209.84972 184.814933,168.337655 L182.518606,151.890359 C180.213673,135.381419 190.742058,119.791058 206.940822,115.726108 Z" id="Path-62" fill="url(#linearGradient-1)"></path>
                            <path d="M347.723832,210.882685 C342.947265,224.054478 336.11305,218.865096 327.221188,238.155114 C326.776286,247.478679 324.88545,250.703912 321.54868,261.359415 C316.543526,277.34267 323.217065,309.30918 329.22325,331.286156 C333.227374,345.937473 330.891635,355.927007 322.216034,361.254759 C319.959094,362.107886 317.711585,362.897675 315.475217,363.627178 C312.386213,333.15326 324.850768,315.431115 281.68446,310.460724 C281.091257,298.621276 280.794655,286.485842 295.921343,275.830338 C311.048032,265.174835 321.725695,243.337757 321.725695,198.347854 L347.723832,210.882685 Z" id="Combined-Shape" fill="url(#linearGradient-3)" style="mix-blend-mode: multiply;" opacity="0.200000003"></path>
                            <path d="M254.100498,117.543621 L235.414589,161.053593 C219.611661,294.223596 226.619558,345.325822 256.43828,370.729451 C221.213784,368.134121 195.657844,354.42699 191.154795,349.933286 C184.147579,342.940612 190.153764,320.297668 191.154795,261.359415 C191.822149,222.067247 189.708861,209.84972 184.814933,168.337655 L182.518606,151.890359 C180.213673,135.381419 190.742058,119.791058 206.940822,115.726108 C220.629472,112.829319 232.91933,111.192557 243.810396,110.815821 L254.100498,117.543621 Z" id="Combined-Shape" fill="url(#linearGradient-3)" style="mix-blend-mode: multiply;" opacity="0.200000003"></path>
                            <g id="Group-32" transform="translate(209.554562, 0.612619)">
                                <polygon id="Path-74" fill="url(#linearGradient-8)" points="71.5011565 80.5240018 71.5011565 117.107467 32.7729864 143.860104 28.4836628 117.107467 65.3159878 90.6901968"></polygon>
                                <path d="M27.0958781,120.452015 L30.373079,120.452015 C31.7248155,120.452015 33.0625204,120.177964 34.3053622,119.646423 L54.541312,110.991873 C58.4027192,109.340418 61.9012827,106.945019 64.837489,103.942277 C73.8813266,94.6935014 78.8317509,89.5671296 79.6887619,88.5631611 C95.0006141,70.625681 94.774256,40.9823196 84.3488908,24.1211028 C65.0426423,-7.10339959 5.12669878,9.5053783 5.12669878,45.3803386 L8.45536231,82.584001 L20.0034251,115.427678 C21.0618209,118.437846 23.905061,120.452015 27.0958781,120.452015 Z" id="Path-54" fill="url(#linearGradient-6)"></path>
                                <path d="M29.7588089,65.9752231 C35.9723142,61.5462157 43.2953739,60.8818646 51.7279882,63.9821698 L53.0594536,71.9543832 C47.733592,74.1688869 42.8515521,75.2761388 38.4133341,75.2761388 C33.9751161,75.2761388 31.0902743,72.1758336 29.7588089,65.9752231 Z" id="Path-59" fill="url(#linearGradient-9)"></path>
                                <path d="M6.43605812,60.0147294 C12.6716694,58.6673609 19.1070856,60.4389638 25.7644127,65.310872 L19.7728183,85.9057566 C20.6604619,87.6773596 23.1014818,88.7846114 27.0958781,89.2275122 C25.9123533,96.9044584 23.6932443,105.762473 20.438551,115.801557 L8.45536231,82.584001 L6.43605812,60.0147294 Z" id="Combined-Shape" fill="url(#linearGradient-6)"></path>
                                <polygon id="Path-58" fill="#06486B" points="20.9968428 64.9510499 23.6597736 62.2936455 15.6709812 57.6431877 8.3479214 58.9718899 8.3479214 60.9649432 14.0066494 61.2971188"></polygon>
                                <polygon id="Path-58" fill="#06486B" points="29.8218715 65.7018495 28.4550077 61.5882719 40.4672945 59.5319393 52.2958781 62.2451799 51.7789652 64.1703216 41.1272419 63.4912325"></polygon>
                                <path d="M42.3840762,66.6124036 C42.8251087,67.0866008 43.0947722,67.7217409 43.0947722,68.4197337 C43.0947722,69.8873776 41.9025375,71.0771381 40.4318414,71.0771381 C38.9611453,71.0771381 37.7689106,69.8873776 37.7689106,68.4197337 C37.7689106,67.9337182 37.8996542,67.4781762 38.1279576,67.0862226 C36.6685316,67.2396372 35.449184,67.1534717 34.4699148,66.8277261 C37.1328456,64.6132223 41.3491528,64.391772 47.1188362,66.163375 C46.7525129,66.8945011 45.9177388,67.2632808 45.1290896,67.0423891 C44.2140844,66.7861135 43.29908,66.6427845 42.3840762,66.6124036 Z" id="Combined-Shape" fill="#06486B"></path>
                                <path d="M12.3706895,65.8586528 C11.6006212,65.7493605 10.8138544,65.7345711 10.010389,65.814283 C9.31787592,65.8829924 8.67394639,65.4515372 8.47553485,64.7858774 C13.5648966,64.1530338 17.0599104,64.9590667 18.9605763,67.2039762 C18.0930714,67.3323519 17.0601138,67.2249272 15.8617036,66.8817018 C15.9947776,67.2432585 16.0368232,67.6436559 15.9649715,68.0503014 C15.7479976,69.2782681 14.5745716,70.0982048 13.3440511,69.8816811 C12.1135307,69.6651574 11.291889,68.4941666 11.5088629,67.2661999 C11.612053,66.6821946 11.9315764,66.1904788 12.3706895,65.8586528 Z" id="Combined-Shape" fill="#06486B"></path>
                                <path d="M23.7250935,96.2451854 C27.9093125,98.7437362 32.8793411,98.4955457 38.6351794,95.500614" id="Path-56" stroke="#D96E4F" stroke-width="2" stroke-linejoin="round" transform="translate(31.180136, 96.725195) rotate(-15.000000) translate(-31.180136, -96.725195) "></path>
                                <path d="M25.7511286,65.7018495 L19.7595343,85.632383 C21.5348215,87.8468867 24.1977523,88.9541385 27.7483268,88.9541385" id="Path-55" stroke="#DA9B6F" stroke-linecap="round" stroke-linejoin="round"></path>
                                <path d="M9.12109501,41.3942319 L9.12109501,41.3942319 C19.6075542,44.5491384 30.7146718,45.0425891 41.4395888,42.8300306 L48.3993247,41.3942319 L56.3881172,52.6882008 L55.7223845,57.3386586 L59.7167807,59.9960631 L59.7167807,71.2900321 L59.7167807,71.2900321 C61.2383055,71.2900321 62.5789518,70.2901399 63.0127877,68.8317764 C64.8534224,62.6443162 67.7491554,60.1419809 71.6999694,61.3247653 C78.3572965,63.3178187 77.0258311,75.2761388 67.0398405,79.9265966 L71.6999694,97.1997256 C87.2337326,82.584001 95.0006141,67.7468261 95.0006141,52.6882008 C95.0006141,30.1002629 87.6775544,17.4775917 75.0286329,11.4984317 C62.3797115,5.51927161 31.9577443,5.9823041 23.9689518,5.9823041 C18.6430902,5.9823041 12.207674,3.98925076 4.66270335,0.00314406201 L0.00257440893,21.9267309 L5.79243148,50.0307964 L9.12109501,41.3942319 Z" id="Path-60" fill="url(#linearGradient-5)"></path>
                            </g>
                            <path d="M33.3269798,63.9098043 L242.891547,124.864013 C266.992414,81.708165 266.992414,40.9647198 242.891547,2.63367708 L33.3269798,59.4002699 L33.3269798,63.9098043 Z" id="Path-64" fill="url(#linearGradient-10)"></path>
                            <g id="Group-4" transform="translate(8.009291, 53.981533)">
                                <g id="Group-3" transform="translate(8.495555, 0.364322)">
                                    <g id="Group-8" transform="translate(0.047996, 0.208851)">
                                        <g id="Group-7" transform="translate(0.410627, 0.670354)">
                                            <path d="M0.871064259,61.5656335 L0.871064259,5.28989636 C0.871064259,3.95185865 1.4540291,2.67993141 2.46836392,1.80486811 C3.47757232,0.93422734 4.82960937,0.570487629 6.14059726,0.816923952 L24.07917,4.18897333 C26.3676172,4.61915009 28.0251584,6.61392219 28.0251584,8.93778291 L28.0251584,67.9750617 L25.9271305,69.7850235 C25.2519581,70.3674925 24.3104294,70.532063 23.4770691,70.2132717 L0.871064259,61.5656335 Z" id="Path-17" fill="#06486B"></path>
                                            <path d="M0.871064259,64.2686302 L0.871064259,6.09663725 C0.871064259,5.94657632 0.885073047,5.79684167 0.91290904,5.6493742 C1.1604393,4.33802664 2.42637021,3.4752159 3.74044485,3.72223246 L20.8845707,6.94494364 C23.1730179,7.37512039 24.8305591,9.3698925 24.8305591,11.6937532 L24.8305591,67.7260699 C24.8305591,67.9005065 24.8116296,68.0744303 24.7741017,68.2447994 C24.4870196,69.5480933 23.1955678,70.3723787 21.8895635,70.0858924 L2.04966471,65.7337931 C1.36144738,65.582825 0.871064259,64.9732112 0.871064259,64.2686302 Z" id="Path-17" fill="url(#linearGradient-11)"></path>
                                            <path d="M4.81597111,7.0859676 C5.87533976,7.43245719 6.5916748,8.4190144 6.5916748,9.53151778 L6.5916748,14.4504602 C6.5916748,15.1967018 5.98546839,15.8016501 5.23767489,15.8016501 C5.0944296,15.8016501 4.95209172,15.7789664 4.81597111,15.7344452 C3.75660246,15.3879556 3.04026742,14.4013984 3.04026742,13.288895 L3.04026742,8.36995264 C3.04026742,7.62371103 3.64647383,7.01876268 4.39426733,7.01876268 C4.53751262,7.01876268 4.6798505,7.04144639 4.81597111,7.0859676 Z" id="Rectangle-5" fill="#000000"></path>
                                            <path d="M4.73522937,10.2668515 C5.40382181,10.4637705 5.94582308,10.0825284 5.94582308,9.41532346 C5.94582308,8.74811855 5.40382181,8.04760774 4.73522937,7.85068879 C4.06663693,7.65376984 3.52463567,8.03501195 3.52463567,8.70221686 C3.52463567,9.36942178 4.06663693,10.0699326 4.73522937,10.2668515 Z" id="Oval-19" fill="#0C3A73"></path>
                                            <path d="M4.73522937,14.9976484 C5.40382181,15.1945674 5.94582308,14.8133253 5.94582308,14.1461204 C5.94582308,13.4789155 5.40382181,12.7784047 4.73522937,12.5814857 C4.06663693,12.3845668 3.52463567,12.7658089 3.52463567,13.4330138 C3.52463567,14.1002187 4.06663693,14.8007295 4.73522937,14.9976484 Z" id="Oval-19" fill="#0C3A73"></path>
                                        </g>
                                    </g>
                                </g>
                                <path d="M9.83510611,23.9463631 L30.8583085,20.1114352 C32.1020319,19.8845626 33.3188299,20.6233726 33.6885944,21.8299158 C34.048358,23.0038258 33.4047688,24.2499301 32.237936,24.6386513 C22.1516084,27.9987503 17.3787127,30.1196201 17.9192244,31.0011874 C18.7843234,32.4121523 26.0033427,32.4121523 36.7821671,32.4121523 L39.343781,32.4121523 C40.9055309,32.4121523 42.1715793,33.6755733 42.1715793,35.234082 C42.1715793,36.8079388 40.9216401,38.0986275 39.34543,38.1523672 L20.7214676,38.7873373 C20.3381727,38.8004055 20.0380667,39.1210764 20.051162,39.5035759 C20.0636174,39.8673828 20.356019,40.1595569 20.720566,40.1724591 L37.8277739,40.7779222 C39.404488,40.8337257 40.6537954,42.1254401 40.6537954,43.6998712 C40.6537954,45.2600772 39.3894564,46.5265 37.8260167,46.5323107 L20.6373626,46.5961939 C20.2483048,46.5976399 19.9340858,46.9135512 19.9355348,47.3018016 C19.9368943,47.6660956 20.2169003,47.9689995 20.5806575,47.9996803 L34.4026689,49.1654852 C35.5975544,49.2662667 36.5159828,50.2635208 36.5159828,51.460178 C36.5159828,52.6290596 35.5664465,53.5766253 34.3951341,53.5766253 L31.1265706,53.5766253 L15.1159576,54.6376332 C12.1444714,54.8345508 9.83510611,57.2972387 9.83510611,60.2690894 L9.83510611,62.0424145 C3.54745855,60.161128 0.403634768,54.0469469 0.403634768,43.6998712 C0.403634768,33.3527956 3.54745855,26.7682928 9.83510611,23.9463631 Z" id="Path-19" fill="url(#linearGradient-6)"></path>
                            </g>
                            <path d="M317.715602,200.119875 C316.670747,187.22348 324.327189,175.20075 336.471109,170.668547 C337.824675,170.163385 339.237539,169.833427 340.67517,169.686735 C349.967519,168.738569 358.270695,175.487232 359.220833,184.760297 L371.339678,274.85204 C372.664594,287.782823 363.925188,299.600856 351.152895,302.150014 C350.373117,302.305646 349.5849,302.415719 348.792266,302.479671 C337.543924,303.387224 327.688093,295.023282 326.778653,283.798283 L317.715602,200.119875 Z" id="Path-78" fill="url(#linearGradient-12)"></path>
                            <path d="M285.192844,370.270803 C289.218387,364.281024 294.258927,357.290848 300.314463,349.300276 C308.656583,331.102883 317.694105,310.430269 327.427029,287.282436 C344.409046,273.197039 356.186967,270.352666 362.760792,278.749317 C372.62153,291.344294 351.290052,319.384895 341.479121,329.569507 C335.134813,336.155459 325.568935,347.736804 312.781488,364.313543 C303.585273,367.202375 294.389058,369.188129 285.192844,370.270803 Z" id="Combined-Shape" fill="url(#linearGradient-6)"></path>
                        </g>
                        <path d="M338.003184,288.046513 L336.873456,295.938198 C322.940142,295.562403 311.642861,293.495533 302.981612,289.737588 L302.981612,281.282211 C312.396013,285.791745 324.06987,288.046513 338.003184,288.046513 Z" id="Path-13" fill="url(#linearGradient-3)" style="mix-blend-mode: multiply;" opacity="0.200000003"></path>
                    </g>
                </g>
            </g>
        </g>
    </g>
</svg>