<?xml version="1.0" encoding="UTF-8"?>
<svg width="615px" height="402px" viewBox="0 0 615 402" version="1.1" xmlns="http://www.w3.org/2000/svg" xmlns:xlink="http://www.w3.org/1999/xlink">
    <!-- Generator: Sketch 52.6 (67491) - http://www.bohemiancoding.com/sketch -->
    <title>Group 42</title>
    <desc>Created with Sketch.</desc>
    <defs>
        <linearGradient x1="-133.206517%" y1="0%" x2="143.178214%" y2="76.8724474%" id="linearGradient-1">
            <stop stop-color="#5648D6" offset="0%"></stop>
            <stop stop-color="#9FDDFF" offset="100%"></stop>
        </linearGradient>
        <linearGradient x1="50%" y1="0%" x2="51.6924014%" y2="94.4709719%" id="linearGradient-2">
            <stop stop-color="#FFFFFF" offset="0%"></stop>
            <stop stop-color="#8DCAFF" offset="100%"></stop>
        </linearGradient>
        <linearGradient x1="85.3553391%" y1="14.6446609%" x2="14.6446609%" y2="85.3553391%" id="linearGradient-3">
            <stop stop-color="#F4FAFF" offset="0%"></stop>
            <stop stop-color="#A0D3FF" offset="100%"></stop>
        </linearGradient>
        <linearGradient x1="85.3553391%" y1="14.6446609%" x2="14.6446609%" y2="85.3553391%" id="linearGradient-4">
            <stop stop-color="#F4FAFF" offset="0%"></stop>
            <stop stop-color="#CBE7FF" offset="100%"></stop>
        </linearGradient>
        <linearGradient x1="142.079754%" y1="-26.3600642%" x2="2.52747767%" y2="138.661086%" id="linearGradient-5">
            <stop stop-color="#6376E1" offset="0%"></stop>
            <stop stop-color="#5D64DD" offset="100%"></stop>
        </linearGradient>
        <linearGradient x1="75.8516043%" y1="33.7547827%" x2="14.6446609%" y2="85.3553391%" id="linearGradient-6">
            <stop stop-color="#6C7EE4" offset="0%"></stop>
            <stop stop-color="#5D63DD" offset="100%"></stop>
        </linearGradient>
        <radialGradient cx="60.6292229%" cy="22.3677704%" fx="60.6292229%" fy="22.3677704%" r="89.5043071%" gradientTransform="translate(0.606292,0.223678),scale(0.824558,1.000000),rotate(119.847002),translate(-0.606292,-0.223678)" id="radialGradient-7">
            <stop stop-color="#78CAF7" offset="0%"></stop>
            <stop stop-color="#6B74E2" offset="100%"></stop>
        </radialGradient>
        <radialGradient cx="60.6292229%" cy="22.3677704%" fx="60.6292229%" fy="22.3677704%" r="100.105446%" gradientTransform="translate(0.606292,0.223678),scale(0.581163,1.000000),rotate(129.149200),translate(-0.606292,-0.223678)" id="radialGradient-8">
            <stop stop-color="#78CAF7" offset="0%"></stop>
            <stop stop-color="#6B74E2" offset="100%"></stop>
        </radialGradient>
        <radialGradient cx="60.6292229%" cy="22.3677704%" fx="60.6292229%" fy="22.3677704%" r="86.3988784%" gradientTransform="translate(0.606292,0.223678),scale(1.000000,0.992704),rotate(115.158310),translate(-0.606292,-0.223678)" id="radialGradient-9">
            <stop stop-color="#78CAF7" offset="0%"></stop>
            <stop stop-color="#6B74E2" offset="100%"></stop>
        </radialGradient>
        <linearGradient x1="52.9507109%" y1="62.8218989%" x2="93.4539379%" y2="-4.90708623%" id="linearGradient-10">
            <stop stop-color="#5648D6" offset="0%"></stop>
            <stop stop-color="#9FDDFF" offset="100%"></stop>
        </linearGradient>
        <linearGradient x1="6.5460621%" y1="82.0007896%" x2="93.4539379%" y2="-4.90708623%" id="linearGradient-11">
            <stop stop-color="#5648D6" offset="0%"></stop>
            <stop stop-color="#9FDDFF" offset="100%"></stop>
        </linearGradient>
    </defs>
    <g id="Industries" stroke="none" stroke-width="1" fill="none" fill-rule="evenodd">
        <g transform="translate(-1341.000000, -3804.000000)" id="Group-42">
            <g transform="translate(1341.000000, 3804.000000)">
                <g id="Group-64" opacity="0.5" transform="translate(0.000000, 52.000000)" fill="url(#linearGradient-1)">
                    <path d="M505.999041,50.5705853 C621.978915,118.129188 622.004665,227.871007 506.050199,295.431309 C390.328704,362.855871 202.747097,362.856579 86.996178,295.431343 C-28.9793034,227.875299 -29.0010904,118.126053 86.9450205,50.5706194 C202.672294,-16.8573097 390.245075,-16.8564252 505.999041,50.5705853 Z M87.6372483,294.327035 C202.991835,361.521406 390.083867,361.5207 505.409011,294.327069 C620.517873,227.259455 620.49241,118.741027 505.357971,51.6748928 C390.000334,-15.5212545 202.917127,-15.5221367 87.5862078,51.6748588 C-27.5143201,118.737618 -27.492776,227.263473 87.6372483,294.327035 Z" id="Shape" opacity="0.400000006"></path>
                    <path d="M128.652413,75.0566603 C221.346672,21.1140973 371.587143,21.1148049 464.302782,75.056633 C557.19908,129.103569 557.219705,216.896587 464.343758,270.944882 C371.654128,324.884752 221.406587,324.885318 128.693389,270.944909 C35.8006086,216.900021 35.783158,129.101061 128.652413,75.0566603 Z M129.166678,75.9393293 C36.9745193,129.5897 36.9917756,216.411173 129.20756,270.062186 C221.602926,323.81768 371.457709,323.817115 463.829493,270.062213 C556.028326,216.407958 556.007931,129.592427 463.788611,75.9393566 C371.390802,22.1824415 221.543087,22.1817357 129.166678,75.9393293 Z" id="Shape" opacity="0.400000006"></path>
                    <path d="M160.78248,95.8830637 C234.937946,52.6164764 355.130465,52.617044 429.303036,95.8830418 C503.619901,139.233209 503.6364,209.650249 429.335816,253.001507 C355.184053,296.265934 234.985878,296.266388 160.81526,253.001529 C86.5012098,209.653004 86.4872495,139.231197 160.78248,95.8830637 Z M161.193764,96.5901358 C87.4396485,139.622552 87.4534537,209.261482 161.226469,252.294413 C235.142917,295.41101 355.02695,295.410558 428.924532,252.294435 C502.683987,209.258903 502.667671,139.624739 428.891827,96.5901577 C354.973424,53.47242 235.095046,53.4718539 161.193764,96.5901358 Z" id="Shape" opacity="0.400000006"></path>
                    <path d="M199.866053,116.882236 C253.233237,85.9834991 339.728662,85.9839045 393.108153,116.882219 C446.601326,147.846339 446.613205,198.153745 393.131743,229.118647 C339.767223,260.015842 253.267729,260.016166 199.889643,229.118664 C146.398495,198.155717 146.388444,147.844908 199.866053,116.882236 Z M200.185677,117.433275 C147.131922,148.150542 147.14185,197.849952 200.209209,228.567592 C253.389629,259.350676 339.645273,259.350353 392.812118,228.567608 C445.869716,197.848117 445.857981,148.15211 392.788587,117.433292 C339.60676,86.6493932 253.355185,86.648989 200.185677,117.433275 Z" id="Shape" opacity="0.400000006"></path>
                </g>
                <g id="Group-39" transform="translate(74.000000, 0.000000)">
                    <path d="M5.45939745,190.096598 C3.81732406,189.14292 2.45373433,187.771238 1.50568281,186.119419 C0.505416977,184.376626 0.0396424495,182.470955 0.057197078,180.594478 C0.0680854526,179.430581 0.0680854526,177.002543 0.057197078,173.310366 C2.4440084,172.659824 4.24474186,171.981831 5.45939745,171.276387 L280.841882,11.3406761 C290.8681,5.51768265 303.220911,5.51768265 313.24713,11.3406761 L488.431102,113.083433 C489.525818,113.719218 491.326708,114.417424 493.833773,115.178049 C493.835206,118.825062 493.835206,121.264413 493.833773,122.496101 C493.829407,126.246897 491.892511,129.893338 488.431102,131.903644 L213.048618,291.839355 C203.022399,297.662348 190.669589,297.662348 180.64337,291.839355 L5.45939745,190.096598 Z" id="Polygon" fill="#5D63DD"></path>
                    <path d="M5.45939745,183.577086 C3.81732406,182.623408 2.45373433,181.251726 1.50568281,179.599907 C-1.47713788,174.402849 0.293000456,167.757398 5.45939745,164.756875 L280.841882,4.82116388 C290.8681,-1.00182954 303.220911,-1.00182954 313.24713,4.82116388 L488.431102,106.563921 C490.073175,107.517599 491.436765,108.889281 492.384817,110.541099 C495.367637,115.738157 493.597499,122.383609 488.431102,125.384132 L213.048618,285.319843 C203.022399,291.142836 190.669589,291.142836 180.64337,285.319843 L5.45939745,183.577086 Z" id="Polygon" fill="url(#linearGradient-1)"></path>
                    <polygon id="Polygon" fill="url(#linearGradient-2)" points="24.0475104 175.548954 294.363185 18.5559272 470.592008 120.905509 200.276333 277.898536"></polygon>
                    <polygon id="Polygon" fill="url(#linearGradient-3)" points="24.0475104 173.375783 294.363185 16.3827565 470.592008 118.732338 200.276333 275.725365"></polygon>
                    <path d="M24.0475104,171.202612 L294.363185,14.2095858 L470.592008,116.559168 L222.038282,260.624276 C214.246086,262.773316 207.462827,263.758271 201.688504,263.579141 C195.914182,263.40001 187.233614,261.935338 175.646799,259.185124 L24.0475104,171.202612 Z" id="Polygon" fill="url(#linearGradient-4)"></path>
                    <g id="Group-40" transform="translate(49.583997, 24.515994)">
                        <polygon id="Rectangle-6" points="221.459519 0.206163393 394.783084 100.276796 174.108236 227.686312 0.784671403 127.61568"></polygon>
                        <path d="M221.733366,19.9715115 L253.662099,38.4059842 C254.888923,39.114307 254.888923,40.2627253 253.662099,40.9710482 C252.435275,41.6793711 250.446201,41.6793711 249.219377,40.9710482 L217.290644,22.5365756 C216.06382,21.8282527 216.06382,20.6798344 217.290644,19.9715115 C218.517468,19.2631886 220.506542,19.2631886 221.733366,19.9715115 Z M212.346635,25.3910638 L254.632629,49.805437 C255.859453,50.5137598 255.859453,51.6621781 254.632629,52.370501 C253.405806,53.0788239 251.416731,53.0788239 250.189907,52.370501 L207.903913,27.9561278 C206.677089,27.2478049 206.677089,26.0993866 207.903913,25.3910638 C209.130737,24.6827409 211.119811,24.6827409 212.346635,25.3910638 Z M203.412431,30.5493438 L220.938521,40.6682617 C222.165345,41.3765846 222.165345,42.5250029 220.938521,43.2333258 C219.711697,43.9416487 217.722622,43.9416487 216.495799,43.2333258 L198.969708,33.1144078 C197.742884,32.4060849 197.742884,31.2576666 198.969708,30.5493438 C200.196532,29.8410209 202.185607,29.8410209 203.412431,30.5493438 Z M194.478226,35.7076238 L220.679745,50.8354138 C221.906568,51.5437367 221.906568,52.692155 220.679745,53.4004778 C219.452921,54.1088007 217.463846,54.1088007 216.237022,53.4004778 L190.035504,38.2726878 C188.80868,37.564365 188.80868,36.4159467 190.035504,35.7076238 C191.262328,34.9993009 193.251402,34.9993009 194.478226,35.7076238 Z M185.544022,40.8659038 L229.591909,66.297529 C230.818733,67.0058519 230.818733,68.1542702 229.591909,68.8625931 C228.365085,69.570916 226.376011,69.570916 225.149187,68.8625931 L181.1013,43.4309678 C179.874476,42.722645 179.874476,41.5742267 181.1013,40.8659038 C182.328123,40.1575809 184.317198,40.1575809 185.544022,40.8659038 Z M193.385102,55.7096138 L215.406597,68.4240128 C216.633421,69.1323356 216.633421,70.2807539 215.406597,70.9890768 C214.179773,71.6973997 212.190698,71.6973997 210.963874,70.9890768 L188.942379,58.2746779 C187.715555,57.566355 187.715555,56.4179367 188.942379,55.7096138 C190.169203,55.001291 192.158278,55.001291 193.385102,55.7096138 Z M184.450897,60.8678938 L211.723501,76.614089 C212.950325,77.3224119 212.950325,78.4708302 211.723501,79.1791531 C210.496677,79.887476 208.507602,79.887476 207.280778,79.1791531 L180.008175,63.4329579 C178.781351,62.724635 178.781351,61.5762167 180.008175,60.8678938 C181.234999,60.159571 183.224073,60.159571 184.450897,60.8678938 Z" id="Combined-Shape" fill="#92C7FF"></path>
                        <path d="M308.754574,73.7722294 C313.729131,74.8721925 316.798539,75.9416011 317.962797,76.9804551 C319.709184,78.5387361 312.803017,85.3676737 301.133976,92.1049476 C293.354615,96.5964636 283.4055,102.03517 271.286632,108.421067 C268.111383,110.071011 263.613113,109.734912 257.791823,107.412767 C249.059887,103.929551 231.437253,96.7797908 239.851664,91.9216204 C248.266075,87.0634501 255.331004,82.159448 271.366013,77.0262869 C282.056019,73.6041795 294.518873,72.5194937 308.754574,73.7722294 Z M340.344307,92.0109756 C342.51406,100.230144 340.635371,107.425736 334.708239,113.597751 C325.817541,122.855774 317.323749,126.934804 308.909338,131.792974 C300.494928,136.651144 288.111455,126.476486 282.078482,121.434988 C278.056499,118.07399 277.47437,115.476855 280.332094,113.643583 C291.392546,106.646596 300.812453,100.902344 308.591813,96.4108279 C320.260855,89.673554 332.088658,85.6861878 334.78762,86.6944873 C336.586928,87.3666869 338.439157,89.1388497 340.344307,92.0109756 Z" id="Combined-Shape" fill="#C0DFFF"></path>
                        <path d="M308.915192,91.9182408 C308.259648,92.0367359 307.550413,92.0538997 306.860678,91.9578385 C297.833976,90.7006708 290.534405,90.8032963 284.961964,92.2657151 C278.968964,93.8385048 277.152903,96.145263 279.513782,99.1859898 C277.712378,98.1459254 277.097564,96.9043628 277.669333,95.4613009 C277.75552,95.2437822 277.655877,95.0155926 277.40138,94.8476641 C276.962893,94.558331 276.201183,94.5290122 275.700055,94.7821786 C270.433479,97.4034948 268.98063,100.549074 271.341509,104.218917 C268.617418,101.807306 268.572017,99.4743345 271.205305,97.2200027 C267.300774,100.627714 263.986463,102.698553 261.262372,103.432522 L264.395077,101.151977 C262.488213,101.728666 260.081933,102.017011 257.176236,102.017011 C261.534781,101.387895 264.531281,100.391795 266.165736,99.0287108 C267.800191,97.6656264 269.979464,95.9879841 272.703555,93.9957838 C272.703555,93.9957838 269.707054,93.5239469 263.714054,92.894831 C259.718721,92.4754204 255.81419,92.5278468 252.000463,93.05211 C254.361341,92.3181415 258.175069,92.0035835 263.441645,92.1084362 C260.89916,90.0113833 257.993463,89.2774147 254.724554,89.9065306 C257.900875,88.9459211 260.888236,89.4035969 263.686636,91.2795579 C264.994058,92.1560131 266.841356,92.7039799 268.836794,92.8072592 C269.992199,92.8670592 270.908487,92.8933085 271.585657,92.8860071 C273.958802,92.8604194 276.913057,92.2874759 280.448421,91.1671766 C280.531374,91.1408903 280.60523,91.1060061 280.666292,91.0642703 C280.940875,90.8765944 280.899957,90.595936 280.5749,90.4374022 C278.516432,89.4334365 276.528263,88.47009 274.610418,87.5473461 C272.431146,86.4988196 269.888661,86.4988196 266.982963,87.5473461 C270.796691,85.3454405 273.248373,85.5027195 278.696555,88.6482989 C284.144737,91.7938782 291.227374,90.2210886 295.041101,89.2774147 C297.583586,88.6482989 295.222707,86.8658039 287.958465,83.9299298 C286.344414,84.128022 284.619156,84.0755957 282.782692,83.7726508 C280.946227,83.469706 278.857757,82.8930165 276.517282,82.0425822 C279.241373,82.986256 282.14707,83.3008139 285.234374,82.986256 C282.328676,81.0989084 280.966631,79.3688397 281.148237,77.79605 C283.145904,80.8367768 286.505616,82.986256 291.227374,84.2444877 C290.682556,82.986256 292.861828,82.3571401 295.041101,81.0989084 C296.49395,80.2600872 297.038768,79.3164134 296.675556,78.2678869 C297.946798,79.6309713 297.311177,81.046482 294.768692,82.5144191 C292.226207,83.9823561 292.135404,84.9784563 294.496283,85.5027195 C297.220374,81.6231716 302.396147,80.2076609 310.023602,81.2561873 C298.560633,80.6397516 292.861828,87.3900671 299.399647,88.6482989 C301.225632,88.9997177 302.876303,89.2131104 304.35166,89.288477 C306.850071,89.4161049 309.318078,88.8982621 311.091623,87.8742828 L326.249445,79.1227153 L331.077199,81.9100825 L315.919377,90.6616499 C314.145832,91.6856293 313.248922,93.1105654 313.469975,94.5530558 C313.600511,95.4048724 313.97011,96.3579089 314.578772,97.4121654 C316.758044,101.186861 328.449674,97.896581 327.382,91.2782856 C329.19806,95.6820968 326.746378,98.6703972 320.026954,100.243187 C320.934984,101.606271 322.660242,101.553845 325.202727,100.085908 C327.745212,98.6179708 330.196894,98.2509866 332.557773,98.9849551 C330.741712,98.7752498 329.107257,99.0898077 327.654409,99.9286289 C325.475136,101.186861 324.385499,102.445092 322.206227,102.130534 C324.385499,104.856703 328.108424,106.796477 333.375,107.949856 C330.650909,108.054709 327.654409,107.268314 324.385499,105.590672 C323.840681,107.373167 324.385499,109.050809 326.019954,110.623599 C324.546991,109.272295 323.548158,108.066489 323.023454,107.006182 C322.49875,105.945876 322.407947,104.949775 322.751045,104.017882 C317.666075,99.8237763 314.578772,98.4606919 313.489135,99.9286289 C311.85468,102.130534 309.130589,106.219788 314.578772,109.365367 C320.026954,112.510946 320.299363,113.926457 316.485635,116.128363 C318.301696,114.45072 318.301696,112.982783 316.485635,111.724552 C314.887431,110.617259 313.218904,109.469364 311.480052,108.280866 C311.20544,108.093204 310.719336,108.06958 310.394279,108.228113 C310.321993,108.263368 310.261573,108.30601 310.216044,108.353904 C308.275672,110.395093 307.283327,112.100771 307.239009,113.470937 C307.226363,113.86191 307.271827,114.390941 307.375401,115.058029 C307.554282,116.210122 308.503367,117.276683 310.021399,118.03154 C313.270586,119.647233 314.063286,121.372025 312.399499,123.205916 C313.489135,121.318569 312.217893,119.640926 308.585771,118.172989 C308.767377,121.213716 308.222559,123.415622 306.951317,124.778706 C307.859347,122.5768 307.95015,120.322469 307.223726,118.01571 C306.134089,114.555573 305.316862,112.825504 305.316862,112.825504 C301.866347,114.398294 298.960649,115.656526 296.599771,116.6002 C294.238892,117.543873 292.513634,119.273942 291.423998,121.790406 C291.423998,120.112763 291.923414,118.723466 292.922248,117.622513 L288.972316,119.431221 C290.243558,117.858431 293.830278,115.944871 299.732475,113.690539 C295.827945,115.210902 291.78721,115.184689 287.61027,113.611899 C293.966483,114.974984 299.414665,114.136162 303.954816,111.095436 C304.393304,110.806103 304.342523,110.36632 303.841395,110.113153 C303.550541,109.966216 303.155313,109.908686 302.778568,109.958447 C300.279167,110.288565 298.128766,109.933595 296.327361,108.89353 C301.593937,110.256615 305.589271,109.208088 308.313362,105.747951 C310.846289,102.530629 311.024038,98.3161262 308.846608,93.1044413 C308.680229,92.7062139 308.709957,92.2967275 308.915192,91.9182408 Z" id="Combined-Shape" fill="#92C7FF"></path>
                        <path d="M77.0661489,102.876116 L57.7312317,114.036324 C57.3860205,114.235581 57.3860205,114.558591 57.7312317,114.757849 L195.438065,194.251382 C195.783393,194.450707 196.343369,194.450707 196.688697,194.251382 L216.023614,183.091175 C216.368825,182.891917 216.368825,182.568907 216.023614,182.36965 L78.3167811,102.876116 C77.9714528,102.676791 77.4114772,102.676791 77.0661489,102.876116 Z M217.116608,181.738422 C218.065746,182.286269 218.065746,183.174555 217.116608,183.722402 L197.781691,194.88261 C196.83267,195.430389 195.294091,195.430389 194.345071,194.88261 L56.6382376,115.389076 C55.6890998,114.841229 55.6890998,113.952943 56.6382376,113.405096 L75.9731548,102.244889 C76.9221756,101.697109 78.4607545,101.697109 79.4097752,102.244889 L217.116608,181.738422 Z" id="Rectangle-21" fill="#B2D7FF" fill-rule="nonzero"></path>
                        <polygon id="Rectangle-11-Copy-4" fill="#92C7FF" points="90.6029788 117.261589 107.802318 127.189131 104.34459 129.184948 87.1452511 119.257406"></polygon>
                        <polygon id="Rectangle-11-Copy-5" fill="#C0DFFF" points="84.6413794 120.702653 111.898812 136.435775 109.931484 137.571326 82.6740515 121.838204"></polygon>
                        <path d="M79.9379447,116.945061 L81.0185101,117.568769 L80.5560345,117.835712 C79.2150889,118.609712 77.0443578,118.611658 75.707571,117.840058 L72.5020297,115.989804 C71.1652429,115.218205 71.1686143,113.965248 72.50956,113.191248 L75.6023654,111.406066 C76.9433111,110.632065 79.1140422,110.630119 80.4508289,111.401719 L83.6563703,113.251973 C83.7023502,113.278513 83.7467446,113.305622 83.7895536,113.333262 L82.7025104,113.960708 C82.6620528,113.932058 82.6186972,113.904319 82.5724431,113.877621 L79.3669018,112.027367 C78.6268948,111.600231 77.4252401,111.601309 76.6829308,112.029773 L73.5901254,113.814955 C72.8478162,114.24342 72.8459498,114.937021 73.5859568,115.364156 L76.7914982,117.21441 C77.5315052,117.641546 78.7331599,117.640469 79.4754691,117.212004 L79.9379447,116.945061 Z" id="Combined-Shape" fill="#B2D7FF" fill-rule="nonzero"></path>
                        <polygon id="Path" fill="#B2D7FF" points="77.5475286 115.9824 77.4666715 113.240614 79.0499394 113.256151 79.1038795 115.084067 86.2288612 115.153926 86.2557781 116.067796"></polygon>
                        <path d="M50.0055503,118.495624 L30.6706332,129.655832 C30.3254219,129.85509 30.3254219,130.178099 30.6706332,130.377357 L168.377466,209.87089 C168.722795,210.070216 169.28277,210.070216 169.628098,209.87089 L188.963016,198.710683 C189.308227,198.511425 189.308227,198.188416 188.963016,197.989158 L51.2561825,118.495624 C50.9108542,118.296299 50.3508786,118.296299 50.0055503,118.495624 Z M190.05601,197.35793 C191.005148,197.905777 191.005148,198.794063 190.05601,199.34191 L170.721093,210.502118 C169.772072,211.049897 168.233493,211.049897 167.284472,210.502118 L29.5776391,131.008584 C28.6285012,130.460737 28.6285012,129.572451 29.5776391,129.024604 L48.9125562,117.864397 C49.861577,117.316618 51.4001559,117.316618 52.3491766,117.864397 L190.05601,197.35793 Z" id="Rectangle-21" fill="#B2D7FF" fill-rule="nonzero"></path>
                        <polygon id="Rectangle-11-Copy-4" fill="#92C7FF" points="63.5423802 132.881097 80.7417196 142.808639 77.2839919 144.804456 60.0846525 134.876914"></polygon>
                        <polygon id="Rectangle-11-Copy-5" fill="#C0DFFF" points="57.5807808 136.322161 84.8382133 152.055283 82.8708855 153.190834 55.613453 137.457712"></polygon>
                        <path d="M52.8773461,132.564569 L53.9579115,133.188277 L53.495436,133.45522 C52.1544903,134.22922 49.9837592,134.231166 48.6469724,133.459566 L45.4414311,131.609313 C44.1046443,130.837713 44.1080157,129.584756 45.4489614,128.810756 L48.5417668,127.025574 C49.8827125,126.251573 52.0534436,126.249627 53.3902304,127.021227 L56.5957717,128.871481 C56.6417516,128.898021 56.686146,128.92513 56.728955,128.95277 L55.6419118,129.580217 C55.6014542,129.551566 55.5580986,129.523827 55.5118445,129.497129 L52.3063032,127.646875 C51.5662962,127.21974 50.3646415,127.220817 49.6223323,127.649281 L46.5295268,129.434464 C45.7872176,129.862928 45.7853513,130.556529 46.5253582,130.983665 L49.7308996,132.833918 C50.4709066,133.261054 51.6725613,133.259977 52.4148705,132.831512 L52.8773461,132.564569 Z" id="Combined-Shape" fill="#B2D7FF" fill-rule="nonzero"></path>
                        <polygon id="Path" fill="#B2D7FF" points="50.4869301 131.601908 50.406073 128.860123 51.9893408 128.875659 52.0432809 130.703575 59.1682626 130.773434 59.1951795 131.687304"></polygon>
                        <polygon id="Path-9" fill="#92C7FF" fill-rule="nonzero" points="124.131642 100.952854 86.6039246 97.9295353 86.9488521 93.5970658 126.255292 96.7636827 138.003411 110.580763 162.15468 103.86696 173.320684 117.534259 202.319162 109.416609 220.236456 119.761394 245.869221 125.412079 248.945609 141.397813 285.677615 143.370623 285.447255 147.710783 245.345104 145.556968 242.167549 129.045539 218.66219 123.863836 201.736087 114.091328 171.768816 122.480175 160.599309 108.808589 136.505875 115.506314"></polygon>
                    </g>
                    <path d="M384.353637,40.6050365 C391.402158,36.5102739 402.830069,36.5102739 409.87859,40.6050365 C416.927112,44.699799 416.927112,51.3387209 409.87859,55.4334834 C408.796896,56.0618823 408.796896,57.0807182 409.87859,57.7091171 L419.215993,63.1335808 C425.410206,66.7320422 425.410206,72.5663008 419.215993,76.1647622 L418.376083,76.6526992 L347.827931,35.6685097 L347.826314,32.2324412 C348.922176,32.4540567 349.610921,32.4983647 349.892551,32.365365 C356.122097,29.4234535 365.29823,31.8106366 371.099071,35.1805728 L380.436474,40.6050365 C381.518169,41.2334354 383.271942,41.2334354 384.353637,40.6050365 Z M395.782832,48.7938153 C398.070725,50.1229421 401.780133,50.1229421 404.068026,48.7938153 C406.355919,47.4646886 406.355919,45.3097483 404.068026,43.9806215 C401.780133,42.6514947 398.070725,42.6514947 395.782832,43.9806215 C393.49494,45.3097483 393.49494,47.4646886 395.782832,48.7938153 Z" id="Combined-Shape" fill="#4457C1"></path>
                    <path d="M384.353637,37.1628362 C391.402158,33.0680736 402.830069,33.0680736 409.87859,37.1628362 C416.927112,41.2575987 416.927112,47.8965206 409.87859,51.9912831 C408.796896,52.619682 408.796896,53.6385179 409.87859,54.2669168 L419.215993,59.6913805 C425.410206,63.2898419 425.410206,69.1241005 419.215993,72.7225619 L418.376083,73.2104989 L347.827931,32.2263095 L348.667842,31.7383725 C354.862055,28.1399111 364.904858,28.1399111 371.099071,31.7383725 L380.436474,37.1628362 C381.518169,37.7912351 383.271942,37.7912351 384.353637,37.1628362 Z M395.782832,45.3516151 C398.070725,46.6807418 401.780133,46.6807418 404.068026,45.3516151 C406.355919,44.0224883 406.355919,41.867548 404.068026,40.5384212 C401.780133,39.2092945 398.070725,39.2092945 395.782832,40.5384212 C393.49494,41.867548 393.49494,44.0224883 395.782832,45.3516151 Z" id="Combined-Shape" fill="#6276E2"></path>
                    <path d="M410.709626,70.7903601 C403.756288,74.7107848 396.91518,78.6949311 390.186303,82.7427991 C386.719917,79.7227 384.349002,80.1024567 383.073559,83.8820692 C382.49827,85.5868311 380.658083,86.4996929 378.963375,85.9209999 C378.761579,85.8520925 378.567033,85.7633291 378.382561,85.6559991 L327.893536,56.2802507 C326.606794,55.5315926 325.991412,53.9982919 326.400759,52.5608134 C327.250908,49.5753978 329.270214,49.103222 332.458678,51.144286 L354.350345,37.8133932 L410.709626,70.7903601 Z" id="Path-2" stroke="url(#linearGradient-5)" stroke-width="1.5" stroke-linecap="round" stroke-linejoin="round"></path>
                    <path d="M223.83209,259.776092 C209.110603,268.190213 191.059899,268.130445 176.393795,259.619017 L171.983694,257.059629 C183.145501,261.768165 191.96693,258.870604 198.44798,248.366946 C201.688504,258.870604 210.149875,262.673653 223.83209,259.776092 Z" id="Path-3" fill="#8DCAFF"></path>
                </g>
                <g id="Group-46" transform="translate(99.000000, 201.000000)">
                    <g id="Group-45" transform="translate(0.369462, 39.227438)">
                        <ellipse id="Oval-4" fill="#5D63DD" cx="34.6187587" cy="36.2968737" rx="33.8923444" ry="19.6969827"></ellipse>
                        <ellipse id="Oval-4" fill="url(#linearGradient-6)" cx="34.6187587" cy="32.486683" rx="33.8923444" ry="19.6969827"></ellipse>
                        <path d="M34.6187587,42.1079356 C43.1060936,42.1079356 49.9864379,37.3372116 49.9864379,31.4522254 C49.9864379,27.5289012 49.9864379,22.760112 49.9864379,17.1458579 L19.2510795,16.7648388 C19.2510795,24.7666162 19.2510795,29.6624117 19.2510795,31.4522254 C19.2510795,37.3372116 26.1314239,42.1079356 34.6187587,42.1079356 Z" id="Oval-4" fill="url(#radialGradient-7)"></path>
                        <ellipse id="Oval-4" fill="#5D63DD" cx="34.6187587" cy="16.5765365" rx="15.3676792" ry="10.6557102"></ellipse>
                        <ellipse id="Oval-4" fill="url(#radialGradient-8)" cx="34.6187587" cy="10.9163872" rx="18.3351433" ry="10.6557102"></ellipse>
                    </g>
                    <g id="Group-41" transform="translate(37.568821, 0.864027)">
                        <ellipse id="Oval-3" fill="url(#radialGradient-9)" cx="454.141724" cy="53.5145953" rx="9.71361939" ry="9.78500978"></ellipse>
                        <path d="M269.264969,127.310439 C288.632267,133.658841 311.108728,134.418715 337.054103,129.496553 C375.161142,122.26717 410.422269,110.596246 454.126287,91.3377883 C462.138723,87.8070566 466.13527,83.85616 466.519739,79.3385712 C466.921896,74.6131482 463.414155,69.0069998 455.742331,62.5508178 C455.084566,61.9972794 454.76372,61.3652702 454.754244,60.7382317 C454.743859,60.0510473 454.743859,58.9023321 454.754244,57.292086 C460.286676,57.3634958 463.632576,57.8870305 464.791944,58.8626901 C482.974463,74.1640902 481.86549,87.1947571 460.755201,96.4971421 C416.1516,116.152007 379.868264,128.161267 340.45183,135.639058 C311.72494,141.08891 286.081101,140.221954 263.880066,132.944681 L259.06969,131.367889 L258.218893,130.869634 L255.526442,128.052512 C243.100134,115.050823 241.619764,100.032911 250.925658,83.2094574 C263.694362,60.1258402 284.200775,38.8770726 317.762442,12.7556719 C333.646731,0.392761962 355.897248,-0.256690866 382.025156,10.3916167 C384.524138,11.410065 385.140182,13.4220731 383.401131,14.8855625 C381.662079,16.3490519 378.226475,16.709829 375.727493,15.6913807 C364.703239,11.1984969 355.130459,9.14424381 347.061563,9.37976048 C339.347553,9.60491863 332.601199,11.9454338 326.572298,16.6377915 C293.687515,42.2323655 273.758828,62.8824925 261.414294,85.1992832 C253.009455,100.393786 254.306979,113.556773 265.147194,124.898928 L266.624891,126.445048 L269.264969,127.310439 Z" id="Combined-Shape" fill="url(#linearGradient-10)" fill-rule="nonzero"></path>
                        <path d="M269.264969,124.431778 C288.632267,130.78018 311.108728,131.540055 337.054103,126.617892 C375.161142,119.388509 410.422269,107.717586 454.126287,88.4591276 C462.138723,84.9283959 466.13527,80.9774993 466.519739,76.4599104 C466.921896,71.7344875 463.414155,66.1283391 455.742331,59.672157 C454.00328,58.2086676 454.619325,56.1966595 457.118306,55.1782112 C459.617288,54.1597629 463.052892,54.52054 464.791944,55.9840294 C482.974463,71.2854294 481.86549,84.3160963 460.755201,93.6184814 C416.1516,113.273346 379.868264,125.282606 340.45183,132.760398 C311.72494,138.210249 286.081101,137.343293 263.880066,130.066021 L259.06969,128.489229 L258.218893,127.990973 L255.526442,125.173851 C243.100134,112.172163 241.619764,97.1542502 250.925658,80.3307967 C263.694362,57.2471794 284.200775,35.9984119 317.762442,9.87701118 C333.646731,-2.48589878 355.897248,-3.13535161 382.025156,7.51295595 C384.524138,8.53140428 385.140182,10.5434124 383.401131,12.0069018 C381.662079,13.4703912 378.226475,13.8311683 375.727493,12.8127199 C364.703239,8.31983616 355.130459,6.26558307 347.061563,6.50109974 C339.347553,6.72625789 332.601199,9.06677303 326.572298,13.7591308 C293.687515,39.3537047 273.758828,60.0038318 261.414294,82.3206225 C253.009455,97.5151249 254.306979,110.678112 265.147194,122.020267 L266.624891,123.566388 L269.264969,124.431778 Z" id="Combined-Shape" fill="url(#linearGradient-11)" fill-rule="nonzero"></path>
                        <path d="M271.121832,126.806927 C289.553751,132.848721 310.953382,133.547139 335.882473,128.817778 C362.524559,123.76344 387.811866,116.49988 415.77039,105.871816 C417.531576,105.202324 419.886038,105.495717 421.029229,106.527128 C421.035377,106.532675 423.167746,106.913182 427.426338,107.668649 C427.439857,111.142895 427.439857,113.019735 427.426338,113.299169 C427.392085,114.007138 426.782587,114.692739 425.693991,115.106118 C396.474324,126.201889 369.815151,133.848177 341.62346,139.196494 C311.876579,144.839851 285.15368,143.908788 262.023203,136.326854 L256.753563,134.59952 L255.158451,133.665368 L252.208941,130.579285 C239.262409,117.033284 237.672573,101.383436 247.308887,83.962641 C257.014817,66.4159913 271.159619,49.8674995 292.160408,31.4187385 C293.281495,30.4338869 295.52241,30.1348822 297.261335,30.7381232 C304.836299,30.3352494 308.623617,30.164755 308.62329,30.22664 C308.605788,33.5393667 308.606293,35.430461 308.624803,35.8999229 C308.64067,36.3023124 308.470494,36.7121294 308.094415,37.08394 C287.735414,54.9332956 274.233897,70.6876273 265.031066,87.3247604 C256.955445,101.924092 258.148028,114.456451 268.464694,125.250816 L269.41823,126.248503 L271.121832,126.806927 Z" id="Combined-Shape" fill="#5D63DD" fill-rule="nonzero"></path>
                        <path d="M271.121832,121.049605 C289.553751,127.0914 310.953382,127.789817 335.882473,123.060456 C362.524559,118.006119 387.811866,110.742558 415.77039,100.114494 C417.531576,99.4450024 419.886038,99.738396 421.029229,100.769807 C421.040051,100.77957 422.984413,102.627209 426.862316,106.312724 C427.945855,107.34258 427.427088,108.690677 425.693991,109.348797 C396.474324,120.444567 369.815151,128.090856 341.62346,133.439173 C311.876579,139.082529 285.15368,138.151466 262.023203,130.569533 L256.753563,128.842199 L255.158451,127.908046 L252.208941,124.821964 C239.262409,111.275962 237.672573,95.626115 247.308887,78.2053195 C257.014817,60.6586699 271.159619,44.1101781 292.160408,25.661417 C293.281495,24.6765654 295.52241,24.3775607 297.261335,24.9808017 L306.761013,28.2762819 C308.567538,28.9029733 309.164522,30.2686555 308.094415,31.3266185 C287.735414,49.1759741 274.233897,64.9303058 265.031066,81.5674389 C256.955445,96.1667707 258.148028,108.69913 268.464694,119.493494 L269.41823,120.491182 L271.121832,121.049605 Z" id="Combined-Shape" fill="url(#linearGradient-6)" fill-rule="nonzero"></path>
                        <path d="M260.652381,130.75652 C231.618904,146.709953 258.213606,197.048541 130.205664,197.048541 C2.19772269,197.048541 -40.8073148,150.371603 46.0922668,130.75652 C132.991848,111.141437 59.7967715,90.0348407 9.9290869,70.9064645" id="Path-8" stroke="#5D63DD" stroke-width="5.25" stroke-linecap="round" stroke-linejoin="round"></path>
                        <ellipse id="Oval-3" fill="url(#radialGradient-9)" cx="381.336065" cy="12.1769288" rx="9.71361939" ry="9.78500978"></ellipse>
                    </g>
                </g>
            </g>
        </g>
    </g>
</svg>