<?xml version="1.0" encoding="UTF-8"?>
<svg width="433px" height="249px" viewBox="0 0 433 249" version="1.1" xmlns="http://www.w3.org/2000/svg" xmlns:xlink="http://www.w3.org/1999/xlink">
    <!-- Generator: Sketch 52.6 (67491) - http://www.bohemiancoding.com/sketch -->
    <title>Group 22</title>
    <desc>Created with Sketch.</desc>
    <defs>
        <path d="M41.8032469,0 L320.019116,0 C329.165211,-6.64439858e-15 338.918904,6.15435641 341.804601,13.7461398 L361.13716,64.606857 C364.022856,72.1986404 357.529278,78.3529968 346.633347,78.3529968 L15.1890168,78.3529968 C4.29308531,78.3529968 -2.20049305,72.1986404 0.685203573,64.606857 L20.0177626,13.7461398 C22.9034592,6.15435641 32.6571528,3.32219929e-15 41.8032469,0 Z" id="path-1"></path>
        <filter x="-12.7%" y="-50.0%" width="125.3%" height="200.0%" filterUnits="objectBoundingBox" id="filter-3">
            <feOffset dx="-6" dy="7" in="SourceAlpha" result="shadowOffsetOuter1"></feOffset>
            <feGaussianBlur stdDeviation="8.5" in="shadowOffsetOuter1" result="shadowBlurOuter1"></feGaussianBlur>
            <feColorMatrix values="0 0 0 0 0.260845908   0 0 0 0 0.43670489   0 0 0 0 0.801950468  0 0 0 0.185999774 0" type="matrix" in="shadowBlurOuter1" result="shadowMatrixOuter1"></feColorMatrix>
            <feMerge>
                <feMergeNode in="shadowMatrixOuter1"></feMergeNode>
                <feMergeNode in="SourceGraphic"></feMergeNode>
            </feMerge>
        </filter>
        <path d="M41.8032469,0 L320.019116,0 C329.165211,-6.64439858e-15 338.918904,6.15435641 341.804601,13.7461398 L361.13716,64.606857 C364.022856,72.1986404 357.529278,78.3529968 346.633347,78.3529968 L15.1890168,78.3529968 C4.29308531,78.3529968 -2.20049305,72.1986404 0.685203573,64.606857 L20.0177626,13.7461398 C22.9034592,6.15435641 32.6571528,3.32219929e-15 41.8032469,0 Z" id="path-4"></path>
        <filter x="-12.7%" y="-50.0%" width="125.3%" height="200.0%" filterUnits="objectBoundingBox" id="filter-6">
            <feOffset dx="-6" dy="7" in="SourceAlpha" result="shadowOffsetOuter1"></feOffset>
            <feGaussianBlur stdDeviation="8.5" in="shadowOffsetOuter1" result="shadowBlurOuter1"></feGaussianBlur>
            <feColorMatrix values="0 0 0 0 0.260845908   0 0 0 0 0.43670489   0 0 0 0 0.801950468  0 0 0 0.185999774 0" type="matrix" in="shadowBlurOuter1" result="shadowMatrixOuter1"></feColorMatrix>
            <feMerge>
                <feMergeNode in="shadowMatrixOuter1"></feMergeNode>
                <feMergeNode in="SourceGraphic"></feMergeNode>
            </feMerge>
        </filter>
        <path d="M41.8032469,0 L320.019116,0 C329.165211,-6.64439858e-15 338.918904,6.15435641 341.804601,13.7461398 L361.13716,64.606857 C364.022856,72.1986404 357.529278,78.3529968 346.633347,78.3529968 L15.1890168,78.3529968 C4.29308531,78.3529968 -2.20049305,72.1986404 0.685203573,64.606857 L20.0177626,13.7461398 C22.9034592,6.15435641 32.6571528,3.32219929e-15 41.8032469,0 Z" id="path-7"></path>
        <path d="M41.7869429,0 L319.894303,0 C329.03683,-6.68828016e-15 338.78672,6.19500161 341.671291,13.8369234 L360.99631,65.0335399 C363.880881,72.6754616 357.389835,78.8704633 346.498154,78.8704633 L15.1830928,78.8704633 C4.29141093,78.8704633 -2.19963482,72.6754616 0.684936332,65.0335399 L20.0099553,13.8369234 C22.8945264,6.19500161 32.6444159,3.34414008e-15 41.7869429,0 Z" id="path-9"></path>
        <linearGradient x1="0%" y1="-58.704144%" x2="78.6018941%" y2="100%" id="linearGradient-11">
            <stop stop-color="#B1FFBE" offset="0%"></stop>
            <stop stop-color="#5CDB8E" offset="44.420721%"></stop>
            <stop stop-color="#149654" offset="100%"></stop>
        </linearGradient>
    </defs>
    <g id="Industries" stroke="none" stroke-width="1" fill="none" fill-rule="evenodd">
        <g id="Industry-Template-Copy-2" transform="translate(-1263.000000, -750.000000)">
            <g id="Group-22" transform="translate(1263.000000, 750.000000)">
                <g id="comment-stack" transform="translate(27.000000, 71.000000)">
                    <g id="other-comments" transform="translate(203.892660, 105.869937) rotate(-2.000000) translate(-203.892660, -105.869937) translate(10.392660, 27.369937)">
                        <g id="3" transform="translate(195.557599, 104.164475) rotate(2.000000) translate(-195.557599, -104.164475) translate(14.057599, 58.164475)">
                            <path d="M0,69.1985816 L361.846235,69.1985816 L361.846235,71.6413649 C361.846235,82.6870599 352.89193,91.6413649 341.846235,91.6413649 L20,91.6413649 C8.954305,91.6413649 1.3527075e-15,82.6870599 0,71.6413649 L0,69.1985816 Z" id="side" fill="#CAD7F1"></path>
                            <g id="top" transform="translate(0.828023, 0.000000)">
                                <mask id="mask-2" fill="white">
                                    <use xlink:href="#path-1"></use>
                                </mask>
                                <use id="Mask" fill="#EBF1FD" xlink:href="#path-1"></use>
                                <path d="M54.0625403,68.0200627 C76.4604887,68.0200627 96.9432452,55.0959143 99.8120574,39.1531692 C102.68087,23.2104241 89.0443551,10.2862756 69.3540497,10.2862756 C49.6637443,10.2862756 29.1809878,23.2104241 23.6045325,39.1531692 C18.0280773,55.0959143 31.6645919,68.0200627 54.0625403,68.0200627 Z" id="Oval-Copy-2" fill="#CAD7F1" mask="url(#mask-2)"></path>
                                <path d="M124.951464,14.0267395 L309.807733,14.0267395 C313.825293,14.0267395 317.923018,16.642341 318.960257,19.8688489 C319.997496,23.0953569 317.491566,25.7109583 313.363106,25.7109583 L123.404109,25.7109583 C119.275649,25.7109583 116.320209,23.0953569 116.802949,19.8688489 C117.285689,16.642341 120.933904,14.0267395 124.951464,14.0267395 Z" id="Rectangle" fill="#CAD7F1" mask="url(#mask-2)"></path>
                                <path d="M121.967942,33.6641748 L266.018788,33.6641748 C270.219007,33.6641748 274.173946,36.2797763 274.852392,39.5062843 C275.530838,42.7327922 272.585974,45.3483937 268.274856,45.3483937 L120.420587,45.3483937 C116.109469,45.3483937 113.005955,42.7327922 113.488695,39.5062843 C113.971435,36.2797763 117.767724,33.6641748 121.967942,33.6641748 Z" id="Rectangle-Copy" fill="#CAD7F1" mask="url(#mask-2)"></path>
                                <path d="M117.257455,57.0420741 L168.12401,57.0420741 C171.245435,57.0420741 173.745986,58.888381 173.709147,61.165916 C173.672308,63.443451 171.067234,65.2897579 167.890552,65.2897579 L116.123515,65.2897579 C112.946833,65.2897579 110.647861,63.443451 110.988619,61.165916 C111.329377,58.888381 114.13603,57.0420741 117.257455,57.0420741 Z" id="Rectangle-Copy-2" fill="#CAD7F1" opacity="0.5" mask="url(#mask-2)"></path>
                            </g>
                        </g>
                        <g id="2" filter="url(#filter-3)" transform="translate(183.716365, 75.387840) rotate(3.000000) translate(-183.716365, -75.387840) translate(2.216365, 29.387840)">
                            <path d="M0,69.1985816 L361.846235,69.1985816 L361.846235,71.6413649 C361.846235,82.6870599 352.89193,91.6413649 341.846235,91.6413649 L20,91.6413649 C8.954305,91.6413649 1.3527075e-15,82.6870599 0,71.6413649 L0,69.1985816 Z" id="side" fill="#CAD7F1"></path>
                            <g id="top" transform="translate(0.828023, 0.000000)">
                                <mask id="mask-5" fill="white">
                                    <use xlink:href="#path-4"></use>
                                </mask>
                                <use id="Mask" fill="#EBF1FD" xlink:href="#path-4"></use>
                                <path d="M54.0625403,68.0200627 C76.4604887,68.0200627 96.9432452,55.0959143 99.8120574,39.1531692 C102.68087,23.2104241 89.0443551,10.2862756 69.3540497,10.2862756 C49.6637443,10.2862756 29.1809878,23.2104241 23.6045325,39.1531692 C18.0280773,55.0959143 31.6645919,68.0200627 54.0625403,68.0200627 Z" id="Oval-Copy-2" fill="#CAD7F1" mask="url(#mask-5)"></path>
                                <path d="M124.951464,14.0267395 L309.807733,14.0267395 C313.825293,14.0267395 317.923018,16.642341 318.960257,19.8688489 C319.997496,23.0953569 317.491566,25.7109583 313.363106,25.7109583 L123.404109,25.7109583 C119.275649,25.7109583 116.320209,23.0953569 116.802949,19.8688489 C117.285689,16.642341 120.933904,14.0267395 124.951464,14.0267395 Z" id="Rectangle" fill="#CAD7F1" mask="url(#mask-5)"></path>
                                <path d="M121.967942,33.6641748 L266.018788,33.6641748 C270.219007,33.6641748 274.173946,36.2797763 274.852392,39.5062843 C275.530838,42.7327922 272.585974,45.3483937 268.274856,45.3483937 L120.420587,45.3483937 C116.109469,45.3483937 113.005955,42.7327922 113.488695,39.5062843 C113.971435,36.2797763 117.767724,33.6641748 121.967942,33.6641748 Z" id="Rectangle-Copy" fill="#CAD7F1" mask="url(#mask-5)"></path>
                                <path d="M117.257455,57.0420741 L168.12401,57.0420741 C171.245435,57.0420741 173.745986,58.888381 173.709147,61.165916 C173.672308,63.443451 171.067234,65.2897579 167.890552,65.2897579 L116.123515,65.2897579 C112.946833,65.2897579 110.647861,63.443451 110.988619,61.165916 C111.329377,58.888381 114.13603,57.0420741 117.257455,57.0420741 Z" id="Rectangle-Copy-2" fill="#CAD7F1" opacity="0.5" mask="url(#mask-5)"></path>
                            </g>
                        </g>
                        <g id="1" filter="url(#filter-6)" transform="translate(23.110311, 0.316504)">
                            <path d="M0,69.1985816 L361.846235,69.1985816 L361.846235,71.6413649 C361.846235,82.6870599 352.89193,91.6413649 341.846235,91.6413649 L20,91.6413649 C8.954305,91.6413649 -2.20000618e-15,82.6870599 -3.55271368e-15,71.6413649 L0,69.1985816 Z" id="side" fill="#CAD7F1"></path>
                            <g id="top" transform="translate(0.828023, 0.000000)">
                                <mask id="mask-8" fill="white">
                                    <use xlink:href="#path-7"></use>
                                </mask>
                                <use id="Mask" fill="#EBF1FD" xlink:href="#path-7"></use>
                                <path d="M54.0625403,68.0200627 C76.4604887,68.0200627 96.9432452,55.0959143 99.8120574,39.1531692 C102.68087,23.2104241 89.0443551,10.2862756 69.3540497,10.2862756 C49.6637443,10.2862756 29.1809878,23.2104241 23.6045325,39.1531692 C18.0280773,55.0959143 31.6645919,68.0200627 54.0625403,68.0200627 Z" id="Oval-Copy-2" fill="#CAD7F1" mask="url(#mask-8)"></path>
                                <path d="M124.951464,14.0267395 L309.807733,14.0267395 C313.825293,14.0267395 317.923018,16.642341 318.960257,19.8688489 C319.997496,23.0953569 317.491566,25.7109583 313.363106,25.7109583 L123.404109,25.7109583 C119.275649,25.7109583 116.320209,23.0953569 116.802949,19.8688489 C117.285689,16.642341 120.933904,14.0267395 124.951464,14.0267395 Z" id="Rectangle" fill="#CAD7F1" mask="url(#mask-8)"></path>
                                <path d="M121.967942,33.6641748 L266.018788,33.6641748 C270.219007,33.6641748 274.173946,36.2797763 274.852392,39.5062843 C275.530838,42.7327922 272.585974,45.3483937 268.274856,45.3483937 L120.420587,45.3483937 C116.109469,45.3483937 113.005955,42.7327922 113.488695,39.5062843 C113.971435,36.2797763 117.767724,33.6641748 121.967942,33.6641748 Z" id="Rectangle-Copy" fill="#CAD7F1" mask="url(#mask-8)"></path>
                                <path d="M117.257455,57.0420741 L168.12401,57.0420741 C171.245435,57.0420741 173.745986,58.888381 173.709147,61.165916 C173.672308,63.443451 171.067234,65.2897579 167.890552,65.2897579 L116.123515,65.2897579 C112.946833,65.2897579 110.647861,63.443451 110.988619,61.165916 C111.329377,58.888381 114.13603,57.0420741 117.257455,57.0420741 Z" id="Rectangle-Copy-2" fill="#CAD7F1" opacity="0.5" mask="url(#mask-8)"></path>
                            </g>
                        </g>
                    </g>
                    <g id="top-comment">
                        <path d="M0,69.6555896 L361.705109,69.6555896 L361.705109,72.2465917 C361.705109,83.2922867 352.750804,92.2465917 341.705109,92.2465917 L20,92.2465917 C8.954305,92.2465917 4.90542118e-15,83.2922867 3.55271368e-15,72.2465917 L0,69.6555896 Z" id="side" fill="#C6D5EF"></path>
                        <g id="top" transform="translate(0.827700, 0.000000)">
                            <mask id="mask-10" fill="white">
                                <use xlink:href="#path-9"></use>
                            </mask>
                            <use id="Mask" fill="#EBF1FD" xlink:href="#path-9"></use>
                            <path d="M54.0414549,68.4692875 C76.4306678,68.4692875 96.9054357,55.4597841 99.773129,39.4117484 C102.640822,23.3637127 89.0096263,10.3542093 69.3270004,10.3542093 C49.6443746,10.3542093 29.1696067,23.3637127 23.5953263,39.4117484 C18.021046,55.4597841 31.6522421,68.4692875 54.0414549,68.4692875 Z" id="Oval-Copy-2" fill="#AABFE5" opacity="0.5" mask="url(#mask-10)"></path>
                            <path d="M124.902731,14.1193763 L309.686903,14.1193763 C313.702896,14.1193763 317.799022,16.752252 318.835857,20.0000687 C319.872691,23.2478855 317.367739,25.8807611 313.240889,25.8807611 L123.355979,25.8807611 C119.229129,25.8807611 116.274842,23.2478855 116.757394,20.0000687 C117.239946,16.752252 120.886738,14.1193763 124.902731,14.1193763 Z" id="Rectangle" fill="#AABFE5" opacity="0.5" mask="url(#mask-10)"></path>
                            <path d="M121.920373,33.8865031 L265.915037,33.8865031 C270.113617,33.8865031 274.067014,36.5193788 274.745195,39.7671955 C275.423376,43.0150123 272.479661,45.6478879 268.170224,45.6478879 L120.373621,45.6478879 C116.064184,45.6478879 112.961881,43.0150123 113.444432,39.7671955 C113.926984,36.5193788 117.721792,33.8865031 121.920373,33.8865031 Z" id="Rectangle-Copy" fill="#AABFE5" opacity="0.5" mask="url(#mask-10)"></path>
                            <path d="M117.211723,57.4187969 L168.058439,57.4187969 C171.178646,57.4187969 173.678222,59.2772973 173.641397,61.5698739 C173.604573,63.8624504 171.000515,65.7209509 167.825071,65.7209509 L116.078225,65.7209509 C112.902781,65.7209509 110.604707,63.8624504 110.945332,61.5698739 C111.285956,59.2772973 114.091515,57.4187969 117.211723,57.4187969 Z" id="Rectangle-Copy-2" fill="#A1B8E3" opacity="0.300000012" mask="url(#mask-10)"></path>
                        </g>
                    </g>
                </g>
                <g id="Group">
                    <ellipse id="Oval-25" fill="url(#linearGradient-11)" cx="55" cy="53.5" rx="55" ry="53.5"></ellipse>
                    <path d="M33.4125,52.1282051 L82.5,52.1282051 L82.5,60.3589744 L33.4125,60.3589744 L24.75,60.3589744 L24.75,32.9230769 L33.4125,32.9230769 L33.4125,52.1282051 Z" id="Combined-Shape" fill="#FFFFFF" transform="translate(53.625000, 46.641026) rotate(-45.000000) translate(-53.625000, -46.641026) "></path>
                </g>
            </g>
        </g>
    </g>
</svg>