<?xml version="1.0" encoding="UTF-8"?>
<svg width="508px" height="456px" viewBox="0 0 508 456" version="1.1" xmlns="http://www.w3.org/2000/svg" xmlns:xlink="http://www.w3.org/1999/xlink">
    <!-- Generator: Sketch 52.6 (67491) - http://www.bohemiancoding.com/sketch -->
    <title>Group 25</title>
    <desc>Created with Sketch.</desc>
    <defs>
        <linearGradient x1="0%" y1="30.4176372%" x2="100%" y2="126.728645%" id="linearGradient-1">
            <stop stop-color="#2590E0" offset="0%"></stop>
            <stop stop-color="#42FBFE" offset="100%"></stop>
        </linearGradient>
        <linearGradient x1="78.1178312%" y1="27.0462121%" x2="-424.531174%" y2="542.970059%" id="linearGradient-2">
            <stop stop-color="#F2FDFF" offset="0%"></stop>
            <stop stop-color="#C9F8FF" offset="100%"></stop>
        </linearGradient>
        <linearGradient x1="113.969411%" y1="0%" x2="0%" y2="100%" id="linearGradient-3">
            <stop stop-color="#32C1EE" offset="0%"></stop>
            <stop stop-color="#ABECFF" offset="100%"></stop>
        </linearGradient>
        <linearGradient x1="145.392093%" y1="-47.1373036%" x2="57.0089936%" y2="61.2048856%" id="linearGradient-4">
            <stop stop-color="#1183A8" offset="0%"></stop>
            <stop stop-color="#064261" offset="100%"></stop>
        </linearGradient>
    </defs>
    <g id="Industries" stroke="none" stroke-width="1" fill="none" fill-rule="evenodd">
        <g id="Industry-Template-Copy" transform="translate(-1270.000000, -1924.000000)">
            <g id="Group-25" transform="translate(1263.000000, 1924.000000)">
                <g id="Group-44" transform="translate(312.500000, 328.000000) scale(-1, 1) translate(-312.500000, -328.000000) translate(110.000000, 199.000000)">
                    <g id="Group-42" transform="translate(0.111761, 0.474407)">
                        <g id="Group-10" transform="translate(201.684301, 128.535008) scale(-1, 1) translate(-201.684301, -128.535008) translate(0.184301, 0.535008)">
                            <path d="M267.06814,164.850284 C296.035287,147.806693 295.575613,120.173573 266.041429,103.129982 C236.507245,86.0863905 189.082546,86.0863905 160.115399,103.129982 C131.148251,120.173573 131.607925,147.806693 161.142109,164.850284 C190.676293,181.893875 238.100992,181.893875 267.06814,164.850284 Z" id="Oval-19" fill="#45C0FA" opacity="0.200000003"></path>
                            <path d="M143.673108,251.017457 C135.13085,256.106685 125.191818,256.129443 116.46727,251.082232 L12.9776305,190.986278 C-3.38719616,182.329052 1.46250983,176.921479 1.46250983,162.861792 C1.46250983,160.94895 3.75830787,157.668933 5.23450338,156.372705 L265.776242,17.1524829 C271.083115,13.9977571 277.235171,13.982001 282.646594,17.1122173 L143.673108,251.017457 Z" id="Fill-681" fill="#2F5DBD"></path>
                            <path d="M120.078851,236.422036 C307.65539,127.112437 401.474505,72.5860204 401.536198,72.8427869 C401.998953,74.7720365 402.255502,75.880623 402.319541,78.1687621 C402.345709,79.0843679 402.340695,80.0157298 402.307057,80.9523437 C402.272052,81.8889577 402.208394,82.8290729 402.115967,83.7656869 C401.794509,87.0429603 401.1234,90.2589599 400.151182,92.9620102 C399.874212,93.7358109 399.571904,94.4658446 399.245539,95.1468592 C398.919115,95.8243724 398.569972,96.451116 398.197935,97.0165857 C397.824502,97.5803047 397.430908,98.0827499 397.014217,98.5116666 C396.597526,98.9405833 396.1605,99.297722 395.702906,99.5690775 L143.673108,251.017457 C136.823053,255.098293 129.071003,255.912359 121.77073,253.475412 C126.078546,253.54719 130.123437,252.607075 130.565805,247.146703 C131.098618,240.548389 124.190345,239.485726 120.078851,236.422036 Z" id="Fill-682" fill="#2F5DBD"></path>
                            <path d="M391.793469,64.13059 C405.065819,70.9330656 405.065819,78.5036666 392.195145,86.304706 L146.568892,233.072108 C135.791768,239.561194 122.962096,238.661827 114.237519,233.612865 L12.7029774,174.475613 C-3.38719616,165.024821 -0.692915055,159.076491 12.2929949,151.473425 L261.884123,3.25029213 C269.428111,-1.07576558 280.72123,0.120075845 286.132653,3.25029213 L391.793469,64.13059 Z" id="Fill-683" fill="url(#linearGradient-1)"></path>
                            <path d="M388.296062,72.9695395 C389.39253,73.6051119 389.429548,75.5838141 388.355681,76.2246537 L131.892773,230.564945 C130.755182,231.239144 129.442319,231.242655 128.296062,230.573724 L14.118297,164.105038 C12.8479019,163.3729 12.8099921,161.093969 14.0422653,160.356565 L270.54044,5.99871585 C271.393604,5.49131131 272.378265,5.48955559 273.248223,5.99169295 L388.296062,72.9695395 Z" id="Fill-687" fill="url(#linearGradient-2)"></path>
                            <path d="M215.094745,139.129699 C215.813152,139.546127 215.837406,140.842575 215.133807,141.262453 L209.547398,144.105185 C208.802047,144.54692 207.941858,144.549221 207.190829,144.110936 L132.381446,100.560588 C131.549082,100.080891 131.524243,98.587733 132.33163,98.1045849 L137.941146,95.2503502 C138.50014,94.9178983 139.145291,94.9167479 139.715288,95.2457488 L215.094745,139.129699 Z" id="Fill-687" fill="#8CE1FA"></path>
                            <path d="M200.353432,148.957241 C201.071839,149.373669 201.096093,150.670117 200.392495,151.089995 L194.806085,153.932726 C194.060734,154.374462 193.200545,154.376763 192.449516,153.938478 L117.640133,110.38813 C116.807769,109.908433 116.782931,108.415275 117.590317,107.932127 L123.199833,105.077892 C123.758827,104.74544 124.403978,104.74429 124.973975,105.073291 L200.353432,148.957241 Z" id="Fill-687" fill="#8CE1FA"></path>
                            <g id="Group-29" transform="translate(152.000000, 28.000000)">
                                <g id="Group-51" transform="translate(98.351393, 57.206236) scale(-1, 1) translate(-98.351393, -57.206236) translate(0.851393, 0.206236)">
                                    <polygon id="Rectangle-45" fill="url(#linearGradient-3)" points="0.219469999 55.096121 94.6926817 0.421842579 194.094514 58.868264 99.6213019 113.542542"></polygon>
                                    <path d="M94.3110514,35.3720614 L92.4885723,34.2189555 L98.3946486,33.698007 L137.71049,56.8149877 C130.188818,59.8804056 124.19598,61.0159418 119.731976,60.2215962 L116.520879,58.3335309 L99.4259741,68.2268284 L102.637071,70.1148937 C103.963352,72.725127 101.969259,76.2118502 96.6547915,80.5750635 L57.3389503,57.4580829 L58.278815,54.0170947 L60.2410413,55.089325 L94.3110514,35.3720614 Z" id="Combined-Shape" fill="#299FE5"></path>
                                    <path d="M97.8100697,57.4407523 C86.4082667,64.0392932 67.9819985,63.98887 56.6538478,57.3281288 C45.3256971,50.6673877 40.4654416,41.7891647 55.9500058,32.8278162 C71.4345701,23.8664677 86.6152783,26.7719573 97.943429,33.4326984 C109.27158,40.0934395 109.211873,50.8422114 97.8100697,57.4407523 Z" id="Oval-10" fill="#299FE5"></path>
                                    <path d="M103.072213,73.1982341 L125.049921,60.4791224 C135.374356,56.1282247 145.317541,56.1395254 154.879475,60.5130243 C164.441409,64.8865233 169.848024,68.6898817 171.099319,71.9230996 L122.324514,100.150437 C116.791981,99.3948908 110.315057,96.2109502 102.893742,90.5986155 C95.4724267,84.9862808 95.531917,79.1861537 103.072213,73.1982341 Z" id="Combined-Shape" fill="#84CCFF"></path>
                                    <path d="M108.920155,53.8250949 L118.784301,59.6250285 C120.310527,60.522421 123.118503,60.509454 127.208229,59.5861274 L136.456201,80.0065991 L101.524302,74.4501315 C103.139527,72.0718442 103.184026,70.4340043 101.657799,69.5366118 L91.7936536,63.7366781 L108.920155,53.8250949 Z" id="Combined-Shape" fill="#DCEFFF"></path>
                                    <path d="M61.3173863,35.8263787 C72.4468979,29.3854205 83.578354,29.1982215 96.4794881,38.4586668 C98.5674984,37.2502771 100.771137,37.8608223 103.090405,40.2903024 C105.409672,42.7197825 106.117581,44.2779419 105.214131,44.9647807 C112.397177,50.2886073 113.57466,57.3703607 108.174383,62.7686697 C107.922482,63.0204791 107.564508,63.2276485 107.130852,63.3725899 C97.8341146,66.4798525 85.7037472,65.7368385 76.6344905,61.5046147 C75.44993,62.0261657 72.7845115,61.6008716 68.6382349,60.2287325 C64.4919584,58.8565934 63.4628253,57.566329 65.5508356,56.3579393 C49.7786873,48.7590298 50.1878747,42.267337 61.3173863,35.8263787 Z" id="Combined-Shape" fill="#F0F8FF"></path>
                                    <path d="M86.9511935,37.6294341 C87.4925153,39.2297442 86.9941854,40.9069728 85.3292021,42.2774413 C84.8170826,42.6989733 84.2096043,43.0764998 83.5215847,43.4007934 C80.6317881,44.7629502 77.7545141,46.2729843 74.8897626,47.9308957 C68.3153248,51.7357059 65.5628685,54.8009361 66.6323937,57.1265861 C61.8569772,54.8320728 57.2048167,52.3533605 52.6759121,49.6904492 C45.8825554,45.6960822 52.9729709,37.9694056 56.0651853,36.1798551 L59.799879,34.0184838 C63.2419517,32.0264605 67.9414369,31.1198684 72.6789928,31.327856 L71.4568953,29.5896622 L80.3898499,29.9549449 L92.7234084,33.2360556 L96.7857436,38.3736423 C93.8290735,38.7878033 90.5508902,38.5397339 86.9511935,37.6294341 Z" id="Combined-Shape" fill="#299FE5"></path>
                                    <path d="M101.873832,69.6642437 C104.550906,71.2316508 104.514515,73.5492306 101.764573,76.6170323 C97.6396611,81.2187349 108.054025,95.1221612 128.692059,96.4653619 L105.811296,109.707097 C100.420207,104.984166 96.337568,101.363381 93.5633783,98.8447397 C89.4020937,95.0667784 81.9158265,91.5488342 92.5149865,81.9700258 C99.5810932,75.5841536 102.700679,71.4822427 101.873832,69.6642437 Z" id="Combined-Shape" fill="url(#linearGradient-4)"></path>
                                    <path d="M118.811266,59.8621146 C121.921575,60.3585751 128.977909,58.571398 139.980762,54.5002596 C156.485043,48.393552 162.456209,52.7883274 168.899474,55.2456431 C173.194984,56.8838537 179.369439,59.2940476 187.422838,62.4762248 L164.542074,75.7179596 C162.403214,63.6687718 138.652237,57.4836153 130.731175,59.8532531 C125.450468,61.4330116 121.47733,61.4358576 118.811266,59.8621146 Z" id="Combined-Shape" fill="url(#linearGradient-4)"></path>
                                </g>
                            </g>
                            <path d="M143.265114,251.45207 C143.292244,251.439229 227.337813,200.927103 395.401822,99.9156909 C395.952029,99.5409734 395.958778,99.5357203 395.966893,99.5304673 C398.850972,97.1893582 400.773974,91.8102356 401.591182,85.9530854 C400.458507,89.2835188 398.889106,91.9205496 396.954607,93.0744695 L377.247564,106.13346 L377.268857,107.413453 C377.286537,108.47632 376.820003,109.442881 376.07272,109.88764 L369.184832,113.993773 C368.443999,114.086577 368.06502,113.659329 368.055379,113.079743 L368.031174,111.624648 L347.999574,123.557825 L348.026139,125.154752 C348.044431,126.254391 347.562044,127.254221 346.789047,127.714738 L327.565612,139.164635 C326.051251,139.357247 325.257338,138.478237 325.237414,137.280542 L322.161712,138.951011 L322.191073,140.716036 C322.209395,141.817425 321.733814,142.815505 320.962185,143.276022 L301.73875,154.725919 C300.210717,154.918531 299.430476,154.03952 299.410581,152.843576 L143.086379,245.638695 C138.93048,248.123387 134.426507,249.408633 129.90261,249.496184 C128.772704,253.075262 125.336164,253.615133 121.781506,253.615133 C124.079808,254.523911 127.003714,255.220257 129.792753,255.220257 C134.413809,255.220257 139.01398,253.964778 143.265114,251.45207 Z" id="Fill-708" fill="#224287"></path>
                            <path d="M348.923676,125.503017 C348.942524,126.636041 348.448552,127.666227 347.656874,128.140726 L327.968871,139.938246 C326.887471,140.589555 325.610005,139.555761 325.584074,137.996951 L325.509704,133.526197 C325.495838,132.692667 325.861314,131.934912 326.443617,131.584902 L346.472673,119.581704 C347.561073,118.930396 348.831539,119.96419 348.857469,121.523 L348.923676,125.503017 Z" id="Fill-717" fill="#224287"></path>
                            <path d="M322.683865,140.595139 C322.702743,141.729976 322.215562,142.758367 321.425,143.232869 L301.729901,155.030488 C300.648142,155.683606 299.370195,154.647999 299.344295,153.090981 L299.269893,148.618386 C299.256028,147.784849 299.621638,147.027087 300.204151,146.677074 L320.232051,134.675581 C321.327818,134.022463 322.591726,135.056266 322.617657,136.615089 L322.683865,140.595139 Z" id="Fill-720" fill="#224287"></path>
                            <path d="M378.063456,107.798223 C378.083294,108.990787 377.580284,110.075293 376.773797,110.574324 L369.340216,115.181512 C368.783555,115.525332 368.133857,114.979149 368.120163,114.155946 L368.028685,108.65679 C368.021332,108.214736 368.206586,107.815905 368.504631,107.631224 L376.773958,102.509288 C377.329111,102.163504 377.978841,102.711651 377.992535,103.534854 L378.063456,107.798223 Z" id="Fill-723" fill="#224287"></path>
                        </g>
                    </g>
                </g>
                <g id="Group-9" transform="translate(-0.000000, 0.000000)" fill-rule="nonzero">
                    <g id="ui_elements">
                        <ellipse id="Oval" fill="#52F995" opacity="0.2" transform="translate(24.675802, 223.123757) rotate(-59.690000) translate(-24.675802, -223.123757) " cx="24.6758023" cy="223.123757" rx="23.7777778" ry="13.7283951"></ellipse>
                        <ellipse id="Oval" fill="#52F995" opacity="0.4" transform="translate(38.779012, 231.936543) rotate(-59.826480) translate(-38.779012, -231.936543) " cx="38.7790123" cy="231.936543" rx="23.6538102" ry="13.6568208"></ellipse>
                        <path d="M42.7407407,260.345679 L42.8271605,260.345679 L45.7160494,262 L46.2962963,262.333333 C49.3209877,263.925926 53.4444444,263.567901 57.9753086,260.987654 C67.2962963,255.617284 74.8395062,242.580247 74.8395062,231.901235 C74.8395062,226.592593 72.9753086,222.864198 69.9012346,221.111111 L69.6790123,220.975309 L66.7160494,219.271605 C63.654321,217.45679 59.382716,217.691358 54.6666667,220.407407 C45.345679,225.790123 37.8024691,238.814815 37.8024691,249.506173 C37.9012346,254.864198 39.7407407,258.580247 42.7407407,260.345679 Z" id="Shape" fill="#33EB7D"></path>
                        <path d="M45.1111111,236.703704 L44.962963,237 C42.6061028,241.460113 41.3051675,246.401978 41.1604938,251.444444 C41.1604938,262.135802 48.7037037,266.444444 58.0246914,261.061728 C67.345679,255.679012 74.8888889,242.666667 74.8888889,231.975309 C74.8888889,221.283951 67.3333333,216.987654 58.0246914,222.358025 C54.6887984,224.364494 51.7577214,226.97734 49.382716,230.061728" id="Shape" fill="#52F995"></path>
                        <path d="M240.740741,35.1975309 L99.9135802,116.506173 C97.4444444,117.938272 95.4444444,116.419753 95.4444444,113.135802 L95.4444444,90.4567901 C95.4444444,87.1604938 97.4444444,83.3333333 99.9135802,81.9135802 L240.740741,0.604938272 C243.209877,-0.827160494 245.209877,0.691358025 245.209877,3.98765432 L245.209877,26.654321 C245.148148,29.9506173 243.209877,33.7777778 240.740741,35.1975309 Z" id="Shape" fill="#A0BBFB" opacity="0.2"></path>
                        <path d="M240.740741,80.8518519 L99.9135802,162.160494 C97.4444444,163.580247 95.4444444,162.074074 95.4444444,158.777778 L95.4444444,136.098765 C95.4444444,132.814815 97.4444444,128.987654 99.9135802,127.567901 L240.740741,46.2592593 C243.209877,44.8271605 245.209877,46.345679 245.209877,49.6296296 L245.209877,72.308642 C245.148148,75.6049383 243.209877,79.4320988 240.740741,80.8518519 Z" id="Shape" fill="#A0BBFB" opacity="0.2"></path>
                        <path d="M240.740741,126.506173 L99.9135802,207.814815 C97.4444444,209.234568 95.4444444,207.728395 95.4444444,204.432099 L95.4444444,181.753086 C95.4444444,178.469136 97.4444444,174.641975 99.9135802,173.222222 L240.740741,91.9135802 C243.209877,90.4814815 245.209877,92 245.209877,95.2839506 L245.209877,117.962963 C245.148148,121.259259 243.209877,125.074074 240.740741,126.506173 Z" id="Shape" fill="#A0BBFB" opacity="0.2"></path>
                        <path d="M240.740741,172.160494 L99.9135802,253.469136 C97.4444444,254.888889 95.4444444,253.382716 95.4444444,250.08642 L95.4444444,227.407407 C95.4444444,224.123457 97.4444444,220.296296 99.9135802,218.864198 L240.740741,137.555556 C243.209877,136.135802 245.209877,137.641975 245.209877,140.938272 L245.209877,163.617284 C245.148148,166.91358 243.209877,170.728395 240.740741,172.160494 Z" id="Shape" fill="#A0BBFB" opacity="0.2"></path>
                        <path d="M240.740741,217.802469 L99.9135802,299.123457 C97.4444444,300.54321 95.4444444,299.024691 95.4444444,295.740741 L95.4444444,273.061728 C95.4444444,269.765432 97.4444444,265.950617 99.9135802,264.518519 L240.740741,183.209877 C243.209877,181.790123 245.209877,183.296296 245.209877,186.592593 L245.209877,209.271605 C245.148148,212.555556 243.209877,216.382716 240.740741,217.802469 Z" id="Shape" fill="#A0BBFB" opacity="0.2"></path>
                        <path d="M250.382716,134.888889 L109.54321,216.197531 C107.074074,217.617284 105.074074,216.111111 105.074074,212.814815 L105.074074,190.123457 C105.074074,186.839506 107.074074,183.012346 109.54321,181.592593 L250.382716,100.283951 C252.851852,98.8518519 254.851852,100.37037 254.851852,103.654321 L254.851852,126.333333 C254.851852,129.62963 252.851852,133.45679 250.382716,134.888889 Z" id="Shape" fill="#A0BBFB" opacity="0.2"></path>
                        <path d="M261.481481,140.08642 L120.641975,221.395062 C118.17284,222.814815 116.17284,221.308642 116.17284,218.012346 L116.17284,195.333333 C116.17284,192.049383 118.17284,188.222222 120.641975,186.802469 L261.481481,105.481481 C263.950617,104.061728 265.950617,105.580247 265.950617,108.864198 L265.950617,131.54321 C265.950617,134.839506 263.950617,138.654321 261.481481,140.08642 Z" id="Shape" fill="#38D5F3"></path>
                        <path d="M165.555556,175.061728 L244.111111,129.703704 C245.159968,128.951239 245.791621,127.747436 245.814815,126.45679 C245.814815,125.222222 245.049383,124.62963 244.111111,125.222222 L165.555556,170.580247 C164.506699,171.332712 163.875045,172.536515 163.851852,173.82716 C163.851852,175.024691 164.617284,175.604938 165.555556,175.061728 Z" id="Shape" fill="#004680" opacity="0.5"></path>
                        <path d="M131.530864,207.098765 L210.098765,161.753086 C211.147943,160.996733 211.775653,159.787131 211.790123,158.493827 C211.790123,157.259259 211.037037,156.666667 210.098765,157.259259 L131.530864,202.617284 C130.482007,203.369749 129.850354,204.573552 129.82716,205.864198 C129.82716,207.074074 130.592593,207.641975 131.530864,207.098765 Z" id="Shape" fill="#004680" opacity="0.5"></path>
                        <path d="M130.987654,195.061728 L158.530864,179.160494 C159.582778,178.410692 160.215302,177.205228 160.234568,175.91358 C160.234568,174.679012 159.469136,174.08642 158.530864,174.679012 L130.987654,190.580247 C129.941944,191.334024 129.31466,192.538226 129.296296,193.82716 C129.296296,194.987654 130.049383,195.555556 130.987654,195.061728 Z" id="Shape" fill="#004680" opacity="0.5"></path>
                        <path d="M56.9382716,250.259259 C56.5461787,250.551821 56.0261981,250.608547 55.5802469,250.407407 L50.4320988,247.469136 C49.6790123,247.049383 49.6790123,245.641975 50.4320988,244.333333 C51.1851852,243.024691 52.4197531,242.320988 53.1728395,242.753086 L56.8765432,244.91358 L63.8641975,232.864198 C64.617284,231.555556 65.8395062,230.851852 66.6049383,231.283951 C67.3703704,231.716049 67.3580247,233.111111 66.6049383,234.419753 L58.2469136,248.82716 C57.9369363,249.406178 57.4870743,249.898479 56.9382716,250.259259 Z" id="Shape" fill="#FFFFFF"></path>
                        <path d="M110.580247,210.012346 L79.9382716,227.703704 C79.3580247,228.037037 78.9506173,227.802469 79.037037,227.17284 C79.1951518,226.449041 79.6408104,225.820663 80.2716049,225.432099 L110.91358,207.740741 C111.493827,207.407407 111.901235,207.641975 111.814815,208.271605 C111.662138,208.997792 111.215094,209.628123 110.580247,210.012346 Z" id="Shape" fill="#004680"></path>
                    </g>
                    <g id="comments" transform="translate(103.703704, 77.777778)" fill="#52F995">
                        <path d="M14.3696221,0.860456416 L7.15039282,5.03367003 C3.58810325,7.09016087 0.696969697,12.6056865 0.696969697,17.3554059 L0.696969697,28.03367 L3.70856715,26.3127572 L6.90086046,24.4713805 L14.3696221,20.1690984 C17.9319117,18.1126076 20.8230453,12.5884774 20.8230453,7.83875795 L20.8230453,5.76505799 C20.8230453,0.980920314 17.9319117,-1.20463898 14.3696221,0.860456416 Z M6.29854097,17.2091283 C5.5929667,17.6221474 5.02506547,17.2091283 5.02506547,16.2454171 C5.03987362,15.2778245 5.51229399,14.3744801 6.29854097,13.8103255 C7.00411523,13.405911 7.57201646,13.8103255 7.57201646,14.7740367 C7.55858085,15.7419772 7.08585666,16.6459025 6.29854097,17.2091283 Z M10.600823,14.748223 C9.89524878,15.1526375 9.32734755,14.748223 9.32734755,13.7845118 C9.34078316,12.8165713 9.81350735,11.912646 10.600823,11.3494201 C11.3063973,10.936401 11.8742985,11.3494201 11.8742985,12.3131313 C11.8535091,13.285373 11.3710306,14.1896208 10.5750094,14.748223 L10.600823,14.748223 Z M14.9031051,12.2787131 C14.1975309,12.6831276 13.6296296,12.2787131 13.6296296,11.3150019 C13.6430652,10.3470614 14.1157894,9.44313604 14.9031051,8.87991021 C15.6086794,8.4754957 16.1765806,8.87991021 16.1765806,9.8436214 C16.1512549,10.8209356 15.6583649,11.7267009 14.8514777,12.2787131 L14.9031051,12.2787131 Z" id="Shape"></path>
                    </g>
                </g>
            </g>
        </g>
    </g>
</svg>