<?xml version="1.0" encoding="UTF-8"?>
<svg width="559px" height="258px" viewBox="0 0 559 258" version="1.1" xmlns="http://www.w3.org/2000/svg" xmlns:xlink="http://www.w3.org/1999/xlink">
    <!-- Generator: Sketch 52.6 (67491) - http://www.bohemiancoding.com/sketch -->
    <title>Group 6</title>
    <desc>Created with Sketch.</desc>
    <defs>
        <linearGradient x1="50%" y1="41.0252934%" x2="50%" y2="142.119577%" id="linearGradient-1">
            <stop stop-color="#9B24AF" offset="0%"></stop>
            <stop stop-color="#621077" offset="100%"></stop>
        </linearGradient>
        <linearGradient x1="24.701355%" y1="139.766419%" x2="21.4923199%" y2="-102.531778%" id="linearGradient-2">
            <stop stop-color="#FFFFFF" offset="0%"></stop>
            <stop stop-color="#F0F0F0" offset="100%"></stop>
        </linearGradient>
        <linearGradient x1="183.098299%" y1="-148.684228%" x2="50%" y2="100%" id="linearGradient-3">
            <stop stop-color="#FFA6D2" offset="0%"></stop>
            <stop stop-color="#E45555" offset="100%"></stop>
        </linearGradient>
        <linearGradient x1="133.94389%" y1="-98.918069%" x2="50%" y2="100%" id="linearGradient-4">
            <stop stop-color="#FFA6D2" offset="0%"></stop>
            <stop stop-color="#E45555" offset="100%"></stop>
        </linearGradient>
        <linearGradient x1="50%" y1="0%" x2="50%" y2="100%" id="linearGradient-5">
            <stop stop-color="#FFA6D2" offset="0%"></stop>
            <stop stop-color="#E45555" offset="100%"></stop>
        </linearGradient>
        <linearGradient x1="191.277763%" y1="-73.7623288%" x2="1.11022302e-14%" y2="100%" id="linearGradient-6">
            <stop stop-color="#FFA6D2" offset="0%"></stop>
            <stop stop-color="#E45555" offset="100%"></stop>
        </linearGradient>
        <linearGradient x1="239.591318%" y1="-211.024131%" x2="50%" y2="100%" id="linearGradient-7">
            <stop stop-color="#FFA6D2" offset="0%"></stop>
            <stop stop-color="#E45555" offset="100%"></stop>
        </linearGradient>
    </defs>
    <g id="Industries" stroke="none" stroke-width="1" fill="none" fill-rule="evenodd">
        <g id="Industry-Template-Copy" transform="translate(-1219.000000, -777.000000)">
            <g id="Group-6" transform="translate(1219.000000, 777.000000)">
                <g id="Group-29">
                    <path d="M91.2295948,207.23378 L241.116758,119.773204 L326.947555,166.399503 C330.552358,168.497883 330.536174,171.914172 326.911407,174.029998 L187.442961,255.439636 C183.818194,257.555462 177.95747,257.569604 174.352667,255.471224 L91.2295948,207.23378 Z" id="Rectangle-38" fill-opacity="0.5" fill="url(#linearGradient-1)"></path>
                    <path d="M5.60177501,149.736987 L142.358629,69.9369596 C145.983396,67.8211337 151.84412,67.8069913 155.448923,69.9053717 L241.116758,119.773204 L91.2334626,207.235314 L5.5656272,157.367482 C1.96082422,155.269102 1.97700815,151.852813 5.60177501,149.736987 Z" id="Rectangle-38" fill-opacity="0.5" fill="url(#linearGradient-1)"></path>
                    <path d="M88.5218701,203.661692 L241.116758,114.589971 L326.784594,164.457803 C330.389397,166.556184 330.373213,169.972473 326.748446,172.088299 L187.28,253.497937 C183.655233,255.613763 177.794509,255.627905 174.189706,253.529525 L88.5218701,203.661692 Z" id="Rectangle-38" fill="url(#linearGradient-2)"></path>
                    <path d="M2.89018249,146.163364 L142.358629,64.7537268 C145.983396,62.6379008 151.84412,62.6237584 155.448923,64.7221389 L241.116758,114.589971 L88.5218701,203.661692 L2.85403468,153.79386 C-0.750768301,151.69548 -0.734584372,148.27919 2.89018249,146.163364 Z" id="Rectangle-38" fill="url(#linearGradient-2)"></path>
                    <polygon id="Rectangle-39" fill="url(#linearGradient-1)" points="165.946428 171.881203 306.235277 89.9926854 307.051161 90.4676172 166.762312 172.356135"></polygon>
                    <polygon id="Rectangle-39" fill="url(#linearGradient-1)" points="169.209965 173.78093 309.498813 91.8924124 310.314697 92.3673441 170.025849 174.255862"></polygon>
                    <path d="M164.436644,99.4950223 L189.68048,84.7598504 C190.628335,84.2065746 192.160879,84.2028765 193.103513,84.7515903 C194.046147,85.3003042 194.041915,86.1936433 193.094061,86.746919 L167.850225,101.482091 C166.90237,102.035367 165.369826,102.039065 164.427192,101.490351 C163.484557,100.941637 163.488789,100.048298 164.436644,99.4950223 Z" id="Rectangle-42" fill="url(#linearGradient-3)"></path>
                    <path d="M232.313727,65.9320534 L257.557563,51.1968816 C258.505417,50.6436058 260.037961,50.6399077 260.980596,51.1886215 C261.92323,51.7373354 261.918998,52.6306745 260.971143,53.1839502 L235.727307,67.9191221 C234.779453,68.4723979 233.246909,68.476096 232.304274,67.9273822 C231.36164,67.3786683 231.365872,66.4853292 232.313727,65.9320534 Z" id="Rectangle-42" fill="url(#linearGradient-1)"></path>
                    <path d="M173.676321,104.873501 L207.935838,84.8757533 C208.883693,84.3224775 210.416237,84.3187794 211.358871,84.8674932 C212.301506,85.4162071 212.297274,86.3095462 211.349419,86.862822 L177.089902,106.86057 C176.142047,107.413846 174.609503,107.417544 173.666869,106.86883 C172.724234,106.320116 172.728466,105.426777 173.676321,104.873501 Z" id="Rectangle-42" fill="url(#linearGradient-1)"></path>
                    <path d="M181.162269,109.231123 L269.594756,57.6118722 C270.54261,57.0585965 272.075154,57.0548983 273.017789,57.6036122 C273.960423,58.152326 273.956191,59.0456651 273.008336,59.5989409 L184.57585,111.218192 C183.627995,111.771467 182.095451,111.775165 181.152817,111.226452 C180.210182,110.677738 180.214414,109.784399 181.162269,109.231123 Z" id="Rectangle-42" fill="url(#linearGradient-4)"></path>
                    <path d="M188.913169,113.742974 L232.858934,88.0912303 C233.806789,87.5379545 235.339333,87.5342564 236.281968,88.0829702 C237.224602,88.6316841 237.22037,89.5250232 236.272515,90.0782989 L192.326749,115.730043 C191.378895,116.283319 189.84635,116.287017 188.903716,115.738303 C187.961082,115.189589 187.965314,114.29625 188.913169,113.742974 Z" id="Rectangle-42" fill="url(#linearGradient-1)"></path>
                    <path d="M239.292705,84.3357502 L277.345655,62.1237237 C278.29351,61.5704479 279.826054,61.5667498 280.768688,62.1154637 C281.711322,62.6641775 281.70709,63.5575166 280.759236,64.1107924 L242.706286,86.3228189 C241.758431,86.8760947 240.225887,86.8797928 239.283253,86.331079 C238.340619,85.7823651 238.344851,84.889026 239.292705,84.3357502 Z" id="Rectangle-42" fill="url(#linearGradient-1)"></path>
                    <polygon id="Rectangle-45" fill="url(#linearGradient-5)" points="112.894497 137.800316 156.375836 112.419664 202.881233 139.490773 159.399894 164.871425"></polygon>
                    <path d="M156.426481,128.625943 L155.573298,128.091808 L158.310449,127.848461 L176.704464,138.555743 C173.234221,139.979431 170.460816,140.507784 168.384247,140.140802 L166.881927,139.266291 L159.013989,143.858914 L160.516309,144.733425 C161.148739,145.94337 160.246156,147.560742 157.80856,149.58554 L139.414545,138.878258 L139.828242,137.282413 L140.745743,137.779004 L156.426481,128.625943 Z" id="Combined-Shape" fill="url(#linearGradient-1)"></path>
                    <path d="M160.738314,146.163016 L170.853565,140.258606 C175.615973,138.238003 180.229897,138.240234 184.695335,140.265301 C189.160773,142.290368 191.69434,144.052322 192.296035,145.551163 L169.847408,158.654733 C167.275272,158.306065 164.249095,156.831655 160.768878,154.231501 C157.28866,151.631347 157.278472,148.941852 160.738314,146.163016 Z" id="Combined-Shape" fill="url(#linearGradient-5)"></path>
                    <path d="M163.325653,137.178062 L167.940618,139.864465 C168.654667,140.280117 169.957543,140.273255 171.849247,139.843878 L176.273559,149.309905 L160.028208,146.74398 C160.76221,145.640697 160.772187,144.881229 160.058138,144.465576 L155.443173,141.779173 L163.325653,137.178062 Z" id="Combined-Shape" fill="#DCEFFF"></path>
                    <path d="M158.193895,138.857977 C152.94621,141.921123 144.3957,141.903317 139.095796,138.818207 C133.795892,135.733097 131.482781,131.617799 138.609559,127.457802 C145.736337,123.297804 152.799441,124.640466 158.099345,127.725576 C163.399249,130.810686 163.44158,135.794832 158.193895,138.857977 Z" id="Oval-10" fill="url(#linearGradient-1)"></path>
                    <path d="M141.119676,128.84659 C146.242039,125.856596 151.406052,125.766426 157.452793,130.056524 C158.413801,129.495571 159.440315,129.778009 160.532334,130.90384 C161.624354,132.029671 161.962991,132.751964 161.548247,133.070719 C164.916022,135.537166 165.508542,138.820568 163.037873,141.325358 C162.922626,141.442197 162.757869,141.538368 162.557588,141.605708 C158.263949,143.049336 152.630359,142.708476 148.394454,140.748768 C147.848191,140.990966 146.608609,140.794566 144.675707,140.15957 C142.742806,139.524573 142.256859,138.926598 143.217867,138.365645 C135.84974,134.846858 135.997313,131.836583 141.119676,128.84659 Z" id="Combined-Shape" fill="#F0F8FF"></path>
                    <path d="M153.026058,129.674898 C153.28767,130.416786 153.067363,131.194656 152.303705,131.830636 C152.068817,132.026252 151.789394,132.201492 151.472252,132.352073 C150.1402,132.98457 148.814922,133.685632 147.496419,134.45526 C144.470531,136.221513 143.213305,137.64367 143.724741,138.721734 C141.493895,137.659229 139.319043,136.511276 137.200183,135.277874 C134.021894,133.42777 137.261653,129.84282 138.684846,129.012083 L140.403741,128.008741 C141.987956,127.084013 144.16271,126.662211 146.362393,126.75722 L145.783988,125.951601 L149.931449,126.118278 L155.675863,127.635973 L157.594348,130.017006 C156.225089,130.209944 154.702325,130.095908 153.026058,129.674898 Z" id="Combined-Shape" fill="url(#linearGradient-1)"></path>
                    <path d="M160.159263,144.524656 C161.411646,145.250678 161.40986,146.325334 160.153818,147.748684 C158.269754,149.883708 163.192833,156.327475 172.778074,156.944064 L162.247192,163.091083 C159.714838,160.902726 157.796814,159.225029 156.49312,158.057992 C154.537579,156.307438 151.040869,154.678458 155.896691,150.233627 C159.133907,147.270406 160.554734,145.367435 160.159263,144.524656 Z" id="Combined-Shape" fill="url(#linearGradient-1)"></path>
                    <path d="M167.954898,139.974245 C169.40116,140.203656 172.663804,139.37282 177.742837,137.481733 C185.361385,134.645103 188.160769,136.681122 191.166593,137.818613 C193.170475,138.576939 196.051258,139.692661 199.808942,141.165777 L189.27806,147.312796 C188.207073,141.726322 177.145811,138.865496 173.48571,139.966676 C171.045642,140.700796 169.20204,140.703318 167.954898,139.974245 Z" id="Combined-Shape" fill="url(#linearGradient-1)"></path>
                    <path d="M15.9459388,69.7866596 L133.263514,1.30678791 C134.622802,0.513353184 136.820573,0.508049792 138.172374,1.29494246 L148.778868,7.46905502 C150.130669,8.25594768 150.1246,9.53705616 148.765313,10.3304909 L31.4477376,78.8103626 C30.08845,79.6037973 27.8906784,79.6091007 26.5388773,78.822208 L15.9323833,72.6480955 C14.5805822,71.8612028 14.5866512,70.5800943 15.9459388,69.7866596 Z" id="Rectangle-50" fill="url(#linearGradient-6)"></path>
                    <path d="M35.857037,81.3770459 L89.5996507,50.006748 C90.9589382,49.2133132 93.1567099,49.2080098 94.508511,49.9949025 L123.149767,66.6671733 C124.501568,67.454066 124.495499,68.7351744 123.136212,69.5286092 L69.3935979,100.898907 C68.0343103,101.692342 65.8365387,101.697645 64.4847376,100.910753 L35.8434816,84.2384818 C34.4916804,83.4515891 34.4977494,82.1704806 35.857037,81.3770459 Z" id="Rectangle-50" fill="#FFACBA"></path>
                    <path d="M168.802155,76.4355128 L170.009788,75.7306011 C170.797374,75.2708761 170.878663,74.6907689 170.160685,74.2728289 C169.416599,73.8396912 168.434574,73.8954738 167.646987,74.3551988 L166.439355,75.0601105 L168.802155,76.4355128 Z M171.995175,76.6414592 L170.564392,77.4766263 L173.8932,79.4143478 L171.819222,80.624957 L162.563832,75.2373314 L166.068592,73.1915551 C167.9588,72.088215 170.498462,72.051565 172.221609,73.0546208 C173.970864,74.0728745 173.885382,75.5381192 171.995175,76.6414592 Z M185.511559,72.6325525 L182.962314,71.929076 L179.365669,74.0284869 L180.576017,75.5134959 L178.397028,76.7854018 L172.646398,69.3519999 L175.048537,67.9498386 L187.769308,71.3146741 L185.511559,72.6325525 Z M176.112181,70.0074822 L178.168447,72.5358159 L180.426195,71.2179375 L176.112181,70.0074822 Z M188.465766,62.7660882 L187.123977,64.1580604 C186.627558,63.9456069 185.542112,63.7269443 184.413238,64.3858835 C183.638778,64.8379464 183.622977,65.4102652 184.132088,65.7066226 C184.575929,65.9649854 185.177938,65.9940544 185.938621,65.6870025 L187.420608,65.0958849 C189.519031,64.2514763 191.573593,64.3762354 192.892062,65.1437251 C194.341072,65.9872038 194.595431,67.5584542 192.377063,68.8533463 C189.80428,70.3551147 187.043782,70.0336684 185.607103,69.3503985 L187.053542,67.9734346 C187.98082,68.4213911 189.30247,68.5173972 190.575735,67.7741751 C191.389575,67.2991259 191.496755,66.7799995 190.922372,66.4456475 C190.452423,66.1720869 189.732349,66.1967157 188.997919,66.4884434 L187.489679,67.0948852 C185.614261,67.8395603 183.611699,67.7909798 182.241013,66.9930945 C180.491758,65.9748409 180.813588,64.3564177 182.598784,63.3143743 C184.922164,61.9581855 187.185376,62.2503101 188.465766,62.7660882 Z M196.605619,58.0147451 L195.26383,59.4067173 C194.767411,59.1942637 193.681965,58.9756011 192.553091,59.6345403 C191.778631,60.0866033 191.762829,60.658922 192.271941,60.9552794 C192.715782,61.2136423 193.317791,61.2427112 194.078474,60.9356593 L195.560461,60.3445417 C197.658884,59.5001331 199.713446,59.6248923 201.031914,60.3923819 C202.480925,61.2358607 202.735284,62.807111 200.516915,64.1020032 C197.944133,65.6037715 195.183635,65.2823253 193.746956,64.5990553 L195.193395,63.2220914 C196.120673,63.6700479 197.442323,63.766054 198.715588,63.0228319 C199.529427,62.5477827 199.636607,62.0286563 199.062225,61.6943044 C198.592276,61.4207437 197.872201,61.4453725 197.137771,61.7371003 L195.629532,62.343542 C193.754113,63.0882172 191.751551,63.0396367 190.380866,62.2417514 C188.63161,61.2234977 188.953441,59.6050745 190.738637,58.5630312 C193.062017,57.2068424 195.325228,57.498967 196.605619,58.0147451 Z M202.306669,56.8784701 L203.514302,56.1735585 C204.301888,55.7138334 204.383177,55.1337262 203.665199,54.7157863 C202.921113,54.2826486 201.939088,54.3384311 201.151501,54.7981561 L199.943869,55.5030678 L202.306669,56.8784701 Z M205.499689,57.0844166 L204.068907,57.9195837 L207.397714,59.8573052 L205.323736,61.0679144 L196.068346,55.6802888 L199.573106,53.6345124 C201.463314,52.5311724 204.002976,52.4945224 205.726123,53.4975782 C207.475378,54.5158319 207.389896,55.9810765 205.499689,57.0844166 Z M210.496425,52.6458743 C212.428438,53.7705127 214.681415,53.4598597 215.980933,52.7013135 C217.267324,51.9504293 217.797153,50.6367205 215.865139,49.5120822 C213.933126,48.3874438 211.667095,48.6904979 210.380704,49.441382 C209.081186,50.1999283 208.564411,51.521236 210.496425,52.6458743 Z M208.356742,53.910055 C205.419559,52.2003007 205.745077,49.803567 208.370365,48.2711502 C210.982527,46.7463956 215.093747,46.5533451 218.03093,48.2630994 C220.955059,49.9652547 220.629541,52.3619885 218.017379,53.8867431 C215.392091,55.4191598 211.280871,55.6122103 208.356742,53.910055 Z M228.757352,47.3893925 L223.643999,46.3563655 L222.908918,46.7854422 L226.355213,48.7915538 L224.281235,50.002163 L215.025845,44.6145374 L218.714376,42.4614919 C220.552078,41.3888002 222.986655,41.4287079 224.631478,42.3861702 C225.884676,43.1156654 226.141927,44.0764761 225.404605,44.9786435 L231.041353,46.05619 L228.757352,47.3893925 Z M221.133555,45.7519907 L222.354314,45.0394169 C223.207532,44.5413815 223.197009,43.9996479 222.544301,43.6197025 C221.852431,43.2169604 220.962219,43.2343694 220.109,43.7324048 L218.888241,44.4449786 L221.133555,45.7519907 Z M232.435176,36.7505109 L229.560485,38.4285072 L236.844699,42.6686977 L234.770721,43.8793069 L227.486507,39.6391164 L224.624943,41.3094506 L222.653767,40.1620155 L230.464,35.6030758 L232.435176,36.7505109 Z" id="PASSPORT" fill="url(#linearGradient-1)"></path>
                    <path d="M95.2507745,123.836026 L120.49461,109.100854 C121.442465,108.547578 122.975009,108.54388 123.917644,109.092594 C124.860278,109.641308 124.856046,110.534647 123.908191,111.087923 L98.6643553,125.823094 C97.7165005,126.37637 96.1839564,126.380068 95.2413221,125.831355 C94.2986878,125.282641 94.3029198,124.389302 95.2507745,123.836026 Z" id="Rectangle-42" fill="url(#linearGradient-7)"></path>
                    <path d="M101.226915,127.314778 L135.486432,107.31703 C136.434287,106.763754 137.966831,106.760056 138.909465,107.30877 C139.852099,107.857484 139.847867,108.750823 138.900013,109.304099 L104.640496,129.301847 C103.692641,129.855122 102.160097,129.858821 101.217463,129.310107 C100.274828,128.761393 100.27906,127.868054 101.226915,127.314778 Z" id="Rectangle-42" fill="url(#linearGradient-1)"></path>
                </g>
                <g id="Group-12" transform="translate(330.000000, 19.000000)">
                    <path d="M3.49685677,112.034753 L135.247322,40.4406513 C138.694841,38.4784241 144.383748,38.5267168 147.953852,40.5485162 L227.575295,82.8288315 C228.53294,83.7744887 229.007809,84.6950345 228.999903,85.5904689 C228.988722,86.8567554 228.150992,88.1074421 226.478009,89.0596555 L93.8294724,164.559349 C90.381954,166.521576 84.6930471,166.473283 81.1229429,164.451484 L2.74396835,120.064386 C0.90273732,119.021671 -0.0153369106,117.657677 0.000193772768,116.311966 C0.014776723,115.048375 1.82734759,112.984989 3.49685677,112.034753 Z" id="Rectangle-38" fill-opacity="0.5" fill="url(#linearGradient-1)"></path>
                    <path d="M2.52200693,110.478747 L135.170534,34.4507325 C138.618052,32.4747743 144.306959,32.5234049 147.877063,34.5593522 L226.256032,79.2570557 C229.826136,81.2930029 229.925511,84.5452949 226.477993,86.5212531 L93.8294657,162.549267 C90.3819476,164.525226 84.693041,164.476595 81.1229372,162.440648 L2.74396815,117.742944 C-0.826135705,115.706997 -0.92551113,112.454705 2.52200693,110.478747 Z" id="Rectangle-38" fill="url(#linearGradient-2)"></path>
                    <path d="M104.991628,67.5938542 L145.925016,44.5600248 C147.280547,43.7972477 149.517369,43.8160205 150.921099,44.6019551 C152.324828,45.3878897 152.363902,46.6433687 151.008372,47.4061458 L110.074984,70.4399752 C108.719453,71.2027523 106.482631,71.1839795 105.078901,70.3980449 C103.675172,69.6121103 103.636098,68.3566313 104.991628,67.5938542 Z" id="Rectangle-42" fill-opacity="0.2" fill="url(#linearGradient-1)"></path>
                    <polygon id="Rectangle-39" fill="url(#linearGradient-5)" points="21 75.5448052 154.193395 0 155 0.455194751 21.8066049 76"></polygon>
                    <path d="M25.0303685,68.6571923 L19.2099459,72 L10,66.7370603 L11.9819543,65.5987766 L19.2304025,69.7408364 L23.0688709,67.5363123 L25.0303685,68.6571923 Z M28.4562783,66.6896106 L26.449236,67.8423029 L17.2392901,62.5793631 L19.2463324,61.4266708 L28.4562783,66.6896106 Z M34.8116339,63.2628312 C32.252655,64.7325139 28.2858992,64.8228357 25.415098,63.1823425 C22.5442968,61.5418493 22.7031836,59.2180655 25.1868985,57.7916087 C27.8587735,56.2570871 30.8175478,56.5968377 32.4310453,57.1882889 L31.1725195,58.6106168 C30.3980229,58.3261351 28.7553681,58.034217 27.1873663,58.9347579 C25.9956849,59.6191689 25.5367988,60.894799 27.4723163,62.0008329 C29.1999931,62.9880981 31.4295404,62.8536486 32.7592059,62.0899899 C34.3021197,61.2038577 33.8515922,60.2421559 33.3647158,59.76272 L35.8174342,58.9940576 C36.8019468,59.8872156 37.571317,61.6778793 34.8116339,63.2628312 Z M45.9830539,56.6235648 L40.3382475,59.8655119 L31.1283016,54.6025722 L36.7605641,51.3678294 L38.6960816,52.4738633 L35.0457734,54.5703224 L36.7994302,55.5724337 L40.11105,53.6704913 L41.9166671,54.7022948 L38.6050473,56.6042371 L40.3716942,57.6137714 L44.0345464,55.5101079 L45.9830539,56.6235648 Z M55.5178987,51.1474759 L53.4230483,52.3505985 L43.7068325,50.9951224 L49.7601961,54.4542619 L47.7907858,55.5853412 L38.58084,50.3224015 L40.9892907,48.9391707 L49.9247103,50.2221527 L44.3259985,47.0228198 L46.3079528,45.8845361 L55.5178987,51.1474759 Z M56.7483128,42.4781245 L55.4866648,43.7980608 C54.995273,43.5891219 53.9291418,43.3679481 52.8503566,43.9875202 C52.1102597,44.4125755 52.114219,44.9609926 52.620831,45.2504914 C53.0624927,45.502875 53.6506683,45.5371603 54.3822355,45.2509557 L55.8077377,44.7001595 C57.8259309,43.9131515 59.8341463,44.0546536 61.1461414,44.8043813 C62.5880371,45.6283394 62.8893194,47.137146 60.769381,48.3546773 C58.3107542,49.7667254 55.6073206,49.429162 54.1828754,48.7589006 L55.5471057,47.4544666 C56.4667231,47.8937386 57.7590926,47.9998619 58.975862,47.3010422 C59.7535909,46.8543739 59.8405619,46.3579181 59.2689997,46.0313041 C58.8013578,45.7640744 58.0998401,45.7800007 57.393361,46.0517966 L55.9427707,46.6170015 C54.1387178,47.3107907 52.1838007,47.2428629 50.8198454,46.463443 C49.0791786,45.4687548 49.3383075,43.9208779 51.0442935,42.9410894 C53.264584,41.6659236 55.4819784,41.9700766 56.7483128,42.4781245 Z M71,42.2557354 L65.3551935,45.4976825 L56.1452477,40.2347428 L61.7775101,37 L63.7130277,38.1060339 L60.0627195,40.202493 L61.8163763,41.2046043 L65.1279961,39.3026619 L66.9336131,40.3344654 L63.6219933,42.2364077 L65.3886402,43.245942 L69.0514924,41.1422785 L71,42.2557354 Z" id="DRIVER-LICENSE" fill="url(#linearGradient-1)"></path>
                    <path d="M76.9947982,51.5568585 L99.9055969,38.5661075 C101.26546,37.7950455 103.509433,37.8140222 104.91765,38.6084932 C106.325867,39.4029642 106.365065,40.6720795 105.005202,41.4431415 L82.0944031,54.4338925 C80.7345397,55.2049545 78.4905672,55.1859778 77.0823502,54.3915068 C75.6741332,53.5970358 75.6349349,52.3279205 76.9947982,51.5568585 Z" id="Rectangle-42" fill-opacity="0.2" fill="url(#linearGradient-1)"></path>
                    <path d="M140.994798,20.5568585 L163.905597,7.56610748 C165.26546,6.79504547 167.509433,6.81402221 168.91765,7.60849323 C170.325867,8.40296424 170.365065,9.67207951 169.005202,10.4431415 L146.094403,23.4338925 C144.73454,24.2049545 142.490567,24.1859778 141.08235,23.3915068 C139.674133,22.5970358 139.634935,21.3279205 140.994798,20.5568585 Z" id="Rectangle-42" fill-opacity="0.2" fill="url(#linearGradient-1)"></path>
                    <path d="M85.9755121,57.5509158 L117.023749,39.5670846 C118.357249,38.7946917 120.557717,38.8137012 121.938633,39.6095435 C123.319549,40.4053857 123.357988,41.6766914 122.024488,42.4490842 L90.9762513,60.4329154 C89.6427515,61.2053083 87.4422827,61.1862988 86.0613667,60.3904565 C84.6804508,59.5946143 84.6420123,58.3233086 85.9755121,57.5509158 Z" id="Rectangle-42" fill-opacity="0.2" fill="url(#linearGradient-1)"></path>
                    <path d="M94.9802529,61.6085991 L177.994705,14.5576005 C179.334686,13.7981254 181.545848,13.8168169 182.933475,14.5993493 C184.321102,15.3818817 184.359727,16.6319257 183.019747,17.3914009 L100.005295,64.4423995 C98.6653143,65.2018746 96.4541517,65.1831831 95.0665248,64.4006507 C93.6788978,63.6181183 93.6402726,62.3680743 94.9802529,61.6085991 Z" id="Rectangle-42" fill-opacity="0.4" fill="url(#linearGradient-5)"></path>
                    <path d="M82.9808316,105.650224 L134.99116,76.5507567 C136.331931,75.8006031 138.544399,75.8190653 139.932846,76.5919931 C141.321292,77.3649209 141.35994,78.5996223 140.019168,79.3497759 L88.0088399,108.449243 C86.6680685,109.199397 84.4556005,109.180935 83.0671544,108.408007 C81.6787082,107.635079 81.6400602,106.400378 82.9808316,105.650224 Z" id="Rectangle-42" fill-opacity="0.2" fill="url(#linearGradient-1)"></path>
                    <path d="M141.984706,71.5124648 L184.967425,46.5734065 C186.313492,45.7924029 188.5347,45.8116243 189.92863,46.6163387 C191.322561,47.4210532 191.361362,48.7065316 190.015294,49.4875352 L147.032575,74.4265935 C145.686508,75.2075971 143.4653,75.1883757 142.07137,74.3836613 C140.677439,73.5789468 140.638638,72.2934684 141.984706,71.5124648 Z" id="Rectangle-42" fill-opacity="0.4" fill="url(#linearGradient-5)"></path>
                    <path d="M193.967227,42.6602989 L210.074506,33.5491002 C211.39668,32.8012028 213.57846,32.8196094 214.947648,33.5902126 C216.316835,34.3608158 216.354947,35.5918037 215.032773,36.3397011 L198.925494,45.4508998 C197.60332,46.1987972 195.42154,46.1803906 194.052352,45.4097874 C192.683165,44.6391842 192.645053,43.4081963 193.967227,42.6602989 Z" id="Rectangle-42" fill-opacity="0.4" fill="url(#linearGradient-5)"></path>
                    <path d="M152.984637,40.5640085 L187.96785,20.5649319 C189.313822,19.7954711 191.534873,19.8144084 192.928706,20.6072296 C194.322538,21.4000508 194.361336,22.6665306 193.015363,23.4359915 L158.03215,43.4350681 C156.686178,44.2045289 154.465127,44.1855916 153.071294,43.3927704 C151.677462,42.5999492 151.638664,41.3334694 152.984637,40.5640085 Z" id="Rectangle-42" fill-opacity="0.2" fill="url(#linearGradient-1)"></path>
                    <polygon id="Rectangle-45" fill="url(#linearGradient-5)" points="28 78.7177879 69.6328992 55 116 81.2822121 74.3671008 105"></polygon>
                    <path d="M70.5316241,70.7310515 L69.6664237,70.2057201 L72.3747279,70 L91,80.544681 C87.6047392,81.8831273 84.8702676,82.3638701 82.7965854,81.9869095 L81.2753777,81.1256791 L73.6244488,85.4790988 L75.1456565,86.3403291 C75.8150317,87.516348 74.9749036,89.0695716 72.6252721,91 L54,80.455319 L54.3556383,78.9176393 L55.2833835,79.4073824 L70.5316241,70.7310515 Z" id="Combined-Shape" fill="url(#linearGradient-1)"></path>
                    <path d="M72.2788453,80.8601512 C67.1351768,83.8072657 58.5802553,83.6964699 53.1708934,80.6126819 C47.7615315,77.5288938 45.3045219,73.4672792 52.2900369,69.4648611 C59.2755518,65.4624429 66.388403,66.8564482 71.7977649,69.9402362 C77.2071268,73.0240243 77.4225139,77.9130368 72.2788453,80.8601512 Z" id="Oval-10" fill="url(#linearGradient-1)"></path>
                    <path d="M75.3763973,87.9288376 L84.9998781,82.377044 C89.5563402,80.4909885 94.0367798,80.5423468 98.4411971,82.5311188 C102.845614,84.5198907 105.365215,86.2358465 106,87.678986 L84.6427506,100 C82.1333205,99.6383449 79.1450582,98.1927603 75.6779636,95.6632461 C72.2108691,93.1337319 72.1103469,90.5555958 75.3763973,87.9288376 Z" id="Combined-Shape" fill="url(#linearGradient-5)"></path>
                    <path d="M77.6892293,79 L82.3769445,81.6762226 C83.1022495,82.0903001 84.3992232,82.0977655 86.2678655,81.6986189 L91,91 L74.7366366,88.3150249 C75.4293273,87.244526 75.4130202,86.5022377 74.6877152,86.0881602 L70,83.4119377 L77.6892293,79 Z" id="Combined-Shape" fill="#DCEFFF"></path>
                    <path d="M55.4846137,70.07706 C60.4534974,67.1225707 65.5632518,67.0896293 71.6974865,71.4789642 C72.6297,70.9246717 73.6557479,71.2206885 74.7756302,72.3670145 C75.8955125,73.5133405 76.2556118,74.244725 75.8559279,74.5611679 C79.2750808,77.0834499 79.9745429,80.3975644 77.6144111,82.8930207 C77.5043205,83.0094238 77.3444994,83.1044531 77.1485163,83.170041 C72.9470163,84.576119 67.3575274,84.1696056 63.0962562,82.1480456 C62.5637267,82.3858951 61.3296773,82.1741598 59.3941082,81.5128397 C57.4585391,80.8515196 56.9568613,80.2437133 57.8890747,79.6894208 C50.4730465,76.0622381 50.5157299,73.0315493 55.4846137,70.07706 Z" id="Combined-Shape" fill="#F0F8FF"></path>
                    <path d="M67.5544721,70.5809152 C67.8333824,71.2820564 67.6457513,72.0120208 66.9259621,72.6027207 C66.7045676,72.7844096 66.4392606,72.9464501 66.1365122,73.0848816 C64.8649199,73.6663474 63.6022122,74.3124309 62.3483891,75.023132 C59.4709381,76.6541497 58.2985693,77.9797723 58.8312829,79 C56.6302258,77.9764062 54.4806378,76.8729587 52.3825191,75.6896577 C49.2353409,73.9147062 52.2591185,70.5738402 53.6124959,69.8067091 L55.2470689,68.8801886 C56.7535697,68.0262629 58.8501898,67.6519696 60.9884123,67.7644541 L60.3998747,67 L64.4310355,67.2003565 L70.0577104,68.6892689 L72,70.9508292 C70.6774886,71.1181127 69.1956459,70.994808 67.5544721,70.5809152 Z" id="Combined-Shape" fill="url(#linearGradient-1)"></path>
                    <path d="M74.2451625,86 C75.4939062,86.7164544 75.5286111,87.7570052 74.349239,89.121674 C72.5801807,91.1686772 77.6105272,97.4611108 87,98.1614304 L76.9156675,104 C74.3663355,101.853765 72.4347662,100.208613 71.1209599,99.0645446 C69.1502503,97.3484419 65.6773347,95.73345 70.2726306,91.4819256 C73.3361612,88.647576 74.6603257,86.8202747 74.2451625,86 Z" id="Combined-Shape" fill="url(#linearGradient-1)"></path>
                    <path d="M82,80.6414286 C83.4136007,80.8797578 86.5566098,80.1080037 91.429244,78.326023 C98.7381953,75.6530521 101.527644,77.6609751 104.487431,78.7983546 C106.460623,79.5566076 109.298145,80.6714907 113,82.1430037 L102.972143,88 C101.742811,82.562069 90.8956539,79.6636702 87.3754661,80.6937236 C85.0286743,81.3804259 83.2369245,81.3629464 82,80.6414286 Z" id="Combined-Shape" fill="url(#linearGradient-1)"></path>
                </g>
            </g>
        </g>
    </g>
</svg>