<?xml version="1.0" encoding="UTF-8"?>
<svg width="37px" height="34px" viewBox="0 0 37 34" version="1.1" xmlns="http://www.w3.org/2000/svg" xmlns:xlink="http://www.w3.org/1999/xlink">
    <!-- Generator: Sketch 52.4 (67378) - http://www.bohemiancoding.com/sketch -->
    <title>No Fees</title>
    <desc>Created with Sketch.</desc>
    <defs>
        <linearGradient x1="50%" y1="0%" x2="85.5823797%" y2="101.978298%" id="linearGradient-1">
            <stop stop-color="#D9EDFF" offset="0%"></stop>
            <stop stop-color="#9DCEF8" offset="100%"></stop>
        </linearGradient>
        <linearGradient x1="20.295881%" y1="5.49026908%" x2="100%" y2="100%" id="linearGradient-2">
            <stop stop-color="#2C59D6" offset="0%"></stop>
            <stop stop-color="#1D2F76" offset="100%"></stop>
        </linearGradient>
        <linearGradient x1="14.4068422%" y1="12.1669573%" x2="61.3296973%" y2="100%" id="linearGradient-3">
            <stop stop-color="#F4FAFF" offset="0%"></stop>
            <stop stop-color="#9DCEF8" offset="100%"></stop>
        </linearGradient>
        <linearGradient x1="15.2523332%" y1="6.14617099%" x2="8.87502662%" y2="100%" id="linearGradient-4">
            <stop stop-color="#2D5CDD" offset="0%"></stop>
            <stop stop-color="#1D2F76" offset="100%"></stop>
        </linearGradient>
    </defs>
    <g id="About-Us" stroke="none" stroke-width="1" fill="none" fill-rule="evenodd">
        <g transform="translate(-963.000000, -2316.000000)" id="No-Fees">
            <g transform="translate(963.000000, 2317.000000)">
                <polygon id="Path-2" fill="url(#linearGradient-1)" fill-rule="nonzero" opacity="0.5" points="3.27287946 31.2607422 4.75641741 32.7537667 20.5791016 25.8354492 18.4935826 6.93819754 14.0606864 4.13811384 0.31375558 11.3172433"></polygon>
                <circle id="Oval-7" stroke="url(#linearGradient-2)" stroke-width="1.5" fill="#FFFFFF" fill-rule="nonzero" cx="24" cy="12" r="12"></circle>
                <path d="M17.6799316,20.0134277 C18.682587,17.8351935 17.9926366,16.1623847 15.4400718,15.0508018 L11.2111597,13.3046642 C9.84110454,12.7390138 8.27129578,12.9721254 7.12442307,13.9115315 L3.23529025,17.0971294 L3.12218444,18.2313532 L2.93999196,27.5080145 L2.93999196,27.9265137 L7.64541414,27.9265137 L17.2419537,31.8467246 C18.4525628,32.1907005 20.9541585,32.4333675 21.9604209,31.67706 C28.283552,26.9242383 32.5084324,23.7149411 33.1482516,23.1200249 C34.6993243,21.6778076 35.3099853,20.0742874 34.2047888,18.4936104 C33.3114622,17.2159545 31.8049058,17.0796543 29.937644,17.9250233 L20.855957,22.5438866 L16.3935547,21.513916 C16.7228114,21.2299824 17.469055,20.4715499 17.6799316,20.0134277 Z" id="path" fill="url(#linearGradient-3)" fill-rule="nonzero"></path>
                <path d="M17.2970231,21.1908474 L20.6087668,22.246119 L30.6987585,17.0326354 C32.7230024,16.1111004 34.3279804,16.2571123 35.2750041,17.6190975 C36.449768,19.3086126 35.798031,21.029508 34.1185657,22.5997894 C33.3957303,23.2756325 29.364713,26.4331041 21.9148039,32.1625163 C21.1777984,32.7292893 20.2043214,32.885306 19.3271155,32.5772304 L7.78427592,28.5233733 L2.93408203,28.5233733 C2.51986847,28.5233733 2.18408203,28.1875868 2.18408203,27.7733733 C2.18408203,27.3591597 2.51986847,27.0233733 2.93408203,27.0233733 L7.91214792,27.0233733 C7.99678525,27.0233733 8.08081204,27.0376995 8.16066774,27.0657449 L19.8241551,31.1619737 C20.2228863,31.3020085 20.6653832,31.2310906 21.0003806,30.9734705 C28.3590813,25.3142027 32.4272263,22.1276493 33.0941193,21.5041117 C34.2965509,20.3798515 34.6742338,19.382589 34.0434581,18.4754235 C33.5866304,17.8184257 32.7584601,17.7430834 31.3538435,18.3815126 L21.0213914,23.7213178 C20.8446654,23.8126497 20.6388943,23.8300294 20.4493531,23.769633 L13.4037588,21.5245874 C12.9531032,21.411178 12.4772692,21.2593832 11.9770812,21.0699833 L10.6325324,20.6415491 C10.2466196,20.5185798 10.029632,20.1124684 10.1377788,19.7255307 C10.1450563,19.6386254 10.1677269,19.5515248 10.2071518,19.4680245 C10.384002,19.0934623 10.8310101,18.933185 11.2055723,19.1100352 C11.6328232,19.3117624 12.0354211,19.486505 12.414051,19.6349113 L13.9600231,20.127528 C15.6008636,20.5043092 16.5914464,20.1621442 17.0351487,19.1988928 C17.7246896,17.7019404 17.1803611,16.6455163 15.1376558,15.7564397 L9.5834555,13.464904 C9.15820237,13.2894543 8.67094748,13.3617593 8.31496824,13.6531381 L3.26452218,17.7870668 C2.94399287,18.0494289 2.47146607,18.002275 2.20910403,17.6817457 C1.946742,17.3612163 1.99389589,16.8886896 2.31442519,16.6263275 L7.36487125,12.4923988 C8.14802559,11.8513654 9.21998635,11.6922944 10.1555432,12.0782837 L15.722969,14.3754248 C18.4899377,15.57953 19.4740452,17.4894702 18.3975584,19.8264593 C18.1251777,20.4177817 17.7567323,20.8710628 17.2970231,21.1908474 Z" id="Combined-Shape" fill="url(#linearGradient-4)"></path>
                <polygon id="path-66" stroke="url(#linearGradient-2)" stroke-width="1.5" fill="url(#linearGradient-3)" fill-rule="nonzero" points="1.0189209 12.008667 4.03222656 12.008667 4.03222656 32 1.0189209 32"></polygon>
                <path d="M21.0054497,7.0012207 L25.985064,7.0012207 C26.5373487,7.0012207 26.985064,7.44893595 26.985064,8.0012207 L26.985064,10.0539856 C26.985064,10.6062704 26.5373487,11.0539856 25.985064,11.0539856 L22.0054497,11.0539856 C21.453165,11.0539856 21.0054497,11.5017009 21.0054497,12.0539856 L21.0054497,13.9842601 C21.0054497,14.5365449 21.453165,14.9842601 22.0054497,14.9842601 L27.0100098,14.9842601" id="path-2" stroke="#668EFF" stroke-width="1.5" stroke-linecap="round" stroke-linejoin="round" transform="translate(24.007730, 10.992740) scale(-1, 1) translate(-24.007730, -10.992740) "></path>
                <path d="M23.9995117,6.94726562 L23.9995117,5.05114746" id="Path-13" stroke="#668EFF" stroke-width="1.5" stroke-linecap="round" stroke-linejoin="round"></path>
                <path d="M23.9995117,16.9472656 L23.9995117,15.0511475" id="Path-13" stroke="#668EFF" stroke-width="1.5" stroke-linecap="round" stroke-linejoin="round"></path>
            </g>
        </g>
    </g>
</svg>