<?xml version="1.0" encoding="UTF-8"?>
<svg width="179px" height="267px" viewBox="0 0 179 267" version="1.1" xmlns="http://www.w3.org/2000/svg" xmlns:xlink="http://www.w3.org/1999/xlink">
    <!-- Generator: Sketch 53 (72520) - https://sketchapp.com -->
    <title>rocket</title>
    <desc>Created with Sketch.</desc>
    <defs>
        <linearGradient x1="155394.011%" y1="31858.7084%" x2="155690.478%" y2="19812.7626%" id="linearGradient-1">
            <stop stop-color="#7AB4F4" offset="0%"></stop>
            <stop stop-color="#DFEDFA" offset="100%"></stop>
        </linearGradient>
        <linearGradient x1="32.2703426%" y1="0%" x2="59.0172437%" y2="76.8724474%" id="linearGradient-2">
            <stop stop-color="#5648D6" offset="0%"></stop>
            <stop stop-color="#9FDDFF" offset="100%"></stop>
        </linearGradient>
        <linearGradient x1="392908%" y1="39784%" x2="395855%" y2="39784%" id="linearGradient-3">
            <stop stop-color="#E5EDF6" offset="0%"></stop>
            <stop stop-color="#E6F0FA" offset="100%"></stop>
        </linearGradient>
        <linearGradient x1="-133.206517%" y1="45.0771042%" x2="143.178214%" y2="52.6458052%" id="linearGradient-4">
            <stop stop-color="#5648D6" offset="0%"></stop>
            <stop stop-color="#9FDDFF" offset="100%"></stop>
        </linearGradient>
        <linearGradient x1="28.8872285%" y1="0%" x2="60.737884%" y2="76.8724474%" id="linearGradient-5">
            <stop stop-color="#5648D6" offset="0%"></stop>
            <stop stop-color="#9FDDFF" offset="100%"></stop>
        </linearGradient>
        <linearGradient x1="130400.115%" y1="13504.4928%" x2="130529.048%" y2="12700.3985%" id="linearGradient-6">
            <stop stop-color="#7AB4F4" offset="0%"></stop>
            <stop stop-color="#DFEDFA" offset="100%"></stop>
        </linearGradient>
        <linearGradient x1="133626.252%" y1="14227.2552%" x2="133726.796%" y2="13680.0427%" id="linearGradient-7">
            <stop stop-color="#7AB4F4" offset="0%"></stop>
            <stop stop-color="#DFEDFA" offset="100%"></stop>
        </linearGradient>
        <linearGradient x1="-127.473495%" y1="0%" x2="140.262418%" y2="76.8724474%" id="linearGradient-8">
            <stop stop-color="#5648D6" offset="0%"></stop>
            <stop stop-color="#9FDDFF" offset="100%"></stop>
        </linearGradient>
        <linearGradient x1="245944.765%" y1="42933.6277%" x2="244363.828%" y2="37503.6174%" id="linearGradient-9">
            <stop stop-color="#7AB4F4" offset="0%"></stop>
            <stop stop-color="#DFEDFA" offset="100%"></stop>
        </linearGradient>
        <linearGradient x1="252950.679%" y1="40865.705%" x2="250697.532%" y2="37943.8904%" id="linearGradient-10">
            <stop stop-color="#7AB4F4" offset="0%"></stop>
            <stop stop-color="#DFEDFA" offset="100%"></stop>
        </linearGradient>
        <linearGradient x1="392105%" y1="63941%" x2="392295%" y2="60831%" id="linearGradient-11">
            <stop stop-color="#7AB4F4" offset="0%"></stop>
            <stop stop-color="#DFEDFA" offset="100%"></stop>
        </linearGradient>
    </defs>
    <g id="Page-1" stroke="none" stroke-width="1" fill="none" fill-rule="evenodd">
        <g id="Rapid-ID-Home-Bio-Verif-Copy-7" transform="translate(-1897.000000, -2969.000000)">
            <g id="rocket" transform="translate(1897.000000, 2969.000000)">
                <path d="M80.83,73 C79.59,83.73 79.35,88.66 84.53,110.12 C87.85,89.65 87.98,86.81 86.62,73 L80.83,73 Z" id="Shape" fill="#DCE7F2" fill-rule="nonzero"></path>
                <path d="M82,73 C81.25,78.27 81.1,80.7 84.27,91.25 C86.27,81.18 86.38,79.79 85.55,73 L82,73 Z" id="Shape" fill="#FFFFFF" fill-rule="nonzero"></path>
                <path d="M100.58,254 C95.08,254 90,249.6 89.49,244.39 L89.39,243.39 L88.44,243.72 C87.6335155,244.002537 86.7845311,244.144598 85.93,244.14 C82.7039408,244.175841 79.7424132,242.360836 78.31,239.47 L77.96,238.67 L77.19,239.12 C73.5635093,241.116384 69.1232698,240.907704 65.7,238.58 L65.4,238.38 C66.6645656,237.570948 67.7640327,236.529169 68.64,235.31 C71.9804094,237.255795 76.0599519,237.449881 79.57,235.83 C81.3161227,238.632228 84.3882873,240.330999 87.69,240.32 C88.3394902,240.318277 88.9867841,240.244493 89.62,240.1 C90.9117848,245.529929 95.7290045,249.387002 101.31,249.46 L102.06,249.46 C105.99099,249.117082 109.507282,246.877405 111.48,243.46 C111.38,248.67 106.66,253.58 101.25,253.96 C101,254 100.8,254 100.58,254 Z M126.98,250.14 C122.436822,250.168194 118.350829,247.380479 116.72,243.14 L116.54,242.64 L116,242.64 C114.821175,242.645863 113.649233,242.460109 112.53,242.09 L112.22,241.98 C112.655735,240.908711 112.915743,239.774128 112.99,238.62 C113.692528,238.784285 114.409087,238.881389 115.13,238.91 C117.010751,243.184718 121.249901,245.934862 125.92,245.91 C131.725902,245.997137 136.689147,241.749662 137.5,236 C139.014292,235.733853 140.395016,234.966002 141.42,233.82 C142.095028,233.064384 142.581624,232.159725 142.84,231.18 C144.223879,233.190661 144.045954,235.888499 142.41,237.7 C141.42832,238.799411 140.05954,239.476635 138.59,239.59 L137.91,239.65 L137.91,240.3 C137.441453,245.947424 132.665777,250.259102 127,250.15 L126.98,250.14 Z M44.8,244.43 C42.5814522,244.439065 40.4261518,243.691236 38.69,242.31 L38.25,241.97 L37.77,242.25 C36.9361564,242.757409 35.9935123,243.059055 35.02,243.13 L34.54,243.13 C31.4020507,243.162359 28.7549998,240.801241 28.43,237.68 C28.2965268,236.110678 28.8218155,234.556548 29.88,233.39 C30.6234559,232.543174 31.5903606,231.92283 32.67,231.6 C32.6199592,232.055296 32.6199592,232.514704 32.67,232.97 C33.047732,236.64335 36.1676244,239.420445 39.86,239.37 C40.059867,239.380316 40.260133,239.380316 40.46,239.37 C41.4107282,239.296405 42.3380068,239.038262 43.19,238.61 C46.3471892,240.86403 50.4726214,241.246015 53.99,239.61 C54.7420033,239.926051 55.5268288,240.157474 56.33,240.3 C57.0424018,240.432344 57.76541,240.499289 58.49,240.5 C60.5832071,240.483785 62.6415444,239.96234 64.49,238.98 C62.2805719,242.344808 58.5152514,244.359254 54.49,244.33 C53.8192397,244.331104 53.1497842,244.270853 52.49,244.15 C51.6310441,243.988579 50.7949064,243.723298 50,243.36 L49.64,243.2 L49.29,243.38 C47.8983479,244.083789 46.3594755,244.447086 44.8,244.44 L44.8,244.43 Z" id="Shape" fill="#DCE7F2" fill-rule="nonzero"></path>
                <path d="M130.88,235.27 C129.6111,235.888641 128.499685,236.788032 127.63,237.9 C123.556493,235.909508 118.728294,236.257076 114.981891,238.810503 C111.235487,241.363929 109.146687,245.730761 109.51,250.25" id="Shape" stroke="#004680" stroke-width="1.4" stroke-linecap="round" stroke-linejoin="round"></path>
                <path d="M133,234.55 L132.72,234.62" id="Shape" stroke="#004680" stroke-width="1.4" stroke-linecap="round" stroke-linejoin="round"></path>
                <path d="M67.78,235.21 C71.4245379,229.515559 71.0031197,222.125127 66.7348921,216.881889 C62.4666646,211.638651 55.3154355,209.726582 49,212.14 C55.4056466,207.742796 64.1137012,208.997637 69.0172265,215.024506 C73.9207518,221.051375 73.3781733,229.832631 67.77,235.21 L67.78,235.21 Z" id="Shape" fill="#DCE7F2" fill-rule="nonzero"></path>
                <path d="M110.63,234.3 C109.76087,232.386091 108.349217,230.769296 106.57,229.65 C101.375112,226.425841 94.5504339,228.019012 91.32,233.21 C90.5918987,234.362013 90.0770287,235.635639 89.8,236.97 C89.7402899,234.825571 90.3217576,232.712093 91.47,230.9 C94.5466847,225.946645 101.055878,224.42455 106.01,227.5 C108.423615,229.030742 110.095983,231.492237 110.63,234.3 L110.63,234.3 Z" id="Shape" fill="#DCE7F2" fill-rule="nonzero"></path>
                <path d="M120.91,225.93 C120.399928,224.801631 119.568635,223.848601 118.52,223.19 C116.685628,222.085387 114.429817,221.937795 112.467155,222.793976 C110.504493,223.650158 109.078165,225.404028 108.64,227.5 C108.606941,226.233406 108.955346,224.986115 109.64,223.92 C111.456779,221.004697 115.290471,220.11002 118.21,221.92 C119.621317,222.830365 120.597317,224.279906 120.91,225.93 Z" id="Shape" fill="#DCE7F2" fill-rule="nonzero"></path>
                <path d="M87.69,208.5 C86.5210851,208.095952 85.2599312,208.040364 84.06,208.34 C81.9916021,208.902903 80.3254223,210.435279 79.5917358,212.449438 C78.8580492,214.463596 79.1482577,216.708615 80.37,218.47 C79.4293601,217.629183 78.7637848,216.524537 78.46,215.3 C78.0404522,213.703265 78.2739822,212.005189 79.1089882,210.580988 C79.9439942,209.156787 81.3117392,208.123699 82.91,207.71 C84.5441682,207.304597 86.2731726,207.590353 87.69,208.5 L87.69,208.5 Z" id="Shape" fill="#DCE7F2" fill-rule="nonzero"></path>
                <circle id="Oval" fill="#FFB8B8" fill-rule="nonzero" cx="42.18" cy="163.16" r="2.12"></circle>
                <circle id="Oval" fill="#A4FDD4" fill-rule="nonzero" cx="16.96" cy="195.36" r="1.97"></circle>
                <circle id="Oval" fill="#FFB8B8" fill-rule="nonzero" cx="169.2" cy="226.17" r="1.76"></circle>
                <circle id="Oval" fill="#7AB4F4" fill-rule="nonzero" cx="177.61" cy="203.14" r="1.09"></circle>
                <circle id="Oval" fill="#A4FDD4" fill-rule="nonzero" cx="126.61" cy="173.14" r="1.09"></circle>
                <circle id="Oval" fill="#A0BBFB" fill-rule="nonzero" cx="52.28" cy="177.96" r="1.42"></circle>
                <circle id="Oval" fill="#A0BBFB" fill-rule="nonzero" cx="14.61" cy="214.14" r="1.09"></circle>
                <circle id="Oval" fill="#FFB8B8" fill-rule="nonzero" cx="33.61" cy="194.14" r="1.09"></circle>
                <circle id="Oval" fill="#A4FDD4" fill-rule="nonzero" cx="3.61" cy="173.14" r="1.09"></circle>
                <path d="M72,166.59 C70.7941396,174.575234 69.0501685,182.469877 66.78,190.22 C65.49,194.54 63.14,199.49 58.66,200.01 C55.306812,196.344504 49.9264067,195.353384 45.4872023,197.583451 C41.0479978,199.813517 38.6311273,204.721655 39.57,209.6 C33.8832253,211.632328 30.2177546,217.171262 30.57,223.2 C30.8338486,225.861388 31.9010969,228.379536 33.63,230.42 L33.4,230.42 L32.84,230.42 C28.9500146,230.728206 26.0452842,234.12974 26.35,238.02 C26.6493634,241.674974 29.6829982,244.500588 33.35,244.54 L33.92,244.54 C35.0374756,244.460639 36.1203117,244.117969 37.08,243.54 C40.3988159,246.279784 45.0430065,246.745782 48.84,244.72 C49.7174736,245.128649 50.6407072,245.430798 51.59,245.62 C56.7845795,246.514211 61.9961941,244.132666 64.72,239.62 C68.4463976,242.281661 73.384441,242.520157 77.35,240.23 C79.336013,244.519462 84.2161376,246.645925 88.71,245.18 C89.3462182,251.694736 95.0592484,256.515045 101.588135,256.04579 C108.117022,255.576534 113.081985,249.988759 112.78,243.45 C114.005551,243.872699 115.293614,244.085686 116.59,244.08 C118.494425,249.433772 123.90809,252.703652 129.533042,251.897659 C135.157994,251.091667 139.435607,246.433137 139.76,240.76 C143.370116,240.442041 146.048527,237.272588 145.76,233.66 C145.509271,230.759167 143.403233,228.357474 140.56,227.73 C140.926642,226.936727 141.214684,226.109443 141.42,225.26 C142.596976,219.987431 140.715169,214.500439 136.55,211.06 C134.22,209.19 134.32,209.3 133.61,206.37 C132.421814,201.417912 128.538642,197.5616 123.578425,196.407815 C118.618209,195.25403 113.431746,197.000674 110.18,200.92 C103.05,199.57 101.78,190.26 101.18,186.92 C97.72,167.21 94.39,148.75 92.79,129.68 C88.57,79.44 91.58,65.83 84.94,65.83 C80.94,65.83 77.94,74.2 77.94,75.83 C77.81,84.19 77.34,92.54 76.85,100.89 C75.75,119.56 75.37,138.89 73.09,157.79 L72,166.59 Z" id="Shape" fill="url(#linearGradient-1)" fill-rule="nonzero"></path>
                <path d="M72.61,162.17 C72.61,162.35 72.56,162.53 72.54,162.7" id="Shape"></path>
                <path d="M80.83,73 C79.59,83.73 79.35,88.66 84.53,110.12 C87.85,89.65 87.98,86.81 86.62,73 L80.83,73 Z" id="Shape" fill="#FFFFFF" fill-rule="nonzero" opacity="0.3"></path>
                <path d="M82,73 C81.25,78.27 81.1,80.7 84.27,91.25 C86.27,81.18 86.38,79.79 85.55,73 L82,73 Z" id="Shape" fill="#FFFFFF" fill-rule="nonzero"></path>
                <path d="M66.38,51.46 L66.08,48.91 C65.4863295,44.4126276 66.5917265,39.8555393 69.18,36.13 L74.35,29.18 C73.07,41.71 73,48.11 76.04,56.05 C74.005074,57.975274 71.857987,59.7784264 69.61,61.45 C68.68,62.13 67.53,61.36 67.37,59.95 L67.11,57.71" id="Shape" fill="url(#linearGradient-2)" fill-rule="nonzero"></path>
                <path d="M97.07,28.36 C98.6072611,35.6962816 98.9684354,43.2303091 98.14,50.68 C97.8236461,54.3828986 97.2455343,58.0587544 96.41,61.68 C96.11,62.91 95.78,64.12 95.41,65.3 C94.7838999,67.2683374 93.9526678,69.1654237 92.93,70.96 C92.6978048,71.3665527 92.4441118,71.7604444 92.17,72.14 C88.17,77.75 80.78,80.04 75.44,72.14 C74.0581833,70.0211598 72.9809835,67.7186452 72.24,65.3 L72.18,65.12 C71.0878108,61.5630436 70.3180376,57.9149884 69.88,54.22 C69.73,53.05 69.6,51.87 69.49,50.69 C68.12,36.18 70.26,25.28 75.43,14.45 L76.14,12.99 C77.42,10.43 78.88,7.87 80.49,5.25 C81.5188486,3.5951992 82.6302517,1.99317664 83.82,0.45 C85.38,2.51 86.39,4.01 87.15,5.25 C88.6833333,7.71666667 90.0633333,10.16 91.29,12.58 C91.59,13.17 91.89,13.76 92.17,14.36 C93,16.11 93.76,17.85 94.44,19.62" id="Shape" fill="url(#linearGradient-3)" fill-rule="nonzero"></path>
                <path d="M92.16,71.94 C88.16,77.71 80.77,80.07 75.43,71.94 C78.1479391,72.7522419 80.9735269,73.1467452 83.81,73.11 C86.6358609,73.13482 89.4497874,72.7405333 92.16,71.94 L92.16,71.94 Z" id="Shape" fill="url(#linearGradient-4)" fill-rule="nonzero"></path>
                <path d="M95,45.61 C94.66,58.25 93.91,64.61 89.9,71.68 C91.6545311,74.0542431 93.5373309,76.330962 95.54,78.5 C96.37,79.39 97.6,78.9 97.94,77.55 L100.62,66.98 C101.759667,62.5143686 101.259359,57.7880544 99.21,53.66 L95,45.61 Z" id="Shape" fill="url(#linearGradient-5)" fill-rule="nonzero"></path>
                <path d="M78.31,39.92 C76.64,42.8 73.93,42.78 72.31,39.87 C70.6404252,36.5761523 70.6404252,32.6838477 72.31,29.39 C73.98,26.51 76.69,26.53 78.36,29.44 C79.5237148,31.7539202 79.8759059,34.3918314 79.36,36.93" id="Shape" fill="url(#linearGradient-6)" fill-rule="nonzero"></path>
                <path d="M72.75,46.1 C73.4,44.4 74.86,44.18 76.01,45.59 C77.2012567,47.2181084 77.5465678,49.3159665 76.94,51.24 C76.29,52.94 74.83,53.17 73.67,51.75 C73.0949248,50.9935131 72.7138283,50.1077211 72.56,49.17" id="Shape" fill="url(#linearGradient-7)" fill-rule="nonzero"></path>
                <path d="M92.16,14.35 C87.3443047,18.4467326 80.2794665,18.4847156 75.42,14.44 L76.13,12.98 C77.41,10.42 78.87,7.86 80.48,5.24 C81.5088486,3.5851992 82.6202517,1.98317664 83.81,0.44 C85.37,2.5 86.38,4 87.14,5.24 C88.6733333,7.70666667 90.0533333,10.15 91.28,12.57 C91.58,13.16 91.88,13.75 92.16,14.35 Z" id="Shape" fill="url(#linearGradient-8)" fill-rule="nonzero"></path>
                <path d="M100.58,254 C95.08,254 90,249.6 89.49,244.39 L89.39,243.39 L88.44,243.72 C87.6335155,244.002537 86.7845311,244.144598 85.93,244.14 C82.7039408,244.175841 79.7424132,242.360836 78.31,239.47 L77.96,238.67 L77.19,239.12 C73.5635093,241.116384 69.1232698,240.907704 65.7,238.58 L65.4,238.38 C66.6645656,237.570948 67.7640327,236.529169 68.64,235.31 C71.9804094,237.255795 76.0599519,237.449881 79.57,235.83 C81.3161227,238.632228 84.3882873,240.330999 87.69,240.32 C88.3394902,240.318277 88.9867841,240.244493 89.62,240.1 C90.9117848,245.529929 95.7290045,249.387002 101.31,249.46 L102.06,249.46 C105.99099,249.117082 109.507282,246.877405 111.48,243.46 C111.38,248.67 106.66,253.58 101.25,253.96 C101,254 100.8,254 100.58,254 Z M126.98,250.14 C122.436822,250.168194 118.350829,247.380479 116.72,243.14 L116.54,242.64 L116,242.64 C114.821175,242.645863 113.649233,242.460109 112.53,242.09 L112.22,241.98 C112.655735,240.908711 112.915743,239.774128 112.99,238.62 C113.692528,238.784285 114.409087,238.881389 115.13,238.91 C117.010751,243.184718 121.249901,245.934862 125.92,245.91 C131.725902,245.997137 136.689147,241.749662 137.5,236 C139.014292,235.733853 140.395016,234.966002 141.42,233.82 C142.095028,233.064384 142.581624,232.159725 142.84,231.18 C144.223879,233.190661 144.045954,235.888499 142.41,237.7 C141.42832,238.799411 140.05954,239.476635 138.59,239.59 L137.91,239.65 L137.91,240.3 C137.441453,245.947424 132.665777,250.259102 127,250.15 L126.98,250.14 Z M44.8,244.43 C42.5814522,244.439065 40.4261518,243.691236 38.69,242.31 L38.25,241.97 L37.77,242.25 C36.9361564,242.757409 35.9935123,243.059055 35.02,243.13 L34.54,243.13 C31.4020507,243.162359 28.7549998,240.801241 28.43,237.68 C28.2965268,236.110678 28.8218155,234.556548 29.88,233.39 C30.6234559,232.543174 31.5903606,231.92283 32.67,231.6 C32.6199592,232.055296 32.6199592,232.514704 32.67,232.97 C33.047732,236.64335 36.1676244,239.420445 39.86,239.37 C40.059867,239.380316 40.260133,239.380316 40.46,239.37 C41.4107282,239.296405 42.3380068,239.038262 43.19,238.61 C46.3471892,240.86403 50.4726214,241.246015 53.99,239.61 C54.7420033,239.926051 55.5268288,240.157474 56.33,240.3 C57.0424018,240.432344 57.76541,240.499289 58.49,240.5 C60.5832071,240.483785 62.6415444,239.96234 64.49,238.98 C62.2805719,242.344808 58.5152514,244.359254 54.49,244.33 C53.8192397,244.331104 53.1497842,244.270853 52.49,244.15 C51.6310441,243.988579 50.7949064,243.723298 50,243.36 L49.64,243.2 L49.29,243.38 C47.8983479,244.083789 46.3594755,244.447086 44.8,244.44 L44.8,244.43 Z" id="Shape" fill="#FFFFFF" fill-rule="nonzero" opacity="0.3"></path>
                <path d="M15.37,234.93 C12.9575651,234.942905 10.7091186,236.153319 9.37,238.16 L8.95,238.16 C7.62028742,238.18621 6.35580818,238.741107 5.43624657,239.701955 C4.51668496,240.662803 4.01782241,241.950418 4.05,243.28 C4.0520303,243.66358 4.09561803,244.045811 4.18,244.42 C2.15830212,244.739251 0.688179031,246.510216 0.746488984,248.556135 C0.804798936,250.602054 2.3734009,252.286413 4.41,252.49 C5.54380059,252.478421 6.60344544,251.924432 7.26,251 C7.73233807,251.196251 8.23851762,251.298166 8.75,251.3 C10.2282741,251.273071 11.5805804,250.461687 12.3,249.17 C13.259929,249.634938 14.3134112,249.874365 15.38,249.87 C19.5000439,249.87 22.8399991,246.530044 22.8399991,242.41 C22.8399991,238.289956 19.5000439,234.95 15.38,234.95 L15.37,234.93 Z" id="Shape" fill="url(#linearGradient-9)" fill-rule="nonzero"></path>
                <path d="M18.88,236.56 C18.7,236.44 18.48,236.67 18.62,236.83 C19.620694,238.004463 20.1702146,239.497032 20.17,241.04 C20.2088961,244.543235 17.4031756,247.416078 13.9,247.46 C13.0386551,247.46123 12.1867512,247.280627 11.4,246.93 C11.3167044,246.891209 11.2175624,246.921382 11.17,247 C10.5284171,248.043056 9.39455141,248.6818 8.17,248.69 C7.77741737,248.68692 7.38833414,248.61587 7.02,248.48 C6.95725277,248.434936 6.87274723,248.434936 6.81,248.48 C6.24079643,249.213577 5.36842975,249.64792 4.44,249.66 C3.04562898,249.629028 1.83191965,248.698517 1.44,247.36 C1.42836141,247.328645 1.39844564,247.307839 1.365,247.307839 C1.33155436,247.307839 1.30163859,247.328645 1.29,247.36 C1.11146639,248.388767 1.38082693,249.444809 2.03029904,250.262379 C2.67977114,251.07995 3.64751315,251.581202 4.69,251.64 C5.70380171,251.632498 6.65825319,251.1608 7.28,250.36 C7.33036301,250.297746 7.41435028,250.27375 7.49,250.3 C7.89240004,250.453077 8.31946856,250.531034 8.75,250.53 C10.0710592,250.511508 11.290366,249.816918 11.98,248.69 C12.0275624,248.611382 12.1267044,248.581209 12.21,248.62 C13.0696579,249.001406 13.9995314,249.198962 14.94,249.2 C16.7726519,249.178955 18.521398,248.428608 19.799413,247.114936 C21.0774279,245.801264 21.7793813,244.032537 21.75,242.2 C21.7462316,239.970194 20.6803575,237.875584 18.88,236.56 L18.88,236.56 Z" id="Shape" fill="#FFFFFF" fill-rule="nonzero" opacity="0.3"></path>
                <path d="M158.44,246.43 C157.580226,242.987274 154.832494,240.33623 151.361191,239.600279 C147.889887,238.864329 144.302799,240.17233 142.12,242.97 C136.004559,239.985662 128.624324,242.391677 125.442811,248.406898 C122.261299,254.422118 124.426188,261.876649 130.334832,265.251975 C136.243476,268.6273 143.764428,266.705826 147.33,260.91 C147.761524,260.918885 148.192222,260.868412 148.61,260.76 C150.255049,260.347617 151.590795,259.150309 152.18,257.56 C156.889879,256.099394 159.637958,251.213432 158.44,246.43 L158.44,246.43 Z" id="Shape" fill="url(#linearGradient-10)" fill-rule="nonzero"></path>
                <path d="M151.21,256.87 C151.117274,256.898547 151.043261,256.968859 151.01,257.06 C150.480141,258.352268 149.365748,259.31436 148.01,259.65 C147.712532,259.727475 147.407262,259.771085 147.1,259.78 C146.985701,259.782862 146.880494,259.84298 146.82,259.94 C144.165399,264.094467 139.030633,265.918606 134.35,264.37 C134.196647,264.315381 134.103526,264.159727 134.127913,263.998775 C134.1523,263.837822 134.28735,263.71674 134.45,263.71 C135.339768,263.711585 136.226377,263.604117 137.09,263.39 C139.760605,262.721178 142.072824,261.053231 143.55,258.73 C143.609602,258.638368 143.710711,258.582196 143.82,258.58 C144.130037,258.565316 144.438033,258.521795 144.74,258.45 C146.093471,258.109967 147.206127,257.149374 147.74,255.86 C147.776824,255.771252 147.849481,255.702228 147.94,255.67 C150.592103,254.801621 152.59255,252.603144 153.207473,249.881086 C153.822396,247.159028 152.961269,244.31411 150.94,242.39 C150.818195,242.285981 150.788676,242.109513 150.869996,241.971516 C150.951316,241.833518 151.119991,241.773843 151.27,241.83 C154.483395,242.920359 156.645123,245.936655 156.645123,249.33 C156.645123,252.723345 154.483395,255.739641 151.27,256.83 L151.21,256.87 Z" id="Shape" fill="#FFFFFF" fill-rule="nonzero" opacity="0.3"></path>
                <path d="M67.78,235.21 C71.4245379,229.515559 71.0031197,222.125127 66.7348921,216.881889 C62.4666646,211.638651 55.3154355,209.726582 49,212.14 C55.4056466,207.742796 64.1137012,208.997637 69.0172265,215.024506 C73.9207518,221.051375 73.3781733,229.832631 67.77,235.21 L67.78,235.21 Z" id="Shape" fill="#FFFFFF" fill-rule="nonzero" opacity="0.3"></path>
                <path d="M110.63,234.3 C109.76087,232.386091 108.349217,230.769296 106.57,229.65 C101.375112,226.425841 94.5504339,228.019012 91.32,233.21 C90.5918987,234.362013 90.0770287,235.635639 89.8,236.97 C89.7402899,234.825571 90.3217576,232.712093 91.47,230.9 C94.5466847,225.946645 101.055878,224.42455 106.01,227.5 C108.423615,229.030742 110.095983,231.492237 110.63,234.3 L110.63,234.3 Z" id="Shape" fill="#FFFFFF" fill-rule="nonzero" opacity="0.3"></path>
                <path d="M120.91,225.93 C120.399928,224.801631 119.568635,223.848601 118.52,223.19 C116.685628,222.085387 114.429817,221.937795 112.467155,222.793976 C110.504493,223.650158 109.078165,225.404028 108.64,227.5 C108.606941,226.233406 108.955346,224.986115 109.64,223.92 C111.456779,221.004697 115.290471,220.11002 118.21,221.92 C119.621317,222.830365 120.597317,224.279906 120.91,225.93 Z" id="Shape" fill="#FFFFFF" fill-rule="nonzero" opacity="0.3"></path>
                <path d="M87.69,208.5 C86.5210851,208.095952 85.2599312,208.040364 84.06,208.34 C81.9916021,208.902903 80.3254223,210.435279 79.5917358,212.449438 C78.8580492,214.463596 79.1482577,216.708615 80.37,218.47 C79.4293601,217.629183 78.7637848,216.524537 78.46,215.3 C78.0404522,213.703265 78.2739822,212.005189 79.1089882,210.580988 C79.9439942,209.156787 81.3117392,208.123699 82.91,207.71 C84.5441682,207.304597 86.2731726,207.590353 87.69,208.5 L87.69,208.5 Z" id="Shape" fill="#FFFFFF" fill-rule="nonzero" opacity="0.3"></path>
                <circle id="Oval" fill="#7AB4F4" fill-rule="nonzero" cx="42.18" cy="163.16" r="2.12"></circle>
                <circle id="Oval" fill="#7AB4F4" fill-rule="nonzero" cx="16.96" cy="195.36" r="1.97"></circle>
                <circle id="Oval" fill="#7AB4F4" fill-rule="nonzero" cx="169.2" cy="226.17" r="1.76"></circle>
                <circle id="Oval" fill="#7AB4F4" fill-rule="nonzero" cx="126.61" cy="173.14" r="1.09"></circle>
                <circle id="Oval" fill="#7AB4F4" fill-rule="nonzero" cx="52.28" cy="177.96" r="1.42"></circle>
                <circle id="Oval" fill="#7AB4F4" fill-rule="nonzero" cx="14.61" cy="214.14" r="1.09"></circle>
                <circle id="Oval" fill="#7AB4F4" fill-rule="nonzero" cx="33.61" cy="194.14" r="1.09"></circle>
                <circle id="Oval" fill="#7AB4F4" fill-rule="nonzero" cx="3.61" cy="173.14" r="1.09"></circle>
                <circle id="Oval" fill="url(#linearGradient-11)" fill-rule="nonzero" cx="62.45" cy="257.58" r="3.26"></circle>
                <path d="M65.23,257.58 C65.23,259.098783 63.9987831,260.33 62.48,260.33 C60.9612169,260.33 59.73,259.098783 59.73,257.58 C59.7281038,257.329841 59.7617739,257.080683 59.83,256.84 C60.073066,258.09305 61.1463913,259.014139 62.4218164,259.064202 C63.6972415,259.114265 64.8394629,258.280142 65.18,257.05 C65.2119816,257.224886 65.2287111,257.402219 65.23,257.58 L65.23,257.58 Z" id="Shape" fill="#FFFFFF" fill-rule="nonzero" opacity="0.3"></path>
            </g>
        </g>
    </g>
</svg>