<?xml version="1.0" encoding="UTF-8"?>
<svg width="129px" height="110px" viewBox="0 0 129 110" version="1.1" xmlns="http://www.w3.org/2000/svg" xmlns:xlink="http://www.w3.org/1999/xlink">
    <!-- Generator: Sketch 52.4 (67378) - http://www.bohemiancoding.com/sketch -->
    <title>Group 13</title>
    <desc>Created with Sketch.</desc>
    <defs>
        <linearGradient x1="100%" y1="205.730932%" x2="153.805707%" y2="-75.2317691%" id="linearGradient-1">
            <stop stop-color="#FFFFFF" offset="0%"></stop>
            <stop stop-color="#D4E1F8" stop-opacity="0" offset="100%"></stop>
        </linearGradient>
        <linearGradient x1="83.3409274%" y1="-64.999992%" x2="50%" y2="100%" id="linearGradient-2">
            <stop stop-color="#80B1F1" offset="0%"></stop>
            <stop stop-color="#4979DF" offset="100%"></stop>
        </linearGradient>
        <linearGradient x1="17.333653%" y1="-32.562449%" x2="73.3862163%" y2="63.1949665%" id="linearGradient-3">
            <stop stop-color="#F4FAFF" offset="0%"></stop>
            <stop stop-color="#9DCEF8" offset="100%"></stop>
        </linearGradient>
        <linearGradient x1="22.3401988%" y1="4.8113282%" x2="86.9247707%" y2="83.8066484%" id="linearGradient-4">
            <stop stop-color="#F4FAFF" offset="0%"></stop>
            <stop stop-color="#CBE7FF" offset="100%"></stop>
        </linearGradient>
        <linearGradient x1="15.2523332%" y1="6.14617099%" x2="97.7101877%" y2="97.0554051%" id="linearGradient-5">
            <stop stop-color="#2D5CDD" offset="0%"></stop>
            <stop stop-color="#1D2F76" offset="100%"></stop>
        </linearGradient>
    </defs>
    <g id="About-Us" stroke="none" stroke-width="1" fill="none" fill-rule="evenodd">
        <g transform="translate(-819.000000, -1572.000000)" id="Group-13">
            <g transform="translate(819.000000, 1572.000000)">
                <g id="Group-52" transform="translate(75.000000, 25.000000)">
                    <g id="Group-51" fill="url(#linearGradient-1)">
                        <polygon id="Rectangle" points="0.160222981 0.29848424 53.0338069 0.29848424 53.0338069 56.6544164 0.160222981 56.6544164"></polygon>
                    </g>
                    <g id="Group-2" transform="translate(0.160223, 27.993399)">
                        <path d="M50.4143504,15.9967406 L52.8700536,19.117699 L52.8700536,25.2890206 L52.8700536,28.664754 L0.0137691625,28.664754 L0.0137691625,19.0885356 C1.25215929,15.8972045 3.16252627,13.7931321 5.74487011,12.7763184 L18.8139347,8.78986484 L34.246653,8.78986484 L43.9472533,11.626285 C46.5053931,12.3742758 48.7662392,13.9021526 50.4143504,15.9967406 Z" id="Combined-Shape" fill="url(#linearGradient-2)"></path>
                        <path d="M19.9512555,0.109109679 L32.7349076,0.109109679 L32.7349076,6.53479959 C32.7349076,7.52901201 33.6393734,8.42910243 35.4483049,9.23507084 L32.2391025,12.2310788 C28.9193349,15.3303069 23.7668282,15.3303069 20.4470605,12.2310788 L17.2378582,9.23507084 C19.0467897,8.42910243 19.9512555,7.52901201 19.9512555,6.53479959 L19.9512555,0.109109679 Z" id="Combined-Shape" fill="url(#linearGradient-3)" fill-rule="nonzero"></path>
                    </g>
                    <path d="M33.2952844,29.6271186 L20.0589685,29.6271186 C19.4035474,29.6271186 18.8537112,29.130223 18.7843768,28.4752498 L16.8234131,22.059322 L16.0222981,12.3983051 L16.4315803,9.72478778 C16.7582601,7.59084684 17.4930312,5.93389143 19.6248418,5.66609461 L23.0721093,4.99152542 C24.6743391,4.99152542 26.6504226,4.13276836 29.0003596,2.41525424 L29.359472,2.95659209 C30.3521262,4.45295185 31.9477369,5.44228173 33.729411,5.66609461 C35.8612216,5.93389143 36.5959927,7.59084684 36.9226725,9.72478778 L37.3319547,12.3983051 L36.5308398,22.059322 L34.569876,28.4752498 C34.5005416,29.130223 33.9507055,29.6271186 33.2952844,29.6271186 Z" id="Combined-Shape" fill="#223762"></path>
                    <path d="M26.5970149,36.2288136 L26.5970149,36.2288136 C25.3089652,36.2288136 24.0731623,35.719524 23.1591098,34.8120107 L20.4151875,32.0877183 C19.7462619,31.4235782 19.2505527,30.6054185 18.9715552,29.7050275 L17.8497654,26.0847458 C16.3832402,25.4048964 15.6499776,24.2777778 15.6499776,22.7033898 C15.6499776,20.3418079 16.3832402,19.9661017 17.8497654,19.6440678 L17.8497654,20.0591365 C17.8497654,20.7051748 17.7887927,21.3084693 18.2207771,21.6668269 L18.693913,22.059322 L18.693913,17.7118644 L19.5380606,16.9067797 L19.1498627,15.2966102 L19.8676497,13.5254237 L19.8676497,13.5254237 C24.2988445,14.5231898 28.8960406,14.5270029 33.3288845,13.536589 L33.3788573,13.5254237 L34.0441671,15.2966102 L33.6559693,16.9067797 L34.5001169,17.7118644 L34.5001169,22.059322 L34.9732527,21.6668269 C35.4052372,21.3084693 35.3442644,20.7051748 35.3442644,20.0591365 L35.3442644,19.6440678 C36.8107896,19.9661017 37.5440522,20.3418079 37.5440522,22.7033898 C37.5440522,24.2777778 36.8107896,25.4048964 35.3442644,26.0847458 L34.2224746,29.7050275 C33.9434772,30.6054185 33.447768,31.4235782 32.7788424,32.0877183 L30.03492,34.8120107 C29.1208676,35.719524 27.8850647,36.2288136 26.5970149,36.2288136 Z" id="Combined-Shape" fill="url(#linearGradient-4)" fill-rule="nonzero"></path>
                </g>
                <g id="Group-52">
                    <g id="Group-51" fill="url(#linearGradient-1)">
                        <polygon id="Rectangle" points="0.198795181 0.371796158 65.8012048 0.371796158 65.8012048 70.5695363 0.198795181 70.5695363"></polygon>
                    </g>
                    <g id="Group-2" transform="translate(0.198795, 34.868971)">
                        <path d="M62.5715363,19.95179 L65.5980294,23.8132742 L65.5980294,31.500359 L65.5980294,35.7052199 L0.0170839608,35.7052199 L0.0170839608,23.7769479 C1.55360505,19.801781 3.92387519,17.1809189 7.12789439,15.9143615 L23.3432153,10.948779 L42.4912176,10.948779 L54.4850885,14.4695176 C57.68621,15.4091902 60.5135336,17.325997 62.5715363,19.95179 Z" id="Combined-Shape" fill="url(#linearGradient-2)"></path>
                        <path d="M24.7543355,0.135908548 L40.6155335,0.135908548 L40.6155335,8.13983808 C40.6155335,9.37824303 41.737741,10.4994083 43.982156,11.5033339 L40.0703855,15.1695805 C35.916385,19.0628535 29.453484,19.0628535 25.2994835,15.1695805 L21.387713,11.5033339 C23.632128,10.4994083 24.7543355,9.37824303 24.7543355,8.13983808 L24.7543355,0.135908548 Z" id="Combined-Shape" fill="url(#linearGradient-3)" fill-rule="nonzero"></path>
                    </g>
                    <path d="M41.3108158,36.9039548 L24.8879794,36.9039548 C24.0747717,36.9039548 23.3925676,36.2850146 23.3065416,35.4691708 L20.873494,27.4774011 L19.8795181,15.4435028 L20.3873312,12.1133322 C20.7926561,9.45526536 21.7043165,7.39133845 24.3493408,7.05776697 L28.626506,6.21751412 C30.6144578,6.21751412 33.0662651,5.14783427 35.9819277,3.00847458 L36.4326547,3.69058405 C37.6608095,5.54921677 39.6392093,6.77902671 41.8494544,7.05776697 C44.4944787,7.39133845 45.4061391,9.45526536 45.811464,12.1133322 L46.3192771,15.4435028 L45.3253012,27.4774011 L42.8922536,35.4691708 C42.8062275,36.2850146 42.1240235,36.9039548 41.3108158,36.9039548 Z" id="Combined-Shape" fill="#223762"></path>
                    <path d="M33,45.1271186 L33,45.1271186 C31.4022,45.1271186 29.8695551,44.4937391 28.7378999,43.3657668 L25.3345959,39.9735383 C24.5015403,39.1431938 23.8845946,38.1214036 23.5377065,36.9975164 L22.1469312,32.4915254 C20.3273536,31.6446955 19.4175648,30.2407407 19.4175648,28.279661 C19.4175648,25.3380414 20.3273536,24.8700565 22.1469312,24.4689266 L22.1469312,24.9859419 C22.1469312,25.7906564 22.0712798,26.5421284 22.6072605,26.9885036 L23.1942994,27.4774011 L23.1942994,22.0621469 L24.2416677,21.059322 L23.7600148,19.0536723 L24.6506024,16.8474576 L24.6506024,16.8474576 C30.1480419,18.0901705 35.8530275,18.0949193 41.3525281,16.86136 L41.4145081,16.8474576 L42.2399852,19.0536723 L41.7583323,21.059322 L42.8057006,22.0621469 L42.8057006,27.4774011 L43.3927395,26.9885036 C43.9287202,26.5421284 43.8530688,25.7906564 43.8530688,24.9859419 L43.8530688,24.4689266 C45.6726464,24.8700565 46.5824352,25.3380414 46.5824352,28.279661 C46.5824352,30.2407407 45.6726464,31.6446955 43.8530688,32.4915254 L42.4622935,36.9975164 C42.1154054,38.1214036 41.4984597,39.1431938 40.6654041,39.9735383 L37.2621001,43.3657668 C36.1304449,44.4937391 34.5978,45.1271186 33,45.1271186 Z" id="Combined-Shape" fill="url(#linearGradient-4)" fill-rule="nonzero"></path>
                </g>
                <path d="M96.8094313,80.7869654 L121.761625,98.7216887 C124.45239,100.655712 125.06585,104.404844 123.131827,107.095609 C121.197803,109.786374 117.448671,110.399835 114.757906,108.465811 L89.8254472,90.5452725 C92.7012971,87.7549861 95.0781897,84.4533191 96.8094313,80.7869654 Z" id="Combined-Shape" fill="url(#linearGradient-5)"></path>
                <path d="M66.5,108 C43.5801829,108 25,89.4198171 25,66.5 C25,43.5801829 43.5801829,25 66.5,25 C89.4198171,25 108,43.5801829 108,66.5 C108,89.4198171 89.4198171,108 66.5,108 Z M66.5,100 C85.0015391,100 100,85.0015391 100,66.5 C100,47.9984609 85.0015391,33 66.5,33 C47.9984609,33 33,47.9984609 33,66.5 C33,85.0015391 47.9984609,100 66.5,100 Z" id="Combined-Shape" fill="url(#linearGradient-5)"></path>
                <path d="M66.5,100 C85.0015391,100 100,85.0015391 100,66.5 C100,47.9984609 85.0015391,33 66.5,33 C47.9984609,33 33,47.9984609 33,66.5 C33,85.0015391 47.9984609,100 66.5,100 Z" id="Path" fill="#FFFFFF" opacity="0.699999988"></path>
            </g>
        </g>
    </g>
</svg>