<?xml version="1.0" encoding="UTF-8"?>
<svg width="194px" height="251px" viewBox="0 0 194 251" version="1.1" xmlns="http://www.w3.org/2000/svg" xmlns:xlink="http://www.w3.org/1999/xlink">
    <!-- Generator: Sketch 53 (72520) - https://sketchapp.com -->
    <title>Group 25</title>
    <desc>Created with Sketch.</desc>
    <defs>
        <linearGradient x1="331933%" y1="45636%" x2="346050%" y2="45636%" id="linearGradient-1">
            <stop stop-color="#4C9CF4" offset="0%"></stop>
            <stop stop-color="#ACD4FA" offset="100%"></stop>
        </linearGradient>
        <linearGradient x1="334491%" y1="47360%" x2="349012%" y2="47360%" id="linearGradient-2">
            <stop stop-color="#4C9CF4" offset="0%"></stop>
            <stop stop-color="#ACD4FA" offset="100%"></stop>
        </linearGradient>
        <linearGradient x1="334913%" y1="47453%" x2="349030%" y2="47453%" id="linearGradient-3">
            <stop stop-color="#A1C8F4" offset="0%"></stop>
            <stop stop-color="#DFEDFA" offset="100%"></stop>
        </linearGradient>
        <linearGradient x1="334913%" y1="42733%" x2="349030%" y2="42733%" id="linearGradient-4">
            <stop stop-color="#A1C8F4" offset="0%"></stop>
            <stop stop-color="#DFEDFA" offset="100%"></stop>
        </linearGradient>
        <linearGradient x1="344451%" y1="43175%" x2="348523%" y2="43175%" id="linearGradient-5">
            <stop stop-color="#6DACEF" offset="0%"></stop>
            <stop stop-color="#97C9FE" offset="100%"></stop>
        </linearGradient>
        <linearGradient x1="344451%" y1="46734%" x2="348523%" y2="46734%" id="linearGradient-6">
            <stop stop-color="#6DACEF" offset="0%"></stop>
            <stop stop-color="#97C9FE" offset="100%"></stop>
        </linearGradient>
        <linearGradient x1="345812%" y1="43675%" x2="349883%" y2="43675%" id="linearGradient-7">
            <stop stop-color="#6DACEF" offset="0%"></stop>
            <stop stop-color="#97C9FE" offset="100%"></stop>
        </linearGradient>
        <linearGradient x1="5.73920522%" y1="260.001722%" x2="69.3565321%" y2="-17.0497073%" id="linearGradient-8">
            <stop stop-color="#2C8CF4" offset="0%"></stop>
            <stop stop-color="#DFEDFA" offset="100%"></stop>
        </linearGradient>
        <linearGradient x1="264428.831%" y1="35637.3419%" x2="265092.865%" y2="33518.3928%" id="linearGradient-9">
            <stop stop-color="#2C8CF4" offset="0%"></stop>
            <stop stop-color="#DFEDFA" offset="100%"></stop>
        </linearGradient>
        <linearGradient x1="345968%" y1="47258%" x2="350039%" y2="47258%" id="linearGradient-10">
            <stop stop-color="#6DACEF" offset="0%"></stop>
            <stop stop-color="#97C9FE" offset="100%"></stop>
        </linearGradient>
        <linearGradient x1="185845.757%" y1="27257.3414%" x2="186398.248%" y2="25559.0638%" id="linearGradient-11">
            <stop stop-color="#2C8CF4" offset="0%"></stop>
            <stop stop-color="#DFEDFA" offset="100%"></stop>
        </linearGradient>
        <linearGradient x1="263755.902%" y1="38654.4005%" x2="264539.5%" y2="36243.3882%" id="linearGradient-12">
            <stop stop-color="#2C8CF4" offset="0%"></stop>
            <stop stop-color="#DFEDFA" offset="100%"></stop>
        </linearGradient>
    </defs>
    <g id="Page-1" stroke="none" stroke-width="1" fill="none" fill-rule="evenodd">
        <g id="Group-25" transform="translate(-6.000000, -3.000000)" fill-rule="nonzero">
            <g id="commits" transform="translate(0.000000, 37.000000)">
                <path d="M74.45,28.79 L77.18,27.21 C77.35,27.11 77.48,27.21 77.48,27.38 L77.48,29 C77.4691803,29.2114145 77.3576067,29.4048088 77.18,29.52 L70.89,33.15 C70.73,33.25 70.6,33.15 70.6,32.97 L70.6,32.83 C70.6,32.65 70.6,32.62 70.8,32.21 C71.8,30.08 73.9,25.62 74.8,23.6 C75.026317,23.1013411 75.1617762,22.5662775 75.2,22.02 C75.2,21.32 74.69,21.02 73.82,21.5 C73.1749095,21.9637491 72.6530727,22.5782805 72.3,23.29 C72.18,23.5 71.98,23.61 71.85,23.54 L70.85,22.98 C70.75,22.98 70.73,22.72 70.85,22.52 C71.5596885,21.0659879 72.6434155,19.8269498 73.99,18.93 C76.23,17.64 77.56,18.52 77.56,20.51 C77.5299034,21.4341201 77.322829,22.3438899 76.95,23.19 C76.46,24.49 75.18,27.14 74.45,28.75 L74.45,28.79 Z" id="Shape" fill="#4294FF"></path>
                <path d="M79.42,26.3 L80.42,24.59 C80.53,24.41 80.73,24.29 80.83,24.34 C81.4555501,24.5837293 82.1616556,24.497344 82.71,24.11 C83.6062555,23.5513273 84.1679104,22.5852808 84.21,21.53 C84.21,20.43 83.6,20.15 82.57,20.74 L80.16,22.13 C79.84,22.32 79.68,22.06 79.68,21.77 L79.68,16.18 C79.6916128,15.9766871 79.7992901,15.7910366 79.97,15.68 L85.03,12.76 C85.2,12.66 85.34,12.76 85.34,12.91 L85.34,14.51 C85.3193359,14.7182085 85.2053133,14.905794 85.03,15.02 L81.8,16.88 L81.8,18.83 L82.91,18.18 C85.08,16.93 86.49,17.69 86.49,20.1 C86.32859,22.768039 84.876926,25.1899668 82.6,26.59 C80.97,27.53 79.89,27.21 79.51,26.89 C79.25,26.73 79.24,26.62 79.42,26.3 Z" id="Shape" fill="#4294FF"></path>
                <ellipse id="Oval" fill="#4294FF" opacity="0.15" transform="translate(20.860225, 24.328240) rotate(-59.690000) translate(-20.860225, -24.328240) " cx="20.860225" cy="24.3282403" rx="20.67" ry="11.93"></ellipse>
                <ellipse id="Oval" fill="#4294FF" opacity="0.3" transform="translate(33.456342, 31.422322) rotate(-59.690000) translate(-33.456342, -31.422322) " cx="33.4563418" cy="31.4223216" rx="20.67" ry="11.93"></ellipse>
                <path d="M36.58,56.68 L36.58,56.68 L36.66,56.68 L36.66,56.68 L39.17,58.11 L39.67,58.4 C42.3,59.79 45.89,59.51 49.83,57.23 C57.93,52.56 64.49,41.23 64.49,31.95 C64.49,27.33 62.87,24.08 60.24,22.56 L60.06,22.45 L57.5,21 C54.84,19.42 51.14,19.62 47.03,22 C38.93,26.67 32.37,38 32.37,47.29 C32.37,51.92 34,55.15 36.58,56.68 Z" id="Shape" fill="#4294FF"></path>
                <path d="M38.64,36.14 L38.51,36.39 C36.452256,40.2831071 35.3196002,44.5981494 35.2,49 C35.2,58.3 41.77,62 49.86,57.36 C57.95,52.72 64.53,41.36 64.53,32.07 C64.53,22.78 57.96,19.07 49.86,23.71 C46.9680423,25.4614788 44.4252191,27.7330676 42.36,30.41" id="Shape" fill="#DEECFF"></path>
                <path d="M44.43,36.41 C44.81,36.33 45.19,36.22 45.56,36.16 C46.4268966,36.0284938 47.3100623,36.0487965 48.17,36.22 C48.17,36.22 48.31,36.22 48.38,36.15 C49.4330901,35.31501 50.5851142,34.6130478 51.81,34.06 L52.43,33.81 C52.5065357,33.7746704 52.572161,33.7194069 52.62,33.65 C53.3150727,32.7175884 54.059467,31.82298 54.85,30.97 C55.2923141,30.4783559 55.7739035,30.0235216 56.29,29.61 L56.4,29.53 C56.51,29.88 56.63,30.21 56.72,30.53 C56.9477597,31.3868562 57.0289049,32.2760718 56.96,33.16 C56.9171608,33.3525975 56.9915889,33.5523782 57.15,33.67 C57.8886642,34.4005617 58.2564011,35.4265476 58.15,36.46 C58.1612819,37.6457375 58.0064447,38.8272124 57.69,39.97 C57.1787329,41.8511168 56.1980774,43.5715651 54.84,44.97 C53.9537477,45.8774063 52.9437724,46.6550873 51.84,47.28 C50.67,47.96 49.5,48.65 48.33,49.28 C47.4241816,49.8306785 46.3897563,50.1341099 45.33,50.16 C44.259795,50.1705976 43.3108107,49.4741327 43,48.45 C42.6052721,47.3246878 42.4585858,46.1273182 42.57,44.94 C42.677388,43.7062337 43.0382479,42.5079066 43.63,41.42 C43.7346705,41.2341417 43.7865401,41.0232052 43.78,40.81 C43.7455063,40.3139322 43.7455063,39.8160678 43.78,39.32 C43.8581048,38.3788086 44.0289332,37.4476264 44.29,36.54 L44.43,36.41 Z M50.32,47.41 C51.05,46.94 51.71,46.54 52.32,46.11 C53.0572397,45.6164837 53.7292201,45.0318608 54.32,44.37 C54.8403635,43.8229094 55.2571167,43.1859208 55.55,42.49 C56.0145388,41.4477156 56.1302755,40.2833352 55.88,39.17 C55.7842592,38.632588 55.3431781,38.2241796 54.8,38.17 C54.330634,38.1518302 53.8678625,38.2850523 53.48,38.55 C52.86,38.91 52.25,39.28 51.64,39.69 C50.6574469,40.3305269 49.6354116,40.9083442 48.58,41.42 C47.9627915,41.7151542 47.3649247,42.049158 46.79,42.42 C45.6265014,43.2981703 44.8544154,44.5981477 44.64,46.04 C44.5653411,46.5998043 44.5890304,47.1683469 44.71,47.72 C44.7756072,48.399918 45.3191399,48.9350239 46,48.99 C46.7211538,49.0008273 47.4333,48.8288113 48.07,48.49 C48.9,48.11 49.65,47.71 50.32,47.37 L50.32,47.41 Z" id="Shape" fill="#4294FF"></path>
                <path d="M46.61,45.89 C46.5911962,45.3075388 46.7293524,44.7307364 47.01,44.22 C47.48,43.31 48.15,43.05 48.5,43.5 C48.9290059,44.2389116 48.9290059,45.1510884 48.5,45.89 C48.3361633,46.360038 47.9953002,46.7475455 47.55,46.97 C47.3198767,47.0676318 47.0528576,46.997796 46.9,46.8 C46.7026248,46.5384904 46.6003285,46.2174915 46.61,45.89 Z" id="Shape" fill="#4294FF"></path>
                <path d="M54.18,41.52 C54.1613312,42.034217 54.024459,42.5372225 53.78,42.99 C53.31,43.88 52.65,44.14 52.3,43.69 C51.8638608,42.9601954 51.8638608,42.0498046 52.3,41.32 C52.4558725,40.8492217 52.7896308,40.4580426 53.23,40.23 C53.4613871,40.1211713 53.7371046,40.1828991 53.9,40.38 C54.1316759,40.7120378 54.2314874,41.1184133 54.18,41.52 Z" id="Shape" fill="#4294FF"></path>
            </g>
            <g id="browser" transform="translate(18.000000, 47.000000)">
                <path d="M137.92,1.3 C139.92,0.16 141.5,1.07 141.5,3.3 L141.5,105.45 C141.451392,106.414452 140.941493,107.29654 140.13,107.82 L1.7,187.74 C0.95,188.17 0.33,187.82 0.33,186.95 L0.33,84.84 C0.46922146,82.3295425 1.79958117,80.0367158 3.91,78.67 L137.92,1.3 Z" id="Shape" fill="url(#linearGradient-1)" opacity="0.3"></path>
                <path d="M171.12,20.29 L167.12,121.8 C167.072315,122.769927 166.55809,123.656778 165.74,124.18 L31,205.89 C30.24,206.33 25.88,204.18 25.88,203.31 L25.88,101.2 C26.0192215,98.6895425 27.3495812,96.3967158 29.46,95.03 L163.46,17.65 C165.47,16.51 171.12,18 171.12,20.29 Z" id="Shape" fill="url(#linearGradient-2)"></path>
                <path d="M30.13,146.26 L30.13,103 C30.2708874,100.487375 31.6004526,98.1922038 33.71,96.82 L167.71,19.45 C169.71,18.31 171.29,19.22 171.29,21.45 L171.29,123.61 C171.239149,124.57633 170.725307,125.458797 169.91,125.98 L31.5,205.9 C30.75,206.34 30.13,205.99 30.13,205.12 L30.13,159.12" id="Shape" fill="url(#linearGradient-3)"></path>
                <path d="M117.31,61.25 L30.13,111.59 L30.13,103.12 C30.2692215,100.609542 31.5995812,98.3167158 33.71,96.95 L167.71,19.57 C169.71,18.44 171.29,19.34 171.29,21.57 L171.29,30.04" id="Shape" fill="url(#linearGradient-4)"></path>
                <ellipse id="Oval" fill="#FFFFFF" transform="translate(36.190126, 101.758226) rotate(-59.690000) translate(-36.190126, -101.758226) " cx="36.190126" cy="101.758226" rx="2.11" ry="1.22"></ellipse>
                <ellipse id="Oval" fill="#FFFFFF" transform="translate(40.080883, 99.514434) rotate(-59.690000) translate(-40.080883, -99.514434) " cx="40.0808828" cy="99.5144341" rx="2.11" ry="1.22"></ellipse>
                <ellipse id="Oval" fill="#FFFFFF" transform="translate(43.961640, 97.260642) rotate(-59.690000) translate(-43.961640, -97.260642) " cx="43.9616396" cy="97.2606418" rx="2.11" ry="1.22"></ellipse>
                <path d="M164.56,44.76 C165.48,44.23 166.23,44.66 166.23,45.71 L166.23,70.28 C166.164218,71.4513125 165.543906,72.5210718 164.56,73.16 L127.18,94.74 C126.26,95.27 125.51,94.84 125.51,93.79 L125.51,69.22 C125.575782,68.0486875 126.196094,66.9789282 127.18,66.34 L164.56,44.76 Z" id="Shape" fill="url(#linearGradient-5)" opacity="0.3"></path>
                <path d="M164.56,80.35 C165.48,79.82 166.23,80.25 166.23,81.3 L166.23,105.87 C166.164218,107.041313 165.543906,108.111072 164.56,108.75 L127.18,130.33 C126.26,130.86 125.51,130.43 125.51,129.38 L125.51,104.81 C125.577369,103.639163 126.197295,102.570069 127.18,101.93 L164.56,80.35 Z" id="Shape" fill="url(#linearGradient-6)" opacity="0.3"></path>
                <path d="M107.87,75.9 C109.36,75.04 110.57,75.73 110.57,77.44 L110.57,131.25 C110.456864,133.142694 109.455752,134.870539 107.87,135.91 L37.2,176.59 C35.7,177.45 34.49,176.76 34.49,175.05 L34.49,121.24 C34.5959004,119.342598 35.603249,117.610405 37.2,116.58 L107.87,75.9 Z" id="Shape" fill="#FFFFFF" opacity="0.3"></path>
                <path d="M117.42,82 C118.91,81.14 120.12,81.83 120.12,83.54 L120.12,137.35 C120.006864,139.242694 119.005752,140.970539 117.42,142.01 L46.74,182.69 C45.25,183.55 44.04,182.87 44.04,181.15 L44.04,127.31 C44.1467687,125.418061 45.1498114,123.690598 46.74,122.66 L117.42,82 Z" id="Shape" fill="#FFFFFF" opacity="0.3"></path>
                <path d="M129.37,87.62 C130.86,86.76 132.07,87.45 132.07,89.16 L132.07,143 C131.956864,144.892694 130.955752,146.620539 129.37,147.66 L58.69,188.34 C57.2,189.21 55.99,188.52 55.99,186.8 L55.99,133 C56.0967687,131.108061 57.0998114,129.380598 58.69,128.35 L129.37,87.62 Z" id="Shape" fill="#FFFFFF" opacity="0.8"></path>
                <path d="M97.39,129.06 L66.68,146.79 C66.35,146.98 66.08,146.79 66.08,146.33 L66.08,146.33 C66.0878352,145.873593 66.3101338,145.447521 66.68,145.18 L97.39,127.45 C97.73,127.26 98,127.45 98,127.91 L98,127.91 C97.9930489,128.369026 97.76614,128.796805 97.39,129.06 L97.39,129.06 Z" id="Shape" fill="#6491FB"></path>
                <path d="M115.45,118.64 L102.08,126.35 C101.75,126.55 101.48,126.35 101.48,125.9 L101.48,125.9 C101.484691,125.440054 101.707333,125.009614 102.08,124.74 L115.45,117.02 C115.78,116.83 116.05,117.02 116.05,117.48 L116.05,117.48 C116.042171,117.93916 115.820212,118.36828 115.45,118.64 L115.45,118.64 Z" id="Shape" fill="#FF9999"></path>
                <path d="M97.31,133.77 L81.17,143.09 C80.84,143.28 80.56,143.09 80.56,142.63 L80.56,142.63 C80.5717301,142.172215 80.7975676,141.746456 81.17,141.48 L97.31,132.16 C97.64,131.97 97.91,132.16 97.91,132.62 L97.91,132.62 C97.9021648,133.076407 97.6798662,133.502479 97.31,133.77 L97.31,133.77 Z" id="Shape" fill="#FF9999"></path>
                <path d="M77.53,145.19 L66.68,151.45 C66.35,151.65 66.08,151.45 66.08,151 L66.08,151 C66.0846912,150.540054 66.3073328,150.109614 66.68,149.84 L77.53,143.58 C77.86,143.39 78.13,143.58 78.13,144.04 L78.13,144.04 C78.1221648,144.496407 77.8998662,144.922479 77.53,145.19 L77.53,145.19 Z" id="Shape" fill="#FF9999"></path>
                <path d="M115.37,123.35 L102,131.06 C101.67,131.26 101.4,131.06 101.4,130.61 L101.4,130.61 C101.404691,130.150054 101.627333,129.719614 102,129.45 L115.37,121.73 C115.7,121.54 115.97,121.73 115.97,122.19 L115.97,122.19 C115.962171,122.64916 115.740212,123.07828 115.37,123.35 L115.37,123.35 Z" id="Shape" fill="#A69CFB"></path>
                <path d="M86.3,126.14 L66.68,137.47 C66.35,137.66 66.08,137.47 66.08,137.01 L66.08,137.01 C66.0878293,136.55084 66.3097878,136.12172 66.68,135.85 L86.3,124.53 C86.64,124.33 86.91,124.53 86.91,124.98 L86.91,124.98 C86.9062572,125.44257 86.6789867,125.874757 86.3,126.14 L86.3,126.14 Z" id="Shape" fill="#6491FB"></path>
                <path d="M98.08,119.34 L89.78,124.13 C89.45,124.32 89.18,124.13 89.18,123.67 L89.18,123.67 C89.1878352,123.213593 89.4101338,122.787521 89.78,122.52 L98.08,117.72 C98.42,117.53 98.69,117.72 98.69,118.18 L98.69,118.18 C98.6829858,118.641742 98.4564505,119.07253 98.08,119.34 L98.08,119.34 Z" id="Shape" fill="#A69CFB"></path>
                <path d="M121.87,105.6 L101.87,117.15 C101.53,117.35 101.26,117.15 101.26,116.7 L101.26,116.7 C101.263743,116.23743 101.491013,115.805243 101.87,115.54 L121.87,103.99 C122.2,103.8 122.47,103.99 122.47,104.45 L122.47,104.45 C122.462165,104.906407 122.239866,105.332479 121.87,105.6 L121.87,105.6 Z" id="Shape" fill="#94F2B5"></path>
                <path d="M102.25,149.57 L121.87,138.25 C122.240212,137.97828 122.462171,137.54916 122.47,137.09 L122.47,137.09 C122.47,136.64 122.2,136.44 121.87,136.63 L102.25,148 C101.880134,148.267521 101.657835,148.693593 101.65,149.15 L101.65,149.15 C101.65,149.56 101.92,149.76 102.25,149.57 Z" id="Shape" fill="#6491FB"></path>
                <path d="M90.47,156.37 L98.77,151.58 C99.1398662,151.312479 99.3621648,150.886407 99.37,150.43 L99.37,150.43 C99.37,149.98 99.1,149.78 98.77,149.97 L90.47,154.76 C90.0973328,155.029614 89.8746912,155.460054 89.87,155.92 L89.87,155.92 C89.87,156.36 90.14,156.57 90.47,156.37 Z" id="Shape" fill="#94F2B5"></path>
                <path d="M66.68,170.11 L86.68,158.56 C87.0502122,158.28828 87.2721707,157.85916 87.28,157.4 L87.28,157.4 C87.28,156.96 87.01,156.75 86.68,156.95 L66.68,168.49 C66.3097878,168.76172 66.0878293,169.19084 66.08,169.65 L66.08,169.65 C66.08,170.09 66.35,170.3 66.68,170.11 Z" id="Shape" fill="#FF9999"></path>
                <path d="M79.25,134.87 L66.68,142.13 C66.35,142.32 66.08,142.13 66.08,141.67 L66.08,141.67 C66.0878352,141.213593 66.3101338,140.787521 66.68,140.52 L79.25,133.26 C79.59,133.07 79.86,133.26 79.86,133.72 L79.86,133.72 C79.8530489,134.179026 79.62614,134.606805 79.25,134.87 L79.25,134.87 Z" id="Shape" fill="#A69CFB"></path>
                <path d="M106.24,119.29 L81.97,133.29 C81.64,133.49 81.37,133.29 81.37,132.84 L81.37,132.84 C81.3746912,132.380054 81.5973328,131.949614 81.97,131.68 L106.24,117.68 C106.57,117.48 106.85,117.68 106.85,118.13 L106.85,118.13 C106.841392,118.591334 106.615211,119.021449 106.24,119.29 L106.24,119.29 Z" id="Shape" fill="#94F2B5"></path>
                <path d="M124.12,109 L108.92,117.77 C108.58,117.97 108.31,117.77 108.31,117.32 L108.31,117.32 C108.313743,116.85743 108.541013,116.425243 108.92,116.16 L124.12,107.38 C124.46,107.19 124.73,107.38 124.73,107.84 L124.73,107.84 C124.722986,108.301742 124.496451,108.73253 124.12,109 L124.12,109 Z" id="Shape" fill="#6491FB"></path>
                <path d="M111.55,147.25 L124.12,139.99 C124.46,139.8 124.73,139.99 124.73,140.45 L124.73,140.45 C124.722986,140.911742 124.496451,141.34253 124.12,141.61 L111.55,148.86 C111.22,149.06 110.95,148.86 110.95,148.41 L110.95,148.41 C110.954691,147.950054 111.177333,147.519614 111.55,147.25 L111.55,147.25 Z" id="Shape" fill="#94F2B5"></path>
                <path d="M84.57,162.83 L108.84,148.83 C109.17,148.64 109.44,148.83 109.44,149.29 L109.44,149.29 C109.432165,149.746407 109.209866,150.172479 108.84,150.44 L84.57,164.44 C84.23,164.63 83.96,164.44 83.96,163.98 L83.96,163.98 C83.9701645,163.521806 84.1963506,163.095389 84.57,162.83 L84.57,162.83 Z" id="Shape" fill="#FFC99C"></path>
                <path d="M66.68,173.16 L81.89,164.38 C82.22,164.19 82.49,164.38 82.49,164.84 L82.49,164.84 C82.4821648,165.296407 82.2598662,165.722479 81.89,165.99 L66.68,174.77 C66.35,174.96 66.08,174.77 66.08,174.31 L66.08,174.31 C66.0878352,173.853593 66.3101338,173.427521 66.68,173.16 L66.68,173.16 Z" id="Shape" fill="#A69CFB"></path>
                <path d="M97.39,147.71 L66.68,165.44 C66.35,165.64 66.08,165.44 66.08,164.99 L66.08,164.99 C66.0846912,164.530054 66.3073328,164.099614 66.68,163.83 L97.39,146.1 C97.73,145.91 98,146.1 98,146.56 L98,146.56 C97.9930489,147.019026 97.76614,147.446805 97.39,147.71 L97.39,147.71 Z" id="Shape" fill="#FFC99C"></path>
                <path d="M115.45,137.29 L102.08,145 C101.75,145.2 101.48,145 101.48,144.55 L101.48,144.55 C101.484691,144.090054 101.707333,143.659614 102.08,143.39 L115.45,135.68 C115.78,135.48 116.05,135.68 116.05,136.13 L116.05,136.13 C116.045309,136.589946 115.822667,137.020386 115.45,137.29 L115.45,137.29 Z" id="Shape" fill="#FF9999"></path>
                <path d="M79.25,153.52 L66.68,160.78 C66.35,160.97 66.08,160.78 66.08,160.32 L66.08,160.32 C66.0878352,159.863593 66.3101338,159.437521 66.68,159.17 L79.25,151.91 C79.59,151.72 79.86,151.91 79.86,152.37 L79.86,152.37 C79.8530489,152.829026 79.62614,153.256805 79.25,153.52 L79.25,153.52 Z" id="Shape" fill="#94F2B5"></path>
                <path d="M106.24,137.94 L82,152 C81.67,152.19 81.4,152 81.4,151.54 L81.4,151.54 C81.4078293,151.08084 81.6297878,150.65172 82,150.38 L106.27,136.38 C106.6,136.19 106.88,136.38 106.88,136.84 L106.88,136.84 C106.846106,137.285244 106.610323,137.690496 106.24,137.94 L106.24,137.94 Z" id="Shape" fill="#6491FB"></path>
                <path d="M124.12,127.62 L108.92,136.4 C108.58,136.59 108.31,136.4 108.31,135.94 L108.31,135.94 C108.317014,135.478258 108.543549,135.04747 108.92,134.78 L124.12,126.01 C124.46,125.81 124.73,126.01 124.73,126.46 L124.73,126.46 C124.726257,126.92257 124.498987,127.354757 124.12,127.62 L124.12,127.62 Z" id="Shape" fill="#94F2B5"></path>
                <path d="M76.9,150.22 L66.68,156.12 C66.35,156.31 66.08,156.12 66.08,155.66 L66.08,155.66 C66.0878293,155.20084 66.3097878,154.77172 66.68,154.5 L76.9,148.6 C77.24,148.41 77.51,148.6 77.51,149.06 L77.51,149.06 C77.5029858,149.521742 77.2764505,149.95253 76.9,150.22 L76.9,150.22 Z" id="Shape" fill="#A69CFB"></path>
                <path d="M99.29,137.29 L79.36,148.8 C79.03,148.99 78.76,148.8 78.76,148.34 L78.76,148.34 C78.7678293,147.88084 78.9897878,147.45172 79.36,147.18 L99.29,135.68 C99.62,135.49 99.89,135.68 99.89,136.14 L99.89,136.14 C99.8821648,136.596407 99.6598662,137.022479 99.29,137.29 L99.29,137.29 Z" id="Shape" fill="#FF9999"></path>
                <path d="M121.64,124.39 L101.72,135.89 C101.38,136.08 101.11,135.89 101.11,135.43 L101.11,135.43 C101.116951,134.970974 101.34386,134.543195 101.72,134.28 L121.64,122.77 C121.98,122.58 122.25,122.77 122.25,123.23 L122.25,123.23 C122.242986,123.691742 122.016451,124.12253 121.64,124.39 L121.64,124.39 Z" id="Shape" fill="#FFC99C"></path>
                <path d="M178.16,49.76 C179.08,49.23 179.83,49.65 179.83,50.71 L179.83,75.28 C179.761107,76.4477128 179.141165,77.5131218 178.16,78.15 L140.79,99.73 C139.87,100.27 139.12,99.84 139.12,98.73 L139.12,74.21 C139.188893,73.0422872 139.808835,71.9768782 140.79,71.34 L178.16,49.76 Z" id="Shape" fill="url(#linearGradient-7)"></path>
                <path d="M151.45,82.67 C151.02,82.55 150.58,82.47 150.13,82.37 C150.418221,81.5561579 150.530692,80.6904726 150.46,79.83 C150.480795,79.3211534 150.204801,78.846371 149.752336,78.6126335 C149.299872,78.3788959 148.75295,78.4285699 148.35,78.74 C147.114833,79.4814411 146.275104,80.7355342 146.06,82.16 C145.890569,82.9839623 146.006966,83.8410638 146.39,84.59 C146.15,84.88 145.9,85.14 145.68,85.43 C145.172124,86.0040166 144.80568,86.6889583 144.61,87.43 C144.53,87.79 144.61,88.03 144.79,88.15 C146.65,89.22 149.6,87.57 151.55,84.4 C151.94,83.78 152.04,83.47 151.73,82.92 C151.671843,82.8041008 151.571722,82.7147067 151.45,82.67 L151.45,82.67 Z M147.86,80.01 C148.8,79.19 149.58,79.43 149.66,80.61 C149.696807,81.3555069 149.545498,82.0982959 149.22,82.77 C148.71,83.89 147.8,84.42 147.27,83.9 C146.94027,83.4997057 146.778923,82.9869819 146.82,82.47 C146.806661,81.5375859 147.183728,80.6420518 147.86,80 L147.86,80.01 Z M150.93,84.15 C149.44,86.63 146.84,88.07 145.39,87.15 C145.51197,86.8839022 145.652309,86.6266141 145.81,86.38 C146.04,86.05 146.31,85.76 146.56,85.46 C146.81,85.16 146.96,85.08 147.2,85.13 C148.094233,85.1384248 148.918986,84.6489684 149.34,83.86 C149.51,83.62 149.66,83.5 149.83,83.52 C150.206533,83.5673024 150.580367,83.6340583 150.95,83.72 C151.08,83.76 151.08,83.91 150.93,84.15 Z" id="Shape" fill="url(#linearGradient-8)"></path>
                <path d="M148.26,76.55 C148.03,76.7 147.8,76.84 147.58,77.01 C145.178602,78.8615812 143.648059,81.6223475 143.35,84.64 C143.259927,85.4668664 143.40553,86.3023486 143.77,87.05 C143.890089,87.1451973 144.059911,87.1451973 144.18,87.05 C144.335791,86.9005153 144.452535,86.7150975 144.52,86.51 C144.544572,86.3693501 144.519847,86.2245295 144.45,86.1 C144.157473,85.3460335 144.077906,84.5261449 144.22,83.73 C144.504186,81.7672049 145.428744,79.9532421 146.85,78.57 C148.34,77.09 149.72,76.57 150.93,77.08 C152.14,77.59 152.71,79.45 152.01,81.79 C151.88,82.23 152.01,82.46 152.21,82.41 C152.41,82.36 152.64,82.12 152.77,81.69 C154.1,77.26 151.74,74.56 148.26,76.55 Z" id="Shape" fill="url(#linearGradient-9)"></path>
                <path d="M155.88,75.28 L172.79,65.52" id="Shape" stroke="#B9D8F9" stroke-width="1.4" fill="#6491FB" stroke-linecap="round" stroke-linejoin="round"></path>
                <path d="M156.17,80.95 L162.4,77.36" id="Shape" stroke="#B6D7F9" stroke-width="1.4" fill="#6491FB" stroke-linecap="round" stroke-linejoin="round"></path>
                <path d="M179.73,85.59 C180.65,85.06 181.39,85.48 181.39,86.59 L181.39,111.16 C181.32648,112.329457 180.710096,113.398847 179.73,114.04 L142.35,135.62 C141.43,136.15 140.68,135.72 140.68,134.67 L140.68,110.05 C140.745782,108.878687 141.366094,107.808928 142.35,107.17 L179.73,85.59 Z" id="Shape" fill="url(#linearGradient-10)"></path>
                <path d="M153,118.5 C152.58,118.38 152.14,118.3 151.69,118.2 C151.971352,117.384615 152.080319,116.51969 152.01,115.66 C152.036112,115.151286 151.762712,114.674193 151.310603,114.439527 C150.858493,114.204861 150.310986,114.255864 149.91,114.57 C148.673838,115.310396 147.833759,116.565013 147.62,117.99 C147.445623,118.813787 147.562245,119.672552 147.95,120.42 C147.7,120.71 147.46,120.97 147.23,121.26 C146.722124,121.834017 146.35568,122.518958 146.16,123.26 C146.08,123.63 146.16,123.86 146.35,123.99 C148.2,125.05 151.16,123.41 153.11,120.24 C153.49,119.61 153.6,119.3 153.29,118.75 C153.225709,118.635182 153.123037,118.546672 153,118.5 L153,118.5 Z M149.41,115.85 C150.35,115.02 151.13,115.26 151.22,116.44 C151.253702,117.18636 151.098945,117.929192 150.77,118.6 C150.26,119.73 149.35,120.26 148.83,119.73 C148.494448,119.332887 148.332328,118.817708 148.38,118.3 C148.367352,117.373546 148.744763,116.484453 149.42,115.85 L149.41,115.85 Z M152.48,119.99 C151,122.47 148.39,123.9 146.94,122.99 C147.065343,122.723693 147.209022,122.466408 147.37,122.22 C147.6,121.89 147.86,121.6 148.11,121.3 C148.36,121 148.52,120.92 148.75,120.97 C149.644233,120.978425 150.468986,120.488968 150.89,119.7 C151.07,119.46 151.21,119.34 151.38,119.36 C151.76,119.42 152.14,119.48 152.5,119.57 C152.65,119.59 152.64,119.74 152.49,120 L152.48,119.99 Z" id="Shape" fill="url(#linearGradient-11)"></path>
                <path d="M149.82,112.38 C149.59,112.53 149.37,112.67 149.14,112.84 C146.738602,114.691581 145.208059,117.452347 144.91,120.47 C144.819927,121.296866 144.96553,122.132349 145.33,122.88 C145.39,122.99 145.61,123 145.75,122.88 C145.901232,122.72869 146.01434,122.543604 146.08,122.34 C146.101835,122.20041 146.080919,122.05748 146.02,121.93 C145.718407,121.178365 145.635215,120.356838 145.78,119.56 C146.069915,117.59903 146.993588,115.786806 148.41,114.4 C149.9,112.92 151.28,112.4 152.49,112.91 C153.7,113.42 154.27,115.28 153.57,117.62 C153.44,118.06 153.57,118.29 153.78,118.25 C153.99,118.21 154.21,117.95 154.33,117.52 C155.66,113.09 153.31,110.39 149.82,112.38 Z" id="Shape" fill="url(#linearGradient-12)"></path>
                <path d="M157.44,111.11 L174.35,101.35" id="Shape" stroke="#B9D8F9" stroke-width="1.4" fill="#6491FB" stroke-linecap="round" stroke-linejoin="round"></path>
                <path d="M157.74,116.78 L163.96,113.19" id="Shape" stroke="#B6D7F9" stroke-width="1.4" fill="#6491FB" stroke-linecap="round" stroke-linejoin="round"></path>
            </g>
            <g id="lines_of_code" transform="translate(72.000000, 0.000000)">
                <path d="M68.52,26.56 L68.52,25 C68.512738,24.7327674 68.5821393,24.4690424 68.72,24.24 L73.79,14.08 C73.8404516,13.9843187 73.9166543,13.9046522 74.01,13.85 L75.09,13.23 C75.25,13.13 75.38,13.23 75.38,13.41 L75.38,20.71 L76.59,20.01 C76.76,19.91 76.88,20.01 76.88,20.18 L76.88,21.74 C76.8683575,21.945982 76.7610644,22.1346697 76.59,22.25 L75.38,22.95 L75.38,25.14 C75.3701719,25.3416521 75.2712468,25.5285107 75.11,25.65 L73.51,26.57 C73.36,26.65 73.23,26.57 73.23,26.38 L73.23,24.19 L68.81,26.74 C68.65,26.84 68.52,26.76 68.52,26.56 Z M70.87,23.38 L73.25,22.01 L73.25,18.6 L73.25,18.6 L70.9,23.34 L70.87,23.38 Z" id="Shape" fill="#4294FF"></path>
                <path d="M78.33,17.66 C78.33,13.66 79.72,10.55 82.18,9.13 C84.64,7.71 86.05,9.25 86.05,13.2 C86.05,17.15 84.64,20.32 82.18,21.74 C79.72,23.16 78.33,21.6 78.33,17.66 Z M83.75,14.53 C83.75,12.17 83.1,11.16 82.18,11.69 C81.26,12.22 80.63,13.97 80.63,16.33 C80.63,18.69 81.27,19.72 82.18,19.2 C83.09,18.68 83.75,16.91 83.75,14.53 L83.75,14.53 Z" id="Shape" fill="#4294FF"></path>
                <path d="M87.69,12.26 C87.69,8.26 89.08,5.15 91.54,3.73 C94,2.31 95.4,3.84 95.4,7.8 C95.4,11.76 94,14.91 91.54,16.33 C89.08,17.75 87.69,16.2 87.69,12.26 Z M93.11,9.13 C93.11,6.76 92.46,5.75 91.54,6.29 C90.62,6.83 89.99,8.57 89.99,10.93 C89.99,13.29 90.63,14.32 91.54,13.8 C92.45,13.28 93.11,11.51 93.11,9.13 Z" id="Shape" fill="#4294FF"></path>
                <ellipse id="Oval" fill="#4294FF" opacity="0.2" transform="translate(20.108986, 22.701859) rotate(-59.690000) translate(-20.108986, -22.701859) " cx="20.1089864" cy="22.7018593" rx="19.26" ry="11.12"></ellipse>
                <ellipse id="Oval" fill="#4294FF" opacity="0.4" transform="translate(31.838059, 29.301093) rotate(-59.690000) translate(-31.838059, -29.301093) " cx="31.8380592" cy="29.3010926" rx="19.26" ry="11.12"></ellipse>
                <path d="M34.75,52.84 L34.75,52.84 L34.82,52.84 L34.82,52.84 L37.16,54.18 L37.62,54.45 C40.08,55.74 43.42,55.45 47.09,53.36 C54.63,49 60.75,38.45 60.75,29.8 C60.75,25.5 59.24,22.47 56.75,21.05 C56.6912146,21.020407 56.6344268,20.9870025 56.58,20.95 L54.17,19.57 C51.69,18.09 48.24,18.28 44.41,20.49 C36.87,24.85 30.75,35.4 30.75,44.06 C30.83,48.4 32.33,51.41 34.75,52.84 Z" id="Shape" fill="#4294FF"></path>
                <path d="M36.68,33.7 L36.56,33.94 C34.6467966,37.5515909 33.5895641,41.5547044 33.47,45.64 C33.47,54.3 39.59,57.78 47.13,53.43 C54.67,49.08 60.79,38.52 60.79,29.87 C60.79,21.22 54.68,17.72 47.13,22.08 C44.4296016,23.7075135 42.0558209,25.8235694 40.13,28.32" id="Shape" fill="#DEECFF"></path>
                <polygon id="Shape" fill="#4294FF" points="48.2 30.27 49.97 29.27 46.97 46.11 45.2 47.11"></polygon>
                <path d="M54.5,34.2 L51.21,33.2 C51.08,33.2 51.03,33.07 51.03,32.87 C51.03,31.68 51.03,31.28 51.03,30.65 L56.45,32.35 C56.9,32.49 56.9,33.19 56.45,33.85 C56.14,34.32 51.36,41.36 51.01,41.85 C51.0404356,41.3905034 51.0404356,40.9294966 51.01,40.47 C50.9514243,39.6575075 51.2257708,38.8561268 51.77,38.25 C52.59,37.08 54.25,34.59 54.5,34.2 Z" id="Shape" fill="#4294FF"></path>
                <path d="M44.12,45.77 C42.61,45.31 41.21,44.85 38.61,44.04 C38.46,43.99 38.42,43.87 38.4,43.67 C38.3731281,43.1882902 38.5344818,42.7149859 38.85,42.35 C41.53,38.45 43.62,35.35 44.15,34.6 L44.15,35.06 C44.15,35.58 44.15,36.11 44.15,36.61 C44.1596694,36.9546401 44.0462182,37.2914483 43.83,37.56 C43.36,38.24 41.03,41.64 40.68,42.2 L42.43,42.75 C43.99,43.25 44.13,43.24 44.14,43.48 C44.14,44.17 44.14,44.87 44.14,45.56 C44.15,45.61 44.13,45.66 44.12,45.77 Z" id="Shape" fill="#4294FF"></path>
            </g>
        </g>
    </g>
</svg>