<?xml version="1.0" encoding="UTF-8"?>
<svg width="751px" height="712px" viewBox="0 0 751 712" version="1.1" xmlns="http://www.w3.org/2000/svg" xmlns:xlink="http://www.w3.org/1999/xlink">
    <!-- Generator: Sketch 52.6 (67491) - http://www.bohemiancoding.com/sketch -->
    <title>Group 9</title>
    <desc>Created with Sketch.</desc>
    <defs>
        <linearGradient x1="100%" y1="126.728645%" x2="2.02312139%" y2="32.3661258%" id="linearGradient-1">
            <stop stop-color="#68F2A9" offset="0%"></stop>
            <stop stop-color="#2DBFE9" offset="100%"></stop>
        </linearGradient>
        <linearGradient x1="100%" y1="126.728645%" x2="0%" y2="30.4176372%" id="linearGradient-2">
            <stop stop-color="#68F2A9" offset="0%"></stop>
            <stop stop-color="#2DBFE9" offset="97.9768786%"></stop>
        </linearGradient>
        <linearGradient x1="19.6097445%" y1="11.3630677%" x2="81.562163%" y2="83.4313174%" id="linearGradient-3">
            <stop stop-color="#00E47C" offset="0%"></stop>
            <stop stop-color="#00AD76" offset="100%"></stop>
        </linearGradient>
        <linearGradient x1="13.1986655%" y1="13.6208633%" x2="74.0053128%" y2="77.5610024%" id="linearGradient-4">
            <stop stop-color="#21F695" offset="0%"></stop>
            <stop stop-color="#00E37C" offset="100%"></stop>
        </linearGradient>
        <linearGradient x1="2.71821571%" y1="-3.09374972%" x2="97.9768786%" y2="124.780157%" id="linearGradient-5">
            <stop stop-color="#6BFFE5" offset="0%"></stop>
            <stop stop-color="#00F366" offset="100%"></stop>
        </linearGradient>
        <linearGradient x1="19.6097445%" y1="11.3630677%" x2="81.562163%" y2="83.4313174%" id="linearGradient-6">
            <stop stop-color="#30C2E5" offset="0%"></stop>
            <stop stop-color="#51DCC0" offset="100%"></stop>
        </linearGradient>
        <linearGradient x1="100%" y1="126.728645%" x2="2.02312139%" y2="32.3661258%" id="linearGradient-7">
            <stop stop-color="#50D38E" offset="0%"></stop>
            <stop stop-color="#1D99BC" offset="100%"></stop>
        </linearGradient>
        <ellipse id="path-8" cx="66.2984693" cy="65" rx="65.3773585" ry="65"></ellipse>
        <linearGradient x1="49.6401001%" y1="1.36896404%" x2="50%" y2="100%" id="linearGradient-10">
            <stop stop-color="#F2FDFF" offset="0%"></stop>
            <stop stop-color="#C9F8FF" offset="100%"></stop>
        </linearGradient>
        <path d="M92.6153567,1.14374885 L170.297773,45.1969939 C173.429516,46.9729873 175.364833,50.2953469 175.364833,53.8956203 L175.364833,141.693741 C175.364833,145.294015 173.429516,148.616374 170.297773,150.392367 L92.6153567,194.445613 C89.5556093,196.180777 85.8092235,196.180777 82.7494762,194.445613 L5.06705975,150.392367 C1.93531643,148.616374 -2.79199205e-12,145.294015 -2.79243295e-12,141.693741 L-2.84750001e-12,53.8956203 C-2.85113861e-12,50.2953469 1.93531643,46.9729873 5.06705975,45.1969939 L82.7494762,1.14374885 C85.8092235,-0.591416015 89.5556093,-0.591416015 92.6153567,1.14374885 Z" id="path-11"></path>
        <filter x="-43.9%" y="-37.6%" width="187.8%" height="179.3%" filterUnits="objectBoundingBox" id="filter-12">
            <feOffset dx="0" dy="4" in="SourceAlpha" result="shadowOffsetOuter1"></feOffset>
            <feGaussianBlur stdDeviation="25" in="shadowOffsetOuter1" result="shadowBlurOuter1"></feGaussianBlur>
            <feColorMatrix values="0 0 0 0 0.203921569   0 0 0 0 0.462745098   0 0 0 0 0.560784314  0 0 0 0.6 0" type="matrix" in="shadowBlurOuter1"></feColorMatrix>
        </filter>
        <linearGradient x1="50%" y1="-30.4555533%" x2="50%" y2="99.6352838%" id="linearGradient-13">
            <stop stop-color="#35C7EA" offset="0%"></stop>
            <stop stop-color="#149E82" offset="100%"></stop>
        </linearGradient>
        <path d="M92.6153567,1.14374885 L170.297773,45.1969939 C173.429516,46.9729873 175.364833,50.2953469 175.364833,53.8956203 L175.364833,141.693741 C175.364833,145.294015 173.429516,148.616374 170.297773,150.392367 L92.6153567,194.445613 C89.5556093,196.180777 85.8092235,196.180777 82.7494762,194.445613 L5.06705975,150.392367 C1.93531643,148.616374 -2.79803239e-12,145.294015 -2.78888024e-12,141.693741 L-2.8439473e-12,53.8956203 C-2.84918473e-12,50.2953469 1.93531643,46.9729873 5.06705975,45.1969939 L82.7494762,1.14374885 C85.8092235,-0.591416015 89.5556093,-0.591416015 92.6153567,1.14374885 Z" id="path-14"></path>
        <filter x="-43.9%" y="-37.6%" width="187.8%" height="179.3%" filterUnits="objectBoundingBox" id="filter-15">
            <feOffset dx="0" dy="4" in="SourceAlpha" result="shadowOffsetOuter1"></feOffset>
            <feGaussianBlur stdDeviation="25" in="shadowOffsetOuter1" result="shadowBlurOuter1"></feGaussianBlur>
            <feColorMatrix values="0 0 0 0 0.203921569   0 0 0 0 0.462745098   0 0 0 0 0.560784314  0 0 0 0.6 0" type="matrix" in="shadowBlurOuter1"></feColorMatrix>
        </filter>
        <path d="M92.6153567,1.14374885 L170.297773,45.1969939 C173.429516,46.9729873 175.364833,50.2953469 175.364833,53.8956203 L175.364833,141.693741 C175.364833,145.294015 173.429516,148.616374 170.297773,150.392367 L92.6153567,194.445613 C89.5556093,196.180777 85.8092235,196.180777 82.7494762,194.445613 L5.06705975,150.392367 C1.93531643,148.616374 -2.82929554e-12,145.294015 -2.82973645e-12,141.693741 L-2.83684187e-12,53.8956203 C-2.84207931e-12,50.2953469 1.93531643,46.9729873 5.06705975,45.1969939 L82.7494762,1.14374885 C85.8092235,-0.591416015 89.5556093,-0.591416015 92.6153567,1.14374885 Z" id="path-16"></path>
        <filter x="-43.9%" y="-37.6%" width="187.8%" height="179.3%" filterUnits="objectBoundingBox" id="filter-17">
            <feOffset dx="0" dy="4" in="SourceAlpha" result="shadowOffsetOuter1"></feOffset>
            <feGaussianBlur stdDeviation="25" in="shadowOffsetOuter1" result="shadowBlurOuter1"></feGaussianBlur>
            <feColorMatrix values="0 0 0 0 0.203921569   0 0 0 0 0.462745098   0 0 0 0 0.560784314  0 0 0 0.6 0" type="matrix" in="shadowBlurOuter1"></feColorMatrix>
        </filter>
    </defs>
    <g id="AML-Screening" stroke="none" stroke-width="1" fill="none" fill-rule="evenodd">
        <g id="AML-Risk-Screening" transform="translate(-1319.000000, -1372.000000)">
            <g id="Group-9" transform="translate(1368.000000, 1373.000000)">
                <path d="M468.419511,0.924498569 L637.919511,96.7015848 C641.058797,98.4754586 643,101.80202 643,105.407813 L643,296.592187 C643,300.19798 641.058797,303.524541 637.919511,305.298415 L468.419511,401.075501 C465.366668,402.800531 461.633332,402.800531 458.580489,401.075501 L289.080489,305.298415 C285.941203,303.524541 284,300.19798 284,296.592187 L284,105.407813 C284,101.80202 285.941203,98.4754586 289.080489,96.7015848 L458.580489,0.924498569 C461.633332,-0.800530562 465.366668,-0.800530562 468.419511,0.924498569 Z" id="Polygon-Copy-2" fill="url(#linearGradient-1)" style="mix-blend-mode: multiply;" opacity="0.200000003"></path>
                <path d="M588.921468,306.927513 L684.921468,361.201409 C688.059655,362.975593 690,366.301542 690,369.906531 L690,478.093469 C690,481.698458 688.059655,485.024407 684.921468,486.798591 L588.921468,541.072487 C585.867618,542.798991 582.132382,542.798991 579.078532,541.072487 L483.078532,486.798591 C479.940345,485.024407 478,481.698458 478,478.093469 L478,369.906531 C478,366.301542 479.940345,362.975593 483.078532,361.201409 L579.078532,306.927513 C582.132382,305.201009 585.867618,305.201009 588.921468,306.927513 Z" id="Polygon-Copy-2" fill="url(#linearGradient-2)" style="mix-blend-mode: multiply;" opacity="0.200000003"></path>
                <path d="M137.921468,464.927513 L233.921468,519.201409 C237.059655,520.975593 239,524.301542 239,527.906531 L239,636.093469 C239,639.698458 237.059655,643.024407 233.921468,644.798591 L137.921468,699.072487 C134.867618,700.798991 131.132382,700.798991 128.078532,699.072487 L32.0785322,644.798591 C28.9403453,643.024407 27,639.698458 27,636.093469 L27,527.906531 C27,524.301542 28.9403453,520.975593 32.0785322,519.201409 L128.078532,464.927513 C131.132382,463.201009 134.867618,463.201009 137.921468,464.927513 Z" id="Polygon-Copy-2" fill="url(#linearGradient-2)" style="mix-blend-mode: multiply;" opacity="0.100000001"></path>
                <path d="M65.4445351,94.9449542 L108.944535,119.690268 C112.069763,121.468078 114,124.786804 114,128.382309 L114,177.617691 C114,181.213196 112.069763,184.531922 108.944535,186.309732 L65.4445351,211.055046 C62.378838,212.798991 58.621162,212.798991 55.5554649,211.055046 L12.0554649,186.309732 C8.93023739,184.531922 7,181.213196 7,177.617691 L7,128.382309 C7,124.786804 8.93023739,121.468078 12.0554649,119.690268 L55.5554649,94.9449542 C58.621162,93.2010085 62.378838,93.2010085 65.4445351,94.9449542 Z" id="Polygon-Copy-2" fill="url(#linearGradient-2)" style="mix-blend-mode: multiply;" opacity="0.100000001"></path>
                <g id="Group-32" transform="translate(56.000000, 121.000000)">
                    <g id="Group-36">
                        <circle id="Oval-4" fill="url(#linearGradient-3)" cx="263.86492" cy="262.930826" r="262.88"></circle>
                        <circle id="Oval-4" fill="url(#linearGradient-4)" opacity="0.5" cx="217.553141" cy="235.119618" r="207.511779"></circle>
                        <circle id="Oval-4" fill="url(#linearGradient-5)" opacity="0.200000003" cx="156.233928" cy="200.090194" r="137.146093"></circle>
                        <circle id="Oval-4" fill="url(#linearGradient-6)" style="mix-blend-mode: color;" cx="263.86492" cy="262.930826" r="262.88"></circle>
                        <path d="M523.695921,228.606858 C514.102343,155.323533 474.131948,91.5953767 416.856412,50.4684603 L417.334384,50.8354744 C418.704285,51.9109111 421.917792,54.4245308 429.027623,60.5101366 C425.626341,58.0904041 422.481116,55.3420661 419.075567,52.9266012 C440.033778,72.0284044 440.033778,72.0284044 440.332511,72.3570101 C439.10344,71.6101791 439.10344,71.6101791 435.05775,68.6826016 C436.995243,70.7481227 439.368032,72.3399397 441.309792,74.4011932 C434.426144,70.5219396 429.08737,64.6667846 422.84813,59.9638831 C424.956327,61.0179817 426.979172,62.2342493 429.053229,63.3566296 C427.512623,58.0818689 406.332496,46.055756 397.698831,43.1964602 C397.583904,47.6006293 430.866961,101.833363 437.39213,102.247321 C437.511623,100.954236 437.498821,99.1959825 437.281173,97.9157008 C443.823412,101.73094 446.482131,108.900518 451.330131,114.183814 C452.951821,110.620363 452.951821,110.620363 446.388243,99.4093628 C446.925962,87.2850949 434.464553,83.5509399 430.29937,74.4694749 C424.704539,68.5289677 424.567975,68.3369255 422.886539,65.9854747 C422.895074,65.4605592 422.895074,65.4605592 422.895074,65.4605592 L422.903609,65.4605592 C435.049215,71.567503 433.675046,96.2129261 451.680074,92.0690809 C452.179384,92.5854612 452.845131,93.2725457 453.344441,93.788926 C452.452511,94.5186866 451.103948,95.3124613 450.032779,95.7434894 C452.132441,99.763574 456.173863,102.179039 458.529582,105.990011 C458.751497,107.432462 458.751497,107.432462 458.751497,107.432462 L458.742962,107.432462 C457.953455,106.399701 456.754258,105.132222 455.781243,104.274433 C455.550793,107.679983 458.956342,111.618983 460.825553,114.478279 C460.932244,115.65187 461.359004,117.205279 461.849779,118.280715 C460.825553,117.717391 459.498328,116.906546 458.525314,116.253603 C458.508244,117.504011 458.337539,119.168377 458.102821,120.397448 C452.298877,120.248082 452.298877,120.248082 441.740821,104.133602 C441.565849,105.554715 441.412215,107.517814 441.740821,108.913321 C442.743708,113.197997 447.536229,114.862363 448.731159,119.019011 C449.823666,122.821448 446.938764,126.295279 447.817891,130.080645 C444.463553,133.976969 446.494933,142.324406 439.286947,142.802378 C439.047961,143.421181 438.727891,144.244828 438.484637,144.863631 C442.573004,151.444279 453.71999,153.676237 451.172229,164.328181 C449.149384,164.562899 447.122271,164.498885 445.099426,164.434871 C443.447863,164.38366 441.7963,164.332449 440.144736,164.443406 C439.726511,165.066477 439.17599,165.89866 438.762032,166.525998 C439.717976,170.260153 441.083609,175.210576 442.095032,178.92766 C441.664004,180.067111 441.365271,181.722942 441.4933,182.934942 C442.129173,183.357435 442.986962,183.920759 443.622835,184.347519 C443.994116,185.990548 444.356863,187.646379 444.702539,189.310745 C447.685595,189.434505 448.394018,189.464379 450.860694,192.665083 C453.651708,192.34928 456.024497,190.527013 458.883793,190.467266 C461.700413,184.991928 457.782751,178.334463 461.930863,173.093843 C461.977807,169.581604 461.423018,167.793477 460.846891,166.018153 C462.003413,165.757829 463.172737,165.80904 464.342061,165.860251 C465.4303,165.902928 466.518539,165.949871 467.593976,165.749294 C467.973793,164.998195 468.473103,163.999575 468.85292,163.248477 C470.713596,164.221491 484.489427,179.670224 484.924723,183.814069 C484.075469,184.714534 482.628751,185.627801 481.47223,186.067365 C483.051244,187.78721 485.155174,190.083182 486.738455,191.807294 C485.633146,187.492745 488.872258,182.644745 485.116765,178.658801 C485.7313,178.637463 486.554948,178.611857 487.169484,178.594787 C485.791047,175.4709 482.543399,173.571815 481.621596,170.149195 C475.945681,167.874561 472.753511,157.760336 472.740709,157.670716 C473.316835,157.53842 474.089272,157.371984 474.665399,157.248223 C481.950202,168.070871 487.126808,180.225012 495.508385,190.364844 C496.276554,188.239576 496.276554,188.239576 498.171371,187.360449 C496.536878,185.393083 495.354751,183.967703 492.981963,179.375759 C493.302033,178.893519 493.715991,178.261914 494.031794,177.783942 C493.814146,177.186477 493.523948,176.392702 493.314836,175.799505 C501.269653,178.8039 499.566878,187.428731 503.27116,192.908337 C503.98385,192.024942 504.538639,190.437393 504.436216,189.310745 C504.931259,190.51421 505.771977,192.054815 506.506005,193.130252 C506.979709,192.767506 507.611315,192.280999 508.080752,191.913984 C510.718132,194.918379 512.928752,208.613126 510.696794,211.643126 C510.142005,211.480957 509.399442,211.267576 508.844653,211.109675 C508.170371,210.559154 508.170371,210.559154 508.170371,210.559154 L508.153301,210.559154 C505.217188,209.773914 503.87716,209.411168 498.670681,205.438027 C498.090287,205.630069 497.313582,205.87759 496.72892,206.069633 C496.874019,208.493633 497.369061,210.892027 497.266639,213.341633 C496.558216,213.247745 495.563864,213.307492 494.902385,213.030098 C493.570892,212.479576 492.102836,211.066999 491.283455,209.88914 C488.953343,206.543337 484.118145,206.654295 481.928864,203.116449 C479.692638,199.49752 481.25885,195.212844 479.871878,191.448815 C478.250188,187.053182 463.693384,191.84997 462.413103,193.795999 C460.531089,196.646759 458.090018,197.901435 452.320215,194.747675 C451.018595,196.535801 450.442469,198.682407 449.439581,200.6199 L449.341426,200.764999 L449.332891,200.764999 L431.950933,245.335873 C436.948299,252.565197 435.996623,256.555408 433.372046,264.89431 C428.455764,280.505212 452.281807,303.004029 452.554934,303.140592 C457.163948,301.365268 458.713089,300.878761 463.71899,301.535973 C474.230103,293.239747 477.127807,297.733536 477.703934,302.961353 C479.641427,303.720987 479.641427,303.720987 483.294498,302.171846 C483.332906,302.355353 480.315709,347.809622 479.893216,349.46972 C479.807864,349.802593 461.956469,402.080763 453.591962,419.151186 C478.595864,422.479919 522.761315,335.036678 525.189583,277.385592 C524.890851,278.789634 524.387273,280.641775 523.845287,281.973268 C519.02716,275.012803 525.394428,269.268606 525.919344,262.888535 L525.919344,262.854394 C525.919344,253.491267 525.428569,244.243366 524.46409,235.132028 L524.472625,236.011154 C523.281963,230.305366 521.079879,217.690323 521.062808,217.604971 C521.259118,216.085703 521.259118,216.085703 521.259118,216.085703 L521.271921,216.085703 C522.12971,220.250886 522.880808,224.428872 523.691653,228.602591 L523.695921,228.606858 M498.175639,187.360449 L498.179906,187.356182 L498.171371,187.360449 L498.175639,187.360449 M513.812146,224.181351 C512.198991,218.4969 510.45354,213.781196 509.151921,211.570576 C510.466343,213.580619 512.263005,218.488365 513.957245,224.693464 L513.812146,224.181351 M522.505259,275.495043 C522.445512,274.560437 522.34309,273.318564 522.223597,272.392493 C522.159583,271.935859 522.082766,271.325592 522.018752,270.868958 C521.775498,269.132042 520.977456,267.540225 520.734203,265.807578 C520.358653,263.072042 520.606174,260.298099 520.162343,257.566831 C520.004442,256.572479 519.270414,255.373282 519.129583,254.383197 C518.553456,250.188141 518.916203,245.912 517.973062,241.755352 L514.67847,227.399126 C513.867625,224.373394 513.867625,224.373394 514.136484,223.293689 L514.409611,223.13152 C514.494963,223.242478 523.013104,243.048436 522.599146,276.988705 C522.573541,276.540606 522.5394,275.943141 522.505259,275.495043 Z M441.90299,125.531377 C444.045328,131.9968 444.045328,131.9968 445.078088,133.260011 C445.927342,134.083659 445.598736,134.536025 444.100807,134.60004 C437.494553,134.885969 435.382088,137.412392 434.588313,138.3598 C435.377821,133.204532 435.437567,132.871659 435.689356,132.410758 C432.288074,128.262645 432.288074,128.262645 432.283806,128.194363 C432.667891,127.95111 433.214144,128.283983 433.54275,127.840152 C433.312299,126.389166 432.113102,125.31373 431.963736,123.824335 C431.903989,123.243941 431.903989,123.243941 433.022102,122.625138 C433.047708,122.330673 431.071806,116.569405 427.538229,117.572293 L426.846877,116.765715 C425.519651,114.964786 425.024609,112.715757 423.701651,110.914828 C423.279158,110.338701 423.155398,110.167997 422.161046,109.856462 C420.991722,109.493715 420.671651,108.909053 419.912017,107.27456 C417.19782,101.432208 416.753989,100.292757 418.981679,99.1703768 C420.266229,100.484799 421.017327,102.080884 421.273384,104.039715 C421.388609,104.927377 421.473961,105.166363 421.781229,105.452292 C422.822524,106.438109 423.812609,103.412377 424.691736,104.54756 C425.276398,105.319997 425.57513,106.310081 426.159792,108.546307 C426.940764,111.537898 427.367525,113.189462 428.916665,112.387152 L429.159919,112.493842 C430.329243,113.774124 431.093144,115.34887 432.245398,116.633419 C433.696384,118.25511 435.531454,119.475645 436.909891,121.169884 C438.062145,122.582462 439.052229,124.477279 439.521666,125.390546 C440.311173,125.390546 441.083609,125.390546 441.856046,125.390546 L441.90299,125.531377 Z M426.070172,118.89525 C426.334764,119.795715 425.942144,120.717518 426.142722,121.622251 C426.292088,122.262391 426.765792,122.719025 427.047454,123.282349 C428.033271,125.249715 428.579525,126.86287 428.622201,127.95111 L428.472834,128.962532 C428.169834,129.683758 427.213891,129.632546 426.87675,130.315363 C426.509736,131.049392 426.77006,131.851701 426.659102,132.615603 L426.496933,132.722293 C425.976285,132.607068 424.358863,131.254237 423.95344,130.601293 C423.74006,130.259885 423.774201,129.794716 423.808341,129.308208 C424.051595,126.137377 423.338905,124.123068 423.33037,124.105997 L422.771313,124.195617 C422.43844,124.583969 421.661736,125.497237 420.048581,122.369082 C419.438313,121.191222 420.052848,120.862617 420.313172,120.721786 C421.060003,120.324898 422.11837,120.90956 422.698764,119.970687 C422.259201,118.541039 420.90637,117.64911 420.500947,116.198124 C420.155271,114.960518 420.902102,114.862363 421.264848,114.819687 C422.681693,114.913574 425.562327,117.158335 426.070172,118.89525 Z M381.47796,68.3411931 C382.130904,69.3014044 383.556284,71.7552777 383.351439,72.1607002 C382.792383,72.1948411 382.792383,72.1948411 382.813721,74.4011932 C382.826524,75.7582918 382.502186,77.9987848 380.189143,77.7726017 C378.102284,77.5677567 376.591552,75.724151 374.423608,75.7369538 C372.917143,75.7497566 372.759242,75.7540242 372.434904,75.6302637 C371.790495,75.3870101 372.046552,74.815151 372.097763,74.6999256 C372.507453,73.8976157 373.19027,72.5533199 368.060608,70.679841 C370.787608,70.6072917 368.807439,68.255841 368.495904,67.9912494 C367.808819,67.4023198 367.061988,67.4535311 366.349298,67.5559536 C365.179974,67.7223903 364.697735,67.6157001 364.283777,67.086517 C364.172819,66.9414184 363.323565,65.3282635 364.471551,65.149024 C364.714805,65.1106156 365.269594,65.1106156 366.298087,65.5245733 C364.787354,64.2827001 362.51272,62.4049535 364.078932,62.1702352 L364.249636,62.1574324 C366.140185,63.3267564 366.579749,63.634024 367.75334,65.3538691 C368.440425,66.361024 369.140312,66.7323057 369.601213,66.8646015 L370.16027,66.8560663 L370.309636,66.6597564 C370.629706,66.2500663 370.493143,65.6782071 370.804678,65.268517 C370.983918,65.0466015 370.983918,65.0466015 372.046552,64.402193 C373.471932,63.5401367 376.817735,61.5258268 381.47796,68.3411931 Z M381.742552,341.497833 L358.027467,382.385763 C352.466777,388.552453 341.371002,385.151172 337.508818,394.249707 C332.178579,406.787933 332.178579,406.787933 323.856748,414.627524 C323.011762,415.417031 321.91072,416.513806 321.010255,417.243567 C317.690057,419.919355 313.332832,419.740116 309.641353,421.387412 C309.654156,422.108637 309.675494,423.073116 309.692564,423.794341 C310.336973,424.024792 311.207564,424.33206 311.85624,424.566778 C309.423705,433.430595 298.374874,432.29968 294.516958,439.516201 C293.125719,439.669835 291.171156,439.311356 289.929282,438.666947 C289.583606,439.255877 289.118437,440.041116 288.772761,440.625778 C289.553733,441.769497 290.825479,443.152201 291.913719,444.014257 C290.880958,445.085426 288.926395,445.943215 287.458339,446.216342 C286.963296,447.471018 286.29755,449.139652 285.802508,450.385793 C284.471015,450.863765 282.849324,452.135511 282.166507,453.368849 C282.623141,454.670469 283.87355,456.279356 285.094085,456.9323 C285.19224,457.62792 285.316,458.55399 285.409888,459.24961 C274.326916,471.668342 273.665437,472.410906 282.264662,480.920512 C270.588493,483.707258 267.571296,474.805033 267.268296,473.780807 C263.828606,462.266807 270.870155,451.661807 270.161733,440.386792 C269.525859,441.803638 268.049268,443.485074 266.679366,444.214835 C270.639704,431.51444 271.843169,418.246454 274.621381,405.302806 C280.493606,377.981594 280.493606,377.981594 262.975084,361.743354 C262.155704,360.979453 242.887464,342.880537 247.517817,325.259593 C239.003943,311.884917 265.736225,300.520282 252.720028,289.629353 C251.776887,290.04331 251.776887,290.04331 246.203394,294.195691 C246.152183,294.157282 234.885704,286.633493 230.562619,284.188155 C230.502873,283.462662 230.41752,282.493916 230.349239,281.768423 C223.465591,277.458141 215.55345,274.906113 209.344083,269.443578 L209.437971,269.409437 L209.463576,269.400902 C181.56197,260.272493 179.283069,259.525662 170.709449,252.074422 C170.705181,251.937859 152.806843,216.525267 148.458153,211.002985 C147.971645,211.493759 147.322969,212.146703 146.836462,212.641745 C146.862068,212.774041 151.846631,229.054957 158.781491,238.742422 C158.521167,239.403901 158.179758,240.287295 157.923702,240.944507 C151.59911,236.591549 149.806716,228.444689 143.691237,223.908225 C144.369786,223.626563 145.274519,223.242478 145.953068,222.956548 C145.965871,222.824253 142.931603,206.095238 135.93273,200.415055 C124.760138,191.346393 124.760138,191.346393 133.201462,145.990279 C134.835955,145.849448 136.969758,145.213575 138.471955,144.564899 C136.781983,136.409504 136.747842,136.255871 129.847124,134.045251 C123.804194,98.1632219 123.804194,98.1632219 115.136687,88.7616865 C113.779588,91.4588133 112.708419,93.5883486 103.400771,98.6796022 C104.565828,95.8203063 104.565828,95.8203063 107.450729,91.9538556 C96.2397289,99.9428135 88.131278,111.934786 74.8419538,117.230884 C85.5365737,109.59187 86.9107428,108.140884 92.6976161,102.038208 C92.6293344,101.21456 92.5354471,100.113518 92.471433,99.2898698 C91.8782358,98.9271233 91.097264,98.4406163 90.5083344,98.0778698 C90.999109,96.5586021 91.9209119,94.6168415 92.753095,93.2554753 C92.0830809,93.3707007 91.1911513,93.5286021 90.5211372,93.648095 C94.4985457,83.4783906 109.529053,83.5765455 111.261701,71.3285171 C110.647166,71.6229819 109.823518,72.0070664 109.208983,72.3015312 C108.560307,71.989996 107.69825,71.5845734 107.049574,71.2773058 C108.082335,69.489179 111.219025,64.0522493 118.128279,62.6396718 C117.838081,63.3096859 117.453997,64.2058831 117.1638,64.8801649 C130.777462,58.6878689 134.831687,38.4935587 153.677434,39.961615 C153.651829,40.6743052 153.621955,41.6174461 153.59635,42.3301362 C158.516899,43.6786996 160.168463,45.4881644 161.265237,46.683094 C161.094533,48.1298124 160.787265,50.050235 160.509871,51.4841505 C167.367913,50.6434322 172.083618,43.5421362 179.701294,44.9291081 C179.35135,46.3288828 178.971533,48.2108969 178.753886,49.6362772 C184.344449,46.0472208 184.344449,46.0472208 194.07459,52.009066 C193.18266,53.0930378 191.974928,54.5184182 191.048858,55.5725168 C192.324872,55.7048125 192.324872,55.7048125 208.985604,52.431559 C210.065309,54.2794322 212.93314,59.1871788 221.09707,54.1044604 C220.59776,49.04308 221.70307,47.2592208 225.646337,46.7556433 C226.730309,48.9747983 226.188323,51.4670801 226.845534,53.7545167 C231.783154,49.7984462 231.330788,48.3986715 228.633661,45.0955447 C229.141506,41.433939 230.622366,38.9160516 234.091929,35.7964318 L234.736337,36.043953 C234.791816,38.9416573 234.791816,38.9416573 233.989506,46.7086997 C234.591239,47.0970518 235.389281,47.6091645 235.991014,47.993249 C236.187323,49.3418124 236.03369,51.2238265 235.589859,52.5126435 C236.810394,51.684728 238.26138,50.2636152 239.06369,49.0260096 C239.746507,52.4400942 239.866,53.0546294 238.419281,56.7503759 C238.905788,57.2539534 239.562999,57.9325027 240.053774,58.4360802 C240.109253,58.3848689 245.64007,53.1101083 246.15645,46.7855166 C246.800859,46.520925 247.658648,46.1667138 248.298788,45.8978546 C249.690028,46.4910518 251.350127,47.7329251 252.370084,48.8425025 C252.139634,50.3788406 251.674465,52.4144885 251.145281,53.8740097 C254.589239,60.8003338 240.011098,67.2401508 234.211422,66.6810945 C234.544295,67.3084325 234.988126,68.1320804 235.316732,68.7551508 C236.020887,68.8020945 236.946957,68.8703762 237.642577,68.9215875 C237.706591,69.608672 237.791943,70.5219396 237.85169,71.2090241 C215.532112,94.5101514 215.532112,94.5101514 215.378478,97.38225 C216.633154,98.227236 218.724281,99.0466163 220.217943,98.8204332 C220.764196,99.2599966 221.489689,99.8531938 222.031675,100.292757 C221.664661,101.816292 221.122675,103.822067 220.691647,105.324264 C236.392168,115.814039 238.496098,115.728687 245.456563,115.43849 C244.504887,126.815927 244.504887,126.815927 250.850817,131.753547 C251.661662,131.646856 252.737098,131.501758 253.543676,131.3908 C257.090056,125.531377 252.365817,116.629152 260.504141,112.459701 C260.551084,107.394053 260.551084,107.394053 255.579324,98.5558416 C258.528239,94.8600951 258.528239,94.8600951 257.45707,83.3503624 C258.092944,82.8297145 258.946465,82.1340948 259.582338,81.6177145 C266.278211,82.5949962 271.646859,87.0546442 278.103747,88.6592639 C278.752423,91.4246725 279.614479,95.1118838 280.267423,97.8730247 C281.543437,98.4704895 283.109648,99.5843346 284.112536,100.578687 C287.52662,100.233011 287.52662,100.233011 289.464113,93.1274471 C291.653395,93.6822359 317.480945,124.784546 317.651649,125.074744 C317.783945,125.292391 317.783945,125.292391 317.600438,140.775265 C324.415804,140.395448 324.415804,140.395448 324.97486,140.489335 C328.09448,147.048645 328.09448,147.048645 310.157733,148.098476 C311.600184,143.553476 313.520607,137.497744 314.95879,132.957011 L290.138395,136.366828 C290.112789,136.375364 286.574944,138.850575 279.75531,148.439885 C289.374494,139.405364 291.614987,139.990026 295.327803,140.958772 C295.511311,141.628786 295.758832,142.524983 295.946606,143.199265 C294.393198,144.266167 292.046015,145.251983 290.266423,145.870786 C291.717409,146.583476 293.475663,147.919237 294.542564,149.131237 C294.49562,149.899406 294.427339,150.927899 294.376127,151.6918 C296.979367,152.989153 299.505789,154.423068 302.066353,155.784434 C303.585621,155.191237 305.403621,153.697575 306.252874,152.2978 C306.914353,152.408758 307.802015,152.553857 308.467762,152.669082 C308.557381,153.424448 308.676874,154.423068 308.762226,155.178434 C305.621268,158.908322 303.278353,160.436125 293.821339,163.380773 C292.596536,161.298181 293.108649,158.835772 292.35755,156.646491 C291.533902,157.064716 290.437127,157.619505 289.617747,158.033463 L289.472648,158.067603 L289.387296,157.888364 C289.378761,158.566913 289.370226,159.467378 289.365958,160.14166 L268.75769,176.755449 C245.823577,217.131267 245.823577,217.131267 247.731197,233.446323 C243.220338,232.891535 243.220338,232.891535 239.870267,216.149717 C236.477521,214.161013 232.80738,214.199422 229.137239,214.242098 C226.499858,214.271971 223.866746,214.301844 221.331788,213.576351 C220.631901,214.020182 219.697295,214.609112 218.997408,215.048675 C218.920591,215.782703 218.809633,216.764253 218.732816,217.502548 C218.148154,217.831154 218.148154,217.831154 203.488928,216.606351 C202.550055,217.758605 201.461816,219.465647 200.9369,220.856886 C190.511139,223.575351 192.973548,248.071408 198.704942,253.982042 C203.527337,258.953803 207.99552,254.989197 212.613069,251.024591 C217.06845,247.196549 221.664661,243.368507 226.858337,247.576366 C225.697549,250.879493 222.91507,259.26107 222.300534,265.777704 C225.240915,266.60562 228.236774,266.545873 231.232633,266.486127 C233.268281,266.443451 235.308197,266.405042 237.331042,266.644028 C241.154816,273.553282 233.366436,285.57086 243.753788,288.827043 C252.050014,284.192423 252.549324,283.919296 258.127084,289.415972 C260.87969,288.562451 261.374732,288.40455 262.701958,282.199451 C300.231282,270.711057 334.602579,298.693747 344.665593,316.229339 C358.070143,319.669029 368.099016,330.572762 381.917524,333.10772 C382.647284,336.901621 382.224791,339.765185 381.742552,341.497833 Z M282.286,3.02121989 C292.395958,4.77520584 309.500522,11.0827271 312.436635,12.6062623 L311.873311,12.7684314 L311.779424,13.3317553 C312.039747,13.5835441 312.039747,13.5835441 328.154227,22.3748118 C331.5171,24.2056147 333.484466,26.497319 334.542832,28.0976711 L334.197156,28.6311218 C339.459114,34.7423332 347.584636,38.002784 351.203565,45.7399532 C351.246241,45.8295729 352.671622,54.270897 345.967213,53.8014604 C343.261551,53.6136857 343.261551,53.6136857 342.775044,53.8142632 C344.477819,59.6864887 344.477819,59.6864887 343.287157,63.3608972 C342.22879,66.6298832 337.564297,67.0054325 337.25703,70.8846861 C337.064987,73.342827 339.523128,74.7127284 339.766382,76.9916299 C339.915748,78.4127426 338.05934,78.9419257 338.27272,80.3886441 C338.409283,81.3104469 338.810438,82.4968413 339.087833,83.3845033 C340.363847,87.4472639 341.063734,89.6834893 340.747931,91.548433 C340.19741,94.7534049 337.837424,93.5371373 336.121847,92.6494753 C334.239832,91.6849964 334.312382,88.2751794 331.423213,88.6421935 C328.030466,89.0689541 327.509818,89.1372358 326.609353,88.0489963 C326.451452,87.8569541 310.533283,68.157686 307.750804,58.265376 C306.457719,53.6734322 306.257142,52.6833477 308.288522,52.0261364 C310.456466,51.3219815 308.945733,47.4683335 308.928663,47.4341927 C306.935691,43.4013052 301.806029,44.1267982 299.207057,41.011446 C300.594029,40.5804179 301.712142,41.2248263 302.834522,41.8692348 C303.905691,42.4880376 304.97686,43.1025728 306.282747,42.7782348 C306.112043,42.4325587 305.719423,41.6089108 298.895522,35.0069248 L298.528508,35.4550234 C298.818705,37.9216995 298.818705,37.9216995 298.677874,38.4338122 C298.076142,38.2801784 296.061832,37.4821361 295.682015,33.7138403 C294.662057,23.5612062 278.338465,13.9078821 274.681127,16.2721357 L274.629916,16.9378822 C271.390803,15.7088117 270.959775,14.612037 270.64824,13.8139948 C268.659535,13.0500933 267.980986,12.7300229 268.143155,11.6375158 C268.744887,11.2320933 268.744887,11.2320933 270.050775,11.1723468 C269.035085,9.77257214 266.572676,9.92620595 266.329423,7.69424816 C266.24407,6.85352983 266.764718,5.20623402 269.389296,5.01419176 C269.210056,3.89607906 268.766225,3.48212131 268.301056,3.03402271 C273.102113,2.87185369 277.681254,2.87185369 281.394071,2.87185369 L282.286,3.02121989 Z" id="Combined-Shape" fill="url(#linearGradient-7)" style="mix-blend-mode: multiply;"></path>
                        <g id="Group-38" transform="translate(238.080000, 187.240000)" fill="#00FFF3" opacity="0.5">
                            <ellipse id="Oval-6" cx="10.54" cy="4.96" rx="9.85603623" ry="4.22401553"></ellipse>
                            <ellipse id="Oval-6" cx="10.54" cy="4.96" rx="5.11397956" ry="2.19170553"></ellipse>
                        </g>
                        <g id="Group-38" transform="translate(163.680000, 229.400000)" fill="#00FFF3" opacity="0.5">
                            <ellipse id="Oval-6" cx="10.54" cy="4.96" rx="9.85603623" ry="4.22401553"></ellipse>
                            <ellipse id="Oval-6" cx="10.54" cy="4.96" rx="5.11397956" ry="2.19170553"></ellipse>
                        </g>
                        <g id="Group-38" transform="translate(312.480000, 353.400000)" fill="#00FFF3" opacity="0.5">
                            <ellipse id="Oval-6" cx="10.54" cy="4.96" rx="9.85603623" ry="4.22401553"></ellipse>
                            <ellipse id="Oval-6" cx="10.54" cy="4.96" rx="5.11397956" ry="2.19170553"></ellipse>
                        </g>
                        <ellipse id="Oval-4" stroke="#005F5A" stroke-width="2" opacity="0.200000003" cx="263.86492" cy="262.930826" rx="84.0867799" ry="262.88"></ellipse>
                        <ellipse id="Oval-4" stroke="#005F5A" stroke-width="2" opacity="0.200000003" cx="263.86492" cy="262.930826" rx="224.361343" ry="262.88"></ellipse>
                        <ellipse id="Oval-4" stroke="#005F5A" stroke-width="2" opacity="0.200000003" transform="translate(263.864920, 262.930826) rotate(-270.000000) translate(-263.864920, -262.930826) " cx="263.86492" cy="262.930826" rx="84.0867799" ry="262.88"></ellipse>
                        <ellipse id="Oval-4" stroke="#005F5A" stroke-width="2" opacity="0.200000003" transform="translate(263.864920, 262.930826) rotate(-270.000000) translate(-263.864920, -262.930826) " cx="263.86492" cy="262.930826" rx="224.361343" ry="262.88"></ellipse>
                        <path d="M56.42,202.74 C108.5,180.113977 147.973333,190.62829 174.84,234.28294" id="Path-8" stroke="#00FFF3" stroke-width="2" stroke-linecap="round" stroke-linejoin="round" stroke-dasharray="5"></path>
                        <path d="M476.16,404.24 C467.48,336.453333 442.68,301.733333 401.76,300.08 C360.84,298.426667 334.386667,317.44 322.4,357.12" id="Path-9" stroke="#00FFF3" stroke-width="2" stroke-linecap="round" stroke-linejoin="round" stroke-dasharray="5"></path>
                    </g>
                    <g id="Group" transform="translate(223.002248, 25.222248)">
                        <path d="M283.431208,335.599303 C277.772363,349.469022 267.858715,367.392966 266.181545,368.246487 C266.019376,367.63622 271.729433,356.647135 271.789179,356.540445 C274.695419,351.658304 276.628644,346.302459 279.163602,341.236811 C279.743996,340.080289 280.07687,339.841303 280.537771,339.516965 C280.819433,339.316388 281.566264,338.782937 283.653123,334.084303 C284.417025,332.351655 284.860856,330.482444 285.897884,328.869289 C285.675968,330.085557 283.456813,335.543824 283.431208,335.599303" id="Fill-41" fill="#DEDED8"></path>
                        <path d="M176.117994,13.5743107 C165.722107,7.35640913 158.275135,3.76735271 151.70729,0.600789266 C160.093135,4.5056485 168.244262,8.83726831 176.117994,13.5743107" id="Fill-42" fill="#DEDED8"></path>
                        <path d="M41.6628084,498.916307 C41.6585408,498.916307 41.6542731,498.916307 41.6500055,498.916307 C41.6585408,498.916307 41.6628084,498.916307 41.6713436,498.916307 C41.6628084,498.916307 41.6628084,498.916307 41.6628084,498.916307 M41.385414,498.916307 C41.3512731,498.916307 41.3213999,498.916307 41.2872591,498.916307 C41.3213999,498.916307 41.3512731,498.916307 41.385414,498.916307 M41.9828788,498.916307 C41.991414,498.916307 42.0042168,498.916307 42.012752,498.916307 C41.9999492,498.916307 41.9956816,498.916307 41.9828788,498.916307 M41.0354703,498.916307 C40.9927943,498.916307 40.9458506,498.916307 40.9031745,498.916307 C40.9501182,498.916307 40.9927943,498.916307 41.0354703,498.916307 M40.7666112,498.912039 C40.5788365,498.912039 40.3825266,498.912039 40.194752,498.912039 C40.3910619,498.912039 40.5703013,498.912039 40.7666112,498.912039 M40.1904844,498.912039 C27.1828221,498.83949 14.3928078,497.815265 1.90152583,495.907645 C14.3928078,497.815265 27.1828221,498.83949 40.1904844,498.912039 M1.8759202,495.903377 C1.68814555,495.873504 1.51744132,495.847898 1.33393427,495.818025 C1.51744132,495.847898 1.68814555,495.873504 1.8759202,495.903377 M1.21870892,495.800955 C1.17176525,495.796687 1.1290892,495.788152 1.08214553,495.779617 C1.1333568,495.788152 1.16749765,495.792419 1.21870892,495.800955 M0.838892008,495.741208 C0.813286374,495.736941 0.783413134,495.732673 0.757807499,495.728405 C0.791948345,495.736941 0.809018768,495.736941 0.838892008,495.741208 M0.501751156,495.689997 C0.493215944,495.689997 0.488948339,495.685729 0.480413127,495.685729 L0.501751156,495.689997 M0.173145515,495.638786 L0.160342698,495.634518 L0.173145515,495.638786" id="Fill-45" fill="#21292A"></path>
                        <path d="M266.181545,368.246487 C266.019376,367.63622 271.729433,356.647135 271.789179,356.540445 C274.695419,351.658304 276.628644,346.302459 279.163602,341.236811 C279.743996,340.080289 280.07687,339.841303 280.537771,339.516965 C280.819433,339.316388 281.566264,338.782937 283.653123,334.084303 C284.417025,332.351655 284.860856,330.482444 285.897884,328.869289 C285.675968,330.085557 283.456813,335.543824 283.431208,335.599303 C277.772363,349.469022 267.858715,367.392966 266.181545,368.246487" id="Fill-48" fill="#A7A8A4"></path>
                        <path d="M41.6628084,439.59232 C41.4408929,439.59232 41.2104422,439.59232 40.984259,439.59232 C41.2104422,439.59232 41.4408929,439.59232 41.6628084,439.59232 C41.8889915,439.59232 42.1194422,439.59232 42.3413577,439.59232 C42.1194422,439.59232 41.8889915,439.59232 41.6628084,439.59232" id="Fill-53" fill="#225184"></path>
                    </g>
                </g>
                <path d="M466,235.033058 C358.666667,204.950413 305,231.272727 305,314" id="Path-7" stroke="#00FFF3" stroke-width="2" stroke-linecap="round" stroke-linejoin="round" stroke-dasharray="5"></path>
                <g id="Group-27" transform="translate(442.000000, 183.000000)"></g>
                <g id="Group-27" transform="translate(411.000000, 154.000000)">
                    <mask id="mask-9" fill="white">
                        <use xlink:href="#path-8"></use>
                    </mask>
                    <use id="Mask" fill="#C4F6FF" xlink:href="#path-8"></use>
                </g>
                <g id="Group-37" transform="translate(0.000000, 287.000000)">
                    <g id="Polygon-Copy-2">
                        <use fill="black" fill-opacity="1" filter="url(#filter-12)" xlink:href="#path-11"></use>
                        <use fill="url(#linearGradient-10)" fill-rule="evenodd" xlink:href="#path-11"></use>
                    </g>
                    <ellipse id="Oval-5" fill="#A2F2FF" opacity="0.285891546" cx="87.6824164" cy="97.7946807" rx="65.0704225" ry="65.0471698"></ellipse>
                    <path d="M140.85455,97.301894 C140.840787,98.3282178 139.997332,99.1490638 138.970641,99.135305 C137.94395,99.1215462 137.122811,98.2783927 137.136575,97.2520689 C137.459485,73.1735407 120.393029,52.962484 96.9986312,49.159755 C95.9851595,48.9950165 95.297173,48.0401819 95.4619704,47.0270723 C95.6267678,46.0139628 96.5819437,45.3262221 97.5954154,45.4909606 C122.803418,49.5884887 141.202216,71.3773812 140.85455,97.301894 Z M87.639653,44.8255621 C88.6660778,44.7984556 89.5201415,45.6082659 89.5472576,46.6343239 C89.5743738,47.6603819 88.764274,48.5141404 87.7378492,48.5412468 C68.999555,49.0360991 52.0862371,60.0142259 43.6620884,76.6333561 C43.1979845,77.5489386 42.0792624,77.9150688 41.1633526,77.4511307 C40.2474428,76.9871927 39.8811818,75.8688704 40.3452857,74.9532879 C49.3793824,57.1308545 67.5187402,45.3569274 87.639653,44.8255621 Z M36.7527402,83.9511735 C37.0464194,82.9676371 38.0820924,82.4083123 39.0659804,82.7018866 C40.0498684,82.9954609 40.6093932,84.0307637 40.3157139,85.0143002 C38.9977558,89.4281624 38.2908293,94.0135256 38.2282861,98.6772015 C38.1526425,104.317739 39.0232167,109.812683 40.7800797,114.995861 C41.1095871,115.967988 40.5883587,117.023077 39.6158834,117.352466 C38.6434082,117.681856 37.5879428,117.160814 37.2584354,116.188686 C35.3661433,110.605959 34.4289954,104.690811 34.5103103,98.6273764 C34.5774773,93.6189166 35.3369641,88.6926297 36.7527402,83.9511735 Z M131.398993,88.2668214 C131.596809,89.2740089 130.940391,90.2507998 129.932844,90.448545 C128.925296,90.6462902 127.948156,89.9901076 127.75034,88.9829202 C124.081761,70.3042013 107.675659,56.8990972 88.2795054,57.1590275 C82.9331584,57.2306746 77.7171579,58.3273154 72.8447717,60.3647083 C71.8975224,60.7608014 70.8084134,60.3142755 70.4121786,59.3673648 C70.0159439,58.420454 70.4626294,57.3317342 71.4098787,56.935641 C76.7184057,54.7158755 82.4042737,53.5204471 88.2296625,53.4423803 C109.427282,53.1583084 127.385419,67.8315503 131.398993,88.2668214 Z M62.4123874,61.9546305 C63.2474217,61.3573485 64.4087165,61.549843 65.006212,62.384579 C65.6037075,63.2193149 65.4111442,64.3801947 64.5761098,64.9774767 C52.0195465,73.9589143 44.3975787,90.4217607 47.6868616,107.289091 C47.8833239,108.296543 47.2255948,109.272452 46.2177825,109.468844 C45.2099702,109.665236 44.2337126,109.007742 44.0372503,108.00029 C40.452969,89.6202175 48.7307896,71.7407808 62.4123874,61.9546305 Z M47.002662,127.876375 C46.7659778,128.87515 45.7641512,129.493015 44.7650198,129.256415 C43.7658883,129.019815 43.1478026,128.018347 43.3844868,127.019572 C44.1873637,123.631543 44.6197279,120.154808 44.6669654,116.632435 C44.7072699,113.627034 44.4662124,110.662779 43.9519421,107.765788 C43.7725369,106.755162 44.446668,105.790502 45.457656,105.611161 C46.4686441,105.43182 47.4336486,106.10571 47.6130538,107.116337 C48.168291,110.244102 48.4283887,113.442493 48.3849412,116.682261 C48.3340468,120.477313 47.8680337,124.224627 47.002662,127.876375 Z M122.848597,89.7818691 C123.05735,90.7868484 122.41159,91.770712 121.406251,91.97939 C120.400913,92.188068 119.416697,91.5425383 119.207945,90.5375591 C117.412621,81.894492 112.060273,74.4896423 104.525873,70.0710826 C103.640245,69.5517048 103.343492,68.4129791 103.863055,67.5276676 C104.382619,66.6423561 105.521751,66.3457082 106.407379,66.8650861 C114.844476,71.813034 120.838731,80.1059462 122.848597,89.7818691 Z M88.1139165,62.0732446 C91.3193705,62.0302879 94.4661517,62.4084546 97.4954718,63.1894451 C98.4897213,63.4457731 99.0878507,64.4592785 98.8314311,65.4531727 C98.5750115,66.447067 97.5611438,67.0449826 96.5668943,66.7886546 C93.8568813,66.0899848 91.039123,65.7513586 88.1637593,65.7898918 C70.3683769,66.0283699 55.7347487,80.6567689 55.4961853,98.4457922 L55.4767229,98.6902323 C55.4695791,98.7389859 55.4601743,99.0952581 55.4981304,99.8470867 C55.5676708,101.22453 55.773716,103.207423 56.158589,105.895176 C56.3040837,106.911235 55.5980573,107.852818 54.581635,107.998261 C53.5652126,108.143704 52.6232927,107.43793 52.477798,106.421871 C52.0778383,103.62876 51.8603315,101.535566 51.7845467,100.034433 C51.7423809,99.1992203 51.7477044,98.6481193 51.7795223,98.3062562 C52.0929093,78.5440354 68.3338954,62.3383191 88.1139165,62.0732446 Z M109.43135,80.4680536 C110.07528,81.2675405 109.948945,82.4374751 109.149173,83.0811757 C108.3494,83.7248764 107.179047,83.5985866 106.535116,82.7990997 C102.119796,77.3171578 95.4322945,74.1256776 88.148757,74.2232852 C74.9592142,74.4000399 64.1094113,85.2459657 63.9320176,98.353352 C63.9383218,98.5762179 63.9550948,98.9840741 63.9861255,99.5216409 C64.037936,100.419193 64.111462,101.338026 64.2099515,102.220895 C64.2623885,102.690945 64.3206466,103.138235 64.3848256,103.557238 C64.4923716,104.25937 64.6144046,104.867578 64.7481329,105.356613 C65.0188763,106.346704 64.435443,107.368734 63.4449981,107.639381 C62.4545532,107.910028 61.432158,107.326803 61.1614145,106.336712 C60.9857577,105.694346 60.8368412,104.952152 60.709351,104.119811 C60.6370891,103.648037 60.5723533,103.151014 60.5145484,102.632845 C60.4080087,101.677813 60.3293582,100.69494 60.2739907,99.735768 C60.2546222,99.4002347 60.2395201,99.0911335 60.2281692,98.8151235 C60.2212669,98.6472867 60.2171093,98.5261452 60.2146176,98.3809701 C60.4184426,83.1822993 72.8948102,70.7103901 88.0989141,70.506638 C96.5331468,70.3936098 104.30403,74.1021129 109.43135,80.4680536 Z M106.498431,94.6448209 C106.652578,95.6596043 105.954601,96.6071654 104.939455,96.7612579 C103.924309,96.9153504 102.976409,96.2176226 102.822261,95.2028392 C101.713928,87.9064686 95.4412378,82.5587501 87.9375285,82.6593083 C86.160475,82.6831228 84.4218394,83.008313 82.7750754,83.6143159 C81.8115091,83.9689047 80.7428305,83.47551 80.388115,82.512288 C80.0333994,81.5490661 80.5269705,80.4807694 81.4905368,80.1261806 C83.5307173,79.3754018 85.6866725,78.9721571 87.8876856,78.9426611 C97.2526052,78.8171606 105.111988,85.517597 106.498431,94.6448209 Z M73.3339528,85.8181874 C74.0008872,85.0377733 75.1744211,84.9455866 75.9551142,85.6122826 C76.7358073,86.2789786 76.828027,87.4520932 76.1610926,88.2325073 C73.7764167,91.022939 72.4211176,94.5296512 72.3711004,98.1437789 C72.3768235,98.3523813 72.3935114,98.7389783 72.4260041,99.2517543 C72.4803229,100.108973 72.5599449,100.99116 72.6690043,101.844425 C72.7451197,102.439941 72.8330205,102.999281 72.9328971,103.510938 C73.0562662,104.142946 73.1952922,104.688002 73.346013,105.124224 C73.681223,106.094401 73.1661989,107.15253 72.1956746,107.48762 C71.2251503,107.82271 70.1666436,107.30787 69.8314336,106.337693 C69.6180123,105.720001 69.437612,105.012735 69.283418,104.222815 C69.1668864,103.625835 69.0665545,102.987392 68.9806782,102.315509 C68.8606628,101.376527 68.7741235,100.417697 68.7151316,99.4867306 C68.6944859,99.1609147 68.6787237,98.8612339 68.667183,98.5938791 C68.660139,98.4306956 68.6560226,98.3125453 68.6536564,98.1698171 C68.7149351,93.6004326 70.392327,89.2603347 73.3339528,85.8181874 Z M97.7056838,95.7551004 C97.8981772,96.7633179 97.23661,97.7366307 96.228032,97.9290553 C95.2194541,98.12148 94.2457934,97.4601491 94.0533,96.4519316 C93.4969565,93.5379863 90.9480145,91.4443982 87.917265,91.4850137 C84.3728923,91.5325123 81.4468649,94.4574941 81.3993493,98.0006002 C81.3973285,98.1512882 81.4038302,98.4595136 81.4310155,98.8869196 C81.4771263,99.6118692 81.5675203,100.382651 81.7259325,101.238406 L81.7129084,101.159451 C81.9017385,102.168361 81.2366404,103.139266 80.2273702,103.328029 C79.2181,103.516791 78.2468478,102.851931 78.0449935,101.764067 L78.0580177,101.843022 C77.7577633,100.238778 77.6693343,98.8485046 77.6813735,97.9507752 C77.7558961,92.3938278 82.3084882,87.8428625 87.8674221,87.7683665 C92.7069235,87.7035118 96.8122179,91.0754188 97.7056838,95.7551004 Z M133.923138,122.208801 C133.865022,123.233572 132.986871,124.017217 131.961734,123.959121 C130.936597,123.901025 130.152673,123.023188 130.210789,121.998418 C130.315139,120.158418 130.379829,118.313356 130.40463,116.464058 C130.41601,115.615431 130.418964,114.767918 130.41351,113.921596 C130.406896,112.895202 131.233889,112.057784 132.26065,112.051172 C133.287412,112.044561 134.125129,112.871258 134.131743,113.897653 C134.137355,114.768566 134.134316,115.64067 134.122606,116.513883 C134.097087,118.416755 134.030519,120.315349 133.923138,122.208801 Z M133.708735,104.204934 C133.791797,105.227986 133.029489,106.124645 132.006071,106.207678 C130.982653,106.29071 130.085674,105.528674 130.002612,104.505622 C129.577937,99.2750315 128.827787,94.1100294 127.759635,89.0321951 C127.548344,88.0277462 128.191616,87.042255 129.196424,86.8310388 C130.201232,86.6198227 131.187075,87.2628649 131.398367,88.2673138 C132.498722,93.4982397 133.27139,98.8182804 133.708735,104.204934 Z M123.690345,135.705079 C123.513404,136.71614 122.550045,137.392379 121.538623,137.215501 C120.527201,137.038623 119.85072,136.075609 120.027661,135.064548 C121.102719,128.921551 121.688856,122.68114 121.773311,116.383607 C121.891113,107.599392 121.029386,98.9574842 119.223232,90.5688945 C119.007181,89.5654578 119.645774,88.5769305 120.64957,88.3609569 C121.653365,88.1449833 122.642246,88.7833483 122.858296,89.786785 C124.723284,98.4486212 125.612839,107.369604 125.491287,116.433432 C125.404171,122.929425 124.79948,129.367359 123.690345,135.705079 Z M112.922522,143.064752 C112.636568,144.050561 111.605315,144.617988 110.619154,144.332136 C109.632993,144.046285 109.065363,143.0154 109.351317,142.029592 C111.876275,133.32495 113.230961,124.298386 113.354002,115.12359 C113.465438,106.814076 112.563011,98.6533877 110.687731,90.7680605 C110.450248,89.7694754 111.067533,88.7675135 112.066475,88.5301158 C113.065417,88.2927182 114.067738,88.9097826 114.30522,89.9083676 C116.251314,98.0914547 117.187521,106.557626 117.071977,115.173415 C116.944445,124.683135 115.540032,134.041044 112.922522,143.064752 Z M102.216523,147.806374 C101.867155,148.771547 100.80123,149.270857 99.8357115,148.921614 C98.8701934,148.572371 98.370705,147.506826 98.7200729,146.541653 C102.406242,136.358146 104.384659,125.619232 104.531718,114.653456 C104.619605,108.099943 104.051206,101.641185 102.846999,95.3433148 C102.654229,94.3351501 103.315529,93.3616561 104.324055,93.1689551 C105.33258,92.9762542 106.306422,93.6373182 106.499192,94.6454829 C107.750501,101.189692 108.340944,107.898946 108.249693,114.703281 C108.097045,126.085856 106.043012,137.235216 102.216523,147.806374 Z M92.5750806,149.540295 C92.1800773,150.487719 91.0915498,150.93566 90.1437864,150.540798 C89.1960229,150.145936 88.7479222,149.057797 89.1429255,148.110372 C92.1928992,140.794937 94.2451436,133.101353 95.226682,125.197877 C95.3531822,124.17928 96.2817617,123.456057 97.3007224,123.582512 C98.3196831,123.708967 99.0431652,124.637214 98.916665,125.655811 C97.8934087,133.895205 95.7539825,141.915622 92.5750806,149.540295 Z M99.6052214,115.60361 C99.5914577,116.629933 98.7480027,117.450779 97.7213121,117.437021 C96.6946214,117.423262 95.8734819,116.580108 95.8872456,115.553785 C95.9743447,109.059046 95.343727,102.668993 94.0208795,96.4639732 C93.806864,95.4601008 94.4474605,94.4728695 95.4516919,94.2589306 C96.4559232,94.0449916 97.4435073,94.6853592 97.6575228,95.6892316 C99.0381246,102.165157 99.6960364,108.831782 99.6052214,115.60361 Z M83.4746768,149.61353 C83.0834929,150.562537 81.9967785,151.014855 81.0474322,150.623811 C80.098086,150.232767 79.6456059,149.146441 80.0367898,148.197434 C80.125116,147.983156 80.2798258,147.605096 80.4776205,147.117031 C80.8072262,146.303717 81.1335468,145.487423 81.4330582,144.722551 C81.4874114,144.58362 81.4874114,144.58362 81.541463,144.444923 C81.8821159,143.569906 82.1578083,142.836377 82.3487668,142.291639 C82.6883328,141.322977 83.7491423,140.812895 84.7181511,141.15234 C85.6871599,141.491784 86.1974241,142.552215 85.8578581,143.520877 C85.6502428,144.113131 85.3612809,144.881966 85.0066149,145.792977 C84.9511846,145.935212 84.9511846,145.935212 84.8955436,146.077435 C84.5900867,146.85749 84.2585584,147.686811 83.9238694,148.512668 C83.7230873,149.008105 83.5656444,149.392844 83.4746768,149.61353 Z M88.4725183,134.647057 C88.2327009,135.645084 87.2289403,136.259804 86.2305562,136.020072 C85.2321721,135.780341 84.6172323,134.776939 84.8570497,133.778911 C86.3679859,127.490978 87.1813471,121.034525 87.2690796,114.492553 C87.3422995,109.032746 86.9083393,103.645876 85.9815906,98.3790441 C85.8037138,97.3681474 86.4793029,96.4045075 87.490561,96.2266943 C88.5018191,96.0488811 89.4658034,96.7242287 89.6436802,97.7351254 C90.6107218,103.230947 91.0633931,108.850083 90.9870554,114.542378 C90.8956134,121.360958 90.0476808,128.091838 88.4725183,134.647057 Z M74.6829724,147.922235 C74.2428439,148.849573 73.1340248,149.244661 72.2063557,148.80469 C71.2786865,148.364719 70.8834567,147.256296 71.3235852,146.328958 C76.1031306,136.258598 78.6880094,125.294607 78.8392479,114.01716 C78.8949058,109.866904 78.6200098,105.763782 78.0223101,101.733807 C77.8717248,100.718489 78.5730232,99.7733813 79.5887038,99.6228498 C80.6043845,99.4723183 81.5498299,100.173366 81.7004152,101.188684 C82.3273254,105.415611 82.6155509,109.717689 82.5572237,114.066985 C82.3987641,125.882884 79.6898918,137.372804 74.6829724,147.922235 Z M66.6386066,145.118362 C66.1638535,146.028472 65.0409364,146.381537 64.1305009,145.906953 C63.2200655,145.43237 62.8668753,144.309854 63.3416284,143.399744 C67.7616709,134.926445 70.2518727,125.289362 70.3804797,115.699483 C70.4246448,112.406216 70.1890774,109.153324 69.68092,105.964286 C69.519402,104.950648 70.2104748,103.998044 71.2244744,103.836583 C72.2384739,103.675123 73.1914192,104.365949 73.3529372,105.379586 C73.8945286,108.778446 74.1454692,112.243624 74.0984555,115.749308 C73.9619494,125.928201 71.3243513,136.135708 66.6386066,145.118362 Z M65.1394463,121.077344 C65.032416,122.098168 64.1178134,122.838976 63.096624,122.731984 C62.0754347,122.624992 61.3343623,121.710716 61.4413925,120.689892 C61.6242937,118.945431 61.728112,117.188581 61.7517914,115.422876 C61.7951996,112.186044 61.5683813,108.988168 61.0780895,105.851515 C60.9195734,104.837404 61.6134637,103.886848 62.6279369,103.728389 C63.64241,103.569929 64.5933057,104.263572 64.7518218,105.277682 C65.2743592,108.620628 65.5159747,112.027127 65.4697671,115.472701 C65.4445738,117.351301 65.3340982,119.220808 65.1394463,121.077344 Z M59.5715192,140.946671 C59.1332119,141.87487 58.0251705,142.272133 57.0966395,141.833982 C56.1681084,141.395832 55.7707036,140.288186 56.2090109,139.359987 C57.6524705,136.303187 58.8276333,133.128552 59.7184727,129.867577 C59.9889662,128.877417 61.0112141,128.293935 62.0017273,128.564331 C62.9922406,128.834728 63.5759318,129.856611 63.3054383,130.84677 C62.3574024,134.317118 61.1070157,137.694965 59.5715192,140.946671 Z M52.9993053,135.27782 C52.6015493,136.224093 51.5117242,136.66887 50.5651127,136.271256 C49.6185011,135.873642 49.1735657,134.784206 49.5713217,133.837933 C51.9467736,128.186662 53.2255917,122.133378 53.3088067,115.928263 C53.3520227,112.705766 53.0717542,109.530822 52.4782395,106.435803 C52.2849291,105.427742 52.9457074,104.453894 53.9541291,104.260652 C54.9625507,104.067411 55.936747,104.727953 56.1300574,105.736015 C56.7709316,109.078001 57.0733711,112.504102 57.0267825,115.978088 C56.9371182,122.664114 55.5586621,129.189033 52.9993053,135.27782 Z" id="Touch-ID" fill="url(#linearGradient-13)" fill-rule="nonzero"></path>
                </g>
                <g id="Group-37-Copy" transform="translate(390.000000, 118.000000)">
                    <g id="Polygon-Copy-2">
                        <use fill="black" fill-opacity="1" filter="url(#filter-15)" xlink:href="#path-14"></use>
                        <use fill="url(#linearGradient-10)" fill-rule="evenodd" xlink:href="#path-14"></use>
                    </g>
                    <ellipse id="Oval-5" fill="#A2F2FF" opacity="0.285891546" cx="87.6824164" cy="97.7946807" rx="65.0704225" ry="65.0471698"></ellipse>
                    <path d="M140.85455,97.301894 C140.840787,98.3282178 139.997332,99.1490638 138.970641,99.135305 C137.94395,99.1215462 137.122811,98.2783927 137.136575,97.2520689 C137.459485,73.1735407 120.393029,52.962484 96.9986312,49.159755 C95.9851595,48.9950165 95.297173,48.0401819 95.4619704,47.0270723 C95.6267678,46.0139628 96.5819437,45.3262221 97.5954154,45.4909606 C122.803418,49.5884887 141.202216,71.3773812 140.85455,97.301894 Z M87.639653,44.8255621 C88.6660778,44.7984556 89.5201415,45.6082659 89.5472576,46.6343239 C89.5743738,47.6603819 88.764274,48.5141404 87.7378492,48.5412468 C68.999555,49.0360991 52.0862371,60.0142259 43.6620884,76.6333561 C43.1979845,77.5489386 42.0792624,77.9150688 41.1633526,77.4511307 C40.2474428,76.9871927 39.8811818,75.8688704 40.3452857,74.9532879 C49.3793824,57.1308545 67.5187402,45.3569274 87.639653,44.8255621 Z M36.7527402,83.9511735 C37.0464194,82.9676371 38.0820924,82.4083123 39.0659804,82.7018866 C40.0498684,82.9954609 40.6093932,84.0307637 40.3157139,85.0143002 C38.9977558,89.4281624 38.2908293,94.0135256 38.2282861,98.6772015 C38.1526425,104.317739 39.0232167,109.812683 40.7800797,114.995861 C41.1095871,115.967988 40.5883587,117.023077 39.6158834,117.352466 C38.6434082,117.681856 37.5879428,117.160814 37.2584354,116.188686 C35.3661433,110.605959 34.4289954,104.690811 34.5103103,98.6273764 C34.5774773,93.6189166 35.3369641,88.6926297 36.7527402,83.9511735 Z M131.398993,88.2668214 C131.596809,89.2740089 130.940391,90.2507998 129.932844,90.448545 C128.925296,90.6462902 127.948156,89.9901076 127.75034,88.9829202 C124.081761,70.3042013 107.675659,56.8990972 88.2795054,57.1590275 C82.9331584,57.2306746 77.7171579,58.3273154 72.8447717,60.3647083 C71.8975224,60.7608014 70.8084134,60.3142755 70.4121786,59.3673648 C70.0159439,58.420454 70.4626294,57.3317342 71.4098787,56.935641 C76.7184057,54.7158755 82.4042737,53.5204471 88.2296625,53.4423803 C109.427282,53.1583084 127.385419,67.8315503 131.398993,88.2668214 Z M62.4123874,61.9546305 C63.2474217,61.3573485 64.4087165,61.549843 65.006212,62.384579 C65.6037075,63.2193149 65.4111442,64.3801947 64.5761098,64.9774767 C52.0195465,73.9589143 44.3975787,90.4217607 47.6868616,107.289091 C47.8833239,108.296543 47.2255948,109.272452 46.2177825,109.468844 C45.2099702,109.665236 44.2337126,109.007742 44.0372503,108.00029 C40.452969,89.6202175 48.7307896,71.7407808 62.4123874,61.9546305 Z M47.002662,127.876375 C46.7659778,128.87515 45.7641512,129.493015 44.7650198,129.256415 C43.7658883,129.019815 43.1478026,128.018347 43.3844868,127.019572 C44.1873637,123.631543 44.6197279,120.154808 44.6669654,116.632435 C44.7072699,113.627034 44.4662124,110.662779 43.9519421,107.765788 C43.7725369,106.755162 44.446668,105.790502 45.457656,105.611161 C46.4686441,105.43182 47.4336486,106.10571 47.6130538,107.116337 C48.168291,110.244102 48.4283887,113.442493 48.3849412,116.682261 C48.3340468,120.477313 47.8680337,124.224627 47.002662,127.876375 Z M122.848597,89.7818691 C123.05735,90.7868484 122.41159,91.770712 121.406251,91.97939 C120.400913,92.188068 119.416697,91.5425383 119.207945,90.5375591 C117.412621,81.894492 112.060273,74.4896423 104.525873,70.0710826 C103.640245,69.5517048 103.343492,68.4129791 103.863055,67.5276676 C104.382619,66.6423561 105.521751,66.3457082 106.407379,66.8650861 C114.844476,71.813034 120.838731,80.1059462 122.848597,89.7818691 Z M88.1139165,62.0732446 C91.3193705,62.0302879 94.4661517,62.4084546 97.4954718,63.1894451 C98.4897213,63.4457731 99.0878507,64.4592785 98.8314311,65.4531727 C98.5750115,66.447067 97.5611438,67.0449826 96.5668943,66.7886546 C93.8568813,66.0899848 91.039123,65.7513586 88.1637593,65.7898918 C70.3683769,66.0283699 55.7347487,80.6567689 55.4961853,98.4457922 L55.4767229,98.6902323 C55.4695791,98.7389859 55.4601743,99.0952581 55.4981304,99.8470867 C55.5676708,101.22453 55.773716,103.207423 56.158589,105.895176 C56.3040837,106.911235 55.5980573,107.852818 54.581635,107.998261 C53.5652126,108.143704 52.6232927,107.43793 52.477798,106.421871 C52.0778383,103.62876 51.8603315,101.535566 51.7845467,100.034433 C51.7423809,99.1992203 51.7477044,98.6481193 51.7795223,98.3062562 C52.0929093,78.5440354 68.3338954,62.3383191 88.1139165,62.0732446 Z M109.43135,80.4680536 C110.07528,81.2675405 109.948945,82.4374751 109.149173,83.0811757 C108.3494,83.7248764 107.179047,83.5985866 106.535116,82.7990997 C102.119796,77.3171578 95.4322945,74.1256776 88.148757,74.2232852 C74.9592142,74.4000399 64.1094113,85.2459657 63.9320176,98.353352 C63.9383218,98.5762179 63.9550948,98.9840741 63.9861255,99.5216409 C64.037936,100.419193 64.111462,101.338026 64.2099515,102.220895 C64.2623885,102.690945 64.3206466,103.138235 64.3848256,103.557238 C64.4923716,104.25937 64.6144046,104.867578 64.7481329,105.356613 C65.0188763,106.346704 64.435443,107.368734 63.4449981,107.639381 C62.4545532,107.910028 61.432158,107.326803 61.1614145,106.336712 C60.9857577,105.694346 60.8368412,104.952152 60.709351,104.119811 C60.6370891,103.648037 60.5723533,103.151014 60.5145484,102.632845 C60.4080087,101.677813 60.3293582,100.69494 60.2739907,99.735768 C60.2546222,99.4002347 60.2395201,99.0911335 60.2281692,98.8151235 C60.2212669,98.6472867 60.2171093,98.5261452 60.2146176,98.3809701 C60.4184426,83.1822993 72.8948102,70.7103901 88.0989141,70.506638 C96.5331468,70.3936098 104.30403,74.1021129 109.43135,80.4680536 Z M106.498431,94.6448209 C106.652578,95.6596043 105.954601,96.6071654 104.939455,96.7612579 C103.924309,96.9153504 102.976409,96.2176226 102.822261,95.2028392 C101.713928,87.9064686 95.4412378,82.5587501 87.9375285,82.6593083 C86.160475,82.6831228 84.4218394,83.008313 82.7750754,83.6143159 C81.8115091,83.9689047 80.7428305,83.47551 80.388115,82.512288 C80.0333994,81.5490661 80.5269705,80.4807694 81.4905368,80.1261806 C83.5307173,79.3754018 85.6866725,78.9721571 87.8876856,78.9426611 C97.2526052,78.8171606 105.111988,85.517597 106.498431,94.6448209 Z M73.3339528,85.8181874 C74.0008872,85.0377733 75.1744211,84.9455866 75.9551142,85.6122826 C76.7358073,86.2789786 76.828027,87.4520932 76.1610926,88.2325073 C73.7764167,91.022939 72.4211176,94.5296512 72.3711004,98.1437789 C72.3768235,98.3523813 72.3935114,98.7389783 72.4260041,99.2517543 C72.4803229,100.108973 72.5599449,100.99116 72.6690043,101.844425 C72.7451197,102.439941 72.8330205,102.999281 72.9328971,103.510938 C73.0562662,104.142946 73.1952922,104.688002 73.346013,105.124224 C73.681223,106.094401 73.1661989,107.15253 72.1956746,107.48762 C71.2251503,107.82271 70.1666436,107.30787 69.8314336,106.337693 C69.6180123,105.720001 69.437612,105.012735 69.283418,104.222815 C69.1668864,103.625835 69.0665545,102.987392 68.9806782,102.315509 C68.8606628,101.376527 68.7741235,100.417697 68.7151316,99.4867306 C68.6944859,99.1609147 68.6787237,98.8612339 68.667183,98.5938791 C68.660139,98.4306956 68.6560226,98.3125453 68.6536564,98.1698171 C68.7149351,93.6004326 70.392327,89.2603347 73.3339528,85.8181874 Z M97.7056838,95.7551004 C97.8981772,96.7633179 97.23661,97.7366307 96.228032,97.9290553 C95.2194541,98.12148 94.2457934,97.4601491 94.0533,96.4519316 C93.4969565,93.5379863 90.9480145,91.4443982 87.917265,91.4850137 C84.3728923,91.5325123 81.4468649,94.4574941 81.3993493,98.0006002 C81.3973285,98.1512882 81.4038302,98.4595136 81.4310155,98.8869196 C81.4771263,99.6118692 81.5675203,100.382651 81.7259325,101.238406 L81.7129084,101.159451 C81.9017385,102.168361 81.2366404,103.139266 80.2273702,103.328029 C79.2181,103.516791 78.2468478,102.851931 78.0449935,101.764067 L78.0580177,101.843022 C77.7577633,100.238778 77.6693343,98.8485046 77.6813735,97.9507752 C77.7558961,92.3938278 82.3084882,87.8428625 87.8674221,87.7683665 C92.7069235,87.7035118 96.8122179,91.0754188 97.7056838,95.7551004 Z M133.923138,122.208801 C133.865022,123.233572 132.986871,124.017217 131.961734,123.959121 C130.936597,123.901025 130.152673,123.023188 130.210789,121.998418 C130.315139,120.158418 130.379829,118.313356 130.40463,116.464058 C130.41601,115.615431 130.418964,114.767918 130.41351,113.921596 C130.406896,112.895202 131.233889,112.057784 132.26065,112.051172 C133.287412,112.044561 134.125129,112.871258 134.131743,113.897653 C134.137355,114.768566 134.134316,115.64067 134.122606,116.513883 C134.097087,118.416755 134.030519,120.315349 133.923138,122.208801 Z M133.708735,104.204934 C133.791797,105.227986 133.029489,106.124645 132.006071,106.207678 C130.982653,106.29071 130.085674,105.528674 130.002612,104.505622 C129.577937,99.2750315 128.827787,94.1100294 127.759635,89.0321951 C127.548344,88.0277462 128.191616,87.042255 129.196424,86.8310388 C130.201232,86.6198227 131.187075,87.2628649 131.398367,88.2673138 C132.498722,93.4982397 133.27139,98.8182804 133.708735,104.204934 Z M123.690345,135.705079 C123.513404,136.71614 122.550045,137.392379 121.538623,137.215501 C120.527201,137.038623 119.85072,136.075609 120.027661,135.064548 C121.102719,128.921551 121.688856,122.68114 121.773311,116.383607 C121.891113,107.599392 121.029386,98.9574842 119.223232,90.5688945 C119.007181,89.5654578 119.645774,88.5769305 120.64957,88.3609569 C121.653365,88.1449833 122.642246,88.7833483 122.858296,89.786785 C124.723284,98.4486212 125.612839,107.369604 125.491287,116.433432 C125.404171,122.929425 124.79948,129.367359 123.690345,135.705079 Z M112.922522,143.064752 C112.636568,144.050561 111.605315,144.617988 110.619154,144.332136 C109.632993,144.046285 109.065363,143.0154 109.351317,142.029592 C111.876275,133.32495 113.230961,124.298386 113.354002,115.12359 C113.465438,106.814076 112.563011,98.6533877 110.687731,90.7680605 C110.450248,89.7694754 111.067533,88.7675135 112.066475,88.5301158 C113.065417,88.2927182 114.067738,88.9097826 114.30522,89.9083676 C116.251314,98.0914547 117.187521,106.557626 117.071977,115.173415 C116.944445,124.683135 115.540032,134.041044 112.922522,143.064752 Z M102.216523,147.806374 C101.867155,148.771547 100.80123,149.270857 99.8357115,148.921614 C98.8701934,148.572371 98.370705,147.506826 98.7200729,146.541653 C102.406242,136.358146 104.384659,125.619232 104.531718,114.653456 C104.619605,108.099943 104.051206,101.641185 102.846999,95.3433148 C102.654229,94.3351501 103.315529,93.3616561 104.324055,93.1689551 C105.33258,92.9762542 106.306422,93.6373182 106.499192,94.6454829 C107.750501,101.189692 108.340944,107.898946 108.249693,114.703281 C108.097045,126.085856 106.043012,137.235216 102.216523,147.806374 Z M92.5750806,149.540295 C92.1800773,150.487719 91.0915498,150.93566 90.1437864,150.540798 C89.1960229,150.145936 88.7479222,149.057797 89.1429255,148.110372 C92.1928992,140.794937 94.2451436,133.101353 95.226682,125.197877 C95.3531822,124.17928 96.2817617,123.456057 97.3007224,123.582512 C98.3196831,123.708967 99.0431652,124.637214 98.916665,125.655811 C97.8934087,133.895205 95.7539825,141.915622 92.5750806,149.540295 Z M99.6052214,115.60361 C99.5914577,116.629933 98.7480027,117.450779 97.7213121,117.437021 C96.6946214,117.423262 95.8734819,116.580108 95.8872456,115.553785 C95.9743447,109.059046 95.343727,102.668993 94.0208795,96.4639732 C93.806864,95.4601008 94.4474605,94.4728695 95.4516919,94.2589306 C96.4559232,94.0449916 97.4435073,94.6853592 97.6575228,95.6892316 C99.0381246,102.165157 99.6960364,108.831782 99.6052214,115.60361 Z M83.4746768,149.61353 C83.0834929,150.562537 81.9967785,151.014855 81.0474322,150.623811 C80.098086,150.232767 79.6456059,149.146441 80.0367898,148.197434 C80.125116,147.983156 80.2798258,147.605096 80.4776205,147.117031 C80.8072262,146.303717 81.1335468,145.487423 81.4330582,144.722551 C81.4874114,144.58362 81.4874114,144.58362 81.541463,144.444923 C81.8821159,143.569906 82.1578083,142.836377 82.3487668,142.291639 C82.6883328,141.322977 83.7491423,140.812895 84.7181511,141.15234 C85.6871599,141.491784 86.1974241,142.552215 85.8578581,143.520877 C85.6502428,144.113131 85.3612809,144.881966 85.0066149,145.792977 C84.9511846,145.935212 84.9511846,145.935212 84.8955436,146.077435 C84.5900867,146.85749 84.2585584,147.686811 83.9238694,148.512668 C83.7230873,149.008105 83.5656444,149.392844 83.4746768,149.61353 Z M88.4725183,134.647057 C88.2327009,135.645084 87.2289403,136.259804 86.2305562,136.020072 C85.2321721,135.780341 84.6172323,134.776939 84.8570497,133.778911 C86.3679859,127.490978 87.1813471,121.034525 87.2690796,114.492553 C87.3422995,109.032746 86.9083393,103.645876 85.9815906,98.3790441 C85.8037138,97.3681474 86.4793029,96.4045075 87.490561,96.2266943 C88.5018191,96.0488811 89.4658034,96.7242287 89.6436802,97.7351254 C90.6107218,103.230947 91.0633931,108.850083 90.9870554,114.542378 C90.8956134,121.360958 90.0476808,128.091838 88.4725183,134.647057 Z M74.6829724,147.922235 C74.2428439,148.849573 73.1340248,149.244661 72.2063557,148.80469 C71.2786865,148.364719 70.8834567,147.256296 71.3235852,146.328958 C76.1031306,136.258598 78.6880094,125.294607 78.8392479,114.01716 C78.8949058,109.866904 78.6200098,105.763782 78.0223101,101.733807 C77.8717248,100.718489 78.5730232,99.7733813 79.5887038,99.6228498 C80.6043845,99.4723183 81.5498299,100.173366 81.7004152,101.188684 C82.3273254,105.415611 82.6155509,109.717689 82.5572237,114.066985 C82.3987641,125.882884 79.6898918,137.372804 74.6829724,147.922235 Z M66.6386066,145.118362 C66.1638535,146.028472 65.0409364,146.381537 64.1305009,145.906953 C63.2200655,145.43237 62.8668753,144.309854 63.3416284,143.399744 C67.7616709,134.926445 70.2518727,125.289362 70.3804797,115.699483 C70.4246448,112.406216 70.1890774,109.153324 69.68092,105.964286 C69.519402,104.950648 70.2104748,103.998044 71.2244744,103.836583 C72.2384739,103.675123 73.1914192,104.365949 73.3529372,105.379586 C73.8945286,108.778446 74.1454692,112.243624 74.0984555,115.749308 C73.9619494,125.928201 71.3243513,136.135708 66.6386066,145.118362 Z M65.1394463,121.077344 C65.032416,122.098168 64.1178134,122.838976 63.096624,122.731984 C62.0754347,122.624992 61.3343623,121.710716 61.4413925,120.689892 C61.6242937,118.945431 61.728112,117.188581 61.7517914,115.422876 C61.7951996,112.186044 61.5683813,108.988168 61.0780895,105.851515 C60.9195734,104.837404 61.6134637,103.886848 62.6279369,103.728389 C63.64241,103.569929 64.5933057,104.263572 64.7518218,105.277682 C65.2743592,108.620628 65.5159747,112.027127 65.4697671,115.472701 C65.4445738,117.351301 65.3340982,119.220808 65.1394463,121.077344 Z M59.5715192,140.946671 C59.1332119,141.87487 58.0251705,142.272133 57.0966395,141.833982 C56.1681084,141.395832 55.7707036,140.288186 56.2090109,139.359987 C57.6524705,136.303187 58.8276333,133.128552 59.7184727,129.867577 C59.9889662,128.877417 61.0112141,128.293935 62.0017273,128.564331 C62.9922406,128.834728 63.5759318,129.856611 63.3054383,130.84677 C62.3574024,134.317118 61.1070157,137.694965 59.5715192,140.946671 Z M52.9993053,135.27782 C52.6015493,136.224093 51.5117242,136.66887 50.5651127,136.271256 C49.6185011,135.873642 49.1735657,134.784206 49.5713217,133.837933 C51.9467736,128.186662 53.2255917,122.133378 53.3088067,115.928263 C53.3520227,112.705766 53.0717542,109.530822 52.4782395,106.435803 C52.2849291,105.427742 52.9457074,104.453894 53.9541291,104.260652 C54.9625507,104.067411 55.936747,104.727953 56.1300574,105.736015 C56.7709316,109.078001 57.0733711,112.504102 57.0267825,115.978088 C56.9371182,122.664114 55.5586621,129.189033 52.9993053,135.27782 Z" id="Touch-ID" fill="url(#linearGradient-13)" fill-rule="nonzero"></path>
                </g>
                <g id="Group-37-Copy-2" transform="translate(477.000000, 465.000000)">
                    <g id="Polygon-Copy-2">
                        <use fill="black" fill-opacity="1" filter="url(#filter-17)" xlink:href="#path-16"></use>
                        <use fill="url(#linearGradient-10)" fill-rule="evenodd" xlink:href="#path-16"></use>
                    </g>
                    <ellipse id="Oval-5" fill="#A2F2FF" opacity="0.285891546" cx="87.6824164" cy="97.7946807" rx="65.0704225" ry="65.0471698"></ellipse>
                    <path d="M140.85455,97.301894 C140.840787,98.3282178 139.997332,99.1490638 138.970641,99.135305 C137.94395,99.1215462 137.122811,98.2783927 137.136575,97.2520689 C137.459485,73.1735407 120.393029,52.962484 96.9986312,49.159755 C95.9851595,48.9950165 95.297173,48.0401819 95.4619704,47.0270723 C95.6267678,46.0139628 96.5819437,45.3262221 97.5954154,45.4909606 C122.803418,49.5884887 141.202216,71.3773812 140.85455,97.301894 Z M87.639653,44.8255621 C88.6660778,44.7984556 89.5201415,45.6082659 89.5472576,46.6343239 C89.5743738,47.6603819 88.764274,48.5141404 87.7378492,48.5412468 C68.999555,49.0360991 52.0862371,60.0142259 43.6620884,76.6333561 C43.1979845,77.5489386 42.0792624,77.9150688 41.1633526,77.4511307 C40.2474428,76.9871927 39.8811818,75.8688704 40.3452857,74.9532879 C49.3793824,57.1308545 67.5187402,45.3569274 87.639653,44.8255621 Z M36.7527402,83.9511735 C37.0464194,82.9676371 38.0820924,82.4083123 39.0659804,82.7018866 C40.0498684,82.9954609 40.6093932,84.0307637 40.3157139,85.0143002 C38.9977558,89.4281624 38.2908293,94.0135256 38.2282861,98.6772015 C38.1526425,104.317739 39.0232167,109.812683 40.7800797,114.995861 C41.1095871,115.967988 40.5883587,117.023077 39.6158834,117.352466 C38.6434082,117.681856 37.5879428,117.160814 37.2584354,116.188686 C35.3661433,110.605959 34.4289954,104.690811 34.5103103,98.6273764 C34.5774773,93.6189166 35.3369641,88.6926297 36.7527402,83.9511735 Z M131.398993,88.2668214 C131.596809,89.2740089 130.940391,90.2507998 129.932844,90.448545 C128.925296,90.6462902 127.948156,89.9901076 127.75034,88.9829202 C124.081761,70.3042013 107.675659,56.8990972 88.2795054,57.1590275 C82.9331584,57.2306746 77.7171579,58.3273154 72.8447717,60.3647083 C71.8975224,60.7608014 70.8084134,60.3142755 70.4121786,59.3673648 C70.0159439,58.420454 70.4626294,57.3317342 71.4098787,56.935641 C76.7184057,54.7158755 82.4042737,53.5204471 88.2296625,53.4423803 C109.427282,53.1583084 127.385419,67.8315503 131.398993,88.2668214 Z M62.4123874,61.9546305 C63.2474217,61.3573485 64.4087165,61.549843 65.006212,62.384579 C65.6037075,63.2193149 65.4111442,64.3801947 64.5761098,64.9774767 C52.0195465,73.9589143 44.3975787,90.4217607 47.6868616,107.289091 C47.8833239,108.296543 47.2255948,109.272452 46.2177825,109.468844 C45.2099702,109.665236 44.2337126,109.007742 44.0372503,108.00029 C40.452969,89.6202175 48.7307896,71.7407808 62.4123874,61.9546305 Z M47.002662,127.876375 C46.7659778,128.87515 45.7641512,129.493015 44.7650198,129.256415 C43.7658883,129.019815 43.1478026,128.018347 43.3844868,127.019572 C44.1873637,123.631543 44.6197279,120.154808 44.6669654,116.632435 C44.7072699,113.627034 44.4662124,110.662779 43.9519421,107.765788 C43.7725369,106.755162 44.446668,105.790502 45.457656,105.611161 C46.4686441,105.43182 47.4336486,106.10571 47.6130538,107.116337 C48.168291,110.244102 48.4283887,113.442493 48.3849412,116.682261 C48.3340468,120.477313 47.8680337,124.224627 47.002662,127.876375 Z M122.848597,89.7818691 C123.05735,90.7868484 122.41159,91.770712 121.406251,91.97939 C120.400913,92.188068 119.416697,91.5425383 119.207945,90.5375591 C117.412621,81.894492 112.060273,74.4896423 104.525873,70.0710826 C103.640245,69.5517048 103.343492,68.4129791 103.863055,67.5276676 C104.382619,66.6423561 105.521751,66.3457082 106.407379,66.8650861 C114.844476,71.813034 120.838731,80.1059462 122.848597,89.7818691 Z M88.1139165,62.0732446 C91.3193705,62.0302879 94.4661517,62.4084546 97.4954718,63.1894451 C98.4897213,63.4457731 99.0878507,64.4592785 98.8314311,65.4531727 C98.5750115,66.447067 97.5611438,67.0449826 96.5668943,66.7886546 C93.8568813,66.0899848 91.039123,65.7513586 88.1637593,65.7898918 C70.3683769,66.0283699 55.7347487,80.6567689 55.4961853,98.4457922 L55.4767229,98.6902323 C55.4695791,98.7389859 55.4601743,99.0952581 55.4981304,99.8470867 C55.5676708,101.22453 55.773716,103.207423 56.158589,105.895176 C56.3040837,106.911235 55.5980573,107.852818 54.581635,107.998261 C53.5652126,108.143704 52.6232927,107.43793 52.477798,106.421871 C52.0778383,103.62876 51.8603315,101.535566 51.7845467,100.034433 C51.7423809,99.1992203 51.7477044,98.6481193 51.7795223,98.3062562 C52.0929093,78.5440354 68.3338954,62.3383191 88.1139165,62.0732446 Z M109.43135,80.4680536 C110.07528,81.2675405 109.948945,82.4374751 109.149173,83.0811757 C108.3494,83.7248764 107.179047,83.5985866 106.535116,82.7990997 C102.119796,77.3171578 95.4322945,74.1256776 88.148757,74.2232852 C74.9592142,74.4000399 64.1094113,85.2459657 63.9320176,98.353352 C63.9383218,98.5762179 63.9550948,98.9840741 63.9861255,99.5216409 C64.037936,100.419193 64.111462,101.338026 64.2099515,102.220895 C64.2623885,102.690945 64.3206466,103.138235 64.3848256,103.557238 C64.4923716,104.25937 64.6144046,104.867578 64.7481329,105.356613 C65.0188763,106.346704 64.435443,107.368734 63.4449981,107.639381 C62.4545532,107.910028 61.432158,107.326803 61.1614145,106.336712 C60.9857577,105.694346 60.8368412,104.952152 60.709351,104.119811 C60.6370891,103.648037 60.5723533,103.151014 60.5145484,102.632845 C60.4080087,101.677813 60.3293582,100.69494 60.2739907,99.735768 C60.2546222,99.4002347 60.2395201,99.0911335 60.2281692,98.8151235 C60.2212669,98.6472867 60.2171093,98.5261452 60.2146176,98.3809701 C60.4184426,83.1822993 72.8948102,70.7103901 88.0989141,70.506638 C96.5331468,70.3936098 104.30403,74.1021129 109.43135,80.4680536 Z M106.498431,94.6448209 C106.652578,95.6596043 105.954601,96.6071654 104.939455,96.7612579 C103.924309,96.9153504 102.976409,96.2176226 102.822261,95.2028392 C101.713928,87.9064686 95.4412378,82.5587501 87.9375285,82.6593083 C86.160475,82.6831228 84.4218394,83.008313 82.7750754,83.6143159 C81.8115091,83.9689047 80.7428305,83.47551 80.388115,82.512288 C80.0333994,81.5490661 80.5269705,80.4807694 81.4905368,80.1261806 C83.5307173,79.3754018 85.6866725,78.9721571 87.8876856,78.9426611 C97.2526052,78.8171606 105.111988,85.517597 106.498431,94.6448209 Z M73.3339528,85.8181874 C74.0008872,85.0377733 75.1744211,84.9455866 75.9551142,85.6122826 C76.7358073,86.2789786 76.828027,87.4520932 76.1610926,88.2325073 C73.7764167,91.022939 72.4211176,94.5296512 72.3711004,98.1437789 C72.3768235,98.3523813 72.3935114,98.7389783 72.4260041,99.2517543 C72.4803229,100.108973 72.5599449,100.99116 72.6690043,101.844425 C72.7451197,102.439941 72.8330205,102.999281 72.9328971,103.510938 C73.0562662,104.142946 73.1952922,104.688002 73.346013,105.124224 C73.681223,106.094401 73.1661989,107.15253 72.1956746,107.48762 C71.2251503,107.82271 70.1666436,107.30787 69.8314336,106.337693 C69.6180123,105.720001 69.437612,105.012735 69.283418,104.222815 C69.1668864,103.625835 69.0665545,102.987392 68.9806782,102.315509 C68.8606628,101.376527 68.7741235,100.417697 68.7151316,99.4867306 C68.6944859,99.1609147 68.6787237,98.8612339 68.667183,98.5938791 C68.660139,98.4306956 68.6560226,98.3125453 68.6536564,98.1698171 C68.7149351,93.6004326 70.392327,89.2603347 73.3339528,85.8181874 Z M97.7056838,95.7551004 C97.8981772,96.7633179 97.23661,97.7366307 96.228032,97.9290553 C95.2194541,98.12148 94.2457934,97.4601491 94.0533,96.4519316 C93.4969565,93.5379863 90.9480145,91.4443982 87.917265,91.4850137 C84.3728923,91.5325123 81.4468649,94.4574941 81.3993493,98.0006002 C81.3973285,98.1512882 81.4038302,98.4595136 81.4310155,98.8869196 C81.4771263,99.6118692 81.5675203,100.382651 81.7259325,101.238406 L81.7129084,101.159451 C81.9017385,102.168361 81.2366404,103.139266 80.2273702,103.328029 C79.2181,103.516791 78.2468478,102.851931 78.0449935,101.764067 L78.0580177,101.843022 C77.7577633,100.238778 77.6693343,98.8485046 77.6813735,97.9507752 C77.7558961,92.3938278 82.3084882,87.8428625 87.8674221,87.7683665 C92.7069235,87.7035118 96.8122179,91.0754188 97.7056838,95.7551004 Z M133.923138,122.208801 C133.865022,123.233572 132.986871,124.017217 131.961734,123.959121 C130.936597,123.901025 130.152673,123.023188 130.210789,121.998418 C130.315139,120.158418 130.379829,118.313356 130.40463,116.464058 C130.41601,115.615431 130.418964,114.767918 130.41351,113.921596 C130.406896,112.895202 131.233889,112.057784 132.26065,112.051172 C133.287412,112.044561 134.125129,112.871258 134.131743,113.897653 C134.137355,114.768566 134.134316,115.64067 134.122606,116.513883 C134.097087,118.416755 134.030519,120.315349 133.923138,122.208801 Z M133.708735,104.204934 C133.791797,105.227986 133.029489,106.124645 132.006071,106.207678 C130.982653,106.29071 130.085674,105.528674 130.002612,104.505622 C129.577937,99.2750315 128.827787,94.1100294 127.759635,89.0321951 C127.548344,88.0277462 128.191616,87.042255 129.196424,86.8310388 C130.201232,86.6198227 131.187075,87.2628649 131.398367,88.2673138 C132.498722,93.4982397 133.27139,98.8182804 133.708735,104.204934 Z M123.690345,135.705079 C123.513404,136.71614 122.550045,137.392379 121.538623,137.215501 C120.527201,137.038623 119.85072,136.075609 120.027661,135.064548 C121.102719,128.921551 121.688856,122.68114 121.773311,116.383607 C121.891113,107.599392 121.029386,98.9574842 119.223232,90.5688945 C119.007181,89.5654578 119.645774,88.5769305 120.64957,88.3609569 C121.653365,88.1449833 122.642246,88.7833483 122.858296,89.786785 C124.723284,98.4486212 125.612839,107.369604 125.491287,116.433432 C125.404171,122.929425 124.79948,129.367359 123.690345,135.705079 Z M112.922522,143.064752 C112.636568,144.050561 111.605315,144.617988 110.619154,144.332136 C109.632993,144.046285 109.065363,143.0154 109.351317,142.029592 C111.876275,133.32495 113.230961,124.298386 113.354002,115.12359 C113.465438,106.814076 112.563011,98.6533877 110.687731,90.7680605 C110.450248,89.7694754 111.067533,88.7675135 112.066475,88.5301158 C113.065417,88.2927182 114.067738,88.9097826 114.30522,89.9083676 C116.251314,98.0914547 117.187521,106.557626 117.071977,115.173415 C116.944445,124.683135 115.540032,134.041044 112.922522,143.064752 Z M102.216523,147.806374 C101.867155,148.771547 100.80123,149.270857 99.8357115,148.921614 C98.8701934,148.572371 98.370705,147.506826 98.7200729,146.541653 C102.406242,136.358146 104.384659,125.619232 104.531718,114.653456 C104.619605,108.099943 104.051206,101.641185 102.846999,95.3433148 C102.654229,94.3351501 103.315529,93.3616561 104.324055,93.1689551 C105.33258,92.9762542 106.306422,93.6373182 106.499192,94.6454829 C107.750501,101.189692 108.340944,107.898946 108.249693,114.703281 C108.097045,126.085856 106.043012,137.235216 102.216523,147.806374 Z M92.5750806,149.540295 C92.1800773,150.487719 91.0915498,150.93566 90.1437864,150.540798 C89.1960229,150.145936 88.7479222,149.057797 89.1429255,148.110372 C92.1928992,140.794937 94.2451436,133.101353 95.226682,125.197877 C95.3531822,124.17928 96.2817617,123.456057 97.3007224,123.582512 C98.3196831,123.708967 99.0431652,124.637214 98.916665,125.655811 C97.8934087,133.895205 95.7539825,141.915622 92.5750806,149.540295 Z M99.6052214,115.60361 C99.5914577,116.629933 98.7480027,117.450779 97.7213121,117.437021 C96.6946214,117.423262 95.8734819,116.580108 95.8872456,115.553785 C95.9743447,109.059046 95.343727,102.668993 94.0208795,96.4639732 C93.806864,95.4601008 94.4474605,94.4728695 95.4516919,94.2589306 C96.4559232,94.0449916 97.4435073,94.6853592 97.6575228,95.6892316 C99.0381246,102.165157 99.6960364,108.831782 99.6052214,115.60361 Z M83.4746768,149.61353 C83.0834929,150.562537 81.9967785,151.014855 81.0474322,150.623811 C80.098086,150.232767 79.6456059,149.146441 80.0367898,148.197434 C80.125116,147.983156 80.2798258,147.605096 80.4776205,147.117031 C80.8072262,146.303717 81.1335468,145.487423 81.4330582,144.722551 C81.4874114,144.58362 81.4874114,144.58362 81.541463,144.444923 C81.8821159,143.569906 82.1578083,142.836377 82.3487668,142.291639 C82.6883328,141.322977 83.7491423,140.812895 84.7181511,141.15234 C85.6871599,141.491784 86.1974241,142.552215 85.8578581,143.520877 C85.6502428,144.113131 85.3612809,144.881966 85.0066149,145.792977 C84.9511846,145.935212 84.9511846,145.935212 84.8955436,146.077435 C84.5900867,146.85749 84.2585584,147.686811 83.9238694,148.512668 C83.7230873,149.008105 83.5656444,149.392844 83.4746768,149.61353 Z M88.4725183,134.647057 C88.2327009,135.645084 87.2289403,136.259804 86.2305562,136.020072 C85.2321721,135.780341 84.6172323,134.776939 84.8570497,133.778911 C86.3679859,127.490978 87.1813471,121.034525 87.2690796,114.492553 C87.3422995,109.032746 86.9083393,103.645876 85.9815906,98.3790441 C85.8037138,97.3681474 86.4793029,96.4045075 87.490561,96.2266943 C88.5018191,96.0488811 89.4658034,96.7242287 89.6436802,97.7351254 C90.6107218,103.230947 91.0633931,108.850083 90.9870554,114.542378 C90.8956134,121.360958 90.0476808,128.091838 88.4725183,134.647057 Z M74.6829724,147.922235 C74.2428439,148.849573 73.1340248,149.244661 72.2063557,148.80469 C71.2786865,148.364719 70.8834567,147.256296 71.3235852,146.328958 C76.1031306,136.258598 78.6880094,125.294607 78.8392479,114.01716 C78.8949058,109.866904 78.6200098,105.763782 78.0223101,101.733807 C77.8717248,100.718489 78.5730232,99.7733813 79.5887038,99.6228498 C80.6043845,99.4723183 81.5498299,100.173366 81.7004152,101.188684 C82.3273254,105.415611 82.6155509,109.717689 82.5572237,114.066985 C82.3987641,125.882884 79.6898918,137.372804 74.6829724,147.922235 Z M66.6386066,145.118362 C66.1638535,146.028472 65.0409364,146.381537 64.1305009,145.906953 C63.2200655,145.43237 62.8668753,144.309854 63.3416284,143.399744 C67.7616709,134.926445 70.2518727,125.289362 70.3804797,115.699483 C70.4246448,112.406216 70.1890774,109.153324 69.68092,105.964286 C69.519402,104.950648 70.2104748,103.998044 71.2244744,103.836583 C72.2384739,103.675123 73.1914192,104.365949 73.3529372,105.379586 C73.8945286,108.778446 74.1454692,112.243624 74.0984555,115.749308 C73.9619494,125.928201 71.3243513,136.135708 66.6386066,145.118362 Z M65.1394463,121.077344 C65.032416,122.098168 64.1178134,122.838976 63.096624,122.731984 C62.0754347,122.624992 61.3343623,121.710716 61.4413925,120.689892 C61.6242937,118.945431 61.728112,117.188581 61.7517914,115.422876 C61.7951996,112.186044 61.5683813,108.988168 61.0780895,105.851515 C60.9195734,104.837404 61.6134637,103.886848 62.6279369,103.728389 C63.64241,103.569929 64.5933057,104.263572 64.7518218,105.277682 C65.2743592,108.620628 65.5159747,112.027127 65.4697671,115.472701 C65.4445738,117.351301 65.3340982,119.220808 65.1394463,121.077344 Z M59.5715192,140.946671 C59.1332119,141.87487 58.0251705,142.272133 57.0966395,141.833982 C56.1681084,141.395832 55.7707036,140.288186 56.2090109,139.359987 C57.6524705,136.303187 58.8276333,133.128552 59.7184727,129.867577 C59.9889662,128.877417 61.0112141,128.293935 62.0017273,128.564331 C62.9922406,128.834728 63.5759318,129.856611 63.3054383,130.84677 C62.3574024,134.317118 61.1070157,137.694965 59.5715192,140.946671 Z M52.9993053,135.27782 C52.6015493,136.224093 51.5117242,136.66887 50.5651127,136.271256 C49.6185011,135.873642 49.1735657,134.784206 49.5713217,133.837933 C51.9467736,128.186662 53.2255917,122.133378 53.3088067,115.928263 C53.3520227,112.705766 53.0717542,109.530822 52.4782395,106.435803 C52.2849291,105.427742 52.9457074,104.453894 53.9541291,104.260652 C54.9625507,104.067411 55.936747,104.727953 56.1300574,105.736015 C56.7709316,109.078001 57.0733711,112.504102 57.0267825,115.978088 C56.9371182,122.664114 55.5586621,129.189033 52.9993053,135.27782 Z" id="Touch-ID" fill="url(#linearGradient-13)" fill-rule="nonzero"></path>
                </g>
                <g id="Group-25" transform="translate(15.000000, 392.000000)">
                    <path d="M19.989849,0 C8.95028146,0 0,8.94990665 0,19.989849 C0,31.0297913 8.95028146,39.979698 19.989849,39.979698 C31.0306346,39.979698 39.979698,31.0297913 39.979698,19.989849 C39.979698,8.94990665 31.0302598,0 19.989849,0 Z" id="Shape" fill="url(#linearGradient-6)" fill-rule="nonzero"></path>
                    <polygon id="Path" fill="#FFFFFF" points="16.3228929 30.2582444 7.52094256 21.4566689 10.4546761 18.5229353 16.3228929 24.3907773 29.5250218 11.1882735 32.4587554 14.122007"></polygon>
                </g>
                <g id="Group-25" transform="translate(513.000000, 228.000000)">
                    <path d="M19.989849,0 C8.95028146,0 0,8.94990665 0,19.989849 C0,31.0297913 8.95028146,39.979698 19.989849,39.979698 C31.0306346,39.979698 39.979698,31.0297913 39.979698,19.989849 C39.979698,8.94990665 31.0302598,0 19.989849,0 Z" id="Shape" fill="url(#linearGradient-2)" fill-rule="nonzero"></path>
                    <polygon id="Path" fill="#FFFFFF" points="16.3228929 30.2582444 7.52094256 21.4566689 10.4546761 18.5229353 16.3228929 24.3907773 29.5250218 11.1882735 32.4587554 14.122007"></polygon>
                </g>
                <g id="Group-25" transform="translate(603.000000, 570.000000)">
                    <path d="M19.989849,0 C8.95028146,0 0,8.94990665 0,19.989849 C0,31.0297913 8.95028146,39.979698 19.989849,39.979698 C31.0306346,39.979698 39.979698,31.0297913 39.979698,19.989849 C39.979698,8.94990665 31.0302598,0 19.989849,0 Z" id="Shape" fill="url(#linearGradient-2)" fill-rule="nonzero"></path>
                    <polygon id="Path" fill="#FFFFFF" points="16.3228929 30.2582444 7.52094256 21.4566689 10.4546761 18.5229353 16.3228929 24.3907773 29.5250218 11.1882735 32.4587554 14.122007"></polygon>
                </g>
            </g>
        </g>
    </g>
</svg>