<?xml version="1.0" encoding="UTF-8"?>
<svg width="605px" height="400px" viewBox="0 0 605 400" version="1.1" xmlns="http://www.w3.org/2000/svg" xmlns:xlink="http://www.w3.org/1999/xlink">
    <!-- Generator: Sketch 52.6 (67491) - http://www.bohemiancoding.com/sketch -->
    <title>Group 35</title>
    <desc>Created with Sketch.</desc>
    <defs>
        <linearGradient x1="-133.206517%" y1="0%" x2="143.178214%" y2="76.8724474%" id="linearGradient-1">
            <stop stop-color="#5648D6" offset="0%"></stop>
            <stop stop-color="#9FDDFF" offset="100%"></stop>
        </linearGradient>
        <linearGradient x1="-44.2186053%" y1="-17.7305065%" x2="170.439767%" y2="25.7798647%" id="linearGradient-2">
            <stop stop-color="#5648D6" offset="0%"></stop>
            <stop stop-color="#6C9CEB" offset="83.7153864%"></stop>
            <stop stop-color="#78CAF7" offset="100%"></stop>
        </linearGradient>
        <linearGradient x1="85.3553391%" y1="14.6446609%" x2="14.6446609%" y2="85.3553391%" id="linearGradient-3">
            <stop stop-color="#F4FAFF" offset="0%"></stop>
            <stop stop-color="#CBE7FF" offset="100%"></stop>
        </linearGradient>
        <linearGradient x1="2.60062468%" y1="-87.2517553%" x2="123.620537%" y2="95.3011136%" id="linearGradient-4">
            <stop stop-color="#5648D6" offset="0%"></stop>
            <stop stop-color="#6C9CEB" offset="83.7153864%"></stop>
            <stop stop-color="#78CAF7" offset="100%"></stop>
        </linearGradient>
        <radialGradient cx="71.1955505%" cy="31.2932699%" fx="71.1955505%" fy="31.2932699%" r="224.586405%" gradientTransform="translate(0.711956,0.312933),scale(1.000000,0.310021),rotate(99.323790),translate(-0.711956,-0.312933)" id="radialGradient-5">
            <stop stop-color="#F4FAFF" offset="0%"></stop>
            <stop stop-color="#9ED2FF" offset="100%"></stop>
        </radialGradient>
        <radialGradient cx="71.1955505%" cy="31.2932699%" fx="71.1955505%" fy="31.2932699%" r="77.7530846%" gradientTransform="translate(0.711956,0.312933),scale(0.999629,1.000000),rotate(117.913814),translate(-0.711956,-0.312933)" id="radialGradient-6">
            <stop stop-color="#F4FAFF" offset="0%"></stop>
            <stop stop-color="#9ED2FF" offset="100%"></stop>
        </radialGradient>
        <linearGradient x1="-63.6052258%" y1="-45.2091739%" x2="143.178214%" y2="76.8724474%" id="linearGradient-7">
            <stop stop-color="#5648D6" offset="0%"></stop>
            <stop stop-color="#78CAF7" offset="100%"></stop>
        </linearGradient>
        <linearGradient x1="43.7031269%" y1="-18.6250611%" x2="43.7031269%" y2="100%" id="linearGradient-8">
            <stop stop-color="#6B4EFF" offset="0%"></stop>
            <stop stop-color="#4F0EB3" offset="100%"></stop>
        </linearGradient>
    </defs>
    <g id="Industries" stroke="none" stroke-width="1" fill="none" fill-rule="evenodd">
        <g transform="translate(-561.000000, -1380.000000)" id="Group-35">
            <g transform="translate(561.000000, 1380.000000)">
                <g id="Group-64" opacity="0.5" transform="translate(0.000000, 42.000000)" fill="url(#linearGradient-1)">
                    <path d="M516.238482,51.4475319 C634.565335,120.177671 634.591606,231.822527 516.290675,300.554395 C398.22743,369.148169 206.849906,369.148889 88.7566403,300.55443 C-29.5657311,231.826894 -29.587959,120.174482 88.7044476,51.4475665 C206.773588,-17.149633 398.142108,-17.1487331 516.238482,51.4475319 Z M89.4106833,299.430972 C207.099595,367.790563 397.977639,367.789845 515.636513,299.431007 C633.074727,231.20037 633.048749,120.80012 515.584439,52.5709892 C397.892415,-15.7904092 207.023376,-15.7913067 89.35861,52.5709546 C-28.0711023,120.796652 -28.0491222,231.204458 89.4106833,299.430972 Z" id="Shape" opacity="0.400000006"></path>
                    <path d="M131.06011,77.6613666 C225.351523,22.728724 378.180689,22.7294446 472.49385,77.6613388 C566.990783,132.700269 567.011763,222.10467 472.535532,277.144985 C378.248828,332.074885 225.41247,332.075461 131.101792,277.145013 C36.6084375,222.108167 36.5906863,132.697716 131.06011,77.6613666 Z M131.583236,78.5602363 C37.8025751,133.195324 37.8201287,221.610346 131.624822,276.246088 C225.612192,330.988227 378.049025,330.987652 472.012406,276.246115 C565.799857,221.607073 565.77911,133.198101 471.970819,78.5602641 C377.980965,23.816677 225.551323,23.8159582 131.583236,78.5602363 Z" id="Shape" opacity="0.400000006"></path>
                    <path d="M164.713011,97.5104459 C240.41951,53.5095133 363.125971,53.5100906 438.849932,97.5104236 C514.721206,141.596355 514.73805,213.208553 438.883398,257.295593 C363.18068,301.294329 240.468445,301.29479 164.746478,257.295615 C88.8780774,213.211354 88.8638251,141.594309 164.713011,97.5104459 Z M165.132898,98.2295188 C89.8361445,141.992305 89.8502384,212.813187 165.166287,256.576498 C240.628768,300.424895 363.020291,300.424434 438.463512,256.57652 C513.765717,212.810565 513.749059,141.99453 438.430122,98.2295411 C362.965646,54.3799845 240.579897,54.3794088 165.132898,98.2295188 Z" id="Shape" opacity="0.400000006"></path>
                    <path d="M203.320833,118.929774 C257.706933,87.5066053 345.853775,87.5070175 400.252417,118.929756 C454.766911,150.419416 454.779017,201.580668 400.276457,233.071125 C345.893073,264.492724 257.742084,264.493054 203.344874,233.071142 C148.832443,201.582674 148.822201,150.417961 203.320833,118.929774 Z M203.64656,119.490165 C149.579873,150.728783 149.589991,201.27172 203.670541,232.510716 C257.866311,263.816269 345.768795,263.81594 399.950731,232.510734 C454.021333,201.269853 454.009374,150.730377 399.92675,119.490182 C345.729546,88.1838013 257.831209,88.1833902 203.64656,119.490165 Z" id="Shape" opacity="0.400000006"></path>
                </g>
                <g id="Group-29" transform="translate(57.000000, 157.000000)">
                    <path d="M74.3089715,121.621454 L202.403522,46.7229995 L274.316697,88.6557645 C277.34272,90.4202465 277.329135,93.2929292 274.286353,95.0720807 L157.210689,163.527657 C154.167907,165.306809 149.248169,165.318701 146.222146,163.554219 L74.3089715,121.621454 Z" id="Rectangle-38" fill="url(#linearGradient-2)"></path>
                    <path d="M2.42614043,73.2723726 L119.501805,4.8167961 C122.544586,3.03764453 127.464324,3.02575251 130.490347,4.79023454 L202.403522,46.7229995 L74.3089715,121.621454 L2.39579644,79.6886888 C-0.630226409,77.9242068 -0.616640939,75.0515242 2.42614043,73.2723726 Z" id="Rectangle-38" fill="url(#linearGradient-2)"></path>
                    <path d="M74.3089715,118.194088 L202.403522,43.2956339 L274.316697,85.2283988 C277.34272,86.9928809 277.329135,89.8655635 274.286353,91.6447151 L157.210689,160.100292 C154.167907,161.879443 149.248169,161.891335 146.222146,160.126853 L74.3089715,118.194088 Z" id="Rectangle-38" fill="url(#linearGradient-3)" fill-rule="nonzero"></path>
                    <polygon id="Rectangle-39" fill="url(#linearGradient-1)" points="97.2811462 125.557341 215.045491 56.6990841 215.730379 57.0984438 97.9660336 125.9567"></polygon>
                    <polygon id="Rectangle-39" fill="#6176E1" points="145.809477 153.85434 263.573822 84.9960838 264.258709 85.3954435 146.494364 154.2537"></polygon>
                    <polygon id="Rectangle-39" fill="#6176E1" points="148.549027 155.451779 266.313372 86.5935225 266.998259 86.9928822 149.233914 155.851139"></polygon>
                    <path d="M147.330851,105.090703 L168.521586,92.7002208 C169.317255,92.2349834 170.603737,92.2318737 171.395024,92.6932751 C172.18631,93.1546765 172.182758,93.9058658 171.387089,94.3711032 L150.196354,106.761586 C149.400685,107.226823 148.114203,107.229933 147.322916,106.768531 C146.53163,106.30713 146.535182,105.555941 147.330851,105.090703 Z" id="Rectangle-42" fill="url(#linearGradient-1)"></path>
                    <path d="M204.309722,76.8683398 L225.500457,64.4778574 C226.296126,64.01262 227.582608,64.0095103 228.373894,64.4709117 C229.165181,64.9323131 229.161629,65.6835024 228.36596,66.1487398 L207.175225,78.5392222 C206.379556,79.0044597 205.093074,79.0075694 204.301787,78.5461679 C203.5105,78.0847665 203.514053,77.3335773 204.309722,76.8683398 Z" id="Rectangle-42" fill="#6176E1"></path>
                    <path d="M155.087024,109.613348 L183.8459,92.797681 C184.641569,92.3324436 185.92805,92.3293339 186.719337,92.7907353 C187.510624,93.2521368 187.507071,94.003326 186.711402,94.4685634 L157.952527,111.284231 C157.156858,111.749468 155.870376,111.752578 155.079089,111.291176 C154.287802,110.829775 154.291355,110.078586 155.087024,109.613348 Z" id="Rectangle-42" fill="#6176E1"></path>
                    <path d="M94.2699528,119.172715 L123.028829,102.357048 C123.824498,101.89181 125.110979,101.888701 125.902266,102.350102 C126.693553,102.811503 126.69,103.562693 125.894331,104.02793 L97.1354557,120.843597 C96.3397867,121.308835 95.0533048,121.311944 94.2620181,120.850543 C93.4707313,120.389142 93.4742838,119.637952 94.2699528,119.172715 Z" id="Rectangle-42" fill="#6176E1"></path>
                    <path d="M167.877473,117.071493 L204.767392,95.501505 C205.563061,95.0362676 206.849543,95.0331579 207.64083,95.4945593 C208.432117,95.9559607 208.428564,96.70715 207.632895,97.1723874 L170.742976,118.742376 C169.947307,119.207613 168.660825,119.210723 167.869538,118.749321 C167.078251,118.28792 167.081804,117.536731 167.877473,117.071493 Z" id="Rectangle-42" fill="#6176E1"></path>
                    <path d="M210.16817,92.3436043 L242.111412,73.665999 C242.907081,73.2007616 244.193563,73.1976519 244.984849,73.6590533 C245.776136,74.1204547 245.772584,74.871644 244.976915,75.3368814 L213.033672,94.0144867 C212.238003,94.4797241 210.951522,94.4828338 210.160235,94.0214324 C209.368948,93.560031 209.3725,92.8088417 210.16817,92.3436043 Z" id="Rectangle-42" fill="url(#linearGradient-1)"></path>
                    <polygon id="Rectangle-45" fill="url(#linearGradient-1)" points="104.064211 127.989773 140.564271 106.64774 179.602852 129.411241 143.102792 150.753274"></polygon>
                    <path d="M140.606784,120.275245 L139.890587,119.826102 L142.188266,119.621477 L157.628974,128.624995 C154.715907,129.822143 152.387793,130.266424 150.644635,129.957837 L149.383524,129.22248 L142.778847,133.084316 L144.039958,133.819672 C144.570846,134.837089 143.81318,136.197101 141.766959,137.89971 L126.326252,128.896192 L126.673526,127.55428 L127.443715,127.971853 L140.606784,120.275245 Z" id="Combined-Shape" fill="#6176E1"></path>
                    <path d="M144.226318,135.021784 L152.717484,130.056896 C156.715249,128.357814 160.58837,128.359691 164.336846,130.062525 C168.085323,131.76536 170.212105,133.246948 170.717192,134.507291 L151.872874,145.525795 C149.713715,145.232608 147.173415,143.992808 144.251974,141.806396 C141.330534,139.619984 141.321982,137.358447 144.226318,135.021784 Z" id="Combined-Shape" fill="url(#linearGradient-1)"></path>
                    <path d="M146.398238,127.466534 L150.272234,129.725471 C150.871636,130.074984 151.965326,130.069214 153.553301,129.70816 L157.267254,137.667934 L143.630225,135.510304 C144.246377,134.582577 144.254752,133.943957 143.65535,133.594444 L139.781354,131.335507 L146.398238,127.466534 Z" id="Combined-Shape" fill="#DCEFFF"></path>
                    <path d="M142.090426,128.879138 C137.685299,131.45487 130.507642,131.439897 126.05868,128.845696 C121.609719,126.251494 119.667996,122.791031 125.650513,119.29298 C131.633029,115.79493 137.562095,116.923944 142.011056,119.518146 C146.460018,122.112347 146.495553,126.303406 142.090426,128.879138 Z" id="Oval-10" fill="#6176E1"></path>
                    <path d="M127.75761,120.460782 C132.057536,117.946562 136.392426,117.870739 141.468314,121.478189 C142.275024,121.006496 143.136723,121.243992 144.05341,122.190678 C144.970097,123.137365 145.254363,123.744725 144.906209,124.012759 C147.733261,126.08674 148.230648,128.847681 146.156664,130.953904 C146.059921,131.052151 145.921617,131.133019 145.753492,131.189644 C142.149232,132.403559 137.42016,132.116937 133.864364,130.469062 C133.405808,130.672721 132.36525,130.507573 130.742692,129.973618 C129.120133,129.439664 128.712209,128.93684 129.518919,128.465146 C123.333805,125.506275 123.457684,122.975001 127.75761,120.460782 Z" id="Combined-Shape" fill="#F0F8FF"></path>
                    <path d="M137.752327,121.157288 C137.971935,121.781125 137.787,122.435219 137.145953,122.970001 C136.948778,123.13449 136.714219,123.281845 136.447996,123.408466 C135.329816,123.940318 134.217323,124.529826 133.110516,125.17699 C130.570458,126.662192 129.51509,127.858054 129.944411,128.764574 C128.071745,127.871137 126.246083,126.905848 124.467424,125.868707 C121.799434,124.312995 124.519024,121.29849 125.713712,120.599941 L127.156624,119.756253 C128.486481,118.978669 130.312061,118.623985 132.158566,118.703876 L131.673029,118.02645 L135.154582,118.166604 L139.976684,119.442801 L141.587141,121.444959 C140.437727,121.607196 139.159456,121.511306 137.752327,121.157288 Z" id="Combined-Shape" fill="#6176E1"></path>
                    <path d="M143.740238,133.644124 C144.79154,134.254619 144.790042,135.158274 143.735667,136.355137 C142.154105,138.150432 146.286744,143.568855 154.332997,144.08733 L145.492933,149.256224 C143.367169,147.416082 141.757099,146.005344 140.662724,145.024009 C139.02116,143.552006 136.085875,142.182232 140.162057,138.444671 C142.879511,135.952964 144.072213,134.352798 143.740238,133.644124 Z" id="Combined-Shape" fill="#6176E1"></path>
                    <path d="M150.284221,129.817782 C151.498274,130.010689 154.237075,129.312057 158.500627,127.721884 C164.895956,125.336625 167.245877,127.048668 169.769091,128.005159 C171.451234,128.642819 173.869485,129.581005 177.023842,130.819715 L168.183778,135.988609 C167.284746,131.291066 157.999459,128.88546 154.927017,129.811418 C152.878722,130.428724 151.331125,130.430844 150.284221,129.817782 Z" id="Combined-Shape" fill="#6176E1"></path>
                    <path d="M2.42614043,69.8450069 L119.501805,1.38943044 C122.544586,-0.389721132 127.464324,-0.401613149 130.490347,1.36286888 L202.403522,43.2956339 L74.3089715,118.194088 L2.39579644,76.2613232 C-0.630226409,74.4968411 -0.616640939,71.6241585 2.42614043,69.8450069 Z" id="Rectangle-38" fill="url(#linearGradient-3)" fill-rule="nonzero"></path>
                    <path d="M22.6815237,70.7985835 L121.162818,13.2153632 C122.303861,12.5481814 124.148763,12.5437219 125.283521,13.2054027 L134.187057,18.3970783 C135.321816,19.0587591 135.316721,20.1360151 134.175678,20.8031969 L35.6943839,78.3864171 C34.5533409,79.053599 32.7084392,79.0580585 31.5736806,78.3963777 L22.6701447,73.204702 C21.5353861,72.5430213 21.5404807,71.4657653 22.6815237,70.7985835 Z" id="Rectangle-50" fill="url(#linearGradient-1)"></path>
                    <path d="M39.3957348,80.5446848 L84.5095394,54.1660901 C85.6505824,53.4989083 87.4954841,53.4944488 88.6302426,54.1561296 L112.672915,68.1754759 C113.807673,68.8371567 113.802579,69.9144127 112.661536,70.5815945 L67.547731,96.9601891 C66.406688,97.627371 64.5617863,97.6318305 63.4270277,96.9701497 L39.3843558,82.9508033 C38.2495973,82.2891226 38.2546918,81.2118666 39.3957348,80.5446848 Z" id="Rectangle-50" fill="url(#linearGradient-1)" opacity="0.400000006"></path>
                    <path d="M92.7632247,49.3400591 L137.877029,22.9614645 C139.018072,22.2942827 140.862974,22.2898232 141.997733,22.9515039 L161.884535,34.547552 C163.019294,35.2092327 163.014199,36.2864887 161.873156,36.9536705 L116.759352,63.3322652 C115.618309,63.999447 113.773407,64.0039065 112.638649,63.3422257 L92.7518457,51.7461777 C91.6170871,51.084497 91.6221817,50.007241 92.7632247,49.3400591 Z" id="Rectangle-50" fill="url(#linearGradient-1)" opacity="0.400000006"></path>
                </g>
                <g id="Group-30" transform="translate(88.000000, 0.000000)">
                    <g id="Group-2" transform="translate(0.177508, 0.199963)">
                        <polygon id="Path-4" fill="#5FABFA" fill-rule="nonzero" opacity="0.400000006" points="1.31311573 85.504056 134.428246 14.5457185 235.114992 48.5918627 298.963375 109.259344 392.160842 153.922922 253.993597 232.909761 163.014325 182.269537 86.9373958 136.492166"></polygon>
                        <polygon id="Path-4" fill="url(#linearGradient-3)" fill-rule="nonzero" points="0.445243941 85.9299714 146.149103 0.485910174 246.835849 34.5320544 310.684232 95.1995355 415.307433 132.338923 265.714454 218.849953 162.470804 182.462768 98.6582527 122.432357"></polygon>
                        <polygon id="Path" fill="url(#linearGradient-1)" points="102.442115 116.338608 166.209269 176.326313 264.997264 211.143147 398.612153 133.872397 306.92245 101.324173 243.114198 40.6948234 146.937671 8.17376128 16.7802372 84.5010444"></polygon>
                        <g id="Group-32" transform="translate(99.957069, 25.499843)" fill="url(#linearGradient-4)">
                            <path d="M82.6883343,23.9035944 C80.7241291,26.6839608 79.9499693,28.6732959 80.3658551,29.8715998 C80.9896839,31.6690555 88.6728965,29.6903414 93.1447418,29.9789841 C97.616587,30.2676268 97.0998046,36.4075979 95.6867742,37.6606828 C94.2737438,38.9137677 89.4134192,36.3861504 88.2663245,35.7196646 C87.1192299,35.0531788 79.0539006,34.5378347 74.1835157,35.2354035 C69.3131309,35.9329723 59.9318449,34.7605466 56.6884026,35.2976892 C53.4449604,35.8348318 53.8182285,38.3126845 52.2800904,37.4189943 C50.7419522,36.5253042 51.9279617,35.3320173 53.2249525,34.5784388 C54.5219433,33.8248602 46.4611396,30.7259735 43.7238973,30.1065961 C40.986655,29.4872187 38.4653784,31.6841319 36.3528098,33.2884303 C34.2402413,34.8927287 36.9544352,41.5603035 41.5711193,43.6411288 C46.1878034,45.721954 51.6642724,52.1454558 51.3041472,53.3298978 C50.9440221,54.5143398 50.8630059,54.7438216 53.6232211,57.1809982 C56.3834363,59.6181749 55.2366098,66.688232 55.3786473,68.8630625 C55.5206848,71.0378929 48.8926455,70.7807369 46.5437384,72.1455006 C44.1948314,73.5102644 41.2043641,75.3905433 38.1435732,74.5778858 C35.0827822,73.7652282 33.4116782,73.411721 32.158362,74.1399237 C30.9050458,74.8681264 28.5428124,75.1326628 26.460536,75.5964205 C24.3782597,76.0601782 18.3901261,76.8849811 15.6677587,76.7045534 C12.9453912,76.5241256 10.7689143,77.4007399 8.51994888,78.5943473 C7.02063862,79.3900856 5.82961025,80.9802162 4.94686378,83.3647392 C-3.82086882,78.7676788 3.83780441,75.5340562 5.70298423,73.2522772 C7.56816405,70.9704982 13.5869484,66.9813002 19.8835427,63.3228483 C26.180137,59.6643963 24.2072747,52.4159675 24.7980141,51.0950799 C25.3887534,49.7741924 28.3558623,49.3437759 31.8079594,48.4596783 C35.2600565,47.5755808 37.8348524,46.0521337 38.2562882,45.0781915 C38.5372453,44.4288966 37.5070075,44.2365754 35.1655746,44.5012279 C31.744668,36.9031761 29.9397635,32.5718251 29.7508612,31.507175 C29.4675076,29.9101998 31.5314481,29.2853128 32.1773292,28.0306448 C32.8232103,26.7759768 29.9564037,23.7768565 33.0793176,21.9623787 C36.2022314,20.147901 33.9150989,19.9201212 35.7393612,17.5788458 C36.9555361,16.0179956 40.6769418,15.3124552 46.9035781,15.4622245 C50.6017207,13.6262017 53.2989704,12.215381 54.9953272,11.2297625 C57.5398625,9.75133468 56.3522293,7.00140489 50.213231,5.03488541 C44.0742327,3.06836593 42.640996,1.15738535 43.7577624,0.508520886 C44.8745288,-0.140343579 56.0056925,1.40060112 61.2856823,2.73590319 C66.565672,4.07120525 72.7914858,10.1539868 74.1562946,10.946969 C75.5211033,11.7399512 77.3056201,11.5881358 79.0934596,13.8155643 C80.881299,16.0429928 88.0263213,17.8170856 90.5951001,19.3095994 C93.1638789,20.8021132 88.2305819,19.2452079 90.3727199,21.3685572 C92.514858,23.4919066 93.7149358,22.7343684 94.5696541,21.6188978 C95.4243725,20.5034272 98.7198645,21.7864026 100.997043,22.5297565 C103.274222,23.2731103 102.249075,24.6248403 104.980304,26.5742909 C107.711533,28.5237415 104.107378,28.6383648 103.854677,29.8535989 C103.601976,31.0688329 102.529891,29.5549171 98.6048278,28.9475184 C94.6797642,28.3401198 96.3507719,27.9214914 93.196044,25.8049028 C91.092892,24.3938437 87.5903221,23.7600743 82.6883343,23.9035944 Z M110.896556,25.1309349 C114.281548,25.0137388 117.230474,25.9434813 119.743335,27.9201624 C123.512625,30.8851841 129.373065,33.5152358 135.611056,37.1396379 C141.849047,40.76404 141.319509,40.8044134 138.712694,42.3190269 C136.105879,43.8336405 133.665701,42.6395387 132.348632,43.4047829 C131.031564,44.1700272 124.151027,42.3394624 120.130076,40.3654438 C116.109125,38.3914252 111.923591,40.3982722 110.267407,39.4359948 C108.611223,38.4737174 110.161537,36.5901138 112.208654,35.400696 C114.255772,34.2112782 117.69078,33.7746153 118.107796,32.4058446 C118.524812,31.0370739 110.595946,27.5094933 109.361322,26.0229382 C108.538239,25.0319014 109.049984,24.734567 110.896556,25.1309349 Z M164.12756,132.762379 C161.948229,133.890805 160.858707,134.740793 160.858994,135.312345 C160.859425,136.169672 164.096031,135.828001 165.448835,135.51315 C166.801639,135.198298 168.129989,135.283225 167.162906,136.50906 C166.195823,137.734896 164.727582,144.388284 161.086792,145.141941 C157.446002,145.895598 146.837716,147.146925 143.664054,145.302962 C140.490393,143.458998 143.805338,146.15039 141.776501,142.369394 C139.747663,138.588399 143.71415,138.907134 141.417083,137.95225 C139.120016,136.997365 129.132224,136.066388 127.395266,133.098778 C125.658307,130.131167 128.675228,132.355093 131.27623,130.843857 C133.877231,129.332621 138.786133,127.199266 142.507501,128.09575 C146.228868,128.992234 148.102361,130.617464 150.648085,129.69253 C153.19381,128.767595 157.047884,129.069679 157.001341,130.011243 C156.954799,130.952808 160.28106,131.148695 161.21939,131.072672 C161.844943,131.02199 162.814333,131.585226 164.12756,132.762379 Z M148.368091,60.0488892 C149.757569,60.0755472 150.612937,59.995547 150.934196,59.8088886 C151.416086,59.5289009 152.206374,59.0697268 147.707525,58.4941006 C143.208675,57.9184745 143.386951,60.200772 139.861395,59.8881055 C136.33584,59.575439 136.192152,57.5774353 136.127485,55.982872 C136.062819,54.3883088 148.940569,55.3924857 153.008581,55.8579212 C157.076594,56.3233567 159.19563,61.7718573 162.259842,63.5522281 C165.324054,65.3325988 184.634126,72.1250753 191.487982,73.7461637 C198.341839,75.3672521 197.211906,77.1480119 199.729656,80.3773649 C202.247406,83.6067179 222.868301,94.7701978 228.167334,97.8490461 C233.466368,100.927894 237.201912,107.776909 237.710367,109.272359 C238.218821,110.767809 235.037767,108.185887 231.280122,107.051514 C227.522477,105.917141 233.857562,109.720046 231.780051,110.927123 C229.702541,112.134199 229.35381,109.517426 224.119966,111.211713 C218.886122,112.906001 220.962389,106.819424 223.427886,105.386919 C225.893382,103.954414 216.18531,101.178832 212.176717,100.98223 C208.168123,100.785628 211.560116,101.853888 212.213961,106.129364 C212.867807,110.404841 205.652405,109.941764 202.570086,109.736905 C199.487766,109.532047 201.82048,111.638265 199.500189,113.51633 C197.179897,115.394395 196.121635,112.836244 198.387679,111.519626 C200.653723,110.203007 198.971599,106.690261 195.145055,107.759705 C191.318511,108.829148 192.436756,113.80134 189.43793,115.54372 C186.439103,117.286101 179.254678,114.47734 175.527127,113.504534 C171.799576,112.531728 173.616122,116.758681 170.648854,119.477502 C167.681585,122.196323 159.410859,122.481391 157.790302,121.539814 C156.169746,120.598237 164.127231,112.512855 164.794742,112.125017 C165.462253,111.737179 164.132799,111.248674 163.23733,110.728387 C162.341861,110.208101 166.028281,106.792529 164.556772,105.937551 C163.085263,105.082574 157.616514,104.845975 155.364785,106.154276 C153.113057,107.462576 146.859392,108.272215 146.328985,107.964038 C145.798578,107.65586 149.418228,101.934523 150.618099,101.237374 C151.817969,100.540224 154.110123,99.8678317 151.666102,98.4478048 C149.222081,97.0277779 151.841898,94.4922395 149.368402,94.1144159 C146.894906,93.7365923 144.367603,90.1495191 144.612013,89.4989328 C144.856423,88.8483466 143.951444,85.9563148 142.480166,86.1689777 C141.008888,86.3816407 142.22939,88.6316966 141.080717,89.2990992 C139.932045,89.9665018 142.16012,90.7882107 143.820819,93.8895322 C145.481517,96.9908537 132.978126,94.2076188 129.387658,92.7192404 C125.79719,91.2308621 131.093952,83.4965815 131.093952,83.4965815 C131.093952,83.4965815 129.307232,83.3009602 126.189433,89.2027906 C123.071635,95.104621 128.605545,92.6003507 130.633344,96.2276607 C132.661143,99.8549706 113.939574,96.9878737 108.925859,99.2332853 C103.912145,101.478697 101.986002,103.933147 97.8909521,103.892143 C93.7959018,103.85114 92.6619357,106.445835 89.2613825,105.965848 C85.8608292,105.485861 80.4851084,107.504304 75.8293848,107.008117 C71.1736612,106.511931 72.8060814,104.476403 71.9203677,102.528012 C71.0346539,100.57962 77.060692,98.7377046 77.2727228,97.5043826 C77.4847535,96.2710606 76.6279278,92.9719406 86.1780101,91.8588348 C95.7280925,90.745729 89.5509515,87.1000076 91.3100902,85.000791 C93.0692288,82.9015745 94.9513109,81.5392195 93.4431753,80.0113486 C91.9350397,78.4834778 86.0653628,76.3762992 83.6700547,74.3329627 C81.2747466,72.2896262 85.1010578,67.4113127 89.4313465,65.686601 C93.7616353,63.9618893 95.9260257,62.4973897 100.836398,63.0969826 C104.10998,63.4967111 107.485057,63.3008842 110.961629,62.5095017 C114.806427,64.1082438 118.33472,65.5628473 121.54651,66.873312 C126.364195,68.839009 117.056521,67.3954344 121.364135,71.8863572 C125.671749,76.37728 122.616241,71.4036782 127.677164,75.5543583 C132.738088,79.7050383 134.027609,79.6974922 137.297713,78.6583249 C140.567817,77.6191576 137.362549,76.8962367 135.263737,75.6767835 C133.164926,74.4573302 134.840438,72.7214707 134.862556,71.3794969 C134.884673,70.0375231 131.30037,72.5405071 130.191979,72.7299866 C129.083588,72.9194662 129.358015,71.7855573 131.145282,70.0556991 C132.932548,68.3258409 132.49396,64.9310902 131.148565,64.9504404 C129.803171,64.9697905 129.292781,68.3897768 128.338951,68.9439719 C127.385121,69.498167 126.54162,65.8814057 125.317614,63.8957672 C124.093608,61.9101287 116.726661,62.8900515 112.498773,61.6163889 C108.270885,60.3427264 112.121786,55.5985334 117.488972,58.7169799 C122.856158,61.8354265 121.932016,58.7210714 122.498897,57.5095221 C123.065778,56.2979728 125.648511,57.8984088 130.703455,58.3623528 C135.758399,58.8262967 135.668512,59.8195834 139.855765,62.2524641 C144.043018,64.6853448 149.009944,63.9866569 150.432201,63.6623331 C151.854457,63.3380092 149.478176,62.4206032 147.958664,61.5377348 C146.945655,60.949156 147.082131,60.4528741 148.368091,60.0488892 Z" id="Combined-Shape"></path>
                        </g>
                        <polygon id="Path-4" fill="#C9E6FE" fill-rule="nonzero" style="mix-blend-mode: multiply;" points="246.835849 34.5320544 310.684232 95.1995355 162.470804 182.462768 98.6582527 122.432357"></polygon>
                    </g>
                    <polygon id="Path-6" fill="url(#radialGradient-5)" fill-rule="nonzero" points="252.264656 90.5809071 258.558922 92.6877102 241.261533 153.702733 238.989803 153.12469"></polygon>
                    <ellipse id="Oval-2" fill="url(#radialGradient-6)" fill-rule="nonzero" cx="255.719103" cy="91.9299322" rx="20.5621757" ry="20.5545444"></ellipse>
                </g>
                <g id="Group-31" transform="translate(248.000000, 180.000000)">
                    <path d="M229.774955,141.665586 C254.770474,126.994949 254.373826,103.209146 228.889015,88.5385087 C203.404204,73.8678714 162.481811,73.8678714 137.486291,88.5385087 C112.490772,103.209146 112.887421,126.994949 138.372231,141.665586 C163.857042,156.336223 204.779435,156.336223 229.774955,141.665586 Z" id="Oval-19" fill="#45C0FA" opacity="0.200000003"></path>
                    <path d="M123.29837,215.835832 C115.927324,220.216494 107.351013,220.236084 99.8226705,215.891589 L10.5222898,164.162704 C-3.59878803,156.710811 0.58598442,152.056127 0.58598442,139.953948 C0.58598442,138.307429 2.56701016,135.484084 3.84080744,134.368328 L228.660186,14.5315287 C233.239445,11.8160307 238.548004,11.8024683 243.217478,14.4968692 L123.29837,215.835832 Z" id="Fill-681" fill="url(#linearGradient-2)"></path>
                    <path d="M102.939075,203.27251 C264.797368,109.181923 345.753131,62.2471377 345.806365,62.4681549 C346.205673,64.128798 346.427046,65.0830377 346.482305,67.0526026 C346.504886,67.8407299 346.500559,68.6424197 346.471533,69.4486303 C346.441327,70.2548409 346.386397,71.0640653 346.306643,71.8702759 C346.029259,74.6912594 345.450165,77.4595002 344.611246,79.7862089 C344.37225,80.4522744 344.111392,81.0806666 343.829774,81.6668646 C343.548105,82.2500487 343.246833,82.7895316 342.925805,83.2762718 C342.603572,83.7615051 342.263944,84.1939957 341.904384,84.5631949 C341.544824,84.9323941 341.167718,85.239809 340.772864,85.473384 L123.29837,215.835832 C117.387512,219.348499 110.698331,220.049224 104.398983,217.95157 C108.116164,218.013354 111.606468,217.20413 111.988183,212.503997 C112.447944,206.824357 106.48685,205.909647 102.939075,203.27251 Z" id="Fill-682" fill="url(#linearGradient-7)"></path>
                    <path d="M337.399442,54.9689442 C348.852047,60.8243213 348.852047,67.3408788 337.746045,74.0557912 L125.797119,200.388987 C116.497625,205.974608 105.427004,205.200458 97.8986363,200.854456 L10.2852938,149.950794 C-3.59878803,141.815822 -1.27391445,136.69567 9.93152319,130.151167 L225.301709,2.56491916 C231.811355,-1.158828 241.556097,-0.129481785 246.225571,2.56491916 L337.399442,54.9689442 Z" id="Fill-683" fill="url(#linearGradient-1)"></path>
                    <path d="M58.9742546,168.878834 C53.389575,168.878834 48.8142694,165.998731 48.7550236,162.445943 C48.6957777,158.893156 53.1750269,156.013053 58.7597065,156.013053 C64.3443862,156.013053 68.9196918,158.893156 68.9789376,162.445943 C69.0381834,165.998731 64.5589343,168.878834 58.9742546,168.878834 Z" id="Oval-11" fill="#6276E2" fill-rule="nonzero"></path>
                    <path d="M319.417003,71.5372915 C320.363136,72.0843741 320.395079,73.7875845 319.468448,74.339201 L127.905775,188.161109 C126.924157,188.74144 125.791299,188.744462 124.802203,188.168666 L26.2791239,130.954315 C25.1829102,130.324112 25.1501982,128.362473 26.2135168,127.727736 L217.80662,13.8907155 C218.542808,13.4539561 219.392465,13.4524448 220.143144,13.8846704 L319.417003,71.5372915 Z" id="Fill-687" fill="url(#linearGradient-3)" fill-rule="nonzero"></path>
                    <path d="M185.625268,63.1368852 C183.91621,64.1229777 182.709817,65.1090702 182.357952,66.0371572 C182.056354,66.7912279 182.307686,67.5452986 183.488946,68.2268625 C184.695339,68.9229278 185.951999,69.0389387 187.258925,68.8649224 C188.892583,68.6764047 190.601641,67.9803394 192.310698,66.9942469 C194.019755,66.0081545 195.226149,65.022062 195.55288,64.0794736 C195.854479,63.3254029 195.653413,62.6003349 194.44702,61.9042697 C193.265759,61.2227058 191.958833,61.0776922 190.651907,61.2517085 C189.043382,61.4547275 187.334325,62.1507928 185.625268,63.1368852 Z M182.156886,61.1356976 C184.242942,59.9320847 186.605462,58.9459923 189.395247,58.612461 C192.084499,58.3079324 194.974817,58.6704664 197.51327,60.1351038 C200.051722,61.5997411 200.680052,63.2673975 200.127122,64.8045416 C199.549058,66.4141926 197.865134,67.7918217 195.779079,68.9954346 C193.693024,70.1990475 191.30537,71.1706386 188.515585,71.5041698 C185.851466,71.8231998 182.961149,71.4606658 180.422696,69.9960284 C177.884243,68.5313911 177.255913,66.8637347 177.78371,65.3120892 C178.361774,63.7024383 180.070831,62.3393105 182.156886,61.1356976 Z M217.793366,72.2713608 L214.903048,73.9390172 C212.615927,73.8375077 203.894708,73.5909846 194.94729,77.9123898 L191.353243,75.8386953 C200.803325,71.1692575 210.806337,71.6913064 210.806337,71.6913064 L202.411849,66.8478523 L205.4027,65.1221905 L217.793366,72.2713608 Z M202.409456,79.7816841 C203.666115,79.0566161 205.727038,79.0566161 206.983697,79.7816841 C208.26549,80.5212535 208.26549,81.710365 207.008831,82.435433 C205.752171,83.1605009 203.691249,83.1605009 202.409456,82.4209316 C201.152796,81.6958636 201.152796,80.5067521 202.409456,79.7816841 Z M221.156427,81.4914635 L217.964511,79.5337799 C218.140443,79.374265 218.567707,79.0407337 218.969839,78.8087119 C221.835023,77.1555569 226.585197,76.9090338 230.38031,79.0987391 C234.024623,81.2014363 233.848691,83.8841878 231.00864,85.5228415 C228.897451,86.7409557 226.032267,87.0599856 222.790084,86.6104435 L217.738312,85.8998769 C216.707851,85.7693646 215.727656,85.7258605 214.847994,85.9433809 L222.664418,90.4533038 L219.673568,92.1789656 L207.609634,85.2183129 C210.499951,83.5796593 213.742134,82.7530818 218.416908,83.4201443 L222.714685,84.0437028 C224.926406,84.3627327 226.333865,84.1887164 227.464859,83.5361552 C228.646119,82.8545913 228.872318,81.7669893 227.23866,80.8244009 C225.50447,79.8238071 223.468681,80.0123248 221.935556,80.8969077 C221.633957,81.070924 221.357492,81.2884444 221.156427,81.4914635 Z M235.102957,89.5383371 L231.911041,87.5806535 C232.086973,87.4211386 232.514238,87.0876073 232.916369,86.8555855 C235.781553,85.2024305 240.531728,84.9559074 244.32684,87.1456127 C247.971154,89.2483099 247.795221,91.9310614 244.95517,93.5697151 C242.843982,94.7878293 239.978797,95.1068592 236.736615,94.6573171 L231.684842,93.9467505 C230.654381,93.8162382 229.674187,93.7727341 228.794525,93.9902545 L236.610949,98.5001774 L233.620098,100.225839 L221.556164,93.2651865 C224.446482,91.6265329 227.688664,90.7999554 232.363439,91.4670179 L236.661215,92.0905764 C238.872937,92.4096063 240.280396,92.23559 241.411389,91.5830288 C242.59265,90.9014649 242.818848,89.8138629 241.185191,88.8712745 C239.451,87.8706807 237.415211,88.0591984 235.882086,88.9437813 C235.580488,89.1177976 235.304023,89.335318 235.102957,89.5383371 Z M113.233882,103.962702 L109.740368,101.947013 L117.129528,97.6836128 L109.36337,93.2026926 L101.97421,97.4660924 L98.505829,95.4649047 L116.325265,85.1834406 L119.793646,87.1846283 L112.630685,91.3175158 L120.396843,95.798436 L127.559804,91.6655485 L131.053319,93.6812375 L113.233882,103.962702 Z M129.693732,113.459711 L132.282452,110.254911 L125.044091,106.078519 L119.489654,107.572159 L115.820208,105.454961 L140.475874,99.1178663 L144.497185,101.438084 L133.463712,115.634915 L129.693732,113.459711 Z M138.565751,102.453179 L129.367001,104.91841 L134.293107,107.760677 L138.565751,102.453179 Z M157.212189,122.985723 L172.744504,117.736231 L176.288285,119.780923 L153.542742,127.22012 L149.973828,125.160927 L158.594515,115.48852 L141.830673,120.462487 L138.211492,118.374291 L151.079689,105.236059 L154.749136,107.353258 L145.751451,116.315098 L161.962363,111.515148 L165.55641,113.588842 L157.212189,122.985723 Z M172.138914,137.949746 L174.727633,134.744945 L167.489273,130.568554 L161.934836,132.062194 L158.265389,129.944995 L182.921055,123.607901 L186.942367,125.928118 L175.908893,140.12495 L172.138914,137.949746 Z M181.010932,126.943214 L171.812182,129.408445 L176.738289,132.250711 L181.010932,126.943214 Z M182.013867,143.647399 L178.495219,141.617209 L196.314655,131.335744 L199.833303,133.365935 L182.013867,143.647399 Z" id="07.22-HAWAI" fill="url(#linearGradient-7)"></path>
                    <path d="M283.463031,38.4228524 C283.944761,38.7110662 284.154917,39.4550962 283.956063,40.086347 C283.74555,40.7160314 283.203455,40.9932805 282.733357,40.7050668 L260.240197,26.9757538 C259.758467,26.68754 259.54831,25.9435099 259.747165,25.3122591 C259.957678,24.6825747 260.499773,24.4053256 260.969871,24.6935394 L283.463031,38.4228524 Z" id="Fill-689" fill="url(#linearGradient-8)"></path>
                    <path d="M288.809486,41.1713353 C289.235276,40.9503898 289.793788,40.81905 290.402209,40.81905 C291.347052,40.81905 292.161156,41.1345111 292.605771,41.6132263 C292.830505,41.8550389 292.962862,42.1373581 292.967959,42.4429994 C292.969842,42.5559271 292.955003,42.6676273 292.92338,42.7744177 C292.702001,43.5207224 291.700653,44.0669488 290.456371,44.0669488 C289.024791,44.0669488 287.903423,43.3537858 287.888235,42.4429994 C287.885533,42.2809727 287.918723,42.1250834 287.975937,41.9790139 C288.1256,41.653733 288.419179,41.3738687 288.809486,41.1713353 Z" id="Fill-696" fill="url(#linearGradient-8)"></path>
                    <path d="M274.361582,26.555034 C274.684456,26.3343938 275.104072,26.2035055 275.553084,26.2035055 C276.260617,26.2035055 276.878174,26.5195072 277.21271,26.9981843 C277.380009,27.2393927 277.479963,27.5217373 277.485045,27.82652 L277.449776,28.1593502 C277.285334,28.9054133 276.546087,29.4514043 275.607245,29.4514043 C274.545946,29.4514043 273.690438,28.7371284 273.675252,27.82652 L273.749158,27.3628016 C273.852615,27.0393206 274.06564,26.7588457 274.361582,26.555034 Z" id="Fill-697" fill="url(#linearGradient-8)"></path>
                    <path d="M57.915079,187.815138 C57.9245779,188.384756 57.460698,188.763515 57.0227234,188.526791 L42.9169734,180.581726 C42.697838,180.454487 42.5485239,180.176335 42.5434167,179.870073 L42.4853872,176.390224 C42.4759624,175.825044 42.9398422,175.446285 43.3656125,175.674132 L57.2710845,183.176818 C57.6238508,183.364718 57.8479453,183.789342 57.8557665,184.258353 L57.915079,187.815138 Z" id="Fill-698" fill="#4457C1" fill-rule="nonzero"></path>
                    <path d="M32.3486818,170.87161 C32.3270032,169.571613 32.8818963,168.794309 33.5896555,169.135137 C34.2974372,169.477313 34.8874878,170.808295 34.9091889,172.109639 C34.9308899,173.410983 34.3759968,174.188287 33.6682151,173.846112 C32.9604559,173.505284 32.3703828,172.172955 32.3486818,170.87161 Z M26.0816376,168.03024 C26.0599366,166.728896 26.6228135,165.951592 27.3277528,166.293767 C28.0326697,166.634596 28.6204437,167.966925 28.6421447,169.268269 C28.6638233,170.568266 28.1112293,171.34557 27.4063124,171.004742 C26.7013731,170.662566 26.1033387,169.331585 26.0816376,168.03024 Z M19.6778348,164.783144 C19.6561337,163.481798 20.2087277,162.704493 20.9136446,163.045322 C21.6288667,163.387498 22.2166183,164.718481 22.2383194,166.019827 C22.2600205,167.321173 21.7074264,168.098477 20.9922043,167.756302 C20.2872874,167.415473 19.6995134,166.083143 19.6778348,164.783144 Z M14.5439332,161.534273 C14.5222342,160.23305 15.0771285,159.455819 15.7849097,159.797962 C16.4926684,160.138759 17.0827394,161.470963 17.1044384,162.772186 C17.1261149,164.072062 16.5712431,164.85064 15.8634619,164.508497 C15.1556807,164.166353 14.5656322,162.835496 14.5439332,161.534273 Z" id="Combined-Shape" fill="#4457C1"></path>
                    <path d="M122.946316,216.209934 C122.969726,216.198881 195.491974,172.719483 340.513061,85.771739 C340.98783,85.4491928 340.993654,85.4446711 341.000657,85.4401495 C343.489305,83.4249895 345.148648,78.7947941 345.85381,73.7531262 C344.876434,76.6198683 343.522211,78.8897493 341.852947,79.8830106 L324.847897,91.1238175 L324.866271,92.2255991 C324.881527,93.1404847 324.478958,93.972473 323.834134,94.3553081 L317.890631,97.8897509 C317.251372,97.9696339 316.924354,97.6018709 316.916034,97.1029794 L316.895148,95.8504754 L299.610041,106.122214 L299.632964,107.496804 C299.648748,108.443341 299.2325,109.303966 298.565487,109.700367 L281.977739,119.556111 C280.671009,119.721906 279.985948,118.965279 279.968756,117.934337 L277.314757,119.37223 L277.340093,120.891513 C277.355902,121.839557 276.945528,122.698676 276.279694,123.095076 L259.691947,132.950821 C258.373419,133.116616 257.700155,132.359989 257.682989,131.330554 L122.792087,211.205947 C119.205995,213.344699 115.319552,214.451003 111.415918,214.526364 C110.440931,217.607132 107.475568,218.071838 104.408282,218.071838 C106.391468,218.854088 108.914483,219.453483 111.321123,219.453483 C115.308595,219.453483 119.278046,218.372802 122.946316,216.209934 Z" id="Fill-708" fill="#6276E2" fill-rule="nonzero"></path>
                    <path d="M300.407442,107.79658 C300.423705,108.771855 299.99746,109.658609 299.314328,110.067044 L282.325708,120.222014 C281.392577,120.782642 280.290261,119.892781 280.267886,118.551002 L280.203712,114.702705 C280.191748,113.985226 280.507114,113.332972 281.009579,113.031693 L298.29249,102.699683 C299.231662,102.139055 300.327937,103.028916 300.350312,104.370695 L300.407442,107.79658 Z" id="Fill-717" fill="#4457C1" fill-rule="nonzero"></path>
                    <path d="M277.765319,120.787448 C277.781608,121.764284 277.361224,122.649493 276.679054,123.057931 L259.684311,133.212985 C258.75087,133.775171 257.64814,132.88375 257.62579,131.543513 L257.56159,127.69363 C257.549625,126.976145 257.865108,126.323886 258.367754,126.022605 L275.649668,115.692062 C276.595196,115.129877 277.685813,116.019744 277.708189,117.361535 L277.765319,120.787448 Z" id="Fill-720" fill="#4457C1" fill-rule="nonzero"></path>
                    <path d="M325.551924,92.5567975 C325.569042,93.5833229 325.134998,94.5168353 324.439087,94.9463863 L318.02471,98.9121226 C317.544372,99.2080731 316.983752,98.7379346 316.971936,98.0293446 L316.893001,93.2958282 C316.886655,92.9153204 317.04651,92.5720179 317.30369,92.4130502 L324.439226,88.0042336 C324.918263,87.706592 325.478911,88.1784216 325.490727,88.8870116 L325.551924,92.5567975 Z" id="Fill-723" fill="#4457C1" fill-rule="nonzero"></path>
                </g>
            </g>
        </g>
    </g>
</svg>