<?xml version="1.0" encoding="UTF-8"?>
<svg width="192px" height="184px" viewBox="0 0 192 184" version="1.1" xmlns="http://www.w3.org/2000/svg" xmlns:xlink="http://www.w3.org/1999/xlink">
    <!-- Generator: Sketch 52.4 (67378) - http://www.bohemiancoding.com/sketch -->
    <title>Group 43</title>
    <desc>Created with Sketch.</desc>
    <defs>
        <path d="M15.8011637,35.2155282 C15.8097094,34.8693324 15.8493501,34.5386412 15.9200857,34.2234546 L11.9739831,33.5442781 L16.0127491,33.0762613 L17.5353067,31.6510168 L13.3949585,26.6241659 L18.8740162,30.856 C19.7510156,30.4328252 20.6337187,30.2066728 21.4884933,30.1382318 L21.7802616,23.636881 L23.1183184,30.1950209 C23.7635888,30.2919894 24.3767151,30.4740174 24.940307,30.7207782 L30.4834914,26.0693058 L26.478016,31.6452496 C26.7518161,31.8643412 27.0003126,32.1001066 27.2194774,32.3478378 C27.2619478,32.3958439 27.3034108,32.4441633 27.3438666,32.4927962 L27.7421577,32.8781706 L34.599998,30.9332389 L28.4771969,34.5247633 L28.7237846,35.1916723 L36.3047064,36.0893894 L28.4873499,36.7404737 C28.4847212,36.7573166 28.4820234,36.7741809 28.4792566,36.7910667 C28.6422753,40.7295089 28.7237846,42.95972 28.7237846,43.4816999 C28.7237846,44.2679603 28.2700104,44.6507992 28.2700104,45.027928 C28.2700104,45.4050568 29.1353665,49.5609959 29.3800865,50.0192943 C29.6248064,50.4775926 32.3322822,51.9862141 33.6811691,53.465268 C34.5804271,54.4513039 35.3186015,56.9990486 35.8956923,61.1085022 L39.6397422,64.794398 L43.5219927,60.3319291 L49.5099738,63.7559372 L50.4070941,64.794398 L48.6834021,67.2153726 C49.6841972,68.6657318 50.1845947,69.5434074 50.1845947,69.8483996 C50.1845947,70.3058878 47.5471628,73.4490329 46.6101894,74.5099764 C45.9855404,75.217272 44.9561415,75.7116636 43.5219927,75.9931512 C43.5219927,76.4646059 43.5219927,76.9704091 43.5219927,77.5105609 C43.5219927,78.0507127 43.1645013,79.3590223 42.4495185,81.4354897 C41.9097766,83.9387871 41.5109057,85.3265241 41.2529059,85.5987007 C40.9949061,85.8708772 40.2029109,86.3819428 38.8769203,87.1318975 C39.8642099,98.1013956 40.3578547,103.750874 40.3578547,104.080332 C40.3578547,104.40979 40.1184838,104.854786 39.6397422,105.415319 L40.0360981,109.927082 L38.8769203,110.352905 C39.3854682,115.625415 39.6397422,118.701368 39.6397422,119.580765 C39.6397422,120.460161 39.1311942,120.988236 38.1140984,121.16499 L39.3107014,135.015861 L5.27574453,135.015861 C6.65988393,134.010484 7.64579256,132.08828 8.23347039,129.249246 C9.11498715,124.990697 8.6106553,119.580765 8.23347039,115.792352 C7.98201379,113.266744 8.56849763,110.643563 9.99292193,107.922809 C9.64074331,106.605971 9.464654,104.555925 9.464654,101.772671 C9.464654,97.5977909 7.75240286,88.5000459 7.75240286,86.7371789 C7.75240286,85.5619343 8.49924255,83.0015718 9.99292193,79.0560916 C8.48085708,79.0560916 7.60053432,79.0560916 7.35195364,79.0560916 C6.97908263,79.0560916 6.586163,74.5099764 6.88808234,72.3410497 C7.0893619,70.8950986 8.12430843,68.5580786 9.99292193,65.3299897 C8.2322764,63.2474318 7.19732987,61.8402693 6.88808234,61.1085022 C6.42421104,60.0108515 7.35195364,57.0385878 7.35195364,56.5566458 C7.35195364,56.0747038 7.63239392,54.6971416 7.35195364,54.6971416 C7.16499346,54.6971416 6.90972991,54.176232 6.586163,53.134413 L4.58769273,53.134413 C5.53673002,51.5420457 6.01124866,50.5909841 6.01124866,50.2812283 C6.01124866,49.8165946 2.44220673,47.5831534 2.85460843,45.027928 C3.12954289,43.3244443 4.37339441,40.4993646 6.586163,36.5526889 C5.77218601,34.4086412 5.10602925,32.3444656 4.58769273,30.3601624 C4.0693562,28.3758591 3.970533,25.0177332 4.29122313,20.2857847 C3.84975846,20.0054495 3.62902612,19.683383 3.62902612,19.3195851 C3.62902612,18.9557871 3.62902612,17.6809138 3.62902612,15.4949651 C3.37314778,15.4886984 3.11500855,15.398248 2.85460843,15.2236139 C2.46400824,14.9616628 2.59326315,12.9194586 2.44220673,12.6248987 C2.34150246,12.4285255 2.3918546,12.0876026 2.59326315,11.6021301 C2.2159214,11.3509511 2.02725053,11.1152938 2.02725053,10.8951581 C2.02725053,10.6750224 2.30303649,10.5126964 2.85460843,10.4081801 C2.85460843,10.0790638 2.85460843,9.70569985 2.85460843,9.2880884 C2.85460843,8.66167123 0.189839876,5.32281426 0.189839876,5.05561415 C0.189839876,4.87748074 0.189839876,3.96443434 0.189839876,2.31647496 C1.27143378,1.10261049 2.96673533,0.495678248 5.27574453,0.495678248 C7.58475372,0.495678248 9.20818527,1.10261049 10.1460392,2.31647496 L10.1460392,5.64577594 C10.043961,5.89977357 9.81683262,6.1605705 9.464654,6.42816672 C9.11247538,6.69576295 8.25361816,7.11181945 6.88808234,7.67633622 L6.88808234,9.57348875 L8.43091506,12.2244552 L8.23347039,16.3177387 C8.23347039,17.1718627 8.35919869,18.610319 8.6106553,20.6331077 C8.9878402,23.6672908 11.0007586,30.9332389 11.3694202,32.8781706 C11.6151946,34.1747917 12.707805,37.1999022 14.6472514,41.9535019 C15.7390593,41.0349191 16.3752263,40.4487739 16.5557525,40.1950662 C16.8265419,39.8145048 16.7909229,39.0123276 16.5557525,38.4517065 C16.3989723,38.077959 16.1705922,37.50783 15.8706123,36.7413193 L12.7389431,36.2674137 L15.8011637,35.2155282 Z" id="path-1"></path>
        <linearGradient x1="50%" y1="57.5459477%" x2="53.210175%" y2="100%" id="linearGradient-3">
            <stop stop-color="#1D2F76" stop-opacity="0" offset="0%"></stop>
            <stop stop-color="#0D2160" offset="100%"></stop>
        </linearGradient>
        <path d="M15.8011637,35.2155282 C15.8097094,34.8693324 15.8493501,34.5386412 15.9200857,34.2234546 L11.9739831,33.5442781 L16.0127491,33.0762613 L17.5353067,31.6510168 L13.3949585,26.6241659 L18.8740162,30.856 C19.7510156,30.4328252 20.6337187,30.2066728 21.4884933,30.1382318 L21.7802616,23.636881 L23.1183184,30.1950209 C23.7635888,30.2919894 24.3767151,30.4740174 24.940307,30.7207782 L30.4834914,26.0693058 L26.478016,31.6452496 C26.7518161,31.8643412 27.0003126,32.1001066 27.2194774,32.3478378 C27.2619478,32.3958439 27.3034108,32.4441633 27.3438666,32.4927962 L27.7421577,32.8781706 L34.599998,30.9332389 L28.4771969,34.5247633 L28.7237846,35.1916723 L36.3047064,36.0893894 L28.4873499,36.7404737 C28.4847212,36.7573166 28.4820234,36.7741809 28.4792566,36.7910667 C28.6422753,40.7295089 28.7237846,42.95972 28.7237846,43.4816999 C28.7237846,44.2679603 28.2700104,44.6507992 28.2700104,45.027928 C28.2700104,45.4050568 29.1353665,49.5609959 29.3800865,50.0192943 C29.6248064,50.4775926 32.3322822,51.9862141 33.6811691,53.465268 C34.5804271,54.4513039 35.3186015,56.9990486 35.8956923,61.1085022 L39.6397422,64.794398 L43.5219927,60.3319291 L49.5099738,63.7559372 L50.4070941,64.794398 L48.6834021,67.2153726 C49.6841972,68.6657318 50.1845947,69.5434074 50.1845947,69.8483996 C50.1845947,70.3058878 47.5471628,73.4490329 46.6101894,74.5099764 C45.9855404,75.217272 44.9561415,75.7116636 43.5219927,75.9931512 C43.5219927,76.4646059 43.5219927,76.9704091 43.5219927,77.5105609 C43.5219927,78.0507127 43.1645013,79.3590223 42.4495185,81.4354897 C41.9097766,83.9387871 41.5109057,85.3265241 41.2529059,85.5987007 C40.9949061,85.8708772 40.2029109,86.3819428 38.8769203,87.1318975 C39.8642099,98.1013956 40.3578547,103.750874 40.3578547,104.080332 C40.3578547,104.40979 40.1184838,104.854786 39.6397422,105.415319 L40.0360981,109.927082 L38.8769203,110.352905 C39.3854682,115.625415 39.6397422,118.701368 39.6397422,119.580765 C39.6397422,120.460161 39.1311942,120.988236 38.1140984,121.16499 L39.3107014,135.015861 L5.27574453,135.015861 C6.65988393,134.010484 7.64579256,132.08828 8.23347039,129.249246 C9.11498715,124.990697 8.6106553,119.580765 8.23347039,115.792352 C7.98201379,113.266744 8.56849763,110.643563 9.99292193,107.922809 C9.64074331,106.605971 9.464654,104.555925 9.464654,101.772671 C9.464654,97.5977909 7.75240286,88.5000459 7.75240286,86.7371789 C7.75240286,85.5619343 8.49924255,83.0015718 9.99292193,79.0560916 C8.48085708,79.0560916 7.60053432,79.0560916 7.35195364,79.0560916 C6.97908263,79.0560916 6.586163,74.5099764 6.88808234,72.3410497 C7.0893619,70.8950986 8.12430843,68.5580786 9.99292193,65.3299897 C8.2322764,63.2474318 7.19732987,61.8402693 6.88808234,61.1085022 C6.42421104,60.0108515 7.35195364,57.0385878 7.35195364,56.5566458 C7.35195364,56.0747038 7.63239392,54.6971416 7.35195364,54.6971416 C7.16499346,54.6971416 6.90972991,54.176232 6.586163,53.134413 L4.58769273,53.134413 C5.53673002,51.5420457 6.01124866,50.5909841 6.01124866,50.2812283 C6.01124866,49.8165946 2.44220673,47.5831534 2.85460843,45.027928 C3.12954289,43.3244443 4.37339441,40.4993646 6.586163,36.5526889 C5.77218601,34.4086412 5.10602925,32.3444656 4.58769273,30.3601624 C4.0693562,28.3758591 3.970533,25.0177332 4.29122313,20.2857847 C3.84975846,20.0054495 3.62902612,19.683383 3.62902612,19.3195851 C3.62902612,18.9557871 3.62902612,17.6809138 3.62902612,15.4949651 C3.37314778,15.4886984 3.11500855,15.398248 2.85460843,15.2236139 C2.46400824,14.9616628 2.59326315,12.9194586 2.44220673,12.6248987 C2.34150246,12.4285255 2.3918546,12.0876026 2.59326315,11.6021301 C2.2159214,11.3509511 2.02725053,11.1152938 2.02725053,10.8951581 C2.02725053,10.6750224 2.30303649,10.5126964 2.85460843,10.4081801 C2.85460843,10.0790638 2.85460843,9.70569985 2.85460843,9.2880884 C2.85460843,8.66167123 0.189839876,5.32281426 0.189839876,5.05561415 C0.189839876,4.87748074 0.189839876,3.96443434 0.189839876,2.31647496 C1.27143378,1.10261049 2.96673533,0.495678248 5.27574453,0.495678248 C7.58475372,0.495678248 9.20818527,1.10261049 10.1460392,2.31647496 L10.1460392,5.64577594 C10.043961,5.89977357 9.81683262,6.1605705 9.464654,6.42816672 C9.11247538,6.69576295 8.25361816,7.11181945 6.88808234,7.67633622 L6.88808234,9.57348875 L8.43091506,12.2244552 L8.23347039,16.3177387 C8.23347039,17.1718627 8.35919869,18.610319 8.6106553,20.6331077 C8.9878402,23.6672908 11.0007586,30.9332389 11.3694202,32.8781706 C11.6151946,34.1747917 12.707805,37.1999022 14.6472514,41.9535019 C15.7390593,41.0349191 16.3752263,40.4487739 16.5557525,40.1950662 C16.8265419,39.8145048 16.7909229,39.0123276 16.5557525,38.4517065 C16.3989723,38.077959 16.1705922,37.50783 15.8706123,36.7413193 L12.7389431,36.2674137 L15.8011637,35.2155282 Z" id="path-4"></path>
    </defs>
    <g id="About-Us" stroke="none" stroke-width="1" fill="none" fill-rule="evenodd">
        <g transform="translate(-790.000000, -997.000000)" id="Group-43">
            <g transform="translate(790.000000, 997.000000)">
                <path d="M1.32312036,122.635407 C-14.3294006,171.467119 114.890856,120.723845 73.3247168,155.653291 C31.7585778,190.582736 110.890767,190.408958 147.413316,170.424449 C183.935865,150.439941 218.545328,102.824677 162.544086,106.821578 C106.542845,110.81848 145.848064,65.636113 111.412518,60.7703196 C76.9769717,55.9045262 16.9756413,73.8036947 1.32312036,122.635407 Z" id="Path-5" fill="#F3F5FF"></path>
                <g id="Group-121" transform="translate(66.000000, 0.000000)">
                    <path d="M3.80034248,9.12123052 C3.3293905,8.43019535 3.1724065,7.71106464 3.3293905,6.96383838 C3.56486649,5.84299901 5.24828345,4.8631082 6.57424732,3.75325591 C7.45822323,3.01335438 7.79581565,1.86988685 7.5870246,0.322853307 C8.97948591,1.50987678 9.60364511,3.05526225 9.45950218,4.95900974 C9.31535925,6.86275723 8.7423299,8.25016415 7.74041413,9.12123052 L3.80034248,9.12123052 Z" id="Path-105" fill="#2F5DBD"></path>
                    <path d="M7.85231114,10.4641659 L7.85231114,9.03490344 C6.88684351,8.85764518 6.16274279,8.76901604 5.68000897,8.76901604 C5.19727516,8.76901604 4.51886051,8.85764518 3.64476501,9.03490344 L3.64476501,10.4641659 L7.85231114,10.4641659 Z" id="Path-104" fill="#1D2F76"></path>
                    <g id="Group-119" transform="translate(0.525773, 8.976898)">
                        <mask id="mask-2" fill="white">
                            <use xlink:href="#path-1"></use>
                        </mask>
                        <use id="Combined-Shape" fill="#2F5DBD" xlink:href="#path-1"></use>
                        <mask id="mask-5" fill="white">
                            <use xlink:href="#path-4"></use>
                        </mask>
                        <use id="Combined-Shape-Copy-10" fill-opacity="0.200000018" fill="url(#linearGradient-3)" xlink:href="#path-4"></use>
                        <rect id="Rectangle-130-Copy-4" fill="#1D2F76" mask="url(#mask-5)" x="24.185567" y="31.6831683" width="1" height="2.11221122"></rect>
                        <polygon id="Rectangle-130-Copy-5" fill="#1D2F76" mask="url(#mask-5)" points="25.7628866 32.2112211 26.2886598 32.7392739 26.2886598 34.8514851 25.7628866 34.3234323"></polygon>
                        <polygon id="Rectangle-130-Copy-6" fill="#1D2F76" mask="url(#mask-5)" points="27.3402062 33.4472879 27.8659794 33.9753407 27.8659794 36.0875519 27.3402062 35.5594991"></polygon>
                        <polygon id="Rectangle-130-Copy" fill="#1D2F76" mask="url(#mask-5)" points="19.4536082 31.6831683 19.9793814 31.3288618 19.9793814 33.441073 19.4536082 33.7953795"></polygon>
                        <path d="M16.6132023,33.9488805 L16.2070407,33.6135614 C17.9043038,31.5398538 19.696517,30.8910891 22.3040323,30.8910891 C24.8918523,30.8910891 27.5794747,32.5450913 29.0177339,35.8087676 L28.6280874,36.1247041 C27.276415,33.057509 24.6891557,31.4191419 22.3040323,31.4191419 C19.8400405,31.4191419 18.1968802,32.0139509 16.6132023,33.9488805 Z" id="Path-Copy" fill="#1D2F76" fill-rule="nonzero" mask="url(#mask-5)"></path>
                        <path d="M50.1300554,69.2427252 C49.8446327,69.8398567 49.6108036,70.1384224 49.428568,70.1384224 C49.1552146,70.1384224 48.9674511,68.6415531 48.0196969,68.0319608 C47.0719426,67.4223685 45.8659445,67.5576484 45.8659445,67.7948046 C45.8659445,68.0319608 46.8389427,68.1147175 47.4293198,68.7411162 C48.0196969,69.3675149 48.4386637,70.8874586 48.2183318,71.140345 C47.9979999,71.3932314 47.8516494,70.8881216 46.9997117,70.1384224 C46.4317533,69.638623 45.7052369,69.3926352 44.8201626,69.400459 C45.7307265,69.8519062 46.3216257,70.2753062 46.5928601,70.6706591 C46.9997117,71.2636884 47.1532024,71.8866977 46.9997117,72.0364124 C46.8462211,72.1861271 45.9333846,70.5487036 45.2434136,70.343563 C44.5534427,70.1384224 43.5973045,69.9332819 43.5973045,70.1384224 C43.5973045,70.343563 44.9340369,70.7780873 45.5121605,71.5987421 C46.0902841,72.419397 46.2797981,73.4173407 46.0728713,73.4173407 C45.8659445,73.4173407 44.9805632,71.9831147 44.5398994,71.7909284 C44.2461235,71.6628042 43.8587423,71.6628042 43.3777557,71.7909284 C43.7301885,71.9990608 44.0119873,72.2548774 44.2231521,72.5583781 C44.5398994,73.0136292 44.8566466,73.7313899 44.5398994,74.4278686 C44.3287345,74.8921877 44.0145362,75.4252263 43.5973045,76.0269843 C46.0685719,76.2935962 47.3459103,76.4269021 47.4293198,76.4269021 C47.5127293,76.4269021 48.8425211,74.0321764 51.4186952,69.2427252 L50.1300554,69.2427252 Z" id="Path-101" fill="#1D2F76" mask="url(#mask-5)"></path>
                        <path d="M25.9252385,118.320212 C25.6485786,122.765185 24.7092512,126.321619 23.1072562,128.989516 C24.0453349,125.1768 24.9846623,121.620366 25.9252385,118.320212 Z" id="Path-82" fill="#1D2F76" mask="url(#mask-5)"></path>
                        <path d="M26.6836036,43.7725654 C26.7328249,44.7837367 26.832075,45.5998727 26.9813539,46.2209734 C27.1306329,46.842074 27.2788735,47.4543691 27.426076,48.0578587 C26.5670875,47.4240904 26.1375933,46.8117953 26.1375933,46.2209734 C26.1375933,45.6301515 26.3195967,44.8140155 26.6836036,43.7725654 Z" id="Path-96" fill="#1D2F76" mask="url(#mask-5)"></path>
                        <path d="M17.3560329,35.1696216 L17.2148899,34.7789215 C18.7852953,33.4480932 20.0916168,33.0561056 22.3040323,33.0561056 C24.3907724,33.0561056 26.6235802,34.2209557 27.9932046,36.1943395 C27.3520529,35.8272603 26.9120349,35.531916 26.6731508,35.3083065 C25.4259583,34.1408617 23.8184321,33.4785479 22.3040323,33.4785479 C20.1837063,33.4785479 18.8427336,33.9097281 17.3560329,35.1696216 Z" id="Path-100" fill="#1D2F76" fill-rule="nonzero" mask="url(#mask-5)"></path>
                        <rect id="Rectangle-130" fill="#1D2F76" mask="url(#mask-5)" x="17.8762887" y="32.2112211" width="1" height="2.11221122"></rect>
                        <rect id="Rectangle-130-Copy-2" fill="#1D2F76" mask="url(#mask-5)" x="21.0309278" y="31.1551155" width="1" height="2.11221122"></rect>
                        <rect id="Rectangle-130-Copy-3" fill="#1D2F76" mask="url(#mask-5)" x="22.6082474" y="31.1551155" width="1" height="2.11221122"></rect>
                        <path d="M21.5631338,42.2593789 L23.4130059,42.2593789 C23.3303176,42.5735634 22.9572191,42.7306557 22.2937104,42.7306557 C21.6302017,42.7306557 21.1007589,42.4705498 20.705382,41.950338 C20.9321697,41.6195534 21.0829502,41.3841605 21.1577235,41.2441592 C21.2324969,41.104158 21.2324969,40.2659506 21.1577235,38.7295372 C20.8539277,38.4995685 20.5562777,38.3845841 20.2647734,38.3845841 C19.973269,38.3845841 19.8425088,38.5438742 19.8724926,38.8624542 L19.1126539,38.8624542 C18.7864633,39.2203599 18.7864633,39.8244837 19.1126539,40.6748254 C19.6019398,41.950338 20.4678626,44.0387838 21.3119261,44.3525241 C22.1559896,44.6662645 23.2937922,44.6711743 24.3705564,43.9121795 C25.0883991,43.4061829 25.797838,42.7522357 26.498873,41.950338 C25.8946802,43.2939106 25.077644,44.3658509 24.0477646,45.1661588 C22.5029454,46.3666206 20.6570541,47.8831374 20.2647734,47.8831374 C20.0032529,47.8831374 18.1373413,45.9055376 14.6670386,41.950338 L11.8105673,33.4202421 L16.60416,33.5952455 L17.4569001,34.8981949 C17.2682889,36.0519623 17.4108508,36.7347033 17.8845858,36.9464181 C18.5951883,37.2639902 20.9361739,36.126366 21.3119261,35.4475838 C21.5624276,34.9950624 21.6461635,34.600218 21.5631338,34.2630507 C21.8881604,34.8881304 21.7530237,35.5172239 21.1577235,36.1503312 C20.2647734,37.0999921 19.0976744,37.2140269 18.8952842,37.4705828 C18.692894,37.7271386 19.5834381,37.4809169 20.1891771,37.4705828 C20.7949161,37.4602486 21.400026,37.6436881 21.5631338,38.3845841 C21.6718724,38.8785149 21.7133872,39.7064077 21.6876783,40.8682626 C22.0837499,40.8091308 22.4233336,40.8569972 22.7064293,41.011862 C22.9895251,41.1667268 23.1068851,41.3819761 23.0585095,41.6576099 L21.5631338,41.6576099 L21.5631338,42.2593789 Z" id="Path-93" fill="#1D2F76" mask="url(#mask-5)"></path>
                        <path d="M38.9218488,87.241354 C38.2092428,86.0581354 37.8529397,85.0021443 37.8529397,84.0733805 C37.8529397,83.1446168 37.8529397,82.0229981 37.8529397,80.7085243 L40.5935369,81.9379335 C42.1442866,79.8512267 42.9196614,78.4652129 42.9196614,77.7798921 C43.4324817,80.08351 43.2542198,81.5284999 42.3848758,82.1148619 C39.9367458,82.7327814 38.7824035,83.4697248 38.9218488,84.3256921 C39.1310168,85.6096431 41.5720457,85.8233763 41.5720457,85.9893299 C41.5720457,86.0999656 40.6886467,86.517307 38.9218488,87.241354 Z" id="Path-87" fill="#1D2F76" mask="url(#mask-5)"></path>
                        <path d="M39.6682638,105.464261 C38.88193,105.166259 38.2744925,105.017258 37.8459514,105.017258 C38.4832739,104.121807 39.926055,104.106909 40.2678815,104.785585 C40.4957659,105.238036 40.2958933,105.464261 39.6682638,105.464261 Z" id="Path-86" fill="#1D2F76" mask="url(#mask-5)"></path>
                        <path d="M34.0012097,108.646874 L34.6263221,106.609892 C35.4756683,106.44132 36.1669518,106.568925 36.7001726,106.992708 C37.5000038,107.628383 38.0035382,108.818481 37.751771,109.668209 C37.5839262,110.234695 37.3230567,110.64285 36.9691624,110.892674 L36.9691624,109.864852 C36.7587025,109.408877 36.4053529,109.103292 35.9091138,108.948097 C35.4128746,108.792901 34.7769066,108.692494 34.0012097,108.646874 Z" id="Path-83" fill="#1D2F76" mask="url(#mask-5)"></path>
                        <path d="M38.42857,121.472533 C38.2608817,120.461192 38.0829462,119.766488 37.8947634,119.38842 C37.7065807,119.010352 37.4567737,118.644379 37.1453426,118.290502 C37.9625853,118.239645 38.5620657,118.356566 38.9437836,118.641267 C39.3255016,118.925967 39.7542301,119.667851 40.2299691,120.866917 L38.42857,121.472533 Z" id="Path-84" fill="#1D2F76" mask="url(#mask-5)"></path>
                        <path d="M5.14422268,133.350839 C7.63021922,133.415089 9.13110697,133.281335 9.64688593,132.949578 C10.4205544,132.451941 10.9173135,132.051177 10.9173135,132.251559 C10.9173135,132.451941 10.1942233,133.933875 10.9173135,133.933875 C11.6404038,133.933875 14.4025069,130.711297 14.7346963,128.37908 C15.0668857,126.046863 14.7794288,123.722304 15.0263469,123.1232 C15.2732651,122.524096 17.2097236,120.337634 17.6222282,120.337634 C18.0347327,120.337634 19.3708612,121.064242 19.3708612,121.499595 C19.3708612,121.934947 19.2337409,128.33811 17.8584716,131.02374 C19.0846327,128.490077 19.9459446,124.620747 20.4424072,119.415749 C25.7000321,117.017782 28.392882,115.707047 28.520957,115.483544 C28.6490319,115.260042 28.5163735,114.841401 28.1229817,114.227624 L28.9439448,113.165306 L26.2851453,110.676876 L29.4020621,108.840187 L28.9439448,125.225686 L27.7351549,127.901804 L28.1229817,121.010003 L26.2851453,128.37908 C27.2450527,129.326237 27.8576649,130.106468 28.1229817,130.719774 C28.520957,131.639733 28.8181093,133.350839 29.4020621,133.350839 C29.7913639,133.350839 30.4275191,133.44898 31.3105275,133.645261 C30.5790038,132.99496 30.2132419,132.437378 30.2132419,131.972514 C30.2132419,131.275218 30.2284364,120.854624 30.5905148,117.315947 C30.8319003,114.956829 30.8319003,111.89134 30.5905148,108.11948 C34.5390162,105.760246 36.665097,104.49109 36.968757,104.312012 C37.2724171,104.132934 37.2724171,103.623387 36.968757,102.783371 L25.7096227,109.448001 L27.7351549,78.2895038 C27.0999283,77.5812011 26.782315,77.2270497 26.782315,77.2270497 C26.782315,77.2270497 27.655564,76.2366934 29.4020621,74.2559809 L26.782315,75.8373025 C27.6760928,66.1921638 28.1229817,61.3695944 28.1229817,61.3695944 C28.1229817,61.3695944 25.7096227,76.7314945 25.7096227,77.2270497 C25.7096227,77.7226049 26.782315,78.5884183 26.782315,78.5884183 C26.782315,78.5884183 23.9051658,110.636572 23.9051658,111.024162 C23.9051658,111.282555 24.9625924,112.350375 27.0774457,114.227624 C20.8143791,117.686374 17.4666827,119.415749 17.0343565,119.415749 C16.6020303,119.415749 18.1890161,111.775273 21.7953139,96.4943218 C18.1394601,109.969786 15.8831378,117.610262 15.0263469,119.415749 C14.169556,121.221236 13.3508314,122.594597 12.5701729,123.535833 C14.9968853,116.216343 16.4849465,111.520399 17.0343565,109.448001 C17.5837665,107.375603 18.0916285,104.631928 18.5579423,101.216974 C17.1752046,105.338201 15.6185213,107.879272 13.8878926,108.840187 C12.1572639,109.801102 11.3140145,109.210092 11.3581444,107.067159 C13.1687775,106.057916 15.2568054,103.933691 17.6222282,100.694485 C19.987651,97.4552781 21.5547976,95.0152524 22.323668,93.3744078 L15.2824171,101.845333 C17.7753008,96.7183866 19.1381155,93.5308989 19.3708612,92.28287 C19.6036069,91.0348412 20.5878758,86.7681611 22.323668,79.4828299 C19.8131842,87.5312213 18.5579423,91.555417 18.5579423,91.555417 C18.5579423,91.555417 18.6335938,87.7704416 18.7848968,80.200491 C17.6178699,88.67142 17.0343565,93.2287726 17.0343565,93.872549 C17.0343565,94.8382135 12.5441606,104.493969 11.7307371,104.786481 C11.1884547,104.981489 11.4682667,98.8184938 12.5701729,86.2974946 C11.2794344,90.6833426 10.4695353,93.0423137 10.1404755,93.3744078 C9.8114158,93.7065019 9.50793484,92.0196149 9.23003266,88.3137466 C9.84075486,88.0656838 10.5501255,86.8405622 11.3581444,84.6383818 C12.1661634,82.4362014 12.5701729,80.5734753 12.5701729,79.0502036 C11.3474661,82.8491251 10.373037,85.1613314 9.64688593,85.9868227 C8.55765925,87.2250596 8.8131794,84.5196321 9.23003266,83.2155221 C9.50793484,82.3461154 10.8959348,78.7473652 13.3940325,72.4192715 C11.5540543,75.1642698 10.4695353,76.6518157 10.1404755,76.8819093 C9.8114158,77.1120029 10.7843748,74.0534124 13.0593526,67.7061377 C10.7654005,72.7918032 9.48896054,75.5021914 9.23003266,75.8373025 C8.97110478,76.1724137 9.53353175,73.5807751 10.9173135,68.0623868 C9.33511098,73.3336618 8.39215103,76.121401 8.08843372,76.4256043 C7.7847164,76.7298076 7.14738274,74.1358304 6.17643275,68.6436727 L5.14422268,133.350839 Z" id="Path-76" fill="#1D2F76" mask="url(#mask-5)"></path>
                        <path d="M9.53822168,65.4909803 C11.5253256,63.4201972 12.5188776,62.3253774 12.5188776,62.2065209 C12.5188776,62.0282362 11.9885564,60.9022808 12.5188776,58.7784996 C12.872425,57.3626454 13.3845162,55.1173003 14.0551512,52.0424641 C11.8292713,58.3213488 10.6278771,61.5172413 10.4509686,61.6301414 C10.27406,61.7430415 10.8729544,59.4311611 12.2476515,54.6945001 C10.4791728,57.2029405 9.39807643,58.1010988 9.0043623,57.3889752 C8.61064817,56.6768516 9.22605395,55.6286674 10.8505797,54.2444226 C9.23441077,55.419721 8.42632634,55.9165356 8.42632634,55.7348666 C8.42632634,55.5531976 9.10120708,54.7412711 10.4509686,53.2990871 L10.6956078,48.9450208 C9.70417872,52.7729983 8.80710087,54.3811481 8.00437423,53.7694705 C6.80028428,52.8519539 8.01711165,50.6641079 8.22171899,50.1484427 C8.35812389,49.8046659 9.29570536,48.5546423 11.0344634,46.3983718 C8.78863499,48.7396956 7.58535376,49.749468 7.42461973,49.4276892 C7.2638857,49.1059103 7.79046656,48.3021399 9.0043623,47.0163781 C7.31964336,48.3021399 6.09579995,48.9450208 5.33283207,48.9450208 C4.56986418,48.9450208 3.81522836,46.6053079 3.06892461,41.925882 C3.97830139,39.9694682 4.43298977,39.0704633 4.43298977,39.2288675 C4.43298977,39.4664737 4.76190323,43.5336088 5.04736765,43.9041446 C5.23767726,44.1511685 5.75744169,44.5031516 6.60666095,44.9600939 C5.56713208,45.772359 5.04736765,46.251785 5.04736765,46.3983718 C5.04736765,46.618252 4.79109556,48.2252726 6.20410841,47.8280379 C7.61712126,47.4308032 10.1228889,45.4255591 11.0344634,44.6648519 C11.6421797,44.1577137 12.2849209,43.1337843 12.962687,41.5930637 C11.3769656,43.7658488 10.057524,45.1099298 9.0043623,45.6253066 C7.42461973,46.3983718 6.47052679,45.619656 8.00437423,43.6063599 C9.0269392,42.2641624 9.36026855,41.5103771 9.0043623,41.3450039 C7.95120059,40.644899 7.42461973,39.7073291 7.42461973,38.5322942 C7.42461973,36.7697418 8.00437423,35.5421566 8.00437423,35.1264164 C8.00437423,34.7106761 5.33283207,32.8738188 5.33283207,28.729836 C5.33283207,25.9671808 5.62325751,23.6876489 6.20410841,21.8912402 C5.25990178,21.0302858 4.78779847,20.3797851 4.78779847,19.9397379 C4.78779847,19.4996908 5.1077715,19.0023161 5.74771757,18.4476139 C5.39096443,18.0841696 4.95272183,17.9024474 4.43298977,17.9024474 C4.43298977,17.5621968 4.43298977,16.2143349 4.43298977,13.8588616 L5.54989554,13.8588616 C3.89591492,13.6098836 3.06892461,13.3737375 3.06892461,13.1504233 C3.06892461,12.8154521 3.53314748,12.608749 4.43298977,12.608749 C5.03288464,12.608749 5.55408782,12.7334337 5.99659933,12.9828031 C5.36479098,12.1560339 4.71889311,11.701247 4.05890571,11.6184426 C3.39891831,11.5356382 2.46309153,11.5356382 1.25142537,11.6184426 C1.1060801,10.6233873 1.33561773,10.1258596 1.94003825,10.1258596 C2.54445878,10.1258596 2.84244831,10.1893494 2.83400686,10.3163289 C4.4722201,10.4289021 5.443457,10.6533473 5.74771757,10.9896646 C6.05197813,11.3259818 6.56104154,11.8656766 7.2749078,12.608749 C6.72368092,11.2074484 6.21461751,10.4433084 5.74771757,10.3163289 C5.04736765,10.1258596 2.40910996,10.1434532 2.40910996,9.87763762 C2.40910996,9.70042725 2.87684881,9.51636433 3.81232651,9.32544884 L3.81232651,8.19818372 C4.16878732,8.02291151 4.5804677,7.9352754 5.04736765,7.9352754 C5.51426759,7.9352754 6.25678098,8.02291151 7.2749078,8.19818372 L7.42461973,7.8262465 C6.87937886,7.51088867 6.18211631,7.35320976 5.33283207,7.35320976 C4.05890571,7.35320976 3.75975777,7.62702097 3.41434119,7.62702097 C3.06892461,7.62702097 2.8198275,6.87455637 5.04736765,6.74578664 C6.53239442,6.65994015 7.59051153,6.95368492 8.22171899,7.62702097 L11.1505124,6.28076187 C9.82333936,4.84246145 7.95646707,4.19373951 5.54989554,4.33459603 C1.94003825,4.54588082 1.50656166,4.69125269 1.25142537,4.03897904 C0.996289091,3.3867054 1.74392311,2.69817139 4.78779847,2.69817139 C6.81704871,2.69817139 8.70477207,3.14510727 10.4509686,4.03897904 L10.5712063,2.69817139 C9.07318314,2.11734471 7.14538053,1.82693137 4.78779847,1.82693137 C2.4302164,1.82693137 0.491537095,2.07466926 -1.02823946,2.57014503 L1.94003825,62.2065209 L9.53822168,65.4909803 Z" id="Path-81" fill="#1D2F76" mask="url(#mask-5)"></path>
                        <path d="M38.896146,110.374734 C38.801053,109.022763 38.4424793,107.901036 37.8204251,107.009553 C39.4648042,108.64737 40.2548294,109.899919 40.1905008,110.7672 L38.896146,110.374734 Z" id="Path-85" fill="#1D2F76" mask="url(#mask-5)"></path>
                        <path d="M30.0466355,66.128537 C31.3843472,66.1464157 32.3402811,66.5180702 32.9144374,67.2435005 C33.7756719,68.3316459 33.1471942,71.3199597 34.3340131,72.8519266 C35.1252257,73.8732378 36.1774254,75.0722619 37.4906122,76.4489987 C36.0117872,75.7779718 34.8231729,74.7877756 33.9247692,73.4784101 C32.5771636,71.5143618 33.2073603,69.5229199 32.5339586,68.5229403 C32.0850241,67.8562872 31.2559164,67.0581528 30.0466355,66.128537 Z" id="Path-88" fill="#1D2F76" mask="url(#mask-5)"></path>
                        <path d="M13.3970721,69.023091 C15.6013544,67.4986225 17.9754171,65.2927725 20.5192603,62.4055409 C23.0631035,59.5183093 25.0895595,56.6291603 26.5986282,53.7380938 C24.8646401,57.8955941 22.8381841,61.3382943 20.5192603,64.0661944 C18.2003365,66.7940945 15.8262737,68.4463934 13.3970721,69.023091 Z" id="Path-89" fill="#1D2F76" mask="url(#mask-5)"></path>
                        <path d="M17.1357992,60.9818319 C18.4199834,59.8534358 19.5877118,58.6660119 20.6389846,57.4195602 C21.6902573,56.1731085 22.9207231,54.3439441 24.3303821,51.9320671 C21.9110771,54.7860055 20.3218286,56.6151698 19.5626367,57.4195602 C18.8034447,58.2239506 17.9944989,59.4113745 17.1357992,60.9818319 Z" id="Path-90" fill="#1D2F76" mask="url(#mask-5)"></path>
                        <path d="M15.6678629,52.0928755 C16.5998188,51.354147 17.1490685,50.6851425 17.3156118,50.085862 C17.4821552,49.4865814 17.5379594,48.1254109 17.4830244,46.0023503 C17.0459549,48.1857638 16.7468345,49.4749124 16.5856631,49.8697962 C16.4244918,50.26468 16.1185584,51.0057064 15.6678629,52.0928755 Z" id="Path-91" fill="#1D2F76" mask="url(#mask-5)"></path>
                        <path d="M33.74886,55.382886 C32.5695769,54.2573959 31.1154829,53.4647473 29.3865781,53.0049403 C31.6159341,53.0107718 33.070028,53.8034204 33.74886,55.382886 Z" id="Path-92" fill="#1D2F76" mask="url(#mask-5)"></path>
                        <path d="M27.1931853,41.2974144 C27.5113802,39.9372365 27.4642966,38.8032678 27.0519346,37.8955084 C26.4333917,36.5338691 23.600671,35.7588623 23.2391211,35.3253955 C22.9980878,35.0364176 22.858815,34.7615964 22.8213028,34.5009318 C22.7851095,35.1799932 23.1577084,35.7478795 23.9390997,36.2045906 C25.1111866,36.8896572 26.055882,37.322713 26.5539083,38.1460807 C26.8859259,38.6949925 27.0990182,39.7454371 27.1931853,41.2974144 Z" id="Path-94" fill="#1D2F76" mask="url(#mask-5)"></path>
                        <path d="M25.5105832,38.796133 C25.4445133,37.8843825 25.0118129,37.3829497 24.2124822,37.2918346 C23.4131514,37.2007196 23.0592252,37.6729539 23.1507036,38.7085378 C23.5693058,38.6047434 23.8140713,38.5027689 23.8849999,38.4026144 C23.9559285,38.3024598 23.9979042,38.1810742 24.010927,38.0384575 C24.4125239,37.9710056 24.721607,38.0148354 24.9381762,38.169947 C25.1547454,38.3250586 25.3455478,38.5337872 25.5105832,38.796133 Z" id="Path-95" fill="#1D2F76" mask="url(#mask-5)"></path>
                        <path d="" id="Path-97" stroke="#979797" fill="#1D2F76" mask="url(#mask-5)"></path>
                        <polygon id="Path-99" fill="#1D2F76" mask="url(#mask-5)" points="17.465106 31.6959082 18.9251404 30.7963023 19.940011 29.2288035 21.4695486 30.1089364 23.180232 30.1089364 24.5111893 29.5867771 24.9000627 30.6763234 26.5040288 31.6959082 28.2781173 31.3983166 27.7177142 32.8956184 28.4935847 34.5775996 29.5531749 34.8353029 28.7085049 35.1860527 28.4935847 36.8281456 38.0588379 39.4870929 36.9298911 23.4693463 21.4695486 21.1928811 12.0290423 26.6127377"></polygon>
                        <path d="M38.9905871,71.4193816 L43.7890403,73.6420665 L43.7890403,74.1246109 C41.3590073,72.9569156 39.9517569,72.294594 39.567289,72.137646 C39.1828211,71.980698 38.9905871,71.7412765 38.9905871,71.4193816 Z" id="Path-102" fill="#1D2F76" mask="url(#mask-5)"></path>
                        <path d="M48.7364048,67.2424123 L47.7297311,66.3213783 L50.1183051,63.3733308 C50.7849405,64.4577156 51.1182581,64.999908 51.1182581,64.999908 C51.1182581,64.999908 50.324307,65.7474094 48.7364048,67.2424123 Z" id="Path-103" fill="#1D2F76" mask="url(#mask-5)"></path>
                    </g>
                    <g id="Group-120" transform="translate(0.000000, 143.630363)">
                        <rect id="Rectangle-131" fill="#1D2F76" x="2.10309278" y="0" width="39.4329897" height="4.75247525"></rect>
                        <rect id="Rectangle-131-Copy-2" fill="#1D2F76" x="0" y="4.75247525" width="41.5360825" height="11.6171617"></rect>
                        <rect id="Rectangle-131-Copy" fill="#1F7BD7" x="5.25773196" y="0" width="36.2783505" height="4.75247525"></rect>
                        <rect id="Rectangle-131-Copy-3" fill="#1F7BD7" x="4.20618557" y="4.75247525" width="39.4329897" height="11.6171617"></rect>
                        <rect id="Rectangle-131-Copy-4" fill="#1D2F76" x="4.20618557" y="4.75247525" width="39.4329897" height="1.58415842"></rect>
                        <polygon id="Rectangle-131-Copy-5" fill="#1D2F76" points="4.20618557 11.6171617 43.6391753 11.6171617 43.6391753 13.2013201 4.20618557 13.2013201"></polygon>
                    </g>
                </g>
            </g>
        </g>
    </g>
</svg>