<?xml version="1.0" encoding="UTF-8"?>
<svg width="88px" height="107px" viewBox="0 0 88 107" version="1.1" xmlns="http://www.w3.org/2000/svg" xmlns:xlink="http://www.w3.org/1999/xlink">
    <!-- Generator: Sketch 52.4 (67378) - http://www.bohemiancoding.com/sketch -->
    <title>Ease of Use</title>
    <desc>Created with Sketch.</desc>
    <defs>
        <linearGradient x1="50%" y1="0%" x2="50%" y2="129.15684%" id="linearGradient-1">
            <stop stop-color="#F4FAFF" offset="0%"></stop>
            <stop stop-color="#9DCEF8" offset="100%"></stop>
        </linearGradient>
        <linearGradient x1="83.3409274%" y1="-64.999992%" x2="50%" y2="100%" id="linearGradient-2">
            <stop stop-color="#80B1F1" offset="0%"></stop>
            <stop stop-color="#4979DF" offset="100%"></stop>
        </linearGradient>
        <linearGradient x1="15.2523332%" y1="6.14617099%" x2="97.7101877%" y2="97.0554051%" id="linearGradient-3">
            <stop stop-color="#2D5CDD" offset="0%"></stop>
            <stop stop-color="#1D2F76" offset="100%"></stop>
        </linearGradient>
    </defs>
    <g id="About-Us" stroke="none" stroke-width="1" fill="none" fill-rule="evenodd">
        <g transform="translate(-1528.000000, -1854.000000)" id="Ease-of-Use">
            <g transform="translate(1528.000000, 1854.000000)">
                <g id="Group-20">
                    <rect id="Rectangle-7" fill="url(#linearGradient-1)" fill-rule="nonzero" x="0" y="0" width="78" height="78" rx="2"></rect>
                    <path d="M2,0 L76,0 C77.1045695,-2.02906125e-16 78,0.8954305 78,2 L78,13 L0,13 L0,2 C-1.3527075e-16,0.8954305 0.8954305,2.02906125e-16 2,0 Z" id="Rectangle-7" fill="url(#linearGradient-2)"></path>
                    <circle id="Oval-4" fill="url(#linearGradient-1)" fill-rule="nonzero" cx="6.5" cy="6.5" r="2.5"></circle>
                    <circle id="Oval-4" fill="url(#linearGradient-1)" fill-rule="nonzero" cx="14.5" cy="6.5" r="2.5"></circle>
                </g>
                <g id="Group-20">
                    <path d="M9,22 L69,22 C70.1045695,22 71,22.8954305 71,24 L71,33 C71,34.1045695 70.1045695,35 69,35 L9,35 C7.8954305,35 7,34.1045695 7,33 L7,24 C7,22.8954305 7.8954305,22 9,22 Z" id="Rectangle-7" fill="url(#linearGradient-2)"></path>
                    <path d="M9,42 L69,42 C70.1045695,42 71,42.8954305 71,44 L71,53 C71,54.1045695 70.1045695,55 69,55 L9,55 C7.8954305,55 7,54.1045695 7,53 L7,44 C7,42.8954305 7.8954305,42 9,42 Z" id="Rectangle-7" fill="url(#linearGradient-2)" opacity="0.5"></path>
                    <path d="M2,0 L76,0 C77.1045695,-2.02906125e-16 78,0.8954305 78,2 L78,13 L0,13 L0,2 C-1.3527075e-16,0.8954305 0.8954305,2.02906125e-16 2,0 Z" id="Rectangle-7" fill="url(#linearGradient-2)"></path>
                    <circle id="Oval-4" fill="url(#linearGradient-1)" fill-rule="nonzero" cx="6.5" cy="6.5" r="2.5"></circle>
                    <circle id="Oval-4" fill="url(#linearGradient-1)" fill-rule="nonzero" cx="14.5" cy="6.5" r="2.5"></circle>
                </g>
                <polygon id="Combined-Shape" fill="url(#linearGradient-3)" points="66.393561 74.9596421 80.2763879 98.5650635 66.4101011 106.426799 52.5272742 82.8213777 39.250073 99.5445131 36 39 87.7820767 72.0284383"></polygon>
            </g>
        </g>
    </g>
</svg>